<?xml version="1.0" standalone="no"?>
<!DOCTYPE svg PUBLIC "-//W3C//DTD SVG 20010904//EN"
 "http://www.w3.org/TR/2001/REC-SVG-20010904/DTD/svg10.dtd">
<svg version="1.0" xmlns="http://www.w3.org/2000/svg"
 width="1200.000000pt" height="378.000000pt" viewBox="0 0 1200.000000 378.000000"
 preserveAspectRatio="xMidYMid meet">
<g transform="translate(0.000000,378.000000) scale(0.100000,-0.100000)"
fill="#000000" stroke="none">
<path d="M2388 3768 c-3 -8 -44 -14 -119 -18 -94 -6 -133 -13 -224 -44 -262
-88 -565 -273 -860 -525 -150 -129 -275 -251 -403 -396 -391 -442 -641 -903
-736 -1353 -20 -94 -26 -150 -26 -245 1 -86 5 -127 14 -139 7 -10 16 -18 19
-18 3 0 3 15 0 33 -3 23 0 37 11 46 9 8 16 29 16 49 0 44 40 133 58 127 6 -2
12 0 12 5 0 6 -4 10 -9 10 -5 0 -11 10 -15 23 -3 14 0 26 9 33 13 10 12 14 -5
29 -24 22 -26 35 -5 35 8 0 15 -4 15 -10 0 -5 5 -10 10 -10 6 0 10 7 10 15 0
8 -4 15 -10 15 -13 0 -13 37 -1 45 5 3 13 30 16 60 4 30 11 55 16 55 5 0 9 9
9 20 0 30 28 80 45 80 18 0 20 27 3 32 -7 3 -9 14 -4 34 l8 29 13 -25 c14 -24
14 -23 15 22 0 26 4 49 10 53 5 3 7 11 4 18 -2 7 5 22 16 34 11 12 20 32 20
45 0 13 9 38 21 57 11 18 18 39 15 46 -3 8 2 19 10 25 8 7 14 19 14 26 0 8 7
14 15 14 8 0 15 9 15 20 0 10 8 23 17 29 14 7 15 12 5 24 -10 12 -10 17 -1 23
6 4 16 0 21 -10 11 -20 28 -21 28 -1 0 8 -4 15 -10 15 -5 0 -10 9 -10 20 0 11
7 20 15 20 9 0 19 8 22 18 4 9 17 31 30 48 13 17 23 36 23 43 0 8 7 10 20 6
24 -7 26 7 5 25 -8 7 -15 19 -15 27 0 13 3 13 24 -1 14 -9 27 -12 31 -7 3 5 1
13 -5 16 -7 4 -1 17 15 32 18 19 24 32 19 47 -5 17 -4 19 7 9 7 -7 19 -13 27
-13 10 0 13 7 9 21 -7 26 1 49 18 49 7 0 18 14 26 31 11 28 14 29 24 15 21
-27 34 -19 28 18 -5 31 -1 37 40 67 24 19 49 46 56 60 6 14 24 32 39 39 15 7
22 15 15 17 -7 3 -13 12 -13 20 0 13 3 13 15 3 12 -10 16 -9 21 5 4 10 1 21
-7 27 -11 8 -10 9 4 4 14 -4 31 7 63 40 25 25 57 52 72 60 15 7 27 22 27 31 0
10 9 19 20 22 25 4 74 45 97 80 10 14 18 20 18 14 0 -7 5 -13 11 -13 7 0 9 9
6 23 -4 17 3 29 38 55 47 34 71 40 77 20 4 -10 10 -10 29 -1 l24 12 -27 0
c-18 1 -28 6 -28 16 0 8 4 15 9 15 5 0 31 16 57 36 41 31 50 35 67 24 14 -8
22 -9 30 -1 8 8 6 11 -6 11 -9 0 -26 9 -37 20 -16 16 -17 20 -5 20 8 0 15 -4
15 -10 0 -15 14 -12 36 8 10 10 28 16 39 15 11 -1 14 0 8 3 -17 7 -17 27 0 21
6 -2 19 1 27 8 8 7 40 25 70 41 30 16 58 33 61 38 7 8 36 4 76 -11 16 -6 16
-5 3 8 -8 8 -24 19 -35 23 -20 8 -20 8 1 16 12 5 25 13 29 19 3 6 14 11 24 11
9 0 28 10 40 21 16 16 25 18 30 10 6 -9 15 -9 37 -1 41 16 93 39 137 61 22 10
45 19 53 19 8 0 23 6 34 12 16 10 24 10 41 0 11 -7 29 -10 39 -7 10 3 21 2 24
-3 3 -5 -22 -12 -56 -16 -33 -3 -67 -11 -75 -18 -9 -7 -12 -21 -9 -34 6 -22 5
-22 -21 -8 -40 20 -56 18 -48 -6 4 -11 2 -20 -4 -20 -6 0 -19 -7 -28 -16 -10
-8 -38 -28 -63 -44 -29 -19 -52 -27 -65 -23 -18 5 -18 5 -2 -11 18 -19 22 -36
8 -36 -5 0 -14 7 -21 15 -7 8 -19 15 -26 15 -22 0 -16 -28 7 -35 18 -6 13 -10
-31 -26 -53 -18 -70 -32 -70 -56 0 -6 -9 -14 -19 -18 -14 -4 -18 -11 -14 -23
6 -14 4 -15 -9 -4 -11 9 -18 10 -23 2 -4 -6 -16 -8 -28 -5 -15 4 -18 3 -9 -3
10 -7 10 -13 0 -34 -8 -13 -19 -23 -26 -20 -6 2 -12 -3 -12 -12 0 -9 -7 -16
-15 -16 -8 0 -15 5 -15 11 0 5 -5 7 -10 4 -6 -4 -8 -11 -4 -16 7 -12 -22 -59
-37 -59 -18 0 -77 -67 -76 -87 2 -12 -5 -18 -20 -18 -12 0 -25 -4 -29 -8 -4
-4 -2 -7 4 -7 20 0 13 -27 -7 -33 -11 -2 -27 -20 -36 -38 -23 -45 -65 -83 -79
-69 -15 15 -26 12 -20 -5 4 -8 12 -15 20 -15 8 0 14 -5 14 -11 0 -7 -11 -8
-31 -4 -29 7 -30 5 -24 -15 4 -14 3 -20 -3 -16 -5 3 -17 -3 -26 -13 -10 -10
-25 -18 -34 -16 -9 1 -11 0 -4 -2 19 -7 14 -30 -13 -59 -14 -15 -25 -35 -25
-45 0 -11 -5 -19 -11 -19 -6 0 -9 6 -6 13 2 6 1 21 -4 32 -6 17 -8 15 -8 -11
-1 -17 -8 -37 -16 -44 -8 -7 -15 -17 -15 -23 0 -5 -17 -35 -37 -66 -21 -31
-40 -65 -43 -75 -8 -29 -30 -32 -23 -4 6 23 6 23 -15 4 -18 -16 -20 -22 -9
-34 9 -12 9 -16 0 -19 -7 -3 -13 -10 -13 -17 0 -7 -11 -25 -25 -40 -13 -14
-22 -33 -19 -41 4 -9 0 -15 -9 -15 -22 0 -53 -48 -61 -94 -6 -29 -10 -36 -19
-27 -18 18 -30 13 -23 -12 3 -15 -3 -35 -19 -58 -50 -74 -64 -106 -52 -118 8
-8 7 -11 -4 -11 -9 0 -28 -25 -44 -57 -15 -32 -33 -61 -41 -66 -7 -4 -15 -22
-19 -40 -4 -17 -16 -52 -27 -76 -11 -25 -22 -60 -25 -78 -3 -18 -12 -38 -19
-44 -8 -6 -14 -18 -14 -25 0 -8 -4 -14 -9 -14 -15 0 -22 -32 -11 -45 7 -9 7
-15 1 -19 -5 -4 -14 2 -20 11 -9 16 -10 16 -11 -3 0 -12 7 -24 15 -28 8 -3 15
-10 15 -17 0 -6 -7 -9 -14 -6 -19 7 -32 -31 -17 -46 13 -13 15 -67 3 -67 -4 0
-8 10 -7 23 0 12 -4 24 -10 27 -6 3 -12 -23 -16 -65 -3 -38 -12 -90 -19 -115
-8 -29 -13 -109 -14 -220 -1 -175 9 -296 25 -306 5 -3 9 -18 9 -35 0 -16 5
-29 10 -29 6 0 17 -18 26 -40 9 -22 20 -40 25 -40 5 0 9 -7 9 -15 0 -8 14 -30
30 -48 17 -19 30 -41 30 -49 0 -19 29 -45 113 -101 38 -27 74 -44 82 -41 8 4
15 1 15 -5 0 -6 -5 -11 -11 -11 -5 0 -8 -4 -5 -9 3 -5 14 -7 24 -4 10 2 24 -3
31 -11 8 -9 22 -16 32 -16 11 0 19 -3 19 -8 0 -14 56 -30 133 -37 42 -4 77
-10 77 -14 0 -13 -213 -21 -227 -9 -9 7 -17 7 -27 -1 -11 -9 -18 -6 -35 16
-20 28 -20 28 -21 4 0 -19 -4 -22 -22 -17 -13 4 -47 8 -76 10 -29 2 -58 8 -65
15 -6 6 -21 11 -32 11 -12 0 -25 3 -29 7 -10 11 -79 33 -102 33 -11 0 -31 11
-44 26 -21 21 -22 27 -10 34 8 5 18 10 23 10 9 0 10 30 0 30 -4 0 -17 -10 -29
-21 -22 -21 -24 -21 -58 -5 -39 18 -56 38 -38 44 7 2 12 8 12 14 0 6 -6 8 -14
5 -20 -8 -28 4 -14 20 17 21 0 28 -22 8 -20 -18 -20 -17 -20 9 0 15 -7 29 -15
32 -15 6 -21 35 -9 46 7 8 55 -17 64 -32 5 -8 10 -9 14 -2 3 6 -10 20 -29 32
-25 16 -43 20 -65 15 -24 -5 -29 -4 -24 8 5 14 -8 36 -49 79 -9 10 -12 18 -6
18 13 0 2 41 -16 55 -6 6 -16 21 -20 34 -6 20 -4 23 9 18 10 -4 16 -1 16 7 0
8 -7 16 -15 20 -8 3 -15 14 -15 24 0 11 -7 25 -15 32 -11 9 -12 17 -5 30 6 10
9 40 8 67 -1 40 -2 42 -5 13 -7 -55 -20 -58 -42 -9 -11 24 -20 37 -21 29 -1
-8 -1 -58 0 -110 1 -109 23 -198 76 -303 45 -89 98 -160 173 -229 120 -111
274 -183 457 -212 125 -20 242 -20 399 -2 151 18 285 45 545 107 433 105 546
132 640 149 36 6 85 16 110 21 74 15 196 29 363 39 277 18 492 -16 672 -104
50 -25 119 -69 154 -100 65 -57 135 -140 146 -176 4 -11 10 -20 15 -20 5 0 21
19 37 43 41 60 153 141 243 174 73 27 81 28 275 28 168 0 215 -4 295 -22 195
-44 348 -108 490 -202 71 -48 93 -52 73 -16 -5 9 -54 55 -109 102 -203 176
-464 355 -634 435 -87 40 -225 85 -355 115 -114 26 -132 27 -390 27 -244 1
-287 -2 -450 -27 -281 -42 -491 -87 -960 -203 -325 -81 -624 -145 -775 -165
-133 -18 -386 -15 -484 5 -47 9 -117 34 -170 60 -150 73 -251 191 -302 350
-21 65 -27 109 -31 218 -6 155 4 248 48 415 117 453 387 936 793 1423 102 122
355 379 466 472 180 152 351 258 498 309 31 11 89 23 128 26 58 5 77 2 103
-13 54 -32 80 -123 45 -158 -8 -9 -31 -16 -50 -16 -48 0 -94 -21 -144 -66 -49
-44 -85 -111 -94 -175 -8 -51 4 -92 36 -126 43 -46 139 -21 214 54 51 52 116
155 147 234 14 36 28 90 31 121 10 106 -41 211 -131 268 -37 23 -58 30 -99 30
-33 0 -58 5 -68 15 -18 18 -53 20 -58 3z m37 -67 c-4 -7 -19 -9 -39 -5 -23 4
-38 1 -48 -10 -22 -21 -30 -8 -12 20 10 14 28 24 47 26 35 4 63 -13 52 -31z
m-142 -18 c-7 -2 -21 -2 -30 0 -10 3 -4 5 12 5 17 0 24 -2 18 -5z m100 -20
c-7 -2 -19 -2 -25 0 -7 3 -2 5 12 5 14 0 19 -2 13 -5z m227 -323 c0 -5 -4 -10
-9 -10 -6 0 -13 5 -16 10 -3 6 1 10 9 10 9 0 16 -4 16 -10z m-33 -44 c-3 -8 0
-19 6 -26 9 -10 7 -11 -10 -5 -20 5 -23 3 -23 -22 0 -19 -14 -43 -46 -76 -26
-27 -52 -46 -59 -43 -7 2 -17 18 -23 35 -8 23 -7 32 4 42 8 6 14 17 14 24 0 8
12 23 27 35 22 17 24 23 13 30 -25 15 -1 24 25 10 20 -10 28 -11 37 -2 9 9 8
12 -5 12 -9 0 -17 7 -17 15 0 14 3 14 31 0 18 -10 28 -22 26 -29z m-847 -26
c0 -5 -4 -10 -10 -10 -5 0 -10 5 -10 10 0 6 5 10 10 10 6 0 10 -4 10 -10z
m-170 -163 c0 -2 -9 -14 -20 -27 -11 -13 -23 -20 -26 -17 -4 4 4 15 17 26 25
21 29 23 29 18z m-1344 -1414 c-10 -10 -19 5 -10 18 6 11 8 11 12 0 2 -7 1
-15 -2 -18z m-56 -148 c0 -8 -4 -15 -10 -15 -5 0 -10 7 -10 15 0 8 5 15 10 15
6 0 10 -7 10 -15z m-60 -275 c0 -16 -4 -30 -10 -30 -5 0 -10 14 -10 30 0 17 5
30 10 30 6 0 10 -13 10 -30z m3266 -680 c4 0 16 8 26 17 16 14 23 15 38 5 11
-7 34 -12 51 -12 26 0 29 3 20 14 -10 12 19 13 191 10 112 -3 221 -4 242 -4
42 1 91 -14 118 -38 12 -10 22 -11 35 -4 12 7 24 7 36 0 11 -5 32 -8 47 -4 19
3 30 1 33 -8 3 -8 28 -20 56 -27 28 -7 51 -18 51 -25 0 -13 43 -44 60 -44 7 0
9 8 5 20 -9 27 20 27 37 0 7 -11 24 -20 37 -20 23 0 24 -1 7 -13 -18 -13 -18
-14 -2 -20 10 -4 28 -4 41 -1 18 4 25 1 30 -15 3 -12 15 -21 26 -21 25 0 25
-26 0 -40 -24 -12 -54 -2 -47 15 3 8 -1 16 -8 18 -20 8 -66 -4 -59 -15 4 -7
-13 -8 -48 -4 -113 13 -228 16 -234 6 -3 -5 -18 -10 -32 -10 -18 0 -24 -4 -19
-15 4 -12 -3 -15 -34 -15 -22 0 -40 -4 -40 -10 0 -5 -11 -10 -25 -10 -13 0
-39 -9 -57 -20 -18 -11 -41 -20 -50 -20 -12 0 -18 -8 -18 -25 0 -27 -10 -31
-42 -14 -19 10 -20 9 -16 -15 3 -14 1 -23 -4 -20 -5 4 -20 -4 -34 -17 -19 -18
-24 -19 -24 -6 0 8 7 23 16 32 9 9 13 19 9 23 -4 4 -10 1 -12 -5 -8 -22 -25
-15 -65 27 -23 23 -45 37 -53 34 -8 -4 -18 1 -21 10 -3 9 -12 16 -19 16 -18 0
-28 32 -13 42 7 4 -1 5 -20 2 -28 -6 -37 -2 -62 26 -21 23 -35 31 -50 27 -11
-3 -20 -1 -20 4 0 5 -5 9 -12 9 -6 0 -19 6 -27 13 -23 19 -142 57 -179 57 -18
0 -32 5 -32 10 0 12 -62 13 -114 0 -30 -6 -42 -5 -50 4 -6 8 -20 18 -31 24
-19 11 -18 11 8 12 15 0 27 -4 27 -10 0 -12 59 -12 115 -1 37 8 38 9 9 10 -58
2 -124 14 -119 21 3 4 34 8 70 8 37 0 71 5 80 12 12 10 15 10 15 -4 0 -19 11
-21 28 -4 7 7 30 11 53 10 35 -3 41 0 46 19 l6 23 8 -22 c5 -12 12 -22 15 -22z
m734 10 c0 -5 -4 -10 -9 -10 -6 0 -13 5 -16 10 -3 6 1 10 9 10 9 0 16 -4 16
-10z m257 -86 c-9 -9 -28 6 -21 18 4 6 10 6 17 -1 6 -6 8 -13 4 -17z m288
-165 c4 -6 5 -12 2 -15 -7 -7 -37 7 -37 17 0 13 27 11 35 -2z"/>
<path d="M3845 580 c3 -5 12 -7 20 -3 21 7 19 13 -6 13 -11 0 -18 -4 -14 -10z"/>
<path d="M3536 411 c-4 -6 3 -15 14 -21 23 -12 27 2 6 19 -9 8 -16 8 -20 2z"/>
<path d="M4125 410 c-3 -5 1 -10 10 -10 9 0 13 5 10 10 -3 6 -8 10 -10 10 -2
0 -7 -4 -10 -10z"/>
<path d="M4000 355 c0 -8 5 -15 10 -15 6 0 10 7 10 15 0 8 -4 15 -10 15 -5 0
-10 -7 -10 -15z"/>
<path d="M3637 343 c-12 -11 -8 -23 8 -23 8 0 15 7 15 15 0 16 -12 20 -23 8z"/>
<path d="M11875 3662 c-114 -110 -208 -183 -351 -273 -196 -122 -460 -229
-629 -254 -128 -19 -219 -26 -269 -21 l-61 6 -93 -108 c-51 -59 -112 -127
-137 -152 -24 -25 -44 -50 -45 -56 0 -8 44 -14 128 -18 144 -8 317 6 430 35
106 27 258 90 373 155 148 83 290 192 424 328 112 113 299 346 327 409 7 15
16 27 20 27 5 0 8 5 8 10 0 25 -32 2 -125 -88z m-445 -447 c0 -8 -7 -15 -15
-15 -8 0 -15 7 -15 15 0 8 7 15 15 15 8 0 15 -7 15 -15z m-50 -20 c20 -24 6
-28 -15 -5 -10 11 -13 20 -8 20 6 0 16 -7 23 -15z m-108 -37 c-6 -6 -16 -7
-22 -3 -9 6 -9 9 1 16 17 10 34 0 21 -13z m65 -13 c-13 -26 -37 -34 -37 -12 0
16 20 37 36 37 9 0 9 -6 1 -25z m-62 -33 c18 -10 18 -11 3 -17 -21 -8 -53 19
-42 36 4 7 9 7 13 2 3 -5 15 -15 26 -21z m-57 -4 c7 -7 12 -15 12 -19 0 -12
-197 -109 -222 -109 -13 0 -29 -9 -36 -20 -9 -15 -23 -20 -57 -20 -25 0 -45
-4 -45 -10 0 -5 -17 -12 -37 -15 -21 -4 -51 -13 -68 -20 -16 -7 -70 -15 -120
-17 -89 -3 -90 -3 -87 20 2 13 -2 29 -8 37 -9 11 -8 19 3 35 10 15 17 18 22
10 5 -8 17 -3 37 17 24 22 39 28 83 30 30 1 55 -2 55 -7 0 -4 -6 -11 -12 -13
-7 -3 -3 -6 9 -6 12 -1 23 4 25 10 2 6 35 13 73 15 39 3 78 6 88 7 9 1 17 9
17 19 0 15 6 17 38 13 26 -4 60 3 117 24 44 17 85 30 91 30 5 1 15 -4 22 -11z
m-678 -187 c-1 -20 -24 -51 -39 -51 -14 0 -15 17 -1 25 6 3 10 17 10 30 0 18
4 23 15 19 8 -4 15 -14 15 -23z"/>
<path d="M10828 2983 c6 -2 18 -2 25 0 6 3 1 5 -13 5 -14 0 -19 -2 -12 -5z"/>
<path d="M10715 2970 c-3 -5 1 -10 10 -10 9 0 13 5 10 10 -3 6 -8 10 -10 10
-2 0 -7 -4 -10 -10z"/>
<path d="M10910 2970 c0 -5 7 -10 16 -10 8 0 12 5 9 10 -3 6 -10 10 -16 10 -5
0 -9 -4 -9 -10z"/>
<path d="M7934 3726 c-247 -64 -570 -234 -854 -450 -219 -166 -460 -392 -646
-606 -351 -403 -650 -874 -808 -1270 -62 -158 -112 -358 -127 -512 -10 -101
-10 -148 0 -230 22 -178 78 -307 176 -405 100 -100 231 -153 377 -153 89 0
193 19 288 52 389 136 797 559 1002 1038 41 96 81 225 99 318 7 35 10 104 7
160 -4 78 -10 107 -30 147 -30 58 -57 85 -116 114 -54 27 -135 29 -218 6 -79
-23 -218 -95 -296 -154 -81 -61 -182 -169 -236 -251 -59 -89 -133 -244 -177
-370 -59 -171 -101 -360 -79 -360 3 0 28 25 56 56 96 104 269 233 384 285 49
22 64 34 64 50 0 35 56 192 99 277 65 130 167 242 254 280 36 15 117 15 138
-1 32 -24 43 -61 43 -137 -1 -121 -55 -296 -146 -475 -150 -293 -448 -607
-678 -715 -70 -33 -82 -35 -175 -35 -92 0 -104 3 -153 30 -131 72 -180 191
-169 403 4 81 16 148 51 277 64 244 122 394 235 611 38 72 90 167 117 210 173
288 394 593 587 809 131 147 356 366 494 480 207 172 436 319 569 366 61 21
215 42 240 32 15 -6 20 -33 5 -33 -15 0 -154 -95 -243 -166 -109 -88 -217
-189 -287 -268 -64 -73 -181 -246 -226 -336 -78 -155 -110 -299 -86 -388 25
-92 114 -150 214 -139 128 13 265 95 409 246 107 111 233 292 307 440 56 113
105 256 121 359 7 40 10 106 9 145 l-4 72 50 8 c80 13 212 0 299 -28 130 -42
302 -135 543 -293 211 -137 396 -252 409 -252 6 0 295 293 291 296 -1 1 -45
24 -97 51 -52 27 -188 104 -301 170 -368 216 -506 263 -762 263 -179 0 -355
-31 -465 -83 l-43 -20 -27 25 c-68 62 -128 78 -284 78 -85 -1 -136 -7 -204
-24z m1119 -65 c54 -6 105 -15 115 -20 9 -5 37 -14 62 -21 48 -12 144 -46 171
-60 9 -5 26 -6 38 -3 24 6 29 -12 5 -21 -8 -3 -12 -10 -9 -16 4 -6 11 -7 17
-4 6 4 17 -1 25 -12 9 -13 25 -18 53 -17 22 1 40 -2 40 -8 0 -5 -7 -9 -15 -9
-8 0 -15 -4 -15 -10 0 -5 6 -10 14 -10 8 0 18 5 21 10 3 6 15 10 27 10 14 0
18 -5 14 -15 -4 -11 12 -23 58 -45 35 -17 69 -37 76 -45 7 -8 20 -15 29 -15 9
0 29 -14 44 -32 21 -23 31 -28 39 -20 15 15 28 15 28 1 0 -20 28 -39 47 -32
16 6 16 5 4 -10 -12 -15 -10 -19 10 -37 13 -10 19 -19 12 -20 -6 0 -13 5 -15
11 -2 7 -19 -7 -37 -30 -18 -22 -38 -41 -45 -41 -7 0 -20 -8 -29 -18 -11 -12
-13 -22 -7 -28 7 -7 0 -11 -22 -11 -18 0 -27 2 -20 5 21 7 13 32 -13 44 -18 8
-29 8 -36 1 -8 -8 -16 -7 -27 4 -35 30 -94 63 -114 63 -17 0 -18 2 -8 15 10
12 10 19 2 27 -8 8 -13 7 -17 -5 -7 -17 -35 -12 -35 5 0 6 8 17 17 24 10 7 15
15 12 19 -4 3 -14 -2 -24 -11 -16 -17 -18 -17 -30 -1 -7 9 -19 17 -28 17 -9 0
-19 5 -22 10 -4 6 -16 8 -28 5 -12 -2 -16 -2 -9 1 6 3 12 13 12 21 0 10 -6 13
-16 9 -9 -4 -34 6 -59 23 -24 16 -53 32 -66 36 -22 7 -22 8 -4 21 17 13 16 14
-18 14 -24 0 -40 5 -43 15 -4 8 -14 15 -23 15 -9 0 -31 9 -49 20 -27 16 -37
18 -48 9 -11 -9 -14 -8 -14 4 0 9 4 18 9 21 14 9 -12 56 -31 56 -25 0 -23 -21
2 -27 11 -3 20 -9 20 -14 0 -5 -9 -9 -20 -9 -11 0 -20 5 -20 10 0 6 -8 10 -19
10 -10 0 -24 7 -31 15 -8 9 -21 13 -36 9 -28 -7 -31 2 -7 28 13 14 13 18 2 18
-8 0 -23 -7 -33 -15 -25 -19 -40 -19 -32 0 3 9 0 15 -9 15 -8 0 -15 5 -15 10
0 6 -13 10 -29 10 -17 0 -32 4 -35 9 -8 12 18 21 62 21 20 0 44 4 52 9 8 6 17
8 20 6 3 -2 49 -8 103 -14z m-1053 -16 c0 -3 -10 -10 -22 -15 -13 -6 -30 -14
-38 -19 -49 -28 -78 -40 -84 -34 -12 13 -6 23 15 23 11 0 27 7 35 15 9 8 24
15 34 15 10 0 22 5 25 10 6 10 35 14 35 5z m780 -3 c0 -13 -12 -22 -22 -16
-10 6 -1 24 13 24 5 0 9 -4 9 -8z m-310 -62 c0 -4 -12 -5 -26 -2 -17 3 -22 7
-13 12 13 9 39 2 39 -10z m-640 -4 c0 -15 -46 -56 -62 -56 -15 0 -73 -52 -70
-62 1 -4 -2 -8 -8 -8 -5 0 -10 5 -10 10 0 6 -7 10 -15 10 -8 0 -15 -7 -15 -15
0 -17 -25 -20 -35 -5 -4 6 -11 7 -17 4 -6 -4 2 -16 18 -30 28 -23 28 -23 6
-24 -12 0 -25 -7 -28 -15 -8 -20 -24 -19 -41 3 -12 15 -13 12 -8 -23 5 -32 4
-36 -5 -22 -13 21 -30 22 -30 2 0 -8 5 -15 10 -15 6 0 10 -5 10 -11 0 -8 -5
-7 -16 2 -13 11 -17 10 -25 -4 -6 -9 -18 -17 -27 -17 -9 0 -26 -8 -37 -16 -14
-11 -16 -18 -7 -21 19 -7 14 -23 -8 -23 -12 0 -25 -10 -32 -25 -6 -14 -15 -25
-21 -25 -9 0 -56 -35 -90 -68 -10 -9 -28 -16 -40 -15 -16 1 -17 0 -4 -3 22 -7
17 -30 -6 -28 -9 1 -19 -6 -22 -16 -3 -10 -21 -30 -40 -45 -19 -14 -35 -31
-35 -36 0 -6 -7 -17 -15 -25 -8 -8 -22 -25 -31 -37 -11 -15 -18 -18 -21 -9 -7
18 -23 15 -23 -5 0 -10 -14 -32 -30 -50 -17 -18 -30 -40 -30 -49 0 -15 -2 -16
-17 -2 -22 18 -53 12 -53 -9 0 -12 3 -13 14 -4 10 9 13 5 12 -18 -1 -29 -19
-32 -30 -5 -7 19 -26 18 -26 -1 0 -8 5 -15 10 -15 17 0 11 -20 -15 -48 -16
-17 -23 -33 -19 -45 5 -16 3 -17 -15 -6 -11 8 -24 9 -28 5 -4 -5 -2 -11 5 -13
14 -5 17 -33 2 -33 -5 0 -18 10 -30 22 -17 18 -20 19 -20 5 0 -9 5 -17 10 -17
6 0 10 -7 10 -15 0 -8 -5 -15 -11 -15 -7 0 -9 -11 -5 -27 3 -16 3 -22 0 -15
-8 17 -34 15 -34 -3 0 -8 -4 -15 -10 -15 -5 0 -10 -8 -10 -18 0 -11 -9 -30
-20 -43 -47 -55 -80 -103 -80 -115 0 -8 -4 -14 -10 -14 -18 0 -10 50 13 83 12
18 27 35 32 39 6 5 4 8 -4 8 -28 0 -58 -47 -65 -103 -4 -31 -14 -61 -22 -68
-8 -6 -14 -17 -14 -23 0 -6 -14 -28 -30 -48 -17 -20 -29 -42 -27 -50 2 -7 2
-10 0 -5 -9 15 -33 6 -33 -13 0 -11 -14 -33 -31 -49 -20 -20 -29 -37 -27 -53
2 -16 -4 -26 -24 -36 -29 -14 -40 -36 -13 -26 8 4 15 1 15 -5 0 -17 -30 -25
-43 -12 -6 6 -18 11 -26 11 -11 0 -10 -4 4 -20 17 -19 17 -21 2 -38 -10 -10
-17 -28 -17 -40 0 -15 -5 -20 -15 -16 -10 4 -15 0 -15 -14 0 -11 5 -22 12 -24
6 -2 8 -10 4 -17 -6 -9 -11 -9 -24 1 -13 11 -15 10 -10 -10 4 -15 -2 -38 -18
-65 -13 -23 -24 -50 -24 -60 0 -10 -7 -25 -15 -33 -8 -9 -15 -24 -15 -35 0
-10 -5 -19 -11 -19 -7 0 -9 10 -5 25 8 31 -2 54 -15 34 -5 -8 -9 -30 -9 -51 0
-28 -6 -41 -26 -55 -24 -18 -25 -22 -15 -58 9 -35 8 -43 -13 -75 -14 -19 -28
-52 -31 -73 -4 -20 -11 -40 -16 -43 -5 -3 -9 -16 -9 -29 0 -13 -5 -27 -10 -30
-6 -3 -7 -17 -4 -30 3 -12 1 -26 -5 -29 -6 -4 -11 -25 -11 -47 0 -28 -4 -39
-15 -39 -10 0 -17 -14 -21 -41 -4 -22 -13 -43 -20 -46 -19 -7 -18 -33 1 -33
18 0 20 -21 3 -38 -8 -8 -14 -52 -15 -120 -2 -59 -4 -114 -5 -122 -3 -33 5
-124 9 -102 5 25 23 30 23 7 0 -9 -7 -31 -14 -50 -8 -19 -13 -35 -11 -35 2 0
13 10 25 22 l20 22 0 -26 c0 -13 9 -33 20 -43 11 -10 20 -24 20 -31 0 -8 9
-19 20 -26 11 -7 20 -17 20 -23 0 -13 113 -85 134 -85 9 0 16 -4 16 -10 0 -5
15 -10 33 -11 17 0 26 -3 20 -6 -14 -5 -18 -33 -5 -33 4 0 12 4 18 9 15 14 84
23 84 11 0 -6 -8 -14 -17 -17 -10 -4 -22 -12 -26 -20 -4 -7 -15 -13 -22 -13
-8 0 -15 -3 -15 -8 0 -4 -13 -13 -29 -20 -19 -8 -51 -10 -100 -6 -64 6 -71 5
-71 -11 0 -14 -6 -16 -32 -11 -18 4 -50 9 -71 13 -29 4 -35 8 -27 18 8 10 6
15 -11 20 -16 5 -26 2 -35 -9 -8 -11 -14 -13 -19 -7 -3 6 -4 15 0 20 9 16 -13
23 -32 10 -16 -9 -24 -6 -52 20 -18 17 -37 31 -42 31 -5 0 -9 4 -9 9 0 6 -12
22 -26 38 -14 15 -23 35 -21 44 3 11 -2 19 -14 22 -12 3 -22 18 -25 36 -4 17
-10 31 -13 31 -4 0 -15 26 -24 58 -12 41 -17 102 -19 222 -1 91 -6 170 -11
177 -11 15 -5 45 8 42 6 0 15 27 22 62 22 119 36 162 55 167 10 2 18 11 18 18
0 20 -17 17 -29 -3 -5 -10 -13 -15 -16 -11 -8 7 -5 14 20 58 8 14 15 40 15 58
0 17 4 32 10 32 5 0 7 -13 4 -30 -4 -16 -3 -37 2 -47 5 -13 9 -4 14 32 4 28 3
54 -1 60 -16 17 -10 33 11 28 17 -5 20 0 20 31 0 20 4 36 8 36 4 0 14 17 21
38 18 50 30 64 52 57 24 -8 25 13 2 30 -17 12 -17 14 -1 32 9 10 18 29 20 43
2 19 8 24 25 23 14 -2 27 5 33 17 10 18 8 19 -15 10 -30 -11 -33 0 -5 18 11 7
20 19 20 27 0 8 5 15 10 15 6 0 10 6 10 14 0 7 7 19 15 26 9 7 13 21 10 30 -4
12 1 19 13 22 12 4 28 28 43 67 16 41 29 60 39 58 9 -1 16 7 18 22 2 13 8 29
13 35 45 56 59 76 77 109 16 31 21 34 27 20 6 -17 7 -17 21 1 10 15 11 22 3
27 -13 8 -5 39 10 39 5 0 12 -8 15 -17 2 -10 2 -2 0 17 -4 29 -2 37 18 45 14
6 23 19 23 31 0 12 9 31 19 43 11 12 29 38 41 57 l22 36 21 -26 c12 -16 23
-23 27 -16 4 6 2 17 -5 25 -22 27 40 89 70 70 6 -4 18 -1 26 6 22 18 52 81 47
97 -3 7 1 21 9 30 8 9 18 25 21 34 3 9 24 22 46 28 23 6 41 15 41 21 0 5 -11
7 -25 3 -14 -3 -25 -4 -25 -1 0 4 12 18 26 32 14 14 30 22 36 19 11 -7 57 43
58 62 0 7 9 14 20 17 12 3 20 14 20 25 0 22 34 52 59 52 8 0 30 14 48 32 27
26 35 29 48 18 12 -10 15 -10 15 2 0 8 -5 19 -11 25 -7 7 -2 17 21 33 17 12
35 32 40 44 8 19 9 18 15 -11 4 -18 11 -31 15 -28 12 7 18 55 8 61 -13 8 2 26
18 20 8 -3 14 1 14 9 0 20 17 19 29 -2 8 -14 12 -15 22 -6 10 10 9 14 -4 19
-21 8 -23 34 -3 34 8 0 27 13 43 29 26 26 31 27 40 12 10 -14 12 -13 21 9 5
14 23 32 38 40 16 8 32 19 35 23 3 4 19 10 35 12 16 2 31 4 33 4 2 1 -2 8 -9
16 -10 13 -9 15 9 15 11 0 21 4 21 8 0 4 12 13 28 20 15 7 36 18 47 25 51 32
71 41 88 38 9 -1 17 3 17 8 0 6 30 26 68 44 37 17 72 37 77 43 9 10 118 52
138 54 4 0 7 -6 7 -14z m598 -34 c2 -7 -2 -10 -12 -6 -9 3 -16 11 -16 16 0 13
23 5 28 -10z m52 8 c0 -5 -7 -10 -16 -10 -8 0 -12 5 -9 10 3 6 10 10 16 10 5
0 9 -4 9 -10z m-72 -72 c12 -16 -9 -174 -36 -268 -66 -224 -188 -430 -354
-599 -145 -147 -260 -221 -342 -221 -55 0 -84 22 -96 74 -23 104 59 292 224
511 74 99 229 260 316 330 68 54 259 185 271 185 4 0 11 -6 17 -12z m1097
-228 c3 -5 -1 -10 -10 -10 -9 0 -13 5 -10 10 3 6 8 10 10 10 2 0 7 -4 10 -10z
m265 -140 c0 -5 -7 -10 -16 -10 -8 0 -12 5 -9 10 3 6 10 10 16 10 5 0 9 -4 9
-10z m-3250 -495 c0 -28 -48 -85 -72 -85 -23 0 -23 12 0 26 10 6 26 30 37 52
21 43 35 46 35 7z m720 -765 c0 -5 -4 -10 -10 -10 -5 0 -10 5 -10 10 0 6 5 10
10 10 6 0 10 -4 10 -10z m-130 -35 c0 -8 -7 -15 -15 -15 -8 0 -15 7 -15 15 0
8 7 15 15 15 8 0 15 -7 15 -15z m-55 -15 c19 -21 11 -26 -15 -10 -20 12 -50
-16 -50 -47 0 -12 -2 -23 -5 -23 -4 0 -19 7 -35 15 -34 17 -39 35 -12 35 10 0
29 11 42 25 13 14 31 25 40 25 9 0 25 -9 35 -20z m-147 -67 c21 -9 39 -18 41
-19 2 -2 -8 -19 -23 -38 -14 -19 -23 -41 -20 -50 4 -10 0 -13 -13 -10 -13 3
-22 -5 -34 -33 -38 -91 -49 -113 -59 -113 -5 0 -10 11 -10 25 0 19 5 25 22 25
18 0 20 2 9 13 -10 10 -16 7 -32 -12 -21 -26 -24 -46 -9 -56 18 -11 11 -35
-10 -35 -23 0 -26 -10 -8 -28 9 -9 9 -15 0 -24 -7 -7 -12 -27 -12 -45 0 -27
-4 -33 -17 -31 -13 2 -20 -6 -24 -27 -9 -47 -21 -75 -30 -75 -5 0 -9 5 -9 10
0 6 -9 10 -20 10 -11 0 -20 -7 -20 -15 0 -8 5 -15 10 -15 6 0 10 -7 10 -15 0
-18 -21 -20 -37 -4 -6 6 -16 8 -23 4 -8 -5 -8 -11 2 -22 11 -14 10 -15 -10 -9
-17 6 -31 0 -59 -23 -21 -17 -43 -31 -50 -31 -7 0 -13 10 -13 23 0 25 26 71
64 112 14 15 26 32 26 36 0 12 -17 11 -25 -1 -8 -12 -25 -13 -25 -1 0 4 12 21
26 36 14 15 23 34 20 42 -4 9 6 30 21 48 16 18 39 52 53 76 34 57 67 92 79 84
7 -3 11 3 11 15 0 12 24 46 55 79 30 32 55 64 55 71 0 12 13 11 55 -6 19 -7
19 -7 3 13 -18 20 -23 33 -12 33 3 0 22 -8 42 -17z m-788 -208 c0 -8 -7 -15
-15 -15 -8 0 -15 7 -15 15 0 8 7 15 15 15 8 0 15 -7 15 -15z m390 -1195 c0 -5
-10 -10 -22 -9 -22 0 -22 1 -3 9 11 5 21 9 23 9 1 1 2 -3 2 -9z m-172 -91 c-2
-6 -8 -10 -13 -10 -5 0 -11 4 -13 10 -2 6 4 11 13 11 9 0 15 -5 13 -11z"/>
<path d="M8925 3650 c-4 -6 7 -10 27 -10 25 0 29 3 18 10 -19 13 -37 13 -45 0z"/>
<path d="M9105 3630 c-3 -5 1 -10 9 -10 9 0 16 5 16 10 0 6 -4 10 -9 10 -6 0
-13 -4 -16 -10z"/>
<path d="M9028 3618 c9 -9 15 -9 24 0 9 9 7 12 -12 12 -19 0 -21 -3 -12 -12z"/>
<path d="M9015 3590 c-3 -5 3 -10 15 -10 12 0 18 5 15 10 -3 6 -10 10 -15 10
-5 0 -12 -4 -15 -10z"/>
<path d="M9440 3480 c0 -5 7 -7 15 -4 8 4 15 8 15 10 0 2 -7 4 -15 4 -8 0 -15
-4 -15 -10z"/>
<path d="M9375 3450 c-3 -5 1 -10 10 -10 9 0 13 5 10 10 -3 6 -8 10 -10 10 -2
0 -7 -4 -10 -10z"/>
<path d="M9340 3410 c0 -6 7 -10 15 -10 8 0 15 2 15 4 0 2 -7 6 -15 10 -8 3
-15 1 -15 -4z"/>
<path d="M9390 3391 c0 -6 5 -13 10 -16 6 -3 10 1 10 9 0 9 -4 16 -10 16 -5 0
-10 -4 -10 -9z"/>
<path d="M9780 3305 c0 -9 5 -15 11 -13 6 2 11 8 11 13 0 5 -5 11 -11 13 -6 2
-11 -4 -11 -13z"/>
<path d="M7555 3420 c3 -5 10 -10 16 -10 5 0 9 5 9 10 0 6 -7 10 -16 10 -8 0
-12 -4 -9 -10z"/>
<path d="M7355 3249 c-10 -15 3 -25 16 -12 7 7 7 13 1 17 -6 3 -14 1 -17 -5z"/>
<path d="M7141 3188 c-12 -12 -19 -23 -17 -25 6 -6 56 19 56 28 0 19 -21 18
-39 -3z"/>
<path d="M6957 3034 c-4 -4 -4 -10 -1 -15 6 -10 34 0 34 12 0 10 -24 12 -33 3z"/>
<path d="M7003 3003 c-26 -18 -30 -33 -8 -33 8 0 15 7 15 15 0 8 7 15 15 15 8
0 15 5 15 10 0 14 -11 12 -37 -7z"/>
<path d="M7063 2973 c-15 -6 -17 -33 -3 -33 6 0 10 5 10 10 0 6 7 10 15 10 8
0 15 5 15 10 0 10 -16 12 -37 3z"/>
<path d="M6775 2880 c-3 -5 -2 -10 4 -10 5 0 13 5 16 10 3 6 2 10 -4 10 -5 0
-13 -4 -16 -10z"/>
<path d="M6856 2861 c-4 -7 -5 -15 -2 -18 9 -9 19 4 14 18 -4 11 -6 11 -12 0z"/>
<path d="M6716 2641 c-4 -7 -5 -15 -2 -18 9 -9 19 4 14 18 -4 11 -6 11 -12 0z"/>
<path d="M6515 2509 c-10 -15 3 -25 16 -12 7 7 7 13 1 17 -6 3 -14 1 -17 -5z"/>
<path d="M6580 2484 c0 -8 5 -12 10 -9 6 4 8 11 5 16 -9 14 -15 11 -15 -7z"/>
<path d="M6315 2370 c-3 -11 -13 -20 -21 -20 -8 0 -14 -5 -14 -11 0 -7 7 -8
18 -4 9 4 24 7 33 7 12 0 15 5 12 19 -8 28 -21 32 -28 9z"/>
<path d="M6040 1910 c0 -19 3 -21 12 -12 9 9 9 15 0 24 -9 9 -12 7 -12 -12z"/>
<path d="M6100 1684 c0 -8 5 -12 10 -9 6 3 10 10 10 16 0 5 -4 9 -10 9 -5 0
-10 -7 -10 -16z"/>
<path d="M5740 1324 c0 -14 4 -23 10 -19 6 3 10 15 10 26 0 10 -4 19 -10 19
-5 0 -10 -12 -10 -26z"/>
<path d="M5720 1234 c0 -14 4 -23 10 -19 6 3 10 15 10 26 0 10 -4 19 -10 19
-5 0 -10 -12 -10 -26z"/>
<path d="M5955 1200 c4 -6 11 -8 16 -5 14 9 11 15 -7 15 -8 0 -12 -5 -9 -10z"/>
<path d="M5930 460 c0 -5 5 -10 10 -10 6 0 10 5 10 10 0 6 -4 10 -10 10 -5 0
-10 -4 -10 -10z"/>
<path d="M5995 431 c-3 -5 -1 -12 5 -16 5 -3 10 1 10 9 0 18 -6 21 -15 7z"/>
<path d="M6070 340 c0 -5 6 -10 14 -10 8 0 18 5 21 10 3 6 -3 10 -14 10 -12 0
-21 -4 -21 -10z"/>
<path d="M6148 303 c6 -2 18 -2 25 0 6 3 1 5 -13 5 -14 0 -19 -2 -12 -5z"/>
<path d="M6110 260 c0 -5 7 -10 15 -10 8 0 15 5 15 10 0 6 -7 10 -15 10 -8 0
-15 -4 -15 -10z"/>
<path d="M6183 223 c9 -2 23 -2 30 0 6 3 -1 5 -18 5 -16 0 -22 -2 -12 -5z"/>
<path d="M7850 2640 c0 -5 5 -10 10 -10 6 0 10 5 10 10 0 6 -4 10 -10 10 -5 0
-10 -4 -10 -10z"/>
<path d="M6734 1529 c-3 -6 -1 -16 5 -22 8 -8 11 -5 11 11 0 24 -5 28 -16 11z"/>
<path d="M6571 1206 c-8 -9 -11 -19 -7 -23 9 -9 29 13 24 27 -2 8 -8 7 -17 -4z"/>
<path d="M10930 3719 c-212 -59 -453 -233 -801 -579 -372 -371 -667 -734 -901
-1110 -121 -194 -286 -488 -385 -685 -30 -60 -59 -115 -64 -121 -11 -13 -153
-54 -187 -54 -12 0 -22 5 -22 10 0 6 20 52 44 103 53 111 92 235 107 341 24
180 -26 284 -158 322 -82 24 -180 5 -308 -59 -83 -41 -156 -92 -266 -185 -286
-242 -541 -582 -674 -901 -66 -159 -100 -319 -92 -440 6 -97 27 -150 81 -205
38 -37 110 -66 166 -66 73 0 184 44 299 118 142 92 370 306 481 452 66 87 191
280 226 350 l24 48 67 7 c38 4 83 13 102 21 18 8 37 14 42 14 16 0 10 -35 -15
-86 -35 -72 -111 -321 -137 -444 -16 -81 -20 -126 -16 -200 3 -54 12 -111 21
-132 39 -91 121 -143 227 -143 42 0 71 8 120 32 35 18 89 50 119 73 68 50 225
204 248 242 9 15 23 28 30 28 11 0 13 -8 7 -33 -15 -72 -16 -118 -5 -170 8
-40 22 -68 50 -100 30 -33 53 -48 97 -62 49 -16 65 -17 113 -7 30 7 83 26 117
42 76 38 231 156 274 210 39 48 65 54 53 13 -4 -16 -7 -59 -6 -96 0 -57 5 -75
27 -107 59 -85 167 -92 309 -21 45 22 112 64 150 93 163 123 356 331 541 583
57 77 118 157 136 178 17 21 29 40 25 44 -3 4 -34 6 -69 4 -45 -1 -65 -6 -74
-19 -7 -9 -61 -82 -120 -162 -131 -176 -301 -351 -388 -397 -45 -24 -64 -29
-78 -22 -22 13 -22 59 1 107 10 20 99 174 199 342 308 521 415 703 448 760 57
100 129 215 142 228 7 7 13 20 13 29 0 12 -8 14 -37 9 -21 -3 -108 -6 -193 -6
l-155 0 -25 -50 c-13 -28 -27 -49 -31 -48 -4 2 -22 23 -40 47 -45 58 -107 91
-173 91 -106 0 -243 -56 -371 -151 -86 -64 -275 -252 -376 -374 -97 -117 -231
-302 -391 -540 -158 -235 -255 -355 -332 -412 -45 -33 -67 -43 -97 -43 -29 0
-42 6 -53 23 -24 36 -29 91 -16 169 13 82 93 330 138 429 15 35 42 95 58 133
16 38 38 75 49 82 372 260 484 354 810 677 251 249 341 346 496 533 190 230
207 253 196 257 -6 2 -31 -1 -56 -6 -26 -5 -55 -10 -66 -13 -11 -2 -45 -36
-75 -76 -64 -84 -227 -274 -316 -368 -34 -36 -86 -92 -115 -124 -69 -76 -325
-316 -454 -427 -55 -47 -143 -118 -195 -159 -52 -40 -97 -77 -98 -82 -2 -4 -8
-6 -13 -2 -11 6 -12 41 -1 46 8 3 19 22 98 163 249 443 525 860 753 1140 201
246 454 509 609 635 48 38 115 84 149 102 51 27 66 31 80 22 13 -8 18 -24 17
-52 -1 -48 -64 -208 -107 -270 -18 -27 -26 -47 -20 -53 14 -14 133 32 150 58
8 12 30 66 50 120 25 69 37 121 40 178 5 71 3 83 -16 107 -23 29 -98 58 -145
57 -17 0 -47 -5 -66 -10z m-226 -215 c4 -9 4 -19 1 -22 -3 -3 -5 0 -5 6 0 7
-7 12 -16 12 -8 0 -12 5 -9 10 9 15 22 12 29 -6z m-44 -24 c0 -5 8 -10 17 -10
11 0 14 -3 7 -10 -14 -14 -54 -1 -47 16 6 16 23 19 23 4z m-10 -60 c0 -5 -7
-10 -15 -10 -8 0 -15 5 -15 10 0 6 7 10 15 10 8 0 15 -4 15 -10z m-94 -43
c-11 -7 -28 -20 -38 -29 -21 -21 -38 -23 -38 -5 0 13 56 46 80 46 11 0 10 -3
-4 -12z m-2 -42 c-4 -8 -10 -15 -15 -15 -4 0 -6 7 -3 15 4 8 10 15 15 15 4 0
6 -7 3 -15z m-117 -37 c-18 -9 -18 -10 0 -23 17 -12 16 -14 -9 -25 -14 -7 -32
-24 -39 -39 -8 -14 -20 -30 -26 -34 -18 -11 -16 -25 5 -31 9 -2 1 -2 -19 1
-27 3 -38 1 -42 -11 -4 -11 -1 -13 11 -9 14 6 15 5 2 -9 -11 -11 -19 -13 -27
-6 -10 8 -12 3 -7 -23 6 -32 6 -33 -9 -14 -20 25 -36 11 -18 -16 14 -24 7 -39
-11 -21 -21 21 -29 13 -23 -22 6 -28 3 -35 -12 -40 -11 -3 -27 -21 -36 -39
-15 -31 -16 -31 -23 -9 -3 12 -10 22 -15 22 -5 0 -9 7 -9 15 0 8 7 15 15 15 8
0 15 -4 15 -10 0 -5 5 -10 12 -10 6 0 3 9 -7 20 -10 11 -24 20 -30 20 -20 0
-24 -36 -9 -66 18 -34 18 -54 -1 -54 -8 0 -15 7 -15 15 0 18 -12 19 -28 3 -17
-17 -15 -25 8 -31 11 -3 20 -13 20 -22 0 -12 -6 -15 -19 -10 -11 3 -23 0 -27
-7 -4 -6 -2 -14 5 -16 9 -3 9 -7 0 -18 -6 -8 -17 -14 -25 -14 -7 0 -16 -9 -19
-20 -3 -11 -11 -20 -16 -20 -6 0 -18 -19 -28 -41 l-19 -41 -7 32 c-5 23 -10
29 -18 21 -7 -7 -7 -18 1 -36 17 -38 15 -55 -8 -55 -11 0 -20 -4 -20 -10 0
-12 -69 -104 -81 -108 -5 -2 -9 -10 -9 -18 0 -7 -12 -27 -27 -43 -15 -16 -28
-40 -28 -53 0 -13 -5 -22 -12 -21 -7 2 -14 -2 -14 -7 -5 -39 -2 -38 -51 -26
-21 5 -28 3 -28 -8 0 -9 7 -12 20 -9 27 7 26 -12 -5 -66 -14 -23 -25 -50 -25
-58 0 -13 -3 -13 -15 -3 -12 10 -16 9 -21 -6 -17 -55 -89 -174 -104 -174 -5 0
-7 -6 -4 -14 3 -8 1 -17 -5 -21 -6 -3 -11 -15 -11 -26 0 -12 -7 -19 -19 -19
-14 0 -18 -5 -14 -18 2 -10 -3 -24 -11 -31 -9 -8 -16 -17 -16 -22 0 -5 -18
-39 -40 -75 -22 -36 -40 -73 -40 -81 0 -8 -9 -17 -20 -20 -23 -6 -27 -33 -5
-33 8 0 15 -4 15 -9 0 -15 -18 -23 -25 -11 -11 18 -28 11 -22 -10 3 -10 -1
-24 -9 -31 -9 -7 -14 -31 -14 -65 0 -30 4 -54 8 -54 4 0 13 5 20 12 9 9 12 8
12 -4 0 -9 -10 -24 -22 -32 -17 -12 -19 -18 -9 -29 9 -12 7 -16 -13 -21 -14
-3 -32 -14 -41 -23 -14 -13 -21 -14 -36 -5 -11 7 -20 8 -24 2 -3 -6 0 -10 7
-10 7 0 19 -9 26 -20 10 -16 10 -20 -1 -20 -7 0 -18 5 -24 11 -8 8 -13 8 -17
0 -4 -6 -2 -11 3 -11 6 0 11 -6 11 -14 0 -8 -14 -19 -31 -25 -27 -9 -30 -13
-19 -26 11 -13 8 -18 -10 -17 -3 0 -23 -40 -45 -89 -22 -49 -46 -89 -52 -89
-7 0 -13 -7 -13 -15 0 -8 5 -15 10 -15 6 0 10 -7 10 -16 0 -11 -5 -14 -16 -10
-9 3 -20 6 -25 6 -5 0 -9 10 -10 23 0 12 -3 16 -6 9 -6 -16 16 -72 28 -72 5 0
9 -4 9 -10 0 -5 -9 -10 -19 -10 -24 0 -36 -17 -24 -33 15 -19 13 -55 -3 -61
-8 -3 -14 -17 -14 -31 0 -14 -4 -25 -10 -25 -5 0 -10 -11 -10 -24 0 -14 -4
-27 -9 -30 -16 -10 -34 -137 -29 -206 4 -58 10 -75 37 -109 18 -23 40 -41 48
-41 11 0 14 -7 9 -25 -7 -28 -4 -30 25 -15 30 17 44 1 21 -24 -11 -11 -23 -31
-27 -43 -8 -27 -22 -30 -28 -5 -3 10 -5 6 -6 -10 -1 -17 -7 -28 -15 -28 -8 0
-16 5 -18 12 -3 7 -10 8 -17 4 -11 -7 -11 -10 0 -17 11 -8 10 -12 -5 -24 -11
-8 -28 -15 -37 -15 -10 0 -20 -4 -23 -9 -9 -15 -128 0 -160 20 -25 15 -27 19
-13 25 21 8 22 24 2 24 -18 0 -35 31 -35 62 0 13 -5 29 -11 35 -8 8 -7 17 3
32 11 18 11 23 -1 30 -10 7 -11 13 -2 29 6 11 11 32 11 45 0 13 12 70 26 126
14 55 22 105 19 111 -3 5 4 29 16 52 12 24 24 37 26 30 7 -19 23 -14 23 8 0
11 -4 20 -10 20 -15 0 -12 44 5 66 8 10 15 27 15 37 0 9 4 17 9 17 12 0 33
112 22 119 -4 3 -11 16 -15 29 -5 16 -3 22 7 22 8 0 38 25 66 56 32 35 51 65
51 80 0 13 9 29 20 36 11 7 20 23 20 35 0 12 4 23 9 25 5 2 29 45 55 96 25 50
51 92 56 92 6 0 10 5 10 11 0 6 11 25 25 43 24 32 32 56 19 56 -4 0 -13 -8
-20 -17 -11 -15 -13 -15 -13 -3 0 15 61 60 81 60 6 0 6 6 -2 15 -10 12 -7 18
19 32 36 21 41 34 9 25 -16 -4 -20 -2 -15 9 28 68 47 88 47 49 0 -21 15 -27
25 -10 3 6 -3 23 -15 39 -23 33 -12 50 13 20 9 -10 22 -19 29 -18 10 0 10 2 1
6 -15 6 -17 43 -3 43 6 0 10 5 10 12 0 21 35 87 46 88 7 0 14 7 18 15 3 8 12
15 21 15 20 0 19 17 -1 28 -20 11 -9 36 12 28 9 -3 14 2 14 14 0 28 28 25 33
-2 4 -21 4 -20 6 3 0 15 -6 32 -14 39 -13 11 -12 15 8 34 13 11 45 49 71 84
26 34 52 62 58 62 6 0 8 10 4 25 -4 14 -2 25 4 25 5 0 10 -4 10 -10 0 -5 7
-10 15 -10 17 0 20 25 5 35 -15 9 -12 25 4 25 15 0 66 62 66 79 0 15 17 14 24
-1 4 -7 4 -3 2 8 -2 15 4 26 18 33 12 7 32 28 46 49 14 20 38 49 54 64 24 22
27 30 17 42 -7 9 -8 17 -2 20 5 3 11 0 14 -6 3 -9 15 -3 36 16 17 17 31 36 31
44 0 12 3 12 15 2 12 -10 15 -10 15 0 0 7 8 19 18 26 14 11 14 15 4 22 -10 7
-8 11 10 16 18 5 20 8 9 15 -12 8 -12 12 2 26 10 9 17 21 17 26 0 5 6 9 14 9
8 0 16 7 20 15 4 11 13 14 32 9 22 -6 25 -4 22 12 -2 11 6 27 19 37 13 10 23
23 23 29 0 6 14 24 30 40 17 15 30 33 30 38 0 6 5 10 11 10 6 0 9 -9 6 -20 -3
-11 -2 -20 2 -20 13 0 46 45 43 59 -2 9 2 12 12 8 10 -4 16 -1 16 8 0 9 16 23
35 32 19 9 35 20 35 24 0 11 45 56 62 62 10 4 10 7 1 18 -10 10 -8 16 14 30
15 10 30 16 33 13 2 -3 -3 -10 -13 -16z m63 -28 c0 -5 -4 -10 -10 -10 -5 0
-10 5 -10 10 0 6 5 10 10 10 6 0 10 -4 10 -10z m-137 -18 c7 -9 -28 -52 -42
-52 -16 0 -13 20 4 26 8 4 15 12 15 20 0 15 16 19 23 6z m107 -11 c0 -5 -7
-11 -14 -14 -10 -4 -13 -1 -9 9 6 15 23 19 23 5z m-170 -61 c0 -5 -4 -10 -9
-10 -6 0 -13 5 -16 10 -3 6 1 10 9 10 9 0 16 -4 16 -10z m-375 -380 c-3 -5
-10 -10 -16 -10 -5 0 -9 5 -9 10 0 6 7 10 16 10 8 0 12 -4 9 -10z m600 -940
c-3 -5 -11 -10 -16 -10 -6 0 -7 5 -4 10 3 6 11 10 16 10 6 0 7 -4 4 -10z m73
-22 c-6 -18 -28 -21 -28 -4 0 9 7 16 16 16 9 0 14 -5 12 -12z m-50 -12 c-10
-7 -18 -18 -18 -25 0 -6 -8 -11 -18 -11 -22 0 -68 -42 -77 -70 -6 -17 -12 -20
-36 -15 -24 5 -28 4 -23 -9 4 -10 0 -18 -10 -22 -13 -5 -14 -9 -5 -20 9 -11 8
-14 -5 -14 -8 0 -23 -12 -33 -27 -10 -16 -20 -30 -24 -33 -3 -3 -8 -12 -11
-20 -4 -10 -8 -6 -13 13 -8 29 -12 32 -33 18 -11 -7 -11 -9 1 -14 9 -3 12 -15
9 -37 -3 -20 -9 -29 -17 -26 -16 6 -35 -13 -35 -34 0 -9 -9 -25 -20 -35 -12
-11 -28 -35 -37 -54 -22 -48 -33 -62 -45 -55 -5 3 -4 12 3 20 6 8 9 17 5 21
-11 12 -33 -29 -28 -53 3 -19 1 -23 -12 -18 -9 3 -16 1 -16 -5 0 -7 -16 -37
-35 -67 -19 -30 -35 -61 -35 -69 0 -11 -7 -14 -25 -9 -19 5 -25 2 -25 -9 0
-20 17 -31 23 -15 2 7 7 10 11 6 4 -3 2 -16 -4 -29 -11 -20 -13 -20 -22 -6
-15 27 -26 20 -33 -23 -4 -24 -14 -44 -26 -50 -12 -7 -21 -26 -25 -52 -4 -23
-15 -49 -24 -58 -9 -9 -14 -22 -12 -28 2 -7 -3 -12 -12 -12 -9 0 -16 5 -16 11
0 5 -5 7 -10 4 -7 -4 -5 -14 5 -28 19 -27 19 -37 0 -37 -9 0 -15 9 -15 22 0
17 -3 19 -12 10 -8 -8 -8 -15 2 -27 11 -13 9 -23 -8 -58 -49 -102 -56 -126
-60 -194 -2 -40 -1 -84 2 -98 4 -14 23 -42 42 -61 31 -30 34 -37 23 -51 -12
-14 -11 -15 11 -8 14 4 31 12 38 18 7 5 15 7 19 3 3 -3 1 -6 -5 -6 -7 0 -12
-7 -12 -15 0 -8 5 -15 10 -15 6 0 10 -7 10 -15 0 -20 -17 -19 -29 2 -5 10 -13
14 -17 10 -5 -4 -3 -16 4 -27 6 -11 8 -21 2 -25 -5 -3 -11 -1 -15 5 -9 15 -25
12 -25 -4 0 -8 -12 -24 -28 -34 -18 -13 -37 -18 -55 -15 -16 3 -27 1 -27 -6 0
-6 -11 -11 -25 -11 -14 0 -25 -4 -25 -10 0 -13 -59 -13 -101 1 -45 15 -77 53
-84 98 -4 20 -10 44 -16 53 -11 21 -12 58 -1 58 9 0 33 52 27 58 -3 3 -15 -7
-28 -22 l-23 -27 -12 26 c-24 52 -16 77 45 136 17 17 20 26 13 39 -8 15 -6 17
10 13 13 -3 20 0 20 9 0 7 14 29 30 47 23 25 28 36 20 46 -8 9 -8 15 -1 20 6
3 23 -7 37 -22 l27 -28 -8 25 c-4 14 -11 29 -16 35 -15 15 -10 28 7 21 13 -5
15 -1 11 19 -3 20 -1 25 12 23 9 -2 17 -13 19 -26 2 -12 8 -22 13 -22 14 0 10
43 -6 64 -13 17 -12 22 10 44 14 13 41 49 60 78 20 30 45 59 55 64 19 10 19
12 4 36 -16 23 -16 24 2 17 11 -3 22 -11 26 -17 5 -6 8 -2 8 10 0 25 54 110
75 118 21 8 19 26 -2 27 -17 1 -17 2 0 6 9 2 17 11 17 18 0 9 6 12 15 9 8 -4
15 -1 15 5 0 7 11 24 25 39 14 15 23 32 21 39 -3 7 1 10 8 7 18 -7 49 25 42
43 -3 7 11 31 33 53 27 28 43 37 58 34 16 -4 22 0 27 20 5 19 12 24 32 23 15
-1 29 4 32 12 3 10 -2 12 -22 7 -14 -3 -26 -4 -26 -1 0 2 8 14 17 25 18 21 43
27 43 10 0 -5 7 -10 15 -10 19 0 19 14 0 30 -13 11 -12 15 8 36 12 13 25 24
30 24 12 0 8 -38 -5 -43 -7 -3 -8 -6 -2 -6 5 -1 19 5 30 13 17 13 17 17 6 37
-13 20 -12 21 7 16 12 -3 18 -1 15 4 -8 13 35 47 69 55 21 4 28 11 24 24 -4
14 2 19 25 22 19 3 32 0 35 -9 7 -18 33 -17 33 2 0 8 -4 15 -10 15 -5 0 -10 7
-10 15 0 19 24 19 40 0 11 -13 15 -12 37 5 14 11 33 20 42 20 14 -1 14 -2 -1
-14z m-2213 -16 c3 -5 -1 -10 -10 -10 -9 0 -13 5 -10 10 3 6 8 10 10 10 2 0 7
-4 10 -10z m2703 -27 c9 -21 20 -39 25 -41 11 -5 9 -32 -3 -32 -5 0 -10 5 -10
12 0 9 -3 9 -12 0 -10 -10 -10 -15 1 -21 17 -11 7 -43 -11 -36 -8 3 -22 -15
-38 -47 -13 -29 -33 -61 -44 -72 -12 -12 -20 -32 -19 -53 1 -25 -2 -31 -11
-24 -17 14 -52 -27 -37 -42 15 -15 14 -27 -2 -27 -17 0 -49 -34 -41 -43 4 -4
-5 -22 -20 -42 -15 -19 -32 -49 -38 -65 -12 -35 -28 -31 -28 8 0 20 -3 23 -12
14 -8 -8 -9 -18 0 -36 8 -18 8 -31 -1 -50 -7 -14 -15 -26 -19 -26 -5 0 -8 -6
-8 -14 0 -7 -9 -25 -20 -39 -11 -14 -23 -39 -26 -56 -7 -33 -24 -53 -24 -28 0
17 -28 43 -36 34 -7 -6 15 -49 29 -58 5 -4 7 -15 3 -25 -7 -18 -8 -18 -17 -1
-16 27 -30 21 -19 -9 6 -14 10 -27 10 -30 0 -2 -9 -4 -20 -4 -16 0 -20 7 -20
31 0 17 -4 28 -10 24 -16 -10 -12 -51 6 -66 14 -12 14 -14 -3 -26 -15 -12 -16
-15 -3 -23 14 -9 13 -11 -10 -14 -14 -2 -77 -111 -95 -164 -22 -63 -26 -68
-41 -47 -8 10 -17 15 -21 12 -4 -4 -1 -13 5 -19 14 -14 16 -48 3 -48 -13 0
-31 -57 -31 -96 0 -20 7 -38 18 -46 10 -7 27 -26 37 -41 13 -21 15 -31 6 -40
-6 -6 -11 -20 -11 -32 1 -19 1 -19 20 4 13 15 26 21 37 17 14 -6 12 -11 -12
-36 -18 -19 -35 -28 -46 -25 -20 7 -37 -14 -21 -24 6 -4 -8 -8 -32 -9 -49 -2
-140 -48 -132 -67 5 -15 -42 -25 -70 -14 -16 5 -14 7 10 10 41 5 45 26 4 22
-23 -2 -41 3 -58 18 -19 16 -26 35 -33 82 -17 131 -18 137 -32 124 -7 -7 -10
-18 -8 -24 3 -7 -2 -13 -10 -13 -25 0 -25 23 -1 45 19 17 21 24 11 34 -10 11
-8 12 8 8 15 -5 28 5 54 38 19 24 43 46 53 48 19 5 25 27 7 27 -5 0 -7 5 -3
11 4 8 9 7 15 -2 6 -9 7 0 3 21 -6 33 -6 34 9 15 20 -24 21 -42 5 -48 -10 -4
-10 -7 0 -18 10 -11 12 -10 12 4 0 9 7 17 15 17 18 0 19 12 4 27 -9 9 -6 23
10 57 11 25 21 50 21 55 0 5 11 16 24 24 13 9 32 36 42 61 19 47 34 59 34 29
0 -16 1 -16 17 -1 14 14 14 19 3 33 -10 12 -11 18 -2 23 13 9 49 61 82 120 21
37 22 45 10 53 -13 9 -13 10 0 6 20 -5 67 43 76 77 3 15 17 34 29 42 15 10 21
22 18 34 -4 14 2 21 21 26 27 6 33 18 17 29 -6 3 -6 17 1 35 6 19 17 30 28 30
25 0 36 20 19 31 -12 8 -11 11 2 22 27 21 80 106 77 123 -2 11 5 18 19 19 27
2 43 16 26 22 -16 6 -17 29 -3 38 6 3 17 -1 26 -10 9 -9 19 -13 23 -10 3 4 -2
11 -12 16 -11 7 -17 22 -17 44 0 19 4 35 9 35 5 0 7 -9 4 -20 -4 -14 0 -20 12
-20 12 0 15 5 10 19 -3 11 -1 22 4 26 6 3 2 14 -9 25 -24 24 -26 50 -5 50 8 0
15 -8 15 -17 0 -13 8 -8 28 15 26 32 64 49 110 51 16 1 27 -9 40 -36z m54 5
c-2 -15 -7 -28 -11 -28 -13 0 -28 16 -33 35 -4 16 0 20 22 21 23 1 26 -2 22
-28z m-2824 -13 c-24 -22 -38 -23 -38 -4 0 9 53 37 60 32 2 -2 -8 -15 -22 -28z
m298 -16 c13 -12 29 -38 35 -57 16 -47 6 -162 -20 -239 -33 -98 -115 -258
-134 -261 -24 -5 -96 32 -145 74 -23 20 -54 57 -69 82 -24 40 -28 58 -27 122
0 87 14 119 82 192 101 108 217 144 278 87z m2171 -21 c13 -12 23 -25 23 -29
0 -9 -239 -409 -391 -655 -129 -209 -260 -396 -339 -486 -96 -109 -175 -144
-235 -104 -19 13 -25 25 -25 54 0 81 46 204 144 382 108 200 184 313 330 494
86 107 230 257 287 300 92 67 164 83 206 44z m-2531 -5 c-3 -10 -7 -31 -10
-47 -7 -37 -14 -43 -23 -20 -3 10 -11 22 -17 27 -7 5 -5 11 6 17 9 6 15 17 12
25 -4 10 1 15 16 15 16 0 20 -5 16 -17z m-56 -63 c0 -11 5 -22 11 -25 7 -5 4
-15 -9 -29 -25 -27 -42 -79 -42 -126 0 -36 -20 -67 -33 -53 -4 3 -27 -5 -52
-18 -29 -15 -43 -29 -40 -38 3 -9 0 -11 -10 -8 -8 4 -17 2 -20 -3 -4 -6 -1
-10 5 -10 6 0 8 -4 5 -10 -10 -16 -34 -12 -52 10 -10 11 -21 20 -25 20 -15 0
-8 -17 18 -43 l25 -26 -23 -23 c-12 -12 -30 -21 -39 -20 -16 3 -28 -20 -35
-66 -1 -13 -19 -47 -38 -77 -20 -29 -34 -59 -33 -67 2 -7 2 -10 0 -5 -3 4 -12
7 -20 7 -11 0 -14 -7 -9 -25 5 -18 2 -27 -9 -31 -8 -4 -15 -12 -15 -20 0 -8
-4 -14 -10 -14 -5 0 -10 -8 -10 -17 0 -10 -9 -36 -19 -58 -59 -121 -70 -160
-72 -245 -1 -36 -5 -70 -10 -76 -9 -12 16 -88 38 -115 7 -8 13 -20 13 -26 0
-6 32 -25 70 -44 39 -18 70 -36 70 -39 0 -14 -70 -68 -123 -96 -57 -28 -59
-28 -72 -10 -9 12 -20 16 -31 12 -16 -6 -16 -8 2 -21 19 -14 19 -14 -2 -35
-17 -17 -30 -21 -70 -18 -49 4 -48 6 11 29 24 10 26 13 12 16 -10 3 -31 0 -45
-5 -15 -6 -42 -14 -59 -17 -40 -8 -45 10 -8 27 30 14 33 28 5 28 -11 0 -20 -4
-20 -10 0 -15 -36 -12 -50 5 -9 11 -9 22 0 50 13 40 6 101 -13 108 -9 3 -9 9
1 28 13 24 16 42 29 169 3 30 14 67 24 82 11 14 19 33 19 42 0 22 38 102 72
153 15 23 28 46 28 51 0 6 -6 12 -12 15 -10 3 -10 7 1 20 7 10 19 17 25 17 12
1 46 62 46 84 0 8 11 21 25 30 14 9 25 25 25 36 0 10 5 22 10 25 6 3 10 15 10
27 0 17 2 19 16 7 13 -10 17 -10 25 2 5 8 9 22 9 32 0 9 3 17 8 17 9 0 97 109
97 120 0 5 3 12 8 16 4 4 7 2 7 -4 0 -7 7 -12 15 -12 8 0 15 7 15 15 0 8 -4
15 -10 15 -5 0 -10 8 -10 17 0 13 3 14 12 5 16 -16 28 -15 28 1 1 17 88 107
106 107 7 0 14 7 14 15 0 8 9 15 19 15 11 0 21 8 23 19 4 24 119 120 135 114
7 -3 13 -13 13 -23z m-175 -79 c3 -5 1 -12 -5 -16 -5 -3 -10 1 -10 9 0 18 6
21 15 7z m1351 -156 c-16 -17 -36 -20 -36 -6 0 8 17 16 43 20 5 0 2 -6 -7 -14z
m-1220 -120 c49 -75 141 -156 220 -195 39 -19 64 -37 61 -44 -3 -7 -34 -58
-70 -113 -174 -269 -313 -418 -456 -490 -64 -33 -102 -30 -145 11 -37 34 -40
48 -36 136 5 120 110 345 271 584 62 91 114 166 115 166 2 0 19 -25 40 -55z
m-230 -101 c-9 -9 -20 -14 -23 -10 -4 3 2 13 13 20 25 18 31 12 10 -10z m607
-91 c-7 -2 -19 -2 -25 0 -7 3 -2 5 12 5 14 0 19 -2 13 -5z m1447 -63 c0 -5 -4
-10 -10 -10 -5 0 -10 5 -10 10 0 6 5 10 10 10 6 0 10 -4 10 -10z m605 -690 c3
-5 -1 -10 -10 -10 -9 0 -13 5 -10 10 3 6 8 10 10 10 2 0 7 -4 10 -10z m-3228
-42 c-3 -7 -5 -2 -5 12 0 14 2 19 5 13 2 -7 2 -19 0 -25z m2773 6 c0 -8 -5
-12 -10 -9 -6 4 -8 11 -5 16 9 14 15 11 15 -7z m258 -112 c3 -9 -2 -13 -14
-10 -9 1 -19 9 -22 16 -3 9 2 13 14 10 9 -1 19 -9 22 -16z m-873 -12 c3 -5 -3
-10 -14 -10 -12 0 -21 5 -21 10 0 6 6 10 14 10 8 0 18 -4 21 -10z m175 0 c0
-5 -7 -10 -16 -10 -8 0 -12 5 -9 10 3 6 10 10 16 10 5 0 9 -4 9 -10z m641 -23
c-13 -13 -26 -3 -16 12 3 6 11 8 17 5 6 -4 6 -10 -1 -17z m-701 3 c0 -5 -21
-10 -46 -10 -27 0 -43 4 -39 10 3 6 24 10 46 10 21 0 39 -4 39 -10z"/>
<path d="M10173 3043 c-18 -6 -16 -23 2 -23 8 0 15 -7 15 -15 0 -8 7 -15 15
-15 8 0 15 7 15 15 0 8 -6 15 -14 15 -8 0 -16 6 -18 13 -2 8 -9 12 -15 10z"/>
<path d="M10016 2893 c-18 -15 -25 -28 -19 -34 6 -6 18 2 32 22 12 17 21 32
19 34 -1 2 -16 -8 -32 -22z"/>
<path d="M10025 2840 c-25 -27 -12 -37 14 -11 12 12 21 23 21 26 0 11 -18 4
-35 -15z"/>
<path d="M9976 2771 c-10 -11 -16 -26 -13 -33 3 -8 9 -3 17 14 7 15 20 29 29
31 14 4 14 5 0 6 -9 0 -24 -8 -33 -18z"/>
<path d="M9900 2726 c0 -9 5 -16 10 -16 6 0 10 4 10 9 0 6 -4 13 -10 16 -5 3
-10 -1 -10 -9z"/>
<path d="M9870 2690 c-12 -8 -11 -10 8 -10 12 0 22 5 22 10 0 13 -11 13 -30 0z"/>
<path d="M9716 2511 c-4 -5 -2 -12 3 -15 5 -4 12 -2 15 3 4 5 2 12 -3 15 -5 4
-12 2 -15 -3z"/>
<path d="M9770 2486 c0 -8 -6 -16 -12 -19 -10 -4 -10 -7 0 -18 10 -11 12 -10
12 4 0 9 5 17 10 17 6 0 10 7 10 15 0 8 -4 15 -10 15 -5 0 -10 -6 -10 -14z"/>
<path d="M9615 2318 c-9 -22 4 -43 17 -30 7 7 7 16 0 29 -10 17 -11 17 -17 1z"/>
<path d="M9594 2259 c-3 -6 -1 -16 5 -22 8 -8 11 -5 11 11 0 24 -5 28 -16 11z"/>
<path d="M9385 2029 c-10 -15 3 -25 16 -12 7 7 7 13 1 17 -6 3 -14 1 -17 -5z"/>
<path d="M9100 1571 c0 -12 5 -21 10 -21 6 0 10 6 10 14 0 8 -4 18 -10 21 -5
3 -10 -3 -10 -14z"/>
<path d="M9117 1338 c-2 -7 -1 -21 2 -30 4 -12 11 -14 20 -9 10 7 11 13 2 30
-13 24 -17 26 -24 9z"/>
<path d="M8756 894 c-3 -8 2 -26 10 -40 20 -29 31 -25 13 4 -10 17 -10 23 0
36 11 13 11 16 -2 16 -8 0 -18 -7 -21 -16z"/>
<path d="M8716 764 c-10 -25 -7 -34 9 -34 8 0 15 9 15 19 0 26 -16 35 -24 15z"/>
<path d="M8782 760 c0 -14 2 -19 5 -12 2 6 2 18 0 25 -3 6 -5 1 -5 -13z"/>
<path d="M8716 231 c-4 -5 -2 -12 3 -15 5 -4 12 -2 15 3 4 5 2 12 -3 15 -5 4
-12 2 -15 -3z"/>
<path d="M8785 231 c-7 -12 12 -24 25 -16 11 7 4 25 -10 25 -5 0 -11 -4 -15
-9z"/>
<path d="M8855 231 c-7 -12 12 -24 25 -16 11 7 4 25 -10 25 -5 0 -11 -4 -15
-9z"/>
<path d="M10396 1735 c4 -8 8 -15 10 -15 2 0 4 7 4 15 0 8 -4 15 -10 15 -5 0
-7 -7 -4 -15z"/>
<path d="M10301 1666 c-32 -34 -22 -50 13 -20 18 16 25 29 19 35 -6 6 -18 0
-32 -15z"/>
<path d="M10190 1555 c-10 -12 -10 -15 4 -15 9 0 16 7 16 15 0 8 -2 15 -4 15
-2 0 -9 -7 -16 -15z"/>
<path d="M9996 1443 c-11 -11 -6 -23 9 -23 8 0 15 4 15 9 0 13 -16 22 -24 14z"/>
<path d="M10033 1408 c-33 -23 -42 -38 -23 -38 10 0 60 48 60 56 0 7 -5 4 -37
-18z"/>
<path d="M9880 1250 c0 -5 5 -10 10 -10 6 0 10 5 10 10 0 6 -4 10 -10 10 -5 0
-10 -4 -10 -10z"/>
<path d="M9947 1201 c-3 -14 -1 -18 9 -14 8 3 14 11 14 19 0 21 -17 17 -23 -5z"/>
<path d="M9400 554 c0 -3 7 -12 15 -20 13 -13 15 -13 15 -1 0 8 -7 17 -15 21
-8 3 -15 3 -15 0z"/>
<path d="M9367 516 c-10 -15 -16 -30 -13 -33 9 -10 38 27 34 44 -2 14 -7 11
-21 -11z"/>
<path d="M10820 1540 c0 -5 4 -10 9 -10 6 0 13 5 16 10 3 6 -1 10 -9 10 -9 0
-16 -4 -16 -10z"/>
<path d="M10870 1495 c0 -8 5 -15 10 -15 6 0 10 7 10 15 0 8 -4 15 -10 15 -5
0 -10 -7 -10 -15z"/>
<path d="M10732 1369 c2 -6 8 -10 13 -10 5 0 11 4 13 10 2 6 -4 11 -13 11 -9
0 -15 -5 -13 -11z"/>
<path d="M10770 1334 c0 -9 5 -14 12 -12 18 6 21 28 4 28 -9 0 -16 -7 -16 -16z"/>
<path d="M10520 1085 c0 -8 -5 -15 -12 -15 -6 0 -9 -3 -6 -6 7 -7 48 18 48 28
0 5 -7 8 -15 8 -8 0 -15 -7 -15 -15z"/>
<path d="M10555 1051 c-3 -5 -1 -12 5 -16 5 -3 10 1 10 9 0 18 -6 21 -15 7z"/>
<path d="M10356 801 c-4 -7 -5 -15 -2 -18 9 -9 19 4 14 18 -4 11 -6 11 -12 0z"/>
<path d="M10326 751 c-3 -5 1 -11 9 -15 15 -6 29 7 18 18 -9 9 -21 8 -27 -3z"/>
<path d="M10405 720 c4 -6 11 -8 16 -5 14 9 11 15 -7 15 -8 0 -12 -5 -9 -10z"/>
<path d="M10420 685 c0 -8 5 -15 10 -15 6 0 10 7 10 15 0 8 -4 15 -10 15 -5 0
-10 -7 -10 -15z"/>
<path d="M10396 391 c-4 -5 -2 -12 3 -15 5 -4 12 -2 15 3 4 5 2 12 -3 15 -5 4
-12 2 -15 -3z"/>
<path d="M10145 250 c-4 -6 7 -10 27 -10 25 0 29 3 18 10 -19 13 -37 13 -45 0z"/>
<path d="M7830 1350 c0 -5 5 -10 10 -10 6 0 10 5 10 10 0 6 -4 10 -10 10 -5 0
-10 -4 -10 -10z"/>
<path d="M7860 1304 c0 -8 5 -12 10 -9 6 3 10 10 10 16 0 5 -4 9 -10 9 -5 0
-10 -7 -10 -16z"/>
<path d="M7660 1149 c0 -11 4 -18 10 -14 5 3 7 12 3 20 -7 21 -13 19 -13 -6z"/>
<path d="M7622 1094 c1 -9 9 -19 16 -22 9 -3 13 2 10 14 -1 9 -9 19 -16 22 -9
3 -13 -2 -10 -14z"/>
<path d="M7680 1038 c0 -9 5 -20 10 -23 13 -8 13 5 0 25 -8 13 -10 13 -10 -2z"/>
<path d="M7340 434 c0 -8 5 -12 10 -9 6 4 8 11 5 16 -9 14 -15 11 -15 -7z"/>
<path d="M11538 3583 c6 -2 18 -2 25 0 6 3 1 5 -13 5 -14 0 -19 -2 -12 -5z"/>
<path d="M1880 3530 c-11 -11 -26 -20 -32 -20 -7 0 -5 -5 5 -11 14 -8 22 -6
38 12 18 21 25 39 14 39 -3 0 -14 -9 -25 -20z"/>
<path d="M10250 3430 c6 -11 15 -18 21 -15 13 9 11 13 -12 25 -19 11 -20 10
-9 -10z"/>
<path d="M1755 3400 c-4 -6 -3 -16 3 -22 6 -6 12 -6 17 2 4 6 3 16 -3 22 -6 6
-12 6 -17 -2z"/>
<path d="M1576 3331 c-4 -5 -2 -12 3 -15 5 -4 12 -2 15 3 4 5 2 12 -3 15 -5 4
-12 2 -15 -3z"/>
<path d="M10816 3331 c-4 -5 -2 -12 3 -15 5 -4 12 -2 15 3 4 5 2 12 -3 15 -5
4 -12 2 -15 -3z"/>
<path d="M1350 3170 c-12 -8 -10 -10 8 -10 13 0 20 4 17 10 -7 12 -6 12 -25 0z"/>
<path d="M1290 3150 c0 -14 26 -23 41 -15 8 6 7 10 -2 16 -19 12 -39 11 -39
-1z"/>
<path d="M1441 3096 c-8 -10 -9 -16 -1 -21 5 -3 10 0 10 9 0 8 6 17 13 19 7 4
8 6 1 6 -6 1 -17 -5 -23 -13z"/>
<path d="M1207 3013 c-4 -3 -7 -13 -7 -22 1 -13 3 -13 11 2 11 19 8 33 -4 20z"/>
<path d="M7440 3006 c0 -2 7 -9 15 -16 13 -11 14 -10 9 4 -3 9 -10 16 -15 16
-5 0 -9 -2 -9 -4z"/>
<path d="M1136 2991 c-4 -5 -2 -12 3 -15 5 -4 12 -2 15 3 4 5 2 12 -3 15 -5 4
-12 2 -15 -3z"/>
<path d="M11476 2991 c-4 -5 -2 -12 3 -15 5 -4 12 -2 15 3 4 5 2 12 -3 15 -5
4 -12 2 -15 -3z"/>
<path d="M1320 2970 c0 -5 5 -10 10 -10 6 0 10 5 10 10 0 6 -4 10 -10 10 -5 0
-10 -4 -10 -10z"/>
<path d="M1275 2950 c-4 -6 -4 -10 -1 -10 2 0 11 -3 20 -6 9 -3 16 -2 16 4 0
14 -28 23 -35 12z"/>
<path d="M1360 2950 c0 -5 5 -10 10 -10 6 0 10 5 10 10 0 6 -4 10 -10 10 -5 0
-10 -4 -10 -10z"/>
<path d="M1335 2927 c-4 -10 -5 -21 -1 -24 10 -10 18 4 13 24 -4 17 -4 17 -12
0z"/>
<path d="M5735 2920 c3 -5 10 -10 16 -10 5 0 9 5 9 10 0 6 -7 10 -16 10 -8 0
-12 -4 -9 -10z"/>
<path d="M2444 2860 c-101 -21 -259 -107 -396 -216 -103 -81 -288 -272 -385
-396 -176 -225 -294 -430 -358 -622 -19 -55 -39 -130 -44 -166 -15 -89 -13
-185 3 -246 28 -107 115 -189 213 -204 140 -21 319 69 564 284 166 146 277
285 502 633 52 80 72 104 94 108 72 15 119 29 128 36 13 12 35 11 35 -2 0 -6
-13 -29 -29 -52 -50 -74 -160 -309 -185 -400 -35 -120 -46 -223 -35 -305 19
-131 84 -224 197 -279 50 -24 68 -27 152 -27 72 -1 110 5 160 22 153 52 349
184 514 344 61 59 117 108 124 108 6 0 12 -2 12 -4 0 -2 -11 -32 -24 -67 -30
-81 -40 -181 -25 -249 13 -63 63 -123 115 -140 51 -17 169 -7 237 19 32 13 90
45 130 72 74 50 167 132 167 146 0 12 37 42 44 36 3 -3 3 -39 -1 -80 -5 -58
-2 -81 12 -112 9 -21 31 -49 49 -62 27 -21 42 -24 116 -24 78 1 91 4 155 37
80 41 177 112 284 208 99 89 291 305 428 482 63 82 119 150 124 154 5 3 9 11
9 18 0 10 -17 13 -64 11 l-65 -2 -80 -99 c-95 -119 -256 -293 -328 -357 -72
-63 -136 -99 -170 -95 -20 2 -29 9 -31 26 -2 13 4 42 13 65 16 41 728 1235
770 1292 12 17 27 39 33 51 11 20 10 20 -181 18 l-192 -3 -17 -28 c-10 -15
-20 -32 -22 -38 -2 -5 -20 9 -41 33 -20 23 -53 50 -74 58 -20 9 -62 16 -96 15
-161 -1 -361 -127 -605 -378 -141 -144 -231 -251 -390 -463 -120 -160 -184
-239 -291 -359 -210 -235 -402 -377 -529 -389 -40 -4 -57 0 -93 21 -72 43
-101 129 -77 235 22 103 61 205 129 343 125 248 248 424 412 589 104 106 215
189 284 216 29 11 56 14 79 10 56 -11 90 -68 70 -120 -4 -10 -18 -16 -38 -16
-48 0 -129 -43 -164 -87 -44 -56 -82 -135 -82 -172 0 -18 7 -43 16 -57 20 -29
63 -54 97 -54 32 0 106 49 149 100 47 54 111 177 133 254 20 70 16 136 -14
194 -22 43 -79 98 -120 114 -48 19 -114 25 -188 17 -118 -13 -262 -89 -419
-221 -28 -24 -116 -102 -195 -174 -79 -71 -169 -148 -199 -171 -70 -51 -158
-100 -221 -123 -42 -16 -51 -16 -55 -5 -3 8 3 27 13 42 38 56 74 159 98 283
19 95 19 143 0 208 -19 62 -63 115 -118 143 -45 24 -158 33 -223 19z m1356
-109 c0 -12 -87 -24 -102 -14 -8 5 1 10 27 14 63 10 75 10 75 0z m1165 -1 c17
-7 14 -9 -13 -9 -20 -1 -31 3 -27 9 7 12 13 12 40 0z m-77 -27 c-2 -10 -11
-19 -20 -21 -12 -2 -15 2 -11 17 7 25 36 28 31 4z m-1201 -3 c31 0 34 -2 22
-16 -8 -9 -21 -13 -35 -10 -17 5 -26 0 -34 -15 -9 -16 -18 -19 -43 -14 l-32 6
28 -18 c27 -18 35 -33 17 -33 -5 0 -10 4 -10 9 0 16 -32 22 -47 9 -13 -10 -11
-13 8 -20 22 -8 22 -9 3 -23 -25 -19 -31 -19 -38 3 -3 9 -3 -1 0 -22 5 -35 4
-38 -10 -27 -13 11 -17 9 -25 -12 -5 -13 -17 -27 -25 -30 -9 -4 -16 -14 -16
-23 0 -13 -3 -14 -15 -4 -12 10 -15 9 -15 -4 0 -10 -14 -30 -31 -45 -17 -16
-36 -39 -43 -52 -6 -13 -29 -33 -51 -44 -43 -23 -55 -43 -34 -56 12 -8 11 -11
-2 -22 -9 -7 -19 -22 -23 -34 -4 -11 -13 -24 -21 -27 -8 -3 -15 -10 -15 -16 0
-6 -20 -40 -45 -76 -32 -45 -44 -71 -40 -85 4 -13 2 -19 -9 -19 -9 0 -16 5
-16 10 0 6 -5 10 -11 10 -7 0 -8 -7 -4 -17 4 -10 10 -29 12 -43 5 -25 5 -25
-22 5 l-27 30 8 -30 c4 -16 8 -32 10 -34 2 -2 -12 -32 -31 -66 -19 -35 -35
-70 -35 -79 0 -9 -7 -19 -15 -22 -10 -4 -15 -20 -15 -49 0 -49 -16 -68 -28
-34 -5 13 -11 18 -15 12 -9 -14 2 -43 15 -43 5 0 7 -4 3 -10 -3 -5 -13 -6 -22
-3 -13 5 -15 0 -9 -33 8 -48 9 -64 6 -134 -2 -40 3 -70 20 -110 13 -30 27 -57
30 -60 4 -3 10 -17 13 -31 5 -17 16 -29 32 -33 14 -4 25 -10 25 -15 0 -5 13
-12 29 -16 16 -3 32 -13 35 -21 3 -8 12 -14 21 -14 8 0 15 -7 15 -15 0 -8 -9
-15 -20 -15 -11 0 -20 5 -20 10 0 10 -41 31 -48 25 -8 -7 14 -38 32 -46 17 -8
16 -8 -8 -4 -19 4 -32 1 -37 -7 -6 -9 -38 -13 -116 -13 -85 0 -115 4 -141 18
-54 30 -92 77 -62 77 6 0 10 7 10 15 0 8 -9 15 -20 15 -14 0 -18 -5 -13 -18 6
-14 4 -15 -9 -4 -13 10 -17 10 -21 0 -2 -7 -8 -10 -12 -6 -5 5 -1 16 8 26 21
23 23 54 2 46 -12 -5 -14 7 -10 78 8 176 16 218 55 320 22 55 48 116 59 134
11 19 18 41 15 49 -4 8 -1 15 5 15 6 0 11 -4 11 -10 0 -16 27 -11 34 6 9 24 7
41 -4 24 -5 -8 -12 -11 -16 -8 -9 10 15 69 38 91 21 20 22 31 8 58 -9 16 -7
19 10 19 26 0 26 20 0 27 -11 3 -20 10 -20 17 1 16 25 46 38 46 6 0 24 11 40
25 18 15 37 23 46 19 12 -5 15 -2 9 11 -5 15 -2 17 15 13 12 -3 29 1 39 9 17
13 17 14 -3 8 -14 -4 -24 0 -28 10 -4 11 1 15 17 15 12 0 45 18 72 40 28 22
56 40 63 40 15 0 16 16 1 26 -8 4 -7 9 2 15 8 4 17 1 24 -8 10 -13 13 -14 20
-3 5 9 4 15 -3 18 -7 2 6 17 28 33 22 16 45 38 52 49 7 11 19 20 26 20 9 0 11
7 7 21 -7 20 -6 20 18 4 17 -11 27 -13 32 -6 3 6 1 11 -4 11 -16 0 -13 19 7
39 26 29 90 62 97 51 11 -18 27 -10 22 10 -3 11 0 20 6 20 16 1 57 36 57 49 0
6 11 11 24 11 13 0 32 3 40 6 15 6 15 8 -1 21 -16 13 -15 14 16 9 18 -3 49 -6
68 -6z m1133 -5 c0 -8 -3 -15 -6 -15 -3 0 -12 7 -20 15 -14 13 -13 15 5 15 12
0 21 -6 21 -15z m538 5 c56 0 69 -3 80 -20 11 -18 10 -20 -10 -17 -20 2 -23
-2 -20 -26 2 -22 -1 -27 -15 -25 -13 2 -18 -4 -18 -24 -1 -29 -40 -78 -62 -78
-7 0 -13 -11 -13 -25 0 -14 -7 -28 -15 -31 -8 -4 -15 -14 -15 -24 0 -20 -27
-77 -41 -86 -5 -3 -7 -15 -3 -26 5 -17 3 -20 -10 -15 -11 5 -16 1 -16 -12 0
-22 -25 -45 -40 -36 -15 9 -12 32 6 39 8 3 12 11 9 17 -5 7 -14 3 -26 -10 -23
-24 -25 -49 -4 -57 8 -4 15 -17 15 -31 0 -16 -7 -27 -20 -30 -11 -3 -20 -11
-20 -18 0 -7 -10 -28 -23 -46 -13 -19 -41 -68 -63 -108 -21 -41 -50 -85 -63
-98 -17 -18 -20 -28 -13 -35 8 -8 5 -14 -11 -22 -12 -7 -23 -20 -25 -30 -2
-11 -17 -37 -32 -58 -16 -22 -32 -52 -35 -69 -4 -16 -11 -27 -16 -23 -12 7
-12 51 1 59 15 9 12 25 -5 25 -14 0 -20 -27 -16 -72 1 -10 -2 -18 -8 -18 -6 0
-13 -17 -17 -37 -4 -21 -14 -49 -23 -63 -27 -41 -40 -72 -51 -123 -8 -36 -7
-55 4 -80 7 -17 25 -43 40 -56 14 -14 26 -30 26 -38 0 -7 11 -13 26 -13 31 0
28 -23 -4 -28 -12 -2 -22 -9 -22 -17 0 -15 -27 -28 -41 -20 -12 8 -71 -24 -64
-35 9 -15 25 -12 25 5 0 8 7 15 15 15 8 0 15 -7 15 -15 0 -8 -6 -15 -12 -15
-7 0 -29 -10 -48 -22 -37 -23 -61 -28 -151 -31 -36 -1 -62 3 -73 12 -12 10
-14 17 -6 25 13 13 13 46 -1 46 -6 0 -8 9 -3 22 6 20 5 21 -8 10 -13 -10 -17
-10 -21 1 -3 8 -1 20 4 28 5 8 8 25 8 39 0 14 -3 19 -6 12 -2 -7 -14 -17 -25
-23 -19 -10 -20 -9 -14 17 4 16 13 32 19 36 8 5 6 8 -5 8 -9 0 -18 -5 -20 -12
-3 -7 -10 -8 -17 -4 -9 6 -7 13 8 28 12 10 25 17 30 13 5 -3 12 9 16 26 5 23
10 28 16 18 6 -11 11 -11 20 -2 9 9 9 16 -1 28 -11 13 -10 14 4 9 11 -4 26 6
48 31 18 20 35 46 38 57 3 12 11 23 18 24 7 1 8 0 2 -3 -10 -5 -14 -33 -5 -33
3 0 14 9 25 20 17 17 18 21 5 26 -17 7 -21 44 -5 44 6 0 14 -8 17 -17 8 -21
32 -47 38 -42 2 2 -2 24 -8 47 -8 29 -8 45 -1 50 19 13 64 79 64 94 0 8 11 25
25 38 14 13 25 34 25 46 0 28 16 40 34 25 17 -14 29 -2 15 16 -9 10 -2 27 29
73 27 39 39 66 35 77 -6 16 -4 16 15 -1 22 -19 22 -19 22 2 0 11 5 24 10 27 6
3 10 15 10 26 0 10 5 19 11 19 16 0 38 31 39 53 0 24 69 157 82 157 5 0 6 10
3 23 -4 15 -4 18 3 8 5 -7 15 -10 21 -6 9 5 9 10 0 21 -6 7 -9 20 -5 29 7 19
36 8 36 -13 0 -12 3 -13 11 -5 8 8 6 18 -6 36 -15 24 -15 26 4 44 26 24 81
145 81 178 0 16 6 25 15 25 8 0 15 5 15 10 0 21 44 70 58 65 7 -3 44 -5 80 -5z
m-2994 -8 c3 -5 -11 -14 -31 -21 -29 -11 -37 -11 -44 0 -6 10 -1 16 19 20 40
10 50 10 56 1z m2434 -27 c26 -25 26 -25 4 -25 -19 0 -22 -4 -17 -27 5 -23 4
-25 -5 -11 -6 9 -17 15 -24 12 -8 -3 -19 4 -26 15 -10 19 -8 21 20 21 16 0 30
5 30 10 0 6 -7 10 -15 10 -8 0 -15 5 -15 10 0 17 20 11 48 -15z m-2206 4 c13
-5 33 -25 46 -43 18 -27 22 -46 22 -114 0 -64 -6 -99 -29 -164 -48 -137 -79
-202 -100 -212 -41 -18 -187 55 -235 118 -14 19 -30 54 -36 79 -10 37 -9 55 4
100 17 59 74 139 128 181 45 34 117 66 150 66 15 0 37 -5 50 -11z m2628 1 c0
-5 -4 -10 -10 -10 -5 0 -10 5 -10 10 0 6 5 10 10 10 6 0 10 -4 10 -10z m-2960
-35 c0 -12 -7 -25 -15 -29 -8 -3 -15 -14 -15 -25 0 -10 -13 -45 -30 -76 -17
-32 -30 -72 -30 -93 0 -40 -23 -72 -53 -72 -23 0 -147 -122 -147 -145 0 -11
-8 -15 -27 -13 -24 3 -28 0 -25 -22 1 -16 -10 -40 -33 -69 -19 -24 -35 -50
-35 -58 0 -17 -25 -45 -37 -41 -10 4 -12 -12 -5 -31 3 -8 -6 -22 -22 -34 -19
-14 -25 -25 -20 -39 4 -13 0 -24 -13 -33 -10 -7 -27 -36 -38 -64 -11 -28 -23
-51 -27 -51 -4 0 -8 -16 -8 -35 0 -41 -19 -87 -34 -82 -6 2 -11 13 -11 25 0
11 -4 24 -8 28 -14 14 -6 -61 8 -80 17 -22 20 -82 5 -91 -5 -3 -10 -17 -10
-31 0 -15 6 -24 16 -24 11 0 14 -5 9 -17 -15 -38 -15 -49 -1 -68 15 -20 15
-20 16 3 0 12 5 22 10 22 6 0 10 -11 10 -23 0 -14 14 -36 34 -55 19 -17 36
-36 38 -42 2 -7 25 -14 51 -17 39 -5 45 -8 36 -19 -6 -8 -18 -14 -25 -14 -8 0
-20 -11 -26 -25 -8 -18 -17 -23 -32 -19 -12 3 -33 1 -46 -5 l-25 -10 28 0 c30
-1 38 -21 8 -21 -10 0 -29 -8 -42 -18 -37 -29 -88 -51 -94 -42 -3 5 -28 6 -56
3 -40 -5 -59 -1 -99 18 -34 17 -52 33 -60 54 -7 17 -15 37 -19 45 -11 24 -14
190 -3 190 13 0 23 38 12 45 -14 9 -6 94 9 100 9 4 12 16 8 39 -4 27 -2 35 12
39 12 3 22 21 30 52 13 52 52 134 87 181 16 22 20 34 12 47 -8 15 -6 17 15 12
19 -5 26 -2 32 17 4 13 7 28 6 35 -1 6 8 18 19 26 12 8 18 20 15 29 -4 10 1
17 14 21 27 7 38 36 20 49 -10 7 -8 8 9 3 19 -6 22 -3 22 25 0 27 3 30 24 24
18 -4 26 -1 30 14 4 11 6 24 5 28 -3 21 2 34 14 34 11 1 74 72 97 109 7 12 11
12 23 2 10 -8 17 -9 22 -1 3 5 2 10 -4 10 -6 0 -16 10 -22 22 -12 22 -12 22
14 5 32 -20 44 -22 28 -4 -9 11 2 26 48 70 33 32 64 57 70 57 6 0 11 11 11 25
0 17 6 25 18 25 24 0 142 90 142 109 0 13 2 13 9 2 10 -16 31 -6 31 15 0 8 5
12 10 9 6 -3 10 -17 10 -30z m2830 20 c21 -11 30 -23 30 -40 0 -13 -4 -26 -9
-29 -5 -3 -40 -59 -78 -123 -249 -420 -336 -563 -411 -678 -158 -242 -286
-391 -375 -434 -42 -20 -51 -22 -78 -11 -16 7 -35 22 -40 33 -26 48 18 189
113 367 86 159 187 304 433 620 87 111 197 224 260 265 73 47 108 54 155 30z
m-360 -49 c26 -21 27 -24 12 -38 -24 -22 -52 -60 -52 -71 0 -4 -9 -5 -20 -2
-14 5 -20 2 -20 -9 0 -9 -4 -16 -10 -16 -5 0 -10 -6 -10 -14 0 -8 -22 -41 -50
-73 -27 -32 -50 -64 -50 -72 0 -11 -3 -11 -17 0 -15 13 -16 12 -10 -9 4 -18 2
-22 -9 -18 -8 3 -14 0 -14 -7 0 -7 -15 -35 -33 -62 -19 -28 -32 -56 -30 -62 3
-7 -2 -13 -11 -13 -9 0 -16 5 -16 11 0 5 -5 7 -10 4 -6 -4 -8 -11 -4 -16 3 -5
0 -16 -6 -24 -6 -8 -9 -24 -6 -37 3 -13 3 -17 0 -10 -3 6 -12 12 -20 12 -8 0
-14 10 -14 22 0 16 -3 19 -11 11 -8 -8 -7 -17 3 -33 10 -18 10 -24 1 -27 -7
-3 -13 -13 -13 -23 0 -9 -7 -23 -15 -30 -8 -7 -15 -17 -15 -23 0 -6 -6 -18
-14 -26 -8 -9 -26 -38 -40 -66 -20 -41 -26 -47 -32 -31 -4 10 -2 27 4 37 19
30 13 36 -8 10 -13 -15 -18 -31 -14 -46 3 -13 -2 -39 -11 -60 -10 -19 -15 -38
-12 -41 3 -3 -3 -14 -14 -25 -10 -10 -22 -31 -25 -46 -11 -42 -34 -73 -55 -73
-20 0 -25 -25 -10 -49 11 -18 3 -41 -12 -37 -7 1 -9 1 -4 -1 11 -7 8 -51 -5
-74 -11 -17 -10 -22 5 -31 14 -7 17 -17 13 -34 -5 -17 -2 -26 9 -30 8 -4 15
-12 15 -20 0 -17 68 -64 95 -65 11 0 14 -3 8 -6 -7 -2 -25 -26 -39 -53 -21
-38 -38 -54 -78 -74 -59 -29 -157 -54 -203 -53 -18 0 -33 2 -33 4 0 3 4 12 9
21 11 21 -4 62 -21 61 -10 0 -10 -2 0 -6 18 -7 15 -40 -6 -61 -18 -18 -19 -18
-40 5 -12 14 -22 32 -22 41 0 13 5 11 20 -8 21 -28 41 -19 22 11 -10 16 -10
20 3 25 20 8 9 24 -16 24 -19 0 -20 5 -16 86 3 58 8 89 17 94 11 7 10 15 -5
44 -11 20 -25 36 -32 36 -7 0 -13 4 -13 10 0 5 6 7 14 4 8 -3 17 0 22 7 4 7 2
15 -5 17 -9 3 -9 7 0 18 7 8 9 18 5 22 -4 4 -13 -1 -20 -11 -16 -21 -36 -22
-36 -2 0 8 6 15 13 15 14 0 49 42 61 74 8 22 22 12 28 -19 4 -16 6 -14 12 10
4 17 11 38 17 47 5 10 9 27 9 38 0 11 5 20 12 20 16 0 88 81 88 99 0 19 16 3
24 -24 3 -11 4 -1 2 23 -4 40 -3 42 17 36 19 -6 20 -5 8 10 -11 14 -11 16 1
16 17 0 114 130 110 148 -2 9 4 11 21 7 27 -7 46 10 30 26 -6 6 5 25 28 50 21
23 35 47 32 55 -3 8 1 14 11 14 9 0 16 -4 16 -10 0 -5 7 -10 15 -10 20 0 19
10 -2 26 -24 17 -8 32 17 16 11 -7 21 -12 23 -12 3 0 2 10 0 23 -3 14 2 29 11
36 9 8 16 19 16 25 1 18 49 68 60 61 6 -3 10 1 10 9 0 23 26 20 43 -5 9 -12
17 -16 21 -10 4 6 -2 16 -14 23 -11 7 -20 18 -20 25 0 7 -4 13 -10 13 -5 0
-10 5 -10 11 0 7 10 5 25 -5 19 -13 25 -13 25 -3 0 7 -5 18 -12 25 -6 6 -9 15
-5 19 4 4 13 1 19 -5 17 -17 28 -15 28 6 0 18 72 92 90 92 5 0 10 7 10 16 0
22 42 54 63 48 9 -3 17 0 17 6 0 6 5 8 10 5 17 -10 11 -37 -12 -56 -11 -11
-18 -22 -14 -26 8 -8 55 46 56 64 0 6 -4 15 -10 18 -14 8 -13 35 1 35 6 0 24
-11 39 -24z m600 -116 c0 -5 -4 -10 -10 -10 -5 0 -10 5 -10 10 0 6 5 10 10 10
6 0 10 -4 10 -10z m-1414 -107 c-4 -16 -13 -33 -21 -39 -9 -6 -12 -19 -8 -34
l6 -23 -31 18 -31 19 -21 -27 c-12 -15 -26 -25 -31 -22 -5 4 0 15 10 27 11 11
17 27 13 37 -5 14 -3 14 10 3 12 -9 18 -10 23 -2 4 7 2 17 -4 23 -17 17 -13
29 8 22 12 -3 21 0 25 10 3 8 17 15 32 15 24 0 26 -3 20 -27z m-606 -92 c0 -5
-6 -14 -14 -20 -10 -8 -16 -9 -21 -1 -3 5 -3 15 0 20 8 12 35 13 35 1z m540
-17 c0 -14 -3 -14 -15 -4 -8 7 -15 14 -15 16 0 2 7 4 15 4 8 0 15 -7 15 -16z
m-1710 -18 c0 -29 65 -100 134 -145 40 -26 99 -55 132 -65 32 -10 63 -22 68
-27 6 -5 2 -18 -11 -31 -11 -13 -50 -70 -88 -128 -133 -206 -248 -341 -366
-429 -44 -33 -97 -66 -119 -72 -59 -18 -108 -3 -138 41 -21 31 -23 43 -19 110
3 41 14 104 26 140 32 98 122 273 197 385 37 55 82 123 100 150 55 83 65 96
75 90 5 -4 9 -12 9 -19z m1686 -13 c-7 -7 -26 7 -26 19 0 6 6 6 15 -2 9 -7 13
-15 11 -17z m-1236 -159 c0 -8 -5 -12 -10 -9 -6 4 -8 11 -5 16 9 14 15 11 15
-7z m1585 -864 c-3 -5 -10 -10 -16 -10 -5 0 -9 5 -9 10 0 6 7 10 16 10 8 0 12
-4 9 -10z m265 -49 c0 -12 -20 -25 -27 -18 -7 7 6 27 18 27 5 0 9 -4 9 -9z"/>
<path d="M3190 2236 c0 -8 5 -18 10 -21 6 -3 10 3 10 14 0 12 -4 21 -10 21 -5
0 -10 -6 -10 -14z"/>
<path d="M2855 1951 c-6 -11 9 -23 19 -14 9 9 7 23 -3 23 -6 0 -12 -4 -16 -9z"/>
<path d="M2860 1865 c0 -8 5 -15 10 -15 6 0 10 7 10 15 0 8 -4 15 -10 15 -5 0
-10 -7 -10 -15z"/>
<path d="M2696 1592 c-4 -13 -5 -26 -2 -29 10 -11 18 4 14 29 l-4 23 -8 -23z"/>
<path d="M2875 1551 c-3 -5 -1 -12 5 -16 5 -3 10 1 10 9 0 18 -6 21 -15 7z"/>
<path d="M2670 1515 c0 -19 5 -35 10 -35 6 0 10 16 10 35 0 19 -4 35 -10 35
-5 0 -10 -16 -10 -35z"/>
<path d="M2875 1507 c-4 -10 -5 -21 -1 -24 10 -10 18 4 13 24 -4 17 -4 17 -12
0z"/>
<path d="M2880 1420 c0 -11 2 -20 4 -20 2 0 6 9 9 20 3 11 1 20 -4 20 -5 0 -9
-9 -9 -20z"/>
<path d="M2655 1390 c-3 -5 1 -10 9 -10 9 0 16 5 16 10 0 6 -4 10 -9 10 -6 0
-13 -4 -16 -10z"/>
<path d="M2896 1371 c-4 -5 -2 -12 3 -15 5 -4 12 -2 15 3 4 5 2 12 -3 15 -5 4
-12 2 -15 -3z"/>
<path d="M2673 1345 c-9 -20 -8 -25 3 -25 8 0 14 10 14 25 0 14 -1 25 -2 25
-2 0 -8 -11 -15 -25z"/>
<path d="M2696 1291 c-4 -5 -2 -12 3 -15 5 -4 12 -2 15 3 4 5 2 12 -3 15 -5 4
-12 2 -15 -3z"/>
<path d="M2902 1245 c0 -16 2 -22 5 -12 2 9 2 23 0 30 -3 6 -5 -1 -5 -18z"/>
<path d="M5300 2644 c0 -8 5 -12 10 -9 6 3 10 10 10 16 0 5 -4 9 -10 9 -5 0
-10 -7 -10 -16z"/>
<path d="M5340 2620 c0 -19 3 -21 12 -12 9 9 9 15 0 24 -9 9 -12 7 -12 -12z"/>
<path d="M5317 2583 c-4 -3 -7 -11 -7 -17 0 -6 5 -5 12 2 6 6 9 14 7 17 -3 3
-9 2 -12 -2z"/>
<path d="M4920 2035 c0 -8 5 -15 10 -15 6 0 10 7 10 15 0 8 -4 15 -10 15 -5 0
-10 -7 -10 -15z"/>
<path d="M4954 1986 c-8 -22 3 -33 18 -18 9 9 9 15 0 24 -9 9 -13 7 -18 -6z"/>
<path d="M4820 1844 c0 -8 5 -12 10 -9 6 4 8 11 5 16 -9 14 -15 11 -15 -7z"/>
<path d="M4868 1839 c-10 -10 -14 -21 -9 -23 5 -3 16 3 25 13 22 24 7 34 -16
10z"/>
<path d="M4762 1830 c0 -14 2 -19 5 -12 2 6 2 18 0 25 -3 6 -5 1 -5 -13z"/>
<path d="M4725 1750 c-9 -16 -13 -30 -9 -30 9 0 44 41 44 52 0 19 -21 6 -35
-22z"/>
<path d="M4782 1740 c0 -14 2 -19 5 -12 2 6 2 18 0 25 -3 6 -5 1 -5 -13z"/>
<path d="M4447 1385 c-10 -14 -16 -25 -13 -25 9 0 46 34 46 42 0 15 -15 7 -33
-17z"/>
<path d="M4635 1187 c-4 -10 -5 -21 -1 -24 10 -10 18 4 13 24 -4 17 -4 17 -12
0z"/>
<path d="M2055 2520 c4 -6 11 -8 16 -5 14 9 11 15 -7 15 -8 0 -12 -5 -9 -10z"/>
<path d="M1965 2315 c8 -37 12 -42 26 -28 8 8 5 18 -11 35 l-23 23 8 -30z"/>
<path d="M1951 2257 c-7 -9 -11 -24 -9 -34 3 -16 5 -15 17 5 15 29 10 50 -8
29z"/>
<path d="M1730 2121 c0 -6 5 -13 10 -16 6 -3 10 1 10 9 0 9 -4 16 -10 16 -5 0
-10 -4 -10 -9z"/>
<path d="M1750 1981 c0 -6 5 -13 10 -16 6 -3 10 1 10 9 0 9 -4 16 -10 16 -5 0
-10 -4 -10 -9z"/>
<path d="M1573 1885 c-21 -23 -15 -37 7 -15 11 11 20 22 20 25 0 10 -15 4 -27
-10z"/>
<path d="M1420 1593 c0 -21 3 -24 9 -14 5 8 7 20 4 28 -8 21 -13 15 -13 -14z"/>
<path d="M1400 1201 c0 -12 5 -21 10 -21 6 0 10 6 10 14 0 8 -4 18 -10 21 -5
3 -10 -3 -10 -14z"/>
<path d="M1645 1210 c-4 -6 5 -10 20 -10 15 0 24 4 20 10 -3 6 -12 10 -20 10
-8 0 -17 -4 -20 -10z"/>
<path d="M1613 1151 c-26 -22 -30 -41 -8 -41 8 0 15 6 15 14 0 7 9 16 20 19
22 6 28 27 8 27 -7 -1 -23 -9 -35 -19z"/>
<path d="M4345 1640 c-3 -5 1 -10 9 -10 9 0 16 5 16 10 0 6 -4 10 -9 10 -6 0
-13 -4 -16 -10z"/>
<path d="M4590 2526 c0 -7 9 -16 20 -19 17 -4 18 -2 9 14 -11 22 -29 25 -29 5z"/>
<path d="M4180 2004 c0 -8 5 -12 10 -9 6 4 8 11 5 16 -9 14 -15 11 -15 -7z"/>
<path d="M4210 1975 c0 -8 4 -15 9 -15 5 0 11 7 15 15 3 9 0 15 -9 15 -8 0
-15 -7 -15 -15z"/>
<path d="M3980 1751 c0 -12 5 -21 10 -21 6 0 10 6 10 14 0 8 -4 18 -10 21 -5
3 -10 -3 -10 -14z"/>
<path d="M3922 1748 c-16 -16 -15 -28 3 -28 8 0 15 2 15 4 0 2 3 11 6 20 7 19
-7 21 -24 4z"/>
<path d="M3855 1710 c-8 -13 15 -24 27 -12 6 6 4 11 -6 15 -8 3 -18 2 -21 -3z"/>
<path d="M4050 1686 c0 -8 5 -18 10 -21 6 -3 10 3 10 14 0 12 -4 21 -10 21 -5
0 -10 -6 -10 -14z"/>
<path d="M3776 1591 c-4 -7 -5 -15 -2 -18 9 -9 19 4 14 18 -4 11 -6 11 -12 0z"/>
<path d="M3777 1494 c-8 -8 3 -34 14 -34 11 0 12 27 0 34 -4 3 -11 3 -14 0z"/>
<path d="M3780 1385 c0 -8 4 -15 9 -15 5 0 14 7 21 15 10 13 9 15 -9 15 -12 0
-21 -6 -21 -15z"/>
<path d="M3997 1185 c-4 -8 -2 -17 3 -20 6 -4 10 3 10 14 0 25 -6 27 -13 6z"/>
<path d="M4047 1194 c-8 -8 1 -24 14 -24 5 0 9 7 9 15 0 15 -12 20 -23 9z"/>
<path d="M7330 2835 c-10 -12 -10 -15 4 -15 9 0 16 7 16 15 0 8 -2 15 -4 15
-2 0 -9 -7 -16 -15z"/>
<path d="M5881 2815 c-4 -5 -25 -39 -46 -75 -21 -36 -65 -105 -97 -153 -32
-48 -58 -90 -58 -92 0 -2 81 -4 181 -4 l181 1 26 45 c48 81 141 226 157 243 8
9 15 23 15 31 0 12 -31 14 -176 14 -105 0 -179 -4 -183 -10z m174 -96 c4 -5 0
-18 -9 -28 -9 -10 -14 -25 -10 -35 4 -12 1 -16 -15 -16 -15 0 -21 -6 -21 -24
0 -24 -25 -43 -35 -27 -3 5 -21 9 -40 9 -25 0 -35 -4 -35 -16 0 -13 -3 -12
-15 4 -19 25 -19 34 0 34 14 0 17 4 19 32 1 6 14 27 30 45 26 29 36 33 77 33
26 0 51 -5 54 -11z"/>
<path d="M5956 2652 c-3 -6 -1 -14 5 -17 15 -10 25 3 12 16 -7 7 -13 7 -17 1z"/>
<path d="M1140 2804 c0 -8 5 -12 10 -9 6 3 10 10 10 16 0 5 -4 9 -10 9 -5 0
-10 -7 -10 -16z"/>
<path d="M936 2751 c-4 -5 -2 -12 3 -15 5 -4 12 -2 15 3 4 5 2 12 -3 15 -5 4
-12 2 -15 -3z"/>
<path d="M4490 2745 c-7 -9 -11 -18 -8 -20 3 -3 11 1 18 10 7 9 11 18 8 20 -3
3 -11 -1 -18 -10z"/>
<path d="M7155 2720 c3 -5 10 -10 16 -10 5 0 9 5 9 10 0 6 -7 10 -16 10 -8 0
-12 -4 -9 -10z"/>
<path d="M900 2696 c0 -9 7 -16 16 -16 9 0 14 5 12 12 -6 18 -28 21 -28 4z"/>
<path d="M4315 2650 c-3 -5 1 -10 10 -10 9 0 13 5 10 10 -3 6 -8 10 -10 10 -2
0 -7 -4 -10 -10z"/>
<path d="M1776 2631 c-4 -5 -2 -12 3 -15 5 -4 12 -2 15 3 4 5 2 12 -3 15 -5 4
-12 2 -15 -3z"/>
<path d="M726 2524 c-8 -22 -8 -24 8 -24 15 0 28 24 19 34 -11 10 -21 7 -27
-10z"/>
<path d="M8096 2372 c-3 -6 -1 -14 5 -17 15 -10 25 3 12 16 -7 7 -13 7 -17 1z"/>
<path d="M820 2270 c0 -19 3 -21 12 -12 9 9 9 15 0 24 -9 9 -12 7 -12 -12z"/>
<path d="M3460 2190 c0 -5 7 -10 16 -10 8 0 12 5 9 10 -3 6 -10 10 -16 10 -5
0 -9 -4 -9 -10z"/>
<path d="M9155 2160 c4 -6 11 -8 16 -5 14 9 11 15 -7 15 -8 0 -12 -5 -9 -10z"/>
<path d="M450 2140 c-6 -12 -9 -26 -6 -33 3 -8 5 -7 5 2 1 8 8 19 18 26 11 8
12 14 5 19 -6 3 -16 -3 -22 -14z"/>
<path d="M391 2054 c-6 -15 -10 -28 -8 -30 2 -2 12 2 22 9 13 10 15 18 8 31
-8 15 -11 14 -22 -10z"/>
<path d="M460 2064 c0 -8 5 -12 10 -9 6 4 8 11 5 16 -9 14 -15 11 -15 -7z"/>
<path d="M672 2000 c-20 -32 -14 -46 10 -22 15 14 19 25 12 32 -6 6 -14 3 -22
-10z"/>
<path d="M7496 2013 c-11 -11 -6 -23 9 -23 8 0 15 4 15 9 0 13 -16 22 -24 14z"/>
<path d="M8750 1985 c-7 -9 -10 -18 -7 -22 8 -7 37 15 37 28 0 14 -16 11 -30
-6z"/>
<path d="M9770 1970 c13 -23 20 -26 20 -6 0 8 -7 16 -15 20 -13 4 -14 2 -5
-14z"/>
<path d="M300 1810 c0 -18 4 -29 10 -25 6 3 10 15 10 25 0 10 -4 22 -10 25 -6
4 -10 -7 -10 -25z"/>
<path d="M8976 1815 c4 -8 8 -15 10 -15 2 0 4 7 4 15 0 8 -4 15 -10 15 -5 0
-7 -7 -4 -15z"/>
<path d="M5155 1811 c-3 -5 -1 -12 5 -16 5 -3 10 1 10 9 0 18 -6 21 -15 7z"/>
<path d="M7836 1792 c-2 -4 -1 -14 3 -21 6 -10 10 -9 14 3 6 16 -8 32 -17 18z"/>
<path d="M282 1720 c0 -14 2 -19 5 -12 2 6 2 18 0 25 -3 6 -5 1 -5 -13z"/>
<path d="M3520 1680 c0 -5 5 -10 10 -10 6 0 10 5 10 10 0 6 -4 10 -10 10 -5 0
-10 -4 -10 -10z"/>
<path d="M5600 1674 c0 -8 5 -12 10 -9 6 4 8 11 5 16 -9 14 -15 11 -15 -7z"/>
<path d="M475 1611 c-3 -5 -1 -12 5 -16 5 -3 10 1 10 9 0 18 -6 21 -15 7z"/>
<path d="M2375 1390 c-3 -5 1 -10 10 -10 9 0 13 5 10 10 -3 6 -8 10 -10 10 -2
0 -7 -4 -10 -10z"/>
<path d="M2156 1251 c-4 -5 -2 -12 3 -15 5 -4 12 -2 15 3 4 5 2 12 -3 15 -5 4
-12 2 -15 -3z"/>
<path d="M6825 1070 c3 -5 11 -10 16 -10 6 0 7 5 4 10 -3 6 -11 10 -16 10 -6
0 -7 -4 -4 -10z"/>
<path d="M3680 944 c0 -8 5 -12 10 -9 6 4 8 11 5 16 -9 14 -15 11 -15 -7z"/>
<path d="M140 804 c0 -8 5 -12 10 -9 6 3 10 10 10 16 0 5 -4 9 -10 9 -5 0 -10
-7 -10 -16z"/>
<path d="M295 570 c-3 -5 1 -10 10 -10 9 0 13 5 10 10 -3 6 -8 10 -10 10 -2 0
-7 -4 -10 -10z"/>
<path d="M2075 550 c-3 -5 1 -10 10 -10 9 0 13 5 10 10 -3 6 -8 10 -10 10 -2
0 -7 -4 -10 -10z"/>
<path d="M6960 442 c0 -12 19 -26 26 -19 2 2 -2 10 -11 17 -9 8 -15 8 -15 2z"/>
<path d="M420 405 c0 -8 7 -15 15 -15 8 0 15 7 15 15 0 8 -7 15 -15 15 -8 0
-15 -7 -15 -15z"/>
<path d="M340 385 c0 -16 9 -19 34 -9 20 8 11 24 -15 24 -10 0 -19 -7 -19 -15z"/>
<path d="M460 321 c0 -12 5 -21 10 -21 6 0 10 6 10 14 0 8 -4 18 -10 21 -5 3
-10 -3 -10 -14z"/>
<path d="M8130 275 c7 -9 15 -13 17 -11 7 7 -7 26 -19 26 -6 0 -6 -6 2 -15z"/>
<path d="M725 250 c-4 -6 5 -10 20 -10 15 0 24 4 20 10 -3 6 -12 10 -20 10 -8
0 -17 -4 -20 -10z"/>
<path d="M858 238 c9 -9 15 -9 24 0 9 9 7 12 -12 12 -19 0 -21 -3 -12 -12z"/>
<path d="M3520 116 c0 -9 5 -16 10 -16 6 0 10 4 10 9 0 6 -4 13 -10 16 -5 3
-10 -1 -10 -9z"/>
<path d="M8487 114 c-11 -11 3 -24 18 -18 8 4 12 10 9 15 -6 11 -18 12 -27 3z"/>
</g>
</svg>
