<?xml version="1.0" standalone="no"?>
<!DOCTYPE svg PUBLIC "-//W3C//DTD SVG 20010904//EN"
 "http://www.w3.org/TR/2001/REC-SVG-20010904/DTD/svg10.dtd">
<svg version="1.0" xmlns="http://www.w3.org/2000/svg"
 width="1156.000000pt" height="1200.000000pt" viewBox="0 0 1156.000000 1200.000000"
 preserveAspectRatio="xMidYMid meet">
<g transform="translate(0.000000,1200.000000) scale(0.100000,-0.100000)"
fill="#000000" stroke="none">
<path d="M5620 11984 c0 -8 5 -12 10 -9 6 3 10 10 10 16 0 5 -4 9 -10 9 -5 0
-10 -7 -10 -16z"/>
<path d="M5684 11783 c-20 -43 -93 -177 -162 -298 -69 -121 -131 -229 -137
-240 -6 -11 -26 -47 -45 -80 -19 -33 -44 -76 -55 -97 -11 -20 -61 -108 -111
-195 -114 -196 -120 -206 -215 -376 -43 -76 -103 -179 -132 -230 -30 -51 -65
-112 -79 -137 -14 -25 -58 -101 -97 -169 -39 -68 -71 -126 -71 -129 0 -2 -8
-16 -18 -30 -11 -15 -33 -52 -49 -82 -17 -30 -109 -192 -205 -360 -96 -168
-186 -325 -200 -350 -14 -25 -48 -83 -75 -130 -27 -47 -63 -110 -80 -140 -17
-30 -55 -98 -85 -150 -30 -52 -67 -115 -81 -140 -14 -25 -66 -117 -117 -205
-50 -88 -104 -182 -120 -210 -15 -27 -70 -124 -122 -215 -52 -91 -106 -185
-120 -210 -14 -25 -50 -88 -80 -140 -30 -52 -66 -115 -80 -140 -14 -25 -50
-88 -80 -140 -30 -52 -67 -115 -80 -140 -14 -25 -211 -369 -438 -765 -227
-396 -423 -738 -436 -761 -12 -22 -120 -211 -240 -420 -237 -414 -226 -394
-327 -574 -38 -69 -78 -136 -87 -150 -9 -14 -30 -50 -47 -80 -16 -30 -57 -102
-91 -160 -33 -58 -74 -128 -89 -157 -24 -45 -222 -391 -333 -583 -40 -69 -56
-98 -120 -213 -22 -40 -44 -79 -50 -87 -5 -8 -87 -150 -181 -315 -95 -165
-186 -322 -203 -350 -17 -27 -38 -62 -45 -77 -8 -16 -18 -28 -23 -28 -4 0 -8
-5 -8 -10 0 -6 -9 -20 -20 -32 -21 -22 -27 -58 -11 -58 5 0 27 21 48 47 20 27
55 68 78 93 55 62 530 574 640 690 50 53 121 129 159 170 38 41 106 113 150
160 45 47 169 179 276 295 201 216 464 497 580 620 37 39 93 99 126 135 32 36
95 103 140 150 76 81 202 215 234 250 8 9 74 79 146 156 197 210 580 620 649
694 33 36 163 176 289 310 126 135 286 306 356 380 183 196 416 445 651 696
289 308 275 291 283 349 4 28 16 109 27 180 42 264 69 442 89 570 6 36 15 95
20 133 6 37 15 92 20 122 5 30 14 85 20 123 5 37 15 96 20 132 6 36 15 95 20
133 6 37 15 92 20 122 5 30 18 118 30 195 11 77 25 165 30 195 5 30 16 99 25
153 8 53 22 141 30 195 28 175 35 221 45 287 6 36 15 94 20 130 6 36 15 95 20
133 6 37 15 92 20 122 5 30 14 89 20 130 6 41 15 100 20 130 5 30 14 84 19
120 6 36 20 124 31 195 11 72 25 158 30 193 6 34 14 90 20 125 5 34 19 123 31
197 21 136 51 303 68 372 8 36 6 48 -10 48 -5 0 -25 -35 -45 -77z m-124 -469
c0 -8 -4 -12 -10 -9 -5 3 -10 10 -10 16 0 5 5 9 10 9 6 0 10 -7 10 -16z m-20
-48 c0 -8 -5 -18 -11 -22 -14 -8 -33 11 -25 25 10 16 36 13 36 -3z m-15 -56
c3 -5 3 -15 0 -20 -8 -13 -17 -118 -16 -184 1 -49 1 -49 -19 -31 -11 10 -20
26 -20 37 0 10 -4 18 -10 18 -5 0 -10 -4 -10 -10 0 -14 34 -84 43 -88 16 -7 6
-32 -13 -32 -12 0 -20 -7 -20 -16 0 -10 6 -14 15 -10 9 3 15 0 15 -10 0 -10
-6 -14 -15 -10 -11 4 -15 -2 -15 -25 0 -17 -5 -39 -11 -51 -10 -18 -8 -19 11
-13 19 6 20 5 11 -12 -5 -11 -7 -29 -4 -41 6 -23 -12 -31 -20 -9 -2 6 -8 9
-12 5 -5 -5 -2 -26 5 -48 10 -31 11 -43 2 -52 -15 -15 -15 -51 -1 -65 6 -6 8
-17 4 -23 -5 -9 -9 -9 -14 -1 -7 11 -52 -253 -71 -424 -16 -135 -18 -145 -35
-145 -8 0 -15 -7 -15 -15 0 -8 5 -15 10 -15 6 0 10 -9 10 -20 0 -11 -4 -20 -9
-20 -5 0 -13 -26 -17 -57 -4 -35 -13 -63 -23 -70 -12 -9 -13 -15 -4 -23 8 -9
13 -7 18 9 3 12 10 21 15 21 19 0 18 -18 -1 -50 -14 -22 -19 -43 -15 -61 3
-17 1 -29 -7 -32 -6 -2 -12 -19 -13 -38 0 -19 -10 -86 -22 -149 -12 -63 -28
-167 -37 -230 -8 -63 -20 -135 -25 -160 -6 -25 -15 -78 -21 -118 -7 -51 -6
-78 1 -93 7 -13 8 -25 2 -32 -5 -7 -12 -36 -16 -65 -4 -29 -12 -65 -18 -80 -6
-15 -10 -36 -9 -46 2 -10 -2 -28 -7 -40 -6 -12 -15 -52 -21 -91 -5 -38 -24
-157 -41 -263 -18 -107 -29 -200 -26 -209 4 -8 -1 -36 -9 -61 -9 -25 -13 -58
-10 -73 3 -15 2 -30 -4 -33 -5 -4 -13 -42 -17 -86 -5 -63 -10 -80 -23 -81 -13
-1 -13 -2 2 -6 9 -2 17 -14 17 -25 0 -14 -5 -18 -15 -14 -13 5 -15 0 -10 -28
4 -19 2 -43 -4 -55 -8 -14 -8 -21 -1 -21 5 0 10 -7 10 -15 0 -8 -5 -15 -11
-15 -7 0 -9 -10 -7 -24 4 -17 1 -23 -9 -19 -8 3 -13 -2 -13 -16 0 -11 -13 -35
-28 -53 -15 -18 -36 -45 -45 -60 -10 -16 -25 -28 -33 -28 -10 0 -14 -6 -10
-15 3 -8 0 -15 -7 -15 -7 0 -32 -20 -57 -45 -84 -83 -84 -83 -70 -100 16 -19
3 -20 -17 0 -21 22 -38 7 -17 -16 16 -18 15 -19 -7 -28 -31 -13 -59 -36 -59
-47 0 -19 -56 -69 -72 -66 -12 2 -18 -3 -18 -15 0 -10 -13 -29 -30 -43 -20
-16 -28 -31 -24 -42 4 -13 0 -18 -16 -18 -17 0 -20 4 -14 22 6 22 6 22 -12 3
-13 -13 -15 -20 -6 -23 6 -2 12 -8 12 -14 0 -18 -51 -60 -66 -54 -11 4 -13 -1
-8 -19 5 -19 2 -25 -10 -25 -9 0 -16 -7 -16 -15 0 -18 -12 -19 -28 -3 -20 20
-25 1 -7 -26 10 -14 13 -26 7 -26 -6 0 -13 4 -16 9 -6 9 -56 12 -56 4 0 -12
27 -29 39 -25 8 3 12 -1 9 -9 -7 -21 -33 -22 -52 -3 -9 9 -20 13 -24 9 -4 -4
-1 -10 6 -12 6 -3 12 -12 12 -20 0 -9 -6 -13 -15 -10 -22 9 -30 -14 -10 -30
17 -12 15 -13 -17 -13 -39 0 -58 -14 -33 -24 26 -9 17 -27 -10 -20 -20 5 -31
0 -51 -22 -24 -25 -25 -29 -9 -40 15 -11 15 -13 -5 -24 -18 -10 -24 -9 -31 1
-7 11 -9 10 -9 -4 0 -21 -17 -40 -42 -50 -25 -9 -22 -27 5 -28 22 0 22 0 1 -9
-30 -12 -74 -58 -74 -77 0 -12 -3 -14 -11 -6 -8 8 -8 17 1 33 13 25 9 33 -12
25 -10 -4 -14 -14 -11 -26 3 -11 0 -19 -6 -19 -7 0 -9 -5 -6 -11 8 -12 -40
-59 -61 -59 -10 0 -13 -10 -12 -32 3 -31 1 -33 -29 -30 -27 2 -33 -2 -33 -17
0 -11 -37 -59 -82 -107 -46 -47 -85 -91 -87 -96 -2 -6 -24 -31 -50 -57 -25
-25 -63 -64 -83 -86 -20 -22 -66 -69 -102 -104 -36 -35 -66 -70 -66 -77 0 -8
-5 -14 -10 -14 -6 0 -20 -12 -33 -27 -12 -15 -41 -48 -64 -74 -24 -25 -43 -54
-43 -64 0 -14 -3 -15 -14 -6 -11 9 -16 9 -21 0 -4 -6 -1 -16 6 -21 10 -6 6 -7
-11 -2 -22 6 -23 5 -11 -10 8 -9 11 -20 7 -23 -4 -4 -11 -1 -16 7 -5 8 -11 12
-13 10 -2 -3 -14 -20 -26 -37 -12 -18 -27 -33 -32 -33 -14 0 -49 -33 -43 -41
2 -4 -23 -35 -56 -69 -33 -34 -60 -68 -60 -77 0 -10 -6 -14 -18 -11 -23 6 -42
-15 -35 -40 4 -17 1 -20 -16 -15 -22 6 -29 -11 -8 -21 6 -3 2 -3 -10 0 -14 3
-23 1 -23 -6 0 -13 -97 -131 -118 -144 -23 -13 -71 -70 -72 -83 0 -16 -13 -16
-29 -1 -10 11 -16 8 -31 -12 -13 -16 -18 -34 -15 -51 4 -17 0 -31 -12 -41 -10
-9 -22 -17 -26 -17 -4 0 -19 -9 -34 -20 -21 -17 -23 -23 -13 -36 10 -12 10
-15 -3 -15 -9 0 -18 4 -22 10 -3 5 -12 6 -21 3 -13 -5 -12 -9 6 -28 12 -13 17
-25 13 -28 -5 -3 -17 3 -26 14 -17 19 -17 19 -37 -1 -22 -22 -26 -40 -10 -40
6 0 10 7 10 16 0 17 22 14 28 -4 2 -7 -4 -12 -13 -12 -9 0 -33 -16 -53 -36
-19 -19 -42 -34 -51 -31 -12 3 -16 -4 -17 -26 -1 -16 -6 -32 -11 -36 -5 -3
-13 -15 -17 -26 -7 -19 -8 -19 -21 -2 -9 12 -15 14 -20 7 -4 -6 -2 -17 4 -24
9 -10 7 -15 -9 -19 -14 -3 -20 -13 -20 -31 0 -14 -5 -26 -11 -26 -6 0 -8 9 -4
20 7 23 -10 28 -19 5 -3 -8 -12 -12 -20 -9 -8 3 -17 1 -21 -5 -3 -7 2 -11 14
-11 12 0 21 -2 21 -5 0 -12 -86 -95 -98 -95 -9 0 -11 -7 -7 -21 6 -19 4 -21
-19 -17 -21 4 -26 1 -26 -14 0 -10 -10 -32 -22 -48 -17 -23 -25 -27 -39 -20
-10 6 -23 10 -30 10 -10 0 -10 -3 -1 -12 20 -20 14 -44 -17 -67 -16 -13 -28
-28 -25 -35 3 -8 -6 -11 -31 -8 -20 2 -35 0 -35 -6 0 -6 -7 -18 -16 -27 -9 -9
-14 -18 -12 -21 9 -8 38 8 38 21 0 17 17 28 24 16 9 -14 -29 -51 -53 -51 -18
0 -21 -4 -16 -20 4 -11 2 -20 -4 -20 -6 0 -11 5 -11 11 0 5 -5 7 -11 3 -8 -4
-7 -9 2 -14 10 -7 10 -12 -1 -25 -7 -9 -19 -14 -26 -11 -8 3 -18 -4 -24 -14
-13 -25 -36 -26 -49 -3 -5 10 -13 14 -17 10 -5 -5 -2 -12 5 -16 18 -12 7 -56
-19 -79 -11 -9 -20 -21 -20 -27 0 -6 -14 -19 -30 -28 -17 -10 -30 -21 -30 -25
0 -4 -18 -26 -40 -50 -22 -24 -40 -49 -40 -57 0 -8 -6 -15 -13 -15 -12 0 -88
-75 -149 -146 -9 -10 -48 -50 -87 -89 -39 -38 -71 -76 -71 -84 0 -8 -6 -11
-15 -7 -12 4 -14 0 -9 -20 5 -19 3 -25 -7 -22 -18 4 -89 -53 -89 -71 0 -8 -6
-11 -16 -7 -11 4 -14 1 -9 -13 3 -10 -1 -23 -9 -30 -11 -9 -20 -10 -35 -1 -28
14 -28 44 -1 35 15 -5 20 -2 20 13 0 11 7 25 15 32 9 7 25 32 35 55 11 24 26
45 35 48 17 7 10 37 -8 33 -7 -1 -9 -1 -4 1 4 3 7 11 7 19 0 12 4 12 24 -1 14
-9 27 -12 30 -7 3 6 -1 12 -9 16 -20 7 -19 36 0 36 8 0 15 7 15 15 0 8 -5 15
-11 15 -5 0 -7 5 -3 12 6 9 9 9 12 0 6 -19 22 -14 22 8 0 11 16 37 35 59 20
22 35 49 35 64 0 16 7 26 20 30 12 3 20 14 20 26 0 12 7 24 15 27 8 4 15 16
15 29 0 12 6 28 14 34 8 6 20 26 27 43 15 37 40 65 63 70 11 2 13 7 6 18 -9
13 -11 13 -20 0 -9 -12 -10 -10 -8 10 2 16 9 24 18 21 54 -13 55 -13 25 13
-29 25 -29 26 -7 26 12 0 22 -5 22 -11 0 -5 4 -7 10 -4 6 3 1 15 -11 28 l-20
22 20 3 c21 3 30 22 11 22 -5 0 -10 5 -10 11 0 6 7 9 15 5 8 -3 15 -1 15 5 0
6 11 25 25 43 14 17 33 41 42 53 10 13 23 23 30 23 19 0 26 20 8 26 -10 4 -21
-1 -30 -12 -7 -11 -17 -15 -22 -11 -4 5 -1 14 8 20 9 7 19 22 23 35 4 12 12
22 17 22 5 0 9 6 9 14 0 8 9 21 19 28 19 14 41 47 85 130 14 25 31 48 37 50
16 5 19 60 5 71 -7 5 -5 7 4 4 23 -7 50 11 50 33 0 10 -6 20 -12 23 -7 2 -9 8
-5 13 4 5 12 2 17 -6 5 -8 11 -12 13 -10 2 3 13 26 25 52 16 34 28 48 42 48
16 0 20 7 20 30 0 18 6 33 15 36 8 4 15 14 15 23 0 10 7 26 15 37 8 10 15 25
15 32 0 8 9 25 20 39 11 14 20 36 20 49 0 13 4 24 9 24 5 0 26 17 47 37 26 25
34 38 24 41 -7 3 -19 -3 -27 -14 -9 -12 -13 -13 -13 -4 0 17 29 50 44 50 6 0
17 15 24 32 23 55 36 82 57 113 36 55 78 95 99 96 17 1 18 2 4 6 -10 2 -32 -3
-50 -11 -17 -9 -33 -16 -35 -16 -2 0 2 9 9 20 7 11 18 18 25 16 6 -3 14 2 17
10 3 8 16 14 28 14 l22 0 -22 16 c-29 20 -29 37 0 28 20 -6 21 -5 10 9 -11 13
-11 17 0 24 17 11 50 58 77 111 12 23 26 42 31 42 6 0 10 7 10 15 0 8 8 15 17
15 14 0 12 4 -7 22 -17 16 -20 23 -10 26 7 3 19 -3 26 -13 12 -17 14 -17 20
-1 3 9 4 30 1 46 -5 23 -3 28 8 23 10 -3 15 2 15 16 0 17 7 21 38 23 36 1 36
1 5 5 -18 2 -33 8 -33 13 0 5 11 17 25 26 14 9 25 22 25 29 0 7 7 18 15 25 8
7 15 23 15 37 0 13 7 26 15 29 18 7 20 30 3 37 -7 3 -3 6 10 6 12 1 22 5 22
10 0 5 12 28 27 50 15 23 34 41 45 41 10 0 18 5 18 10 0 6 -6 10 -13 10 -7 0
-18 9 -25 20 -11 18 -10 19 18 13 31 -6 39 4 18 25 -6 6 -8 15 -4 19 4 4 12 1
17 -7 8 -11 9 -7 5 16 -5 29 -3 31 17 26 20 -5 21 -4 8 12 -8 9 -10 20 -6 24
4 4 10 1 12 -5 8 -22 21 -14 20 12 0 13 15 45 32 71 17 26 31 51 31 54 0 4 16
18 35 31 34 24 64 73 51 86 -3 3 -6 1 -6 -5 0 -7 -7 -12 -15 -12 -22 0 -18 11
11 36 15 13 21 25 15 29 -6 3 -11 13 -11 21 0 10 6 13 18 10 14 -5 25 10 55
68 21 41 44 77 52 80 13 5 13 9 3 27 -12 18 -10 24 20 48 17 15 32 32 32 37 0
17 43 52 70 57 25 4 25 4 -2 6 -15 0 -29 5 -33 11 -3 5 6 17 20 26 14 9 25 22
25 29 0 7 7 18 15 25 8 7 15 22 15 34 0 11 12 32 25 45 14 13 25 29 25 37 0 7
14 33 30 57 17 25 30 52 30 61 0 9 5 16 10 16 6 0 15 11 20 25 11 28 42 45 48
27 2 -7 8 -9 13 -6 6 3 -2 17 -16 30 l-26 24 25 12 c28 12 33 23 15 33 -6 5
-3 13 10 22 12 8 33 37 46 64 14 27 31 49 38 49 21 0 55 42 61 75 4 17 3 24 0
18 -3 -7 -13 -13 -21 -13 -9 0 -13 -6 -10 -14 6 -16 -40 -52 -51 -40 -4 4 -1
9 6 11 6 3 12 9 12 14 0 5 18 28 41 50 24 23 59 77 85 130 26 54 50 89 59 89
21 0 19 16 -2 25 -17 6 -17 7 1 20 10 8 15 18 11 24 -3 6 -2 11 4 11 5 0 13
-4 16 -10 11 -18 25 -10 25 14 0 15 -7 26 -17 29 -15 3 -13 6 9 15 14 6 29 16
33 21 3 6 19 11 36 11 18 0 29 5 29 14 0 9 -8 12 -24 9 -34 -7 -41 13 -11 33
14 9 25 22 25 29 0 7 7 18 15 25 8 7 15 23 15 36 0 13 9 28 21 34 16 9 18 14
8 26 -9 11 -8 14 5 14 9 0 16 4 16 9 0 6 14 30 30 54 17 25 30 50 30 56 0 14
14 32 53 71 23 22 25 28 14 33 -22 8 -10 42 25 75 16 15 40 48 53 73 13 26 33
49 44 52 22 5 71 77 63 92 -3 5 -7 4 -10 -3 -5 -15 -32 -16 -32 -2 0 6 6 13
14 16 8 3 12 12 9 20 -4 10 0 12 13 8 16 -6 17 -5 7 7 -15 15 -17 39 -4 39 5
0 11 -8 13 -17 2 -10 21 20 46 70 23 48 47 87 52 87 6 0 8 11 4 24 -5 20 0 27
26 41 22 12 31 22 27 34 -3 12 7 29 25 46 16 15 32 40 35 56 3 15 14 36 24 45
11 9 19 27 19 39 0 12 14 37 30 55 17 18 30 37 30 41 0 5 14 31 30 59 17 28
30 58 30 66 0 19 30 30 40 15 5 -10 9 -9 13 3 3 8 1 16 -5 18 -7 3 -5 14 7 31
15 24 16 27 1 21 -20 -8 -21 14 -2 39 17 22 26 22 26 -3 0 -11 5 -20 11 -20 6
0 9 15 8 34 -2 21 3 42 12 53 9 10 28 40 43 67 16 31 23 53 17 59 -13 13 18
47 37 40 12 -5 12 -7 -2 -15 -20 -11 -21 -28 -1 -28 8 0 15 6 15 14 0 8 7 22
16 30 14 15 14 16 0 16 -9 0 -16 2 -16 5 0 9 25 49 36 60 7 5 31 47 54 93 23
45 46 82 51 82 5 0 7 11 3 25 -5 20 -1 27 20 36 16 8 34 30 46 56 10 24 24 43
29 43 19 0 12 30 -6 31 -11 0 -13 3 -5 6 7 3 26 0 42 -6 19 -6 30 -6 30 0 0 5
-7 12 -15 15 -8 4 -15 15 -15 25 0 11 7 22 15 25 8 4 15 17 15 30 0 15 6 24
15 24 8 0 15 5 15 10 0 6 8 11 18 11 16 1 16 2 0 6 -21 5 -24 29 -4 40 7 4 26
28 41 53 18 28 24 45 16 48 -6 2 -11 8 -11 13 0 14 28 11 33 -3 2 -7 8 -10 12
-6 4 4 2 14 -4 22 -10 12 -8 16 7 20 11 4 22 14 26 24 3 9 11 25 18 35 9 13
10 20 2 25 -7 4 -8 15 -3 27 8 19 8 19 15 -2 10 -35 26 -27 23 11 -2 21 3 42
13 53 8 10 24 34 33 53 10 19 36 50 58 69 l40 35 -27 23 c-23 19 -24 23 -9 23
11 0 24 -5 31 -12 6 -6 15 -9 19 -5 3 4 -2 14 -13 21 -18 14 -18 15 -1 22 11
4 16 13 13 21 -4 8 3 22 14 31 10 10 33 45 50 80 17 34 35 62 41 62 7 0 9 10
5 23 -4 18 1 29 24 46 25 18 29 27 24 48 -5 18 -3 24 4 19 7 -4 24 6 39 23 31
32 39 36 48 21z m-295 -449 c0 -5 -7 -12 -16 -15 -24 -9 -28 -7 -14 9 14 17
30 20 30 6z m-930 -1601 c0 -5 -4 -10 -9 -10 -6 0 -13 5 -16 10 -3 6 1 10 9
10 9 0 16 -4 16 -10z m-346 -629 c6 -10 -43 -46 -51 -38 -5 6 28 47 39 47 4 0
9 -4 12 -9z m-594 -1021 c0 -5 -4 -10 -10 -10 -5 0 -10 5 -10 10 0 6 5 10 10
10 6 0 10 -4 10 -10z m1410 -320 c0 -5 -4 -10 -10 -10 -5 0 -10 5 -10 10 0 6
5 10 10 10 6 0 10 -4 10 -10z m-677 -715 c-3 -8 -9 -15 -14 -15 -10 0 -12 24
-3 33 11 11 24 -3 17 -18z m-1419 -184 c6 -10 -43 -46 -51 -38 -5 6 28 47 39
47 4 0 9 -4 12 -9z m1016 -261 c0 -5 -4 -10 -10 -10 -5 0 -10 5 -10 10 0 6 5
10 10 10 6 0 10 -4 10 -10z m-1210 -1270 c0 -5 -9 -14 -20 -20 -22 -12 -23
-10 -14 14 7 17 34 22 34 6z m-1380 -1200 c0 -5 -4 -10 -10 -10 -5 0 -10 5
-10 10 0 6 5 10 10 10 6 0 10 -4 10 -10z m190 -90 c0 -5 -4 -10 -10 -10 -5 0
-10 5 -10 10 0 6 5 10 10 10 6 0 10 -4 10 -10z m-490 -485 c0 -12 -29 -3 -34
10 -4 13 -2 14 14 5 11 -6 20 -13 20 -15z m-40 -48 c-14 -8 -27 -12 -30 -10
-7 6 23 23 40 23 8 0 4 -6 -10 -13z m-56 -46 c-10 -10 -21 -17 -23 -15 -6 6
20 34 32 34 6 0 2 -8 -9 -19z"/>
<path d="M4915 10167 c-4 -10 -3 -23 4 -30 16 -16 26 0 14 25 -10 21 -11 22
-18 5z"/>
<path d="M4760 9946 c0 -9 30 -14 35 -6 4 6 -3 10 -14 10 -12 0 -21 -2 -21 -4z"/>
<path d="M4435 9291 c-3 -5 -1 -12 5 -16 5 -3 10 1 10 9 0 18 -6 21 -15 7z"/>
<path d="M4253 8995 c-3 -9 -3 -18 0 -21 9 -9 27 6 27 22 0 19 -19 18 -27 -1z"/>
<path d="M5113 8904 c-3 -8 -1 -20 6 -27 8 -8 11 -4 11 16 0 30 -7 35 -17 11z"/>
<path d="M4120 8826 c0 -9 30 -14 35 -6 4 6 -3 10 -14 10 -12 0 -21 -2 -21 -4z"/>
<path d="M5137 8815 c-4 -8 -2 -17 3 -20 6 -4 10 3 10 14 0 25 -6 27 -13 6z"/>
<path d="M5116 8721 c-4 -5 -2 -20 3 -33 9 -21 10 -21 10 10 1 32 -3 39 -13
23z"/>
<path d="M3812 8309 c2 -6 8 -10 13 -10 5 0 11 4 13 10 2 6 -4 11 -13 11 -9 0
-15 -5 -13 -11z"/>
<path d="M3800 8160 c0 -5 5 -10 10 -10 6 0 10 5 10 10 0 6 -4 10 -10 10 -5 0
-10 -4 -10 -10z"/>
<path d="M3660 7984 c0 -8 5 -12 10 -9 6 4 8 11 5 16 -9 14 -15 11 -15 -7z"/>
<path d="M3655 7929 c-10 -15 3 -25 16 -12 7 7 7 13 1 17 -6 3 -14 1 -17 -5z"/>
<path d="M3637 7893 c-4 -3 -7 -11 -7 -17 0 -6 5 -5 12 2 6 6 9 14 7 17 -3 3
-9 2 -12 -2z"/>
<path d="M4976 7865 c-3 -10 -2 -23 4 -29 15 -15 24 1 13 26 -9 20 -10 20 -17
3z"/>
<path d="M4962 7720 c0 -14 2 -19 5 -12 2 6 2 18 0 25 -3 6 -5 1 -5 -13z"/>
<path d="M3480 7711 c0 -11 26 -22 34 -14 3 3 3 10 0 14 -7 12 -34 11 -34 0z"/>
<path d="M4795 7330 c-3 -5 3 -10 14 -10 12 0 21 5 21 10 0 6 -6 10 -14 10 -8
0 -18 -4 -21 -10z"/>
<path d="M3135 7071 c-3 -5 -1 -12 5 -16 5 -3 10 1 10 9 0 18 -6 21 -15 7z"/>
<path d="M4500 7003 c8 -3 19 -11 23 -17 6 -7 7 -6 4 4 -2 8 -12 16 -23 17
-13 2 -15 1 -4 -4z"/>
<path d="M3020 6866 c0 -9 5 -16 10 -16 6 0 10 4 10 9 0 6 -4 13 -10 16 -5 3
-10 -1 -10 -9z"/>
<path d="M4330 6851 c0 -6 5 -11 10 -11 14 0 12 -28 -2 -33 -7 -2 -10 -8 -5
-13 4 -4 15 0 25 9 12 13 14 21 6 34 -13 20 -34 29 -34 14z"/>
<path d="M3016 6811 c-4 -5 -2 -12 3 -15 5 -4 12 -2 15 3 4 5 2 12 -3 15 -5 4
-12 2 -15 -3z"/>
<path d="M2993 6773 c-18 -7 -16 -23 2 -23 8 0 15 7 15 15 0 8 -1 15 -2 14 -2
0 -9 -3 -15 -6z"/>
<path d="M3020 6724 c0 -8 5 -12 10 -9 6 4 8 11 5 16 -9 14 -15 11 -15 -7z"/>
<path d="M4154 6699 c-3 -6 -2 -15 4 -21 6 -6 11 -2 15 11 5 22 -7 29 -19 10z"/>
<path d="M2855 6600 c4 -6 11 -8 16 -5 14 9 11 15 -7 15 -8 0 -12 -5 -9 -10z"/>
<path d="M4017 6523 c-10 -9 -9 -23 2 -23 5 0 11 7 15 15 5 15 -5 20 -17 8z"/>
<path d="M3860 6384 c0 -8 5 -12 10 -9 6 4 8 11 5 16 -9 14 -15 11 -15 -7z"/>
<path d="M3890 6340 c0 -5 7 -10 15 -10 8 0 15 5 15 10 0 6 -7 10 -15 10 -8 0
-15 -4 -15 -10z"/>
<path d="M2540 6010 c0 -5 5 -10 10 -10 6 0 10 5 10 10 0 6 -4 10 -10 10 -5 0
-10 -4 -10 -10z"/>
<path d="M2515 5949 c-10 -15 3 -25 16 -12 7 7 7 13 1 17 -6 3 -14 1 -17 -5z"/>
<path d="M2380 5684 c0 -8 5 -12 10 -9 6 4 8 11 5 16 -9 14 -15 11 -15 -7z"/>
<path d="M2350 5650 c-8 -5 -11 -12 -7 -16 4 -4 13 -2 19 4 15 15 7 24 -12 12z"/>
<path d="M2380 5604 c0 -8 5 -12 10 -9 6 4 8 11 5 16 -9 14 -15 11 -15 -7z"/>
<path d="M2586 4941 c-11 -12 -14 -21 -7 -26 6 -3 11 0 11 9 0 8 6 16 13 19 6
2 9 7 6 11 -3 3 -14 -2 -23 -13z"/>
<path d="M1840 4800 c0 -5 5 -10 10 -10 6 0 10 5 10 10 0 6 -4 10 -10 10 -5 0
-10 -4 -10 -10z"/>
<path d="M2390 4715 c0 -8 7 -15 15 -15 8 0 15 7 15 15 0 8 -7 15 -15 15 -8 0
-15 -7 -15 -15z"/>
<path d="M2242 4620 c-14 -23 -5 -26 20 -6 10 7 15 16 11 19 -10 11 -18 8 -31
-13z"/>
<path d="M2094 4429 c-3 -6 -1 -16 5 -22 8 -8 11 -5 11 11 0 24 -5 28 -16 11z"/>
<path d="M1945 4259 c-4 -6 -5 -13 -2 -16 7 -7 27 6 27 18 0 12 -17 12 -25 -2z"/>
<path d="M1772 4140 c-8 -13 -8 -20 -2 -20 6 0 13 7 17 15 9 24 -1 27 -15 5z"/>
<path d="M1812 4108 c-18 -18 -14 -27 8 -21 21 6 26 18 12 27 -5 3 -14 0 -20
-6z"/>
<path d="M1413 4093 c-15 -5 -18 -33 -4 -33 13 0 33 28 24 33 -4 2 -14 2 -20
0z"/>
<path d="M1620 3955 c0 -8 2 -15 4 -15 2 0 6 7 10 15 3 8 1 15 -4 15 -6 0 -10
-7 -10 -15z"/>
<path d="M1200 3680 c0 -5 4 -10 9 -10 6 0 13 5 16 10 3 6 -1 10 -9 10 -9 0
-16 -4 -16 -10z"/>
<path d="M1097 3473 c-3 -5 -2 -15 2 -22 7 -10 10 -10 16 -1 4 6 3 16 -3 22
-5 5 -12 6 -15 1z"/>
<path d="M5850 11836 c0 -14 4 -27 9 -30 5 -3 11 -23 14 -43 2 -21 14 -92 26
-158 25 -141 34 -194 62 -375 46 -301 60 -388 69 -445 54 -344 57 -360 80
-510 11 -71 21 -138 45 -290 9 -55 23 -143 31 -195 8 -52 19 -123 24 -157 6
-35 15 -92 20 -128 6 -36 15 -95 20 -132 6 -38 15 -93 20 -123 11 -69 24 -147
50 -320 45 -289 60 -387 70 -440 5 -30 19 -118 30 -195 11 -77 29 -194 40
-260 18 -116 49 -313 86 -555 l18 -115 140 -151 c78 -82 299 -318 491 -523
193 -205 388 -414 434 -465 47 -50 146 -156 221 -236 75 -80 210 -224 300
-320 90 -96 223 -238 295 -315 72 -77 228 -243 346 -369 117 -126 279 -299
359 -383 80 -85 192 -206 250 -268 58 -62 193 -207 300 -321 107 -114 231
-246 274 -293 99 -107 330 -352 456 -486 120 -127 608 -649 717 -767 46 -50
111 -123 145 -164 60 -71 88 -90 88 -60 0 8 -4 16 -8 18 -9 3 -92 123 -92 132
0 2 -22 40 -48 83 -27 43 -60 98 -74 123 -29 52 -213 374 -252 440 -14 25 -46
81 -71 125 -25 44 -50 87 -55 95 -9 14 -438 765 -498 870 -14 25 -68 119 -120
210 -52 91 -108 190 -125 220 -16 30 -38 67 -49 82 -10 14 -18 29 -18 32 0 4
-18 36 -40 72 -22 36 -40 67 -40 69 0 2 -50 90 -111 196 -61 107 -123 214
-137 239 -14 25 -50 88 -80 140 -30 52 -66 115 -80 140 -13 25 -28 50 -32 55
-4 6 -28 46 -52 90 -86 154 -101 181 -156 275 -60 102 -196 340 -245 430 -16
30 -38 66 -47 80 -9 14 -34 57 -56 95 -21 39 -48 86 -59 106 -35 63 -426 743
-436 759 -10 17 -219 382 -257 450 -14 25 -50 88 -80 140 -30 52 -66 115 -80
140 -14 25 -122 214 -240 420 -118 206 -228 400 -245 430 -16 30 -38 67 -49
82 -10 14 -18 29 -18 32 0 4 -18 36 -40 72 -22 36 -40 67 -40 69 0 2 -104 185
-231 407 -128 221 -245 428 -262 458 -17 30 -38 67 -49 82 -10 14 -18 29 -18
32 0 3 -14 29 -31 58 -18 29 -39 67 -49 83 -9 17 -45 80 -80 140 -34 61 -71
125 -82 144 -11 19 -64 112 -119 208 -55 96 -112 195 -126 221 -14 26 -37 64
-50 84 -12 21 -23 40 -23 42 0 5 -93 168 -155 271 -23 39 -61 106 -85 150 -24
44 -53 99 -66 123 -13 23 -24 49 -24 56 0 13 -31 46 -43 46 -4 0 -7 -11 -7
-24z m228 -548 c18 -20 21 -28 11 -28 -8 0 -20 -15 -28 -32 -7 -18 -15 -28
-18 -21 -2 6 3 22 11 35 14 21 14 27 1 52 -8 16 -14 36 -14 45 1 11 3 10 6 -4
3 -11 17 -32 31 -47z m42 -48 c-10 -6 -7 -21 15 -62 15 -29 33 -60 40 -68 7
-8 21 -31 30 -50 10 -19 25 -40 34 -47 13 -10 14 -15 4 -32 -8 -13 -9 -22 -3
-26 6 -3 10 1 10 9 0 18 16 21 25 5 4 -5 -1 -19 -10 -29 -22 -24 -1 -38 25
-15 10 9 21 12 24 7 3 -5 -3 -17 -14 -27 -24 -22 -26 -35 -5 -35 8 0 15 5 15
10 0 6 5 10 11 10 6 0 8 -7 5 -16 -6 -16 53 -134 85 -170 15 -15 16 -23 7 -32
-9 -9 -1 -21 33 -53 27 -25 39 -43 32 -46 -17 -6 -16 -23 1 -23 8 0 26 -24 41
-52 15 -29 36 -61 47 -72 15 -14 17 -21 8 -26 -7 -4 -9 -13 -5 -19 5 -9 10 -9
21 0 11 9 14 8 14 -9 0 -11 7 -22 15 -26 8 -3 15 -12 15 -21 0 -8 -7 -15 -15
-15 -8 0 -15 4 -15 8 0 5 -6 16 -13 27 -9 11 -16 14 -20 8 -4 -6 2 -20 13 -33
10 -12 21 -27 24 -33 3 -9 7 -8 14 2 6 8 17 11 28 7 13 -5 15 -9 6 -18 -16
-16 -15 -28 3 -28 8 0 17 -14 21 -35 5 -31 9 -34 30 -29 15 4 24 2 24 -5 0 -6
-7 -11 -16 -11 -14 0 -15 -2 -3 -17 11 -12 11 -17 2 -20 -10 -4 -9 -8 1 -19 8
-8 19 -14 25 -14 6 0 11 -6 12 -12 0 -7 13 -33 29 -58 16 -25 39 -64 51 -87
15 -28 26 -40 37 -36 11 5 13 1 8 -14 -5 -15 2 -30 25 -54 27 -29 29 -36 19
-57 -6 -14 -8 -27 -5 -30 3 -4 15 0 26 7 12 7 24 10 27 6 4 -3 1 -10 -6 -14
-13 -8 -9 -19 43 -110 6 -10 16 -16 23 -13 6 2 12 -1 12 -7 0 -6 -5 -11 -12
-11 -6 0 -3 -9 8 -21 10 -12 18 -30 16 -40 -2 -12 3 -19 12 -19 9 0 16 -8 16
-19 0 -10 10 -26 23 -34 18 -14 20 -18 7 -26 -8 -5 -11 -14 -6 -18 5 -4 11 -2
13 5 5 14 33 17 33 3 0 -5 -6 -11 -12 -13 -9 -3 -7 -13 7 -34 11 -16 18 -35
17 -42 -2 -8 5 -11 20 -9 13 2 17 2 11 0 -7 -3 -13 -13 -13 -24 0 -16 5 -18
25 -13 l26 6 -17 -35 c-13 -26 -14 -39 -6 -53 10 -17 11 -15 12 14 0 17 5 32
10 32 6 0 10 -8 10 -19 0 -10 11 -30 25 -45 25 -27 33 -56 15 -56 -5 0 -14 9
-20 20 -6 11 -17 20 -26 20 -24 0 3 -41 35 -53 31 -11 71 -66 71 -97 0 -13 9
-22 27 -26 23 -6 24 -9 10 -19 -14 -10 -14 -12 3 -23 10 -6 25 -22 32 -36 7
-14 28 -54 47 -90 19 -36 38 -63 42 -60 5 3 6 -3 2 -12 -4 -10 0 -20 11 -26
13 -7 16 -17 11 -38 -7 -33 13 -53 22 -21 7 29 23 26 23 -4 0 -14 7 -28 16
-32 8 -3 13 -12 10 -20 -3 -7 9 -40 26 -72 22 -40 36 -57 46 -53 11 4 13 0 8
-15 -4 -12 -1 -25 8 -32 14 -12 11 -51 -5 -51 -5 0 -9 -5 -9 -12 0 -9 3 -9 12
0 19 19 38 14 38 -9 0 -12 8 -23 20 -26 22 -6 27 -29 8 -36 -8 -2 -9 -8 -4
-13 5 -5 11 -4 13 4 3 6 9 12 15 12 6 0 7 -7 4 -15 -3 -9 5 -34 19 -55 14 -22
25 -46 25 -54 0 -8 7 -19 17 -24 12 -7 15 -18 10 -46 -3 -19 -1 -38 4 -41 5
-4 9 10 9 29 0 43 15 48 23 7 3 -15 17 -42 31 -59 15 -16 26 -37 26 -46 0 -21
32 -86 42 -86 4 0 8 -6 8 -14 0 -8 10 -22 22 -30 l22 -15 -24 -9 -24 -9 25 -6
c13 -3 30 -19 37 -34 7 -15 18 -37 25 -48 7 -11 25 -44 41 -72 21 -38 35 -53
50 -53 16 0 18 -2 7 -9 -18 -12 -6 -42 14 -35 8 3 15 1 15 -5 0 -6 -10 -12
-22 -12 -21 -1 -21 -2 -3 -6 31 -8 57 -35 51 -55 -2 -10 11 -44 30 -75 19 -31
34 -60 34 -65 0 -4 7 -5 16 -1 12 4 14 0 9 -23 -3 -16 -2 -23 1 -16 3 6 10 12
15 12 14 0 11 -27 -3 -34 -7 -3 -3 -3 10 0 23 6 23 5 8 -25 -20 -37 -20 -42
-1 -35 9 4 15 0 15 -9 0 -8 7 -17 15 -21 20 -7 19 -26 -2 -26 -13 0 -14 -3 -5
-12 8 -8 15 -8 27 2 8 7 16 9 16 4 1 -5 2 -13 3 -19 1 -5 14 -35 30 -65 16
-30 31 -49 33 -42 3 6 9 12 15 12 7 0 8 -16 5 -42 -3 -24 -4 -37 -1 -30 8 19
24 14 24 -7 0 -11 16 -38 35 -61 37 -44 45 -61 20 -40 -12 10 -19 10 -27 2 -9
-9 -8 -12 3 -12 20 0 74 -71 71 -93 -3 -13 6 -22 28 -30 26 -10 31 -16 27 -37
-4 -16 3 -36 17 -55 12 -16 37 -59 56 -95 18 -36 37 -66 42 -68 4 -2 8 -10 8
-18 0 -8 9 -14 20 -14 11 0 20 -4 20 -10 0 -5 -11 -10 -25 -10 -14 0 -25 -5
-25 -11 0 -7 12 -10 30 -7 19 3 30 0 30 -8 0 -6 -9 -14 -20 -17 -11 -3 -20
-10 -20 -17 0 -6 4 -8 10 -5 19 12 57 -26 85 -84 15 -33 33 -58 39 -57 6 2 8
1 4 -1 -15 -9 -8 -28 15 -38 12 -6 22 -19 23 -30 1 -28 21 -64 51 -91 14 -13
22 -27 19 -33 -8 -13 45 -101 61 -101 7 0 13 -4 13 -10 0 -5 -6 -10 -12 -10
-9 0 -9 -3 1 -9 12 -8 12 -12 2 -25 -11 -13 -11 -16 3 -16 9 0 16 7 16 15 0 8
5 15 10 15 6 0 10 -14 10 -32 0 -19 9 -41 22 -55 21 -22 21 -23 3 -43 -18 -19
-18 -20 2 -20 22 0 66 -53 73 -90 3 -14 17 -30 33 -38 23 -11 26 -17 21 -39
-6 -22 -4 -25 10 -20 9 4 15 3 12 -2 -5 -7 22 -65 72 -156 10 -16 24 -35 32
-42 13 -11 13 -14 0 -23 -11 -7 -6 -8 20 -4 31 5 33 4 18 -9 -11 -9 -15 -21
-11 -38 10 -43 37 -64 46 -36 2 6 3 3 1 -9 -2 -11 12 -44 32 -74 20 -31 35
-66 36 -86 1 -39 13 -44 22 -11 l7 22 10 -25 c7 -17 7 -26 -1 -28 -7 -3 -6
-12 5 -28 9 -15 14 -34 10 -47 -5 -16 -4 -18 3 -8 15 21 42 6 35 -18 -3 -12
-1 -21 4 -21 6 0 18 -16 29 -35 14 -26 23 -34 39 -30 11 3 14 2 8 -1 -19 -8
-16 -34 3 -34 13 0 14 -3 5 -14 -10 -12 -8 -17 8 -26 14 -7 21 -21 21 -40 0
-16 8 -34 18 -42 17 -12 33 -37 63 -101 8 -17 18 -26 27 -22 10 3 12 0 9 -10
-4 -8 -2 -17 3 -20 6 -4 10 -15 10 -25 0 -10 9 -22 21 -25 16 -5 19 -12 15
-31 -4 -14 -2 -24 4 -24 6 0 27 -34 47 -75 21 -42 42 -74 48 -71 6 2 16 -7 22
-21 9 -19 9 -25 -3 -30 -7 -3 -11 -9 -8 -14 3 -5 10 -7 15 -3 10 6 59 -40 59
-56 0 -4 6 -10 13 -13 6 -2 8 -8 4 -13 -4 -5 -11 -4 -15 2 -4 6 -15 13 -24 17
-11 4 -15 12 -12 22 4 10 0 15 -10 15 -9 0 -16 -6 -16 -14 0 -14 47 -66 61
-66 4 0 18 -21 31 -46 12 -25 34 -55 48 -66 16 -14 21 -22 13 -25 -18 -6 -16
-33 1 -33 8 0 17 8 20 18 3 11 5 8 4 -8 -1 -65 1 -72 21 -67 16 4 18 1 12 -16
-6 -15 0 -27 20 -48 15 -15 32 -44 39 -64 10 -29 16 -35 33 -30 12 2 16 2 10
-1 -19 -9 -16 -34 5 -34 16 -1 16 -1 0 -14 -20 -15 -14 -26 14 -26 13 0 18 -8
18 -29 0 -16 7 -34 15 -41 8 -7 15 -19 15 -26 0 -8 11 -20 25 -26 36 -16 32
-38 -7 -40 l-33 -1 32 -4 c19 -3 37 -12 43 -23 6 -11 17 -17 25 -14 9 4 15 0
15 -9 0 -8 -6 -17 -12 -20 -19 -7 2 -39 36 -55 23 -12 25 -16 14 -29 -10 -13
-11 -17 0 -21 7 -2 22 -23 34 -45 11 -23 29 -53 39 -66 12 -15 17 -32 13 -47
-5 -19 -1 -24 20 -30 14 -3 26 -12 26 -19 0 -7 16 -29 36 -49 20 -20 33 -40
29 -44 -4 -4 -10 -1 -12 6 -3 6 -11 12 -19 12 -8 0 -14 7 -14 15 0 8 -7 15
-15 15 -20 0 -19 -20 2 -36 25 -17 11 -27 -20 -15 -16 6 -25 16 -22 23 3 8 -1
22 -10 33 -13 17 -16 18 -25 5 -7 -11 -8 -7 -4 17 6 29 4 31 -15 26 -12 -3
-21 -1 -21 6 0 5 -7 8 -15 5 -8 -4 -15 -1 -15 5 0 6 5 11 11 11 6 0 -3 13 -19
30 -17 16 -38 30 -47 30 -16 0 -16 2 -1 25 13 19 14 30 6 45 -6 11 -18 19 -28
19 -16 -1 -16 -2 1 -6 9 -2 17 -13 17 -24 0 -23 -18 -25 -26 -4 -5 12 -9 13
-20 4 -8 -7 -18 -9 -21 -5 -4 4 -2 11 6 15 11 7 11 12 0 30 -8 11 -19 21 -26
21 -6 0 -20 11 -30 24 -10 13 -29 27 -42 31 -17 5 -20 9 -11 15 7 4 9 13 5 19
-5 9 -11 9 -22 0 -12 -11 -14 -10 -12 2 2 7 -20 39 -49 69 -28 30 -52 61 -52
68 0 6 -4 12 -10 12 -5 0 -13 12 -16 26 -5 19 -9 22 -15 13 -6 -11 -11 -11
-20 -2 -6 6 -17 10 -23 9 -6 -2 -8 -1 -3 1 10 6 9 33 -2 33 -5 0 -19 16 -32
35 -19 28 -29 33 -49 29 -23 -5 -23 -4 -8 9 10 8 15 17 11 20 -11 12 -41 8
-46 -5 -3 -7 -3 2 0 20 5 28 3 32 -16 32 -11 0 -21 5 -21 11 0 18 -63 84 -77
81 -16 -4 -17 25 -1 30 7 3 9 11 3 24 -7 17 -8 17 -12 2 -3 -10 -13 -18 -24
-18 -23 0 -25 18 -4 26 8 4 15 10 15 15 0 5 -7 9 -15 9 -8 0 -15 -4 -15 -10 0
-5 -5 -10 -11 -10 -6 0 -8 8 -6 18 3 12 -13 33 -53 67 -39 34 -59 58 -60 75
-1 14 -4 19 -7 13 -5 -14 -33 -18 -33 -5 0 4 5 13 12 20 9 9 7 12 -10 12 -13
0 -34 17 -57 46 -19 26 -35 42 -35 35 0 -6 -4 -11 -10 -11 -14 0 -12 27 3 34
6 4 2 4 -10 2 -16 -3 -23 1 -23 12 0 21 -107 132 -123 128 -7 -1 -9 -1 -4 1
10 6 9 33 -2 33 -13 0 -145 138 -149 156 -2 10 -10 13 -23 9 -14 -5 -19 -2
-19 12 0 19 -115 143 -132 143 -6 0 -8 7 -5 14 4 9 -2 17 -14 21 -10 4 -19 12
-19 19 0 12 -6 18 -57 66 -28 24 -29 37 -5 43 13 4 11 5 -5 6 -13 0 -23 -3
-23 -9 0 -5 -9 -10 -20 -10 -11 0 -20 7 -20 15 0 8 5 15 11 15 5 0 7 5 3 12
-6 9 -9 9 -12 0 -7 -22 -19 -12 -19 16 0 38 -54 97 -82 89 -12 -3 -19 -1 -16
3 3 5 -7 18 -22 30 -22 17 -24 23 -13 30 8 5 11 12 7 16 -4 4 -13 2 -19 -4
-21 -21 -27 -13 -17 18 6 17 16 30 22 30 6 0 8 3 4 6 -3 3 -19 -3 -36 -15 -19
-14 -32 -18 -36 -11 -4 6 1 20 10 30 9 10 12 21 7 24 -5 3 -15 -1 -22 -9 -20
-24 -30 -17 -24 14 6 26 4 29 -15 24 -15 -4 -21 -1 -21 11 0 9 -6 16 -14 16
-7 0 -26 18 -40 39 -15 22 -34 42 -42 45 -19 7 -18 26 1 26 8 0 15 4 15 10 0
5 -7 7 -15 4 -8 -4 -17 1 -21 10 -9 23 -27 20 -19 -4 4 -11 2 -20 -4 -20 -6 0
-11 9 -11 20 0 11 -9 25 -19 32 -15 9 -17 15 -8 30 9 13 8 21 -1 30 -9 9 -12
8 -12 -5 0 -9 -3 -17 -6 -17 -12 0 -54 51 -54 66 0 8 -8 18 -17 21 -27 10 -62
56 -63 80 0 14 -9 24 -30 32 -16 5 -30 16 -31 23 0 14 -92 88 -109 88 -14 0
-13 23 2 38 8 8 9 12 1 12 -6 0 -14 -6 -17 -12 -3 -9 -9 -8 -20 6 -8 10 -19
15 -25 12 -12 -8 -24 11 -16 25 5 7 14 4 26 -7 11 -9 22 -14 27 -10 4 4 -1 13
-11 20 -9 7 -17 18 -17 25 0 6 -7 11 -15 11 -8 0 -15 -7 -15 -15 0 -9 -6 -12
-16 -8 -8 3 -13 12 -10 19 5 14 -39 64 -81 91 -29 19 -30 39 -1 47 19 4 20 8
10 18 -11 11 -16 10 -26 -4 -14 -20 -36 -24 -36 -8 0 5 -16 27 -35 49 -19 21
-35 41 -35 45 0 9 -20 33 -50 59 -14 12 -44 41 -67 64 -24 25 -43 37 -46 30
-2 -7 -7 -9 -11 -5 -4 3 -2 15 5 27 15 23 3 43 -12 21 -8 -13 -13 -11 -31 10
-11 14 -25 24 -30 22 -5 -1 -8 4 -6 12 2 8 -25 44 -59 79 -35 36 -63 67 -63
70 0 12 -116 117 -130 117 -13 0 -13 2 0 10 11 7 -2 24 -63 83 -42 40 -77 79
-77 85 0 7 -7 12 -15 12 -8 0 -15 4 -15 8 0 14 -153 162 -167 162 -7 0 -13 5
-13 10 0 6 6 10 12 10 7 0 -16 27 -50 60 -34 34 -67 58 -73 54 -8 -4 -9 1 -4
16 6 19 4 21 -15 15 -19 -6 -21 -4 -16 13 5 15 -3 28 -36 56 -24 19 -52 48
-62 64 -11 17 -26 28 -33 25 -8 -3 -13 2 -13 15 0 11 -7 25 -16 33 -11 9 -14
22 -10 42 5 25 3 29 -12 25 -16 -5 -19 2 -20 64 0 38 -5 75 -10 81 -5 7 -12
39 -16 72 -5 59 -13 110 -36 250 -6 39 -14 91 -17 118 -3 26 -10 50 -14 53 -5
3 -4 14 2 25 12 24 2 41 -11 19 -5 -8 -12 -11 -16 -7 -4 3 -1 13 6 22 19 22 8
112 -16 129 -16 12 -16 16 -5 30 8 9 11 19 8 23 -4 3 -2 12 3 18 7 9 7 21 0
39 -5 15 -10 41 -10 57 0 16 -4 29 -9 29 -10 0 -21 38 -27 95 -2 22 -9 74 -15
115 -6 41 -14 102 -19 135 -5 33 -16 98 -24 145 -9 47 -16 98 -16 113 0 16 -7
35 -15 43 -8 9 -15 22 -15 30 0 8 7 14 15 14 8 0 15 9 15 20 0 11 -4 20 -10
20 -5 0 -10 9 -10 20 0 11 -5 20 -11 20 -8 0 -10 16 -6 49 4 38 2 51 -9 55
-17 6 -19 37 -2 54 7 7 8 15 1 24 -6 7 -15 49 -22 93 -7 44 -16 103 -21 130
-19 102 -34 207 -46 315 -6 60 -24 110 -38 110 -4 0 -3 6 3 14 9 11 9 19 -1
35 -10 17 -10 25 0 41 16 27 15 50 -4 71 -9 10 -20 35 -25 56 -30 138 -30 137
-14 176 15 38 15 38 -6 32 -19 -6 -20 -5 -9 15 7 14 8 26 2 33 -5 7 -12 37
-16 67 -3 30 -10 82 -15 115 -5 33 -15 94 -21 135 -18 120 -29 182 -39 229 -9
43 -1 93 21 138 6 12 15 20 21 16 5 -3 4 -9 -3 -13z m340 -580 c0 -5 -7 -10
-15 -10 -8 0 -15 5 -15 10 0 6 7 10 15 10 8 0 15 -4 15 -10z m-240 -455 c0 -8
-4 -15 -10 -15 -5 0 -10 7 -10 15 0 8 5 15 10 15 6 0 10 -7 10 -15z m550 -85
c0 -5 -4 -10 -9 -10 -6 0 -13 5 -16 10 -3 6 1 10 9 10 9 0 16 -4 16 -10z
m1630 -2840 c0 -5 -4 -10 -10 -10 -5 0 -10 5 -10 10 0 6 5 10 10 10 6 0 10 -4
10 -10z m-612 -1098 c2 -7 -2 -10 -12 -6 -9 3 -16 11 -16 16 0 13 23 5 28 -10z
m1262 -33 c0 -6 -4 -7 -10 -4 -5 3 -10 11 -10 16 0 6 5 7 10 4 6 -3 10 -11 10
-16z m-750 -489 c0 -11 -4 -20 -9 -20 -11 0 -22 26 -14 34 12 12 23 5 23 -14z
m1150 -220 c0 -5 -4 -10 -10 -10 -5 0 -10 5 -10 10 0 6 5 10 10 10 6 0 10 -4
10 -10z m70 -120 c0 -5 -7 -7 -15 -4 -8 4 -15 8 -15 10 0 2 7 4 15 4 8 0 15
-4 15 -10z m-636 -290 c8 -16 12 -30 9 -30 -11 0 -42 43 -37 51 3 5 7 9 9 9 2
0 10 -13 19 -30z m796 9 c11 -19 10 -20 -9 -9 -22 11 -29 30 -11 30 5 0 14 -9
20 -21z m45 -79 c-3 -5 -10 -10 -16 -10 -5 0 -9 5 -9 10 0 6 7 10 16 10 8 0
12 -4 9 -10z m-445 -370 c0 -5 -4 -10 -10 -10 -5 0 -10 5 -10 10 0 6 5 10 10
10 6 0 10 -4 10 -10z m1330 -1170 c0 -5 -4 -10 -10 -10 -5 0 -10 5 -10 10 0 6
5 10 10 10 6 0 10 -4 10 -10z m210 -390 c0 -5 -8 -10 -17 -10 -15 0 -16 2 -3
10 19 12 20 12 20 0z m-40 -15 c0 -8 6 -15 14 -15 18 0 30 -17 17 -24 -5 -4
-16 1 -24 9 -9 8 -20 15 -26 15 -6 0 -8 7 -5 15 4 8 10 15 15 15 5 0 9 -7 9
-15z"/>
<path d="M6230 10891 c0 -6 5 -13 10 -16 6 -3 10 1 10 9 0 9 -4 16 -10 16 -5
0 -10 -4 -10 -9z"/>
<path d="M6435 10580 c3 -5 10 -10 16 -10 5 0 9 5 9 10 0 6 -7 10 -16 10 -8 0
-12 -4 -9 -10z"/>
<path d="M6212 10440 c-15 -25 -16 -90 -1 -90 8 0 9 11 5 31 -3 18 -1 38 5 45
6 7 9 18 7 24 -2 6 -9 1 -16 -10z"/>
<path d="M6550 10290 c0 -5 5 -10 10 -10 6 0 10 5 10 10 0 6 -4 10 -10 10 -5
0 -10 -4 -10 -10z"/>
<path d="M6875 9809 c-4 -6 -5 -13 -2 -16 7 -7 27 6 27 18 0 12 -17 12 -25 -2z"/>
<path d="M6355 9590 c-3 -5 -1 -18 4 -27 9 -16 10 -14 11 10 0 28 -5 34 -15
17z"/>
<path d="M7030 9521 c0 -6 5 -13 10 -16 6 -3 10 1 10 9 0 9 -4 16 -10 16 -5 0
-10 -4 -10 -9z"/>
<path d="M7190 9155 c0 -8 5 -15 10 -15 6 0 10 7 10 15 0 8 -4 15 -10 15 -5 0
-10 -7 -10 -15z"/>
<path d="M7220 9126 c0 -9 5 -16 10 -16 6 0 10 4 10 9 0 6 -4 13 -10 16 -5 3
-10 -1 -10 -9z"/>
<path d="M7557 8653 c-12 -11 -8 -23 8 -23 8 0 15 7 15 15 0 16 -12 20 -23 8z"/>
<path d="M6540 8465 c0 -8 5 -15 10 -15 6 0 10 7 10 15 0 8 -4 15 -10 15 -5 0
-10 -7 -10 -15z"/>
<path d="M7710 8355 c7 -9 15 -13 17 -11 7 7 -7 26 -19 26 -6 0 -6 -6 2 -15z"/>
<path d="M7881 8070 c0 -21 25 -53 38 -49 6 2 0 18 -14 34 -15 19 -24 24 -24
15z"/>
<path d="M7835 8041 c-3 -5 -1 -12 5 -16 5 -3 10 1 10 9 0 18 -6 21 -15 7z"/>
<path d="M7860 8006 c0 -9 5 -16 10 -16 6 0 10 4 10 9 0 6 -4 13 -10 16 -5 3
-10 -1 -10 -9z"/>
<path d="M8180 7551 c0 -12 29 -35 36 -28 11 10 -5 37 -21 37 -8 0 -15 -4 -15
-9z"/>
<path d="M6680 7506 c0 -15 18 -31 26 -23 7 7 -7 37 -17 37 -5 0 -9 -6 -9 -14z"/>
<path d="M8500 6951 c0 -12 5 -21 10 -21 6 0 10 6 10 14 0 8 -4 18 -10 21 -5
3 -10 -3 -10 -14z"/>
<path d="M8647 6754 c-13 -13 -7 -24 14 -24 11 0 19 5 17 12 -5 14 -22 21 -31
12z"/>
<path d="M7630 6390 c0 -5 5 -10 10 -10 6 0 10 5 10 10 0 6 -4 10 -10 10 -5 0
-10 -4 -10 -10z"/>
<path d="M8955 6211 c-3 -5 -1 -12 5 -16 5 -3 10 1 10 9 0 18 -6 21 -15 7z"/>
<path d="M9020 6080 c0 -5 5 -10 10 -10 6 0 10 5 10 10 0 6 -4 10 -10 10 -5 0
-10 -4 -10 -10z"/>
<path d="M9130 5843 c1 -18 19 -35 29 -28 9 5 9 10 0 21 -12 15 -29 19 -29 7z"/>
<path d="M8288 5734 c13 -9 26 -13 30 -9 8 8 -17 25 -38 25 -9 0 -6 -6 8 -16z"/>
<path d="M8440 5590 c0 -5 5 -10 10 -10 6 0 10 5 10 10 0 6 -4 10 -10 10 -5 0
-10 -4 -10 -10z"/>
<path d="M8425 5550 c10 -11 20 -18 23 -16 5 6 -23 36 -34 36 -4 0 1 -9 11
-20z"/>
<path d="M8580 5382 c0 -5 7 -16 16 -23 14 -12 16 -11 13 5 -4 20 -29 35 -29
18z"/>
<path d="M8620 5340 c0 -5 5 -10 10 -10 6 0 10 5 10 10 0 6 -4 10 -10 10 -5 0
-10 -4 -10 -10z"/>
<path d="M8940 5110 c0 -5 5 -10 10 -10 6 0 10 5 10 10 0 6 -4 10 -10 10 -5 0
-10 -4 -10 -10z"/>
<path d="M8910 5087 c0 -2 9 -14 20 -27 22 -26 27 -15 6 13 -12 15 -26 23 -26
14z"/>
<path d="M9779 4688 c5 -13 16 -25 26 -26 16 -4 16 -2 -1 22 -23 32 -36 33
-25 4z"/>
<path d="M9915 4491 c-3 -5 -1 -12 5 -16 5 -3 10 1 10 9 0 18 -6 21 -15 7z"/>
<path d="M10263 3855 c-9 -24 1 -27 15 -5 8 13 8 20 2 20 -6 0 -13 -7 -17 -15z"/>
<path d="M10360 3495 c0 -8 9 -15 20 -15 11 0 20 2 20 5 0 2 -9 9 -20 15 -16
9 -20 8 -20 -5z"/>
<path d="M10556 3391 c-4 -5 -2 -12 3 -15 5 -4 12 -2 15 3 4 5 2 12 -3 15 -5
4 -12 2 -15 -3z"/>
<path d="M10715 3120 c3 -5 10 -10 16 -10 5 0 9 5 9 10 0 6 -7 10 -16 10 -8 0
-12 -4 -9 -10z"/>
<path d="M5030 10850 c0 -5 5 -10 10 -10 6 0 10 5 10 10 0 6 -4 10 -10 10 -5
0 -10 -4 -10 -10z"/>
<path d="M4795 10511 c-3 -5 -1 -12 5 -16 5 -3 10 1 10 9 0 18 -6 21 -15 7z"/>
<path d="M7100 9900 c0 -5 5 -10 10 -10 6 0 10 5 10 10 0 6 -4 10 -10 10 -5 0
-10 -4 -10 -10z"/>
<path d="M7816 8751 c-4 -5 -2 -12 3 -15 5 -4 12 -2 15 3 4 5 2 12 -3 15 -5 4
-12 2 -15 -3z"/>
<path d="M3675 8631 c-3 -5 -1 -12 5 -16 5 -3 10 1 10 9 0 18 -6 21 -15 7z"/>
<path d="M8105 8130 c-3 -5 1 -10 9 -10 8 0 18 5 21 10 3 6 -1 10 -9 10 -8 0
-18 -4 -21 -10z"/>
<path d="M3110 7490 c0 -5 5 -10 10 -10 6 0 10 5 10 10 0 6 -4 10 -10 10 -5 0
-10 -4 -10 -10z"/>
<path d="M8596 7291 c-4 -5 -2 -12 3 -15 5 -4 12 -2 15 3 4 5 2 12 -3 15 -5 4
-12 2 -15 -3z"/>
<path d="M8620 7244 c0 -8 5 -12 10 -9 6 4 8 11 5 16 -9 14 -15 11 -15 -7z"/>
<path d="M4930 7080 c-9 -16 -8 -18 5 -14 8 4 15 12 15 20 0 20 -7 17 -20 -6z"/>
<path d="M8750 7025 c-18 -21 -5 -31 15 -12 8 9 11 18 6 21 -5 3 -14 -1 -21
-9z"/>
<path d="M4776 6891 c-4 -5 -2 -12 3 -15 5 -4 12 -2 15 3 4 5 2 12 -3 15 -5 4
-12 2 -15 -3z"/>
<path d="M9020 6530 c0 -5 5 -10 10 -10 6 0 10 5 10 10 0 6 -4 10 -10 10 -5 0
-10 -4 -10 -10z"/>
<path d="M7395 6280 c4 -6 11 -8 16 -5 14 9 11 15 -7 15 -8 0 -12 -5 -9 -10z"/>
<path d="M9216 6191 c-4 -5 -2 -12 3 -15 5 -4 12 -2 15 3 4 5 2 12 -3 15 -5 4
-12 2 -15 -3z"/>
<path d="M7515 6111 c-3 -6 4 -15 15 -21 20 -11 21 -10 10 9 -12 23 -16 25
-25 12z"/>
<path d="M7690 5941 c0 -5 7 -12 16 -15 24 -9 28 -7 14 9 -14 17 -30 20 -30 6z"/>
<path d="M3456 5451 c-4 -5 -2 -12 3 -15 5 -4 12 -2 15 3 4 5 2 12 -3 15 -5 4
-12 2 -15 -3z"/>
<path d="M3785 5182 l-460 -3 -80 -93 c-82 -94 -256 -290 -610 -685 -110 -123
-222 -250 -250 -281 -58 -67 -510 -573 -571 -640 -23 -25 -137 -153 -254 -285
-554 -623 -761 -855 -814 -909 -31 -32 -55 -59 -54 -60 2 -1 443 0 980 2 l977
2 31 63 c18 34 35 67 40 72 4 6 23 39 42 75 20 36 125 229 235 430 110 201
217 397 238 435 20 39 48 88 60 110 13 22 38 69 58 105 19 36 68 126 109 200
41 74 94 171 117 215 24 44 62 114 85 155 23 41 48 89 56 105 8 17 22 41 31
55 9 14 35 61 59 105 24 44 46 85 50 90 4 6 30 54 59 107 28 54 62 117 75 140
59 108 77 141 141 258 38 69 81 144 97 167 26 39 37 76 21 71 -5 -2 -215 -4
-468 -6z m272 -122 c3 -11 9 -20 14 -20 15 0 10 -30 -6 -36 -8 -4 -15 -16 -15
-27 0 -16 -3 -18 -12 -9 -18 18 -31 14 -25 -8 3 -11 1 -23 -4 -26 -5 -3 -9
-10 -9 -16 0 -6 11 -3 25 6 14 9 25 14 25 11 0 -12 -29 -35 -43 -35 -15 0 -67
-88 -67 -115 0 -12 -6 -16 -20 -12 -11 3 -23 1 -26 -4 -3 -5 -1 -9 4 -9 13 0
24 -29 16 -42 -3 -5 -14 -2 -25 7 -17 16 -18 16 -16 -11 2 -22 -2 -29 -15 -28
-21 2 -22 -1 -8 -26 7 -14 6 -23 -6 -35 -9 -8 -14 -22 -11 -29 3 -8 -1 -13
-11 -12 -9 0 -18 -8 -20 -19 -3 -11 -13 -32 -23 -47 -11 -14 -16 -33 -13 -41
8 -23 -16 -31 -31 -11 -13 18 -14 18 -15 2 0 -10 5 -18 10 -18 6 0 10 -9 10
-21 0 -13 -8 -23 -21 -26 -17 -5 -20 -12 -16 -36 3 -23 0 -31 -15 -35 -10 -2
-18 -10 -18 -18 0 -7 -10 -29 -22 -47 -25 -38 -58 -91 -73 -119 -5 -10 -22
-24 -37 -31 -33 -14 -36 -27 -8 -34 20 -5 29 -33 10 -33 -5 0 -10 -4 -10 -10
0 -5 -8 -19 -17 -30 -10 -11 -26 -29 -35 -40 -10 -11 -18 -27 -18 -35 0 -8 -4
-15 -10 -15 -5 0 -10 -9 -10 -20 0 -11 -5 -20 -11 -20 -7 0 -9 -12 -6 -32 3
-18 3 -27 0 -20 -7 17 -33 15 -33 -4 0 -11 -6 -14 -20 -9 -17 5 -20 2 -18 -22
1 -15 9 -33 18 -40 13 -11 13 -12 -2 -13 -21 0 -24 -25 -5 -34 6 -3 2 -3 -10
0 -17 4 -23 1 -23 -11 0 -15 -9 -34 -65 -134 -14 -24 -25 -53 -25 -64 0 -15
-5 -18 -25 -13 -17 4 -25 2 -25 -7 0 -7 5 -18 11 -24 9 -9 8 -16 -5 -28 -9 -9
-21 -25 -27 -36 -5 -11 -22 -24 -36 -30 -24 -9 -25 -10 -8 -23 12 -9 16 -19
11 -31 -6 -17 -7 -17 -20 0 -8 12 -15 14 -20 7 -3 -6 1 -17 9 -25 19 -19 19
-37 1 -37 -21 0 -38 26 -35 52 2 13 -1 24 -6 25 -11 3 -7 -54 6 -78 10 -19
-16 -79 -34 -79 -8 0 -7 -4 1 -12 16 -16 15 -28 -3 -28 -9 0 -18 -8 -22 -17
-3 -10 -15 -28 -27 -41 -17 -19 -18 -24 -6 -32 8 -5 11 -13 6 -17 -5 -4 -11
-2 -13 5 -5 14 -33 17 -33 3 0 -5 6 -12 13 -15 9 -3 8 -8 -5 -18 -12 -10 -14
-18 -6 -32 15 -26 3 -31 -21 -7 -15 15 -21 17 -21 7 0 -8 5 -18 10 -21 15 -10
12 -35 -5 -35 -8 0 -15 7 -15 15 0 8 -4 15 -10 15 -16 0 -12 -15 10 -35 11
-10 20 -22 20 -27 0 -5 -15 -25 -34 -43 -19 -18 -42 -48 -52 -67 -9 -18 -31
-51 -48 -73 -38 -47 -49 -72 -36 -80 18 -11 10 -30 -35 -78 -25 -26 -45 -54
-45 -62 0 -8 -4 -15 -10 -15 -5 0 -10 -9 -10 -19 0 -10 -16 -31 -35 -47 -21
-17 -33 -34 -30 -42 4 -11 0 -13 -17 -8 -13 3 -377 6 -809 6 l-786 0 0 30 c0
27 3 31 26 28 22 -2 26 1 26 21 0 13 6 26 14 29 9 3 11 -1 6 -17 -3 -11 -4
-21 -1 -21 11 0 46 40 46 51 0 7 -9 9 -21 6 -13 -3 -19 -1 -16 6 2 7 15 12 28
12 19 0 23 5 21 23 -2 13 3 25 12 28 9 3 16 14 16 23 0 9 20 30 45 45 24 16
47 37 50 47 4 11 13 19 21 19 8 0 14 5 14 11 0 7 15 28 34 48 62 65 111 119
136 151 14 17 60 67 103 111 42 44 77 82 77 85 0 3 28 37 63 75 34 38 67 67
73 65 7 -3 10 3 7 12 -3 11 19 40 59 82 40 41 62 72 60 83 -2 9 1 17 7 17 6 0
11 -4 11 -10 0 -5 10 -10 23 -10 20 1 20 2 5 13 -9 7 -14 18 -10 23 4 6 22 20
40 33 24 17 31 28 27 42 -4 13 -2 19 9 19 8 0 17 9 21 19 3 11 33 43 65 71 36
31 60 61 61 73 1 16 3 17 6 5 4 -17 32 -32 41 -23 3 3 0 11 -6 17 -13 13 -17
48 -6 48 4 0 21 -17 39 -37 21 -25 34 -33 39 -25 4 7 2 12 -6 12 -7 0 -19 13
-26 30 -12 26 -11 32 8 52 13 13 28 37 35 54 8 16 29 39 49 49 19 10 37 29 41
42 3 13 12 23 20 23 7 0 16 8 19 18 4 11 18 30 32 43 24 22 26 23 38 7 12 -17
36 -25 36 -13 0 3 -12 17 -27 30 -26 22 -27 24 -9 31 12 5 21 2 28 -10 5 -9
13 -14 19 -11 14 9 11 25 -6 25 -17 0 -20 26 -4 36 6 3 15 0 20 -7 4 -7 11
-10 15 -6 4 4 2 13 -4 19 -7 7 -12 21 -12 33 1 18 1 18 11 3 5 -10 20 -18 32
-17 12 0 16 3 10 6 -7 2 -13 10 -13 17 0 6 32 43 70 81 39 38 70 73 70 77 0 4
34 42 75 85 41 43 75 86 75 96 0 9 6 17 14 17 7 0 19 7 26 15 9 10 9 15 1 15
-6 0 -11 5 -11 11 0 6 7 9 15 5 9 -3 30 10 55 37 22 23 40 47 40 53 0 7 11 15
25 18 14 4 25 11 25 16 0 10 10 24 63 85 15 18 27 37 27 43 0 5 9 12 20 15 14
4 18 11 14 24 -5 15 -4 15 5 3 9 -13 13 -11 33 9 14 16 18 26 10 29 -14 4 -16
32 -2 32 6 0 10 -6 10 -12 0 -7 12 2 26 20 14 17 34 32 45 32 10 0 19 5 19 10
0 6 -7 10 -15 10 -18 0 -19 12 -3 28 17 17 29 15 22 -3 -4 -8 -1 -15 5 -15 6
0 11 7 11 15 0 8 5 15 10 15 6 0 14 8 17 18 15 40 27 41 345 42 236 0 308 -3
312 -12 4 -10 9 -8 18 5 17 23 39 22 45 -3z m53 6 c0 -11 -19 -15 -25 -6 -3 5
1 10 9 10 9 0 16 -2 16 -4z m-1105 -375 c-3 -6 -11 -11 -16 -11 -5 0 -4 6 3
14 14 16 24 13 13 -3z m605 -541 c0 -5 -4 -10 -10 -10 -5 0 -10 5 -10 10 0 6
5 10 10 10 6 0 10 -4 10 -10z m-30 -45 c0 -8 -7 -15 -15 -15 -8 0 -15 7 -15
15 0 8 7 15 15 15 8 0 15 -7 15 -15z m-170 -302 c0 -5 -5 -15 -10 -23 -7 -12
-12 -12 -22 -2 -10 10 -10 15 2 22 18 12 30 13 30 3z m-240 -453 c0 -5 -4 -10
-10 -10 -5 0 -10 5 -10 10 0 6 5 10 10 10 6 0 10 -4 10 -10z m-1590 -270 c0
-5 -4 -10 -10 -10 -5 0 -10 5 -10 10 0 6 5 10 10 10 6 0 10 -4 10 -10z m1070
-709 c0 -5 -8 -11 -17 -15 -10 -3 -24 -9 -31 -12 -8 -4 -10 0 -6 10 5 13 19
21 47 25 4 0 7 -3 7 -8z"/>
<path d="M4030 5030 c-12 -7 -12 -12 -3 -21 15 -15 26 -7 21 15 -2 11 -7 13
-18 6z"/>
<path d="M3340 4990 c0 -5 5 -10 10 -10 6 0 10 5 10 10 0 6 -4 10 -10 10 -5 0
-10 -4 -10 -10z"/>
<path d="M3840 4770 c0 -11 2 -20 4 -20 2 0 6 9 9 20 3 11 1 20 -4 20 -5 0 -9
-9 -9 -20z"/>
<path d="M2860 4485 c0 -8 5 -15 10 -15 6 0 10 7 10 15 0 8 -4 15 -10 15 -5 0
-10 -7 -10 -15z"/>
<path d="M3510 4150 c0 -5 5 -10 10 -10 6 0 10 5 10 10 0 6 -4 10 -10 10 -5 0
-10 -4 -10 -10z"/>
<path d="M2280 3844 c0 -15 26 -19 34 -5 3 5 -3 11 -14 14 -13 3 -20 0 -20 -9z"/>
<path d="M2376 3851 c-4 -5 -2 -12 3 -15 5 -4 12 -2 15 3 4 5 2 12 -3 15 -5 4
-12 2 -15 -3z"/>
<path d="M2046 3575 c-10 -7 -15 -19 -11 -24 9 -15 21 -6 28 19 3 11 4 20 4
20 -1 0 -10 -7 -21 -15z"/>
<path d="M2005 3520 c3 -5 10 -10 16 -10 5 0 9 5 9 10 0 6 -7 10 -16 10 -8 0
-12 -4 -9 -10z"/>
<path d="M1880 3360 c0 -5 5 -10 10 -10 6 0 10 5 10 10 0 6 -4 10 -10 10 -5 0
-10 -4 -10 -10z"/>
<path d="M2876 2881 c-4 -7 -5 -15 -2 -18 9 -9 19 4 14 18 -4 11 -6 11 -12 0z"/>
<path d="M1161 2580 c-18 -15 -19 -20 -7 -20 9 0 16 5 16 10 0 6 7 10 15 10 8
0 15 5 15 10 0 15 -12 12 -39 -10z"/>
<path d="M1215 2560 c4 -6 11 -8 16 -5 14 9 11 15 -7 15 -8 0 -12 -5 -9 -10z"/>
<path d="M4549 5133 c-48 -112 -294 -672 -335 -763 -63 -138 -69 -150 -76
-150 -5 0 -8 -7 -8 -16 0 -14 28 -16 278 -14 152 1 281 2 286 1 5 0 4 -7 -2
-13 -12 -16 -42 -102 -77 -223 -15 -49 -40 -135 -57 -190 -16 -55 -33 -113
-38 -130 -4 -16 -31 -106 -60 -200 -29 -93 -56 -183 -60 -200 -4 -16 -31 -106
-60 -200 -29 -93 -56 -183 -60 -200 -5 -16 -23 -77 -40 -135 -17 -58 -44 -148
-60 -200 -52 -175 -72 -235 -83 -248 -6 -8 -6 -16 -1 -20 5 -4 393 -6 863 -4
l853 2 -6 23 c-3 12 -6 454 -6 982 l-1 960 271 0 270 0 0 25 c0 14 -5 44 -10
67 -5 22 -19 103 -30 180 -11 76 -33 230 -50 343 -17 113 -35 242 -41 288
l-12 82 -814 0 -814 0 -20 -47z m63 -95 c-9 -9 -12 -7 -12 12 0 19 3 21 12 12
9 -9 9 -15 0 -24z m1501 18 c3 -7 2 -17 -2 -22 -5 -5 -11 -23 -14 -40 -5 -23
-1 -36 12 -48 19 -18 30 -54 36 -116 1 -19 4 -37 5 -40 0 -3 3 -18 4 -35 2
-16 12 -84 22 -150 11 -66 19 -158 19 -205 l0 -85 -150 -5 c-82 -3 -152 -3
-155 0 -3 3 -18 6 -34 8 -19 2 -27 -1 -24 -10 3 -8 16 -12 32 -10 19 3 26 0
22 -7 -4 -6 -27 -11 -52 -11 -33 0 -44 -4 -44 -16 0 -11 -6 -14 -20 -9 -11 4
-20 2 -20 -4 0 -6 -11 -27 -25 -47 l-25 -37 0 -358 c0 -235 -4 -359 -10 -361
-7 -2 -11 -187 -13 -548 l-2 -545 -708 -3 -707 -2 -10 26 c-13 34 -13 41 2 26
7 -7 18 -12 25 -12 18 0 16 27 -2 34 -13 4 -14 14 -9 43 4 21 18 52 31 69 25
33 30 68 11 80 -8 5 -6 11 6 20 10 7 26 43 36 81 10 37 25 87 33 111 9 26 11
44 5 48 -6 4 -5 11 2 18 9 8 14 8 17 -1 3 -7 9 -13 15 -13 6 0 7 24 3 65 -8
69 2 85 25 38 8 -19 14 -23 18 -14 2 7 -1 17 -8 21 -8 5 -10 21 -5 51 4 24 11
49 15 54 4 6 10 29 14 53 3 23 18 76 32 118 13 41 22 80 18 86 -4 6 3 32 16
57 13 25 27 54 31 63 5 10 9 28 9 42 0 13 3 38 6 55 6 28 8 30 20 14 12 -17
13 -17 19 -1 4 10 2 31 -3 48 -8 23 -8 37 3 58 8 15 35 93 60 173 30 97 44
155 40 172 -5 17 1 37 18 65 24 36 24 42 11 67 -8 15 -14 29 -14 31 0 2 7 4
15 4 8 0 15 -4 15 -10 0 -5 4 -10 9 -10 5 0 2 14 -6 32 -14 28 -17 29 -28 15
-16 -23 -25 -21 -25 3 0 11 -7 20 -15 20 -18 0 -19 12 -3 28 9 9 8 12 -4 12
-8 0 -21 7 -28 15 -9 11 -16 12 -26 4 -9 -7 -70 -11 -171 -10 l-158 0 -3 35
c-2 22 6 53 23 87 15 29 28 68 28 88 1 22 11 46 24 61 13 13 25 21 28 18 3 -3
-4 -22 -15 -41 -12 -20 -18 -41 -15 -48 11 -17 54 61 55 97 0 20 6 34 16 38
13 5 14 9 4 21 -10 12 -10 18 -1 29 8 10 9 16 1 21 -14 9 -13 35 3 35 7 0 20
17 28 38 7 20 28 66 45 101 18 35 30 70 27 78 -3 9 2 16 15 20 11 2 23 12 26
21 4 10 13 29 22 45 l15 27 728 0 c610 0 730 -2 734 -14z m25 -83 c-4 -22 -22
-20 -26 1 -2 10 3 16 13 16 10 0 15 -7 13 -17z m-1696 -345 c-15 -15 -26 -4
-18 18 5 13 9 15 18 6 9 -9 9 -15 0 -24z m-142 -302 c0 -8 -4 -18 -10 -21 -5
-3 -10 3 -10 14 0 12 5 21 10 21 6 0 10 -6 10 -14z m366 -63 c-11 -11 -17 4
-9 23 7 18 8 18 11 1 2 -10 1 -21 -2 -24z m-206 -1159 c0 -8 -4 -14 -10 -14
-5 0 -10 9 -10 21 0 11 5 17 10 14 6 -3 10 -13 10 -21z"/>
<path d="M6075 4911 c-3 -5 -1 -12 5 -16 5 -3 10 1 10 9 0 18 -6 21 -15 7z"/>
<path d="M6102 4830 c0 -19 2 -27 5 -17 2 9 2 25 0 35 -3 9 -5 1 -5 -18z"/>
<path d="M4460 4521 c0 -12 5 -21 10 -21 6 0 10 6 10 14 0 8 -4 18 -10 21 -5
3 -10 -3 -10 -14z"/>
<path d="M4735 4310 c-3 -5 1 -10 10 -10 9 0 13 5 10 10 -3 6 -8 10 -10 10 -2
0 -7 -4 -10 -10z"/>
<path d="M5766 4311 c-3 -5 1 -11 9 -15 9 -3 15 0 15 9 0 16 -16 20 -24 6z"/>
<path d="M4762 4045 c0 -16 2 -22 5 -12 2 9 2 23 0 30 -3 6 -5 -1 -5 -18z"/>
<path d="M4620 3470 c0 -19 3 -21 12 -12 9 9 9 15 0 24 -9 9 -12 7 -12 -12z"/>
<path d="M4590 3405 c0 -8 9 -19 20 -25 23 -12 25 -3 6 23 -16 21 -26 22 -26
2z"/>
<path d="M4303 2480 c0 -25 2 -35 4 -22 2 12 2 32 0 45 -2 12 -4 2 -4 -23z"/>
<path d="M6722 5157 c-54 -28 -105 -78 -128 -125 -42 -87 -48 -56 280 -1365
296 -1184 306 -1220 344 -1275 21 -31 62 -73 90 -93 106 -74 -39 -69 1875 -72
944 -1 1717 1 1717 5 0 4 -24 31 -53 60 -29 29 -102 109 -162 177 -61 69 -135
152 -165 186 -30 33 -120 134 -200 225 -186 209 -166 187 -300 339 l-115 131
-757 0 -756 0 -42 22 c-46 25 -120 85 -120 98 0 4 -21 45 -46 91 -26 46 -67
122 -91 169 -25 47 -58 108 -73 135 -115 209 -160 297 -160 313 0 28 31 78 59
95 26 15 78 17 564 17 324 0 546 -4 561 -10 41 -15 33 10 -22 66 -59 62 -120
129 -302 334 -80 90 -192 216 -250 280 -58 63 -125 139 -149 168 l-44 52 -756
0 -756 -1 -43 -22z m1514 -100 c29 -17 94 -75 94 -84 0 -4 38 -51 85 -102 59
-65 83 -100 80 -112 -3 -10 -2 -20 4 -23 5 -3 12 6 16 21 l6 26 14 -27 c19
-36 67 -86 82 -86 19 0 15 -18 -4 -22 -13 -3 -9 -8 15 -18 25 -11 32 -20 28
-34 -3 -11 6 -35 22 -57 15 -21 30 -39 34 -39 3 0 4 10 1 21 -4 16 -2 20 8 17
8 -3 14 -16 14 -29 0 -20 4 -24 28 -21 25 3 28 0 22 -19 -5 -15 -4 -19 4 -14
8 5 10 -1 5 -19 -4 -16 -2 -26 5 -26 6 0 11 -7 11 -15 0 -8 -4 -15 -10 -15 -5
0 -10 5 -10 10 0 6 -133 10 -379 10 -218 0 -382 4 -385 9 -7 11 -19 9 -60 -8
-16 -6 -35 -10 -42 -7 -17 6 -124 -105 -141 -145 -19 -44 -15 -118 7 -159 10
-19 24 -45 29 -57 6 -13 15 -23 21 -23 6 0 9 -4 5 -9 -3 -5 4 -26 16 -46 21
-35 21 -36 3 -57 -19 -20 -19 -20 13 -13 28 5 32 4 27 -9 -4 -10 0 -18 11 -22
9 -4 14 -13 11 -21 -7 -18 56 -110 72 -107 7 1 8 0 2 -3 -18 -9 -11 -28 20
-53 21 -17 26 -27 19 -36 -7 -9 -4 -14 10 -19 11 -3 22 -19 26 -36 11 -50 69
-156 83 -152 6 3 12 -2 12 -11 0 -9 -4 -16 -10 -16 -5 0 -10 -7 -10 -15 0 -8
6 -15 14 -15 8 0 16 -6 19 -12 2 -7 8 -9 13 -5 5 4 2 12 -6 17 -8 5 -11 12 -8
15 10 10 28 -4 38 -30 5 -12 30 -35 57 -51 44 -25 73 -34 171 -51 23 -4 32
-10 28 -19 -5 -12 92 -14 623 -14 345 0 631 3 634 7 10 9 63 11 120 5 36 -3
47 -8 43 -19 -3 -8 4 -18 20 -25 18 -9 24 -17 20 -32 -3 -12 4 -33 19 -52 14
-18 25 -38 25 -44 0 -6 4 -9 9 -6 5 3 7 16 4 27 -4 16 -2 20 8 17 8 -3 15 -11
15 -19 1 -8 2 -20 3 -27 1 -8 9 -10 25 -6 16 4 25 1 29 -10 4 -10 1 -13 -8
-10 -12 5 -12 1 1 -25 12 -24 20 -30 35 -26 17 6 19 3 13 -19 -7 -28 4 -34 24
-14 9 9 12 9 12 -1 0 -7 11 -22 25 -33 14 -11 25 -24 25 -29 0 -14 33 -49 47
-49 7 0 13 -4 13 -9 0 -5 6 -11 13 -14 6 -2 -1 -2 -18 0 l-30 5 30 -25 c24
-20 33 -23 44 -14 12 10 13 8 8 -14 -5 -19 -3 -29 8 -33 8 -3 15 -1 15 4 0 6
5 10 11 10 7 0 9 -9 6 -21 -4 -16 1 -28 19 -41 13 -11 24 -25 24 -33 0 -19 30
-27 48 -13 13 11 14 10 8 -10 -5 -15 -3 -22 6 -22 8 0 19 -15 26 -33 13 -36
79 -103 124 -126 15 -8 29 -20 32 -27 8 -20 0 -17 -23 7 -13 14 -26 19 -38 15
-17 -7 -17 -8 2 -18 11 -6 30 -20 43 -32 21 -19 22 -21 5 -27 -10 -4 -711 -8
-1558 -8 -1344 -1 -1543 -3 -1562 -16 -18 -13 -22 -13 -33 0 -14 17 -37 20
-42 5 -4 -12 -48 -1 -48 12 0 6 11 7 25 4 14 -4 25 -2 25 3 0 16 -50 42 -70
36 -14 -4 -20 -2 -20 9 0 8 5 18 10 21 15 9 12 37 -2 32 -7 -2 -12 -11 -10
-21 4 -20 -24 -21 -44 -2 -19 19 -19 43 -1 27 21 -16 28 -1 12 23 -8 11 -15
34 -16 51 l-1 30 -8 -33 c-9 -39 -15 -46 -30 -37 -7 4 -8 11 -1 18 5 7 7 23 5
37 -7 46 -21 105 -32 131 -6 15 -8 30 -5 33 3 3 -3 18 -13 33 -19 28 -22 42
-27 118 -1 22 -15 65 -30 96 -29 60 -33 79 -17 79 6 0 10 -7 10 -15 0 -8 7
-15 15 -15 8 0 15 7 15 15 0 8 -4 15 -8 15 -16 0 -50 76 -66 150 -20 87 -33
142 -47 186 -5 17 -9 38 -9 48 0 10 -9 29 -20 43 -12 16 -18 34 -14 45 6 21
-16 118 -27 118 -14 0 -19 33 -7 47 9 11 9 19 -1 35 -12 19 -28 82 -53 203 -5
28 -14 55 -19 61 -5 6 -6 14 -3 17 4 4 0 17 -9 31 -11 16 -14 36 -10 59 3 19
0 44 -8 58 -7 13 -13 37 -15 53 -1 16 -7 32 -14 36 -14 9 -40 57 -40 75 0 7 5
15 12 17 9 3 7 14 -6 41 -9 21 -18 52 -20 70 -2 17 -5 39 -9 47 -3 8 -10 33
-16 55 -5 22 -17 65 -26 95 -9 30 -18 69 -20 85 -2 17 -8 53 -15 80 -6 28 -10
70 -8 95 2 36 -1 46 -15 48 -11 2 -17 13 -17 29 l0 26 24 -22 c15 -14 26 -19
31 -12 3 6 0 11 -8 11 -8 0 -17 10 -21 23 -9 33 -6 45 5 19 5 -13 13 -20 19
-17 13 8 13 35 0 35 -5 0 -10 7 -10 15 0 8 5 15 10 15 6 0 10 -7 10 -15 0 -21
13 -19 35 5 18 20 31 20 739 20 547 -1 726 -4 742 -13z m474 -492 c0 -8 -4
-15 -10 -15 -5 0 -10 7 -10 15 0 8 5 15 10 15 6 0 10 -7 10 -15z m140 -169 c0
-5 -7 -3 -15 4 -8 7 -15 20 -15 28 0 13 3 12 15 -4 8 -10 15 -23 15 -28z
m-1990 -281 c0 -8 -4 -15 -10 -15 -5 0 -10 7 -10 15 0 8 5 15 10 15 6 0 10 -7
10 -15z m3130 -990 c0 -8 -4 -15 -9 -15 -13 0 -22 16 -14 24 11 11 23 6 23 -9z"/>
<path d="M8517 4713 c-3 -5 5 -21 19 -36 25 -28 34 -33 34 -19 -1 15 -48 64
-53 55z"/>
<path d="M8500 4646 c0 -9 5 -16 10 -16 6 0 10 4 10 9 0 6 -4 13 -10 16 -5 3
-10 -1 -10 -9z"/>
<path d="M8640 4513 c0 -5 7 -18 15 -29 9 -12 14 -14 15 -6 0 7 -7 20 -15 28
-8 9 -15 11 -15 7z"/>
<path d="M6830 4301 c0 -11 5 -23 10 -26 6 -4 10 5 10 19 0 14 -4 26 -10 26
-5 0 -10 -9 -10 -19z"/>
<path d="M7002 3650 c0 -14 2 -19 5 -12 2 6 2 18 0 25 -3 6 -5 1 -5 -13z"/>
<path d="M7995 3651 c-6 -11 9 -23 19 -14 9 9 7 23 -3 23 -6 0 -12 -4 -16 -9z"/>
<path d="M8027 3567 c-12 -19 -12 -26 -2 -40 13 -18 45 -23 45 -7 0 6 -9 10
-20 10 -27 0 -26 26 1 33 12 3 18 10 14 16 -10 17 -21 13 -38 -12z"/>
<path d="M7015 3500 c3 -5 10 -10 16 -10 5 0 9 5 9 10 0 6 -7 10 -16 10 -8 0
-12 -4 -9 -10z"/>
<path d="M8390 3230 c0 -5 9 -10 20 -10 11 0 20 5 20 10 0 6 -9 10 -20 10 -11
0 -20 -4 -20 -10z"/>
<path d="M9818 3203 c6 -2 18 -2 25 0 6 3 1 5 -13 5 -14 0 -19 -2 -12 -5z"/>
<path d="M9920 3073 c0 -5 7 -18 15 -29 9 -12 14 -14 15 -6 0 7 -7 20 -15 28
-8 9 -15 11 -15 7z"/>
<path d="M10076 2921 c-4 -7 -5 -15 -2 -18 9 -9 19 4 14 18 -4 11 -6 11 -12 0z"/>
<path d="M10130 2913 c1 -11 26 -43 34 -43 11 0 6 21 -8 36 -16 15 -26 18 -26
7z"/>
<path d="M10250 2751 c0 -6 5 -13 10 -16 6 -3 10 1 10 9 0 9 -4 16 -10 16 -5
0 -10 -4 -10 -9z"/>
<path d="M10422 2570 c7 -11 18 -20 25 -20 18 0 16 10 -4 26 -26 20 -35 17
-21 -6z"/>
<path d="M7340 2504 c0 -8 5 -12 10 -9 6 4 8 11 5 16 -9 14 -15 11 -15 -7z"/>
<path d="M7440 2390 c0 -5 7 -10 16 -10 8 0 12 5 9 10 -3 6 -10 10 -16 10 -5
0 -9 -4 -9 -10z"/>
<path d="M1615 4930 c-3 -5 1 -10 10 -10 9 0 13 5 10 10 -3 6 -8 10 -10 10 -2
0 -7 -4 -10 -10z"/>
<path d="M4330 4930 c0 -5 5 -10 10 -10 6 0 10 5 10 10 0 6 -4 10 -10 10 -5 0
-10 -4 -10 -10z"/>
<path d="M10376 4311 c-4 -5 -2 -12 3 -15 5 -4 12 -2 15 3 4 5 2 12 -3 15 -5
4 -12 2 -15 -3z"/>
<path d="M9090 4180 c-9 -16 -8 -18 5 -14 8 4 15 12 15 20 0 20 -7 17 -20 -6z"/>
<path d="M9456 4031 c-4 -5 3 -15 15 -21 11 -7 22 -10 24 -8 1 2 -6 11 -15 21
-11 11 -20 14 -24 8z"/>
<path d="M1616 3481 c-4 -7 -5 -15 -2 -18 9 -9 19 4 14 18 -4 11 -6 11 -12 0z"/>
<path d="M652 3288 c-7 -7 -12 -19 -12 -27 0 -11 5 -8 16 7 18 25 15 39 -4 20z"/>
<path d="M10236 3251 c-4 -5 -2 -12 3 -15 5 -4 12 -2 15 3 4 5 2 12 -3 15 -5
4 -12 2 -15 -3z"/>
<path d="M760 2604 c0 -8 5 -12 10 -9 6 3 10 10 10 16 0 5 -4 9 -10 9 -5 0
-10 -7 -10 -16z"/>
<path d="M7055 2431 c-3 -5 -1 -12 5 -16 5 -3 10 1 10 9 0 18 -6 21 -15 7z"/>
<path d="M4015 2380 c4 -6 11 -8 16 -5 14 9 11 15 -7 15 -8 0 -12 -5 -9 -10z"/>
<path d="M11475 2370 c-3 -5 1 -10 9 -10 9 0 16 5 16 10 0 6 -4 10 -9 10 -6 0
-13 -4 -16 -10z"/>
<path d="M10996 2311 c-4 -5 -2 -12 3 -15 5 -4 12 -2 15 3 4 5 2 12 -3 15 -5
4 -12 2 -15 -3z"/>
<path d="M10908 2123 c6 -2 18 -2 25 0 6 3 1 5 -13 5 -14 0 -19 -2 -12 -5z"/>
<path d="M1412 1591 c4 -13 18 -16 19 -4 0 4 -5 9 -11 12 -7 2 -11 -2 -8 -8z"/>
<path d="M4480 1586 c0 -9 5 -16 10 -16 6 0 10 4 10 9 0 6 -4 13 -10 16 -5 3
-10 -1 -10 -9z"/>
<path d="M6055 1591 c-3 -5 -1 -12 5 -16 5 -3 10 1 10 9 0 18 -6 21 -15 7z"/>
<path d="M8747 1573 c3 -7 11 -13 18 -13 7 0 15 6 18 13 3 7 -4 12 -18 12 -14
0 -21 -5 -18 -12z"/>
<path d="M5755 1570 c-3 -5 1 -10 10 -10 9 0 13 5 10 10 -3 6 -8 10 -10 10 -2
0 -7 -4 -10 -10z"/>
<path d="M10840 1554 c0 -8 5 -12 10 -9 6 3 10 10 10 16 0 5 -4 9 -10 9 -5 0
-10 -7 -10 -16z"/>
<path d="M8010 1539 c-7 -11 -10 -22 -8 -24 2 -1 11 6 21 15 11 11 14 20 8 24
-5 4 -15 -3 -21 -15z"/>
<path d="M5235 1531 c-6 -11 9 -23 19 -14 9 9 7 23 -3 23 -6 0 -12 -4 -16 -9z"/>
<path d="M3300 1501 c-65 -25 -109 -49 -160 -88 -101 -76 -201 -232 -240 -377
-18 -66 -21 -98 -18 -185 6 -126 29 -205 89 -306 53 -90 98 -137 179 -190 87
-56 142 -80 219 -94 52 -10 81 -10 145 0 45 7 105 24 135 37 30 13 79 47 109
76 75 70 100 125 131 281 9 43 7 52 -9 69 -24 25 -50 14 -50 -21 0 -48 -28
-164 -51 -210 -27 -56 -96 -125 -151 -150 -149 -68 -304 -50 -390 45 -45 50
-63 87 -88 186 -17 65 -20 112 -20 266 0 206 11 319 42 425 27 95 68 149 135
181 43 20 69 25 132 25 59 0 90 -5 123 -21 95 -45 177 -155 225 -303 40 -127
44 -137 59 -137 11 0 14 44 12 248 -1 136 -3 250 -5 255 -2 4 -13 3 -23 -3
-10 -6 -21 -26 -25 -49 -3 -22 -15 -47 -26 -57 -19 -17 -22 -16 -77 23 -52 37
-78 50 -155 82 -43 17 -194 12 -247 -8z m-260 -453 c0 -6 -6 -19 -14 -27 -7
-9 -17 -26 -20 -38 -5 -17 -3 -21 11 -19 10 2 12 1 6 -1 -15 -5 -17 -39 -3
-48 15 -9 12 -59 -5 -91 -8 -16 -15 -36 -14 -44 0 -10 2 -11 6 -2 9 24 25 12
19 -14 -4 -14 -2 -32 4 -40 7 -7 9 -18 5 -24 -4 -7 -17 8 -31 34 l-25 46 22
51 22 50 -23 41 -22 40 22 49 c22 46 40 63 40 37z m-50 -175 c0 -20 -3 -24
-11 -16 -7 7 -9 19 -6 27 10 24 17 19 17 -11z"/>
<path d="M10655 1510 c-11 -5 -83 -9 -160 -9 -139 -1 -165 -7 -165 -37 0 -8
26 -13 75 -16 60 -3 79 -8 96 -25 20 -20 22 -30 20 -150 -1 -70 3 -152 9 -182
6 -34 7 -58 1 -64 -6 -6 -27 9 -55 40 -65 71 -112 93 -197 93 -55 0 -83 -6
-134 -29 -73 -33 -150 -101 -194 -169 -95 -150 -94 -353 2 -512 64 -105 189
-180 302 -180 89 0 187 54 236 129 10 16 21 22 31 19 13 -5 14 -15 6 -58 -8
-44 -7 -55 7 -71 11 -12 27 -17 44 -14 14 2 92 7 174 11 l147 6 0 25 c0 25 -1
25 -60 18 -48 -6 -66 -4 -85 9 l-25 16 0 565 0 564 -22 15 c-25 18 -25 18 -53
6z m-249 -434 c43 -37 79 -100 100 -179 20 -72 20 -285 0 -361 -29 -108 -88
-183 -161 -204 -102 -29 -185 37 -221 175 -21 80 -21 336 0 415 21 81 43 123
82 158 31 27 42 30 98 30 56 0 66 -3 102 -34z m-406 -271 c0 -8 -4 -15 -9 -15
-13 0 -22 16 -14 24 11 11 23 6 23 -9z m10 -181 c0 -17 -22 -14 -28 4 -2 7 3
12 12 12 9 0 16 -7 16 -16z"/>
<path d="M5833 1480 c-18 -10 -39 -33 -48 -49 -24 -47 -19 -83 18 -125 26 -31
41 -39 77 -43 40 -4 50 -1 78 22 18 15 39 40 47 55 11 22 12 36 4 62 -6 18
-27 48 -47 66 -42 38 -81 42 -129 12z"/>
<path d="M8123 1487 c-33 -18 -65 -65 -69 -99 -7 -60 58 -128 122 -128 37 0
89 37 108 76 24 51 9 96 -48 139 -35 27 -78 32 -113 12z"/>
<path d="M8662 1478 c-6 -13 -13 -46 -16 -75 -7 -73 -49 -155 -103 -203 -48
-42 -94 -60 -155 -60 -34 0 -38 -3 -38 -26 0 -27 0 -27 63 -22 34 3 68 3 75 1
9 -4 12 -81 12 -343 0 -215 4 -349 11 -367 17 -45 69 -91 126 -113 64 -24 175
-27 224 -6 37 16 108 87 127 126 17 39 31 152 21 173 -23 41 -44 9 -52 -80
-12 -114 -80 -179 -170 -162 -24 4 -48 16 -58 30 -17 22 -19 52 -20 359 -1
330 -1 371 7 379 2 2 61 4 131 5 121 1 128 2 128 21 0 19 -8 20 -133 23 l-134
3 3 167 c2 92 0 173 -5 180 -11 19 -32 14 -44 -10z m-72 -374 c0 -8 -5 -12
-10 -9 -6 4 -8 11 -5 16 9 14 15 11 15 -7z"/>
<path d="M700 1466 c-24 -24 -6 -34 78 -45 50 -7 94 -19 105 -28 16 -15 17
-53 17 -518 0 -475 -1 -503 -18 -519 -12 -10 -52 -21 -105 -27 -59 -8 -87 -16
-87 -25 0 -7 5 -16 11 -20 18 -11 610 -7 621 4 18 18 -1 30 -55 37 -84 11
-126 24 -137 45 -6 12 -10 196 -10 509 0 473 1 492 19 510 19 19 35 24 133 36
50 6 61 14 53 37 -4 10 -65 13 -311 13 -179 0 -309 -4 -314 -9z"/>
<path d="M1600 1475 c0 0 -1 -112 -1 -250 -1 -240 -1 -250 18 -253 13 -2 23 6
31 23 7 14 12 35 12 47 0 39 32 143 63 207 37 74 87 135 127 156 41 21 136 31
155 15 13 -11 15 -79 15 -520 0 -486 -1 -508 -19 -524 -25 -23 -97 -44 -177
-52 -61 -6 -74 -15 -56 -39 4 -6 133 -10 349 -10 277 0 344 3 348 13 3 8 3 17
0 22 -3 4 -43 11 -90 15 -71 6 -91 11 -115 32 l-30 25 0 513 c0 442 2 514 15
525 11 9 34 10 80 5 91 -9 135 -45 188 -149 43 -86 77 -193 77 -243 0 -17 3
-38 6 -47 8 -21 41 -20 51 2 4 9 6 122 3 251 l-5 234 -523 1 c-287 1 -522 1
-522 1z m527 -488 c-2 -23 -3 -1 -3 48 0 50 1 68 3 42 2 -26 2 -67 0 -90z"/>
<path d="M4544 1467 c-12 -7 -21 -37 -10 -37 3 0 40 -5 83 -11 43 -6 88 -17
101 -25 l22 -14 0 -504 c0 -588 12 -533 -123 -551 -71 -9 -82 -13 -82 -30 0
-18 13 -19 519 -17 400 2 522 5 528 15 4 6 9 103 10 215 1 111 2 212 2 223 1
21 -28 49 -38 38 -3 -3 -13 -43 -22 -89 -8 -45 -24 -106 -35 -135 -26 -71 -80
-139 -133 -170 -60 -35 -190 -57 -285 -49 -59 5 -79 12 -98 30 l-23 23 0 496
c0 482 1 496 20 515 11 11 28 20 38 20 16 1 52 5 140 16 28 3 42 10 42 20 0 8
-6 17 -14 20 -22 9 -626 10 -642 1z"/>
<path d="M2935 1411 c-3 -5 -1 -12 5 -16 5 -3 10 1 10 9 0 18 -6 21 -15 7z"/>
<path d="M9615 1270 c-3 -5 1 -10 10 -10 9 0 13 5 10 10 -3 6 -8 10 -10 10 -2
0 -7 -4 -10 -10z"/>
<path d="M9016 1251 c-4 -5 -2 -12 3 -15 5 -4 12 -2 15 3 4 5 2 12 -3 15 -5 4
-12 2 -15 -3z"/>
<path d="M9055 1230 c-4 -6 -3 -16 3 -22 6 -6 12 -6 17 2 4 6 3 16 -3 22 -6 6
-12 6 -17 -2z"/>
<path d="M9716 1231 c-4 -5 -2 -12 3 -15 5 -4 12 -2 15 3 4 5 2 12 -3 15 -5 4
-12 2 -15 -3z"/>
<path d="M6805 1148 c-47 -17 -138 -82 -162 -116 -13 -17 -23 -35 -23 -40 0
-10 -33 -42 -44 -42 -4 0 -4 40 0 89 6 81 5 90 -12 98 -11 6 -90 7 -194 4
-168 -6 -175 -7 -178 -27 -4 -25 19 -34 86 -34 32 0 49 -6 67 -25 l25 -24 0
-329 c0 -328 0 -329 -23 -350 -16 -15 -43 -24 -92 -29 -85 -11 -218 5 -241 29
-14 14 -16 60 -14 396 0 209 -3 382 -7 385 -4 2 -91 2 -193 -2 -163 -5 -185
-8 -188 -23 -3 -17 11 -22 101 -32 22 -2 49 -14 63 -27 l24 -22 0 -322 c0
-372 8 -345 -107 -374 -52 -13 -69 -22 -71 -37 -3 -19 9 -19 558 -19 l560 0 0
21 c0 19 -8 22 -61 28 -41 5 -67 14 -81 28 -20 20 -20 28 -15 232 3 134 10
227 19 256 19 65 61 140 100 179 37 38 100 70 138 71 34 0 65 -23 84 -62 14
-26 16 -80 16 -348 0 -280 -2 -319 -16 -331 -9 -7 -46 -18 -83 -24 -54 -9 -66
-15 -66 -30 0 -18 13 -19 270 -18 258 0 270 1 270 19 0 15 -11 20 -60 27 -38
5 -68 16 -82 29 -22 21 -23 27 -23 202 1 109 6 205 14 241 17 83 56 164 102
215 41 46 103 80 144 80 37 0 71 -21 91 -55 16 -27 18 -64 18 -350 l1 -321
-30 -18 c-17 -9 -55 -20 -86 -23 -48 -5 -55 -9 -52 -26 3 -19 11 -20 558 -20
536 0 555 0 555 18 0 16 -12 21 -77 30 -45 6 -85 17 -94 26 -13 14 -15 67 -17
400 l-2 384 -175 -3 c-96 -2 -183 -6 -192 -8 -31 -9 -20 -33 17 -39 19 -3 52
-8 73 -11 20 -3 47 -12 60 -20 l22 -14 0 -329 c0 -320 -1 -328 -21 -347 -11
-10 -53 -26 -92 -35 -58 -14 -83 -15 -132 -7 -33 6 -71 17 -84 25 l-24 15 7
293 c5 195 4 307 -3 332 -15 54 -71 116 -128 141 -63 26 -165 37 -206 22 -95
-36 -163 -88 -204 -157 -14 -24 -28 -43 -32 -43 -4 0 -13 12 -20 28 -38 81
-48 96 -81 123 -19 16 -51 34 -70 40 -53 16 -151 19 -185 7z m245 -193 c0 -8
-2 -15 -4 -15 -2 0 -6 7 -10 15 -3 8 -1 15 4 15 6 0 10 -7 10 -15z m40 -51 c0
-8 -4 -12 -10 -9 -5 3 -10 10 -10 16 0 5 5 9 10 9 6 0 10 -7 10 -16z m0 -64
c0 -11 -9 -29 -20 -40 -12 -12 -18 -25 -15 -30 4 -6 1 -10 -4 -10 -15 0 -14
11 3 51 21 51 36 63 36 29z m-20 -196 c0 -8 -5 -12 -10 -9 -6 4 -8 11 -5 16 9
14 15 11 15 -7z m0 -180 c0 -8 -4 -12 -10 -9 -5 3 -10 10 -10 16 0 5 5 9 10 9
6 0 10 -7 10 -16z m1120 -86 c0 -18 -2 -20 -9 -8 -6 8 -7 18 -5 22 9 14 14 9
14 -14z"/>
<path d="M9340 1141 c-75 -29 -135 -69 -189 -126 -62 -65 -108 -160 -124 -250
-8 -50 -8 -79 2 -127 7 -35 28 -95 46 -133 42 -89 119 -164 212 -208 63 -29
76 -32 169 -32 65 0 112 5 130 14 16 7 40 18 54 24 36 15 129 106 145 142 42
92 44 135 6 135 -15 0 -24 -15 -42 -70 -17 -56 -32 -80 -72 -120 -27 -27 -58
-50 -68 -50 -10 0 -20 -4 -24 -9 -3 -5 -33 -12 -68 -16 -126 -14 -205 34 -246
149 -18 50 -23 86 -23 161 0 53 2 99 5 101 2 2 130 5 283 7 l279 2 -3 72 c-3
93 -33 174 -85 230 -74 80 -174 123 -282 122 -33 -1 -80 -9 -105 -18z m207
-52 c18 -12 42 -38 53 -60 16 -30 20 -58 20 -132 0 -69 -4 -98 -14 -106 -19
-16 -332 -19 -347 -4 -15 15 9 155 38 220 15 34 36 61 61 78 29 20 49 25 96
25 42 0 68 -6 93 -21z m-382 -309 c-33 -7 -54 -1 -35 10 6 4 23 4 38 1 l27 -5
-30 -6z m8 -63 c-7 -12 -33 13 -33 31 0 13 3 12 19 -4 10 -10 16 -23 14 -27z
m-33 -1 c0 -16 -18 -31 -27 -22 -8 8 5 36 17 36 5 0 10 -6 10 -14z m10 -61 c0
-8 -7 -15 -16 -15 -14 0 -14 3 -4 15 7 8 14 15 16 15 2 0 4 -7 4 -15z"/>
<path d="M6195 980 c4 -6 11 -8 16 -5 14 9 11 15 -7 15 -8 0 -12 -5 -9 -10z"/>
<path d="M3736 971 c-4 -5 -2 -12 3 -15 5 -4 12 -2 15 3 4 5 2 12 -3 15 -5 4
-12 2 -15 -3z"/>
<path d="M11012 440 c-18 -29 -15 -38 4 -12 9 13 14 25 12 27 -2 2 -9 -5 -16
-15z"/>
<path d="M10416 191 c-4 -5 -2 -12 3 -15 5 -4 12 -2 15 3 4 5 2 12 -3 15 -5 4
-12 2 -15 -3z"/>
<path d="M8920 180 c0 -5 4 -10 9 -10 6 0 13 5 16 10 3 6 -1 10 -9 10 -9 0
-16 -4 -16 -10z"/>
</g>
</svg>
