<?xml version="1.0" standalone="no"?>
<!DOCTYPE svg PUBLIC "-//W3C//DTD SVG 20010904//EN"
 "http://www.w3.org/TR/2001/REC-SVG-20010904/DTD/svg10.dtd">
<svg version="1.0" xmlns="http://www.w3.org/2000/svg"
 width="1200.000000pt" height="598.000000pt" viewBox="0 0 1200.000000 598.000000"
 preserveAspectRatio="xMidYMid meet">
<g transform="translate(0.000000,598.000000) scale(0.100000,-0.100000)"
fill="#000000" stroke="none">
<path d="M3895 5912 c-150 -45 -298 -135 -433 -266 -143 -138 -231 -269 -287
-426 -36 -103 -52 -176 -65 -302 -8 -78 -8 -138 0 -215 13 -132 39 -234 86
-346 67 -161 155 -283 286 -398 91 -80 235 -161 348 -197 107 -35 225 -52 350
-52 186 0 355 40 515 121 99 51 161 95 249 179 117 111 229 280 275 413 11 30
25 90 31 133 9 58 9 96 0 155 -13 91 -49 204 -85 264 -39 67 -126 139 -257
212 -67 37 -143 88 -170 112 -71 63 -128 149 -196 292 -33 70 -78 151 -101
182 -44 58 -85 90 -166 127 -43 20 -69 24 -185 26 -107 3 -147 0 -195 -14z
m213 -71 c39 -19 81 -28 90 -19 6 6 26 0 53 -17 24 -14 52 -28 62 -32 10 -3
17 -15 17 -29 0 -14 7 -27 15 -30 8 -4 15 -12 15 -19 0 -19 30 -27 47 -14 11
10 12 8 3 -17 -8 -21 -8 -30 0 -32 7 -3 24 -31 40 -63 15 -33 33 -65 39 -73 8
-10 9 -16 1 -21 -5 -3 -10 -13 -10 -21 0 -14 2 -13 16 0 8 9 20 16 25 16 11 0
11 2 0 -38 -8 -25 -7 -32 4 -32 7 0 16 8 19 18 3 9 3 1 0 -19 -3 -27 0 -38 11
-43 8 -3 15 -1 15 4 0 6 5 10 10 10 6 0 10 -12 10 -27 0 -29 25 -63 47 -63 7
0 13 -7 13 -15 0 -8 -4 -15 -10 -15 -5 0 -10 -7 -10 -15 0 -17 16 -21 22 -5 5
16 68 0 68 -17 0 -7 -7 -16 -16 -20 -12 -5 -13 -7 -3 -14 8 -5 20 -2 31 7 20
19 41 9 33 -16 -4 -14 1 -19 28 -24 19 -3 44 -17 57 -31 14 -15 35 -25 52 -25
19 0 28 -5 28 -16 0 -11 6 -14 21 -9 18 6 20 4 14 -16 -6 -18 -4 -21 9 -16 10
4 23 -1 34 -15 9 -11 29 -35 43 -52 29 -34 72 -112 76 -136 1 -8 3 -26 4 -40
1 -14 9 -33 18 -43 11 -13 15 -44 16 -109 1 -80 -1 -91 -17 -96 -21 -5 -24
-18 -5 -25 10 -3 10 -9 0 -26 -7 -11 -13 -30 -13 -41 0 -11 -4 -20 -10 -20 -5
0 -10 -8 -11 -17 0 -10 -13 -40 -29 -68 -16 -27 -39 -69 -51 -92 -14 -26 -29
-42 -38 -40 -11 1 -15 -5 -13 -20 2 -16 -2 -23 -12 -23 -9 0 -16 -4 -16 -10 0
-18 -72 -90 -83 -83 -6 4 -8 0 -4 -11 8 -21 -29 -60 -49 -52 -8 3 -17 -1 -20
-9 -4 -8 -34 -28 -69 -45 -34 -16 -68 -37 -75 -45 -7 -8 -21 -15 -31 -15 -11
0 -19 -4 -19 -9 0 -5 -22 -17 -50 -26 -27 -9 -50 -20 -50 -23 0 -4 -25 -8 -55
-9 -31 -2 -65 -9 -78 -16 -17 -11 -57 -13 -188 -8 -119 5 -171 10 -183 20 -14
11 -24 12 -57 2 -38 -12 -64 -8 -55 8 3 4 -17 14 -44 21 -28 8 -50 19 -50 27
0 16 -32 17 -47 2 -6 -6 -17 -8 -23 -4 -9 6 -9 9 1 16 20 12 2 23 -36 22 -28
-1 -39 5 -55 27 -11 16 -36 35 -55 41 -19 7 -35 17 -35 22 0 5 6 7 13 4 8 -3
20 -1 28 4 11 6 11 11 1 21 -9 9 -15 9 -23 1 -8 -8 -18 -8 -35 -1 -28 13 -38
36 -23 54 9 11 8 14 -4 14 -8 0 -17 -10 -21 -22 -6 -22 -6 -22 -22 7 -8 16
-24 38 -35 48 -23 21 -25 37 -4 37 9 0 21 -11 27 -25 13 -29 28 -33 28 -7 -1
27 -25 53 -44 46 -25 -9 -66 33 -66 68 0 15 -4 28 -10 28 -5 0 -10 -12 -10
-26 0 -14 -4 -23 -10 -19 -13 8 -13 51 1 77 14 26 3 37 -15 13 -10 -14 -15
-15 -21 -5 -5 8 -2 18 8 25 10 7 17 15 17 19 0 9 -27 8 -33 -1 -2 -5 -3 -3 -1
3 1 7 -7 30 -18 53 -11 22 -22 60 -25 83 -3 24 -11 49 -17 57 -17 22 -15 441
3 511 7 30 18 61 24 68 8 10 7 16 -2 22 -8 4 -10 13 -6 19 5 9 11 7 20 -6 17
-24 33 -8 17 17 -15 24 -16 57 -2 65 6 3 14 -4 19 -17 9 -21 10 -19 10 13 1
20 8 42 16 49 8 7 15 19 15 28 0 23 90 152 106 152 8 0 14 6 14 14 0 7 7 19
15 26 9 7 13 22 10 34 -3 12 -2 15 1 9 3 -7 10 -13 14 -13 5 0 30 22 55 49 31
33 52 48 62 44 13 -5 14 0 9 28 -6 30 -5 32 7 17 17 -21 47 -24 47 -4 0 19 85
74 126 82 19 3 34 10 34 14 0 8 110 37 168 44 19 2 36 7 39 10 9 9 41 7 61 -3z
m259 -113 c-3 -7 -5 -2 -5 12 0 14 2 19 5 13 2 -7 2 -19 0 -25z m-1167 -1014
c0 -8 -5 -12 -10 -9 -6 4 -8 11 -5 16 9 14 15 11 15 -7z m800 -904 c0 -5 -7
-10 -16 -10 -8 0 -12 5 -9 10 3 6 10 10 16 10 5 0 9 -4 9 -10z"/>
<path d="M4063 5823 c9 -2 23 -2 30 0 6 3 -1 5 -18 5 -16 0 -22 -2 -12 -5z"/>
<path d="M4490 5380 c0 -5 5 -10 10 -10 6 0 10 5 10 10 0 6 -4 10 -10 10 -5 0
-10 -4 -10 -10z"/>
<path d="M4510 5340 c0 -5 7 -10 15 -10 8 0 15 5 15 10 0 6 -7 10 -15 10 -8 0
-15 -4 -15 -10z"/>
<path d="M3322 5195 c0 -16 2 -22 5 -12 2 9 2 23 0 30 -3 6 -5 -1 -5 -18z"/>
<path d="M4660 5206 c0 -9 5 -16 10 -16 6 0 10 4 10 9 0 6 -4 13 -10 16 -5 3
-10 -1 -10 -9z"/>
<path d="M4884 5055 c-19 -14 -18 -14 4 -15 13 0 22 6 22 15 0 8 -1 15 -3 15
-2 0 -12 -7 -23 -15z"/>
<path d="M5122 4690 c0 -14 2 -19 5 -12 2 6 2 18 0 25 -3 6 -5 1 -5 -13z"/>
<path d="M3500 4176 c0 -9 5 -16 10 -16 6 0 10 4 10 9 0 6 -4 13 -10 16 -5 3
-10 -1 -10 -9z"/>
<path d="M4820 4050 c0 -5 5 -10 10 -10 6 0 10 5 10 10 0 6 -4 10 -10 10 -5 0
-10 -4 -10 -10z"/>
<path d="M3644 4001 c9 -10 16 -22 15 -27 -3 -19 1 -34 11 -34 17 0 11 52 -7
66 -27 20 -39 17 -19 -5z"/>
<path d="M4416 3885 c-3 -9 0 -15 9 -15 16 0 20 16 6 24 -5 3 -11 -1 -15 -9z"/>
<path d="M4520 3891 c0 -5 7 -11 15 -15 9 -3 15 0 15 9 0 8 -7 15 -15 15 -8 0
-15 -4 -15 -9z"/>
<path d="M3366 5795 c4 -8 11 -15 16 -15 6 0 5 6 -2 15 -7 8 -14 15 -16 15 -2
0 -1 -7 2 -15z"/>
<path d="M3200 5640 c0 -5 5 -10 10 -10 6 0 10 5 10 10 0 6 -4 10 -10 10 -5 0
-10 -4 -10 -10z"/>
<path d="M3056 5331 c-4 -5 -2 -12 3 -15 5 -4 12 -2 15 3 4 5 2 12 -3 15 -5 4
-12 2 -15 -3z"/>
<path d="M5240 5160 c0 -5 4 -10 9 -10 6 0 13 5 16 10 3 6 -1 10 -9 10 -9 0
-16 -4 -16 -10z"/>
<path d="M1870 3403 c-214 -33 -414 -179 -517 -378 -74 -142 -95 -327 -51
-456 58 -173 166 -289 327 -350 116 -44 275 -43 384 3 93 39 186 107 235 172
97 131 134 265 127 466 -4 130 -25 220 -74 323 -37 78 -111 155 -177 187 -73
34 -169 47 -254 33z m161 -107 c-17 -20 1 -28 37 -15 28 10 34 7 71 -28 23
-21 41 -43 41 -48 0 -6 9 -16 20 -23 12 -7 18 -17 14 -23 -4 -7 -12 -5 -23 5
-10 9 -33 16 -52 16 -19 0 -43 7 -53 15 -28 21 -46 19 -46 -6 0 -32 -34 -20
-38 13 -2 16 -11 30 -22 33 -11 3 -17 12 -14 20 4 8 -5 15 -26 20 -18 4 -28
11 -23 15 4 5 28 10 53 13 25 2 51 4 59 5 10 2 11 -1 2 -12z m-306 -55 c-8
-13 -72 -34 -88 -28 -7 3 -4 7 8 12 11 3 27 10 35 15 20 12 53 12 45 1z m140
-15 c37 -10 51 -18 53 -34 2 -13 -4 -22 -17 -27 -11 -3 -34 -23 -52 -43 l-33
-37 120 -3 c110 -3 120 -1 133 18 7 11 19 20 27 20 15 0 104 -58 104 -68 0 -4
-11 -20 -24 -37 l-24 -30 5 -277 6 -278 -39 -16 c-45 -19 -67 -10 -72 27 l-3
25 -179 2 c-149 2 -180 0 -180 -11 0 -8 -10 -26 -21 -41 -15 -19 -29 -26 -47
-24 -40 5 -50 36 -40 114 10 76 5 545 -7 587 -7 24 -5 27 17 27 13 0 43 -9 66
-20 22 -11 57 -20 76 -20 29 0 36 4 45 31 14 40 14 96 1 104 -14 9 -2 25 18
25 9 -1 40 -7 67 -14z m-172 -43 c-7 -2 -19 -2 -25 0 -7 3 -2 5 12 5 14 0 19
-2 13 -5z m-206 -190 c-2 -16 -2 -75 2 -133 4 -59 2 -121 -3 -141 -8 -30 -6
-44 11 -77 12 -26 18 -52 15 -69 l-5 -28 -13 35 -12 35 -1 -56 c-1 -31 5 -75
13 -97 14 -38 13 -41 -3 -39 -13 1 -17 7 -13 21 4 15 1 18 -15 14 -17 -4 -19
-2 -15 15 3 12 -1 23 -12 29 -9 5 -16 18 -16 28 0 25 -9 25 -26 3 -11 -15 -13
-16 -14 -2 0 8 5 20 11 26 8 8 8 17 0 31 -15 27 -14 74 3 144 11 47 11 55 -1
51 -7 -3 -13 0 -13 6 0 6 5 11 10 11 6 0 10 16 10 35 0 19 -4 35 -10 35 -5 0
-10 7 -10 16 0 14 3 14 15 4 13 -11 15 -9 15 13 0 13 7 30 15 37 8 7 15 23 15
37 0 15 8 27 23 33 12 5 24 9 26 9 2 1 1 -11 -2 -26z m783 -42 c0 -6 -4 -13
-10 -16 -5 -3 -10 -20 -10 -38 0 -20 -3 -28 -10 -21 -12 12 6 84 20 84 6 0 10
-4 10 -9z m17 -63 c-3 -7 -5 -2 -5 12 0 14 2 19 5 13 2 -7 2 -19 0 -25z m0
-90 c-2 -13 -4 -5 -4 17 -1 22 1 32 4 23 2 -10 2 -28 0 -40z m-17 -38 c0 -5
-4 -10 -10 -10 -5 0 -10 5 -10 10 0 6 5 10 10 10 6 0 10 -4 10 -10z m-1 -137
c-1 -38 -1 -38 -9 -9 -8 27 -6 46 6 46 2 0 4 -17 3 -37z m-298 -256 c7 7 19 1
38 -16 24 -21 26 -28 14 -34 -9 -6 -21 -3 -32 7 -19 18 -41 21 -41 7 0 -6 5
-13 12 -17 7 -5 5 -11 -7 -21 -22 -15 -125 -18 -125 -3 0 16 -38 11 -48 -6 -6
-11 -14 -14 -23 -8 -15 9 -20 10 -56 12 -13 1 -23 9 -23 17 0 8 -5 15 -11 15
-6 0 -3 7 6 16 9 9 19 13 23 10 3 -4 1 -11 -6 -15 -9 -5 -2 -8 17 -9 18 0 32
5 35 15 4 9 4 18 1 21 -3 3 -5 0 -5 -6 0 -7 -4 -12 -10 -12 -5 0 -10 8 -10 18
0 16 11 18 94 20 87 2 94 1 99 -18 3 -11 10 -20 16 -20 6 0 8 7 5 15 -4 8 -3
23 1 33 6 15 8 14 16 -7 7 -17 13 -21 20 -14z m-411 -17 c0 -5 -4 -10 -10 -10
-5 0 -10 5 -10 10 0 6 5 10 10 10 6 0 10 -4 10 -10z"/>
<path d="M2090 3259 c0 -19 41 -69 56 -69 19 0 18 19 -2 27 -8 3 -20 16 -25
29 -9 24 -29 33 -29 13z"/>
<path d="M1680 2965 l0 -75 180 0 c99 0 183 -1 188 -2 4 -2 8 32 10 74 l3 77
-191 1 -190 0 0 -75z"/>
<path d="M1680 2775 l0 -74 183 -3 c100 -2 187 -2 192 0 6 1 9 33 7 77 l-4 75
-189 0 -189 0 0 -75z"/>
<path d="M1680 2583 l0 -73 175 -1 c96 -1 181 -2 188 -3 8 -1 12 20 12 72 l0
73 -188 2 -187 2 0 -72z"/>
<path d="M1428 2611 c-12 -4 -15 -10 -8 -21 7 -11 12 -12 21 -3 16 16 8 32
-13 24z"/>
<path d="M2325 3400 c3 -5 10 -10 16 -10 5 0 9 5 9 10 0 6 -7 10 -16 10 -8 0
-12 -4 -9 -10z"/>
<path d="M3690 3235 c7 -8 20 -15 29 -15 13 1 13 3 -3 15 -26 19 -42 19 -26 0z"/>
<path d="M9785 3239 c-11 -17 1 -21 15 -4 8 9 8 15 2 15 -6 0 -14 -5 -17 -11z"/>
<path d="M10045 3230 c20 -22 31 -20 22 5 -4 8 -14 15 -23 15 -16 0 -16 -2 1
-20z"/>
<path d="M2725 3228 c-2 -7 -6 -31 -10 -52 -4 -22 -16 -60 -27 -85 -31 -67
-103 -175 -133 -197 -14 -10 -25 -24 -25 -31 0 -22 35 -14 60 12 13 14 27 25
32 25 5 0 21 -26 36 -57 22 -47 32 -58 51 -58 13 0 29 8 35 18 21 32 -27 86
-99 110 -5 2 14 30 43 62 28 33 52 63 52 67 0 4 32 8 71 8 69 0 71 -1 66 -22
-3 -13 -10 -38 -14 -57 -5 -19 -13 -36 -19 -38 -6 -2 -18 7 -27 20 -19 29 -74
54 -88 40 -13 -13 48 -106 66 -99 29 11 24 -13 -14 -70 -36 -55 -71 -87 -178
-164 -45 -31 -55 -50 -27 -50 18 0 106 47 169 90 60 41 136 128 171 194 l29
56 64 0 64 0 -6 -32 c-3 -18 -15 -60 -28 -93 -16 -44 -38 -75 -81 -118 -33
-32 -71 -62 -84 -67 -23 -9 -24 -13 -18 -72 3 -37 1 -74 -5 -91 -8 -20 -8 -34
0 -48 15 -29 66 -22 91 12 24 32 17 66 -28 125 l-33 43 41 13 c83 25 208 169
208 240 0 13 5 30 10 38 7 11 13 6 25 -25 41 -104 54 -124 114 -187 l64 -68
46 24 c25 14 56 27 69 31 13 4 22 14 22 26 0 15 -7 19 -33 19 -45 0 -123 41
-175 91 -44 42 -102 116 -102 130 0 4 60 6 133 5 72 -2 138 -1 145 2 22 8 13
30 -27 61 -21 17 -43 31 -48 31 -5 0 -22 -13 -38 -30 -27 -28 -34 -30 -101
-30 -40 0 -75 3 -77 8 -2 4 1 41 7 83 7 47 18 85 29 97 14 15 15 21 5 29 -7 6
-30 14 -52 17 -21 4 -47 13 -57 19 -30 19 -42 -3 -24 -40 12 -23 15 -55 13
-120 l-3 -88 -49 -3 c-63 -4 -77 9 -42 41 14 13 26 29 26 34 0 12 -64 63 -78
63 -5 0 -17 -9 -27 -20 -14 -15 -31 -20 -72 -20 -29 0 -53 3 -53 6 0 17 25 46
51 60 30 15 30 16 13 35 -9 10 -22 19 -28 19 -6 0 -22 9 -36 20 -29 23 -49 25
-55 8z"/>
<path d="M9517 3234 c-3 -3 -3 -28 0 -54 4 -31 1 -50 -6 -54 -7 -4 -31 2 -54
13 -23 11 -45 17 -48 13 -4 -4 -4 -27 1 -52 18 -92 20 -90 -89 -147 -55 -29
-112 -53 -128 -53 -17 0 -32 -3 -36 -6 -6 -7 54 -104 65 -104 4 0 46 41 94 90
58 60 91 87 97 81 7 -7 7 -36 1 -86 -11 -83 -4 -99 38 -93 15 2 28 15 37 36
l15 32 78 0 c66 0 79 -3 84 -17 16 -53 43 -66 75 -37 18 16 19 27 13 145 -7
120 -6 128 14 144 11 10 18 24 15 32 -3 8 -24 23 -46 34 l-40 21 -24 -26 c-19
-21 -33 -26 -69 -26 -42 0 -44 1 -33 21 6 12 20 24 30 26 10 3 19 14 19 24 0
26 -84 61 -103 43z m153 -183 c0 -22 -4 -41 -10 -43 -5 -1 -45 -1 -87 2 l-78
5 -3 38 -3 37 90 0 91 0 0 -39z m-2 -124 l-3 -42 -87 -3 -88 -3 0 44 c0 24 2
46 4 48 2 2 43 3 91 1 l86 -4 -3 -41z"/>
<path d="M7320 3209 c0 -11 5 -17 10 -14 6 3 10 13 10 21 0 8 -4 14 -10 14 -5
0 -10 -9 -10 -21z"/>
<path d="M10010 3215 c7 -9 15 -13 17 -11 7 7 -7 26 -19 26 -6 0 -6 -6 2 -15z"/>
<path d="M3870 3201 c0 -10 7 -22 16 -25 10 -4 14 -16 12 -38 -3 -32 -4 -33
-53 -33 -27 1 -65 8 -84 18 -19 9 -38 17 -43 17 -4 0 -8 -9 -8 -19 0 -10 16
-33 35 -50 29 -25 45 -31 80 -31 26 0 45 -5 45 -11 0 -17 -84 -148 -135 -209
-35 -42 -45 -62 -43 -85 2 -20 11 -34 28 -42 20 -10 29 -10 45 1 11 7 32 35
47 62 15 27 39 59 53 72 29 24 67 29 82 10 6 -7 13 -33 16 -56 4 -36 2 -47
-15 -60 -11 -10 -42 -38 -68 -64 -33 -31 -51 -58 -55 -82 -21 -111 54 -166
227 -166 87 0 147 15 163 40 12 20 -5 60 -30 70 -16 6 -48 4 -97 -6 -40 -9
-95 -14 -122 -11 -38 3 -55 11 -73 32 -16 18 -22 34 -17 48 7 25 63 87 77 87
5 0 7 -17 4 -38 -2 -21 0 -46 5 -55 12 -22 61 -22 79 -1 9 11 14 42 14 86 l0
69 126 48 c70 26 138 55 153 64 22 15 26 25 26 63 0 34 -6 51 -24 69 -30 30
-84 40 -129 26 -40 -13 -130 -101 -148 -143 -6 -15 -17 -28 -24 -28 -7 0 -19
10 -28 23 -8 13 -30 28 -50 34 -26 8 -42 7 -65 -3 -35 -14 -52 -3 -31 22 7 8
26 43 43 76 26 51 38 63 73 77 49 19 93 55 93 76 0 21 -45 48 -68 41 -14 -5
-24 1 -36 19 -13 20 -25 25 -56 25 -33 0 -40 -4 -40 -19z m115 -51 c3 -6 -1
-13 -10 -16 -19 -8 -30 0 -20 15 8 14 22 14 30 1z m273 -217 c3 -18 -15 -34
-95 -87 -148 -100 -159 -85 -34 44 58 60 74 71 98 68 20 -2 29 -9 31 -25z"/>
<path d="M4120 3210 c0 -5 5 -10 10 -10 6 0 10 5 10 10 0 6 -4 10 -10 10 -5 0
-10 -4 -10 -10z"/>
<path d="M8090 3191 c0 -10 7 -21 15 -25 9 -3 15 -18 15 -35 0 -28 -33 -82
-156 -255 -18 -26 -34 -56 -34 -67 0 -10 29 -62 64 -116 65 -100 117 -198 131
-243 17 -57 59 -75 103 -44 26 18 28 52 7 98 -9 18 -62 85 -119 151 -58 65
-107 126 -109 135 -8 32 27 84 129 190 55 58 104 113 107 123 12 31 -11 67
-55 87 -24 11 -55 20 -70 20 -21 0 -28 -5 -28 -19z"/>
<path d="M11250 3192 c0 -11 7 -22 15 -26 9 -3 15 -18 15 -39 0 -26 -20 -62
-90 -162 -49 -70 -92 -136 -95 -146 -4 -13 21 -62 79 -154 47 -75 94 -162 106
-193 12 -31 28 -63 37 -69 35 -27 79 -9 96 38 10 30 -31 96 -129 208 -55 62
-103 123 -109 137 -14 37 13 79 127 196 54 56 101 112 104 125 7 26 -16 67
-46 83 -10 6 -40 13 -65 16 -41 6 -45 5 -45 -14z"/>
<path d="M10268 3182 c-24 -5 -23 -17 3 -43 20 -20 21 -28 15 -118 -16 -245
-18 -368 -7 -423 25 -120 106 -182 236 -183 58 0 81 5 135 31 72 34 154 109
200 181 55 86 30 101 -38 23 -78 -91 -176 -140 -279 -140 -73 0 -128 24 -155
68 -39 64 -36 231 8 406 23 90 21 134 -8 163 -25 25 -79 42 -110 35z"/>
<path d="M7085 3171 c-3 -6 1 -13 8 -18 32 -19 37 -48 27 -179 -13 -181 -12
-359 2 -407 7 -23 31 -60 53 -83 30 -31 55 -47 99 -59 145 -42 299 35 415 207
17 26 31 51 31 57 0 6 -8 11 -18 11 -9 0 -33 -21 -52 -47 -43 -57 -115 -108
-183 -128 -66 -20 -153 -18 -197 3 -20 10 -44 34 -57 57 -20 34 -23 54 -23
145 0 76 7 135 25 215 14 60 25 125 25 143 0 24 -9 42 -29 63 -24 23 -38 29
-75 29 -24 0 -47 -4 -51 -9z"/>
<path d="M9861 3135 c-11 -25 -32 -61 -47 -80 -15 -20 -24 -39 -20 -43 4 -3
35 8 69 25 34 17 74 36 90 42 15 6 27 16 27 23 0 7 -23 28 -50 45 l-49 33 -20
-45z"/>
<path d="M3208 3154 c-3 -3 9 -28 28 -56 19 -27 34 -54 34 -58 0 -14 31 -20
50 -10 25 13 34 44 20 70 -6 12 -26 30 -43 40 -31 19 -77 26 -89 14z"/>
<path d="M9195 3140 c-3 -5 10 -29 29 -54 19 -25 37 -54 41 -65 8 -27 35 -34
56 -15 26 23 24 66 -3 91 -24 21 -88 53 -106 53 -6 0 -13 -4 -17 -10z"/>
<path d="M5305 3132 c-41 -9 -72 -55 -55 -82 6 -9 12 -9 28 1 17 10 23 10 36
0 11 -10 16 -31 16 -72 0 -63 2 -61 -73 -74 -29 -5 -47 -1 -73 15 -20 11 -40
18 -45 15 -17 -11 -9 -41 20 -75 26 -32 33 -35 77 -33 27 2 60 4 74 5 24 3 25
1 28 -64 l3 -67 -52 -26 c-41 -21 -59 -25 -90 -20 -47 8 -69 -6 -69 -45 0 -26
14 -44 56 -67 17 -9 26 -8 50 8 16 10 33 19 37 19 4 0 16 -20 26 -44 11 -24
26 -46 35 -49 9 -4 27 3 43 17 21 18 27 33 28 67 0 24 -2 54 -6 65 -6 16 -2
27 14 41 57 51 200 109 239 98 42 -13 68 -46 68 -84 -1 -41 -11 -57 -57 -90
-33 -22 -80 -30 -102 -17 -15 10 -14 38 4 62 8 10 15 25 15 32 0 24 -29 12
-59 -25 -30 -37 -39 -80 -25 -118 4 -9 24 -25 47 -36 35 -18 45 -19 85 -9 89
22 152 68 178 129 20 47 17 80 -9 126 -28 49 -88 85 -143 85 -47 0 -151 -32
-211 -65 -23 -12 -44 -20 -47 -17 -3 3 -6 32 -6 64 0 57 0 58 37 73 21 9 48
26 60 37 42 39 25 74 -41 85 -34 5 -35 4 -33 -23 1 -20 -3 -29 -15 -32 -12 -2
-18 3 -18 15 0 11 6 25 12 31 7 7 13 18 13 25 1 7 5 25 9 40 6 20 5 33 -5 42
-21 21 -81 42 -104 37z m43 -534 c-3 -25 -34 -36 -51 -19 -14 14 9 41 35 41
14 0 19 -6 16 -22z"/>
<path d="M6130 3092 c0 -4 9 -26 21 -47 16 -33 19 -51 14 -100 -11 -121 -8
-220 9 -272 27 -82 129 -183 184 -183 12 0 29 11 38 24 14 23 14 28 -1 61 -19
38 -16 73 9 128 22 47 23 71 6 74 -11 3 -27 -18 -49 -59 -18 -35 -40 -70 -48
-78 -12 -13 -16 -12 -33 10 -11 14 -26 44 -34 68 -12 33 -13 56 -5 105 5 34
17 86 26 115 15 49 15 56 0 88 -12 25 -30 40 -63 54 -48 21 -74 25 -74 12z"/>
<path d="M5556 3051 c-4 -5 -2 -12 3 -15 5 -4 12 -2 15 3 4 5 2 12 -3 15 -5 4
-12 2 -15 -3z"/>
<path d="M4440 3004 c0 -8 5 -12 10 -9 6 4 8 11 5 16 -9 14 -15 11 -15 -7z"/>
<path d="M5763 2980 c-35 -8 -65 -26 -100 -59 -31 -30 -29 -45 5 -37 61 15
120 18 126 7 4 -6 -3 -25 -14 -42 -12 -16 -19 -33 -16 -36 4 -4 21 -1 39 5 19
7 46 12 60 12 21 0 31 8 44 34 15 33 15 35 -7 66 -13 18 -38 39 -56 46 -37 15
-35 15 -81 4z"/>
<path d="M9778 2975 c-2 -3 30 -41 73 -85 80 -84 109 -97 129 -59 26 47 -22
96 -130 133 -48 17 -64 19 -72 11z"/>
<path d="M6572 2941 c-18 -3 -33 -10 -33 -16 0 -5 20 -12 44 -15 24 -3 56 -14
71 -23 36 -24 62 -69 70 -120 4 -22 12 -47 18 -54 6 -7 23 -13 39 -13 32 0 59
31 59 68 0 36 -24 84 -59 118 -43 42 -142 68 -209 55z"/>
<path d="M6420 2905 c0 -8 4 -15 10 -15 5 0 7 7 4 15 -4 8 -8 15 -10 15 -2 0
-4 -7 -4 -15z"/>
<path d="M4440 2841 c0 -5 7 -11 14 -14 10 -4 13 -1 9 9 -6 15 -23 19 -23 5z"/>
<path d="M9542 2775 c6 -47 -7 -70 -33 -60 -19 7 -352 25 -358 19 -2 -2 2 -16
10 -30 l14 -26 137 7 c87 4 138 3 138 -3 0 -36 -273 -222 -327 -222 -7 0 -13
-9 -13 -20 0 -11 4 -20 10 -20 17 0 103 30 160 56 82 38 192 108 223 143 15
17 31 31 37 31 6 0 6 -26 2 -67 -4 -38 -7 -99 -7 -138 0 -69 0 -70 27 -73 19
-2 36 5 53 22 24 24 25 30 20 98 -3 40 -8 96 -10 125 -4 42 -2 51 9 47 7 -3
18 -15 23 -27 21 -45 94 -116 177 -171 71 -46 89 -55 105 -46 11 5 21 14 23
19 1 5 23 20 47 33 24 13 44 27 45 33 1 5 -26 13 -59 17 -91 12 -175 44 -251
96 -37 26 -69 52 -71 58 -2 7 51 10 163 10 116 -1 168 2 171 10 2 7 -20 31
-49 54 l-53 42 -32 -35 -31 -35 -109 -3 c-92 -3 -108 -2 -111 12 -1 9 4 22 13
29 27 23 16 38 -35 49 -28 6 -54 11 -57 11 -3 0 -3 -20 -1 -45z"/>
<path d="M11316 2812 c-2 -4 4 -13 14 -19 15 -10 17 -9 13 8 -5 20 -18 25 -27
11z"/>
<path d="M7520 2760 c0 -5 4 -10 9 -10 6 0 13 5 16 10 3 6 -1 10 -9 10 -9 0
-16 -4 -16 -10z"/>
<path d="M10720 2760 c0 -5 4 -10 9 -10 6 0 13 5 16 10 3 6 -1 10 -9 10 -9 0
-16 -4 -16 -10z"/>
<path d="M10785 2756 c-11 -8 -14 -15 -8 -19 6 -4 16 0 23 8 17 21 8 28 -15
11z"/>
<path d="M11040 2635 c0 -8 4 -15 10 -15 5 0 7 7 4 15 -4 8 -8 15 -10 15 -2 0
-4 -7 -4 -15z"/>
<path d="M11755 2621 c-44 -26 -68 -68 -68 -117 0 -74 62 -134 139 -134 65 0
134 71 134 137 0 15 -9 43 -20 61 -41 67 -124 91 -185 53z m109 -46 c13 -9 29
-29 36 -45 10 -25 9 -34 -6 -61 -11 -18 -32 -37 -47 -42 -53 -17 -107 25 -107
84 0 27 53 79 80 79 11 0 31 -7 44 -15z"/>
<path d="M2707 2591 c-4 -19 -26 -46 -62 -77 -30 -26 -55 -55 -55 -64 0 -25
21 -40 58 -40 25 0 42 8 63 31 38 41 54 99 39 145 -6 19 -17 34 -25 34 -7 0
-15 -13 -18 -29z"/>
<path d="M3035 2607 c-3 -7 1 -27 10 -43 8 -16 15 -48 15 -72 0 -24 5 -52 10
-63 26 -47 108 5 95 61 -10 40 -31 66 -80 100 -34 23 -46 28 -50 17z"/>
<path d="M3210 2611 c0 -5 12 -22 28 -39 15 -16 38 -57 51 -91 13 -35 29 -65
37 -68 26 -10 65 7 74 32 14 38 -7 82 -54 114 -75 51 -136 74 -136 52z"/>
<path d="M8736 2593 c8 -8 21 -12 29 -9 26 9 16 25 -14 24 -26 -1 -28 -3 -15
-15z"/>
<path d="M3480 2576 c0 -9 5 -16 10 -16 6 0 10 4 10 9 0 6 -4 13 -10 16 -5 3
-10 -1 -10 -9z"/>
<path d="M4436 2571 c-3 -5 10 -21 30 -36 19 -15 56 -58 81 -96 39 -58 50 -69
74 -69 19 0 34 8 44 24 15 22 15 27 0 57 -24 44 -61 76 -123 105 -54 25 -97
31 -106 15z"/>
<path d="M8480 2572 c0 -4 18 -26 41 -47 22 -22 50 -56 61 -75 50 -84 93 -102
124 -55 15 23 15 29 3 52 -23 44 -71 85 -127 110 -52 23 -102 30 -102 15z"/>
<path d="M5885 2471 c-7 -12 12 -24 25 -16 11 7 4 25 -10 25 -5 0 -11 -4 -15
-9z"/>
<path d="M6092 2471 c2 -7 7 -12 11 -12 12 1 9 15 -3 20 -7 2 -11 -2 -8 -8z"/>
<path d="M8495 2360 c-4 -6 -3 -16 3 -22 6 -6 12 -6 17 2 4 6 3 16 -3 22 -6 6
-12 6 -17 -2z"/>
<path d="M3190 2350 c-13 -8 -12 -10 3 -10 9 0 17 5 17 10 0 12 -1 12 -20 0z"/>
<path d="M11197 2354 c-8 -8 1 -24 14 -24 5 0 9 7 9 15 0 15 -12 20 -23 9z"/>
<path d="M2960 2340 c0 -5 5 -10 10 -10 6 0 10 5 10 10 0 6 -4 10 -10 10 -5 0
-10 -4 -10 -10z"/>
<path d="M3436 2331 c-4 -5 -2 -12 3 -15 5 -4 12 -2 15 3 4 5 2 12 -3 15 -5 4
-12 2 -15 -3z"/>
<path d="M4497 2320 c-4 -15 0 -20 14 -20 17 0 18 3 9 20 -6 11 -12 20 -14 20
-2 0 -6 -9 -9 -20z"/>
<path d="M2835 2320 c4 -6 11 -8 16 -5 14 9 11 15 -7 15 -8 0 -12 -5 -9 -10z"/>
<path d="M3230 2320 c0 -5 5 -10 10 -10 6 0 10 5 10 10 0 6 -4 10 -10 10 -5 0
-10 -4 -10 -10z"/>
<path d="M9120 2320 c0 -5 5 -10 10 -10 6 0 10 5 10 10 0 6 -4 10 -10 10 -5 0
-10 -4 -10 -10z"/>
<path d="M11690 2320 c0 -5 5 -10 10 -10 6 0 10 5 10 10 0 6 -4 10 -10 10 -5
0 -10 -4 -10 -10z"/>
<path d="M3475 2311 c-7 -12 12 -24 25 -16 11 7 4 25 -10 25 -5 0 -11 -4 -15
-9z"/>
<path d="M4735 2310 c-3 -5 1 -10 9 -10 9 0 16 5 16 10 0 6 -4 10 -9 10 -6 0
-13 -4 -16 -10z"/>
<path d="M8480 2304 c0 -8 5 -12 10 -9 6 4 8 11 5 16 -9 14 -15 11 -15 -7z"/>
<path d="M8748 2303 c6 -2 18 -2 25 0 6 3 1 5 -13 5 -14 0 -19 -2 -12 -5z"/>
<path d="M9628 2298 c9 -9 15 -9 24 0 9 9 7 12 -12 12 -19 0 -21 -3 -12 -12z"/>
<path d="M7655 2131 c-3 -5 -1 -12 5 -16 5 -3 10 1 10 9 0 18 -6 21 -15 7z"/>
<path d="M5575 1989 c-100 -8 -198 -33 -296 -74 -206 -87 -392 -261 -493 -463
-45 -90 -72 -171 -91 -281 -19 -107 -19 -203 1 -315 36 -208 137 -399 285
-543 70 -67 129 -111 209 -156 87 -48 180 -82 281 -102 66 -14 115 -16 229
-12 161 6 235 22 365 82 108 49 203 115 271 188 44 47 65 79 82 127 21 61 22
80 22 330 0 163 -4 280 -11 305 -7 23 -28 57 -53 82 -69 69 -105 75 -443 71
-284 -3 -289 -3 -330 -27 -72 -41 -114 -124 -106 -206 5 -49 43 -117 81 -143
53 -38 95 -44 284 -41 l183 2 3 -71 c4 -88 -14 -132 -72 -174 -88 -65 -194
-98 -315 -98 -235 0 -440 148 -516 374 -19 58 -26 97 -26 168 -1 76 4 108 25
172 15 43 43 103 62 133 74 110 214 206 342 232 143 30 302 -1 420 -80 90 -60
121 -71 188 -67 50 3 72 10 106 34 59 41 92 104 93 174 0 103 -66 178 -236
269 -96 52 -197 86 -291 100 -111 16 -165 18 -253 10z m15 -88 c0 -5 -6 -12
-12 -15 -7 -3 1 -4 17 -1 69 10 224 6 285 -8 45 -10 60 -17 48 -22 -10 -4 -15
-11 -12 -16 2 -5 14 -3 24 4 16 9 25 9 43 -2 41 -26 119 -61 134 -61 23 0 86
-60 118 -114 35 -59 43 -86 25 -86 -5 0 -10 -9 -10 -20 0 -13 -7 -20 -19 -20
-10 0 -24 -7 -31 -15 -8 -9 -21 -13 -36 -9 -15 4 -24 2 -24 -5 0 -6 7 -11 15
-11 8 0 15 -4 15 -10 0 -15 -50 -12 -56 4 -3 8 -16 17 -29 20 -14 4 -30 16
-36 29 -16 30 -15 30 -37 16 -17 -10 -23 -10 -36 0 -18 15 -22 41 -6 41 6 0
10 5 10 10 0 6 -7 10 -15 10 -8 0 -15 -7 -15 -15 0 -8 -4 -15 -9 -15 -5 0 -18
-3 -28 -6 -14 -4 -15 -4 -4 4 7 5 11 15 7 20 -5 8 -15 8 -32 2 -37 -14 -49
-13 -35 4 9 11 9 16 1 21 -7 4 -17 2 -23 -4 -14 -14 -47 -15 -47 -1 0 6 6 10
13 11 6 0 1 4 -13 8 -14 3 -62 6 -106 6 -68 0 -86 -4 -104 -20 -20 -18 -23
-18 -33 -4 -10 13 -16 14 -42 3 -19 -8 -50 -11 -81 -7 -33 3 -54 1 -58 -6 -4
-6 -15 -11 -25 -11 -10 0 -24 -6 -30 -14 -9 -11 -9 -16 0 -22 6 -4 16 0 21 10
5 9 18 16 28 16 10 0 22 5 25 10 3 6 18 10 31 10 31 0 28 -24 -4 -28 -11 -2
-26 -10 -32 -18 -7 -8 -18 -14 -26 -14 -7 0 -19 -9 -27 -21 -9 -13 -17 -16
-22 -10 -10 18 -25 13 -25 -9 0 -18 -64 -90 -80 -90 -4 0 -11 -10 -14 -22 -6
-22 -7 -22 -20 -5 -11 14 -15 15 -25 4 -8 -10 -7 -19 4 -33 19 -26 19 -33 -4
-27 -12 3 -20 -2 -24 -14 -3 -10 -14 -34 -25 -53 -11 -19 -27 -59 -37 -87 -14
-43 -16 -80 -13 -195 2 -110 7 -152 21 -183 75 -167 82 -180 99 -180 13 0 98
-78 98 -90 0 -3 7 -17 16 -31 13 -18 20 -22 30 -14 9 9 15 6 24 -9 6 -12 17
-21 25 -21 8 0 20 -9 28 -20 8 -11 17 -17 20 -14 6 6 67 -14 77 -25 6 -7 48
-27 74 -35 11 -4 23 -1 28 6 8 10 11 10 15 1 6 -15 53 -18 53 -3 0 14 63 13
77 -1 14 -14 67 -3 84 17 13 16 49 19 49 5 0 -5 -6 -11 -12 -14 -7 -2 -10 -8
-6 -12 3 -3 20 3 36 15 17 13 38 20 46 17 11 -5 16 -1 16 13 0 13 24 34 73 66
39 25 74 48 76 50 2 2 -2 10 -9 19 -7 9 -8 15 -2 15 6 0 12 -5 14 -11 2 -7 13
1 23 17 15 22 21 51 23 122 3 57 -1 104 -8 121 -6 16 -25 42 -41 57 l-30 29
-174 5 c-114 3 -178 9 -186 17 -6 6 -18 9 -26 6 -17 -7 -48 21 -68 59 -13 27
-12 32 9 66 44 70 28 67 355 67 l296 0 3 -23 c2 -13 -3 -25 -12 -28 -14 -5
-23 -34 -11 -34 2 0 15 11 29 25 17 17 23 31 19 47 -5 21 -4 21 17 -5 12 -16
32 -33 44 -37 19 -8 19 -9 -6 -9 -31 -1 -35 -8 -13 -25 12 -9 15 -54 16 -264
1 -188 -2 -256 -11 -268 -10 -11 -10 -21 -2 -38 7 -17 7 -27 -1 -35 -15 -15
-37 -14 -37 2 0 6 -10 -8 -22 -33 -12 -25 -40 -62 -62 -83 -23 -21 -50 -46
-62 -57 -12 -11 -35 -20 -53 -20 -29 0 -32 -3 -27 -22 3 -13 3 -17 0 -10 -7
14 -34 16 -34 2 0 -5 -7 -10 -15 -10 -7 0 -18 -8 -24 -17 -8 -14 -12 -15 -25
-4 -14 12 -19 11 -34 -3 -10 -9 -31 -16 -45 -16 -15 0 -27 -3 -27 -7 0 -9 -49
-33 -67 -33 -22 0 -14 16 15 30 23 11 24 14 8 18 -10 2 -21 0 -25 -5 -3 -5
-23 -17 -44 -27 -26 -12 -56 -17 -90 -15 -29 2 -57 0 -64 -4 -7 -5 -16 0 -23
13 -13 24 -50 27 -50 4 0 -9 -6 -14 -12 -12 -7 3 -13 13 -13 24 0 15 -9 20
-40 24 -22 3 -46 10 -54 14 -9 6 -18 3 -26 -8 -7 -9 -19 -14 -29 -10 -22 9
-20 21 5 27 12 3 18 10 14 16 -9 15 -42 14 -49 -1 -5 -11 -7 -11 -12 0 -3 6
-12 12 -20 12 -8 0 -14 5 -14 10 0 6 -9 10 -20 10 -11 0 -23 7 -26 15 -4 8
-14 15 -23 15 -9 0 -28 11 -43 25 -17 15 -33 22 -43 18 -15 -5 -15 -3 -4 15
12 19 11 24 -3 39 -10 9 -21 13 -25 9 -5 -5 -2 -11 5 -13 17 -6 15 -33 -3 -33
-8 0 -15 6 -15 13 0 16 -101 118 -136 137 -15 8 -30 22 -32 30 -4 11 1 10 22
-4 31 -19 46 -15 27 8 -7 8 -10 19 -7 25 3 5 -3 7 -14 4 -14 -4 -20 0 -20 11
0 18 -37 76 -57 89 -19 12 -16 27 9 36 20 7 20 8 -10 19 -26 9 -32 16 -32 39
0 15 -8 42 -18 58 -11 17 -21 51 -24 75 -3 25 -9 53 -13 63 -4 10 -3 17 3 17
6 0 13 -8 16 -17 2 -10 3 32 2 92 -2 61 1 121 6 134 5 15 4 28 -3 37 -8 10 -6
19 9 39 11 13 23 41 26 60 4 19 11 35 16 35 6 0 10 11 10 24 0 14 5 28 10 31
14 9 12 42 -2 48 -7 2 -9 8 -5 13 4 5 12 2 17 -6 7 -11 11 -11 24 -1 10 9 14
22 10 36 -5 20 -3 23 15 18 25 -6 28 12 5 25 -13 7 -14 11 -3 17 7 5 14 4 17
-3 5 -16 24 -15 20 1 -2 7 17 37 40 65 24 29 39 52 33 52 -6 0 -11 4 -11 10 0
5 13 7 28 4 25 -5 29 -3 28 17 -1 12 5 24 12 26 7 3 12 -4 12 -16 0 -12 5 -21
10 -21 6 0 10 11 10 24 0 17 14 32 57 60 32 20 65 36 73 36 9 0 22 9 30 20 8
12 26 20 42 20 22 0 28 5 28 21 0 19 4 20 53 14 28 -3 64 -8 80 -11 20 -4 27
-2 27 11 0 9 15 22 33 30 38 17 47 18 47 6z m-430 -1215 c0 -11 -19 -15 -25
-6 -3 5 1 10 9 10 9 0 16 -2 16 -4z m730 -266 c0 -5 -7 -10 -15 -10 -8 0 -15
5 -15 10 0 6 7 10 15 10 8 0 15 -4 15 -10z m384 -85 c-4 -8 -8 -15 -10 -15 -2
0 -4 7 -4 15 0 8 4 15 10 15 5 0 7 -7 4 -15z"/>
<path d="M5200 1484 c0 -17 22 -14 28 4 2 7 -3 12 -12 12 -9 0 -16 -7 -16 -16z"/>
<path d="M5110 1460 c0 -5 5 -10 10 -10 6 0 10 5 10 10 0 6 -4 10 -10 10 -5 0
-10 -4 -10 -10z"/>
<path d="M5160 1444 c0 -8 5 -12 10 -9 6 3 10 10 10 16 0 5 -4 9 -10 9 -5 0
-10 -7 -10 -16z"/>
<path d="M4900 1368 c0 -19 2 -20 10 -8 13 19 13 30 0 30 -5 0 -10 -10 -10
-22z"/>
<path d="M4940 1344 c0 -8 5 -12 10 -9 6 4 8 11 5 16 -9 14 -15 11 -15 -7z"/>
<path d="M6280 1020 c0 -5 5 -10 10 -10 6 0 10 5 10 10 0 6 -4 10 -10 10 -5 0
-10 -4 -10 -10z"/>
<path d="M4900 653 c1 -16 39 -57 46 -50 4 4 2 7 -4 7 -7 0 -12 11 -12 25 0
16 -6 25 -15 25 -8 0 -15 -3 -15 -7z"/>
<path d="M5116 581 c-4 -7 -5 -15 -2 -18 9 -9 19 4 14 18 -4 11 -6 11 -12 0z"/>
<path d="M5160 580 c0 -5 5 -10 10 -10 6 0 10 5 10 10 0 6 -4 10 -10 10 -5 0
-10 -4 -10 -10z"/>
<path d="M5196 552 c-3 -6 -1 -14 5 -17 15 -10 25 3 12 16 -7 7 -13 7 -17 1z"/>
<path d="M5140 540 c0 -5 5 -10 10 -10 6 0 10 5 10 10 0 6 -4 10 -10 10 -5 0
-10 -4 -10 -10z"/>
<path d="M5300 446 c0 -9 5 -16 10 -16 6 0 10 4 10 9 0 6 -4 13 -10 16 -5 3
-10 -1 -10 -9z"/>
<path d="M5340 420 c19 -13 30 -13 30 0 0 6 -10 10 -22 10 -19 0 -20 -2 -8
-10z"/>
<path d="M5410 403 c8 -3 21 -12 28 -21 10 -14 12 -13 12 6 0 18 -6 22 -27 21
-16 0 -21 -3 -13 -6z"/>
<path d="M5910 210 c0 -5 7 -10 16 -10 8 0 12 5 9 10 -3 6 -10 10 -16 10 -5 0
-9 -4 -9 -10z"/>
<path d="M5970 210 c0 -5 5 -10 10 -10 6 0 10 5 10 10 0 6 -4 10 -10 10 -5 0
-10 -4 -10 -10z"/>
<path d="M5860 180 c0 -13 11 -13 30 0 12 8 11 10 -7 10 -13 0 -23 -4 -23 -10z"/>
<path d="M7410 1989 c-149 -13 -323 -76 -450 -162 -78 -53 -178 -146 -230
-215 -67 -90 -133 -219 -167 -328 -25 -83 -27 -100 -27 -269 0 -167 2 -186 28
-269 103 -337 357 -587 691 -679 91 -25 310 -34 409 -18 80 14 183 44 236 70
203 98 350 231 452 406 39 69 90 195 107 270 19 81 27 220 19 308 -11 121 -35
211 -83 313 -77 166 -169 281 -300 377 -39 29 -81 58 -95 66 -119 69 -259 114
-403 130 -53 6 -98 10 -99 10 -2 -1 -41 -5 -88 -10z m-23 -101 c23 11 244 5
292 -8 20 -5 52 -10 71 -10 34 -1 34 -1 15 -16 -19 -14 -17 -15 28 -9 32 5 47
4 47 -4 0 -6 6 -11 14 -11 8 0 16 -3 18 -7 2 -5 26 -20 55 -35 32 -17 59 -25
70 -21 15 6 16 4 5 -9 -11 -13 -7 -18 23 -32 19 -9 35 -24 35 -32 0 -9 6 -14
13 -11 17 6 47 -11 47 -28 0 -7 9 -16 20 -20 11 -3 25 -18 32 -33 7 -15 23
-31 35 -37 12 -5 24 -16 27 -25 3 -8 10 -22 15 -30 22 -35 61 -123 61 -136 0
-8 7 -17 15 -20 8 -4 15 -19 15 -34 0 -16 5 -32 11 -36 6 -3 9 -18 6 -32 -3
-15 1 -31 8 -37 8 -5 17 -32 21 -59 7 -49 7 -49 -20 -44 -32 6 -34 -8 -3 -32
17 -14 22 -29 22 -65 0 -36 -5 -51 -22 -65 -30 -24 -29 -38 2 -32 24 4 25 3
22 -39 -3 -24 -16 -73 -31 -108 -15 -35 -25 -70 -22 -78 3 -8 2 -12 -3 -8 -5
3 -12 -9 -16 -26 -4 -17 -13 -33 -21 -36 -8 -3 -14 -13 -14 -23 0 -10 -7 -23
-15 -30 -9 -8 -13 -21 -10 -31 4 -13 -3 -29 -22 -48 -15 -16 -37 -41 -48 -55
-11 -14 -35 -33 -52 -42 -18 -9 -33 -23 -33 -30 0 -8 -10 -14 -25 -14 -18 0
-23 -4 -19 -15 4 -8 1 -15 -5 -15 -18 0 -48 -35 -43 -50 3 -9 -1 -11 -12 -7
-19 8 -92 -28 -100 -49 -3 -8 -15 -14 -26 -14 -11 0 -20 -4 -20 -10 0 -5 -5
-10 -11 -10 -8 0 -7 5 1 15 7 9 10 18 7 21 -9 10 -27 -6 -27 -23 0 -13 -9 -15
-57 -10 -45 5 -54 4 -41 -5 14 -11 14 -13 -8 -31 -14 -10 -32 -16 -42 -13 -11
4 -51 2 -91 -4 -80 -11 -240 2 -251 20 -8 13 -58 40 -74 40 -6 0 3 -11 19 -25
24 -19 26 -24 12 -25 -10 0 -25 7 -33 15 -8 8 -32 19 -54 25 -22 6 -46 18 -55
26 -13 13 -18 14 -31 4 -8 -7 -18 -9 -22 -5 -4 4 -1 10 6 12 17 7 15 23 -4 23
-9 0 -29 8 -45 17 -26 16 -31 16 -40 3 -7 -11 -8 -9 -4 10 5 20 0 27 -22 38
-15 6 -36 12 -47 12 -19 1 -19 1 -3 11 27 16 20 31 -12 24 -25 -5 -29 -3 -35
19 -3 15 -13 26 -21 26 -9 0 -15 10 -15 25 0 14 -3 25 -7 25 -3 0 -15 -7 -25
-17 -17 -15 -18 -15 -18 0 0 10 5 17 11 17 6 0 9 8 7 17 -2 9 -13 17 -25 18
-27 2 -43 16 -25 22 19 7 15 19 -18 55 -16 18 -30 40 -30 50 0 9 -5 20 -11 23
-5 4 -9 18 -7 33 2 14 -3 27 -9 29 -7 3 -13 0 -13 -6 0 -6 -4 -11 -10 -11 -13
0 -13 43 0 56 12 12 2 76 -11 68 -5 -3 -9 -16 -9 -30 0 -14 -4 -23 -9 -20 -11
7 -12 499 0 517 6 10 9 6 9 -13 0 -15 5 -30 12 -34 8 -5 9 10 4 58 -5 54 -4
67 9 72 8 3 15 12 15 20 0 7 7 17 15 20 9 3 15 11 13 18 -3 15 33 78 44 78 4
0 8 7 8 15 0 8 -4 15 -10 15 -5 0 2 12 15 26 14 15 25 34 25 42 0 13 3 13 12
4 9 -9 7 -16 -10 -32 -26 -24 -28 -40 -7 -40 8 0 15 6 15 13 0 8 9 22 21 33
13 12 18 25 15 40 -5 18 -1 23 16 26 17 2 23 10 23 28 0 23 2 25 22 15 13 -5
23 -13 23 -17 0 -5 7 -8 15 -8 21 0 19 10 -7 37 -19 20 -19 23 -4 23 9 0 30
13 45 29 21 22 32 26 40 18 8 -8 14 -7 23 5 12 14 55 36 102 52 15 5 16 9 6
21 -20 24 12 19 39 -6 12 -12 25 -18 29 -14 4 4 1 10 -5 12 -7 3 -13 9 -13 13
0 13 32 28 92 44 34 9 57 10 65 4 7 -6 19 -6 30 0z m698 -1578 c3 -5 -1 -10
-10 -10 -9 0 -13 5 -10 10 3 6 8 10 10 10 2 0 7 -4 10 -10z"/>
<path d="M7290 1865 c-7 -8 -24 -15 -39 -16 -23 0 -24 -1 -6 -8 11 -5 28 -5
37 0 9 5 26 9 37 9 25 0 28 15 5 24 -21 8 -20 8 -34 -9z"/>
<path d="M7675 1850 c-3 -5 3 -10 14 -10 12 0 21 5 21 10 0 6 -6 10 -14 10 -8
0 -18 -4 -21 -10z"/>
<path d="M7810 1820 c0 -5 7 -10 15 -10 8 0 15 5 15 10 0 6 -7 10 -15 10 -8 0
-15 -4 -15 -10z"/>
<path d="M7000 1732 c0 -15 18 -34 29 -31 7 3 3 11 -9 21 -11 10 -20 14 -20
10z"/>
<path d="M7995 1690 c-3 -5 1 -10 10 -10 9 0 13 5 10 10 -3 6 -8 10 -10 10 -2
0 -7 -4 -10 -10z"/>
<path d="M7420 1649 c0 -8 -16 -10 -50 -5 -41 6 -50 4 -50 -9 0 -9 -9 -15 -25
-15 -14 0 -29 -8 -35 -20 -6 -12 -21 -20 -35 -20 -14 0 -48 -18 -77 -40 -29
-22 -57 -40 -61 -40 -5 0 -6 -10 -3 -22 3 -13 3 -17 0 -10 -3 6 -13 12 -21 12
-11 0 -14 -6 -10 -21 4 -14 -1 -22 -17 -29 -30 -11 -77 -75 -70 -94 7 -19 -16
-22 -34 -4 -9 9 -12 8 -12 -5 0 -9 5 -17 10 -17 6 0 10 -7 10 -15 0 -8 -7 -15
-15 -15 -11 0 -15 -11 -15 -36 0 -30 -2 -34 -14 -25 -10 9 -16 9 -21 1 -4 -6
-2 -17 4 -24 7 -9 7 -16 0 -23 -8 -8 -8 -13 0 -17 14 -9 14 -73 1 -81 -11 -7
-14 -118 -3 -129 12 -12 14 -88 2 -102 -6 -8 -8 -21 -5 -30 5 -14 9 -14 23 -3
15 13 16 11 10 -19 -6 -28 -3 -34 18 -42 14 -5 25 -16 25 -25 0 -8 5 -15 11
-15 6 0 8 -8 5 -18 -7 -20 48 -92 70 -92 16 0 19 -16 4 -25 -5 -3 -2 -13 8
-23 9 -10 20 -14 23 -9 3 4 20 -4 37 -20 56 -52 90 -73 117 -73 21 0 25 -3 17
-13 -8 -9 -1 -17 29 -31 43 -21 64 -15 33 10 -19 15 -19 15 1 10 39 -10 110
-38 119 -47 15 -14 96 -11 96 3 0 9 3 9 12 0 18 -18 77 -14 107 8 28 19 28 19
49 0 12 -11 26 -20 32 -20 13 0 13 17 0 25 -6 4 -5 13 3 25 8 13 24 20 47 21
19 0 29 3 23 6 -26 10 -13 25 16 20 20 -4 31 -2 35 8 3 8 11 15 18 15 14 0 60
42 93 84 11 14 26 25 33 26 6 0 12 4 12 9 0 5 11 23 24 39 17 19 23 36 19 50
-3 12 -1 22 5 22 6 0 13 -8 15 -17 3 -10 5 -3 6 15 1 22 6 32 17 32 12 0 15
-7 12 -25 -6 -31 8 -43 17 -16 3 11 0 29 -7 41 -11 17 -10 25 5 52 12 21 15
34 8 36 -15 5 -14 21 4 38 8 9 15 28 15 43 0 15 5 32 11 38 8 8 8 17 0 32 -9
15 -8 25 1 40 9 15 9 23 0 34 -6 7 -13 34 -13 60 -2 30 -7 48 -17 52 -8 3 -12
12 -8 21 8 21 -15 74 -32 74 -13 0 -35 43 -36 71 -1 9 -16 33 -33 53 -18 19
-33 41 -33 47 0 6 -8 9 -18 7 -10 -3 -23 1 -30 9 -8 7 -8 13 -2 13 5 0 10 7
10 15 0 8 -5 15 -12 15 -23 0 -88 53 -88 71 0 11 -7 19 -15 19 -8 0 -15 -7
-15 -15 0 -8 -7 -15 -16 -15 -10 0 -14 6 -11 15 5 11 -1 13 -26 9 l-32 -6 25
21 c14 11 28 21 33 21 4 0 7 5 7 10 0 16 -22 12 -35 -7 -15 -20 -50 -10 -41
12 6 18 5 18 -30 5 -21 -8 -31 -7 -44 5 -14 12 -29 13 -91 6 -46 -6 -78 -6
-83 0 -14 13 -46 11 -46 -2z m275 -39 c3 -5 -1 -10 -10 -10 -9 0 -13 5 -10 10
3 6 8 10 10 10 2 0 7 -4 10 -10z m-10 -79 c169 -61 303 -208 350 -386 31 -121
13 -272 -48 -390 -17 -33 -61 -90 -97 -126 -47 -48 -86 -76 -140 -101 -104
-50 -164 -62 -279 -55 -75 4 -111 11 -166 34 -148 61 -261 177 -316 326 -12
30 -23 91 -26 144 -4 70 -2 110 11 165 30 123 101 232 202 308 59 44 121 75
194 96 68 20 240 12 315 -15z"/>
<path d="M6853 1545 c-6 -14 -8 -25 -4 -25 12 0 31 23 31 37 0 21 -14 15 -27
-12z"/>
<path d="M8176 1535 c-3 -9 0 -15 9 -15 8 0 15 7 15 15 0 8 -4 15 -9 15 -5 0
-11 -7 -15 -15z"/>
<path d="M7960 1494 c0 -10 31 -36 37 -31 3 3 -2 13 -10 22 -16 15 -27 19 -27
9z"/>
<path d="M8070 1330 c0 -6 7 -13 15 -16 8 -4 15 -12 15 -20 0 -8 7 -14 15 -14
20 0 19 15 -2 40 -19 21 -43 27 -43 10z"/>
<path d="M6700 1250 c0 -19 3 -21 12 -12 9 9 9 15 0 24 -9 9 -12 7 -12 -12z"/>
<path d="M6670 845 c0 -8 5 -15 10 -15 6 0 10 7 10 15 0 8 -4 15 -10 15 -5 0
-10 -7 -10 -15z"/>
<path d="M8316 801 c-4 -7 -5 -15 -2 -18 9 -9 19 4 14 18 -4 11 -6 11 -12 0z"/>
<path d="M8140 781 c0 -12 5 -21 10 -21 6 0 10 6 10 14 0 8 -4 18 -10 21 -5 3
-10 -3 -10 -14z"/>
<path d="M6700 774 c0 -8 5 -12 10 -9 6 4 8 11 5 16 -9 14 -15 11 -15 -7z"/>
<path d="M6920 706 c0 -9 7 -16 16 -16 9 0 14 5 12 12 -6 18 -28 21 -28 4z"/>
<path d="M7960 540 c0 -5 5 -10 10 -10 6 0 10 5 10 10 0 6 -4 10 -10 10 -5 0
-10 -4 -10 -10z"/>
<path d="M6802 528 c6 -18 28 -21 28 -4 0 9 -7 16 -16 16 -9 0 -14 -5 -12 -12z"/>
<path d="M8220 530 c0 -5 5 -10 10 -10 6 0 10 5 10 10 0 6 -4 10 -10 10 -5 0
-10 -4 -10 -10z"/>
<path d="M8180 495 c0 -8 7 -15 15 -15 8 0 15 7 15 15 0 8 -7 15 -15 15 -8 0
-15 -7 -15 -15z"/>
<path d="M6860 475 c0 -8 5 -15 10 -15 6 0 10 7 10 15 0 8 -4 15 -10 15 -5 0
-10 -7 -10 -15z"/>
<path d="M7812 431 c4 -13 18 -16 19 -4 0 4 -5 9 -11 12 -7 2 -11 -2 -8 -8z"/>
<path d="M7757 414 c-11 -11 3 -24 18 -18 8 4 12 10 9 15 -6 11 -18 12 -27 3z"/>
<path d="M7195 400 c4 -6 11 -8 16 -5 14 9 11 15 -7 15 -8 0 -12 -5 -9 -10z"/>
<path d="M7295 210 c-3 -5 3 -10 15 -10 12 0 18 5 15 10 -3 6 -10 10 -15 10
-5 0 -12 -4 -15 -10z"/>
<path d="M1694 1961 c-23 -10 -57 -35 -77 -55 -69 -69 -68 -50 -65 -912 3
-728 4 -771 22 -804 60 -114 173 -160 284 -115 23 10 58 36 78 58 64 76 63 63
63 886 -1 803 0 793 -54 872 -33 47 -113 89 -169 89 -23 0 -59 -9 -82 -19z
m132 -86 c-18 -13 -17 -14 8 -21 14 -3 26 -13 26 -21 0 -9 8 -22 18 -29 16
-12 17 -62 20 -770 2 -633 0 -760 -11 -778 -8 -12 -18 -36 -21 -54 -5 -20 -14
-32 -24 -32 -8 0 -23 -6 -31 -14 -22 -20 -71 -9 -71 15 0 11 -4 19 -10 19 -5
0 -10 7 -10 15 0 8 -7 15 -15 15 -8 0 -15 -7 -15 -15 0 -8 7 -15 16 -15 9 0
14 -5 12 -12 -6 -16 -28 -22 -28 -7 0 6 -8 18 -17 25 -14 10 -15 15 -6 25 8 8
9 17 4 23 -12 14 -19 1531 -7 1573 4 18 14 37 21 43 7 6 39 14 71 19 88 13 92
13 70 -4z"/>
<path d="M1702 1848 c-15 -15 -16 -38 -2 -38 6 0 10 6 10 14 0 10 11 14 35 13
22 -1 35 -6 35 -14 0 -7 9 -13 20 -13 29 0 25 19 -7 32 -42 16 -78 19 -91 6z"/>
<path d="M1752 198 c3 -7 20 -14 39 -15 19 -1 25 1 14 4 -11 3 -24 9 -29 14
-14 13 -28 11 -24 -3z"/>
<path d="M2858 1966 c-41 -15 -107 -64 -137 -103 -19 -23 -82 -92 -480 -523
-84 -91 -158 -176 -165 -190 -8 -14 -19 -49 -26 -77 -11 -47 -10 -61 10 -124
24 -80 -17 -35 510 -555 335 -329 333 -328 515 -329 119 0 121 0 197 37 56 28
90 53 130 97 50 56 63 80 162 301 13 30 85 190 159 355 117 262 148 335 163
393 6 21 44 -5 44 -30 0 -12 74 -188 164 -392 91 -204 169 -382 174 -396 10
-25 54 -123 98 -215 46 -99 126 -154 222 -155 63 0 116 24 159 74 39 44 56 96
51 155 -4 42 -23 89 -116 291 -16 36 -42 91 -56 123 -90 197 -288 631 -327
715 -22 46 -39 85 -39 87 0 1 -26 58 -58 126 -32 68 -67 146 -78 173 -11 28
-41 72 -69 101 -37 38 -63 55 -99 65 -40 11 -58 11 -95 1 -52 -14 -100 -47
-134 -94 -13 -18 -51 -93 -85 -167 -33 -74 -88 -196 -122 -270 -35 -74 -141
-306 -236 -515 -194 -425 -197 -430 -207 -430 -13 0 -537 529 -537 542 0 7 4
13 9 13 16 0 547 577 565 614 21 45 22 130 2 177 -20 47 -94 112 -144 127 -50
15 -77 15 -124 -2z m1077 -75 c3 -5 1 -13 -5 -16 -15 -9 -43 3 -35 15 8 13 32
13 40 1z m-985 -11 c0 -5 -6 -10 -14 -10 -8 0 -18 5 -21 10 -3 6 3 10 14 10
12 0 21 -4 21 -10z m-51 -21 c24 -9 35 -9 44 0 6 6 18 11 27 11 17 0 60 -43
60 -59 0 -5 5 -11 11 -13 8 -3 8 -10 -2 -26 -10 -16 -11 -25 -3 -30 6 -4 13
-15 17 -24 4 -12 1 -18 -8 -18 -8 0 -21 -13 -29 -29 -9 -16 -23 -31 -32 -35
-16 -6 -16 -8 1 -20 14 -10 15 -15 5 -21 -9 -5 -15 -4 -18 3 -2 7 -12 12 -23
12 -10 0 -19 7 -19 15 0 8 7 15 15 15 8 0 15 5 15 10 0 11 -11 13 -34 4 -23
-9 -20 -27 9 -58 14 -15 25 -30 25 -33 0 -3 -9 -3 -20 0 -15 4 -20 0 -20 -14
0 -10 -6 -19 -13 -19 -7 0 -19 -8 -26 -18 -8 -11 -22 -17 -35 -15 -26 4 -61
-21 -50 -38 5 -9 10 -7 20 6 8 10 20 15 29 11 19 -7 11 -26 -11 -26 -8 0 -14
-7 -14 -15 0 -8 -7 -15 -15 -15 -9 0 -18 7 -21 15 -4 8 -12 15 -20 15 -8 0
-11 -6 -8 -15 4 -8 12 -15 20 -15 8 0 14 -3 14 -6 0 -3 -11 -19 -24 -35 -25
-29 -42 -24 -32 9 3 9 1 24 -4 32 -8 13 -10 13 -14 0 -2 -8 -4 -24 -4 -35 1
-11 1 -33 0 -49 -2 -23 -5 -27 -14 -18 -8 8 -15 9 -25 1 -9 -8 -22 -7 -47 5
-40 19 -46 20 -46 6 0 -5 9 -10 20 -10 11 0 20 -6 20 -14 0 -9 7 -12 19 -9 27
7 35 -13 13 -34 -11 -10 -27 -31 -35 -48 -16 -29 -17 -29 -23 -7 -3 12 -13 22
-22 22 -12 0 -13 -3 -5 -11 8 -8 8 -20 1 -41 -8 -22 -15 -28 -29 -25 -18 5
-34 -17 -24 -34 3 -4 -6 -27 -21 -50 -21 -34 -24 -46 -15 -61 6 -10 11 -23 11
-29 0 -17 45 -70 134 -158 60 -60 83 -78 100 -74 19 4 19 3 5 -9 -15 -12 -9
-21 61 -86 58 -53 83 -70 97 -66 17 6 17 6 -1 -8 -18 -14 -18 -16 9 -34 15
-10 49 -38 75 -62 31 -28 53 -40 64 -36 9 3 16 1 16 -5 0 -6 7 -11 15 -11 8 0
15 5 15 10 0 6 11 3 24 -5 23 -15 24 -15 30 16 5 27 9 31 31 27 26 -6 43 6 25
17 -15 9 -12 25 4 25 16 0 86 142 86 174 0 12 7 31 15 42 13 16 16 17 26 4 8
-11 9 -3 5 34 -5 42 -4 47 9 36 12 -10 16 -10 19 1 24 84 33 110 53 148 13 24
23 49 23 55 0 6 7 22 16 34 13 18 19 21 30 11 10 -8 14 -8 14 0 0 6 -4 11 -10
11 -18 0 -11 30 15 64 19 25 22 35 13 44 -9 9 -9 12 0 12 7 0 12 5 12 12 0 6
6 19 13 27 21 25 49 110 43 129 -6 16 -5 16 8 0 24 -31 34 -21 25 25 -11 57
-11 57 6 57 8 0 15 7 15 15 0 8 4 15 10 15 5 0 16 17 25 38 9 20 27 59 40 86
17 35 21 52 14 57 -7 4 -8 12 -5 18 10 16 26 14 26 -4 0 -17 25 -20 35 -5 3 6
-1 13 -9 16 -17 7 -21 41 -7 62 6 10 10 8 16 -10 7 -21 9 -19 12 14 3 22 14
47 31 64 18 18 23 28 15 31 -15 5 -17 33 -3 33 6 0 10 -3 10 -7 0 -5 28 -7 62
-7 38 1 71 -4 82 -11 29 -21 56 -72 56 -108 1 -31 1 -31 13 -9 14 24 27 20 27
-10 0 -10 9 -26 20 -35 13 -11 16 -21 10 -29 -7 -7 -1 -27 17 -60 15 -27 31
-52 36 -55 6 -4 7 -25 3 -50 l-7 -43 26 28 26 29 -6 -37 c-6 -29 -4 -36 9 -36
19 0 21 -11 5 -27 -7 -7 -9 -19 -5 -29 6 -16 8 -16 21 2 12 15 14 16 15 3 0
-8 -4 -19 -10 -25 -6 -6 4 -35 30 -84 22 -41 40 -85 40 -97 0 -13 5 -23 10
-23 6 0 10 -5 10 -12 0 -6 7 -20 17 -30 13 -15 14 -23 5 -43 -9 -18 -9 -25 0
-25 6 0 17 8 25 18 13 16 14 15 9 -8 -4 -18 8 -51 39 -112 25 -47 45 -97 45
-111 0 -14 6 -27 14 -30 9 -4 12 -14 9 -28 -5 -19 -3 -21 16 -16 16 4 25 -1
36 -22 10 -21 11 -31 2 -40 -8 -8 -8 -14 1 -23 7 -7 12 -22 12 -34 0 -12 7
-24 15 -28 8 -3 15 -12 15 -20 0 -21 42 -106 52 -106 4 0 8 -13 8 -28 0 -36 9
-45 28 -29 13 10 14 8 9 -22 -5 -24 -1 -53 14 -94 13 -36 17 -62 12 -66 -17
-10 -32 -47 -29 -67 2 -10 1 -13 -1 -6 -6 15 -16 15 -30 1 -9 -9 -16 -8 -28 5
-9 9 -28 16 -43 15 -26 0 -26 -1 -4 -9 24 -10 30 -30 10 -30 -7 0 -24 -3 -38
-6 -23 -5 -23 -4 -8 9 16 12 14 15 -17 27 -19 7 -33 16 -33 19 3 15 -19 48
-55 84 -28 28 -36 42 -28 50 8 8 15 5 27 -11 21 -30 36 -28 22 3 -6 14 -16 25
-22 25 -14 0 -46 52 -46 74 0 9 -4 16 -10 16 -5 0 -10 7 -10 15 0 9 -6 26 -14
38 -7 12 -19 45 -26 72 -16 64 -38 115 -50 115 -17 0 -11 -28 8 -39 13 -7 14
-13 5 -21 -8 -9 -15 -6 -28 13 -14 21 -14 29 -3 46 7 12 16 21 20 21 5 0 8 5
8 12 0 9 -3 9 -12 0 -17 -17 -35 -15 -41 6 -2 9 -8 25 -12 35 -5 12 -2 17 9
17 24 0 19 15 -10 35 -14 9 -23 23 -20 30 2 7 -2 19 -9 25 -8 7 -17 27 -21 46
-3 19 -11 34 -18 34 -6 0 -17 19 -24 43 -7 24 -22 51 -33 60 -10 9 -19 25 -19
34 0 10 -9 33 -21 52 -11 18 -18 40 -14 48 6 18 -31 83 -48 83 -18 1 -49 48
-37 55 15 9 12 25 -4 25 -7 0 -16 -9 -19 -20 -7 -26 -23 -26 -37 0 -6 11 -15
18 -21 14 -6 -4 -6 -11 2 -20 10 -12 9 -16 -7 -21 -10 -3 -36 -25 -57 -50 -28
-34 -36 -50 -31 -69 5 -18 2 -24 -10 -24 -9 0 -16 5 -16 10 0 6 -4 10 -10 10
-12 0 -13 -35 -2 -58 5 -9 6 -28 3 -42 -7 -26 -8 -25 -37 28 -15 26 -15 25 -9
-32 6 -51 5 -58 -9 -53 -9 4 -16 2 -16 -4 0 -5 7 -12 15 -15 8 -4 15 -11 15
-16 0 -6 -7 -7 -15 -4 -10 3 -18 -1 -21 -12 -3 -9 -14 -36 -25 -60 -10 -23
-19 -51 -19 -62 0 -11 -4 -20 -10 -20 -12 0 -50 -77 -50 -102 0 -23 -17 -24
-23 0 -2 9 -2 -2 1 -25 3 -33 1 -44 -12 -49 -9 -3 -16 -18 -16 -33 0 -14 -9
-37 -20 -51 -11 -14 -20 -33 -20 -42 0 -10 -4 -18 -10 -18 -5 0 -10 -9 -10
-20 0 -11 -4 -20 -8 -20 -5 0 -14 -23 -21 -50 -13 -49 -25 -63 -34 -38 -2 7
-8 10 -12 5 -5 -4 -3 -18 4 -31 8 -13 11 -30 9 -36 -3 -9 -9 -8 -21 5 -23 22
-32 13 -15 -15 11 -18 11 -22 -2 -30 -8 -5 -42 -29 -75 -54 -38 -28 -64 -41
-70 -35 -5 5 -20 8 -35 8 -16 -1 -19 -3 -7 -6 21 -5 23 -23 3 -23 -8 0 -27 5
-41 10 -29 11 -78 3 -69 -11 3 -5 22 -7 41 -3 28 5 35 4 31 -7 -3 -8 -12 -14
-21 -13 -70 3 -77 5 -77 19 0 17 -16 20 -25 5 -3 -5 -10 -10 -16 -10 -13 0
-11 27 4 34 6 4 2 4 -11 2 -24 -5 -82 14 -82 26 0 4 -12 8 -26 8 -20 0 -25 5
-24 23 2 27 -10 67 -20 67 -5 0 -6 -9 -3 -20 3 -11 2 -28 -2 -37 -5 -15 -10
-12 -25 17 -10 19 -28 37 -41 40 -12 3 -25 12 -27 19 -3 10 3 11 27 6 20 -4
31 -3 31 4 0 6 -5 11 -12 11 -6 0 -20 8 -30 17 -14 13 -21 14 -30 5 -16 -16
-29 -15 -27 1 4 24 -13 107 -22 102 -4 -3 -6 -19 -2 -35 7 -37 -9 -39 -31 -5
-10 14 -28 30 -42 35 -33 13 -32 34 2 26 20 -5 32 -2 46 14 11 12 17 24 14 27
-3 4 -12 -2 -20 -12 -12 -16 -18 -17 -39 -8 -14 7 -34 9 -46 6 -21 -5 -27 6
-23 47 3 27 -8 61 -18 55 -6 -3 -10 -17 -10 -30 0 -18 -4 -23 -15 -19 -8 4
-15 12 -15 19 0 7 -11 20 -25 29 -35 23 -32 40 6 32 22 -4 29 -2 26 7 -2 7
-18 11 -35 10 -22 -2 -34 3 -41 16 -6 10 -23 21 -40 24 -19 4 -33 16 -42 35
-7 16 -21 33 -33 38 -30 14 -32 34 -2 34 16 0 26 -6 26 -15 0 -8 9 -19 20 -25
11 -6 20 -20 20 -32 0 -16 3 -19 11 -11 8 8 8 17 0 32 -7 12 -18 21 -26 21 -8
0 -15 5 -15 12 0 6 -7 19 -16 29 -13 14 -20 15 -34 7 -13 -9 -23 -7 -43 8 -15
10 -27 23 -27 27 0 5 7 15 16 24 10 10 12 19 6 25 -13 13 -32 2 -32 -18 0 -24
-17 -15 -30 16 -7 16 -18 35 -26 41 -18 15 -18 25 2 33 10 4 25 -1 36 -10 23
-21 34 -13 17 13 -8 13 -20 18 -34 15 -16 -3 -27 2 -34 17 -11 19 -10 20 21
14 31 -6 32 -6 15 11 -21 21 -22 35 -2 42 8 4 15 19 15 35 0 21 4 27 15 23 10
-4 15 0 15 10 0 9 6 19 13 22 7 2 41 38 76 79 35 41 69 75 77 75 10 0 11 6 4
26 -10 25 -9 26 15 20 14 -4 25 -2 25 2 0 5 18 30 40 55 22 25 40 53 40 64 1
17 1 17 11 1 14 -25 29 -22 29 6 0 13 4 26 9 28 5 2 34 32 65 66 42 47 55 69
51 83 -8 23 8 25 25 4 10 -12 16 -13 24 -4 8 8 8 13 -1 16 -17 6 -17 35 0 31
8 -2 35 18 62 44 26 26 56 50 66 53 11 4 16 12 12 21 -6 17 4 18 46 3z m171
-104 c0 -8 -2 -15 -4 -15 -2 0 -6 7 -10 15 -3 8 -1 15 4 15 6 0 10 -7 10 -15z
m430 -595 c0 -5 -4 -10 -10 -10 -5 0 -10 5 -10 10 0 6 5 10 10 10 6 0 10 -4
10 -10z m-1100 -470 c0 -5 -4 -10 -10 -10 -5 0 -10 5 -10 10 0 6 5 10 10 10 6
0 10 -4 10 -10z"/>
<path d="M2975 1829 c-10 -15 1 -23 20 -15 9 3 13 10 10 16 -8 13 -22 13 -30
-1z"/>
<path d="M2878 1818 c9 -9 15 -9 24 0 9 9 7 12 -12 12 -19 0 -21 -3 -12 -12z"/>
<path d="M3820 1743 c0 -24 2 -43 4 -43 8 0 12 60 4 72 -4 8 -8 -4 -8 -29z"/>
<path d="M4060 1664 c0 -9 5 -14 12 -12 18 6 21 28 4 28 -9 0 -16 -7 -16 -16z"/>
<path d="M2870 1606 c0 -14 29 -30 38 -21 3 3 0 5 -6 5 -7 0 -12 7 -12 15 0 8
-4 15 -10 15 -5 0 -10 -6 -10 -14z"/>
<path d="M3635 1420 c4 -6 11 -8 16 -5 14 9 11 15 -7 15 -8 0 -12 -5 -9 -10z"/>
<path d="M4175 1410 c-3 -5 1 -10 10 -10 9 0 13 5 10 10 -3 6 -8 10 -10 10 -2
0 -7 -4 -10 -10z"/>
<path d="M4180 1346 c0 -9 5 -16 10 -16 6 0 10 4 10 9 0 6 -4 13 -10 16 -5 3
-10 -1 -10 -9z"/>
<path d="M2550 1290 c0 -5 5 -10 10 -10 6 0 10 5 10 10 0 6 -4 10 -10 10 -5 0
-10 -4 -10 -10z"/>
<path d="M2600 1265 c0 -8 5 -15 10 -15 6 0 10 7 10 15 0 8 -4 15 -10 15 -5 0
-10 -7 -10 -15z"/>
<path d="M4070 1165 c0 -8 7 -15 15 -15 8 0 15 7 15 15 0 8 -7 15 -15 15 -8 0
-15 -7 -15 -15z"/>
<path d="M2202 1090 c0 -14 2 -19 5 -12 2 6 2 18 0 25 -3 6 -5 1 -5 -13z"/>
<path d="M4102 1085 c0 -16 2 -22 5 -12 2 9 2 23 0 30 -3 6 -5 -1 -5 -18z"/>
<path d="M3500 1026 c0 -9 5 -16 10 -16 6 0 10 4 10 9 0 6 -4 13 -10 16 -5 3
-10 -1 -10 -9z"/>
<path d="M3542 819 c2 -7 10 -15 17 -17 8 -3 12 1 9 9 -2 7 -10 15 -17 17 -8
3 -12 -1 -9 -9z"/>
<path d="M4507 714 c-9 -10 2 -24 19 -24 8 0 14 7 14 15 0 15 -21 21 -33 9z"/>
<path d="M3308 703 c6 -2 18 -2 25 0 6 3 1 5 -13 5 -14 0 -19 -2 -12 -5z"/>
<path d="M2495 690 c-3 -5 3 -10 15 -10 12 0 18 5 15 10 -3 6 -10 10 -15 10
-5 0 -12 -4 -15 -10z"/>
<path d="M2540 650 c0 -11 5 -20 10 -20 6 0 10 9 10 20 0 11 -4 20 -10 20 -5
0 -10 -9 -10 -20z"/>
<path d="M2700 494 c0 -8 5 -12 10 -9 6 4 8 11 5 16 -9 14 -15 11 -15 -7z"/>
<path d="M3160 442 c0 -17 29 -46 37 -38 4 4 -3 16 -15 29 -13 13 -22 16 -22
9z"/>
<path d="M3077 416 c-3 -8 -2 -18 3 -21 13 -8 24 15 12 27 -6 6 -11 4 -15 -6z"/>
<path d="M4630 356 c0 -19 5 -38 10 -41 6 -4 10 10 10 34 0 23 -4 41 -10 41
-5 0 -10 -15 -10 -34z"/>
<path d="M2815 371 c-6 -11 9 -23 19 -14 9 9 7 23 -3 23 -6 0 -12 -4 -16 -9z"/>
<path d="M4661 268 c-1 -10 -5 -18 -11 -18 -5 0 -10 -5 -10 -12 0 -8 6 -7 16
4 9 9 14 22 11 30 -4 9 -6 7 -6 -4z"/>
<path d="M3020 210 c0 -5 5 -10 10 -10 6 0 10 5 10 10 0 6 -4 10 -10 10 -5 0
-10 -4 -10 -10z"/>
<path d="M8935 1969 c-43 -12 -112 -74 -136 -120 -11 -22 -30 -86 -43 -142
-13 -56 -45 -192 -70 -302 -86 -365 -108 -459 -128 -545 -19 -87 -31 -135 -92
-395 -20 -82 -36 -171 -36 -198 0 -64 34 -132 82 -167 22 -16 61 -33 88 -39
91 -20 183 27 228 115 11 21 27 73 36 114 8 41 26 125 39 185 27 121 101 476
120 569 13 62 37 89 37 40 0 -30 17 -91 92 -329 121 -387 147 -464 167 -502
25 -50 83 -100 131 -113 83 -23 168 -5 223 48 47 44 62 79 135 312 11 36 47
151 80 255 34 105 66 210 72 235 6 25 16 62 21 83 13 48 39 51 39 4 0 -32 33
-204 80 -417 11 -52 37 -171 57 -265 19 -93 45 -189 56 -213 10 -23 37 -58 59
-76 52 -45 118 -61 181 -46 54 14 118 65 141 114 9 19 16 59 16 91 0 56 -10
109 -70 360 -15 66 -49 208 -74 315 -160 679 -206 869 -220 901 -17 40 -67 93
-108 115 -46 24 -111 28 -164 10 -54 -18 -115 -70 -141 -119 -9 -18 -47 -126
-85 -242 -186 -568 -208 -639 -208 -674 0 -40 -27 -22 -40 27 -21 80 -56 188
-240 755 -37 113 -47 133 -92 182 -38 42 -61 58 -101 70 -56 17 -87 18 -132 4z
m1109 -78 c3 -5 -4 -11 -15 -14 -35 -9 -11 -30 27 -24 24 4 36 1 42 -10 5 -8
18 -13 28 -11 16 3 24 -12 50 -90 18 -52 35 -113 38 -135 4 -22 14 -56 23 -76
12 -25 14 -36 5 -39 -8 -2 -6 -12 7 -30 11 -16 21 -53 25 -91 3 -36 13 -72 21
-81 19 -21 19 -59 0 -66 -20 -8 -19 -23 3 -48 18 -20 75 -228 75 -274 0 -14 4
-21 12 -19 8 4 10 -3 7 -19 -2 -13 1 -31 8 -39 6 -8 9 -23 5 -35 -5 -15 -1
-26 10 -34 14 -10 15 -17 7 -32 -8 -15 -7 -37 5 -83 13 -49 14 -68 5 -82 -15
-24 -15 -29 2 -29 8 0 17 7 20 16 9 24 27 6 20 -21 -3 -13 1 -53 10 -88 9 -37
15 -93 13 -136 -1 -40 1 -75 5 -77 16 -10 7 -25 -14 -24 -30 3 -68 -10 -68
-21 0 -5 10 -7 23 -4 15 4 28 1 37 -10 12 -15 11 -16 -13 -10 -15 4 -33 2 -40
-3 -7 -6 -18 -7 -26 -2 -8 4 -20 6 -27 3 -17 -6 -58 32 -50 46 5 7 1 8 -10 4
-13 -5 -15 -2 -10 14 4 14 1 23 -9 27 -8 3 -15 17 -15 31 0 15 -4 35 -10 45
-5 10 -11 39 -12 64 0 25 -5 46 -10 46 -4 0 -8 -5 -8 -11 0 -5 -5 -7 -11 -3
-8 5 -7 9 1 14 9 6 11 20 5 51 -4 24 -7 60 -7 79 1 25 -2 30 -9 20 -8 -13 -10
-13 -19 0 -12 19 -12 27 0 35 6 3 10 17 10 30 0 16 -4 23 -13 19 -10 -3 -18
12 -27 53 -8 32 -12 66 -11 76 1 10 -3 25 -10 33 -6 8 -9 17 -5 21 3 3 6 1 6
-5 0 -7 7 -12 15 -12 19 0 19 17 0 27 -8 5 -19 29 -24 53 -6 25 -15 69 -22 98
-7 30 -22 62 -35 75 -13 12 -24 32 -24 45 0 24 -15 30 -24 10 -3 -9 -9 -8 -20
6 -8 10 -17 24 -19 29 -2 7 -11 7 -23 2 -18 -8 -18 -8 -1 -12 10 -3 16 -10 14
-16 -6 -19 -22 -18 -45 3 -15 14 -22 16 -22 7 0 -7 5 -18 11 -24 12 -12 3 -53
-12 -53 -11 0 -50 -79 -69 -137 -7 -24 -17 -43 -23 -43 -5 0 -6 -15 -2 -37 6
-31 5 -35 -8 -25 -12 10 -15 5 -20 -30 -2 -24 -10 -56 -17 -73 -7 -16 -12 -38
-11 -48 1 -10 -5 -27 -13 -36 -9 -10 -20 -37 -25 -62 -12 -56 -33 -128 -61
-203 -12 -33 -20 -71 -17 -84 3 -14 -1 -26 -9 -29 -8 -3 -14 -12 -14 -20 0
-13 -3 -13 -15 -3 -12 10 -19 10 -27 2 -15 -15 -114 -16 -123 -2 -3 6 -15 10
-25 10 -11 0 -27 11 -36 25 -9 14 -20 22 -25 19 -5 -3 -9 1 -9 10 0 8 5 16 12
18 8 3 6 14 -6 39 -23 44 -55 142 -62 191 -4 21 -11 41 -15 44 -5 3 -9 14 -9
24 0 10 -7 26 -16 35 -14 13 -15 20 -5 38 8 16 9 30 2 47 -7 18 -10 20 -10 8
-1 -19 -16 -24 -25 -9 -3 4 0 22 6 39 14 36 6 51 -17 32 -20 -16 -32 -5 -16
14 9 10 9 20 2 35 -6 12 -15 30 -21 41 -5 10 -7 26 -4 34 7 19 -53 143 -77
160 -10 6 -17 21 -16 31 2 15 -3 19 -19 17 -12 -2 -24 4 -27 13 -9 21 -30 19
-25 -3 3 -12 -2 -24 -13 -31 -11 -6 -19 -18 -19 -26 0 -18 -17 -20 -23 -2 -2
6 -8 8 -13 4 -4 -4 -3 -17 4 -27 17 -28 15 -42 -6 -36 -16 5 -22 -7 -42 -89
-13 -52 -28 -95 -33 -95 -5 0 -6 -12 -3 -27 3 -16 2 -64 -2 -108 -5 -52 -11
-79 -19 -78 -14 3 -25 -43 -23 -89 3 -52 1 -68 -10 -68 -5 0 -10 12 -10 27 0
14 -3 23 -7 20 -9 -10 -11 -137 -1 -137 4 0 8 -4 8 -10 0 -5 -6 -10 -14 -10
-13 0 -30 -46 -24 -66 1 -5 -3 -18 -9 -29 -6 -11 -14 -37 -18 -58 -4 -21 -16
-42 -26 -47 -10 -6 -35 -10 -56 -10 -36 -1 -37 -2 -19 -15 22 -16 15 -18 -33
-9 -18 4 -31 13 -31 21 0 8 -10 29 -22 46 -19 27 -23 44 -21 105 1 45 7 80 15
90 24 29 37 85 36 149 0 37 4 69 12 78 8 9 10 27 6 46 -4 22 0 41 12 63 11 17
29 76 41 131 12 55 31 135 42 178 10 43 19 93 19 112 0 34 14 48 23 23 2 -7 7
-10 11 -6 4 3 2 16 -4 28 -17 31 6 150 32 168 10 7 18 22 18 33 0 24 -9 24
-26 2 -13 -17 -13 -17 -14 0 0 9 5 17 10 17 6 0 10 8 10 18 0 10 4 22 8 28 10
11 25 61 53 184 12 52 30 110 40 128 11 19 18 41 17 50 -3 17 4 19 34 7 13 -5
15 -2 11 14 -3 12 -1 21 6 21 6 0 11 -4 11 -8 0 -11 113 -43 120 -34 8 11 50
13 50 3 0 -5 -6 -12 -12 -14 -9 -4 -10 -8 -3 -14 22 -17 35 -66 29 -102 -6
-33 -5 -35 9 -17 14 19 15 19 26 -2 6 -11 10 -29 8 -39 -1 -10 15 -71 37 -135
26 -80 43 -118 53 -118 11 0 14 -7 10 -27 -8 -40 10 -126 29 -140 10 -7 13
-19 9 -32 -4 -13 1 -33 13 -54 11 -17 23 -47 27 -64 3 -18 11 -35 16 -38 5 -4
9 -15 9 -26 0 -22 22 -59 62 -102 14 -17 24 -36 21 -43 -6 -15 13 -19 21 -5 8
12 46 2 46 -12 0 -5 9 -2 20 8 11 10 20 26 20 37 0 10 7 18 15 18 14 0 58 81
59 110 1 8 10 28 20 43 11 16 20 44 21 63 3 40 12 54 21 30 3 -9 10 -14 15
-11 12 8 -1 35 -17 35 -8 0 -14 3 -14 8 1 19 28 85 39 91 6 4 9 15 5 24 -3 10
-1 17 5 17 6 0 14 18 17 40 4 22 10 40 15 40 5 0 9 9 9 19 0 33 12 52 39 63
23 10 24 12 6 16 -32 7 -39 19 -16 31 12 7 21 19 21 29 0 9 7 26 16 37 9 12
12 30 8 47 -7 33 10 38 28 8 7 -11 16 -20 20 -20 16 0 7 25 -18 51 -17 18 -24
34 -20 44 4 10 12 15 21 11 12 -4 14 0 9 19 -4 16 -2 25 5 25 6 0 17 11 23 25
8 17 20 25 37 26 14 0 20 3 14 6 -20 8 -15 21 15 37 32 18 39 19 46 7z m-974
-11 c0 -13 -30 -13 -50 0 -11 7 -7 10 18 10 17 0 32 -4 32 -10z m1061 -13 c-1
-12 -15 -9 -19 4 -3 6 1 10 8 8 6 -3 11 -8 11 -12z m-801 -577 c0 -5 -4 -10
-10 -10 -5 0 -10 5 -10 10 0 6 5 10 10 10 6 0 10 -4 10 -10z m1000 -111 c0 -5
-4 -9 -10 -9 -5 0 -10 7 -10 16 0 8 5 12 10 9 6 -3 10 -10 10 -16z m116 -506
c-10 -10 -19 5 -10 18 6 11 8 11 12 0 2 -7 1 -15 -2 -18z"/>
<path d="M10008 1818 c9 -9 15 -9 24 0 9 9 7 12 -12 12 -19 0 -21 -3 -12 -12z"/>
<path d="M9110 1665 c0 -8 5 -15 10 -15 6 0 10 7 10 15 0 8 -4 15 -10 15 -5 0
-10 -7 -10 -15z"/>
<path d="M9737 1236 c-6 -15 1 -26 15 -26 11 0 10 27 -1 34 -5 3 -11 0 -14 -8z"/>
<path d="M8956 1171 c-5 -7 -3 -18 3 -24 14 -14 20 -6 11 17 -5 15 -9 16 -14
7z"/>
<path d="M9720 1110 c0 -13 18 -22 24 -11 3 5 -1 11 -9 15 -8 3 -15 1 -15 -4z"/>
<path d="M9710 1055 c-7 -9 -11 -18 -8 -20 3 -3 11 1 18 10 7 9 11 18 8 20 -3
3 -11 -1 -18 -10z"/>
<path d="M9740 1024 c0 -8 5 -12 10 -9 6 4 8 11 5 16 -9 14 -15 11 -15 -7z"/>
<path d="M10180 768 c0 -16 5 -28 10 -28 13 0 13 20 0 40 -8 12 -10 9 -10 -12z"/>
<path d="M10200 706 c0 -9 5 -16 10 -16 6 0 10 4 10 9 0 6 -4 13 -10 16 -5 3
-10 -1 -10 -9z"/>
<path d="M8812 688 c6 -18 28 -21 28 -4 0 9 -7 16 -16 16 -9 0 -14 -5 -12 -12z"/>
<path d="M9420 370 c0 -5 5 -10 10 -10 6 0 10 5 10 10 0 6 -4 10 -10 10 -5 0
-10 -4 -10 -10z"/>
<path d="M9617 350 c3 -11 7 -20 9 -20 2 0 4 9 4 20 0 11 -4 20 -9 20 -5 0 -7
-9 -4 -20z"/>
<path d="M9420 304 c0 -8 5 -12 10 -9 6 4 8 11 5 16 -9 14 -15 11 -15 -7z"/>
<path d="M9595 311 c-3 -6 4 -15 15 -21 20 -11 21 -10 10 9 -12 23 -16 25 -25
12z"/>
<path d="M8595 211 c-3 -6 4 -15 15 -21 22 -12 23 -10 14 14 -7 18 -20 21 -29
7z"/>
<path d="M8680 210 c0 -5 7 -10 15 -10 8 0 15 5 15 10 0 6 -7 10 -15 10 -8 0
-15 -4 -15 -10z"/>
<path d="M10355 189 c-4 -6 -5 -13 -2 -16 7 -7 27 6 27 18 0 12 -17 12 -25 -2z"/>
<path d="M11956 1972 c-3 -6 -1 -14 5 -17 15 -10 25 3 12 16 -7 7 -13 7 -17 1z"/>
<path d="M2561 1943 c0 -25 1 -26 9 -8 12 27 12 35 0 35 -5 0 -10 -12 -9 -27z"/>
<path d="M9240 1966 c0 -2 7 -9 15 -16 12 -10 15 -10 15 4 0 9 -7 16 -15 16
-8 0 -15 -2 -15 -4z"/>
<path d="M10820 1939 c-56 -25 -86 -53 -113 -104 -22 -40 -22 -44 -25 -785 -2
-518 0 -761 8 -796 13 -62 63 -125 124 -156 40 -21 49 -21 489 -19 493 2 490
1 555 64 92 89 64 252 -54 312 -36 18 -65 20 -362 25 l-324 5 1 165 c0 91 1
167 1 170 0 3 129 5 288 5 261 0 290 2 322 19 80 42 113 94 114 176 0 59 -21
110 -58 144 -12 10 -40 27 -63 38 -39 17 -67 19 -319 18 -151 -1 -278 0 -280
3 -3 3 -6 77 -7 166 -1 102 2 161 8 162 6 0 132 0 281 -1 174 -1 287 3 316 10
60 15 110 58 138 117 18 38 21 57 15 99 -8 69 -48 124 -112 155 l-48 24 -425
2 c-410 3 -427 2 -470 -18z m859 -75 c28 -6 32 -10 26 -31 -5 -21 -4 -22 14
-11 11 7 23 10 26 7 11 -12 16 -95 7 -120 -7 -17 -28 -35 -56 -49 -36 -17 -53
-20 -74 -13 -15 5 -128 8 -251 6 -206 -2 -226 -4 -245 -22 -12 -11 -34 -21
-51 -23 l-30 -4 25 -11 c15 -7 19 -12 9 -12 -9 -1 -24 -10 -33 -20 -13 -15
-14 -20 -4 -24 10 -4 11 -7 1 -18 -16 -16 -18 -179 -3 -179 6 0 10 -9 10 -20
0 -11 -4 -20 -10 -20 -14 0 -13 -33 2 -48 9 -9 9 -12 0 -12 -7 0 -12 -7 -12
-16 0 -11 6 -13 19 -9 21 6 38 -10 21 -20 -16 -10 -12 -19 13 -31 12 -6 36
-19 52 -27 25 -13 74 -16 283 -18 139 0 256 2 259 5 14 14 23 4 17 -19 -5 -18
-2 -25 9 -25 8 0 17 5 19 12 5 15 28 1 28 -16 0 -8 -10 -16 -22 -20 -22 -5
-22 -6 -4 -19 22 -16 16 -47 -10 -47 -13 0 -14 -3 -4 -14 6 -8 18 -12 27 -9
13 5 13 3 2 -16 -15 -23 -18 -24 -38 -12 -7 5 -10 14 -7 20 4 6 0 11 -8 11
-19 0 -22 -36 -3 -43 6 -2 -107 -5 -253 -6 -146 -1 -276 -5 -289 -8 -29 -7
-70 -51 -71 -74 0 -9 -9 -19 -19 -22 -22 -6 -25 -38 -7 -76 8 -19 8 -25 -1
-28 -9 -3 -13 -31 -13 -93 0 -87 13 -133 42 -151 10 -7 9 -9 -4 -9 -27 0 -21
-19 9 -31 14 -5 32 -17 39 -27 11 -14 16 -15 33 -4 27 16 32 15 29 -4 -2 -10
3 -19 10 -21 6 -3 12 0 12 6 0 8 73 11 234 11 178 0 236 -3 240 -12 5 -10 7
-10 12 0 8 17 41 15 48 -3 3 -8 17 -20 30 -25 28 -10 38 -48 33 -115 -3 -38
-5 -40 -36 -37 -18 1 -42 -4 -53 -13 -15 -10 -25 -11 -34 -4 -8 6 -154 9 -418
7 -324 -2 -406 0 -406 10 0 7 -11 17 -24 22 -17 6 -27 19 -31 42 -3 18 -5 370
-3 781 3 722 4 749 22 762 15 11 16 17 8 28 -7 8 -9 17 -6 20 10 9 44 -16 44
-33 1 -12 3 -12 14 3 12 15 41 17 327 19 l314 2 -315 6 c-199 3 -318 1 -322
-5 -9 -13 -22 1 -13 14 4 8 130 11 394 11 214 0 403 -3 420 -6z m-839 -1673
c0 -6 -4 -13 -10 -16 -5 -3 -10 1 -10 9 0 9 5 16 10 16 6 0 10 -4 10 -9z m673
-28 c-90 -2 -236 -2 -325 0 -90 1 -17 3 162 3 179 0 252 -2 163 -3z"/>
<path d="M11036 391 c-4 -5 -2 -12 3 -15 5 -4 12 -2 15 3 4 5 2 12 -3 15 -5 4
-12 2 -15 -3z"/>
<path d="M2402 1799 c2 -7 10 -15 17 -17 8 -3 12 1 9 9 -2 7 -10 15 -17 17 -8
3 -12 -1 -9 -9z"/>
<path d="M4801 1783 c0 -16 3 -22 6 -13 3 8 10 21 16 28 7 8 5 12 -7 12 -11 0
-16 -8 -15 -27z"/>
<path d="M6727 1796 c-4 -10 -1 -13 9 -9 7 3 14 9 14 14 0 14 -17 10 -23 -5z"/>
<path d="M155 1750 c-3 -5 1 -10 10 -10 9 0 13 5 10 10 -3 6 -8 10 -10 10 -2
0 -7 -4 -10 -10z"/>
<path d="M222 1689 c-26 -13 -55 -39 -70 -62 -24 -36 -28 -54 -33 -146 -5 -96
-8 -113 -42 -181 -30 -61 -37 -85 -37 -135 0 -75 25 -131 75 -173 21 -17 60
-36 88 -43 73 -17 176 -7 240 25 60 29 135 102 165 162 11 21 25 70 31 107 9
50 9 84 1 128 -13 71 -23 96 -66 164 -44 69 -99 119 -164 149 -68 32 -130 33
-188 5z m75 -85 c-5 -30 9 -32 16 -2 6 20 7 21 24 6 10 -9 31 -16 46 -16 15 0
36 -7 46 -16 9 -9 23 -16 29 -16 7 0 12 -4 12 -9 0 -4 12 -20 26 -35 23 -22
26 -31 20 -66 -4 -25 -2 -40 4 -40 14 0 30 -45 35 -95 3 -22 6 -51 7 -65 2
-19 -2 -25 -17 -25 -17 0 -20 -6 -18 -44 2 -38 0 -41 -11 -26 -10 14 -15 15
-21 6 -4 -7 -2 -18 4 -24 6 -6 11 -18 11 -26 0 -12 -3 -12 -12 -3 -16 16 -28
15 -28 -2 0 -19 -68 -53 -129 -64 -59 -11 -139 0 -174 22 -17 11 -28 33 -37
73 -11 44 -11 58 -2 61 7 2 12 12 12 23 0 11 13 49 30 85 16 35 32 92 36 124
5 50 10 60 25 60 11 0 19 5 19 10 0 6 -13 10 -30 10 -16 0 -30 4 -30 8 0 5 10
18 23 29 33 32 67 73 67 84 0 6 5 7 11 3 6 -3 9 -17 6 -30z"/>
<path d="M390 1535 c0 -8 7 -15 15 -15 8 0 15 7 15 15 0 8 -7 15 -15 15 -8 0
-15 -7 -15 -15z"/>
<path d="M465 1510 c10 -33 25 -49 25 -26 0 9 -7 25 -16 34 -15 15 -16 14 -9
-8z"/>
<path d="M490 1355 c-8 -10 -9 -15 -1 -15 6 0 11 -7 11 -15 0 -8 5 -15 10 -15
6 0 8 11 4 28 -4 15 -8 28 -9 30 -1 1 -8 -4 -15 -13z"/>
<path d="M610 870 c0 -5 5 -10 10 -10 6 0 10 5 10 10 0 6 -4 10 -10 10 -5 0
-10 -4 -10 -10z"/>
<path d="M11968 523 c-10 -2 -18 -9 -18 -14 0 -13 12 -11 34 6 20 15 16 17
-16 8z"/>
<path d="M6720 249 c0 -11 7 -22 15 -25 27 -11 30 1 8 23 -22 22 -23 22 -23 2z"/>
<path d="M9285 117 c-12 -9 -14 -16 -7 -21 6 -3 16 3 22 14 13 24 10 25 -15 7z"/>
<path d="M2720 100 c0 -5 5 -10 10 -10 6 0 10 5 10 10 0 6 -4 10 -10 10 -5 0
-10 -4 -10 -10z"/>
<path d="M9716 91 c-4 -5 -2 -12 3 -15 5 -4 12 -2 15 3 4 5 2 12 -3 15 -5 4
-12 2 -15 -3z"/>
<path d="M2040 82 c0 -12 19 -26 26 -19 2 2 -2 10 -11 17 -9 8 -15 8 -15 2z"/>
<path d="M10675 60 c4 -6 11 -8 16 -5 14 9 11 15 -7 15 -8 0 -12 -5 -9 -10z"/>
</g>
</svg>
