<?xml version="1.0" standalone="no"?>
<!DOCTYPE svg PUBLIC "-//W3C//DTD SVG 20010904//EN"
 "http://www.w3.org/TR/2001/REC-SVG-20010904/DTD/svg10.dtd">
<svg version="1.0" xmlns="http://www.w3.org/2000/svg"
 width="1200.000000pt" height="676.000000pt" viewBox="0 0 1200.000000 676.000000"
 preserveAspectRatio="xMidYMid meet">
<g transform="translate(0.000000,676.000000) scale(0.100000,-0.100000)"
fill="#000000" stroke="none">
<path d="M5020 6420 c0 -5 4 -10 9 -10 6 0 13 5 16 10 3 6 -1 10 -9 10 -9 0
-16 -4 -16 -10z"/>
<path d="M5797 6409 c-10 -6 -35 -8 -56 -4 -24 4 -66 -1 -120 -15 -71 -19 -87
-20 -108 -9 -20 11 -31 10 -71 -6 -42 -17 -82 -22 -219 -28 -22 -1 -45 -5 -49
-9 -4 -5 -17 -8 -29 -8 -12 0 -30 -8 -39 -19 -13 -14 -26 -17 -61 -13 -30 3
-50 0 -61 -9 -10 -9 -41 -14 -78 -14 -46 -1 -69 -6 -91 -21 -17 -12 -36 -19
-43 -16 -21 7 -122 -28 -144 -50 -14 -14 -27 -17 -54 -12 -24 4 -40 2 -52 -9
-33 -29 -106 -58 -132 -52 -19 4 -32 -1 -50 -20 -14 -15 -40 -28 -62 -31 -21
-4 -43 -13 -49 -20 -6 -8 -19 -14 -28 -14 -9 0 -29 -9 -46 -20 -16 -11 -38
-20 -48 -20 -10 0 -25 -7 -33 -15 -9 -8 -24 -15 -34 -15 -10 0 -20 -7 -24 -15
-3 -8 -16 -15 -29 -15 -13 0 -34 -9 -47 -20 -13 -11 -33 -20 -46 -20 -12 0
-33 -13 -47 -30 -15 -17 -35 -30 -48 -30 -29 0 -109 -39 -116 -56 -8 -21 -70
-56 -95 -53 -31 4 -46 -6 -63 -47 -8 -20 -21 -34 -32 -34 -9 0 -43 -18 -74
-40 -32 -22 -67 -40 -79 -40 -13 0 -27 -11 -38 -30 -9 -17 -25 -33 -35 -36
-10 -3 -24 -16 -33 -29 -8 -12 -28 -25 -45 -29 -19 -3 -33 -14 -39 -30 -5 -14
-24 -32 -42 -41 -18 -10 -46 -30 -63 -45 -16 -16 -52 -48 -78 -71 -27 -24 -55
-56 -63 -71 -8 -15 -20 -28 -28 -28 -7 0 -21 -9 -31 -20 -10 -11 -29 -20 -43
-20 -21 0 -24 -4 -19 -26 4 -22 -1 -28 -39 -46 -26 -13 -47 -32 -54 -49 -7
-16 -24 -32 -40 -38 -21 -7 -35 -23 -51 -60 -12 -28 -27 -51 -34 -51 -7 0 -22
-16 -34 -35 -11 -20 -28 -38 -36 -42 -9 -3 -23 -23 -32 -45 -10 -25 -30 -48
-55 -64 -21 -14 -44 -37 -51 -52 -6 -15 -26 -46 -44 -70 -18 -24 -33 -54 -33
-67 0 -16 -11 -33 -31 -47 -16 -12 -39 -42 -49 -65 -10 -24 -29 -48 -43 -54
-16 -7 -27 -25 -35 -54 -7 -28 -19 -46 -31 -50 -11 -3 -25 -22 -32 -43 -7 -20
-23 -45 -37 -56 -20 -16 -23 -25 -18 -55 5 -33 2 -38 -30 -59 -30 -20 -34 -27
-29 -50 3 -17 0 -35 -9 -47 -9 -11 -16 -28 -16 -38 0 -9 -11 -27 -25 -39 -17
-15 -25 -32 -25 -53 0 -21 -11 -46 -30 -70 -16 -21 -30 -48 -30 -60 0 -14 -9
-26 -25 -33 -21 -10 -25 -18 -25 -57 0 -32 -6 -51 -20 -65 -11 -11 -20 -30
-20 -43 0 -13 -4 -27 -8 -33 -11 -12 -29 -77 -37 -136 -4 -26 -13 -52 -21 -58
-7 -7 -18 -28 -25 -48 -6 -20 -17 -45 -24 -55 -9 -13 -10 -27 -2 -52 8 -28 6
-38 -11 -63 -12 -17 -24 -54 -28 -85 -4 -34 -12 -58 -21 -61 -11 -4 -14 -23
-12 -78 1 -40 -4 -93 -11 -118 -7 -25 -12 -61 -12 -80 1 -19 -4 -38 -10 -41
-11 -7 -21 -83 -19 -148 1 -19 -5 -41 -13 -50 -12 -13 -12 -22 -2 -51 13 -37
6 -69 -23 -104 -12 -14 -11 -21 4 -50 16 -30 17 -39 6 -76 -10 -33 -10 -49 -1
-71 10 -23 9 -32 -3 -49 -12 -17 -14 -44 -11 -128 3 -59 9 -119 15 -133 7 -17
7 -34 -1 -53 -7 -20 -7 -46 1 -89 6 -33 8 -76 4 -95 -4 -20 -2 -39 5 -47 6 -8
12 -40 12 -72 0 -61 11 -126 34 -207 8 -28 11 -64 8 -87 -8 -46 4 -64 54 -85
20 -8 42 -23 49 -34 8 -11 21 -20 30 -20 13 0 102 -40 153 -69 8 -5 42 -20 75
-34 33 -14 91 -39 129 -56 37 -17 76 -31 85 -31 9 0 32 -9 52 -19 20 -11 58
-26 86 -34 28 -8 63 -22 79 -30 16 -7 81 -29 144 -46 63 -18 144 -43 180 -56
36 -12 101 -30 145 -39 44 -9 94 -22 110 -28 17 -5 53 -14 82 -18 28 -5 57
-11 64 -15 6 -4 49 -12 96 -16 46 -5 92 -13 101 -18 20 -10 189 -33 268 -36
28 -1 55 -5 62 -9 9 -5 192 -15 347 -19 125 -3 411 8 510 19 66 8 152 16 190
19 66 4 125 11 275 33 36 5 74 10 85 10 11 0 67 7 125 17 58 9 123 19 145 22
22 2 55 11 73 19 18 8 36 13 40 10 4 -2 37 2 72 10 36 9 91 20 123 25 33 5 64
12 70 16 6 4 29 10 52 14 53 10 142 32 235 59 41 12 93 25 115 29 22 4 56 12
75 18 19 7 60 17 90 23 30 7 71 20 90 29 19 10 60 23 90 30 30 7 64 16 75 21
11 5 34 11 50 13 17 3 62 17 100 31 39 14 80 26 93 26 13 0 35 6 50 14 15 7
54 19 87 26 33 7 86 23 117 36 32 13 71 24 88 24 17 0 41 5 53 12 26 14 222
67 287 77 25 4 54 12 66 18 11 7 52 17 90 24 38 6 78 16 89 22 11 6 26 10 32
9 7 -2 32 2 55 9 24 6 84 20 133 31 50 10 108 23 130 29 22 5 58 14 80 19 22
5 60 14 85 20 25 6 74 15 110 19 127 17 211 32 257 46 26 8 50 12 54 9 4 -2
34 2 66 10 65 16 187 33 308 42 44 3 95 10 114 16 18 6 68 12 110 14 42 1 146
8 231 15 178 13 693 17 790 6 150 -17 188 -20 244 -19 33 1 65 -3 72 -9 7 -5
26 -14 43 -19 26 -7 31 -6 37 13 4 12 7 58 6 102 0 69 2 83 21 103 20 21 20
24 5 50 -17 29 -17 108 1 197 8 44 7 52 -10 67 -22 19 -23 39 -5 91 8 20 11
39 7 42 -4 2 -7 46 -6 97 1 51 -2 101 -7 110 -6 12 -3 26 7 41 14 22 14 26 0
37 -11 9 -15 32 -15 80 0 39 -7 84 -16 105 -8 20 -16 60 -16 89 -1 28 -7 63
-14 78 -10 20 -11 34 -3 58 9 25 8 34 -6 50 -12 13 -15 27 -10 48 4 20 1 33
-10 42 -8 7 -15 21 -15 31 0 10 -5 21 -11 24 -6 4 -8 22 -4 45 4 23 2 41 -4
45 -6 3 -11 16 -11 28 0 12 -9 47 -20 77 -12 30 -27 86 -35 123 -8 38 -22 78
-30 90 -8 12 -15 37 -15 55 0 19 -9 47 -20 62 -11 16 -23 43 -27 62 -3 18 -18
50 -32 72 -14 21 -26 50 -27 65 -4 51 -22 113 -37 124 -20 16 -57 78 -57 97 0
18 -52 125 -73 148 -8 9 -17 32 -21 51 -3 18 -17 42 -31 53 -16 13 -25 29 -25
49 0 16 -4 29 -9 29 -14 0 -71 88 -71 110 0 10 -8 21 -18 24 -9 3 -28 28 -40
54 -13 27 -38 63 -57 80 -19 18 -41 54 -50 81 -15 45 -57 101 -75 101 -4 0
-13 13 -20 30 -7 16 -27 41 -46 55 -19 14 -34 33 -34 41 0 9 -8 28 -18 42 -10
15 -22 35 -25 45 -4 9 -16 17 -27 17 -11 0 -20 4 -20 8 0 5 -31 40 -69 79 -39
38 -73 81 -76 94 -4 14 -26 37 -53 54 -52 33 -132 113 -160 160 -10 17 -62 61
-114 98 -53 37 -98 76 -101 87 -3 11 -21 23 -47 31 -32 10 -46 21 -58 45 -10
21 -28 38 -51 48 -20 8 -56 33 -80 55 -25 23 -54 41 -67 41 -13 0 -27 6 -31
13 -12 18 -70 57 -86 57 -8 0 -22 9 -32 20 -10 11 -26 22 -35 25 -10 3 -21 17
-24 30 -5 21 -12 25 -44 25 -29 0 -53 12 -117 60 -44 33 -87 60 -96 60 -8 0
-30 11 -49 25 -19 14 -45 25 -59 25 -28 0 -78 27 -112 61 -16 16 -28 20 -51
15 -25 -5 -39 0 -74 30 -32 25 -50 34 -64 29 -12 -4 -31 0 -45 9 -13 9 -34 16
-45 16 -20 0 -115 49 -158 81 -16 12 -33 16 -56 12 -20 -3 -36 -1 -40 6 -4 6
-17 11 -29 11 -12 0 -35 7 -52 16 -18 9 -42 13 -58 10 -19 -4 -49 4 -94 24
-44 20 -82 30 -114 30 -26 0 -51 5 -54 10 -3 6 -23 10 -44 10 -20 0 -46 7 -57
15 -10 8 -34 15 -53 15 -19 0 -43 8 -53 17 -16 14 -24 15 -50 5 -23 -8 -36 -8
-52 0 -11 6 -50 11 -86 10 -35 0 -70 4 -77 10 -8 6 -34 8 -60 5 -31 -3 -61 0
-86 10 -29 12 -44 13 -62 5 -18 -8 -41 -8 -82 -1 -33 7 -93 8 -140 5 -58 -5
-88 -3 -102 6 -15 9 -25 9 -43 1 -45 -22 -68 -24 -90 -9 -26 19 -27 19 -51 5z
m28 -80 c4 -6 5 -13 2 -16 -8 -7 -47 7 -47 18 0 13 37 11 45 -2z m-75 -8 c0
-6 -16 -7 -35 -4 -27 4 -35 2 -35 -9 0 -12 14 -15 73 -13 68 2 81 4 135 26 30
12 32 12 32 -6 0 -9 9 -15 24 -15 13 0 32 -3 41 -6 11 -5 18 0 22 15 6 25 20
27 45 4 11 -9 18 -11 18 -5 0 7 9 12 20 12 11 0 20 -4 20 -10 0 -5 11 -10 25
-10 14 0 25 5 25 10 0 6 9 10 20 10 14 0 20 -7 20 -22 l0 -21 23 20 c26 24
101 40 112 23 4 -6 23 -10 43 -9 20 1 54 -3 75 -10 22 -8 54 -10 77 -6 33 6
40 4 40 -9 0 -13 13 -16 69 -16 46 0 71 4 74 13 4 10 7 10 18 0 9 -10 10 -13
1 -13 -7 0 -12 -4 -12 -10 0 -5 6 -7 14 -4 8 3 61 -6 118 -19 144 -35 169 -39
184 -26 10 8 14 9 14 0 0 -6 6 -11 13 -11 7 0 24 -8 37 -17 14 -10 37 -16 52
-14 17 1 28 -2 28 -9 0 -7 7 -9 15 -6 9 3 18 0 20 -7 4 -8 32 -13 81 -14 51
-2 80 -7 90 -18 9 -8 20 -15 25 -15 5 0 27 -8 49 -17 30 -13 39 -22 34 -35 -3
-10 -1 -18 5 -18 6 0 11 5 11 10 0 6 9 10 20 10 11 0 20 -6 20 -14 0 -20 21
-25 69 -19 34 5 46 2 66 -17 13 -12 30 -20 38 -17 11 4 13 0 10 -14 -3 -10 0
-19 6 -19 6 0 11 5 11 10 0 6 7 10 15 10 8 0 15 -9 15 -20 0 -12 7 -20 17 -20
9 0 25 -8 35 -17 17 -15 20 -15 28 -3 8 12 13 13 27 3 28 -20 84 -43 102 -43
9 0 22 -9 28 -19 8 -13 23 -19 49 -19 21 0 42 -6 48 -14 6 -8 17 -13 25 -10 9
3 11 -1 7 -16 -6 -16 -3 -19 12 -15 14 3 25 -5 40 -31 12 -20 28 -36 35 -36 8
0 20 -7 27 -15 7 -8 21 -15 31 -15 11 0 19 -4 19 -10 0 -5 4 -10 10 -10 5 0 7
7 4 15 -4 10 0 15 15 15 14 0 19 -5 15 -15 -4 -9 3 -19 20 -26 14 -7 26 -17
26 -23 0 -6 14 -19 30 -28 17 -9 30 -24 30 -33 0 -9 5 -13 10 -10 6 4 17 1 25
-5 12 -10 16 -8 24 11 8 23 9 23 15 -8 5 -19 14 -33 22 -33 8 0 17 -7 21 -16
4 -11 8 -12 13 -4 9 15 30 4 30 -16 0 -17 36 -19 44 -1 3 6 3 2 0 -10 -3 -13
-2 -23 3 -23 12 0 106 -79 117 -97 5 -10 4 -18 -5 -24 -7 -4 -10 -11 -7 -14 4
-4 17 2 29 14 25 23 39 19 39 -10 0 -10 4 -19 9 -19 5 0 27 -18 49 -40 28 -29
45 -38 58 -33 12 4 15 3 10 -5 -10 -16 15 -39 45 -44 13 -1 24 -10 24 -18 0
-8 19 -34 43 -58 24 -23 40 -47 37 -52 -3 -6 -2 -10 4 -10 5 0 11 6 14 13 3 8
15 2 36 -17 17 -17 31 -33 31 -38 0 -14 -28 -9 -34 7 -3 8 -10 15 -16 15 -5 0
-10 -7 -10 -15 0 -8 7 -15 15 -15 8 0 15 -5 15 -11 0 -6 8 -9 19 -6 25 6 50
-10 61 -39 6 -15 15 -22 25 -18 18 7 19 0 3 -26 -16 -25 -1 -41 16 -17 18 23
36 22 36 -3 0 -11 -5 -20 -10 -20 -6 0 5 -13 23 -30 19 -16 40 -30 46 -30 6 0
11 -8 11 -18 0 -9 10 -23 21 -31 18 -11 23 -11 30 0 4 8 11 11 14 7 4 -3 -3
-16 -15 -28 -11 -11 -18 -25 -15 -30 4 -6 12 -4 21 5 9 8 22 15 30 15 12 0 12
-3 2 -20 -7 -11 -16 -20 -20 -20 -5 0 -8 -10 -8 -22 1 -22 1 -23 15 -4 15 19
16 19 49 -13 22 -21 32 -39 29 -51 -3 -12 2 -20 16 -25 12 -3 21 -14 21 -24 0
-9 4 -21 9 -27 5 -5 14 -25 19 -44 l10 -35 1 43 c1 23 5 42 10 42 13 0 25 -83
17 -117 -6 -26 -5 -27 8 -9 15 18 36 15 36 -7 1 -19 37 -57 54 -57 9 0 16 -8
16 -19 0 -15 -5 -18 -22 -14 l-23 6 22 -22 c12 -12 28 -20 34 -19 7 2 17 -12
22 -29 5 -18 14 -33 18 -33 11 0 49 -76 58 -114 7 -33 31 -48 31 -19 0 15 3
14 20 -7 23 -30 25 -42 6 -38 -8 2 -15 0 -15 -4 -2 -23 0 -27 15 -21 13 5 15
1 10 -18 -3 -13 -3 -18 0 -11 9 19 24 14 24 -7 0 -11 7 -26 15 -35 8 -8 15
-23 15 -33 0 -10 14 -38 30 -62 17 -25 30 -57 30 -75 0 -23 3 -27 10 -16 7 12
12 12 21 3 10 -10 9 -17 -6 -33 -19 -20 -18 -21 3 -27 31 -8 60 -61 73 -129 6
-33 16 -65 21 -72 6 -7 11 -25 12 -40 1 -18 9 -30 23 -37 16 -7 21 -15 17 -31
-3 -12 -1 -31 5 -42 7 -14 8 -23 1 -27 -13 -8 -13 -35 0 -35 6 0 10 7 10 15 0
8 7 15 15 15 17 0 20 -21 6 -36 -15 -15 -23 -72 -12 -79 7 -4 11 3 11 17 0 13
4 30 10 38 8 12 10 12 16 -3 3 -10 4 -27 1 -40 -3 -12 -10 -40 -16 -62 -6 -25
-7 -43 -1 -49 7 -7 10 2 10 22 0 18 4 32 8 32 10 0 32 -68 32 -98 0 -11 5 -24
10 -27 6 -3 10 -19 10 -35 0 -16 5 -32 11 -36 7 -4 9 -24 6 -51 -4 -41 1 -67
24 -130 5 -15 14 -21 24 -17 10 4 15 0 15 -15 0 -23 -16 -29 -23 -8 -8 22 -15
3 -10 -25 4 -19 12 -28 24 -28 26 0 35 -21 15 -36 -15 -10 -15 -15 -4 -33 11
-18 11 -23 -1 -31 -12 -7 -12 -11 -2 -24 11 -13 10 -20 -4 -42 -16 -25 -16
-28 -1 -36 14 -8 15 -13 5 -24 -9 -11 -8 -14 5 -14 16 0 20 10 17 42 -1 9 2
19 7 22 5 3 12 -13 15 -37 4 -31 2 -44 -9 -50 -16 -9 -19 -48 -5 -62 19 -20
34 -219 28 -369 -4 -82 -2 -156 2 -165 5 -9 6 -84 2 -166 -4 -83 -3 -155 1
-162 6 -7 2 -14 -12 -18 -12 -4 -19 -14 -18 -23 2 -12 -5 -18 -26 -20 -26 -3
-56 -22 -56 -35 0 -3 9 -3 20 0 11 3 20 0 20 -6 0 -6 -8 -11 -17 -12 -46 -2
-97 4 -126 15 -18 7 -52 14 -77 15 -25 1 -54 8 -65 15 -11 8 -38 16 -60 19
-22 3 -78 10 -125 17 -47 6 -96 15 -110 21 -14 5 -56 11 -95 14 -38 3 -113 11
-165 18 -62 9 -104 11 -122 5 -20 -7 -33 -5 -51 7 -18 11 -31 13 -49 6 -15 -6
-53 -6 -94 -1 -70 8 -303 5 -449 -6 -44 -3 -91 -6 -105 -6 -14 0 -65 -4 -115
-10 -92 -9 -145 -14 -250 -22 -33 -3 -87 -11 -120 -20 -33 -8 -85 -18 -115
-20 -30 -3 -68 -8 -85 -11 -16 -3 -47 -7 -67 -9 -20 -1 -44 -8 -52 -15 -8 -7
-24 -10 -36 -6 -11 4 -45 -1 -74 -10 -52 -16 -56 -16 -108 2 -62 22 -96 16
-140 -25 -22 -20 -30 -23 -42 -13 -8 7 -20 11 -28 10 -7 -2 -22 2 -33 7 -16 9
-29 7 -60 -10 l-40 -21 -39 38 c-21 20 -44 36 -50 35 -6 -2 -26 3 -44 11 -28
12 -38 11 -76 -3 -49 -19 -79 -48 -93 -91 -8 -25 -16 -31 -44 -33 -20 -2 -46
-14 -62 -30 -25 -24 -29 -25 -37 -11 -5 9 -23 22 -39 28 -24 11 -34 10 -61 -4
-32 -17 -33 -17 -60 13 -31 34 -76 47 -157 45 -42 0 -59 -6 -91 -32 -22 -17
-47 -47 -56 -66 -9 -19 -21 -35 -25 -35 -22 0 -65 31 -82 59 -29 48 -63 64
-142 67 -66 2 -74 0 -111 -28 -23 -17 -45 -37 -51 -43 -5 -7 -35 -14 -65 -17
-30 -4 -67 -12 -83 -19 -15 -7 -37 -27 -48 -46 -11 -18 -25 -33 -31 -33 -6 0
-16 8 -23 17 -17 23 -94 45 -116 32 -10 -5 -25 -6 -33 -3 -21 8 -101 -32 -126
-63 -11 -14 -20 -36 -20 -50 0 -31 -27 -41 -44 -17 -11 14 -25 18 -64 16 -35
-1 -53 3 -63 14 -45 54 -152 46 -236 -18 -28 -21 -54 -46 -57 -54 -5 -14 -8
-13 -28 0 -12 9 -31 16 -41 16 -10 0 -34 -12 -52 -26 l-34 -26 -9 34 c-5 22
-21 42 -47 59 -31 21 -47 26 -75 22 -19 -3 -44 -10 -54 -16 -14 -7 -22 -6 -30
5 -41 53 -116 63 -166 22 -35 -30 -60 -73 -60 -105 0 -18 -4 -20 -26 -15 -82
21 -83 21 -124 -23 -22 -23 -37 -47 -34 -55 7 -18 -13 -31 -29 -18 -7 6 -28
13 -48 17 -31 6 -40 3 -67 -24 l-30 -31 -31 26 c-27 22 -37 25 -69 19 -38 -7
-92 -49 -92 -72 0 -16 -14 -17 -39 -2 -14 9 -25 8 -52 -5 -32 -16 -35 -16 -44
1 -5 9 -23 30 -38 45 -23 22 -36 27 -78 26 -28 -1 -54 -7 -60 -15 -6 -7 -20
-13 -30 -13 -10 0 -23 -9 -29 -20 -15 -28 -28 -25 -36 8 -13 53 -76 102 -133
102 -42 0 -112 -32 -148 -69 l-32 -31 -36 20 c-31 17 -40 19 -53 8 -8 -7 -23
-12 -32 -10 -9 1 -23 -4 -30 -13 -11 -14 -16 -13 -44 8 -17 13 -44 27 -60 31
-34 8 -126 -20 -126 -38 0 -17 44 -36 85 -36 31 0 66 -6 185 -30 25 -5 95 -14
155 -20 61 -6 130 -13 155 -15 246 -27 819 -35 1130 -15 96 5 209 13 250 15
220 14 543 50 596 66 17 5 48 9 70 9 22 0 44 4 50 9 5 5 38 12 74 15 147 15
165 18 174 27 6 5 25 9 44 9 18 0 41 4 50 9 9 5 33 11 52 12 27 3 35 0 38 -13
3 -14 -4 -18 -31 -18 -20 0 -37 -4 -39 -10 -1 -5 -27 -10 -55 -11 -29 -1 -53
-5 -53 -10 0 -4 -17 -9 -37 -12 -74 -11 -108 -18 -128 -28 -11 -5 -40 -11 -65
-12 -25 -2 -52 -6 -60 -9 -8 -3 -42 -11 -75 -18 -33 -6 -80 -17 -104 -23 -24
-6 -60 -12 -80 -13 -60 -5 -115 -16 -127 -25 -6 -5 -19 -7 -27 -3 -9 3 -40 -1
-69 -9 -69 -20 -214 -41 -232 -34 -8 3 -30 1 -48 -5 -18 -6 -49 -12 -68 -14
-19 -2 -62 -8 -95 -13 -33 -5 -100 -10 -150 -11 -49 0 -135 -7 -190 -16 -55
-8 -107 -15 -115 -14 -83 2 -262 2 -290 0 -19 -1 -100 1 -180 5 -80 4 -172 8
-205 9 -33 1 -73 7 -88 14 -16 7 -52 12 -80 12 -88 -1 -165 5 -173 13 -4 4
-22 4 -40 1 -18 -3 -50 0 -71 7 -21 8 -58 15 -83 15 -62 2 -141 14 -165 24
-11 5 -45 11 -75 14 -92 8 -144 18 -157 28 -6 5 -40 11 -75 12 -73 4 -156 20
-213 42 -22 9 -56 18 -75 20 -58 5 -124 20 -145 31 -11 6 -35 11 -54 11 -18 0
-40 7 -50 15 -9 8 -35 18 -58 22 -23 3 -47 13 -54 21 -7 8 -20 12 -30 9 -25
-8 -24 6 1 33 11 12 20 24 20 27 0 3 -10 3 -22 0 -13 -3 -31 1 -40 8 -19 15
-40 82 -42 137 -1 19 -10 53 -19 75 -11 23 -18 67 -19 105 -1 36 -4 76 -8 90
-4 17 -2 29 8 36 12 9 13 23 4 89 -6 43 -7 87 -3 99 5 13 1 34 -10 56 -12 24
-19 30 -22 20 -3 -8 -8 -22 -10 -30 -4 -10 -6 -9 -6 5 0 11 6 29 14 39 20 27
19 66 -2 82 -17 12 -17 13 -1 14 13 0 17 9 17 43 -1 23 2 57 6 76 7 31 6 33
-14 26 -12 -4 -21 -2 -21 4 0 6 11 11 25 11 14 0 25 2 25 5 0 3 -7 17 -16 30
-14 22 -14 25 -1 31 22 8 32 72 15 93 -8 9 -20 28 -28 44 -10 20 -11 30 -2 39
8 8 14 5 21 -14 5 -15 15 -29 20 -33 19 -11 24 24 8 49 -10 14 -18 56 -21 102
-3 44 -2 62 2 41 4 -21 12 -39 17 -40 17 -3 15 86 -1 112 -12 17 -13 26 -5 34
6 6 11 19 11 29 0 9 8 21 17 27 14 8 15 12 4 25 -11 13 -10 28 2 88 9 40 18
102 21 137 3 36 13 75 21 87 8 13 15 34 15 48 0 13 6 26 13 29 9 3 9 9 0 25
-7 12 -9 31 -4 48 l7 29 7 -33 c11 -53 27 -27 27 43 0 46 -4 66 -15 72 -9 6
-11 13 -5 23 8 12 10 12 16 -3 8 -23 24 -22 24 2 0 11 6 21 13 24 10 4 9 7 -1
18 -18 20 -15 39 13 65 17 16 27 39 32 69 3 25 10 48 14 51 5 3 9 14 9 26 0
18 17 65 40 108 4 9 11 30 14 47 6 24 11 30 27 26 13 -4 19 0 19 10 0 9 -8 17
-18 19 -14 3 -13 7 11 28 15 13 27 30 27 37 0 7 5 13 10 13 6 0 10 9 10 20 0
14 11 26 32 35 31 13 32 13 8 17 -17 2 -25 9 -25 23 0 13 7 20 20 20 11 0 30
6 42 13 19 11 21 19 18 78 -2 42 -8 70 -16 75 -8 5 -9 9 -3 9 5 0 19 -7 30
-15 10 -8 22 -15 27 -15 14 0 7 23 -10 36 -17 12 -16 15 11 37 20 16 27 29 23
40 -4 11 1 20 14 27 13 8 18 17 14 30 -8 25 28 62 52 53 15 -5 16 -3 6 8 -20
21 -15 39 20 73 52 49 107 122 107 140 0 9 8 16 20 16 20 0 28 24 11 34 -5 3
-7 16 -4 27 6 21 7 21 20 -5 7 -14 20 -26 28 -26 20 0 19 10 -2 25 -17 12 -17
14 2 35 15 16 16 23 6 29 -10 6 -9 10 4 15 9 3 20 4 25 1 4 -3 19 -1 32 4 21
9 21 10 -9 10 -18 1 -33 4 -33 7 0 11 34 33 52 34 21 0 90 80 83 97 -5 15 34
83 48 83 11 0 58 56 77 91 16 30 115 119 132 119 6 0 8 11 4 26 -6 24 -5 25
23 19 28 -6 30 -5 28 22 -1 19 3 28 13 29 36 4 58 18 95 64 22 27 50 52 62 56
11 3 23 15 26 25 3 11 19 25 36 32 16 6 32 19 34 29 3 10 21 25 41 33 20 9 36
18 36 22 0 3 -8 12 -17 19 -16 12 -16 13 -1 14 9 0 18 -4 20 -9 2 -5 15 -7 31
-4 27 5 36 26 16 39 -8 4 -7 9 2 15 22 14 39 10 39 -7 0 -19 24 -13 26 7 1 8
2 19 3 24 0 6 21 21 46 34 25 13 45 28 45 34 0 14 48 57 64 57 8 0 17 -7 20
-16 3 -8 10 -12 16 -9 15 9 12 25 -5 25 -18 0 -20 16 -3 26 6 4 14 2 16 -4 6
-19 22 -14 48 17 13 16 38 31 57 35 20 4 36 14 42 29 7 15 20 23 43 25 18 2
32 9 32 16 0 8 7 19 16 27 12 10 20 10 35 1 24 -15 29 -15 29 2 0 8 -6 16 -12
19 -10 4 -10 7 0 18 9 10 15 10 24 1 18 -18 49 -15 42 3 -4 10 0 15 15 15 12
0 21 5 21 10 0 6 7 10 15 10 18 0 19 12 3 28 -22 22 14 14 38 -9 22 -21 54
-20 54 1 0 6 -10 8 -25 4 -18 -4 -25 -2 -25 9 0 10 12 14 41 14 28 0 45 6 51
17 5 8 18 21 30 27 16 9 23 8 30 -2 5 -9 6 -4 2 15 -6 26 -5 27 15 17 11 -7
21 -19 21 -27 0 -8 5 -12 11 -8 6 3 8 17 4 31 -5 23 -3 25 16 20 12 -3 34 0
48 8 14 7 35 17 46 21 19 7 19 8 -2 11 -13 3 -23 9 -23 15 0 7 14 8 39 4 38
-6 91 11 196 62 22 11 60 25 85 32 25 6 53 16 62 21 10 5 25 9 33 9 9 0 29 10
45 22 16 12 37 22 47 23 10 1 29 7 42 14 13 7 35 11 50 8 14 -3 51 2 81 11 30
9 80 16 111 17 31 0 62 5 70 11 24 20 81 32 173 38 49 4 95 11 102 17 7 6 18
8 24 4 7 -4 14 2 17 14 3 12 12 21 20 21 12 0 13 -3 4 -13 -13 -16 -3 -31 13
-18 6 4 23 11 39 15 22 5 27 3 27 -11 0 -13 2 -15 9 -5 4 7 20 14 35 15 15 1
30 7 34 14 11 18 132 31 132 14z m225 -1 c-3 -5 -12 -7 -20 -3 -21 7 -19 13 6
13 11 0 18 -4 14 -10z m655 -20 c0 -5 -6 -10 -14 -10 -8 0 -18 5 -21 10 -3 6
3 10 14 10 12 0 21 -4 21 -10z m-2210 -254 c0 -3 -13 -11 -30 -20 -33 -16 -40
-11 -12 10 16 13 42 19 42 10z m-390 -182 c0 -8 -5 -12 -10 -9 -6 4 -8 11 -5
16 9 14 15 11 15 -7z m4235 -124 c14 -16 15 -20 4 -20 -16 0 -39 19 -39 32 0
14 16 9 35 -12z m-4610 -70 c3 -5 -1 -10 -9 -10 -9 0 -16 5 -16 10 0 6 4 10 9
10 6 0 13 -4 16 -10z m-35 -30 c0 -5 -4 -10 -10 -10 -5 0 -10 5 -10 10 0 6 5
10 10 10 6 0 10 -4 10 -10z m-960 -800 c0 -5 -4 -10 -10 -10 -5 0 -10 5 -10
10 0 6 5 10 10 10 6 0 10 -4 10 -10z m-650 -1021 c0 -10 -7 -19 -15 -19 -15 0
-21 31 -9 43 11 10 24 -3 24 -24z m-483 -1751 c-3 -7 -5 -2 -5 12 0 14 2 19 5
13 2 -7 2 -19 0 -25z m13 -448 c0 -5 -4 -10 -9 -10 -6 0 -13 5 -16 10 -3 6 1
10 9 10 9 0 16 -4 16 -10z m-9 -150 l-9 -45 -1 55 c-1 35 2 51 9 44 6 -6 6
-26 1 -54z m7258 -73 c8 -11 -2 -16 -52 -25 -34 -6 -79 -9 -99 -6 -27 5 -41 2
-53 -10 -21 -20 -69 -21 -85 -1 -13 15 -40 21 -40 8 0 -3 8 -15 18 -26 17 -19
16 -19 -23 -14 -40 6 -92 10 -109 8 -6 -1 -1 -8 10 -16 17 -13 17 -14 2 -15
-10 0 -18 -4 -18 -10 0 -5 -13 -10 -30 -10 -38 0 -40 20 -2 21 l27 0 -24 10
c-17 7 -29 6 -40 -3 -36 -29 -56 -35 -81 -26 -33 13 -90 17 -90 6 0 -4 13 -8
29 -8 17 0 32 -4 35 -9 8 -12 -56 -21 -68 -10 -6 5 -21 9 -34 9 -19 0 -22 -4
-17 -20 7 -23 2 -25 -26 -9 -13 6 -25 7 -32 1 -7 -5 -32 -12 -57 -16 -25 -3
-65 -13 -90 -21 -25 -8 -81 -22 -125 -31 -44 -10 -82 -20 -85 -23 -8 -10 -70
-9 -70 0 0 16 -14 10 -50 -21 -19 -16 -38 -30 -42 -30 -4 0 -19 5 -34 10 -20
8 -31 7 -43 -3 -9 -8 -70 -27 -136 -42 -66 -16 -124 -32 -130 -35 -5 -4 -27
-10 -47 -14 -27 -5 -36 -11 -31 -21 3 -8 1 -15 -5 -15 -6 0 -12 6 -15 13 -3 9
-7 9 -20 -1 -9 -8 -25 -11 -35 -8 -13 4 -22 1 -26 -9 -3 -8 -14 -15 -25 -15
-11 0 -22 -4 -25 -9 -3 -5 -37 -12 -75 -16 -48 -5 -71 -12 -75 -22 -4 -9 -14
-13 -26 -10 -11 3 -46 -3 -77 -13 -32 -11 -85 -27 -118 -36 -33 -10 -65 -25
-72 -33 -11 -14 -12 -14 -13 2 0 24 -30 22 -30 -3 0 -18 -2 -19 -21 -8 -17 10
-23 10 -26 1 -3 -7 -10 -13 -17 -13 -7 0 -28 -8 -46 -17 -24 -12 -35 -13 -38
-5 -2 7 -11 12 -19 12 -12 0 -13 -3 -4 -14 9 -11 -11 -19 -116 -44 -71 -17
-144 -34 -163 -38 -19 -3 -45 -12 -57 -20 -13 -8 -23 -10 -23 -4 0 5 -9 10
-21 10 -16 0 -19 -4 -14 -20 5 -15 2 -20 -13 -20 -11 0 -25 7 -32 15 -16 19
-33 8 -27 -17 8 -28 -24 -19 -39 11 -12 23 -12 23 -19 2 -3 -12 -12 -21 -18
-20 -26 3 -37 -2 -37 -15 0 -16 -37 -29 -42 -14 -2 6 -28 4 -68 -7 -36 -9 -74
-21 -85 -25 -11 -5 -38 -11 -60 -14 -96 -12 -220 -38 -223 -47 -5 -14 -50 -11
-55 4 -3 9 -9 9 -26 0 -27 -17 -58 -17 -65 -1 -5 10 -7 10 -12 1 -3 -7 -14
-13 -24 -13 -10 0 -20 -7 -24 -15 -7 -20 -36 -19 -51 2 -8 10 -19 14 -30 10
-14 -6 -15 -10 -5 -22 10 -13 8 -15 -13 -15 -14 0 -28 4 -32 10 -3 5 -12 7
-20 4 -8 -4 -12 -11 -9 -16 4 -7 -5 -8 -25 -3 -17 4 -71 2 -119 -4 -259 -32
-442 -43 -697 -43 -199 0 -307 5 -410 18 -77 10 -153 18 -170 17 -16 0 -33 4
-36 9 -4 5 -24 4 -53 -3 -26 -6 -50 -9 -53 -5 -4 3 1 6 9 6 9 0 19 7 22 16 4
10 16 15 33 14 44 -3 48 -1 27 14 -29 22 -12 28 25 10 28 -14 80 -16 359 -18
208 0 365 4 432 12 58 7 160 13 228 14 67 0 122 4 122 7 0 4 -5 12 -11 18 -8
8 -8 13 0 17 6 4 11 0 11 -8 0 -19 13 -20 40 -4 15 10 26 10 52 0 21 -8 34 -9
36 -2 5 13 38 13 63 -1 16 -8 27 -6 53 15 25 18 36 22 44 14 9 -9 18 -9 34 0
71 34 100 44 120 39 12 -3 52 1 90 8 38 8 84 15 102 15 19 0 76 11 129 24 53
14 105 22 116 19 17 -4 21 -1 21 17 0 19 4 21 25 16 18 -5 25 -2 25 9 0 8 5
15 11 15 6 0 8 -8 4 -19 -3 -11 -1 -22 5 -26 5 -3 10 1 10 9 0 9 7 16 15 16 9
0 18 7 21 15 4 8 12 15 20 15 17 0 18 -12 2 -28 -6 -6 -9 -15 -5 -19 4 -3 16
3 26 14 15 15 17 23 8 32 -8 8 0 10 35 5 29 -4 48 -2 52 5 4 6 18 11 31 11 13
0 26 4 30 9 3 5 37 19 75 31 44 13 70 27 70 36 0 17 27 19 32 2 3 -8 9 -8 24
0 17 10 17 11 2 12 -10 0 -18 5 -18 11 0 7 12 9 35 5 28 -6 35 -4 35 9 0 11
-10 15 -35 15 -21 0 -35 5 -35 13 0 7 -10 18 -21 25 -16 10 -18 17 -10 25 20
20 12 31 -9 12 -27 -24 -37 -12 -16 20 19 29 9 34 -16 8 -34 -36 -48 -43 -87
-43 -32 0 -39 -3 -35 -15 4 -9 0 -15 -9 -15 -8 0 -18 8 -22 17 -6 17 -7 17
-21 -1 -14 -19 -14 -19 -27 -1 -10 12 -16 14 -21 7 -4 -7 -22 -12 -40 -12 -17
0 -37 -5 -43 -11 -14 -14 -50 -5 -83 20 -30 24 -19 39 19 25 15 -6 43 -9 62
-6 l34 6 -29 5 c-33 7 -37 20 -12 36 12 7 19 6 25 -4 5 -8 14 -10 21 -6 9 6 7
13 -10 25 -20 15 -21 19 -9 33 12 13 15 11 25 -12 l12 -26 11 28 c11 28 12 28
91 26 61 -2 77 -6 69 -15 -18 -21 7 -25 27 -3 10 11 23 18 30 15 7 -3 20 6 30
20 11 13 26 24 34 24 12 -1 11 -3 -3 -11 -9 -6 -15 -14 -12 -19 6 -10 45 -1
45 12 0 12 63 38 95 38 14 0 25 5 25 10 0 6 -4 10 -10 10 -5 0 -10 4 -10 8 0
12 34 11 41 -1 4 -5 12 -6 18 -2 9 5 9 10 1 20 -8 9 -6 15 7 20 10 5 27 10 37
12 11 2 26 8 33 15 7 6 17 8 20 4 4 -4 1 -11 -7 -16 -12 -8 -12 -10 4 -10 11
0 28 8 38 17 17 16 20 16 35 0 16 -16 16 -17 -6 -17 -14 0 -21 -5 -18 -12 5
-13 11 -14 37 -4 10 4 32 -9 60 -34 32 -29 53 -40 77 -40 43 0 84 20 81 39 -2
12 5 16 32 14 19 0 27 1 18 4 -21 5 -24 23 -5 23 8 0 22 9 31 19 17 19 18 18
62 -6 24 -14 44 -20 44 -14 0 7 -7 14 -15 17 -8 4 -15 12 -15 20 0 16 26 19
35 5 3 -5 20 -13 37 -16 28 -7 30 -9 15 -20 -9 -7 -17 -15 -17 -17 0 -3 9 -8
19 -11 15 -3 18 -1 14 11 -5 11 -3 13 8 7 8 -4 22 -15 31 -23 22 -19 44 -6 26
16 -11 13 -11 15 3 10 9 -4 22 -1 28 5 8 8 11 4 11 -16 0 -15 2 -27 3 -27 2 0
18 7 36 16 18 9 35 13 38 10 4 -3 1 -6 -5 -6 -7 0 -12 -4 -12 -10 0 -13 37
-13 45 1 4 5 17 9 28 7 29 -3 47 9 41 27 -5 12 0 14 25 9 27 -6 31 -4 31 14 0
12 5 24 12 28 8 5 9 2 5 -9 -3 -9 -3 -18 1 -21 13 -8 50 31 66 68 15 36 36 42
36 10 0 -8 5 -14 10 -14 6 0 10 5 10 10 0 13 38 4 98 -25 40 -18 62 -21 150
-19 68 1 108 7 119 16 12 9 45 12 117 11 56 -1 119 2 141 7 22 5 65 12 95 15
30 4 62 13 72 21 14 14 17 14 26 -1 12 -23 46 -15 50 13 4 25 12 28 30 10 9
-9 15 -9 24 0 17 17 33 15 18 -3 -18 -22 -1 -18 45 10 22 14 51 25 65 24 l25
0 -25 -12 c-14 -6 -31 -17 -37 -24 -15 -14 -17 -33 -3 -33 6 0 10 7 10 15 0
15 10 19 43 16 9 -1 17 3 17 8 0 6 9 11 20 11 11 0 23 7 26 15 4 8 10 15 16
15 5 0 6 -4 3 -10 -4 -6 11 -10 38 -10 37 0 46 4 50 21 4 14 11 20 20 16 8 -3
35 -9 61 -12 31 -5 51 -3 61 5 8 6 27 9 42 6 15 -3 44 -2 63 3 53 13 96 12
109 -2z m86 3 c-3 -5 -17 -10 -30 -10 -13 0 -27 5 -30 10 -4 6 8 10 30 10 22
0 34 -4 30 -10z m-562 -17 c-7 -2 -19 -2 -25 0 -7 3 -2 5 12 5 14 0 19 -2 13
-5z m-333 -63 c0 -5 -4 -10 -10 -10 -5 0 -10 5 -10 10 0 6 5 10 10 10 6 0 10
-4 10 -10z m-860 -39 c0 -6 -4 -13 -10 -16 -5 -3 -10 1 -10 9 0 9 5 16 10 16
6 0 10 -4 10 -9z m440 -156 c0 -8 -7 -15 -15 -15 -8 0 -15 7 -15 15 0 8 7 15
15 15 8 0 15 -7 15 -15z m-2950 -120 c13 4 22 1 26 -9 4 -11 20 -16 53 -16 25
0 59 -7 75 -15 15 -8 35 -15 42 -15 20 0 17 -17 -3 -29 -10 -5 -14 -13 -10
-17 5 -5 11 -4 15 2 4 6 25 14 47 17 29 5 44 2 57 -10 16 -15 18 -14 27 8 8
23 9 23 17 5 5 -13 3 -21 -4 -24 -7 -2 -12 -10 -12 -19 0 -23 -35 -11 -38 15
-4 27 -32 29 -32 2 0 -11 7 -20 15 -20 8 0 15 -4 15 -9 0 -5 3 -16 6 -25 3 -9
1 -16 -6 -16 -6 0 -8 5 -5 10 3 6 -3 10 -14 10 -12 0 -21 5 -21 10 0 6 -10 10
-21 10 -17 0 -19 -3 -10 -13 9 -11 -6 -14 -81 -16 -54 -1 -98 -7 -107 -14 -11
-9 -15 -9 -18 1 -6 16 -53 16 -53 -1 0 -17 -80 -9 -87 9 -7 19 -33 18 -33 -1
0 -8 5 -15 10 -15 6 0 10 -5 10 -11 0 -8 -5 -8 -15 1 -8 7 -24 10 -35 7 -23
-6 -26 3 -8 21 9 9 9 12 0 12 -7 0 -12 -4 -12 -10 0 -14 -28 -12 -33 3 -2 6
-8 9 -12 4 -5 -4 0 -14 11 -21 17 -13 15 -14 -23 -13 -34 2 -39 4 -30 16 9 11
9 15 0 18 -15 5 -17 33 -3 33 6 0 10 -5 10 -11 0 -8 5 -7 16 2 12 10 20 10 35
1 14 -9 19 -9 19 0 0 20 32 48 57 48 13 0 26 8 30 18 4 9 14 22 22 29 9 6 16
17 16 24 0 17 46 29 62 17 7 -5 21 -7 33 -3z m662 -17 c15 -10 33 -18 40 -17
7 1 31 -1 53 -6 41 -8 70 -29 61 -43 -3 -5 -45 -14 -93 -21 -149 -20 -357 -40
-365 -35 -19 12 -4 31 40 48 69 28 122 64 122 82 0 13 7 15 35 10 23 -5 35 -3
35 4 0 15 36 4 72 -22z m575 -53 c1 -5 -13 -11 -32 -12 -36 -2 -48 12 -17 20
25 7 45 4 49 -8z m-1477 -25 c0 -5 -8 -10 -17 -10 -15 0 -16 2 -3 10 19 12 20
12 20 0z m1223 -7 c-7 -2 -21 -2 -30 0 -10 3 -4 5 12 5 17 0 24 -2 18 -5z
m-1303 -59 c0 -13 -31 -35 -41 -29 -6 5 -4 12 8 21 19 14 33 18 33 8z m1405
-64 c-3 -5 -13 -10 -21 -10 -8 0 -12 5 -9 10 3 6 13 10 21 10 8 0 12 -4 9 -10z
m15 -170 c0 -5 -4 -10 -10 -10 -5 0 -10 5 -10 10 0 6 5 10 10 10 6 0 10 -4 10
-10z m-2855 -40 c3 -5 -1 -10 -9 -10 -9 0 -16 5 -16 10 0 6 4 10 9 10 6 0 13
-4 16 -10z m1875 -5 c0 -8 -9 -15 -20 -15 -20 0 -26 11 -13 23 12 13 33 7 33
-8z m-1802 -23 c2 -7 -6 -12 -17 -12 -21 0 -27 11 -14 24 9 9 26 2 31 -12z
m67 -2 c-3 -5 -15 -10 -26 -10 -10 0 -19 5 -19 10 0 6 12 10 26 10 14 0 23 -4
19 -10z m128 -2 c12 -6 37 -11 55 -9 22 2 34 -2 38 -14 5 -13 15 -15 53 -10
l46 7 -30 -21 c-16 -12 -37 -21 -46 -21 -9 0 -24 9 -34 20 -21 23 -35 26 -35
6 0 -19 -27 -28 -34 -10 -6 16 -46 20 -46 4 0 -5 -7 -10 -15 -10 -8 0 -15 5
-15 10 0 6 7 10 16 10 14 0 14 2 3 16 -8 10 -15 12 -17 5 -2 -6 -14 -11 -26
-11 -12 0 -27 -5 -34 -12 -7 -7 -12 -8 -12 -2 0 18 36 45 53 39 8 -4 18 -2 22
4 8 14 31 14 58 -1z m2122 -28 c-3 -5 -10 -10 -16 -10 -5 0 -9 5 -9 10 0 6 7
10 16 10 8 0 12 -4 9 -10z"/>
<path d="M6295 6300 c3 -5 10 -10 16 -10 5 0 9 5 9 10 0 6 -7 10 -16 10 -8 0
-12 -4 -9 -10z"/>
<path d="M5640 6280 c0 -5 7 -10 15 -10 8 0 15 5 15 10 0 6 -7 10 -15 10 -8 0
-15 -4 -15 -10z"/>
<path d="M5890 6280 c0 -5 7 -10 15 -10 8 0 15 5 15 10 0 6 -7 10 -15 10 -8 0
-15 -4 -15 -10z"/>
<path d="M6070 6280 c0 -5 7 -10 15 -10 8 0 15 5 15 10 0 6 -7 10 -15 10 -8 0
-15 -4 -15 -10z"/>
<path d="M6405 6280 c3 -5 10 -10 16 -10 5 0 9 5 9 10 0 6 -7 10 -16 10 -8 0
-12 -4 -9 -10z"/>
<path d="M7140 6120 c0 -5 4 -10 9 -10 6 0 13 5 16 10 3 6 -1 10 -9 10 -9 0
-16 -4 -16 -10z"/>
<path d="M7632 5980 c14 -4 31 -11 37 -14 7 -4 8 -1 5 8 -4 10 -18 16 -38 15
l-31 -1 27 -8z"/>
<path d="M8070 5800 c0 -5 7 -10 15 -10 8 0 15 5 15 10 0 6 -7 10 -15 10 -8 0
-15 -4 -15 -10z"/>
<path d="M3815 5640 c4 -6 11 -8 16 -5 14 9 11 15 -7 15 -8 0 -12 -5 -9 -10z"/>
<path d="M8475 5510 c-3 -5 3 -10 14 -10 12 0 21 5 21 10 0 6 -6 10 -14 10 -8
0 -18 -4 -21 -10z"/>
<path d="M7694 4795 c-6 -16 9 -35 44 -54 12 -6 22 -20 22 -31 0 -11 11 -27
25 -36 14 -9 25 -24 25 -34 0 -10 14 -30 32 -45 18 -15 32 -37 33 -48 0 -13
16 -32 43 -50 33 -22 40 -32 32 -42 -9 -10 2 -26 46 -70 31 -31 69 -61 84 -66
15 -6 32 -20 39 -32 12 -23 107 -89 153 -106 14 -5 30 -20 34 -33 4 -13 21
-36 38 -53 17 -16 36 -40 41 -51 26 -58 132 -144 176 -144 18 0 27 -25 12 -32
-5 -1 -21 -18 -36 -37 -31 -37 -72 -69 -131 -102 -21 -11 -48 -29 -58 -39 -11
-10 -68 -40 -126 -66 -147 -66 -185 -87 -190 -101 -4 -14 38 -18 54 -5 5 4 25
13 44 19 80 25 149 36 239 37 73 1 104 -3 130 -16 19 -10 42 -18 52 -18 10 0
27 -12 39 -27 17 -22 20 -36 16 -65 -5 -32 -3 -38 11 -38 13 0 23 16 36 58 9
31 17 65 17 75 0 10 7 34 16 55 9 20 19 50 23 67 8 37 57 71 114 80 23 4 61
20 84 36 23 16 46 29 51 29 6 0 28 20 49 44 37 42 66 93 112 197 13 29 28 49
42 52 24 7 20 34 -4 29 -9 -2 -30 7 -45 18 -42 31 -102 36 -160 15 -26 -10
-60 -29 -75 -42 -16 -12 -35 -23 -43 -23 -7 0 -16 11 -20 25 -8 30 -77 122
-119 157 -17 14 -82 50 -146 81 -64 30 -119 60 -123 65 -3 6 -31 22 -61 36
-30 14 -55 29 -55 33 0 5 -15 14 -34 21 -18 7 -41 21 -51 32 -10 11 -27 20
-37 20 -24 0 -87 32 -153 77 -27 20 -81 51 -120 69 -38 19 -95 48 -125 64 -61
33 -88 37 -96 15z m256 -175 c0 -5 -4 -10 -10 -10 -5 0 -10 5 -10 10 0 6 5 10
10 10 6 0 10 -4 10 -10z m20 -66 c0 -8 -5 -12 -10 -9 -6 4 -8 11 -5 16 9 14
15 11 15 -7z m104 -24 c6 0 4 -6 -5 -13 -15 -11 -14 -16 14 -47 27 -30 30 -31
23 -10 -18 57 -18 70 -5 70 19 0 40 -36 33 -55 -4 -10 0 -15 15 -15 12 0 21 6
21 15 0 8 2 15 5 15 3 0 21 -15 40 -34 19 -19 44 -36 56 -38 12 -2 24 -9 27
-15 2 -9 -10 -13 -40 -14 l-43 -1 35 -8 c19 -5 38 -6 43 -3 4 2 14 -1 22 -7
12 -10 15 -9 15 4 0 9 7 16 15 16 8 0 15 -6 15 -13 0 -8 27 -28 61 -46 48 -25
64 -29 75 -20 11 9 14 9 14 -1 0 -6 -10 -20 -22 -29 -14 -12 -17 -20 -10 -25
6 -4 20 2 32 14 11 11 24 20 28 20 5 0 17 -9 27 -20 10 -11 24 -20 32 -20 7 0
13 -4 13 -10 0 -5 -9 -10 -19 -10 -11 0 -23 5 -26 10 -3 6 -14 10 -22 10 -14
0 -13 -3 4 -19 13 -13 29 -17 46 -14 16 3 27 1 27 -6 0 -5 7 -8 15 -5 10 4 15
0 15 -15 0 -23 25 -29 33 -8 3 6 6 2 6 -9 1 -12 -6 -27 -14 -34 -8 -7 -12 -16
-9 -21 8 -14 24 -10 24 6 0 22 31 18 37 -5 3 -11 10 -20 15 -20 6 0 8 -9 5
-20 -4 -15 0 -20 15 -20 14 0 18 5 14 15 -6 18 10 20 20 3 4 -6 2 -14 -4 -16
-17 -5 -15 -32 3 -32 8 0 15 5 15 10 0 6 7 10 16 10 10 0 14 -6 10 -15 -7 -18
4 -19 39 -3 14 6 25 17 25 25 0 7 9 13 19 13 11 0 21 5 23 12 3 8 12 4 26 -10
12 -12 26 -22 32 -22 14 0 0 -31 -27 -60 -13 -14 -23 -35 -23 -48 0 -17 -8
-27 -30 -35 -22 -8 -28 -16 -24 -29 4 -13 0 -18 -14 -18 -11 0 -22 6 -25 13
-6 18 -39 -12 -34 -32 3 -13 -5 -15 -47 -13 -37 2 -47 0 -36 -7 8 -6 23 -8 34
-5 12 4 16 2 12 -5 -4 -6 -20 -11 -37 -11 -21 0 -40 -11 -69 -41 -30 -31 -39
-47 -34 -62 5 -16 3 -19 -10 -14 -15 6 -20 -3 -17 -30 3 -18 -18 -16 -25 2 -3
8 -21 23 -39 34 -25 14 -36 16 -45 8 -9 -9 -11 -7 -8 8 3 15 11 19 33 18 17
-1 35 -9 41 -18 6 -8 14 -12 17 -9 7 8 -11 46 -27 56 -6 4 -7 10 -3 14 10 10
55 -16 60 -35 4 -14 5 -14 6 1 0 9 -6 23 -14 32 -17 17 -20 36 -5 36 6 0 10 7
10 16 0 11 5 14 16 10 11 -4 15 -2 11 8 -5 11 2 14 26 12 18 -2 22 -1 10 1
-12 2 -25 13 -28 23 -3 10 -13 21 -21 24 -10 4 -13 13 -9 25 4 14 0 23 -15 31
-12 7 -19 18 -16 26 3 7 -3 18 -14 24 -13 7 -20 6 -23 -3 -3 -9 -8 -9 -20 2
-10 7 -23 25 -30 40 -7 14 -18 25 -25 24 -6 -2 -9 4 -6 12 4 8 -1 17 -10 21
-9 3 -16 12 -16 20 0 8 -4 14 -10 14 -5 0 -10 9 -10 20 0 11 -7 20 -15 20 -8
0 -15 7 -15 15 0 8 -6 15 -14 15 -8 0 -24 12 -35 26 -11 14 -25 23 -31 19 -11
-7 -40 11 -40 25 0 5 9 6 20 3 11 -3 20 -1 20 5 0 17 -33 20 -62 5 -17 -8 -29
-9 -33 -3 -3 6 0 10 7 10 7 0 18 8 25 19 11 17 8 18 -34 15 -40 -3 -44 -2 -32
12 11 13 10 17 -4 25 -23 13 -21 31 3 47 24 14 26 32 5 32 -8 0 -15 -6 -15
-14 0 -8 -16 -16 -42 -20 -38 -6 -45 -4 -58 16 -8 12 -23 31 -33 41 -12 11
-16 25 -12 38 5 15 2 22 -14 26 -24 6 -26 14 -10 30 9 9 17 6 32 -8 11 -10 26
-19 31 -19z m82 -164 c10 -8 16 -18 11 -22 -4 -4 -7 -2 -7 4 0 7 -9 12 -20 12
-11 0 -20 5 -20 10 0 14 13 12 36 -4z m214 -176 c0 -5 -4 -10 -10 -10 -5 0
-10 5 -10 10 0 6 5 10 10 10 6 0 10 -4 10 -10z m655 -102 c24 -11 34 -28 17
-28 -15 0 -62 25 -62 33 0 10 15 9 45 -5z m-2 -83 c-21 -27 -30 -16 -13 15 6
11 15 18 21 15 5 -4 1 -16 -8 -30z m-463 -346 c0 -18 -4 -20 -32 -14 -18 4
-37 10 -42 12 -13 8 16 23 47 23 21 0 27 -5 27 -21z m30 -39 c0 -5 -4 -10 -10
-10 -5 0 -10 5 -10 10 0 6 5 10 10 10 6 0 10 -4 10 -10z"/>
<path d="M8300 4330 c0 -5 5 -10 10 -10 6 0 10 5 10 10 0 6 -4 10 -10 10 -5 0
-10 -4 -10 -10z"/>
<path d="M8690 4090 c0 -5 7 -10 15 -10 8 0 15 5 15 10 0 6 -7 10 -15 10 -8 0
-15 -4 -15 -10z"/>
<path d="M8934 4048 c-4 -5 0 -14 7 -19 20 -13 29 -11 29 5 0 18 -27 29 -36
14z"/>
<path d="M8532 4031 c4 -13 18 -16 19 -4 0 4 -5 9 -11 12 -7 2 -11 -2 -8 -8z"/>
<path d="M8620 4006 c0 -9 5 -16 10 -16 6 0 10 4 10 9 0 6 -4 13 -10 16 -5 3
-10 -1 -10 -9z"/>
<path d="M8775 3870 c-3 -5 1 -10 10 -10 9 0 13 5 10 10 -3 6 -8 10 -10 10 -2
0 -7 -4 -10 -10z"/>
<path d="M8620 3791 c0 -12 28 -22 35 -12 3 5 -2 12 -11 15 -21 8 -24 8 -24
-3z"/>
<path d="M8259 4670 c-3 -8 2 -23 12 -32 15 -14 18 -14 23 -2 3 8 -1 14 -9 14
-7 0 -15 8 -17 18 -3 14 -5 14 -9 2z"/>
<path d="M2536 4571 c-4 -7 -5 -15 -2 -18 9 -9 19 4 14 18 -4 11 -6 11 -12 0z"/>
<path d="M7716 4551 c-4 -5 -2 -12 3 -15 5 -4 12 -2 15 3 4 5 2 12 -3 15 -5 4
-12 2 -15 -3z"/>
<path d="M9638 4331 c12 -11 22 -25 22 -31 0 -10 3 -10 15 0 19 16 20 34 1 27
-8 -3 -20 1 -26 9 -7 8 -18 14 -24 14 -6 -1 -1 -9 12 -19z"/>
<path d="M9595 4300 c3 -5 10 -10 16 -10 5 0 9 5 9 10 0 6 -7 10 -16 10 -8 0
-12 -4 -9 -10z"/>
<path d="M9660 4215 c-25 -19 -53 -35 -62 -35 -9 0 -20 -4 -23 -10 -3 -5 -15
-10 -26 -10 -10 0 -27 -4 -37 -9 -16 -9 -126 -30 -182 -35 -14 -1 -57 -12 -95
-24 l-70 -21 -18 -67 c-9 -36 -15 -70 -12 -74 9 -14 48 2 114 47 35 23 71 43
81 43 10 0 20 9 23 19 3 11 17 22 36 26 17 4 31 10 31 14 0 5 21 14 48 21 143
36 252 93 252 130 0 11 -3 20 -7 19 -5 0 -28 -16 -53 -34z"/>
<path d="M2213 4195 c-8 -22 6 -33 17 -15 13 20 12 30 0 30 -6 0 -13 -7 -17
-15z"/>
<path d="M6250 4151 c-19 -4 -45 -13 -57 -19 -12 -7 -30 -12 -41 -12 -11 0
-25 -7 -32 -15 -7 -8 -26 -15 -42 -15 -33 0 -169 -87 -193 -124 -9 -13 -28
-29 -43 -35 -15 -7 -43 -32 -62 -57 -19 -25 -48 -61 -63 -79 -16 -19 -26 -38
-23 -43 3 -5 -8 -22 -24 -38 -16 -16 -30 -37 -30 -48 0 -10 -11 -31 -25 -48
-14 -16 -25 -36 -25 -45 0 -16 -41 -128 -65 -178 -8 -16 -14 -43 -14 -60 1
-16 -3 -43 -9 -60 -44 -125 -57 -216 -68 -458 -5 -115 -4 -164 5 -186 9 -20
10 -35 3 -47 -7 -13 -6 -27 5 -47 8 -16 12 -36 9 -44 -4 -9 -2 -30 3 -47 5
-17 15 -56 21 -86 28 -131 85 -275 126 -318 12 -12 24 -35 27 -50 4 -16 20
-37 41 -51 20 -13 38 -31 41 -41 3 -10 20 -28 38 -39 18 -11 59 -38 92 -59 35
-22 95 -47 144 -60 106 -29 245 -36 321 -16 122 33 160 46 181 65 12 10 31 19
41 19 23 0 91 53 173 135 103 104 127 137 149 208 11 34 34 17 51 -38 10 -30
26 -62 36 -71 11 -9 19 -23 19 -30 0 -6 22 -28 49 -47 39 -29 64 -38 124 -46
75 -11 80 -10 182 26 51 18 122 67 159 110 16 19 39 59 51 89 28 70 41 84 53
58 16 -39 47 -84 58 -84 6 0 21 -11 34 -25 13 -14 42 -31 64 -37 45 -13 115
-18 130 -10 6 3 30 6 56 7 46 2 96 27 151 77 42 38 95 111 103 141 3 15 13 27
21 27 8 0 21 -15 28 -32 30 -71 121 -136 207 -148 91 -13 177 9 278 70 38 23
81 69 82 87 0 27 21 22 41 -11 23 -39 78 -76 114 -76 13 0 27 -5 30 -11 4 -5
17 -9 28 -7 12 1 27 0 32 -4 18 -10 75 4 84 21 5 9 6 52 2 96 -6 72 -7 388 -1
573 1 40 6 75 11 78 5 3 9 15 9 27 0 32 32 128 53 157 9 13 17 30 17 37 0 8
16 21 35 30 34 16 36 16 63 -4 15 -11 32 -29 37 -40 6 -12 16 -27 22 -34 9
-13 20 -63 39 -189 3 -25 8 -96 9 -158 3 -117 20 -259 36 -300 5 -13 7 -28 3
-33 -12 -21 74 -201 119 -247 18 -18 57 -47 87 -65 52 -30 59 -31 170 -31 113
-1 118 0 153 27 20 15 37 32 37 38 0 5 -19 18 -42 28 -24 10 -55 30 -71 44
-25 24 -49 66 -52 92 -1 6 -8 26 -17 45 -8 19 -21 51 -28 70 -15 41 -39 219
-41 303 -1 32 -5 59 -9 62 -3 2 -6 53 -5 112 3 157 -31 344 -67 371 -10 7 -18
20 -18 28 0 31 -30 71 -90 118 -68 54 -144 83 -167 65 -10 -9 -17 -8 -28 1
-12 10 -28 10 -78 0 -34 -7 -75 -23 -91 -34 -28 -21 -117 -108 -157 -154 -10
-13 -25 -41 -32 -62 -6 -22 -16 -40 -20 -40 -5 0 -21 6 -35 13 -15 8 -42 21
-60 30 -42 21 -115 22 -132 2 -10 -12 -10 -25 0 -62 18 -72 27 -365 16 -519
-10 -132 -52 -251 -109 -304 -25 -23 -41 -30 -72 -30 -66 1 -95 38 -114 147
-12 68 -14 148 -7 253 10 137 15 224 19 326 3 56 7 106 10 112 10 16 -19 112
-39 130 -47 42 -75 53 -139 53 -35 0 -73 -5 -84 -10 -11 -6 -26 -8 -35 -5 -18
7 -116 -44 -116 -61 0 -7 8 -27 17 -45 24 -49 33 -100 39 -230 8 -145 8 -127
0 -251 -7 -130 -47 -296 -88 -369 -43 -77 -82 -109 -135 -110 -39 0 -45 4 -66
38 -30 47 -41 119 -48 317 -2 80 26 350 42 391 6 16 2 27 -15 43 -12 11 -27
21 -33 21 -5 0 -24 7 -41 16 -20 10 -34 25 -38 42 -3 15 -9 34 -15 42 -5 8
-13 25 -19 38 -5 12 -20 33 -32 46 -29 28 -113 77 -141 81 -12 2 -44 8 -72 13
-34 7 -82 6 -150 -2 -86 -9 -108 -16 -155 -45 -55 -35 -129 -107 -130 -127 0
-6 -11 -21 -26 -34 -29 -28 -58 -89 -68 -145 -4 -22 -13 -49 -20 -60 -7 -11
-13 -33 -14 -49 -1 -16 -7 -35 -13 -42 -6 -7 -12 -35 -13 -61 -3 -46 -15 -118
-38 -213 -6 -25 -14 -66 -18 -91 -11 -61 -33 -124 -62 -175 -67 -120 -84 -143
-134 -184 -30 -25 -67 -53 -82 -63 -26 -16 -77 -34 -132 -45 -49 -9 -126 -4
-170 12 -25 9 -56 18 -69 20 -13 2 -28 10 -32 18 -4 8 -26 27 -49 43 -22 15
-40 32 -40 37 0 4 -12 27 -26 49 -14 23 -31 58 -39 78 -7 20 -22 56 -33 81
-11 25 -23 59 -26 75 -11 67 -26 120 -57 203 -6 14 -5 29 3 41 9 15 9 35 0 83
-6 34 -8 84 -5 110 4 31 1 53 -6 62 -9 11 -10 20 -1 36 6 12 9 34 5 50 -3 16
-2 31 4 35 6 3 11 40 11 84 0 44 7 115 15 160 9 45 13 86 10 91 -3 6 1 20 9
32 9 13 13 31 9 46 -4 17 0 27 16 38 11 8 21 22 21 30 0 28 60 143 80 154 11
6 20 19 20 28 0 24 104 120 138 128 15 4 36 12 48 19 15 10 33 11 67 4 45 -8
107 -44 107 -61 0 -5 10 -23 23 -39 21 -29 22 -40 22 -185 -1 -107 -4 -157
-13 -166 -7 -7 -12 -22 -12 -34 0 -12 -11 -36 -25 -52 -24 -28 -24 -30 -6 -46
10 -9 35 -16 57 -16 21 0 57 -5 79 -10 27 -6 57 -5 98 5 63 15 83 26 138 77
45 43 94 142 80 165 -6 12 -4 24 6 39 10 17 12 28 4 42 -7 13 -7 30 1 56 25
80 -37 282 -98 323 -14 9 -23 22 -20 29 3 8 -19 29 -54 53 -33 23 -64 41 -69
41 -6 0 -19 10 -31 22 -15 16 -30 21 -55 20 -19 -2 -49 5 -66 13 -21 11 -34
13 -43 6 -7 -6 -26 -7 -51 -1 -45 11 -84 11 -135 1z m179 -90 c13 -13 21 -16
24 -8 3 8 11 6 25 -6 11 -11 25 -16 31 -13 19 12 99 -33 168 -94 37 -33 71
-70 76 -82 5 -15 2 -33 -10 -55 -14 -26 -15 -35 -5 -45 10 -10 14 -8 18 10 13
48 37 9 37 -60 0 -21 4 -41 8 -44 5 -3 9 -10 9 -16 0 -6 -10 -2 -23 10 -18 17
-26 19 -35 10 -17 -17 -15 -26 8 -33 11 -3 20 -13 20 -21 0 -8 -9 -24 -20 -36
-11 -12 -20 -25 -20 -30 0 -4 9 -8 20 -8 25 0 25 -9 3 -26 -15 -10 -16 -15 -5
-25 16 -18 15 -39 -3 -39 -8 0 -19 -9 -25 -20 -6 -11 -15 -18 -21 -15 -5 4 -9
-3 -9 -14 0 -15 -6 -21 -22 -21 -12 0 -29 -7 -38 -15 -16 -14 -20 -14 -49 2
-17 10 -31 21 -31 26 0 4 -7 7 -15 7 -8 0 -15 -4 -15 -10 0 -5 -8 -10 -17 -10
-17 1 -17 1 -1 11 11 6 15 16 11 27 -5 14 -3 15 8 5 7 -7 17 -13 21 -13 14 0
9 37 -7 50 -19 15 -19 25 -1 42 16 17 18 70 2 81 -8 5 -8 9 0 15 14 8 15 130
2 138 -4 3 -8 16 -8 30 0 15 -6 24 -15 24 -8 0 -15 7 -15 15 0 8 9 15 19 15
17 0 18 3 8 24 l-12 25 -13 -25 c-7 -13 -17 -22 -22 -19 -13 8 -13 35 0 35 6
0 10 5 10 10 0 6 -8 10 -18 10 -10 0 -29 11 -42 25 -13 14 -29 25 -37 25 -7 0
-13 6 -13 14 0 9 -18 15 -57 18 -66 6 -106 -3 -180 -39 -54 -26 -123 -83 -123
-102 0 -14 -13 -14 -28 1 -18 18 -27 1 -13 -26 15 -28 4 -59 -11 -32 -15 27
-30 18 -26 -15 3 -30 -1 -35 -41 -56 -1 -1 0 -7 4 -13 5 -8 11 -8 21 1 12 10
13 9 8 -4 -3 -9 -14 -19 -25 -22 -10 -4 -19 -14 -19 -24 0 -10 -7 -24 -15 -31
-8 -7 -15 -24 -15 -37 0 -22 -2 -24 -15 -13 -9 8 -15 9 -15 2 0 -6 5 -14 10
-17 6 -3 10 -13 10 -20 0 -11 -8 -13 -30 -8 -26 5 -30 3 -30 -16 0 -11 -4 -21
-10 -21 -5 0 -10 -8 -9 -17 0 -15 3 -14 16 5 8 12 22 22 29 22 16 0 18 -12 4
-26 -11 -11 -16 -106 -7 -121 4 -7 -9 -14 -31 -19 l-37 -7 30 -6 c32 -7 37
-26 7 -26 -13 0 -16 -7 -14 -35 1 -19 3 -62 5 -95 1 -33 6 -63 11 -66 10 -8
-11 -49 -26 -49 -6 0 -4 -10 6 -25 22 -33 20 -48 -4 -40 -26 8 -25 -3 3 -33
15 -17 18 -26 10 -29 -15 -6 -17 -49 -3 -58 6 -3 10 -13 10 -22 0 -13 -3 -13
-15 -3 -25 21 -28 5 -6 -31 24 -38 27 -75 9 -82 -10 -3 -10 -9 1 -28 10 -16
10 -24 2 -27 -16 -5 -14 -32 3 -38 8 -3 17 -11 19 -19 4 -9 -1 -11 -14 -8 -10
3 -19 9 -19 14 0 5 -5 9 -11 9 -5 0 -3 -10 5 -22 9 -12 16 -30 16 -40 0 -10 7
-18 15 -18 23 0 29 -27 11 -46 -9 -8 -13 -21 -9 -27 5 -8 9 -6 11 6 2 9 8 17
13 17 16 0 22 -29 10 -44 -9 -11 -8 -24 5 -57 10 -24 23 -53 31 -64 7 -11 13
-29 13 -40 1 -27 22 -53 40 -48 13 4 13 3 0 -6 -9 -7 -11 -14 -5 -18 6 -5 16
-16 23 -25 12 -14 10 -16 -9 -11 l-23 6 22 -23 c19 -20 23 -21 38 -9 16 13 17
11 12 -14 -4 -22 2 -34 38 -67 23 -21 54 -42 68 -46 28 -7 36 -24 11 -24 -8 0
-15 -4 -15 -10 0 -5 6 -10 14 -10 8 0 18 5 21 10 3 6 17 10 31 10 13 0 24 -4
24 -10 0 -5 -10 -10 -22 -10 -17 0 -19 -3 -10 -12 8 -8 15 -8 27 2 14 11 18
11 25 0 4 -7 15 -10 25 -7 9 4 13 3 10 -2 -8 -14 21 -21 102 -25 84 -5 102
-12 76 -31 -10 -7 -15 -16 -12 -19 10 -10 39 5 39 19 0 14 62 65 79 65 18 0
12 -28 -6 -35 -10 -3 -29 -21 -43 -40 -20 -28 -31 -35 -55 -33 -16 1 -41 -5
-55 -13 -19 -10 -63 -14 -177 -14 -108 0 -156 4 -165 13 -6 6 -22 12 -34 12
-13 0 -26 5 -29 10 -4 6 -15 8 -26 5 -12 -4 -19 -2 -19 7 0 8 5 19 12 26 6 6
8 15 3 19 -4 5 -10 2 -12 -4 -5 -13 -43 -19 -43 -7 0 3 5 14 10 25 7 13 7 19
0 19 -5 0 -10 -4 -10 -10 0 -5 -9 -10 -20 -10 -11 0 -20 7 -20 15 0 18 -26 20
-34 3 -2 -7 -4 -2 -3 12 2 22 -1 25 -27 22 -23 -3 -27 -1 -19 10 7 8 7 22 2
36 -10 25 -29 21 -29 -6 0 -12 -3 -13 -11 -5 -9 9 -6 19 9 40 18 25 18 31 6
48 -13 18 -14 17 -14 -9 0 -37 -23 -29 -30 10 -3 16 -17 52 -33 81 -15 29 -27
58 -27 64 0 7 -8 18 -17 25 -15 10 -16 15 -5 25 14 15 16 75 2 84 -11 7 -25
-39 -15 -54 3 -6 1 -11 -4 -11 -7 0 -11 23 -11 55 0 30 -4 55 -10 55 -5 0 -10
7 -10 15 0 8 5 15 10 15 17 0 11 48 -7 59 -11 6 -13 11 -5 11 9 0 11 21 8 86
-3 60 0 96 10 120 18 42 18 49 -1 34 -12 -10 -16 -9 -22 6 -3 10 0 29 9 45 10
17 12 31 7 36 -6 6 -6 26 0 54 5 24 8 45 6 48 -3 2 -12 -2 -21 -10 -15 -12
-16 -12 -11 6 3 11 9 42 13 68 3 26 12 54 20 61 9 9 11 26 7 50 -4 24 -2 36 6
36 6 0 11 9 11 19 0 11 5 23 11 27 8 4 7 9 -2 14 -10 7 -10 12 0 23 8 10 9 17
1 22 -5 3 -10 13 -10 21 0 10 6 13 18 10 13 -5 17 1 19 24 1 17 16 71 33 121
18 50 32 106 33 125 1 19 3 34 4 34 1 0 8 -3 17 -6 9 -3 16 -15 16 -25 0 -16
3 -17 19 -7 19 11 18 13 -5 43 -24 32 -22 54 3 33 21 -17 28 -1 8 18 -16 17
-16 18 4 26 11 4 21 14 21 23 0 9 9 15 21 15 18 0 20 4 15 25 -5 18 -2 25 8
25 8 0 16 -6 19 -12 2 -7 8 -9 13 -5 5 4 2 12 -5 17 -8 4 -11 15 -7 25 5 15 9
14 37 -5 36 -26 52 -18 21 10 -12 12 -22 24 -22 28 0 4 10 13 22 21 16 10 23
10 26 2 6 -17 22 -2 22 21 0 25 81 112 91 97 3 -6 -7 -25 -22 -42 -30 -32 -36
-47 -20 -47 10 0 71 88 71 103 0 5 7 6 16 3 9 -4 22 -2 28 3 6 5 22 11 36 13
16 2 24 9 22 19 -2 12 8 16 40 17 23 1 47 7 52 12 13 13 52 13 75 -2 14 -9 23
-8 42 5 13 10 27 17 31 17 5 0 17 -9 27 -19z m31 -191 c0 -5 -4 -10 -10 -10
-5 0 -10 5 -10 10 0 6 5 10 10 10 6 0 10 -4 10 -10z m80 -160 c0 -5 -4 -10
-10 -10 -5 0 -10 5 -10 10 0 6 5 10 10 10 6 0 10 -4 10 -10z m2827 -300 c4
-14 14 -20 34 -20 16 0 29 5 29 10 0 12 27 14 32 3 2 -5 23 -21 47 -38 25 -16
53 -45 64 -62 10 -18 23 -33 28 -33 5 0 9 -9 9 -20 0 -11 6 -20 14 -20 19 0
25 -19 16 -50 -7 -27 13 -90 30 -90 5 0 7 -6 5 -12 -3 -7 -9 -51 -14 -98 -7
-60 -6 -89 2 -98 8 -10 8 -19 -1 -32 -8 -14 -8 -21 -1 -26 6 -3 9 -18 6 -32
-7 -36 27 -252 65 -414 6 -28 16 -48 24 -48 8 0 11 -6 8 -15 -4 -9 0 -15 10
-15 9 0 16 -2 16 -4 0 -8 -57 -60 -79 -73 -27 -17 -41 -16 -41 1 0 8 10 16 23
19 20 3 20 4 3 12 -11 5 -21 3 -26 -5 -12 -19 -45 -7 -48 18 -2 12 -8 22 -13
22 -5 0 -9 9 -9 20 0 11 -4 20 -10 20 -5 0 -10 6 -10 14 0 8 -6 16 -12 19 -10
3 -10 9 -2 23 9 15 8 22 -2 32 -8 7 -14 21 -14 31 0 11 -7 21 -15 25 -17 6
-21 56 -5 56 14 0 13 37 -2 42 -6 2 -13 31 -15 69 -7 139 -23 317 -33 378 -5
35 -17 78 -25 94 -8 17 -15 36 -15 42 0 7 -8 16 -17 20 -17 6 -17 7 1 21 25
18 12 32 -14 16 -29 -17 -46 -16 -30 3 7 9 11 17 9 18 -2 2 -26 14 -52 28 -41
21 -49 22 -57 9 -8 -13 -11 -13 -19 -1 -10 16 -96 27 -86 11 3 -5 13 -10 21
-10 8 0 14 -4 14 -10 0 -5 -4 -10 -10 -10 -5 0 -10 -7 -10 -15 0 -8 -7 -15
-15 -15 -9 0 -18 -6 -21 -14 -3 -8 -12 -12 -20 -9 -16 6 -43 -23 -44 -47 0 -8
-9 -21 -21 -28 -19 -12 -19 -15 -5 -25 14 -11 13 -21 -8 -104 -14 -55 -20 -95
-14 -101 5 -5 3 -14 -7 -22 -18 -15 -20 -47 -3 -52 9 -3 8 -20 -6 -68 -15 -57
-16 -66 -2 -75 13 -10 13 -14 1 -32 -13 -18 -13 -22 0 -27 23 -8 18 -29 -5
-23 -11 3 -20 4 -20 3 0 -2 7 -18 17 -36 19 -40 19 -105 -2 -136 -21 -32 -19
-47 5 -41 16 4 18 1 14 -23 -4 -15 -1 -31 5 -34 14 -9 14 -26 1 -26 -5 0 -10
7 -10 15 0 8 -5 15 -10 15 -16 0 -24 -30 -11 -43 17 -17 13 -27 -9 -27 -13 0
-20 7 -20 19 0 11 -9 22 -19 26 -11 3 -23 16 -27 27 -8 27 -43 57 -66 58 -19
0 -26 30 -8 30 6 0 10 5 10 10 0 16 -27 12 -34 -6 -3 -8 -11 -12 -16 -9 -7 4
-2 16 13 31 26 25 37 62 41 126 1 25 9 42 26 56 l24 20 -28 36 c-15 21 -25 44
-22 52 8 20 26 8 26 -17 0 -12 5 -19 13 -16 13 4 13 56 0 66 -4 3 -14 16 -21
29 -9 17 -10 27 -3 36 6 7 8 15 5 19 -3 3 -9 22 -14 41 -6 29 -5 38 9 46 14 8
14 12 3 31 -12 18 -12 26 -1 46 11 21 11 27 -1 37 -22 16 -20 55 3 62 13 4 17
12 14 25 -6 24 10 25 35 2 16 -14 23 -15 39 -5 16 11 19 9 19 -8 0 -11 7 -20
15 -20 8 0 15 7 15 15 0 8 -5 15 -12 15 -6 0 -8 3 -4 8 4 4 20 7 34 7 16 0 26
5 25 13 -4 18 34 52 57 52 11 0 20 5 20 10 0 6 -4 10 -9 10 -18 0 1 39 36 75
24 25 40 34 54 30 13 -5 20 0 24 17 5 20 13 24 47 25 22 1 43 5 47 8 3 4 -3
13 -13 21 -19 14 -19 14 3 14 14 0 25 -7 28 -20z m-2797 -55 c16 -19 0 -19
-26 0 -16 12 -16 14 -3 15 9 0 22 -7 29 -15z m780 -75 c0 -5 -7 -7 -15 -4 -8
4 -15 8 -15 10 0 2 7 4 15 4 8 0 15 -4 15 -10z m150 6 c0 -2 -16 -11 -35 -20
-35 -17 -43 -30 -26 -40 5 -3 14 1 21 9 7 8 22 15 34 15 12 0 28 6 35 13 11 9
10 7 0 -10 -8 -13 -20 -23 -27 -23 -7 0 -10 -4 -7 -10 3 -5 3 -15 -1 -22 -5
-7 -12 -5 -22 8 -9 12 -16 15 -19 8 -3 -9 -10 -9 -28 0 -14 6 -23 16 -21 22 3
6 -1 17 -7 23 -8 8 -1 11 25 11 20 0 40 5 43 10 6 9 35 15 35 6z m-260 -25 c0
-5 -5 -11 -11 -13 -9 -3 -9 -10 0 -27 12 -21 14 -21 30 -7 10 9 25 16 35 16
12 0 7 -8 -17 -30 -19 -16 -40 -30 -46 -30 -6 0 -14 7 -17 15 -5 13 -11 11
-30 -10 -27 -29 -31 -47 -9 -39 24 10 17 -13 -10 -34 -18 -14 -22 -23 -14 -28
9 -5 6 -10 -9 -15 -14 -6 -19 -14 -15 -28 3 -12 1 -21 -5 -21 -6 0 -8 -9 -5
-20 4 -16 2 -19 -11 -14 -9 3 -16 10 -16 16 0 5 -4 7 -9 4 -14 -9 11 -66 29
-66 13 -1 13 -2 -1 -13 -9 -7 -20 -28 -24 -47 -4 -19 -14 -48 -22 -63 -8 -15
-11 -36 -8 -46 3 -12 0 -21 -10 -25 -22 -8 -19 -26 5 -26 11 0 20 -4 20 -10 0
-5 -7 -10 -15 -10 -17 0 -10 -29 13 -47 12 -10 13 -15 3 -27 -7 -8 -10 -20 -6
-26 3 -5 -1 -17 -10 -26 -11 -12 -14 -25 -10 -46 4 -17 2 -35 -5 -43 -14 -17
-7 -45 11 -45 7 0 9 9 5 25 -8 30 9 33 24 6 13 -26 13 -31 -5 -31 -8 0 -15 -6
-15 -14 0 -8 -7 -22 -16 -31 -9 -9 -13 -19 -10 -23 4 -3 11 0 15 7 5 7 14 10
20 6 9 -5 9 -10 1 -20 -8 -9 -6 -14 5 -19 8 -3 15 -1 15 4 0 6 5 10 11 10 8 0
8 -4 1 -12 -6 -7 -8 -25 -5 -41 6 -31 88 -127 108 -127 8 0 11 -7 9 -17 -3
-11 3 -23 16 -31 23 -14 26 -3 10 29 -17 30 3 22 25 -11 18 -27 21 -28 32 -14
11 15 15 14 41 -7 16 -13 34 -31 40 -40 9 -14 7 -16 -9 -12 -10 3 -19 9 -19
14 0 4 -11 -2 -24 -14 -13 -12 -51 -28 -84 -36 -47 -10 -71 -10 -116 -1 -46 9
-61 18 -83 47 -22 28 -24 36 -13 43 8 5 11 12 8 16 -4 3 -14 -1 -23 -10 -25
-25 -37 -20 -30 14 5 24 4 29 -8 24 -10 -3 -18 2 -22 16 -4 12 -21 36 -38 54
-31 32 -33 32 -51 14 -15 -13 -23 -15 -33 -7 -15 13 -17 35 -3 44 5 3 7 0 4
-8 -3 -8 -1 -18 5 -22 15 -9 27 26 66 185 34 141 46 198 50 240 1 14 5 35 9
47 4 12 2 24 -4 28 -6 4 2 17 20 32 32 26 37 51 18 83 -16 25 0 41 17 17 7
-10 16 -14 19 -8 4 5 1 13 -5 16 -5 4 -8 13 -5 20 3 8 0 15 -6 17 -7 3 -8 10
-4 17 5 7 14 10 22 7 8 -3 14 1 14 9 0 8 -8 15 -17 15 -13 0 -11 6 10 28 15
15 27 35 27 44 0 9 5 20 10 23 15 9 12 25 -5 25 -8 0 -15 7 -15 15 0 18 37 20
42 3 3 -7 11 -9 24 -3 17 7 17 8 2 12 -10 3 -18 9 -18 15 0 12 53 63 75 71 8
4 12 13 9 22 -4 10 0 15 10 15 9 0 16 5 16 10 0 6 5 10 10 10 6 0 10 -4 10 -9z
m65 0 c-6 -5 -21 -12 -34 -16 -21 -6 -22 -5 -10 8 8 9 23 16 34 17 11 0 15 -3
10 -9z m1082 -8 c4 -10 13 -23 21 -29 11 -8 13 -48 8 -230 -4 -120 -7 -295 -9
-389 l-2 -170 33 -62 c18 -35 39 -63 47 -63 18 0 19 -12 3 -28 -6 -6 -8 -15
-4 -19 4 -5 14 0 21 11 8 10 19 15 24 11 6 -3 9 -10 6 -15 -3 -5 11 -12 32
-16 36 -7 36 -7 13 -17 -14 -5 -38 -9 -53 -8 -15 1 -35 -5 -43 -14 -19 -18
-68 -21 -62 -3 3 7 0 18 -6 24 -8 8 -17 7 -35 -5 -24 -15 -25 -15 -18 2 7 18
-3 26 -40 31 -22 3 -29 32 -12 52 17 21 3 30 -16 10 -21 -20 -35 -21 -35 -1 0
8 -4 15 -9 15 -5 0 -13 9 -16 21 -8 23 -31 20 -29 -5 1 -9 -6 -16 -15 -16 -10
0 -16 9 -16 25 0 17 6 25 17 25 18 0 44 37 34 48 -3 3 -6 1 -6 -5 0 -6 -9 -13
-20 -16 -13 -3 -20 0 -20 9 0 8 6 14 13 14 15 0 59 161 47 174 -5 4 0 24 11
43 11 19 17 38 14 43 -9 14 6 40 23 40 13 0 14 2 3 13 -11 10 -14 10 -18 0 -6
-15 -33 -17 -33 -3 0 6 5 10 11 10 8 0 10 19 6 65 -6 58 -4 66 14 76 14 7 19
18 17 36 -2 15 -9 29 -17 31 -10 3 -12 0 -8 -12 4 -9 10 -23 13 -31 3 -8 1
-15 -5 -15 -6 0 -11 9 -11 19 0 11 -6 22 -12 24 -10 4 -10 8 1 15 8 6 12 25
10 53 -1 24 1 52 6 63 5 12 3 21 -5 26 -11 7 -12 14 -2 36 11 22 10 31 -3 51
-15 23 -15 25 7 43 24 20 48 26 48 11 0 -5 9 -11 20 -14 15 -4 20 0 20 14 0
24 28 25 37 2z m-1007 -3 c0 -5 -3 -10 -7 -10 -5 0 -18 -3 -30 -6 -13 -4 -23
-2 -23 4 0 10 19 18 48 21 6 0 12 -3 12 -9z m-1574 -27 c-10 -10 -19 5 -10 18
6 11 8 11 12 0 2 -7 1 -15 -2 -18z m1774 18 c0 -5 -6 -12 -12 -14 -8 -4 -4 -8
9 -12 13 -4 39 -33 58 -63 19 -31 35 -60 35 -64 0 -4 19 -25 42 -47 41 -38 43
-42 41 -93 -1 -29 -2 -89 -3 -133 -1 -44 -3 -74 -6 -67 -10 23 -26 13 -20 -13
4 -14 1 -34 -6 -45 -9 -15 -10 -23 -2 -28 6 -4 14 -19 17 -34 6 -22 3 -28 -15
-34 -22 -7 -22 -7 -3 -14 16 -6 20 -17 21 -61 1 -30 -3 -60 -9 -67 -7 -9 -5
-16 5 -25 9 -7 18 -27 22 -44 15 -83 85 -183 128 -183 15 0 27 -9 35 -27 19
-40 7 -43 -41 -11 -15 10 -19 10 -23 1 -3 -8 -23 -13 -50 -13 -35 0 -54 7 -84
31 -21 17 -39 39 -39 50 0 26 -16 24 -24 -3 -4 -18 -8 -20 -18 -10 -9 9 -9 15
0 24 7 7 12 19 12 28 0 10 -3 11 -8 4 -4 -7 -19 -12 -35 -12 -22 0 -26 4 -22
19 5 14 2 17 -9 13 -13 -5 -16 1 -16 28 0 19 4 38 8 43 10 11 28 93 37 173 4
33 13 56 23 62 15 8 14 9 -5 10 -28 0 -29 10 -4 32 13 11 17 24 14 42 -3 14
-11 31 -19 37 -8 6 -14 16 -14 21 0 7 5 6 13 -1 8 -6 17 -8 20 -4 13 13 7 31
-13 36 -19 5 -20 11 -14 64 4 32 14 66 22 76 14 15 14 19 0 35 -19 21 -33 102
-18 102 19 0 10 19 -30 62 -22 24 -40 47 -40 51 0 5 -9 5 -20 2 -11 -4 -20 -2
-20 4 0 6 5 11 10 11 6 0 10 11 10 25 0 16 6 25 15 25 8 0 15 5 15 10 0 6 7
10 15 10 8 0 15 -4 15 -9z m1540 -1 c0 -5 -4 -10 -10 -10 -5 0 -10 5 -10 10 0
6 5 10 10 10 6 0 10 -4 10 -10z m240 -10 c0 -5 -4 -10 -10 -10 -5 0 -10 5 -10
10 0 6 5 10 10 10 6 0 10 -4 10 -10z m-2020 -19 c0 -6 -4 -13 -10 -16 -5 -3
-10 1 -10 9 0 9 5 16 10 16 6 0 10 -4 10 -9z m35 -1 c3 -5 -1 -10 -9 -10 -9 0
-16 5 -16 10 0 6 4 10 9 10 6 0 13 -4 16 -10z m852 -47 c-3 -10 -5 -4 -5 12 0
17 2 24 5 18 2 -7 2 -21 0 -30z m907 -8 c-4 -8 -10 -12 -15 -9 -14 8 -10 24 6
24 9 0 12 -6 9 -15z m-1904 -25 c0 -5 -4 -10 -10 -10 -5 0 -10 5 -10 10 0 6 5
10 10 10 6 0 10 -4 10 -10z m204 -6 c3 -9 11 -14 18 -12 6 2 24 -8 41 -23 l29
-27 -1 -119 c-1 -65 -1 -126 -1 -135 3 -56 -7 -270 -14 -308 -5 -27 -18 -80
-36 -147 -7 -23 -27 -60 -46 -81 -27 -31 -44 -41 -86 -50 -49 -10 -56 -9 -90
13 -20 13 -40 35 -43 47 -4 13 -13 30 -20 38 -17 21 -35 129 -36 228 -1 45 -5
85 -10 87 -4 3 -3 17 3 30 8 18 8 28 -1 39 -10 12 -10 20 3 38 9 12 16 34 16
48 0 14 8 64 18 113 14 65 24 91 40 103 11 8 19 21 16 28 -3 7 17 33 47 60 46
41 56 46 99 46 34 0 50 -4 54 -16z m1676 -10 c0 -8 -5 -12 -10 -9 -6 4 -8 11
-5 16 9 14 15 11 15 -7z m-1400 -34 c0 -5 -4 -10 -10 -10 -5 0 -10 5 -10 10 0
6 5 10 10 10 6 0 10 -4 10 -10z m-655 -29 c7 -12 -12 -24 -25 -16 -11 7 -4 25
10 25 5 0 11 -4 15 -9z m-71 -232 c-11 -18 -24 -8 -24 19 1 26 1 26 15 8 8
-10 12 -23 9 -27z m-1452 -83 c3 -16 0 -27 -10 -31 -8 -3 -17 -4 -19 -1 -6 6
8 56 17 56 4 0 10 -11 12 -24z m2223 -56 c0 -7 -6 -15 -12 -17 -8 -3 -13 4
-13 17 0 13 5 20 13 18 6 -3 12 -11 12 -18z m-135 -4 c0 -8 -4 -18 -10 -21 -5
-3 -10 3 -10 14 0 12 5 21 10 21 6 0 10 -6 10 -14z m1280 -21 c0 -8 -4 -15
-10 -15 -5 0 -10 7 -10 15 0 8 5 15 10 15 6 0 10 -7 10 -15z m-3360 -10 c0 -8
-4 -15 -10 -15 -5 0 -10 7 -10 15 0 8 5 15 10 15 6 0 10 -7 10 -15z m1530
-115 c0 -5 -4 -10 -10 -10 -5 0 -10 5 -10 10 0 6 5 10 10 10 6 0 10 -4 10 -10z
m1837 -194 c26 -26 43 -49 39 -53 -4 -4 -10 -3 -14 3 -16 23 -77 58 -99 56
-16 -1 -22 2 -17 10 4 6 -2 18 -12 26 -17 13 -16 14 19 9 27 -4 51 -19 84 -51z
m863 44 c0 -5 -4 -10 -10 -10 -5 0 -10 5 -10 10 0 6 5 10 10 10 6 0 10 -4 10
-10z m33 -134 c-3 -13 0 -26 5 -30 16 -10 2 -47 -17 -44 -11 2 -17 16 -19 45
-2 33 1 42 15 46 10 3 19 5 19 6 1 0 -1 -10 -3 -23z m-2983 -15 c0 -6 -4 -13
-10 -16 -5 -3 -10 1 -10 9 0 9 5 16 10 16 6 0 10 -4 10 -9z m2940 -21 c0 -13
-7 -20 -20 -20 -11 0 -20 -7 -20 -15 0 -8 -4 -15 -10 -15 -5 0 -10 4 -10 10 0
13 41 60 52 60 4 0 8 -9 8 -20z m-2290 -11 c0 -18 -2 -20 -15 -9 -13 11 -13
15 -3 21 18 12 18 12 18 -12z m-664 -26 c-7 -7 -26 7 -26 19 0 6 6 6 15 -2 9
-7 13 -15 11 -17z m1169 -3 c3 -5 -1 -10 -10 -10 -9 0 -13 5 -10 10 3 6 8 10
10 10 2 0 7 -4 10 -10z m-596 -41 c-16 -10 -52 8 -43 22 3 6 11 3 19 -7 12
-16 13 -16 21 7 7 21 8 21 12 5 2 -10 -2 -22 -9 -27z m-604 22 c3 -5 1 -12 -5
-16 -5 -3 -10 1 -10 9 0 18 6 21 15 7z m651 -30 c-3 -5 -15 -11 -26 -14 -17
-4 -19 -3 -9 9 12 15 44 20 35 5z m-741 -87 c-9 -9 -19 -13 -23 -10 -3 4 0 11
8 16 24 15 33 11 15 -6z m-67 -56 c-28 -31 -53 -33 -28 -2 12 13 11 17 -1 25
-10 8 -8 9 9 4 12 -4 22 -2 22 4 0 6 6 8 14 5 9 -4 5 -13 -16 -36z m-48 2 c0
-5 -7 -10 -15 -10 -8 0 -15 5 -15 10 0 6 7 10 15 10 8 0 15 -4 15 -10z m-30
-68 c0 -11 -22 -32 -32 -32 -5 0 -4 9 2 20 11 20 30 28 30 12z"/>
<path d="M6270 4040 c0 -5 9 -10 20 -10 11 0 20 5 20 10 0 6 -9 10 -20 10 -11
0 -20 -4 -20 -10z"/>
<path d="M6385 4040 c3 -5 13 -10 21 -10 8 0 14 5 14 10 0 6 -9 10 -21 10 -11
0 -17 -4 -14 -10z"/>
<path d="M6060 3935 c0 -8 5 -15 10 -15 6 0 10 7 10 15 0 8 -4 15 -10 15 -5 0
-10 -7 -10 -15z"/>
<path d="M6020 3880 c0 -5 4 -10 9 -10 6 0 13 5 16 10 3 6 -1 10 -9 10 -9 0
-16 -4 -16 -10z"/>
<path d="M5880 3741 c0 -25 6 -27 13 -6 4 8 2 17 -3 20 -6 4 -10 -3 -10 -14z"/>
<path d="M5835 3720 c4 -6 11 -8 16 -5 14 9 11 15 -7 15 -8 0 -12 -5 -9 -10z"/>
<path d="M6756 3712 c-3 -6 -1 -14 5 -17 15 -10 25 3 12 16 -7 7 -13 7 -17 1z"/>
<path d="M6715 3681 c-3 -5 -1 -12 5 -16 5 -3 10 1 10 9 0 18 -6 21 -15 7z"/>
<path d="M5767 3538 c-25 -27 -12 -37 14 -11 12 11 17 23 13 25 -5 3 -17 -4
-27 -14z"/>
<path d="M6717 3504 c-10 -10 -9 -44 2 -44 13 0 23 32 13 42 -5 5 -11 5 -15 2z"/>
<path d="M5768 3412 c19 -21 27 -20 19 3 -4 8 -13 15 -22 15 -13 0 -12 -3 3
-18z"/>
<path d="M5758 3343 c6 -2 18 -2 25 0 6 3 1 5 -13 5 -14 0 -19 -2 -12 -5z"/>
<path d="M5756 3071 c-4 -7 -5 -15 -2 -18 9 -9 19 4 14 18 -4 11 -6 11 -12 0z"/>
<path d="M5580 3044 c0 -8 5 -12 10 -9 6 4 8 11 5 16 -9 14 -15 11 -15 -7z"/>
<path d="M5560 3005 c0 -8 5 -15 10 -15 6 0 10 7 10 15 0 8 -4 15 -10 15 -5 0
-10 -7 -10 -15z"/>
<path d="M5580 2639 c0 -11 5 -17 10 -14 6 3 10 13 10 21 0 8 -4 14 -10 14 -5
0 -10 -9 -10 -21z"/>
<path d="M9260 3305 c0 -8 5 -15 10 -15 6 0 10 7 10 15 0 8 -4 15 -10 15 -5 0
-10 -7 -10 -15z"/>
<path d="M9590 3211 c0 -12 6 -21 16 -21 9 0 14 7 12 17 -5 25 -28 28 -28 4z"/>
<path d="M9590 3141 c0 -6 5 -13 10 -16 6 -3 10 1 10 9 0 9 -4 16 -10 16 -5 0
-10 -4 -10 -9z"/>
<path d="M8968 3104 c6 -3 12 -12 12 -20 0 -16 16 -19 25 -3 9 13 6 15 -25 23
-14 3 -19 3 -12 0z"/>
<path d="M9610 3081 c0 -5 3 -17 6 -26 5 -13 8 -14 15 -3 13 20 11 38 -6 38
-8 0 -15 -4 -15 -9z"/>
<path d="M8910 2995 c0 -8 7 -15 15 -15 8 0 15 7 15 15 0 8 -7 15 -15 15 -8 0
-15 -7 -15 -15z"/>
<path d="M8905 2919 c-4 -11 -4 -23 -1 -26 3 -4 6 1 6 10 0 10 7 17 15 17 8 0
15 5 15 10 0 19 -29 10 -35 -11z"/>
<path d="M8914 2829 c-3 -6 -1 -16 5 -22 8 -8 11 -5 11 11 0 24 -5 28 -16 11z"/>
<path d="M8980 2744 c0 -8 5 -12 10 -9 6 3 10 10 10 16 0 5 -4 9 -10 9 -5 0
-10 -7 -10 -16z"/>
<path d="M8995 2511 c-3 -5 -1 -12 5 -16 5 -3 10 1 10 9 0 18 -6 21 -15 7z"/>
<path d="M9544 2504 c3 -9 6 -18 6 -20 0 -2 5 -4 10 -4 6 0 10 9 10 20 0 12
-7 20 -16 20 -11 0 -14 -5 -10 -16z"/>
<path d="M9635 2270 c-3 -5 1 -10 9 -10 9 0 16 5 16 10 0 6 -4 10 -9 10 -6 0
-13 -4 -16 -10z"/>
<path d="M7055 2930 c-3 -4 -1 -19 4 -32 7 -17 10 -18 10 -5 1 9 6 17 11 17 6
0 10 4 10 9 0 13 -28 22 -35 11z"/>
<path d="M6990 2760 c0 -5 5 -10 10 -10 6 0 10 5 10 10 0 6 -4 10 -10 10 -5 0
-10 -4 -10 -10z"/>
<path d="M7030 2625 c0 -9 5 -15 11 -13 6 2 11 8 11 13 0 5 -5 11 -11 13 -6 2
-11 -4 -11 -13z"/>
<path d="M7020 2264 c0 -8 5 -12 10 -9 6 3 10 10 10 16 0 5 -4 9 -10 9 -5 0
-10 -7 -10 -16z"/>
<path d="M6976 2261 c-4 -7 -5 -15 -2 -18 9 -9 19 4 14 18 -4 11 -6 11 -12 0z"/>
<path d="M7000 2214 c0 -12 7 -27 15 -34 19 -16 19 -3 0 30 -13 24 -14 24 -15
4z"/>
<path d="M8295 3070 c-3 -5 1 -10 10 -10 9 0 13 5 10 10 -3 6 -8 10 -10 10 -2
0 -7 -4 -10 -10z"/>
<path d="M8296 2813 c-9 -9 -7 -33 3 -33 12 0 22 28 12 34 -5 3 -11 3 -15 -1z"/>
<path d="M8284 2653 c-12 -20 -8 -43 8 -43 5 0 8 8 6 18 -2 9 3 22 12 29 13
11 13 12 0 13 -8 0 -20 -8 -26 -17z"/>
<path d="M8259 2434 c-1 -5 -1 -13 0 -18 1 -4 -3 -13 -8 -20 -7 -8 -5 -15 7
-22 15 -10 17 -7 16 23 -1 30 -12 59 -15 37z"/>
<path d="M8380 2270 c0 -5 5 -10 10 -10 6 0 10 5 10 10 0 6 -4 10 -10 10 -5 0
-10 -4 -10 -10z"/>
<path d="M8415 2270 c-3 -5 1 -10 9 -10 9 0 16 -7 16 -15 0 -8 7 -15 15 -15
21 0 19 12 -5 33 -23 20 -27 20 -35 7z"/>
<path d="M7630 3042 c0 -5 9 -17 19 -26 13 -12 21 -14 26 -6 4 6 -1 18 -11 25
-22 16 -34 19 -34 7z"/>
<path d="M7637 2975 c-4 -8 -2 -17 3 -20 6 -4 10 3 10 14 0 25 -6 27 -13 6z"/>
<path d="M7660 2916 c0 -9 5 -16 10 -16 6 0 10 4 10 9 0 6 -4 13 -10 16 -5 3
-10 -1 -10 -9z"/>
<path d="M7635 2880 c-3 -5 -3 -15 1 -21 4 -8 9 -7 15 2 5 8 9 17 9 22 0 10
-18 9 -25 -3z"/>
<path d="M7620 2811 c0 -5 7 -14 15 -21 13 -10 15 -9 15 9 0 12 -6 21 -15 21
-8 0 -15 -4 -15 -9z"/>
<path d="M7672 2738 c-14 -14 -16 -28 -3 -28 5 0 11 9 14 20 3 11 4 20 3 20
-1 0 -7 -5 -14 -12z"/>
<path d="M7310 2395 c7 -9 15 -13 17 -11 7 7 -7 26 -19 26 -6 0 -6 -6 2 -15z"/>
<path d="M9630 4065 c-7 -9 -10 -18 -6 -22 3 -3 6 -1 6 5 0 7 9 12 21 12 11 0
17 5 14 10 -9 14 -21 12 -35 -5z"/>
<path d="M8194 4055 c-14 -11 -15 -14 -4 -14 8 0 24 6 34 14 15 11 16 15 5 15
-8 0 -24 -7 -35 -15z"/>
<path d="M9375 3940 c3 -5 10 -10 16 -10 5 0 9 5 9 10 0 6 -7 10 -16 10 -8 0
-12 -4 -9 -10z"/>
<path d="M8310 3920 c0 -5 5 -10 10 -10 6 0 10 5 10 10 0 6 -4 10 -10 10 -5 0
-10 -4 -10 -10z"/>
<path d="M3577 3874 c-3 -3 -3 -13 0 -21 5 -12 7 -12 14 -1 5 7 9 16 9 21 0 8
-14 9 -23 1z"/>
<path d="M5615 3860 c4 -6 11 -8 16 -5 14 9 11 15 -7 15 -8 0 -12 -5 -9 -10z"/>
<path d="M3120 3844 c0 -8 5 -12 10 -9 6 4 8 11 5 16 -9 14 -15 11 -15 -7z"/>
<path d="M3535 3830 c-4 -6 3 -10 14 -10 25 0 27 6 6 13 -8 4 -17 2 -20 -3z"/>
<path d="M3150 3815 c0 -8 5 -15 10 -15 6 0 10 7 10 15 0 8 -4 15 -10 15 -5 0
-10 -7 -10 -15z"/>
<path d="M2750 3805 c-16 -8 -31 -10 -41 -4 -20 10 -111 -14 -128 -35 -10 -12
-9 -20 2 -38 15 -24 32 -150 21 -160 -6 -7 -15 -166 -12 -228 0 -19 0 -46 0
-60 -1 -14 -2 -43 -2 -64 -1 -21 -7 -54 -15 -73 -9 -21 -11 -41 -7 -50 9 -14
0 -68 -19 -128 -6 -16 -12 -50 -14 -75 -26 -282 -35 -359 -46 -366 -5 -3 -9
-20 -9 -38 0 -19 -6 -49 -14 -67 -8 -19 -16 -61 -19 -94 -3 -33 -12 -80 -21
-105 -9 -25 -16 -59 -16 -76 0 -17 -7 -37 -15 -44 -8 -7 -15 -20 -15 -29 0
-25 -44 -193 -57 -216 -6 -11 -14 -42 -18 -70 -4 -27 -16 -66 -26 -85 -10 -19
-27 -62 -38 -94 -11 -32 -27 -66 -36 -76 -8 -9 -15 -23 -15 -32 0 -8 -18 -32
-41 -53 l-41 -38 28 -23 c15 -13 35 -24 44 -24 9 0 21 -5 27 -11 16 -16 134
-20 158 -5 11 7 33 16 48 20 15 4 33 17 39 31 6 14 22 32 35 40 12 9 23 24 23
35 0 10 5 22 10 25 6 3 10 26 10 50 0 29 5 45 15 49 10 3 15 19 15 43 0 21 8
52 18 68 10 17 22 62 26 100 4 39 13 88 20 110 8 22 17 74 21 115 4 41 11 80
16 85 4 6 10 27 12 46 2 20 8 42 12 49 5 8 8 31 6 52 -1 21 4 48 10 60 7 13
14 50 16 82 2 33 8 76 13 95 5 20 10 53 10 73 0 21 7 56 16 78 10 25 14 53 10
73 -3 18 -2 47 3 63 5 16 12 63 15 104 3 41 6 76 6 78 0 1 6 2 14 2 16 0 30
-61 21 -90 -3 -11 -2 -28 4 -38 6 -10 12 -59 15 -109 3 -49 9 -101 15 -114 5
-14 7 -37 4 -51 -3 -15 2 -49 12 -77 9 -28 14 -55 11 -60 -4 -5 -1 -29 5 -53
6 -24 12 -65 14 -93 20 -272 27 -338 41 -387 9 -31 14 -67 11 -80 -4 -13 0
-41 7 -63 14 -40 33 -139 40 -205 5 -55 44 -120 72 -120 7 0 25 -5 41 -12 35
-15 47 -17 106 -24 63 -8 92 12 124 84 13 32 31 69 39 84 8 14 14 39 14 56 0
16 9 41 20 55 11 14 20 34 20 44 0 11 9 38 20 61 11 22 20 49 20 59 0 10 9 35
19 55 11 19 18 38 15 41 -3 3 2 16 10 29 9 14 21 51 27 83 6 33 17 68 25 79 8
11 14 32 14 46 0 14 9 50 19 80 9 30 19 75 20 99 1 24 9 54 17 67 9 13 20 55
25 95 5 39 13 77 18 83 5 6 12 34 16 61 4 28 12 56 18 63 5 7 11 32 13 55 1
23 8 65 14 92 6 28 13 60 16 73 2 12 11 22 19 22 14 0 16 -37 16 -282 0 -156
2 -310 4 -343 3 -33 7 -113 9 -177 2 -64 8 -123 12 -130 9 -14 17 -124 13
-175 -4 -42 11 -164 21 -183 6 -11 12 -44 12 -73 0 -29 7 -64 14 -79 8 -15 14
-36 14 -48 0 -28 27 -80 57 -107 13 -13 43 -32 67 -42 34 -16 60 -19 138 -17
77 3 106 8 152 29 31 14 59 34 63 43 4 12 -2 24 -20 38 -27 22 -67 114 -67
154 0 13 -4 32 -10 42 -12 22 -24 115 -45 355 -9 99 -23 200 -31 225 -10 34
-11 56 -3 90 6 25 7 61 4 80 -4 19 -8 89 -10 155 -1 66 -6 142 -10 168 -4 26
-9 159 -11 295 -5 290 -5 304 -4 337 0 14 0 64 0 113 0 48 0 113 -1 146 0 94
-20 128 -114 192 -18 12 -49 25 -71 29 -43 8 -153 9 -224 2 -25 -3 -57 -5 -72
-6 -15 -1 -39 -11 -54 -24 -26 -23 -26 -23 -9 -57 14 -28 16 -50 12 -134 -3
-56 -9 -121 -12 -146 -3 -25 -7 -68 -9 -96 -2 -28 -9 -60 -15 -72 -6 -11 -11
-36 -11 -56 0 -19 -6 -47 -14 -63 -22 -44 -38 -113 -41 -173 -1 -30 -9 -71
-17 -91 -9 -20 -19 -60 -23 -90 -4 -30 -13 -69 -21 -87 -7 -18 -13 -48 -12
-66 1 -18 -6 -44 -15 -57 -10 -13 -17 -33 -17 -44 0 -35 -31 -158 -51 -203
-10 -23 -19 -53 -19 -65 0 -12 -7 -42 -15 -66 -9 -24 -18 -63 -22 -88 -6 -42
-25 -65 -41 -48 -4 3 -8 46 -10 93 -3 115 -7 164 -14 182 -4 8 -9 56 -13 105
-3 50 -9 106 -11 125 -3 19 -7 58 -8 86 -2 28 -8 88 -14 135 -6 46 -16 134
-23 194 -6 61 -18 121 -26 134 -11 17 -12 30 -6 45 7 14 5 64 -4 146 -8 69
-16 149 -18 178 -1 29 -7 71 -13 95 -6 23 -14 59 -17 79 -4 27 -20 52 -60 91
-48 49 -59 55 -107 61 -83 9 -161 6 -188 -9z m70 -65 c0 -5 -6 -10 -14 -10 -8
0 -18 5 -21 10 -3 6 3 10 14 10 12 0 21 -4 21 -10z m190 -106 c0 -13 7 -27 15
-30 10 -4 13 -14 9 -30 -4 -15 -2 -24 5 -24 6 0 11 -13 11 -29 0 -17 5 -33 10
-36 6 -3 10 -14 10 -23 -1 -16 -2 -16 -14 1 -7 9 -16 17 -20 17 -3 0 -6 -11
-6 -25 0 -14 5 -25 10 -25 14 0 13 -36 -2 -60 -10 -15 -10 -22 0 -32 9 -9 12
-6 12 15 0 15 5 27 10 27 10 0 15 -24 10 -45 -9 -37 -5 -93 6 -110 22 -32 16
-51 -7 -21 -11 14 -25 26 -30 26 -17 0 -9 -25 11 -38 20 -12 28 -42 11 -42 -5
0 -11 -7 -14 -14 -4 -10 -1 -13 9 -9 7 3 14 9 14 14 0 5 4 9 8 9 12 0 11 -62
0 -77 -5 -7 -7 -17 -3 -23 5 -8 11 -8 21 1 20 17 17 1 -6 -28 -24 -31 -25 -43
-5 -43 22 0 19 -47 -2 -53 -14 -4 -12 -5 5 -6 12 0 22 4 22 9 0 6 5 10 10 10
6 0 10 -7 10 -15 0 -8 -4 -15 -10 -15 -13 0 -13 -107 -1 -115 6 -3 7 -35 5
-73 -4 -41 0 -102 10 -156 9 -49 16 -116 16 -150 0 -34 4 -66 10 -72 5 -5 10
-44 12 -86 3 -66 6 -78 21 -78 19 0 23 -15 7 -25 -5 -3 -10 -19 -10 -36 0 -25
4 -29 28 -30 15 0 21 -3 15 -6 -7 -2 -13 -14 -13 -25 0 -13 5 -18 14 -15 17 7
41 -17 32 -31 -3 -6 1 -15 9 -22 12 -10 15 -7 21 16 7 27 7 27 15 5 9 -24 29
-20 29 5 0 8 14 29 30 47 17 18 29 39 26 49 -5 20 17 31 33 15 6 -6 14 -7 18
-2 5 4 2 10 -4 12 -20 7 -15 48 9 89 20 33 20 37 4 46 -9 5 -14 13 -11 19 9
14 25 11 25 -6 0 -8 7 -15 15 -15 10 0 15 -11 15 -35 0 -19 -4 -35 -10 -35 -5
0 -14 -10 -21 -21 -9 -18 -8 -24 5 -31 20 -11 21 -34 1 -42 -8 -3 -15 -16 -15
-30 0 -14 -4 -28 -10 -31 -5 -3 -10 -16 -10 -28 0 -12 -7 -34 -14 -49 -9 -16
-11 -30 -5 -33 14 -9 11 -25 -5 -25 -8 0 -18 10 -21 21 -6 17 -9 19 -16 8 -5
-9 -1 -21 11 -34 22 -24 29 -58 8 -37 -16 16 -28 15 -28 -3 0 -8 5 -15 10 -15
14 0 12 -34 -2 -48 -7 -7 -11 -28 -10 -46 2 -19 -1 -37 -7 -41 -7 -3 -11 2
-11 14 0 33 -17 24 -23 -11 -15 -92 -27 -123 -51 -143 -18 -15 -24 -26 -20
-43 5 -17 2 -22 -11 -22 -10 0 -24 -8 -31 -17 -13 -17 -15 -17 -28 0 -7 9 -20
17 -28 17 -27 0 -56 45 -68 105 -6 33 -16 77 -21 98 -6 21 -12 67 -14 103 -1
36 -6 68 -9 71 -3 4 -6 -4 -6 -17 0 -19 -3 -21 -12 -12 -9 9 -9 17 2 36 9 18
10 29 3 38 -11 14 -14 34 -13 90 0 20 -4 39 -10 43 -5 3 -10 13 -10 22 0 9 6
13 15 9 8 -3 15 -1 15 4 0 6 -6 10 -14 10 -18 0 -28 38 -15 61 7 13 5 20 -8
28 -14 7 -15 13 -6 21 8 9 14 7 23 -10 8 -14 15 -19 22 -12 6 6 1 19 -16 37
-22 23 -25 34 -21 74 3 25 0 58 -6 73 -7 18 -7 32 -1 45 6 11 8 37 5 60 -4 34
-8 40 -24 36 -17 -5 -19 0 -18 38 1 52 -14 172 -35 287 -12 63 -23 92 -45 119
-18 21 -27 42 -23 52 4 13 1 12 -17 -3 -16 -14 -24 -17 -33 -8 -15 15 -2 46
17 38 13 -5 14 -2 3 17 -10 19 -13 20 -16 5 -3 -17 -16 -22 -49 -21 -7 1 -13
-11 -13 -24 0 -22 2 -24 15 -13 12 10 15 10 15 -1 -1 -15 -24 -49 -34 -49 -3
0 -6 8 -6 18 0 13 -6 10 -25 -13 -13 -16 -24 -37 -23 -45 0 -10 2 -10 5 3 2 9
8 17 11 17 11 0 34 -41 27 -48 -3 -4 -10 0 -15 8 -7 11 -10 6 -10 -18 0 -18
-4 -42 -10 -52 -9 -16 -22 -101 -37 -238 -3 -29 -9 -54 -13 -57 -4 -2 -14 1
-22 8 -13 10 -14 28 -7 107 4 52 12 131 18 174 9 70 8 81 -7 93 -15 11 -15 12
6 13 24 0 27 11 11 42 -8 14 -8 23 0 31 7 7 13 4 19 -13 5 -14 11 -19 15 -13
9 14 -9 63 -28 77 -10 8 -12 20 -6 46 6 24 9 28 10 13 1 -13 7 -23 16 -23 18
0 19 14 4 41 -7 15 -7 24 0 33 6 8 9 20 7 27 -2 8 -7 26 -10 42 -5 20 -3 27 8
27 9 0 20 9 26 20 8 15 5 27 -10 56 -19 33 -19 38 -6 53 12 13 13 20 4 29 -9
9 -8 18 2 37 11 21 11 30 2 45 -9 16 -9 18 2 14 22 -9 28 13 8 28 -14 9 -19
25 -19 56 0 31 3 42 12 38 22 -8 24 5 4 25 -10 10 -19 26 -19 35 0 14 3 14 16
3 13 -10 17 -10 24 1 6 10 25 14 59 12 27 -1 53 3 56 8 4 6 11 7 17 4 6 -4 14
0 19 7 8 12 12 11 23 -3 18 -24 39 -23 31 1 -4 12 11 3 40 -25 29 -29 45 -54
45 -70z m780 86 c0 -5 -7 -10 -15 -10 -8 0 -15 5 -15 10 0 6 7 10 15 10 8 0
15 -4 15 -10z m70 1 c0 -4 24 -11 53 -14 86 -10 92 -13 95 -35 4 -25 12 -28
30 -10 9 9 13 7 18 -7 4 -10 2 -26 -4 -36 -16 -24 -15 -29 3 -29 8 0 15 -8 16
-17 1 -25 1 -130 -1 -243 -3 -148 33 -1129 44 -1195 3 -16 10 -84 17 -150 7
-66 17 -127 24 -135 7 -8 15 -41 18 -72 5 -49 3 -56 -11 -51 -11 5 -14 2 -9
-10 14 -37 18 -85 8 -91 -14 -9 -15 -46 -1 -46 6 0 10 12 10 26 0 16 5 24 13
21 7 -2 12 -21 12 -44 0 -22 5 -46 11 -54 16 -20 26 -67 15 -73 -14 -9 -1 -44
18 -50 9 -2 0 -2 -20 0 -25 4 -39 1 -48 -10 -13 -15 -41 -22 -41 -11 0 3 9 15
20 27 11 12 20 25 20 29 0 9 -62 18 -74 11 -5 -3 4 -10 20 -17 l29 -12 -32
-17 c-32 -16 -33 -16 -33 2 0 16 -10 21 -50 26 -46 6 -49 8 -38 26 12 19 9 29
-24 94 -8 16 -7 18 7 12 14 -5 16 -2 12 16 -4 12 -1 28 5 35 7 9 7 13 -1 13
-6 0 -11 -3 -11 -8 0 -4 -9 -13 -21 -20 -19 -12 -20 -12 -14 10 7 22 13 29 45
48 8 4 11 12 7 16 -5 5 -12 2 -17 -6 -7 -11 -12 -12 -21 -3 -9 9 -9 23 -1 54
7 29 8 47 1 55 -7 8 -6 14 1 19 18 11 11 23 -11 18 -20 -6 -21 -3 -15 23 4 16
15 35 24 42 15 12 16 14 1 25 -8 7 -23 24 -33 39 -13 20 -16 38 -11 70 3 24 1
104 -6 178 -6 74 -14 263 -18 420 -6 277 -7 287 -31 338 -22 47 -28 52 -54 50
-18 -2 -31 2 -34 11 -3 10 1 12 16 9 14 -4 22 0 25 13 3 12 0 19 -9 19 -8 0
-14 7 -14 15 0 8 -4 15 -10 15 -13 0 -13 -17 0 -25 16 -10 -8 -35 -27 -28 -13
5 -13 3 -2 -15 7 -12 10 -25 5 -29 -4 -4 -12 0 -18 10 -9 17 -11 17 -31 -6
-22 -24 -47 -62 -47 -72 0 -2 7 -2 15 1 22 9 19 -28 -4 -53 -11 -12 -18 -29
-15 -40 3 -10 -2 -32 -10 -48 -9 -17 -16 -38 -16 -47 0 -9 -4 -20 -10 -23 -5
-3 -10 -19 -10 -34 0 -15 -9 -46 -21 -70 -19 -40 -19 -44 -3 -55 11 -8 14 -18
9 -26 -6 -10 -11 -9 -21 5 -12 16 -14 16 -19 2 -4 -8 1 -27 10 -41 11 -16 14
-32 10 -43 -5 -10 -7 -26 -6 -35 2 -12 -3 -16 -13 -12 -9 3 -16 12 -16 20 0 8
-4 14 -10 14 -5 0 -10 8 -10 18 1 15 2 15 15 -2 8 -11 18 -16 22 -13 3 4 -3
20 -15 37 -16 22 -20 37 -15 62 3 18 9 38 14 43 4 6 13 39 19 75 7 40 23 82
41 109 16 25 29 55 29 68 0 13 5 23 10 23 6 0 10 11 10 25 0 18 -4 23 -15 19
-11 -5 -15 2 -15 26 0 24 4 31 15 26 17 -6 19 7 5 33 -6 12 -4 33 5 63 10 34
10 49 2 57 -8 8 -7 11 5 11 22 0 30 27 16 50 -7 10 -9 23 -5 27 5 4 12 1 17
-7 7 -11 10 -6 10 19 0 19 4 48 9 65 9 29 23 152 39 341 l7 80 51 10 c33 7 49
14 47 23 -3 6 0 12 6 12 6 0 11 -4 11 -9z m-1200 -531 c0 -5 -4 -10 -10 -10
-5 0 -10 5 -10 10 0 6 5 10 10 10 6 0 10 -4 10 -10z m1063 -227 c-7 -2 -13
-11 -13 -19 0 -8 -4 -14 -10 -14 -5 0 -10 6 -10 14 0 14 15 24 35 24 6 0 4 -2
-2 -5z m-103 -109 c0 -8 -4 -14 -10 -14 -5 0 -10 9 -10 21 0 11 5 17 10 14 6
-3 10 -13 10 -21z m-24 -70 c-5 -13 -10 -14 -18 -6 -6 6 -8 18 -4 28 5 13 10
14 18 6 6 -6 8 -18 4 -28z m-984 -291 c10 -9 18 -27 18 -40 0 -24 -8 -36 -43
-72 -14 -14 -16 -24 -8 -42 20 -51 24 -65 26 -96 2 -31 -1 -33 -29 -33 -17 0
-43 -7 -58 -14 -36 -19 -45 -4 -13 20 27 20 32 39 13 47 -8 3 -6 6 4 6 10 1
23 -9 29 -21 8 -15 14 -19 17 -10 2 7 -4 19 -14 26 -17 13 -17 15 -1 30 9 10
17 20 17 24 0 4 -7 16 -15 26 -17 23 -20 46 -5 46 10 0 50 36 50 45 0 3 -7 5
-15 5 -8 0 -15 -4 -15 -10 0 -5 -5 -10 -10 -10 -6 0 -8 11 -4 28 8 33 22 62
31 62 4 0 15 -7 25 -17z m368 -55 c0 -5 -4 -8 -10 -8 -5 0 -10 10 -10 23 0 18
2 19 10 7 5 -8 10 -18 10 -22z m520 -48 c0 -11 -7 -20 -15 -20 -15 0 -21 21
-8 33 12 13 23 7 23 -13z m44 -27 c5 -15 1 -28 -14 -43 l-21 -21 20 -6 c12 -3
21 -7 21 -8 0 -2 -6 -14 -13 -29 -14 -26 -30 -26 -20 0 3 8 0 14 -6 14 -6 0
-11 7 -11 15 0 7 -8 18 -17 24 -17 9 -17 10 0 16 9 4 17 11 17 15 0 5 5 21 10
36 11 29 23 24 34 -13z m-915 -25 c-1 -24 -3 -35 -6 -25 -2 9 -9 17 -14 17 -5
0 -9 11 -9 25 0 16 6 25 15 25 11 0 15 -11 14 -42z m-89 -13 c0 -25 -14 -34
-24 -16 -8 12 3 41 15 41 5 0 9 -11 9 -25z m36 -150 c16 -25 16 -27 -5 -49
-15 -15 -19 -26 -12 -31 18 -11 12 -32 -10 -38 -25 -7 -20 -33 6 -29 12 2 15
0 9 -10 -15 -22 -34 -82 -34 -105 0 -12 -4 -24 -9 -27 -4 -3 -12 -34 -15 -68
-4 -35 -12 -68 -17 -75 -6 -6 -11 -41 -12 -78 -2 -63 -3 -65 -19 -46 -9 12
-19 21 -23 21 -4 0 -5 -14 -1 -31 5 -25 1 -36 -16 -51 -19 -16 -20 -22 -10
-39 10 -16 10 -20 -3 -25 -12 -5 -13 -9 -3 -21 10 -13 8 -14 -12 -12 -14 2
-35 -2 -47 -9 -19 -10 -23 -9 -29 10 -6 19 -7 20 -16 4 -8 -13 -13 -15 -24 -5
-18 15 -18 33 0 26 11 -5 17 6 22 40 5 31 12 47 24 50 12 3 20 19 24 48 4 24
14 49 21 55 8 7 15 18 15 25 0 8 6 16 13 19 6 3 2 3 -11 0 -20 -5 -22 -3 -14
13 5 10 20 43 32 73 12 30 26 63 31 72 5 10 9 29 9 42 0 16 7 26 23 31 l22 8
-22 4 c-13 2 -23 8 -23 13 0 5 9 17 19 27 12 11 19 31 19 55 0 45 10 64 25 49
17 -17 31 -13 17 4 -11 13 -8 16 19 21 29 6 30 8 16 27 -8 12 -15 25 -15 29 0
17 20 7 36 -17z m-42 -3 c6 -9 -29 -42 -44 -42 -15 0 -12 11 8 31 19 20 28 23
36 11z m1401 -282 c3 -5 -1 -10 -10 -10 -9 0 -13 5 -10 10 3 6 8 10 10 10 2 0
7 -4 10 -10z m5 -130 c0 -16 -4 -32 -10 -35 -6 -4 -10 10 -10 35 0 25 4 39 10
35 6 -3 10 -19 10 -35z m-1645 -330 c3 -5 -3 -10 -15 -10 -12 0 -18 5 -15 10
3 6 10 10 15 10 5 0 12 -4 15 -10z"/>
<path d="M2700 3195 c0 -8 5 -15 10 -15 6 0 10 7 10 15 0 8 -4 15 -10 15 -5 0
-10 -7 -10 -15z"/>
<path d="M3056 3095 c4 -8 7 -15 9 -15 2 0 5 7 9 15 3 9 0 15 -9 15 -9 0 -12
-6 -9 -15z"/>
<path d="M2675 3071 c-6 -11 9 -23 19 -14 9 9 7 23 -3 23 -6 0 -12 -4 -16 -9z"/>
<path d="M3020 2156 c0 -14 5 -26 10 -26 6 0 10 9 10 19 0 11 -4 23 -10 26 -6
4 -10 -5 -10 -19z"/>
<path d="M3195 2009 c-10 -15 3 -25 16 -12 7 7 7 13 1 17 -6 3 -14 1 -17 -5z"/>
<path d="M3340 1964 c0 -8 5 -12 10 -9 6 4 8 11 5 16 -9 14 -15 11 -15 -7z"/>
<path d="M3230 1960 c0 -5 5 -10 10 -10 6 0 10 5 10 10 0 6 -4 10 -10 10 -5 0
-10 -4 -10 -10z"/>
<path d="M4005 3570 c-3 -5 1 -10 9 -10 9 0 16 5 16 10 0 6 -4 10 -9 10 -6 0
-13 -4 -16 -10z"/>
<path d="M3694 3064 c3 -9 6 -18 6 -20 0 -2 7 -4 15 -4 13 0 14 4 5 20 -13 24
-35 27 -26 4z"/>
<path d="M3666 3015 c-3 -9 0 -15 8 -15 8 0 16 7 20 15 3 9 0 15 -8 15 -8 0
-16 -7 -20 -15z"/>
<path d="M3940 2008 c-10 -31 14 -83 33 -71 6 4 4 10 -6 17 -8 7 -17 23 -20
36 -2 14 -5 22 -7 18z"/>
<path d="M3980 1845 c0 -15 4 -24 10 -20 6 3 10 12 10 20 0 8 -4 17 -10 20 -6
4 -10 -5 -10 -20z"/>
<path d="M4022 1469 c2 -6 7 -10 11 -10 4 1 14 1 23 1 8 0 12 5 9 10 -8 13
-48 13 -43 -1z"/>
<path d="M3510 2350 c0 -5 7 -10 16 -10 8 0 12 5 9 10 -3 6 -10 10 -16 10 -5
0 -9 -4 -9 -10z"/>
<path d="M2490 1996 c0 -10 9 -16 21 -16 24 0 21 23 -4 28 -10 2 -17 -3 -17
-12z"/>
<path d="M2380 1584 c0 -8 5 -12 10 -9 6 3 10 10 10 16 0 5 -4 9 -10 9 -5 0
-10 -7 -10 -16z"/>
<path d="M2357 1563 c-2 -4 -1 -17 3 -27 6 -19 7 -19 14 -1 7 19 -8 44 -17 28z"/>
<path d="M2316 1521 c-4 -7 -5 -15 -2 -18 9 -9 19 4 14 18 -4 11 -6 11 -12 0z"/>
<path d="M9071 3776 c-16 -19 -11 -29 8 -17 7 5 12 14 9 21 -3 9 -8 7 -17 -4z"/>
<path d="M6235 3740 c4 -6 11 -8 16 -5 14 9 11 15 -7 15 -8 0 -12 -5 -9 -10z"/>
<path d="M8020 3650 c0 -5 5 -10 10 -10 6 0 10 5 10 10 0 6 -4 10 -10 10 -5 0
-10 -4 -10 -10z"/>
<path d="M10095 3608 c9 -27 22 -44 30 -36 8 7 -16 58 -27 58 -5 0 -6 -10 -3
-22z"/>
<path d="M9150 3550 c0 -5 5 -10 10 -10 6 0 10 5 10 10 0 6 -4 10 -10 10 -5 0
-10 -4 -10 -10z"/>
<path d="M1882 3485 c0 -16 2 -22 5 -12 2 9 2 23 0 30 -3 6 -5 -1 -5 -18z"/>
<path d="M9670 3500 c0 -5 5 -10 10 -10 6 0 10 5 10 10 0 6 -4 10 -10 10 -5 0
-10 -4 -10 -10z"/>
<path d="M4276 3472 c-2 -4 -1 -14 5 -22 7 -12 9 -10 9 8 0 23 -5 28 -14 14z"/>
<path d="M8016 3451 c-4 -5 -2 -12 3 -15 5 -4 12 -2 15 3 4 5 2 12 -3 15 -5 4
-12 2 -15 -3z"/>
<path d="M8742 3398 c5 -15 28 -23 28 -10 0 5 -7 13 -16 16 -10 4 -14 1 -12
-6z"/>
<path d="M8055 3390 c-3 -5 1 -10 9 -10 9 0 16 5 16 10 0 6 -4 10 -9 10 -6 0
-13 -4 -16 -10z"/>
<path d="M7736 3361 c-4 -7 -5 -15 -2 -18 9 -9 19 4 14 18 -4 11 -6 11 -12 0z"/>
<path d="M8535 3350 c-3 -5 1 -10 10 -10 9 0 13 5 10 10 -3 6 -8 10 -10 10 -2
0 -7 -4 -10 -10z"/>
<path d="M1740 3194 c0 -8 5 -12 10 -9 6 3 10 10 10 16 0 5 -4 9 -10 9 -5 0
-10 -7 -10 -16z"/>
<path d="M10300 3054 c0 -8 5 -12 10 -9 6 4 8 11 5 16 -9 14 -15 11 -15 -7z"/>
<path d="M5236 3051 c-4 -5 -2 -12 3 -15 5 -4 12 -2 15 3 4 5 2 12 -3 15 -5 4
-12 2 -15 -3z"/>
<path d="M5252 2999 c2 -6 8 -10 13 -10 5 0 11 4 13 10 2 6 -4 11 -13 11 -9 0
-15 -5 -13 -11z"/>
<path d="M4838 2944 c-12 -7 -33 -13 -46 -14 -39 0 -102 -39 -168 -104 -35
-35 -64 -67 -64 -72 0 -5 -9 -15 -20 -22 -11 -7 -20 -23 -20 -37 0 -13 -11
-34 -24 -47 -26 -26 -86 -175 -86 -216 0 -15 -4 -34 -10 -42 -5 -9 -5 -19 2
-28 8 -9 8 -19 0 -35 -6 -12 -9 -40 -8 -62 1 -22 -2 -47 -7 -56 -6 -9 -5 -44
2 -95 7 -43 12 -85 11 -91 -2 -32 0 -51 8 -98 16 -86 43 -156 68 -180 13 -12
24 -28 24 -35 0 -7 14 -28 30 -47 17 -18 30 -39 30 -46 1 -14 99 -83 113 -79
5 1 20 -4 33 -13 13 -8 36 -15 52 -15 15 0 33 -5 39 -11 16 -16 150 -14 210 4
58 18 153 68 200 106 43 35 103 121 103 146 0 11 7 30 15 42 8 12 17 34 20 50
3 15 8 43 11 60 9 47 -4 101 -26 113 -30 16 -55 -2 -69 -49 -6 -23 -16 -41
-21 -41 -6 0 -10 -6 -10 -14 0 -20 -65 -96 -109 -126 -53 -38 -119 -52 -181
-39 -27 6 -52 15 -56 20 -3 5 -14 9 -25 9 -12 0 -23 10 -29 25 -5 14 -17 28
-26 32 -23 9 -97 169 -89 194 4 11 2 26 -4 33 -14 16 -25 304 -12 320 8 10 17
58 24 133 1 17 10 40 20 51 9 10 17 25 17 34 0 8 11 25 25 38 14 13 25 29 25
35 0 14 47 57 81 74 40 20 92 -1 120 -46 16 -26 22 -50 21 -95 -1 -35 -7 -69
-16 -83 -12 -18 -13 -26 -3 -40 10 -12 29 -17 79 -17 56 -1 72 3 112 28 38 24
49 37 59 74 7 25 12 68 10 95 -2 28 -3 57 -4 65 -2 55 -75 160 -111 160 -9 0
-22 9 -28 19 -5 11 -27 25 -47 32 -52 18 -215 19 -245 3z m-38 -119 c0 -8 -7
-15 -15 -15 -16 0 -20 12 -8 23 11 12 23 8 23 -8z m293 -2 c16 -10 40 -28 52
-40 17 -16 20 -24 11 -33 -7 -7 -7 -13 -1 -18 6 -4 11 -22 11 -41 1 -19 9 -40
18 -46 9 -7 16 -15 16 -19 0 -11 -28 -6 -33 7 -2 6 -8 8 -13 4 -5 -4 -4 -11 2
-15 14 -10 25 -42 14 -42 -5 0 -17 11 -28 25 -13 17 -22 21 -25 13 -2 -7 -8
-9 -13 -5 -5 5 1 17 14 28 29 23 23 48 -19 83 -16 14 -29 29 -29 33 0 5 -13
22 -30 38 -16 15 -27 32 -24 37 9 13 44 9 77 -9z m-319 -58 c-15 -14 -33 -25
-40 -25 -18 0 -37 -38 -31 -62 4 -15 2 -18 -10 -14 -12 5 -14 1 -9 -19 7 -27
6 -28 -18 -19 -18 7 -21 35 -6 50 8 8 6 15 -5 24 -23 19 -18 33 10 26 18 -5
23 -3 19 7 -6 17 19 39 49 42 40 4 42 6 19 16 -13 5 -20 13 -17 19 4 6 17 4
36 -5 l29 -16 -26 -24z m-134 -79 c0 -8 -4 -17 -9 -20 -10 -7 -23 19 -14 28
11 11 23 6 23 -8z m-25 -50 c20 -14 26 -16 45 -16 6 0 10 -6 10 -14 0 -8 -8
-13 -17 -12 -14 1 -18 -7 -19 -41 0 -23 -5 -53 -11 -65 -16 -35 -33 -137 -33
-199 0 -31 5 -105 11 -165 8 -81 16 -116 31 -137 16 -22 18 -31 8 -37 -9 -5
-9 -9 -1 -14 6 -4 11 -23 11 -42 0 -22 5 -34 14 -34 15 0 27 -23 22 -43 -1 -6
-1 -9 1 -4 3 4 13 7 24 7 13 0 19 -7 19 -21 0 -30 56 -82 80 -76 11 3 20 1 20
-4 0 -5 6 -9 13 -9 8 0 19 -12 26 -27 12 -27 13 -27 27 -8 11 15 14 15 14 3 0
-20 36 -52 44 -39 4 5 2 12 -4 16 -5 3 -10 11 -10 17 0 7 5 6 15 -2 8 -6 19
-9 25 -5 7 4 6 -2 -2 -15 -10 -18 -10 -24 0 -27 6 -3 12 -11 12 -19 0 -21 -47
-17 -70 6 -11 11 -22 15 -25 9 -4 -5 -11 -6 -17 -3 -6 4 -17 -1 -25 -12 -11
-15 -17 -17 -33 -6 -11 6 -28 12 -39 12 -10 0 -21 7 -25 15 -8 23 -29 18 -23
-5 3 -13 0 -20 -10 -20 -10 0 -12 6 -8 20 4 11 2 20 -4 20 -6 0 -11 -4 -11
-10 0 -5 -7 -10 -15 -10 -8 0 -15 6 -15 13 0 8 -14 26 -30 41 -24 21 -29 32
-24 51 7 28 -7 33 -26 10 -22 -27 -32 -16 -13 15 10 18 26 30 38 30 16 0 17 2
6 9 -9 6 -23 4 -38 -6 -21 -14 -23 -14 -29 3 -3 11 -12 33 -19 49 -34 72 -43
150 -41 374 2 155 6 225 14 233 7 7 12 20 12 29 0 10 9 39 21 65 13 31 16 50
10 52 -16 5 -13 22 4 22 8 0 15 -4 15 -10 0 -5 9 -10 20 -10 23 0 27 15 5 24
-15 5 -21 36 -7 36 4 0 16 -6 27 -14z m471 -982 c14 -11 15 -17 6 -21 -7 -2
-19 -11 -26 -19 -16 -15 -36 -19 -36 -6 0 4 10 13 22 21 21 13 21 14 3 27 -14
11 -15 14 -4 14 8 0 24 -7 35 -16z m-58 -16 c-6 -18 -28 -21 -28 -4 0 9 7 16
16 16 9 0 14 -5 12 -12z m-233 -48 c3 -6 -4 -10 -17 -10 -18 0 -20 2 -8 10 19
12 18 12 25 0z m125 1 c0 -16 -19 -23 -41 -16 -17 6 -19 9 -8 16 19 12 49 11
49 0z"/>
<path d="M5107 2756 c-4 -10 -1 -13 9 -9 15 6 19 23 5 23 -5 0 -11 -7 -14 -14z"/>
<path d="M4810 1683 c8 -3 21 -10 28 -16 8 -7 12 -5 12 7 0 11 -8 16 -27 15
-16 0 -22 -3 -13 -6z"/>
<path d="M4808 1632 c19 -21 27 -20 19 3 -4 8 -13 15 -22 15 -13 0 -12 -3 3
-18z"/>
<path d="M3357 2815 c-4 -8 -2 -17 3 -20 6 -4 10 3 10 14 0 25 -6 27 -13 6z"/>
<path d="M9880 2806 c0 -9 5 -16 10 -16 6 0 10 4 10 9 0 6 -4 13 -10 16 -5 3
-10 -1 -10 -9z"/>
<path d="M7962 2785 c0 -16 2 -22 5 -12 2 9 2 23 0 30 -3 6 -5 -1 -5 -18z"/>
<path d="M4343 2715 c-9 -24 1 -27 15 -5 8 13 8 20 2 20 -6 0 -13 -7 -17 -15z"/>
<path d="M6020 2520 c0 -19 3 -21 12 -12 9 9 9 15 0 24 -9 9 -12 7 -12 -12z"/>
<path d="M9322 2460 c0 -14 2 -19 5 -12 2 6 2 18 0 25 -3 6 -5 1 -5 -13z"/>
<path d="M1572 2439 c2 -6 8 -10 13 -10 5 0 11 4 13 10 2 6 -4 11 -13 11 -9 0
-15 -5 -13 -11z"/>
<path d="M10410 2320 c0 -5 5 -10 10 -10 6 0 10 5 10 10 0 6 -4 10 -10 10 -5
0 -10 -4 -10 -10z"/>
<path d="M1582 2250 c0 -14 2 -19 5 -12 2 6 2 18 0 25 -3 6 -5 1 -5 -13z"/>
<path d="M9456 2155 c-19 -15 -19 -15 2 -15 13 0 22 6 22 15 0 8 -1 15 -2 15
-2 0 -12 -7 -22 -15z"/>
<path d="M5400 2104 c0 -8 5 -12 10 -9 6 4 8 11 5 16 -9 14 -15 11 -15 -7z"/>
<path d="M5154 2047 c-8 -21 2 -35 16 -21 5 5 6 15 0 24 -8 12 -10 12 -16 -3z"/>
<path d="M10035 2030 c-3 -5 1 -10 9 -10 9 0 16 5 16 10 0 6 -4 10 -9 10 -6 0
-13 -4 -16 -10z"/>
<path d="M1580 2010 c0 -19 3 -21 12 -12 9 9 9 15 0 24 -9 9 -12 7 -12 -12z"/>
<path d="M8076 1995 c-11 -8 -15 -15 -10 -15 6 0 19 7 30 15 10 8 15 14 9 14
-5 0 -19 -6 -29 -14z"/>
<path d="M10031 1987 c2 -1 12 -9 22 -16 14 -12 17 -11 17 3 0 10 -8 16 -22
16 -12 0 -19 -1 -17 -3z"/>
<path d="M7635 1960 c4 -6 11 -8 16 -5 14 9 11 15 -7 15 -8 0 -12 -5 -9 -10z"/>
<path d="M8135 1960 c4 -6 11 -8 16 -5 14 9 11 15 -7 15 -8 0 -12 -5 -9 -10z"/>
<path d="M9680 1960 c0 -5 4 -10 9 -10 6 0 13 5 16 10 3 6 -1 10 -9 10 -9 0
-16 -4 -16 -10z"/>
<path d="M1562 1850 c0 -19 2 -27 5 -17 2 9 2 25 0 35 -3 9 -5 1 -5 -18z"/>
<path d="M1562 1720 c0 -19 2 -27 5 -17 2 9 2 25 0 35 -3 9 -5 1 -5 -18z"/>
<path d="M1582 1570 c0 -14 2 -19 5 -12 2 6 2 18 0 25 -3 6 -5 1 -5 -13z"/>
<path d="M5255 1520 c4 -6 11 -8 16 -5 14 9 11 15 -7 15 -8 0 -12 -5 -9 -10z"/>
<path d="M10265 1450 c-3 -5 1 -10 9 -10 9 0 16 5 16 10 0 6 -4 10 -9 10 -6 0
-13 -4 -16 -10z"/>
<path d="M10376 1435 c-3 -9 0 -15 9 -15 16 0 20 16 6 24 -5 3 -11 -1 -15 -9z"/>
<path d="M5435 1231 c-3 -5 -1 -12 5 -16 5 -3 10 1 10 9 0 18 -6 21 -15 7z"/>
<path d="M4015 1180 c3 -5 12 -7 20 -3 21 7 19 13 -6 13 -11 0 -18 -4 -14 -10z"/>
<path d="M4345 1110 c-3 -5 -2 -10 4 -10 5 0 13 5 16 10 3 6 2 10 -4 10 -5 0
-13 -4 -16 -10z"/>
<path d="M4885 1110 c-3 -5 1 -10 9 -10 9 0 16 5 16 10 0 6 -4 10 -9 10 -6 0
-13 -4 -16 -10z"/>
<path d="M3800 993 c1 -14 30 -48 30 -34 0 7 -7 19 -15 27 -8 9 -15 12 -15 7z"/>
<path d="M4035 990 c-3 -5 1 -10 10 -10 9 0 13 5 10 10 -3 6 -8 10 -10 10 -2
0 -7 -4 -10 -10z"/>
<path d="M2720 966 c0 -2 7 -6 15 -10 8 -3 15 -1 15 4 0 6 -7 10 -15 10 -8 0
-15 -2 -15 -4z"/>
<path d="M2986 956 c21 -15 30 -14 19 3 -3 6 -14 11 -23 11 -13 0 -13 -2 4
-14z"/>
<path d="M7142 1204 c-18 -19 -28 -34 -22 -34 11 0 70 53 70 64 0 13 -16 3
-48 -30z"/>
<path d="M6550 1190 c-12 -8 -10 -10 8 -10 13 0 20 4 17 10 -7 12 -6 12 -25 0z"/>
<path d="M6092 1170 c7 -11 16 -16 21 -11 12 12 0 31 -19 31 -12 0 -12 -3 -2
-20z"/>
<path d="M6150 1160 c0 -5 6 -10 14 -10 8 0 18 5 21 10 3 6 -3 10 -14 10 -12
0 -21 -4 -21 -10z"/>
<path d="M7355 1130 c-3 -5 1 -10 10 -10 9 0 13 5 10 10 -3 6 -8 10 -10 10 -2
0 -7 -4 -10 -10z"/>
<path d="M5835 1051 c-3 -5 -1 -12 5 -16 12 -7 30 2 30 16 0 12 -27 12 -35 0z"/>
<path d="M5792 1029 c2 -7 10 -15 17 -17 8 -3 12 1 9 9 -2 7 -10 15 -17 17 -8
3 -12 -1 -9 -9z"/>
<path d="M5738 1003 c-10 -2 -18 -9 -18 -14 0 -14 28 -11 33 4 3 8 10 6 21 -8
8 -11 16 -15 16 -9 0 11 -21 35 -29 33 -4 -1 -14 -3 -23 -6z"/>
<path d="M5620 991 c0 -6 -7 -11 -15 -11 -8 0 -15 -4 -15 -10 0 -15 19 -12 36
4 9 9 10 17 4 21 -5 3 -10 1 -10 -4z"/>
<path d="M5655 990 c-3 -5 1 -10 9 -10 9 0 16 5 16 10 0 6 -4 10 -9 10 -6 0
-13 -4 -16 -10z"/>
<path d="M5917 963 c-10 -12 -13 -24 -8 -32 5 -7 14 -10 20 -7 6 4 9 11 6 16
-3 5 0 12 6 15 6 4 13 -2 16 -13 4 -17 17 -27 66 -50 4 -2 7 3 7 11 0 8 -9 17
-21 20 -11 3 -23 15 -26 26 -3 12 -9 21 -13 21 -5 0 -15 2 -22 5 -8 3 -22 -2
-31 -12z"/>
<path d="M6820 970 c-34 -7 -34 -7 13 -9 30 0 46 3 42 9 -3 6 -9 9 -13 9 -4
-1 -23 -5 -42 -9z"/>
<path d="M6020 956 c0 -9 5 -16 10 -16 6 0 10 4 10 9 0 6 -4 13 -10 16 -5 3
-10 -1 -10 -9z"/>
<path d="M6720 940 c0 -5 5 -10 10 -10 6 0 10 5 10 10 0 6 -4 10 -10 10 -5 0
-10 -4 -10 -10z"/>
<path d="M6015 870 c-3 -5 1 -10 10 -10 9 0 13 5 10 10 -3 6 -8 10 -10 10 -2
0 -7 -4 -10 -10z"/>
<path d="M5736 731 c-4 -5 -2 -12 3 -15 5 -4 12 -2 15 3 4 5 2 12 -3 15 -5 4
-12 2 -15 -3z"/>
<path d="M5612 655 c-10 -12 -10 -15 2 -15 7 0 16 7 20 15 7 19 -5 19 -22 0z"/>
<path d="M4895 560 c-7 -12 2 -12 30 0 19 8 19 9 -2 9 -12 1 -25 -3 -28 -9z"/>
<path d="M4560 520 c0 -5 7 -10 15 -10 8 0 15 5 15 10 0 6 -7 10 -15 10 -8 0
-15 -4 -15 -10z"/>
<path d="M4940 510 c0 -5 7 -10 16 -10 8 0 12 5 9 10 -3 6 -10 10 -16 10 -5 0
-9 -4 -9 -10z"/>
<path d="M4429 884 c-12 -14 -11 -16 5 -13 11 2 21 10 24 17 5 17 -13 15 -29
-4z"/>
<path d="M3096 531 c-4 -7 -5 -15 -2 -18 9 -9 19 4 14 18 -4 11 -6 11 -12 0z"/>
<path d="M7165 6410 c-3 -5 1 -10 10 -10 9 0 13 5 10 10 -3 6 -8 10 -10 10 -2
0 -7 -4 -10 -10z"/>
<path d="M8285 5920 c-15 -17 -16 -20 -3 -20 19 0 42 26 30 34 -5 3 -17 -3
-27 -14z"/>
<path d="M9096 5471 c-4 -5 -2 -12 3 -15 5 -4 12 -2 15 3 4 5 2 12 -3 15 -5 4
-12 2 -15 -3z"/>
<path d="M9188 5303 c6 -2 18 -2 25 0 6 3 1 5 -13 5 -14 0 -19 -2 -12 -5z"/>
<path d="M2562 5120 c0 -14 2 -19 5 -12 2 6 2 18 0 25 -3 6 -5 1 -5 -13z"/>
<path d="M2610 5121 c0 -11 5 -23 10 -26 6 -4 10 5 10 19 0 14 -4 26 -10 26
-5 0 -10 -9 -10 -19z"/>
<path d="M2240 4654 c0 -14 3 -14 15 -4 8 7 15 14 15 16 0 2 -7 4 -15 4 -8 0
-15 -7 -15 -16z"/>
<path d="M9850 4491 c11 -22 30 -29 30 -11 0 5 -9 14 -21 20 -19 11 -20 10 -9
-9z"/>
<path d="M2102 4410 c0 -14 2 -19 5 -12 2 6 2 18 0 25 -3 6 -5 1 -5 -13z"/>
<path d="M1615 3550 c-4 -6 -3 -16 3 -22 6 -6 12 -6 17 2 4 6 3 16 -3 22 -6 6
-12 6 -17 -2z"/>
<path d="M10515 3070 c-3 -5 1 -10 10 -10 9 0 13 5 10 10 -3 6 -8 10 -10 10
-2 0 -7 -4 -10 -10z"/>
<path d="M1436 2891 c-4 -5 -2 -12 3 -15 5 -4 12 -2 15 3 4 5 2 12 -3 15 -5 4
-12 2 -15 -3z"/>
<path d="M10690 2155 c-7 -9 -8 -15 -2 -15 5 0 12 7 16 15 3 8 4 15 2 15 -2 0
-9 -7 -16 -15z"/>
<path d="M10695 1601 c-3 -5 -1 -12 5 -16 5 -3 10 1 10 9 0 18 -6 21 -15 7z"/>
<path d="M10680 1535 c0 -8 5 -15 10 -15 6 0 10 7 10 15 0 8 -4 15 -10 15 -5
0 -10 -7 -10 -15z"/>
<path d="M6856 711 c-4 -5 -2 -12 3 -15 5 -4 12 -2 15 3 4 5 2 12 -3 15 -5 4
-12 2 -15 -3z"/>
</g>
</svg>
