<?xml version="1.0" standalone="no"?>
<!DOCTYPE svg PUBLIC "-//W3C//DTD SVG 20010904//EN"
 "http://www.w3.org/TR/2001/REC-SVG-20010904/DTD/svg10.dtd">
<svg version="1.0" xmlns="http://www.w3.org/2000/svg"
 width="1200.000000pt" height="346.000000pt" viewBox="0 0 1200.000000 346.000000"
 preserveAspectRatio="xMidYMid meet">
<g transform="translate(0.000000,346.000000) scale(0.100000,-0.100000)"
fill="#000000" stroke="none">
<path d="M1375 3450 c3 -5 10 -10 16 -10 5 0 9 5 9 10 0 6 -7 10 -16 10 -8 0
-12 -4 -9 -10z"/>
<path d="M1410 3450 c0 -5 5 -10 10 -10 6 0 10 5 10 10 0 6 -4 10 -10 10 -5 0
-10 -4 -10 -10z"/>
<path d="M4010 3450 c0 -5 5 -10 10 -10 6 0 10 5 10 10 0 6 -4 10 -10 10 -5 0
-10 -4 -10 -10z"/>
<path d="M2260 3424 c0 -8 5 -12 10 -9 6 3 10 10 10 16 0 5 -4 9 -10 9 -5 0
-10 -7 -10 -16z"/>
<path d="M182 3407 c-28 -6 -58 -25 -87 -52 -33 -33 -46 -54 -55 -96 -17 -74
-1 -128 51 -178 27 -27 39 -47 39 -67 0 -39 51 -125 92 -156 41 -31 107 -60
119 -52 10 6 89 -56 89 -71 0 -5 -26 -11 -58 -12 -77 -2 -163 -35 -201 -79
-17 -19 -31 -41 -31 -49 0 -8 -16 -29 -36 -47 -40 -36 -73 -99 -74 -138 0 -46
21 -100 53 -137 61 -69 157 -92 228 -54 26 14 48 18 77 14 22 -3 61 -2 85 1
32 5 55 17 80 41 27 26 45 35 70 35 48 0 120 49 152 104 15 25 24 50 20 56
-10 16 -33 12 -44 -9 -16 -29 -109 -71 -158 -71 -31 0 -45 -5 -53 -19 -5 -11
-26 -29 -45 -41 -29 -18 -47 -22 -92 -18 -30 3 -58 11 -63 18 -6 10 -14 8 -35
-9 -50 -39 -138 -20 -163 34 -7 14 -12 42 -12 61 0 26 9 45 38 77 21 23 43 54
50 69 6 15 29 39 51 54 30 20 58 28 108 32 51 4 75 11 96 28 15 13 44 26 65
29 56 10 62 13 62 34 0 16 -9 21 -46 27 -50 7 -96 40 -119 84 -11 22 -24 30
-57 35 -86 14 -151 76 -167 159 -6 34 -19 56 -45 82 -30 29 -36 42 -36 77 0
23 7 51 15 61 23 30 67 56 96 56 14 0 43 -11 63 -25 27 -18 44 -23 66 -18 17
3 52 0 78 -8 32 -9 61 -28 94 -60 25 -25 48 -57 50 -69 3 -24 9 -28 70 -56 44
-19 76 -66 86 -126 6 -33 12 -43 26 -43 14 0 22 12 30 46 7 25 21 58 33 75 11
16 23 46 26 67 11 69 74 133 144 144 24 4 49 18 69 40 25 26 39 33 68 33 72 0
115 -41 116 -109 0 -29 -6 -51 -17 -64 -13 -14 -18 -36 -18 -83 -1 -56 -4 -67
-30 -94 -17 -17 -41 -37 -55 -43 -14 -7 -33 -30 -44 -52 -25 -55 -43 -73 -98
-101 -48 -24 -61 -49 -33 -60 21 -8 114 24 154 54 19 14 41 42 49 63 9 24 23
40 37 43 30 8 81 72 100 125 10 30 12 49 4 68 -7 19 -6 30 5 42 25 29 46 79
46 111 0 32 -30 102 -59 134 -9 10 -34 27 -56 39 -76 40 -186 18 -242 -47 -13
-14 -32 -26 -43 -26 -30 0 -70 -23 -106 -62 -41 -43 -55 -70 -63 -126 -3 -25
-11 -47 -18 -49 -6 -2 -19 12 -28 31 -12 24 -27 39 -50 46 -25 8 -37 20 -44
43 -29 87 -134 160 -229 159 -41 0 -62 5 -89 24 -20 13 -43 24 -52 24 -9 0
-25 2 -36 4 -11 2 -39 -1 -63 -7z"/>
<path d="M2570 3406 c-116 -27 -209 -98 -260 -199 -16 -33 -30 -66 -30 -73 0
-11 -85 -156 -133 -226 -6 -9 -8 -20 -5 -24 4 -3 38 -2 75 4 37 5 71 7 75 3 3
-3 -14 -37 -38 -74 -24 -38 -42 -73 -38 -78 4 -6 10 -6 17 -1 23 19 181 44
240 39 61 -6 98 -23 121 -60 8 -12 22 -67 31 -122 63 -395 89 -475 212 -640
63 -85 290 -308 307 -302 26 9 12 37 -52 102 -171 176 -286 379 -327 578 -8
41 -22 130 -30 198 -9 68 -22 147 -30 176 -17 59 -53 106 -99 130 -35 18 -153
23 -223 10 -26 -6 -43 -5 -43 1 0 5 15 29 34 53 19 23 32 47 29 51 -2 5 -24 6
-48 2 -24 -3 -48 -3 -54 1 -7 4 2 25 24 58 19 28 42 74 51 102 20 60 64 121
113 155 20 14 62 32 94 40 49 11 70 11 120 1 110 -22 177 -73 320 -244 104
-124 153 -171 274 -265 105 -81 276 -258 379 -392 216 -281 537 -809 714
-1174 83 -173 210 -465 210 -484 0 -7 -2 -12 -6 -12 -3 0 -40 26 -82 59 -42
32 -142 105 -221 162 -325 232 -633 505 -803 711 -114 137 -229 300 -315 443
-70 118 -178 333 -204 408 -15 43 -46 67 -55 44 -5 -14 1 -38 53 -202 50 -157
169 -379 286 -538 221 -298 564 -635 922 -904 l80 -61 27 -83 c44 -140 137
-403 148 -421 13 -24 13 -51 -2 -66 -16 -16 -103 -15 -120 2 -8 7 -40 94 -72
192 -32 99 -63 191 -68 207 -10 27 -31 36 -42 18 -3 -5 5 -56 19 -113 13 -56
36 -154 50 -217 l26 -114 -48 -49 c-26 -26 -55 -48 -65 -48 -19 0 -14 -17 -83
280 -86 375 -128 545 -135 553 -4 4 -15 5 -24 1 -13 -5 -16 -14 -12 -33 8 -39
42 -231 64 -366 11 -66 35 -199 53 -295 17 -96 34 -187 36 -203 5 -28 55 -78
76 -76 27 1 50 18 121 87 l76 72 108 0 c95 0 111 2 130 20 12 12 22 33 22 48
0 38 -128 399 -170 483 -16 30 -19 44 -11 52 8 8 11 8 11 -1 0 -7 5 -12 10
-12 6 0 21 -10 33 -21 28 -27 138 -99 195 -128 52 -27 105 -25 110 3 5 25 -24
145 -55 226 -75 200 -184 432 -303 651 -135 246 -382 650 -508 829 -86 123
-230 295 -319 381 -48 48 -137 126 -198 175 -60 48 -115 93 -120 98 -6 6 -51
58 -99 116 -182 217 -283 286 -446 304 -25 3 -70 -1 -100 -8z"/>
<path d="M4019 3278 c-44 -88 -264 -421 -315 -477 l-36 -41 28 -34 c16 -19 34
-35 41 -35 12 -1 116 155 158 239 18 36 31 50 43 48 13 -2 16 -12 14 -35 -5
-44 24 -99 64 -124 25 -15 50 -21 93 -20 71 0 133 15 311 77 74 26 149 50 165
53 27 6 31 11 36 55 4 35 1 50 -8 53 -7 3 -35 -4 -61 -15 -48 -21 -179 -68
-287 -103 -33 -11 -90 -22 -126 -26 -63 -5 -66 -5 -87 22 -12 15 -22 41 -22
57 0 51 39 186 75 260 19 39 35 75 35 80 0 4 -22 8 -50 8 -48 0 -50 -1 -71
-42z"/>
<path d="M2507 3162 c-8 -9 -21 -30 -27 -46 -8 -23 -7 -34 5 -52 8 -13 23 -24
33 -24 31 0 121 68 122 93 0 13 -64 47 -91 47 -14 0 -33 -8 -42 -18z"/>
<path d="M328 3143 c-10 -13 -8 -19 13 -37 219 -182 250 -205 264 -200 8 3 15
16 15 28 -1 28 -95 112 -199 175 -70 43 -81 48 -93 34z"/>
<path d="M1021 3084 c-34 -37 -82 -102 -107 -143 -43 -70 -45 -76 -28 -88 10
-7 23 -13 30 -13 7 0 23 17 35 38 40 67 133 207 147 221 15 15 13 42 -4 48 -6
2 -39 -26 -73 -63z"/>
<path d="M1587 3086 c-99 -37 -159 -103 -191 -213 -40 -133 -49 -160 -72 -208
-13 -28 -74 -111 -135 -185 -62 -74 -133 -166 -157 -204 -48 -74 -172 -327
-172 -351 0 -12 10 -13 48 -8 48 6 72 18 72 35 0 17 108 224 155 298 25 40 84
118 131 173 47 56 102 126 122 157 34 51 78 165 102 266 20 84 85 148 164 159
32 5 61 0 118 -19 41 -14 93 -26 116 -26 23 0 42 -5 42 -10 0 -6 -11 -20 -25
-32 -14 -12 -25 -28 -25 -35 0 -7 16 -21 35 -30 19 -9 35 -22 35 -28 0 -6 -15
-16 -33 -23 -38 -14 -97 -71 -126 -125 -21 -38 -21 -57 2 -57 7 0 34 23 61 51
53 54 101 83 178 105 26 8 48 20 48 27 0 7 -25 27 -55 45 -30 18 -55 40 -55
48 0 9 20 40 45 71 25 30 45 58 45 62 0 4 -44 7 -97 7 -87 -1 -105 2 -158 27
-73 34 -163 44 -218 23z"/>
<path d="M1661 2904 c-37 -47 -23 -94 28 -94 28 0 91 45 91 65 0 20 -49 55
-76 55 -12 0 -32 -12 -43 -26z"/>
<path d="M4650 2820 c-19 -10 -116 -52 -215 -93 -99 -41 -247 -107 -330 -147
-82 -39 -160 -76 -172 -81 -13 -5 -23 -14 -23 -21 0 -7 11 -26 24 -42 l23 -30
99 34 c91 30 114 33 279 41 99 5 203 14 230 21 46 12 50 15 53 47 4 41 -9 57
-34 42 -27 -15 -173 -41 -227 -41 -34 0 -47 4 -47 14 0 18 12 26 70 47 25 10
110 42 190 73 l145 55 5 46 c4 25 4 48 1 50 -9 9 -36 3 -71 -15z"/>
<path d="M765 2740 c-17 -18 -16 -21 28 -87 49 -74 94 -162 122 -235 10 -27
23 -48 29 -48 14 1 56 66 56 86 0 8 -16 41 -36 72 -51 80 -164 232 -173 232
-5 0 -16 -9 -26 -20z"/>
<path d="M11956 2652 c-3 -6 -1 -14 5 -17 15 -10 25 3 12 16 -7 7 -13 7 -17 1z"/>
<path d="M9440 2604 c0 -8 5 -12 10 -9 6 4 8 11 5 16 -9 14 -15 11 -15 -7z"/>
<path d="M560 2586 c-76 -22 -162 -62 -212 -98 -23 -16 -26 -23 -18 -38 9 -18
11 -18 49 1 22 10 45 19 51 19 5 0 18 4 28 10 9 5 58 23 107 40 84 27 90 31
90 56 0 15 -4 29 -10 30 -5 2 -44 -7 -85 -20z"/>
<path d="M11705 2589 c-49 -4 -153 -15 -230 -24 -160 -18 -385 -41 -560 -57
-78 -7 -126 -16 -137 -26 -14 -12 -18 -31 -18 -82 0 -51 4 -71 17 -81 13 -11
114 -14 542 -17 486 -2 529 -1 561 15 l35 18 3 108 c3 103 2 108 -22 132 -28
28 -36 28 -191 14z m-75 -89 c0 -5 -7 -10 -16 -10 -8 0 -12 5 -9 10 3 6 10 10
16 10 5 0 9 -4 9 -10z m163 -2 c23 -11 27 -18 25 -48 l-3 -35 -267 0 c-172 0
-268 4 -269 10 0 5 15 13 33 17 43 10 209 30 273 33 28 1 58 5 68 9 10 5 23 3
33 -5 13 -10 16 -9 21 9 4 16 13 22 32 22 15 0 39 -6 54 -12z m-913 -103 c0
-8 -4 -15 -10 -15 -5 0 -10 7 -10 15 0 8 5 15 10 15 6 0 10 -7 10 -15z"/>
<path d="M2135 2579 c-81 -26 -127 -29 -185 -14 -73 19 -112 19 -175 0 -66
-20 -119 -58 -154 -112 -33 -49 -47 -103 -56 -213 -8 -96 -10 -98 -156 -300
-42 -58 -79 -113 -82 -122 -4 -12 5 -22 35 -38 22 -12 44 -18 48 -13 6 7 107
153 171 248 58 85 71 123 84 236 10 88 18 117 39 149 14 22 45 49 69 61 33 18
56 22 107 19 122 -5 159 -3 175 10 26 21 30 -15 5 -50 -12 -16 -19 -34 -15
-40 3 -5 21 -12 40 -16 20 -3 38 -10 40 -15 3 -4 -13 -25 -36 -46 -46 -43 -98
-132 -124 -211 -13 -42 -16 -79 -13 -165 4 -117 18 -167 42 -148 8 7 15 48 19
114 3 56 13 126 22 155 32 106 132 244 200 276 19 9 35 21 35 26 0 7 -43 26
-127 55 -20 7 -15 32 17 91 17 30 28 59 25 64 -7 12 -10 11 -50 -1z"/>
<path d="M5294 2570 c-12 -4 -31 -21 -43 -36 l-21 -27 0 -818 0 -819 29 -32
29 -33 111 0 111 0 31 32 32 31 -2 563 c-1 328 -6 570 -12 580 -7 13 -5 20 8
27 15 9 25 -5 68 -91 45 -89 190 -348 361 -645 30 -51 54 -94 54 -96 0 -1 42
-77 94 -167 108 -191 140 -223 232 -235 61 -7 249 -1 275 10 8 4 23 20 33 36
16 28 17 80 16 743 l-1 712 1260 0 1260 0 22 21 c17 18 22 35 23 95 1 41 0 84
-2 97 -10 55 66 52 -1435 52 -995 0 -1393 -3 -1411 -11 -13 -6 -32 -25 -41
-43 -15 -28 -16 -86 -13 -589 3 -498 1 -557 -12 -557 -9 0 -22 15 -28 34 -11
30 -65 133 -132 251 -12 22 -76 137 -143 255 -66 118 -163 291 -216 385 -53
93 -99 177 -102 185 -13 29 -64 69 -108 85 -31 11 -81 15 -175 14 -72 0 -141
-4 -152 -9z m3841 -85 l-30 -25 34 2 c19 2 36 -1 37 -7 2 -5 -6 -21 -19 -35
l-22 -25 -425 6 c-234 4 -767 7 -1185 7 -559 0 -768 -3 -790 -11 -52 -20 -76
-42 -69 -63 4 -14 3 -16 -4 -5 -18 25 -34 2 -27 -39 5 -29 3 -39 -9 -43 -15
-6 -22 -38 -11 -49 5 -5 6 -1019 2 -1205 -1 -39 -5 -75 -9 -79 -5 -4 -49 -9
-98 -12 -62 -2 -95 0 -105 8 -8 7 -26 9 -39 6 -20 -5 -31 2 -63 40 -21 25 -49
58 -62 72 -19 21 -21 29 -13 43 8 12 8 20 2 24 -6 3 -10 1 -10 -4 0 -6 -4 -11
-9 -11 -11 0 -36 59 -27 67 3 3 6 -1 6 -10 0 -9 5 -17 10 -17 6 0 10 11 10 24
0 17 -7 25 -25 28 -14 3 -25 1 -25 -3 0 -5 -4 -9 -10 -9 -5 0 -10 7 -10 15 0
8 5 15 10 15 17 0 11 25 -10 38 -11 7 -20 19 -20 27 0 8 -16 31 -37 51 -31 31
-34 39 -25 55 16 25 15 34 -1 20 -19 -15 -28 -3 -14 20 6 10 8 22 4 26 -5 4
-12 1 -17 -7 -7 -11 -10 -8 -10 13 0 17 -11 38 -30 57 -16 16 -30 36 -30 45 0
8 -4 15 -10 15 -5 0 -10 7 -10 16 0 9 -9 18 -20 21 -22 6 -26 23 -9 40 6 6 8
16 4 23 -5 8 -10 8 -21 -1 -11 -9 -14 -8 -14 9 0 11 -7 25 -15 32 -9 7 -13 20
-10 28 5 14 -23 74 -39 81 -24 10 -46 45 -47 74 0 24 -2 27 -8 13 -7 -17 -8
-17 -23 6 -11 16 -13 29 -7 41 7 12 4 19 -11 27 -11 6 -20 17 -20 25 0 8 -7
15 -15 15 -8 0 -15 7 -15 15 0 23 -51 64 -78 65 -31 0 -62 -17 -62 -35 0 -7
-8 -21 -17 -31 -16 -16 -19 -63 -25 -550 -5 -306 -12 -543 -18 -558 -11 -29
-28 -34 -36 -11 -7 18 -25 20 -21 3 1 -8 -10 -14 -25 -16 -16 -2 -28 1 -28 7
0 6 7 11 15 11 8 0 15 5 15 10 0 6 -12 9 -27 8 l-28 -3 -3 763 c-1 516 1 769
8 782 10 18 22 20 123 20 113 0 157 -6 157 -20 0 -4 23 -32 50 -61 33 -35 48
-59 45 -70 -4 -11 6 -26 26 -43 25 -21 29 -29 19 -41 -15 -19 -3 -40 15 -25
10 8 14 0 19 -39 7 -50 24 -68 46 -48 10 10 11 6 6 -16 -5 -23 -1 -34 24 -58
16 -17 30 -37 30 -44 0 -8 12 -27 26 -42 36 -39 60 -86 45 -91 -16 -5 -14 -32
3 -32 8 0 31 -33 51 -72 21 -40 43 -76 50 -80 7 -4 16 -24 19 -43 4 -21 13
-35 21 -35 11 0 13 -8 8 -32 -3 -18 -10 -34 -15 -36 -4 -2 -8 -8 -8 -14 0 -6
9 -3 20 7 11 10 20 25 20 34 0 11 4 9 16 -7 9 -13 13 -30 10 -39 -4 -9 8 -35
29 -63 19 -26 35 -57 35 -69 0 -25 15 -28 24 -5 8 22 29 6 23 -18 -3 -11 0
-21 9 -25 8 -3 13 -12 10 -19 -8 -21 13 -28 33 -10 23 21 33 20 29 -1 -2 -10
4 -19 15 -21 19 -4 23 18 5 36 -11 11 -11 12 36 26 7 2 16 17 20 33 4 15 9
259 13 540 5 440 8 515 21 525 12 10 290 13 1323 13 1226 0 1310 2 1326 18 10
9 24 17 33 17 10 0 4 -9 -15 -25z m-3307 -733 c6 -18 -15 -14 -22 4 -4 10 -1
14 6 12 6 -2 14 -10 16 -16z m552 -862 c0 -5 -4 -10 -10 -10 -5 0 -10 5 -10
10 0 6 5 10 10 10 6 0 10 -4 10 -10z"/>
<path d="M6580 2189 c0 -11 5 -17 10 -14 6 3 10 13 10 21 0 8 -4 14 -10 14 -5
0 -10 -9 -10 -21z"/>
<path d="M5470 2160 c0 -5 5 -10 10 -10 6 0 10 5 10 10 0 6 -4 10 -10 10 -5 0
-10 -4 -10 -10z"/>
<path d="M5510 2110 c0 -5 5 -10 10 -10 6 0 10 5 10 10 0 6 -4 10 -10 10 -5 0
-10 -4 -10 -10z"/>
<path d="M5782 2064 c1 -9 9 -19 16 -22 9 -3 13 2 10 14 -1 9 -9 19 -16 22 -9
3 -13 -2 -10 -14z"/>
<path d="M5940 1899 c0 -11 5 -17 10 -14 6 3 10 13 10 21 0 8 -4 14 -10 14 -5
0 -10 -9 -10 -21z"/>
<path d="M5900 1844 c0 -8 5 -12 10 -9 6 4 8 11 5 16 -9 14 -15 11 -15 -7z"/>
<path d="M5860 1822 c0 -6 5 -14 10 -17 6 -3 10 -21 10 -38 0 -21 3 -27 9 -19
11 17 2 58 -15 73 -9 8 -14 8 -14 1z"/>
<path d="M6070 1585 c0 -8 5 -15 10 -15 6 0 10 7 10 15 0 8 -4 15 -10 15 -5 0
-10 -7 -10 -15z"/>
<path d="M9509 2540 l-30 -29 2 -218 1 -218 -57 0 c-47 0 -60 -4 -76 -24 -14
-17 -19 -39 -19 -87 0 -35 5 -75 12 -89 12 -27 28 -33 96 -37 l44 -3 -1 -340
c-1 -288 1 -348 15 -395 25 -83 50 -127 107 -183 72 -71 137 -97 275 -109 62
-6 132 -7 157 -3 36 5 48 12 60 35 9 18 15 56 15 102 -1 103 -14 119 -111 127
-45 4 -86 14 -106 25 -17 11 -40 38 -52 60 -19 39 -20 60 -21 361 l-2 320 136
5 c86 3 139 9 147 17 7 7 13 47 15 94 3 75 1 83 -22 106 -24 24 -28 25 -150
21 l-125 -3 -2 222 c-2 219 -2 222 -26 247 -24 25 -29 26 -139 26 -113 0 -114
0 -143 -30z m199 -71 c21 -8 22 -12 24 -171 1 -90 2 -171 1 -181 0 -12 6 -16
19 -11 12 3 18 0 18 -10 0 -8 -5 -18 -10 -21 -17 -10 -1 -25 28 -25 23 -1 25
-2 10 -11 -10 -5 -18 -14 -18 -19 0 -12 36 -13 43 -2 2 4 2 1 0 -7 -2 -8 2
-18 9 -23 7 -4 50 -8 96 -8 80 0 82 -1 82 -24 0 -23 -2 -24 -94 -28 -89 -3
-96 -5 -126 -33 -60 -58 -60 -60 -58 -408 2 -253 6 -319 16 -326 8 -5 19 -17
25 -28 40 -69 69 -101 108 -120 24 -12 58 -25 76 -28 17 -3 37 -12 43 -20 17
-21 0 -65 -34 -86 -37 -23 -53 -25 -36 -4 18 21 3 32 -22 16 -14 -9 -23 -10
-31 -2 -6 6 -23 11 -38 11 -15 0 -31 5 -35 11 -4 7 -20 9 -40 6 -30 -5 -37 -1
-67 34 -19 21 -40 39 -48 39 -8 0 -26 16 -41 34 -26 33 -35 56 -22 56 9 0 30
-23 36 -41 7 -19 45 -31 54 -18 3 5 -2 9 -10 9 -20 0 -66 50 -66 72 0 10 -4
18 -10 18 -5 0 -10 -7 -10 -15 0 -8 -4 -15 -10 -15 -13 0 -13 37 1 45 7 5 4
14 -8 27 -15 17 -16 21 -3 31 13 10 15 52 12 280 -2 168 1 267 7 267 15 0 8
42 -13 73 -10 15 -25 27 -32 27 -8 0 -14 5 -14 10 0 6 7 10 15 10 24 0 17 15
-12 30 -67 34 -78 62 -43 107 11 14 20 33 20 42 1 13 3 13 15 -3 11 -15 16
-16 19 -5 3 8 5 21 4 29 -1 8 0 27 0 43 2 24 4 26 22 15 15 -10 22 -10 32 0
10 10 8 14 -10 18 -13 4 -22 14 -22 25 0 11 5 19 11 19 7 0 10 43 9 133 -3
194 -9 175 53 169 28 -3 62 -9 75 -13z m-268 -519 c0 -11 -4 -20 -10 -20 -5 0
-10 9 -10 20 0 11 5 20 10 20 6 0 10 -9 10 -20z m112 -185 c-2 -14 -6 -25 -8
-25 -2 0 -4 11 -4 25 0 14 4 25 9 25 4 0 6 -11 3 -25z"/>
<path d="M9560 2080 c0 -5 7 -10 15 -10 8 0 15 5 15 10 0 6 -7 10 -15 10 -8 0
-15 -4 -15 -10z"/>
<path d="M9575 1850 c-3 -5 1 -10 10 -10 9 0 13 5 10 10 -3 6 -8 10 -10 10 -2
0 -7 -4 -10 -10z"/>
<path d="M9740 944 c0 -8 5 -12 10 -9 6 4 8 11 5 16 -9 14 -15 11 -15 -7z"/>
<path d="M10255 2558 c-11 -6 -25 -19 -32 -27 -10 -12 -12 -209 -13 -844 l0
-828 24 -24 c30 -30 78 -39 176 -32 83 5 114 16 130 47 15 28 14 1640 -1 1673
-6 14 -22 30 -36 36 -32 15 -222 14 -248 -1z m165 -84 c7 -19 15 -24 29 -19
13 4 20 0 22 -12 2 -10 3 -359 1 -776 -2 -677 -4 -758 -18 -753 -12 4 -14 1
-9 -14 8 -26 -3 -26 -25 0 -11 13 -21 17 -25 10 -3 -5 -1 -10 4 -10 20 0 11
-18 -11 -23 -14 -4 -26 0 -34 11 -10 14 -15 15 -25 4 -16 -15 -29 -16 -29 -2
0 6 7 10 16 10 13 0 14 3 6 13 -8 9 -11 239 -12 772 0 693 1 760 16 777 10 10
27 18 40 18 13 0 26 5 29 10 10 15 15 12 25 -16z"/>
<path d="M10430 2351 c0 -6 5 -13 10 -16 6 -3 10 1 10 9 0 9 -4 16 -10 16 -5
0 -10 -4 -10 -9z"/>
<path d="M1852 2397 c-18 -21 -24 -64 -12 -86 6 -12 20 -21 32 -21 12 0 36 11
55 26 57 43 38 94 -35 94 -16 0 -34 -6 -40 -13z"/>
<path d="M730 2139 c-125 -12 -267 -47 -341 -84 -65 -33 -106 -70 -112 -101
-2 -15 2 -43 10 -62 12 -29 13 -44 4 -73 -24 -79 -12 -126 52 -216 28 -40 29
-44 18 -87 -16 -64 -14 -108 8 -158 24 -54 55 -96 132 -175 39 -40 59 -68 55
-78 -3 -8 -13 -15 -22 -15 -25 0 -322 -127 -382 -163 -95 -57 -125 -131 -120
-293 l3 -89 35 3 c57 5 64 19 62 122 -2 73 2 98 17 129 11 21 31 45 45 54 22
15 406 181 529 228 61 24 119 24 185 -1 79 -30 184 -98 246 -158 l55 -54 35
27 c23 18 33 32 28 40 -4 7 -41 41 -82 74 -148 121 -292 188 -380 177 -25 -3
-72 -9 -106 -12 l-61 -6 -69 77 c-100 111 -124 150 -124 202 0 23 4 43 8 43 4
0 26 -13 48 -29 40 -30 78 -46 173 -76 34 -10 57 -13 63 -7 14 14 -1 72 -20
78 -10 3 -55 24 -101 47 -88 43 -190 127 -217 178 -14 28 -19 100 -8 112 3 3
25 -9 49 -27 56 -43 167 -87 235 -93 45 -4 71 1 139 27 73 26 93 30 140 24 64
-7 191 -45 270 -80 29 -13 64 -24 77 -24 24 0 57 37 47 53 -9 14 -156 80 -245
110 -43 15 -105 32 -138 39 -58 12 -65 11 -138 -16 -107 -40 -156 -43 -234
-16 -66 24 -122 51 -149 72 -8 7 -24 26 -34 41 -15 24 -16 32 -5 51 13 26 40
41 110 63 56 18 194 43 235 43 25 0 34 7 49 35 12 21 16 39 10 43 -5 5 -43 5
-84 1z"/>
<path d="M2201 2094 c-12 -20 -20 -39 -17 -41 2 -3 97 -5 210 -6 163 -2 206 1
206 11 0 7 -7 26 -15 42 l-16 30 -173 0 -174 0 -21 -36z"/>
<path d="M7410 2120 c-230 -22 -398 -131 -508 -330 -28 -50 -62 -164 -73 -247
-10 -66 -10 -105 0 -172 23 -174 79 -290 196 -407 61 -61 99 -89 155 -116 106
-51 188 -69 295 -67 110 2 255 37 340 82 80 42 184 146 218 220 15 32 27 73
27 92 0 53 -28 62 -178 55 l-123 -5 -49 -56 c-66 -76 -127 -102 -235 -103 -63
0 -91 5 -133 23 -32 15 -70 43 -97 73 -44 49 -79 130 -73 168 3 21 4 21 438
21 400 -1 437 1 456 17 37 30 45 75 33 176 -13 109 -45 212 -92 292 -37 62
-117 147 -177 187 -56 38 -160 75 -255 92 -48 8 -88 14 -89 14 0 -1 -35 -5
-76 -9z m174 -91 c14 -17 24 -20 52 -15 28 6 33 4 28 -9 -5 -11 1 -15 22 -16
38 -1 126 -50 139 -77 10 -23 35 -30 35 -11 0 6 7 3 16 -5 8 -9 12 -20 9 -26
-3 -6 9 -29 28 -53 18 -23 44 -75 57 -117 14 -41 28 -78 33 -81 5 -4 9 -26 10
-50 0 -24 5 -50 10 -57 5 -7 6 -16 2 -20 -4 -4 -10 -1 -12 6 -6 17 -23 15 -23
-3 0 -8 5 -15 10 -15 6 0 10 -6 10 -14 0 -13 -59 -15 -402 -16 -249 0 -406 -4
-412 -10 -6 -6 -16 -10 -24 -10 -20 0 -57 -50 -58 -78 -1 -13 -6 -27 -12 -31
-12 -7 -5 -51 8 -51 4 0 5 -10 3 -23 -6 -29 45 -118 75 -132 12 -5 22 -13 22
-17 0 -10 28 -38 70 -70 60 -44 190 -60 302 -37 34 7 72 25 106 50 28 22 52
45 52 51 0 7 6 4 13 -7 10 -13 16 -15 21 -6 5 7 6 15 3 18 -3 3 2 13 11 22 12
12 35 16 82 16 63 0 65 -1 62 -25 -2 -14 -3 -42 -4 -62 -1 -33 -2 -35 -19 -25
-10 6 -19 9 -21 7 -2 -3 -11 -18 -20 -35 -9 -16 -25 -30 -35 -30 -17 0 -73
-22 -116 -46 -10 -5 -22 -7 -27 -4 -6 4 -10 -1 -10 -10 0 -14 -7 -15 -45 -9
-27 4 -45 2 -45 -3 0 -11 -44 -33 -65 -33 -8 0 -15 5 -15 10 0 6 8 10 17 10
13 0 14 3 5 12 -9 9 -16 8 -30 -5 -20 -18 -102 -24 -102 -7 0 14 -38 12 -43
-2 -3 -9 -24 -3 -73 22 -38 19 -80 35 -93 35 -25 1 -81 56 -81 80 0 8 -7 15
-15 15 -8 0 -15 7 -15 15 0 17 -16 20 -25 5 -3 -5 -11 -10 -18 -10 -8 0 -8 3
1 12 16 16 15 28 -2 28 -8 0 -18 9 -21 20 -3 11 -12 20 -20 20 -8 0 -15 18
-20 47 -4 26 -13 56 -21 67 -8 11 -14 30 -14 43 0 12 -4 25 -10 28 -6 4 -10
63 -10 144 0 92 5 154 15 187 11 37 12 50 2 56 -9 6 -9 10 1 20 9 9 12 9 12
-5 0 -9 4 -17 8 -17 17 0 21 13 11 32 -14 26 -3 35 21 20 16 -10 20 -10 20 2
0 8 -4 18 -10 21 -18 11 -10 35 15 45 25 9 28 16 27 55 -1 17 0 17 4 3 7 -22
34 -24 34 -3 0 9 9 15 22 15 17 0 19 3 10 12 -8 8 -15 8 -27 -2 -8 -7 -18 -10
-21 -7 -10 10 6 27 25 27 10 0 28 11 41 25 24 25 50 33 50 15 0 -18 17 -11 23
9 3 13 23 25 63 37 33 11 61 22 62 26 5 12 30 9 34 -3 3 -8 9 -6 20 4 11 12
29 15 72 12 33 -3 56 -1 56 5 0 19 55 10 74 -11z m51 -1159 c-3 -5 -11 -10
-16 -10 -6 0 -7 5 -4 10 3 6 11 10 16 10 6 0 7 -4 4 -10z"/>
<path d="M7393 1983 c15 -2 37 -2 50 0 12 2 0 4 -28 4 -27 0 -38 -2 -22 -4z"/>
<path d="M7489 1953 c-1 -5 -1 -11 0 -15 0 -5 -8 -8 -20 -8 -11 0 -18 3 -16 8
3 4 -19 8 -49 9 -31 1 -54 -2 -54 -8 0 -6 -19 -19 -43 -29 -54 -24 -97 -57
-97 -75 0 -7 -10 -15 -22 -17 -14 -2 -29 -16 -39 -37 -8 -18 -27 -42 -40 -52
-21 -17 -22 -20 -8 -29 11 -6 14 -19 11 -40 -2 -16 -8 -33 -13 -36 -16 -9 -10
-22 14 -30 23 -7 67 -44 67 -56 0 -16 -26 -7 -38 12 -14 24 -32 26 -32 5 0
-15 33 -34 75 -43 11 -3 130 -7 263 -9 206 -3 251 -2 293 12 47 16 66 35 34
35 -8 0 -15 5 -15 11 0 6 15 9 37 7 40 -3 57 16 22 25 -22 6 -18 27 7 27 9 0
14 10 14 29 0 17 -4 33 -10 36 -5 3 -10 16 -10 28 0 12 -11 34 -25 49 -14 15
-25 30 -25 34 0 4 8 13 18 20 16 13 16 13 0 14 -10 0 -18 -4 -18 -10 0 -21
-23 -8 -63 35 -28 29 -51 45 -67 45 -14 1 -36 7 -50 15 -14 8 -37 14 -52 15
-18 0 -28 5 -28 15 0 15 -19 22 -21 8z m124 -127 c62 -30 122 -103 143 -172 8
-26 14 -50 14 -53 0 -10 -593 -2 -602 7 -13 13 38 121 75 160 31 33 87 67 137
83 14 5 60 7 103 5 58 -3 92 -11 130 -30z"/>
<path d="M7140 1911 c0 -5 7 -11 15 -15 9 -3 15 0 15 9 0 8 -7 15 -15 15 -8 0
-15 -4 -15 -9z"/>
<path d="M7058 1695 c-8 -8 3 -55 13 -55 16 0 20 21 6 40 -8 11 -16 18 -19 15z"/>
<path d="M7067 1343 c-13 -13 -7 -32 8 -27 8 4 15 12 15 20 0 15 -12 19 -23 7z"/>
<path d="M7082 1240 c0 -14 2 -19 5 -12 2 6 2 18 0 25 -3 6 -5 1 -5 -13z"/>
<path d="M7120 1050 c0 -5 7 -10 15 -10 8 0 15 5 15 10 0 6 -7 10 -15 10 -8 0
-15 -4 -15 -10z"/>
<path d="M7830 1010 c0 -5 5 -10 10 -10 6 0 10 5 10 10 0 6 -4 10 -10 10 -5 0
-10 -4 -10 -10z"/>
<path d="M7140 1006 c0 -2 7 -9 15 -16 12 -10 15 -10 15 4 0 9 -7 16 -15 16
-8 0 -15 -2 -15 -4z"/>
<path d="M7180 970 c0 -5 5 -10 10 -10 6 0 10 5 10 10 0 6 -4 10 -10 10 -5 0
-10 -4 -10 -10z"/>
<path d="M8630 2114 c-52 -7 -108 -17 -125 -22 -114 -36 -223 -120 -265 -206
-27 -57 -43 -150 -35 -205 9 -63 40 -129 78 -170 39 -40 116 -91 175 -114 24
-10 131 -40 238 -67 108 -28 208 -57 224 -65 31 -16 60 -56 60 -82 0 -37 -40
-84 -93 -108 -39 -19 -69 -25 -123 -25 -80 0 -163 21 -207 53 -16 12 -40 41
-54 65 -14 24 -36 47 -48 52 -12 5 -69 10 -126 11 -114 3 -145 -6 -155 -46 -9
-36 13 -117 46 -168 40 -64 136 -139 221 -175 114 -47 224 -66 349 -59 244 13
421 108 492 264 24 53 28 75 28 149 0 75 -4 94 -30 149 -37 76 -101 137 -185
175 -33 15 -134 46 -225 69 -260 68 -272 72 -302 102 -39 38 -39 90 0 129 48
48 188 65 290 35 39 -12 60 -26 84 -57 75 -93 64 -88 192 -88 112 0 116 1 132
25 12 19 15 36 10 66 -23 146 -184 273 -392 307 -109 19 -159 20 -254 6z m205
-73 c3 -5 -9 -12 -27 -14 -20 -2 -11 -4 25 -5 36 -1 59 -7 63 -15 3 -8 18 -11
45 -9 25 3 46 -1 57 -10 9 -8 34 -22 55 -32 20 -9 37 -22 37 -28 0 -5 7 -7 16
-4 10 4 24 -2 36 -16 11 -13 15 -24 9 -26 -20 -7 -11 -39 14 -50 14 -6 25 -18
25 -27 0 -19 -14 -19 -31 1 -8 9 -21 13 -35 10 -16 -4 -26 0 -33 11 -9 16 -10
16 -11 -4 0 -18 6 -23 24 -23 42 0 38 -18 -4 -22 -34 -3 -40 -1 -40 15 0 10
-9 21 -20 24 -11 3 -20 12 -20 20 0 10 -6 12 -22 8 -17 -6 -20 -4 -15 9 7 18
-25 56 -47 56 -8 0 -34 11 -57 25 -24 14 -54 25 -66 25 -12 0 -23 5 -25 12 -4
10 -14 9 -49 -2 -24 -7 -48 -17 -53 -22 -6 -4 -30 -8 -54 -8 -39 0 -47 -5 -85
-46 -23 -26 -41 -54 -40 -63 1 -9 0 -11 -3 -3 -8 17 -34 15 -34 -3 0 -8 5 -15
10 -15 6 0 10 -7 10 -16 0 -10 -6 -14 -15 -10 -12 4 -15 -3 -15 -29 0 -18 5
-37 11 -40 6 -4 8 -13 5 -20 -4 -12 68 -87 96 -98 10 -4 8 -10 -6 -21 -19 -16
-19 -16 3 -16 12 0 31 5 41 10 13 7 21 7 25 0 3 -5 22 -10 42 -10 19 0 47 -9
62 -19 24 -17 177 -61 213 -61 7 0 30 -8 51 -19 20 -10 52 -22 71 -25 40 -8
95 -54 77 -65 -6 -4 -9 -15 -5 -25 6 -16 8 -16 25 0 17 15 19 16 25 0 3 -9 4
-26 1 -38 -4 -12 -1 -28 5 -35 12 -15 12 -167 -1 -192 -5 -9 -6 -22 -4 -28 3
-7 -10 -27 -27 -45 -23 -22 -34 -28 -39 -19 -6 9 -13 5 -24 -12 -18 -27 -69
-57 -98 -57 -10 0 -25 -7 -34 -16 -15 -16 -27 -15 -85 2 -22 7 -23 6 -12 -8
18 -22 3 -29 -55 -27 -27 1 -81 -1 -120 -5 -74 -7 -91 -2 -50 13 16 7 5 9 -38
8 -44 -2 -72 4 -104 20 -33 17 -48 20 -58 11 -9 -7 -13 -7 -13 0 0 17 -72 92
-82 86 -14 -9 -40 17 -34 33 3 8 2 12 -3 9 -5 -3 -21 0 -35 8 l-27 13 23 7
c21 6 22 7 6 20 -20 15 -24 41 -8 51 6 3 13 -1 16 -9 3 -9 10 -16 15 -16 6 0
5 9 -1 21 -18 32 -4 34 26 4 23 -23 31 -26 46 -16 23 14 38 6 38 -19 0 -15 11
-23 46 -31 28 -7 43 -16 40 -24 -5 -14 70 -65 96 -65 9 0 21 -7 26 -17 9 -15
12 -15 51 0 44 18 122 24 105 8 -5 -5 -22 -11 -39 -14 -27 -4 -26 -4 8 -6 23
0 45 5 53 14 17 17 74 21 74 5 0 -17 29 -11 39 9 6 10 24 24 41 31 22 9 29 18
26 34 -2 11 -1 15 1 9 3 -7 11 -13 20 -13 11 0 14 7 10 26 -2 14 4 43 14 64
23 47 24 69 4 76 -8 4 -15 14 -15 24 0 10 -7 23 -15 30 -18 15 -20 37 -2 43 6
2 9 8 5 12 -4 4 -15 2 -24 -5 -9 -8 -18 -10 -22 -4 -4 5 -19 15 -35 22 -15 6
-26 17 -25 23 2 6 -3 14 -9 16 -7 3 -13 -3 -13 -12 0 -23 -24 -13 -28 12 -2
15 -9 19 -26 16 -13 -3 -33 0 -45 7 -12 6 -47 15 -78 20 -31 5 -60 15 -64 22
-6 9 -11 9 -24 -2 -13 -11 -19 -10 -38 7 -29 27 -83 39 -102 23 -10 -8 -15 -9
-15 -2 0 6 10 18 22 26 25 17 8 22 -22 6 -14 -8 -21 -4 -35 17 -16 24 -19 25
-30 9 -9 -12 -15 -14 -20 -6 -4 6 -4 14 -1 17 3 3 -12 27 -32 52 -69 83 -70
86 -59 144 6 28 18 63 28 76 12 14 17 32 13 46 -5 20 -2 23 23 22 15 -1 28 3
28 8 0 6 -8 10 -17 9 -10 0 -18 5 -18 13 0 8 12 13 30 13 17 0 30 4 30 9 0 4
11 20 25 35 18 19 34 26 63 26 21 0 42 3 46 7 14 15 82 32 103 27 13 -4 23 -2
23 4 0 12 36 18 117 20 28 1 54 -2 58 -7z m-45 -91 c0 -5 -9 -10 -20 -10 -11
0 -20 5 -20 10 0 6 9 10 20 10 11 0 20 -4 20 -10z m-470 -360 c0 -5 -4 -10
-10 -10 -5 0 -10 5 -10 10 0 6 5 10 10 10 6 0 10 -4 10 -10z m170 -490 c0 -5
-4 -10 -10 -10 -5 0 -10 5 -10 10 0 6 5 10 10 10 6 0 10 -4 10 -10z m460 -230
c0 -5 -9 -10 -21 -10 -11 0 -17 5 -14 10 3 6 13 10 21 10 8 0 14 -4 14 -10z"/>
<path d="M8710 2010 c-12 -8 -9 -10 13 -10 15 0 27 5 27 10 0 13 -20 13 -40 0z"/>
<path d="M8460 1962 c0 -14 28 -47 35 -41 2 3 -5 15 -15 29 -11 14 -20 19 -20
12z"/>
<path d="M8425 1910 c-3 -5 1 -10 10 -10 9 0 13 5 10 10 -3 6 -8 10 -10 10 -2
0 -7 -4 -10 -10z"/>
<path d="M8460 1864 c0 -8 5 -12 10 -9 6 4 8 11 5 16 -9 14 -15 11 -15 -7z"/>
<path d="M8300 1685 c0 -8 5 -15 10 -15 6 0 10 7 10 15 0 8 -4 15 -10 15 -5 0
-10 -7 -10 -15z"/>
<path d="M8612 1539 c2 -6 8 -10 13 -10 5 0 11 4 13 10 2 6 -4 11 -13 11 -9 0
-15 -5 -13 -11z"/>
<path d="M8580 1495 c0 -8 7 -15 16 -15 14 0 14 3 4 15 -7 8 -14 15 -16 15 -2
0 -4 -7 -4 -15z"/>
<path d="M9078 1403 c6 -2 18 -2 25 0 6 3 1 5 -13 5 -14 0 -19 -2 -12 -5z"/>
<path d="M8950 1375 c-7 -8 -8 -15 -2 -15 5 0 15 7 22 15 7 8 8 15 2 15 -5 0
-15 -7 -22 -15z"/>
<path d="M9040 1276 c0 -32 10 -56 22 -56 6 0 6 6 -1 14 -7 8 -9 25 -5 40 4
16 2 26 -5 26 -6 0 -11 -11 -11 -24z"/>
<path d="M9110 1266 c0 -9 5 -16 10 -16 6 0 10 4 10 9 0 6 -4 13 -10 16 -5 3
-10 -1 -10 -9z"/>
<path d="M9032 1109 c2 -7 10 -15 17 -17 8 -3 12 1 9 9 -2 7 -10 15 -17 17 -8
3 -12 -1 -9 -9z"/>
<path d="M8320 1100 c0 -5 5 -10 10 -10 6 0 10 5 10 10 0 6 -4 10 -10 10 -5 0
-10 -4 -10 -10z"/>
<path d="M8460 1050 c0 -5 5 -10 10 -10 6 0 10 5 10 10 0 6 -4 10 -10 10 -5 0
-10 -4 -10 -10z"/>
<path d="M9145 1039 c-4 -11 -4 -23 -1 -26 3 -4 6 1 6 10 0 10 7 17 15 17 8 0
15 5 15 10 0 19 -29 10 -35 -11z"/>
<path d="M8440 995 c0 -8 4 -15 10 -15 5 0 7 7 4 15 -4 8 -8 15 -10 15 -2 0
-4 -7 -4 -15z"/>
<path d="M8820 960 c0 -5 9 -10 19 -10 11 0 23 5 26 10 4 6 -5 10 -19 10 -14
0 -26 -4 -26 -10z"/>
<path d="M8930 935 c0 -8 7 -15 15 -15 8 0 15 7 15 15 0 8 -7 15 -15 15 -8 0
-15 -7 -15 -15z"/>
<path d="M8708 923 c6 -2 18 -2 25 0 6 3 1 5 -13 5 -14 0 -19 -2 -12 -5z"/>
<path d="M11280 2123 c-91 -7 -197 -36 -272 -75 -57 -29 -96 -60 -147 -114
-78 -81 -125 -165 -161 -284 -19 -60 -23 -98 -23 -190 0 -136 17 -209 75 -329
32 -66 57 -101 121 -166 62 -62 100 -90 157 -117 108 -52 210 -72 329 -65 115
7 191 27 291 75 54 25 94 54 140 101 70 71 124 165 122 214 -1 33 -37 70 -60
62 -8 -3 -63 -5 -124 -5 l-109 0 -62 -64 c-34 -35 -80 -72 -102 -81 -27 -12
-68 -18 -125 -19 -74 -1 -92 3 -143 27 -34 17 -72 47 -94 72 -37 45 -86 149
-81 173 3 12 78 14 440 13 389 -2 440 0 462 14 36 24 48 72 41 157 -19 202
-106 376 -237 475 -64 48 -104 70 -167 89 -49 15 -199 45 -216 42 -5 -1 -30
-3 -55 -5z m-44 -88 c-6 -17 9 -21 19 -5 3 6 21 10 40 10 19 0 37 -4 40 -10
10 -16 25 -12 25 8 1 16 1 16 14 0 11 -15 18 -16 43 -8 22 8 38 7 65 -5 20 -8
39 -19 43 -25 3 -5 14 -10 24 -10 29 0 73 -27 104 -62 21 -24 30 -29 36 -19 7
10 14 8 32 -10 14 -14 18 -24 11 -27 -16 -5 -15 -22 1 -22 14 0 74 -88 83
-124 3 -13 12 -27 20 -30 12 -5 12 -9 2 -26 -11 -18 -10 -23 5 -31 9 -6 15
-15 11 -20 -3 -5 0 -16 6 -24 6 -8 9 -23 5 -35 -4 -12 0 -26 9 -36 21 -20 20
-35 -1 -27 -14 5 -15 1 -9 -36 l6 -42 -25 17 c-22 14 -67 16 -400 15 -207 -1
-386 -6 -398 -11 -30 -13 -85 -60 -69 -60 6 0 12 -5 12 -11 0 -6 -6 -9 -12 -7
-7 3 -21 -4 -32 -14 -16 -15 -18 -21 -8 -43 7 -14 12 -35 12 -46 0 -32 61
-130 87 -140 21 -8 23 -12 13 -24 -10 -12 -9 -15 9 -15 11 0 21 -6 21 -14 0
-7 8 -16 18 -19 9 -4 37 -19 62 -34 43 -26 51 -28 165 -28 106 0 124 3 158 23
21 12 45 22 53 22 11 0 14 6 9 23 -6 17 -5 20 5 10 10 -9 22 -2 56 35 36 39
45 44 54 32 8 -12 12 -12 18 -2 7 10 23 11 60 6 40 -5 52 -11 52 -24 0 -9 -9
-25 -20 -35 -11 -10 -20 -24 -20 -32 0 -7 -11 -19 -25 -25 -17 -8 -22 -15 -15
-23 6 -7 3 -17 -11 -29 -12 -9 -24 -14 -27 -10 -4 4 -1 9 6 11 6 3 12 12 12
21 0 13 -6 10 -24 -10 -13 -16 -27 -28 -32 -28 -16 0 -89 -41 -101 -58 -8 -9
-13 -11 -13 -4 0 15 -46 16 -56 1 -3 -6 -18 -9 -31 -6 -14 3 -37 -2 -52 -9
-36 -19 -64 -18 -140 8 -47 16 -66 19 -69 10 -5 -17 -42 -15 -42 3 0 8 -8 15
-18 15 -10 0 -28 7 -41 16 -19 14 -25 14 -32 3 -4 -7 -12 -10 -16 -5 -4 5 -2
11 5 13 14 5 16 33 2 33 -5 0 -10 -4 -10 -10 0 -5 -7 -10 -15 -10 -8 0 -15 7
-15 15 0 8 5 15 10 15 6 0 10 9 10 20 0 18 -2 17 -25 -5 -22 -23 -45 -33 -45
-19 0 3 5 14 11 26 14 25 6 33 -20 19 -14 -8 -22 -8 -27 1 -4 6 -2 14 4 16 7
2 4 14 -10 33 -15 20 -27 27 -40 23 -19 -6 -25 10 -8 21 16 10 12 24 -15 47
-14 12 -25 31 -25 42 0 12 -8 35 -17 51 -14 25 -17 60 -17 200 -1 148 1 174
17 198 10 15 15 32 11 38 -4 6 -3 14 2 18 17 12 54 70 54 85 0 8 6 17 13 20
10 5 10 7 0 12 -20 9 -15 26 5 20 9 -3 24 -1 32 4 13 9 13 11 0 20 -12 7 -12
12 -3 21 9 9 15 9 27 0 19 -16 30 2 16 29 -9 17 -8 19 7 13 10 -3 26 -13 36
-21 19 -16 24 -3 6 15 -7 7 -8 20 -5 30 7 17 8 17 20 1 16 -21 26 -23 26 -5 0
8 10 18 23 24 12 5 49 23 82 40 68 35 100 41 91 18z m454 -95 c0 -5 -4 -10
-10 -10 -5 0 -10 5 -10 10 0 6 5 10 10 10 6 0 10 -4 10 -10z m-850 -149 c0 -6
-4 -13 -10 -16 -5 -3 -10 1 -10 9 0 9 5 16 10 16 6 0 10 -4 10 -9z m665 -921
c3 -5 -3 -10 -14 -10 -12 0 -21 5 -21 10 0 6 6 10 14 10 8 0 18 -4 21 -10z"/>
<path d="M11438 2003 c6 -2 18 -2 25 0 6 3 1 5 -13 5 -14 0 -19 -2 -12 -5z"/>
<path d="M11490 1975 c0 -8 4 -15 9 -15 5 0 11 7 15 15 3 9 0 15 -9 15 -8 0
-15 -7 -15 -15z"/>
<path d="M11375 1960 c-3 -5 -28 -10 -56 -10 -37 0 -49 -4 -49 -15 0 -12 -13
-15 -55 -15 -42 0 -65 -6 -95 -25 -22 -14 -40 -32 -40 -40 0 -18 -12 -19 -28
-3 -6 6 -15 8 -19 3 -5 -4 -2 -10 5 -12 6 -3 12 -11 12 -20 0 -10 -6 -12 -20
-8 -14 5 -20 2 -20 -10 0 -8 -11 -33 -24 -54 -15 -24 -23 -47 -19 -60 6 -24
-12 -29 -21 -6 -7 19 -26 20 -26 0 0 -8 9 -19 20 -25 15 -8 20 -21 20 -53 0
-31 3 -38 10 -27 9 13 13 11 30 -10 11 -14 20 -31 20 -38 0 -7 12 -17 26 -22
28 -11 502 -14 553 -4 31 7 43 24 16 24 -27 0 -16 20 15 26 16 4 35 13 42 21
15 18 13 134 -2 162 -14 26 -69 81 -82 81 -6 0 -7 7 -4 15 4 11 -3 19 -19 25
-14 5 -25 14 -25 20 0 5 -11 10 -23 10 -16 0 -28 9 -35 25 -11 24 -42 35 -42
15 0 -5 -13 -10 -30 -10 -16 0 -30 5 -30 11 0 6 7 8 16 5 23 -9 37 3 23 20
-13 16 -35 18 -44 4z m89 -135 c64 -33 105 -78 136 -149 37 -87 59 -81 -282
-79 -224 1 -303 4 -306 13 -8 23 60 140 102 176 63 55 117 73 211 71 67 -2 90
-7 139 -32z"/>
<path d="M11640 1820 c0 -19 3 -21 12 -12 9 9 9 15 0 24 -9 9 -12 7 -12 -12z"/>
<path d="M10912 1638 c-15 -15 -16 -38 -2 -38 12 0 23 25 18 40 -2 7 -7 7 -16
-2z"/>
<path d="M10960 1545 c0 -8 7 -15 15 -15 8 0 15 4 15 9 0 5 -7 11 -15 15 -9 3
-15 0 -15 -9z"/>
<path d="M11830 1520 c0 -5 5 -10 10 -10 6 0 10 5 10 10 0 6 -4 10 -10 10 -5
0 -10 -4 -10 -10z"/>
<path d="M10870 1225 c0 -8 5 -15 10 -15 6 0 10 7 10 15 0 8 -4 15 -10 15 -5
0 -10 -7 -10 -15z"/>
<path d="M11635 1110 c-4 -6 -2 -17 4 -23 15 -15 25 -2 13 19 -7 12 -11 13
-17 4z"/>
<path d="M3563 1994 c-7 -19 103 -185 203 -304 105 -126 240 -251 402 -373 61
-46 92 -58 92 -36 0 6 -59 68 -131 137 -141 136 -388 401 -483 520 -32 39 -62
72 -67 72 -5 0 -12 -7 -16 -16z"/>
<path d="M2710 1743 c-90 -35 -210 -40 -389 -18 -119 15 -153 15 -223 5 -80
-11 -208 -59 -208 -78 0 -5 11 -21 25 -36 19 -20 29 -25 38 -17 7 5 33 15 57
21 94 24 165 29 260 17 52 -6 158 -11 235 -11 133 0 145 2 230 33 50 18 96 39
104 47 13 12 12 17 -9 39 -13 14 -31 24 -39 24 -9 -1 -45 -13 -81 -26z"/>
<path d="M1623 1670 c-129 -66 -218 -132 -248 -184 -42 -72 -30 -128 37 -166
37 -21 50 -22 137 -17 103 5 177 28 345 104 92 41 105 60 61 89 -23 15 -28 14
-102 -21 -105 -49 -110 -52 -173 -72 -71 -23 -216 -25 -230 -3 -19 29 -9 54
36 96 42 39 129 88 257 143 33 14 46 24 41 33 -18 29 -40 48 -54 47 -8 -1 -56
-23 -107 -49z"/>
<path d="M2856 1574 c-164 -209 -273 -313 -316 -299 -33 11 -50 57 -50 138 0
51 -4 76 -12 79 -14 5 -149 -21 -241 -46 -60 -16 -141 -49 -259 -106 -54 -25
-68 -37 -68 -54 0 -12 6 -31 14 -42 13 -16 18 -17 33 -6 10 7 59 33 110 58 94
46 289 102 317 91 11 -4 16 -19 16 -44 1 -75 55 -154 117 -170 43 -10 117 34
201 121 43 45 116 128 162 186 46 58 88 107 92 108 16 7 7 29 -21 50 l-29 21
-66 -85z"/>
<path d="M895 1614 c-92 -23 -139 -41 -149 -57 -8 -13 -6 -22 10 -38 l21 -21
72 20 c103 29 129 20 185 -66 36 -55 41 -69 31 -80 -9 -10 -48 -15 -131 -17
-73 -2 -120 -7 -122 -14 -2 -6 6 -24 18 -41 20 -28 25 -30 88 -30 37 0 96 7
132 15 l65 14 23 -27 c60 -68 80 -87 127 -117 59 -38 131 -63 200 -71 65 -8
201 24 302 71 67 31 75 37 69 57 -3 13 -6 29 -6 36 0 18 -24 15 -63 -8 -19
-11 -67 -32 -108 -47 -58 -21 -92 -27 -159 -27 -74 0 -92 3 -144 29 -77 39
-144 115 -206 237 -28 53 -62 111 -76 128 -48 56 -103 73 -179 54z"/>
<path d="M3060 1472 c-91 -65 -207 -186 -283 -295 -75 -106 -108 -142 -157
-167 -56 -28 -211 -81 -221 -74 -5 3 -9 12 -9 20 0 28 -42 97 -88 146 -52 56
-107 88 -150 88 -32 0 -136 -32 -197 -60 -22 -11 -76 -35 -120 -55 -43 -20
-108 -52 -142 -71 l-63 -35 27 -34 27 -34 28 20 c36 26 246 121 326 148 34 12
80 21 104 21 37 0 47 -5 89 -50 44 -47 86 -116 76 -126 -6 -7 -172 -22 -285
-27 -72 -3 -97 -8 -113 -23 -12 -11 -19 -28 -17 -43 2 -15 8 -25 14 -24 7 1
68 5 135 8 257 13 484 57 612 121 62 31 79 35 123 31 27 -3 72 -1 100 4 60 11
175 67 227 109 31 27 37 38 37 71 0 22 -5 39 -11 39 -6 0 -32 -17 -58 -38 -67
-55 -114 -80 -183 -96 -60 -14 -88 -12 -88 5 0 5 28 48 62 96 80 114 219 251
286 282 29 14 52 30 52 37 0 6 -16 21 -36 33 -19 12 -36 21 -37 20 -1 0 -31
-22 -67 -47z"/>
<path d="M4595 1360 c4 -6 11 -8 16 -5 14 9 11 15 -7 15 -8 0 -12 -5 -9 -10z"/>
<path d="M3385 1288 c-51 -100 -116 -188 -205 -282 -119 -124 -249 -215 -377
-264 -67 -25 -74 -26 -438 -33 -203 -4 -383 -10 -400 -14 -16 -4 -59 -16 -93
-26 -35 -10 -92 -23 -127 -29 -50 -8 -76 -7 -127 6 -68 17 -148 56 -174 85
-14 16 -12 19 30 44 26 15 46 34 46 43 0 10 -8 27 -18 40 l-17 22 -145 -109
c-80 -61 -175 -135 -212 -165 -37 -30 -70 -51 -73 -46 -3 5 -3 32 1 59 9 66
-17 141 -63 186 -19 18 -58 45 -87 59 l-53 26 -48 -21 c-39 -17 -45 -23 -34
-34 8 -7 37 -20 66 -29 63 -21 127 -80 136 -126 4 -18 7 -60 7 -94 0 -45 -6
-72 -23 -101 -31 -54 -107 -92 -212 -105 -87 -11 -108 -25 -103 -70 3 -24 5
-25 68 -22 83 3 176 34 243 80 78 53 371 283 380 299 12 20 29 15 62 -18 40
-41 136 -86 221 -103 82 -17 136 -12 294 30 102 27 115 28 465 35 402 7 412 9
553 80 144 73 307 211 412 349 62 81 160 243 160 263 0 10 -61 57 -74 57 -2 0
-21 -33 -41 -72z"/>
<path d="M4782 980 c0 -14 2 -19 5 -12 2 6 2 18 0 25 -3 6 -5 1 -5 -13z"/>
<path d="M5565 750 c-3 -5 1 -10 9 -10 9 0 16 5 16 10 0 6 -4 10 -9 10 -6 0
-13 -4 -16 -10z"/>
<path d="M4610 121 c-7 -15 -7 -21 0 -21 12 0 25 28 17 36 -3 3 -10 -4 -17
-15z"/>
</g>
</svg>
