<?xml version="1.0" standalone="no"?>
<!DOCTYPE svg PUBLIC "-//W3C//DTD SVG 20010904//EN"
 "http://www.w3.org/TR/2001/REC-SVG-20010904/DTD/svg10.dtd">
<svg version="1.0" xmlns="http://www.w3.org/2000/svg"
 width="1200.000000pt" height="1200.000000pt" viewBox="0 0 1200.000000 1200.000000"
 preserveAspectRatio="xMidYMid meet">
<g transform="translate(0.000000,1200.000000) scale(0.100000,-0.100000)"
fill="#000000" stroke="none">
<path d="M7248 10159 c-79 -99 -159 -201 -178 -227 -35 -48 -109 -142 -226
-287 -258 -323 -314 -396 -314 -410 0 -9 6 -23 14 -31 12 -12 141 -14 863 -14
647 0 852 3 861 12 27 27 19 41 -115 208 -13 15 -322 411 -418 535 -30 39 -80
102 -110 140 -30 39 -86 112 -125 163 -46 59 -78 92 -90 92 -13 0 -67 -61
-162 -181z m182 81 c0 -5 -7 -10 -15 -10 -8 0 -15 5 -15 10 0 6 7 10 15 10 8
0 15 -4 15 -10z m29 -61 c11 -15 21 -33 21 -40 0 -6 11 -20 24 -30 13 -10 27
-30 30 -43 4 -17 11 -23 21 -20 8 4 15 1 15 -5 0 -6 -5 -11 -11 -11 -5 0 -7
-5 -3 -12 6 -9 9 -9 12 0 2 7 11 12 19 12 9 0 13 -6 9 -15 -3 -8 -1 -15 4 -15
6 0 10 -7 10 -16 0 -9 8 -23 18 -31 12 -10 14 -16 5 -19 -7 -3 -13 -10 -13
-15 0 -6 9 -5 21 1 11 7 23 9 25 7 3 -3 6 -19 6 -36 1 -17 5 -31 10 -31 4 0 8
5 8 10 0 6 5 10 11 10 7 0 8 -12 4 -32 -6 -26 -4 -30 5 -21 10 9 18 5 36 -17
13 -15 24 -32 24 -38 0 -15 53 -72 67 -72 16 0 17 -27 1 -32 -7 -3 -8 -10 -4
-17 7 -11 10 -11 17 0 6 11 12 9 28 -5 11 -10 23 -28 27 -40 4 -11 10 -23 13
-26 4 -3 22 -25 41 -50 19 -25 46 -57 59 -72 25 -29 43 -57 60 -95 6 -13 13
-23 17 -23 4 0 13 8 20 18 12 15 13 15 14 -9 0 -15 7 -29 15 -33 13 -5 12 -9
-5 -26 -21 -21 -50 -27 -50 -10 0 6 7 13 15 16 19 8 19 24 0 24 -19 0 -55 31
-55 47 0 7 -7 13 -15 13 -24 0 -17 -23 15 -50 34 -28 40 -60 11 -60 -10 0 -21
7 -25 15 -7 19 -20 19 -39 0 -13 -13 -104 -15 -657 -15 -354 -1 -645 2 -649 5
-3 4 3 13 13 21 16 11 17 17 8 26 -9 9 -12 9 -12 0 0 -6 -9 -16 -20 -22 -36
-19 -21 6 35 63 31 31 55 64 55 75 0 26 19 39 31 21 9 -14 16 -8 69 58 6 7 10
21 10 31 0 11 6 32 14 46 10 21 15 23 19 11 4 -8 13 -15 22 -15 17 0 20 16 4
26 -7 4 -8 9 0 17 7 7 15 6 26 -3 8 -7 19 -10 23 -6 4 4 -2 14 -12 22 -15 11
-17 16 -7 28 7 8 20 12 29 9 14 -5 15 -3 5 8 -7 7 -13 19 -13 27 0 10 7 13 21
9 19 -5 20 -4 4 19 -17 27 -14 30 15 12 23 -15 37 -4 21 16 -8 10 -9 16 -1 21
5 3 10 15 10 26 0 10 4 19 9 19 17 0 22 -19 12 -38 -14 -27 -2 -36 21 -15 24
22 23 54 -2 60 -24 6 -25 16 -5 33 12 10 15 10 15 -3 0 -8 12 -22 26 -32 19
-12 29 -14 37 -6 9 9 6 13 -11 17 -13 4 -22 14 -22 25 0 14 8 19 28 20 16 1
20 3 10 6 -10 2 -18 6 -18 9 0 2 7 12 15 22 39 44 102 129 108 145 8 21 27 23
27 2 0 -8 5 -15 10 -15 6 0 10 7 10 15 0 8 -4 15 -10 15 -5 0 -10 9 -10 20 0
11 7 20 15 20 8 0 15 -7 15 -15 0 -8 5 -15 10 -15 13 0 13 16 -2 40 -10 15 -9
22 6 38 10 12 30 20 51 20 24 0 38 -7 54 -29z m-629 -684 c-7 -8 -17 -15 -22
-15 -6 0 -5 7 2 15 7 8 17 15 22 15 6 0 5 -7 -2 -15z"/>
<path d="M7570 9951 c6 -12 15 -21 20 -21 18 0 11 19 -11 30 -19 11 -20 10 -9
-9z"/>
<path d="M7510 9952 c0 -5 9 -17 20 -27 11 -10 20 -13 20 -7 0 7 -4 12 -10 12
-5 0 -10 7 -10 15 0 8 -4 15 -10 15 -5 0 -10 -4 -10 -8z"/>
<path d="M7680 9794 c0 -8 5 -12 10 -9 6 4 8 11 5 16 -9 14 -15 11 -15 -7z"/>
<path d="M7711 9776 c-9 -10 -9 -16 -1 -21 16 -10 31 7 21 23 -6 10 -10 10
-20 -2z"/>
<path d="M7020 9654 c0 -8 5 -12 10 -9 6 4 8 11 5 16 -9 14 -15 11 -15 -7z"/>
<path d="M7855 9620 c-7 -12 2 -30 16 -30 12 0 12 27 0 35 -5 3 -12 1 -16 -5z"/>
<path d="M6855 9449 c-4 -6 -5 -13 -2 -16 7 -7 27 6 27 18 0 12 -17 12 -25 -2z"/>
<path d="M7995 9429 c-10 -15 3 -25 16 -12 7 7 7 13 1 17 -6 3 -14 1 -17 -5z"/>
<path d="M7990 9335 c0 -8 5 -15 10 -15 6 0 10 7 10 15 0 8 -4 15 -10 15 -5 0
-10 -7 -10 -15z"/>
<path d="M7900 9904 c0 -8 5 -12 10 -9 6 4 8 11 5 16 -9 14 -15 11 -15 -7z"/>
<path d="M6736 9711 c-4 -5 -2 -12 3 -15 5 -4 12 -2 15 3 4 5 2 12 -3 15 -5 4
-12 2 -15 -3z"/>
<path d="M5420 9038 c-10 -4 -21 -16 -25 -27 -5 -16 16 -48 88 -138 51 -65
148 -188 215 -273 67 -85 140 -177 162 -205 22 -27 71 -90 110 -140 39 -49 85
-108 103 -129 18 -21 34 -43 36 -48 5 -13 183 -129 251 -163 46 -23 72 -29
151 -33 148 -7 231 18 398 122 129 79 213 119 336 159 165 53 276 71 445 70
106 0 175 -6 257 -22 205 -39 407 -119 546 -215 38 -26 72 -46 77 -44 4 2 59
68 122 148 192 243 483 614 539 687 29 37 79 100 111 140 59 72 73 113 41 113
-10 0 -901 1 -1981 3 -1080 1 -1972 -1 -1982 -5z m1960 -88 c9 -15 644 -14
648 0 3 7 182 10 542 10 422 0 539 -3 543 -12 3 -10 7 -10 17 -1 10 9 18 9 34
1 15 -8 21 -8 24 1 6 17 42 13 42 -4 0 -8 -7 -15 -15 -15 -8 0 -15 -5 -15 -11
0 -6 -9 -8 -20 -4 -11 3 -20 4 -20 2 0 -3 6 -16 13 -29 7 -14 18 -23 25 -20 8
2 10 -2 6 -13 -5 -11 -14 -15 -29 -11 -14 4 -28 0 -35 -9 -15 -18 1 -20 18 -3
16 16 15 6 -2 -27 -8 -15 -17 -22 -21 -16 -9 16 -35 13 -35 -3 0 -8 7 -17 16
-20 16 -6 12 -20 -7 -22 -5 -1 -13 -2 -18 -3 -15 -2 -71 -61 -71 -75 0 -8 -5
-18 -10 -21 -6 -4 -8 -16 -4 -27 5 -17 3 -19 -18 -14 -12 3 -17 3 -10 0 21
-10 13 -26 -10 -19 -16 4 -19 4 -9 -3 14 -10 6 -36 -9 -27 -8 5 -70 -66 -70
-81 0 -5 -13 -22 -30 -37 -16 -16 -30 -35 -30 -43 0 -8 -7 -14 -15 -14 -8 0
-15 -6 -15 -14 0 -8 -10 -23 -23 -33 -13 -10 -27 -30 -30 -45 -5 -18 -12 -25
-21 -22 -8 3 -31 -11 -53 -32 -23 -23 -33 -39 -25 -41 20 -7 14 -44 -8 -50
-11 -3 -20 -14 -20 -24 0 -12 -5 -16 -15 -13 -9 4 -23 -4 -36 -20 -28 -36 -42
-33 -35 7 5 26 4 29 -6 16 -9 -14 -17 -15 -42 -7 -17 6 -42 21 -56 33 -25 22
-75 47 -120 60 -14 4 -38 13 -55 20 -72 30 -95 36 -117 31 -13 -3 -17 -3 -10
0 6 3 12 10 12 15 0 6 -21 7 -52 3 -48 -6 -51 -5 -34 8 18 14 18 16 -12 31
-23 11 -32 12 -32 3 0 -6 5 -17 12 -24 6 -6 9 -14 6 -18 -4 -3 -16 4 -27 15
-21 21 -43 25 -118 21 -34 -1 -43 2 -43 14 0 18 -6 19 -170 16 -83 -1 -122 -6
-138 -17 -14 -9 -34 -12 -48 -9 -27 7 -131 -20 -154 -39 -8 -7 -33 -16 -55
-20 -37 -6 -39 -5 -21 9 19 16 19 16 -3 16 -12 0 -32 -11 -45 -25 -13 -14 -34
-25 -48 -25 -14 0 -42 -11 -62 -25 -20 -14 -44 -25 -52 -25 -8 0 -19 -11 -24
-25 -5 -14 -15 -25 -21 -25 -8 0 -8 4 1 15 7 9 10 19 6 22 -4 4 -11 1 -16 -7
-7 -11 -11 -11 -23 -1 -10 8 -17 9 -22 1 -3 -5 -1 -10 4 -10 18 0 12 -30 -6
-37 -10 -3 -26 -13 -35 -20 -9 -8 -21 -12 -27 -9 -6 4 -27 -4 -48 -17 -21 -13
-54 -31 -73 -40 -19 -8 -41 -25 -48 -36 -12 -21 -52 -29 -52 -11 0 6 -9 10
-19 10 -11 0 -23 5 -26 10 -4 6 -11 8 -16 4 -6 -4 -3 -14 7 -25 22 -24 13 -34
-16 -17 -18 10 -24 10 -27 1 -3 -7 -9 -13 -15 -13 -6 0 -5 6 2 15 10 13 11 18
1 28 -10 9 -15 8 -25 -5 -18 -25 -62 -23 -69 2 -3 12 -14 20 -26 20 -12 0 -21
-4 -21 -10 0 -5 -5 -10 -11 -10 -6 0 -8 9 -4 20 4 14 2 20 -8 20 -25 0 -137
63 -137 76 0 9 -9 12 -28 8 -23 -5 -30 -1 -42 22 -12 21 -12 28 -2 31 6 3 10
9 7 13 -3 5 -11 7 -19 4 -7 -3 -18 7 -24 21 -6 14 -16 25 -22 25 -5 0 -10 7
-10 16 0 10 -6 14 -14 11 -11 -4 -13 -1 -9 10 5 12 1 14 -15 8 -12 -3 -22 -3
-22 2 0 14 14 30 30 35 10 3 5 10 -17 22 -18 9 -33 21 -33 27 0 5 -11 14 -25
19 -19 7 -25 17 -25 40 0 25 -4 30 -24 30 -28 0 -56 37 -56 74 0 31 -16 42
-36 25 -12 -10 -16 -9 -21 9 -3 12 -9 22 -14 22 -5 0 -9 9 -9 20 0 11 -7 23
-15 26 -8 4 -15 11 -15 18 0 6 -17 26 -37 44 -26 22 -34 35 -25 39 8 3 1 11
-19 22 -18 9 -40 31 -50 49 -9 19 -23 41 -31 50 -7 9 -19 27 -26 40 -10 17
-10 27 -2 37 8 9 8 15 0 20 -5 3 -10 -1 -10 -10 0 -21 -24 -14 -28 7 -2 10 7
19 22 24 38 13 1798 6 1806 -6z m1870 -39 c0 -14 -18 -23 -31 -15 -8 4 -7 9 2
15 18 11 29 11 29 0z m-1470 -601 c0 -5 -4 -10 -9 -10 -6 0 -13 5 -16 10 -3 6
1 10 9 10 9 0 16 -4 16 -10z m940 -80 c0 -5 -7 -10 -16 -10 -8 0 -12 5 -9 10
3 6 10 10 16 10 5 0 9 -4 9 -10z m-30 -36 c0 -17 -22 -14 -28 4 -2 7 3 12 12
12 9 0 16 -7 16 -16z"/>
<path d="M9135 8890 c-3 -5 1 -10 9 -10 9 0 16 5 16 10 0 6 -4 10 -9 10 -6 0
-13 -4 -16 -10z"/>
<path d="M5670 8790 c0 -5 6 -10 14 -10 8 0 16 -7 20 -15 3 -8 10 -15 16 -15
5 0 10 7 10 15 0 8 -7 15 -15 15 -8 0 -15 5 -15 10 0 6 -7 10 -15 10 -8 0 -15
-4 -15 -10z"/>
<path d="M5861 8610 c-17 -24 -19 -30 -6 -30 8 0 15 5 15 11 0 7 7 17 17 24 9
7 12 14 6 18 -5 3 -20 -7 -32 -23z"/>
<path d="M8812 8453 c-13 -14 -21 -27 -18 -30 5 -5 56 42 56 52 0 11 -16 2
-38 -22z"/>
<path d="M6020 8460 c0 -5 5 -10 10 -10 6 0 10 5 10 10 0 6 -4 10 -10 10 -5 0
-10 -4 -10 -10z"/>
<path d="M8075 8310 c-4 -6 5 -10 20 -10 15 0 24 4 20 10 -3 6 -12 10 -20 10
-8 0 -17 -4 -20 -10z"/>
<path d="M7290 8298 c-22 -10 -23 -12 -6 -16 10 -2 21 0 25 6 3 5 13 12 21 15
13 5 13 5 0 6 -8 0 -26 -5 -40 -11z"/>
<path d="M8170 8280 c0 -5 4 -10 9 -10 6 0 13 5 16 10 3 6 -1 10 -9 10 -9 0
-16 -4 -16 -10z"/>
<path d="M6190 8144 c0 -9 5 -14 12 -12 18 6 21 28 4 28 -9 0 -16 -7 -16 -16z"/>
<path d="M8580 8150 c0 -5 5 -10 10 -10 6 0 10 5 10 10 0 6 -4 10 -10 10 -5 0
-10 -4 -10 -10z"/>
<path d="M6880 8116 c0 -13 3 -16 8 -10 4 7 16 14 27 16 17 3 15 5 -7 10 -24
4 -28 2 -28 -16z"/>
<path d="M6650 7990 c0 -5 9 -10 20 -10 11 0 20 5 20 10 0 6 -9 10 -20 10 -11
0 -20 -4 -20 -10z"/>
<path d="M9050 8330 c0 -5 7 -10 15 -10 8 0 15 5 15 10 0 6 -7 10 -15 10 -8 0
-15 -4 -15 -10z"/>
<path d="M9395 8130 c-3 -5 1 -10 9 -10 9 0 16 5 16 10 0 6 -4 10 -9 10 -6 0
-13 -4 -16 -10z"/>
<path d="M5470 8123 c-14 -3 -37 -16 -52 -31 -22 -20 -28 -35 -28 -68 0 -37 5
-47 35 -70 34 -26 39 -26 118 -20 45 3 117 2 160 -4 113 -14 265 -68 424 -151
76 -39 143 -75 148 -79 6 -5 42 -19 80 -31 59 -20 90 -24 205 -24 114 0 146 4
205 23 39 13 133 54 210 92 143 70 272 116 405 145 102 23 426 32 540 15 173
-25 304 -67 502 -164 73 -35 165 -75 203 -87 58 -20 91 -24 195 -24 74 0 146
6 175 13 138 38 251 98 339 181 61 59 86 96 86 130 0 11 -16 36 -35 56 -26 26
-44 35 -68 35 -18 0 -41 -8 -53 -18 -12 -9 -36 -44 -55 -77 -45 -80 -126 -160
-196 -193 -43 -20 -78 -27 -138 -30 -44 -3 -111 1 -150 8 -76 14 -127 35 -220
91 -232 140 -454 222 -675 249 -195 23 -382 2 -590 -67 -78 -26 -247 -110
-360 -179 -86 -53 -160 -81 -247 -95 -58 -8 -88 -7 -150 4 -109 21 -172 47
-298 124 -111 67 -236 134 -310 165 -72 30 -199 67 -265 78 -66 10 -96 11
-140 3z m3828 -187 c-7 -8 -15 -12 -17 -11 -5 6 10 25 20 25 5 0 4 -6 -3 -14z"/>
<path d="M10552 7480 c3 -23 7 -24 50 -21 l47 2 3 -133 c3 -125 4 -133 23
-133 19 0 20 7 22 125 1 69 2 130 2 136 1 6 22 10 49 10 40 -1 47 2 47 18 0
18 -9 19 -123 20 l-123 1 3 -25z"/>
<path d="M10836 7503 c-3 -4 -6 -75 -6 -160 0 -127 2 -153 14 -153 8 0 18 6
23 13 8 13 5 188 -4 222 -5 18 -3 18 10 5 9 -8 27 -53 40 -100 36 -123 45
-142 63 -138 11 2 28 37 50 107 19 58 34 111 34 118 0 7 5 13 11 13 8 0 10
-36 8 -117 -4 -113 -3 -118 16 -118 19 0 20 7 20 155 l0 155 -28 2 c-19 1 -30
-4 -33 -15 -3 -9 -9 -26 -14 -37 -19 -49 -50 -154 -50 -169 0 -9 -7 -16 -15
-16 -8 0 -15 7 -15 15 0 16 -32 124 -55 185 -9 26 -19 35 -38 37 -14 1 -28 -1
-31 -4z"/>
<path d="M3525 7469 c-113 -20 -212 -52 -290 -91 -41 -21 -138 -90 -165 -118
-9 -8 -34 -37 -56 -65 -122 -151 -180 -351 -183 -630 -2 -118 9 -217 38 -350
14 -67 62 -176 108 -247 46 -69 150 -174 224 -225 56 -39 136 -79 191 -97 105
-33 139 -38 240 -34 86 4 121 12 213 43 96 34 122 39 205 39 78 1 103 -3 140
-21 25 -11 60 -26 79 -32 46 -15 192 -14 242 2 55 16 121 76 150 134 l24 48 0
730 c0 674 -1 733 -17 767 -28 59 -79 109 -136 135 l-53 23 -452 -1 c-249 -1
-474 -5 -502 -10z m313 -80 c5 -12 429 -11 437 0 3 5 29 7 59 4 33 -3 56 -1
60 5 9 15 68 4 83 -15 6 -8 20 -13 30 -11 19 4 39 -17 69 -72 18 -33 19 -68
19 -745 0 -674 -1 -712 -19 -745 -10 -19 -30 -45 -45 -57 -23 -19 -28 -20 -48
-7 -14 8 -24 10 -28 4 -3 -6 -1 -10 4 -10 22 0 10 -18 -19 -30 -19 -8 -45 -10
-68 -6 -20 4 -44 8 -52 10 -8 1 -37 12 -63 24 -27 12 -54 22 -61 22 -7 0 -27
7 -45 16 -56 28 -159 21 -232 -16 -8 -4 -28 -6 -43 -3 -19 4 -34 -1 -51 -17
-19 -17 -31 -21 -55 -17 -22 5 -30 3 -30 -8 0 -18 -56 -49 -65 -35 -3 6 1 10
9 10 9 0 16 6 16 13 0 9 -29 12 -117 10 -86 -1 -122 2 -133 12 -16 13 -76 30
-97 27 -6 -2 -14 2 -18 8 -3 5 -17 10 -31 10 -13 0 -24 4 -24 9 0 5 -26 26
-57 47 -67 45 -84 61 -138 132 -21 29 -45 52 -52 52 -17 0 -17 17 0 23 9 3 9
8 1 18 -17 22 -46 108 -41 122 2 6 -10 30 -27 52 l-31 39 0 292 c0 223 3 295
13 307 8 9 10 25 6 41 -5 20 -2 26 10 26 10 0 16 9 16 25 0 15 7 40 16 56 8
17 13 37 10 44 -3 9 2 11 15 8 10 -3 19 0 19 6 0 6 -5 11 -10 11 -6 0 5 17 25
37 20 21 44 50 53 65 8 14 24 29 34 31 10 3 17 11 16 19 -2 7 5 12 16 11 23
-2 46 19 46 41 0 19 11 20 29 4 10 -11 17 -8 36 15 14 16 34 27 49 27 14 0 28
5 31 10 3 6 15 10 26 10 10 0 19 5 19 11 0 8 13 9 38 5 26 -4 45 -1 60 9 14
10 34 14 59 10 23 -3 54 0 78 9 29 11 60 14 115 9 41 -3 77 -10 78 -14z m-348
-9 c0 -5 -7 -10 -15 -10 -8 0 -15 5 -15 10 0 6 7 10 15 10 8 0 15 -4 15 -10z
m-510 -1221 c0 -10 -4 -21 -10 -24 -5 -3 -10 0 -10 7 0 7 -3 24 -7 38 -6 22
-5 24 10 11 9 -7 17 -22 17 -32z m580 -470 c0 -11 -47 -12 -54 -1 -3 5 8 9 24
10 17 0 30 -4 30 -9z"/>
<path d="M3680 7390 c0 -5 12 -10 26 -10 14 0 23 4 19 10 -3 6 -15 10 -26 10
-10 0 -19 -4 -19 -10z"/>
<path d="M3336 7291 c-4 -5 -2 -12 3 -15 5 -4 12 -2 15 3 4 5 2 12 -3 15 -5 4
-12 2 -15 -3z"/>
<path d="M3795 6960 c-3 -5 -30 -10 -58 -10 -29 0 -65 -7 -81 -15 -15 -8 -34
-15 -42 -15 -7 0 -40 -16 -73 -35 -32 -19 -65 -35 -71 -35 -8 0 -10 -9 -6 -26
6 -21 4 -25 -8 -21 -10 4 -16 1 -16 -8 0 -8 -7 -15 -15 -15 -8 0 -15 7 -15 15
0 8 -4 15 -9 15 -14 0 -21 -29 -9 -36 7 -4 6 -9 -3 -14 -10 -7 -10 -12 -1 -23
15 -18 3 -30 -15 -15 -7 6 -17 8 -20 4 -4 -4 -1 -11 7 -16 11 -7 11 -11 1 -24
-7 -8 -10 -24 -6 -36 4 -12 2 -20 -5 -20 -8 0 -10 -28 -6 -97 6 -133 6 -133
15 -133 4 0 12 5 19 12 9 9 12 7 12 -10 0 -11 -8 -26 -17 -32 -15 -9 -13 -10
11 -5 24 5 27 4 18 -7 -6 -8 -7 -19 -3 -27 6 -9 11 -10 15 -2 4 7 27 -10 59
-42 48 -48 80 -68 179 -111 42 -18 188 -23 188 -5 0 5 4 8 10 4 5 -3 7 -12 3
-20 -3 -9 1 -15 11 -15 9 0 16 4 16 10 0 5 3 9 8 8 4 0 15 2 25 7 10 4 24 2
33 -6 14 -11 26 -3 87 64 40 42 75 77 80 77 15 0 6 -22 -15 -40 -13 -10 -20
-22 -16 -26 4 -4 19 4 33 18 22 22 23 28 12 51 -6 15 -15 27 -19 27 -5 0 -8 7
-8 15 0 20 26 19 34 -1 3 -8 11 -12 17 -8 9 5 7 11 -4 19 -15 11 -17 36 -17
183 0 108 -4 173 -10 177 -8 5 -8 11 0 20 8 10 8 15 0 20 -6 4 -8 15 -5 26 4
11 2 19 -5 19 -8 0 -10 9 -6 25 5 20 3 23 -11 19 -15 -5 -16 -4 -3 5 12 8 12
13 2 23 -9 9 -12 9 -12 0 0 -16 -30 -16 -30 1 -1 24 -40 59 -72 63 -18 3 -46
9 -63 14 -54 15 -114 20 -120 10z m176 -110 c20 -6 44 -19 55 -31 18 -19 19
-39 19 -249 0 -256 -3 -268 -69 -302 -34 -18 -54 -19 -180 -16 -132 3 -145 5
-199 33 -66 33 -130 97 -158 158 -27 61 -26 172 3 235 13 26 41 65 63 87 78
78 176 107 330 99 55 -3 116 -9 136 -14z"/>
<path d="M3382 6840 c0 -14 2 -19 5 -12 2 6 2 18 0 25 -3 6 -5 1 -5 -13z"/>
<path d="M4110 6820 c0 -5 5 -10 10 -10 6 0 10 5 10 10 0 6 -4 10 -10 10 -5 0
-10 -4 -10 -10z"/>
<path d="M4140 6720 c0 -5 5 -10 10 -10 6 0 10 5 10 10 0 6 -4 10 -10 10 -5 0
-10 -4 -10 -10z"/>
<path d="M3410 6293 c-13 -15 -12 -16 4 -10 10 4 20 7 22 7 2 0 4 5 4 10 0 15
-13 12 -30 -7z"/>
<path d="M3440 6265 c0 -16 16 -20 24 -6 3 5 -1 11 -9 15 -9 3 -15 0 -15 -9z"/>
<path d="M3388 6243 c6 -2 18 -2 25 0 6 3 1 5 -13 5 -14 0 -19 -2 -12 -5z"/>
<path d="M3176 5891 c-4 -5 -2 -12 3 -15 5 -4 12 -2 15 3 4 5 2 12 -3 15 -5 4
-12 2 -15 -3z"/>
<path d="M4300 5750 c0 -5 9 -10 21 -10 11 0 17 5 14 10 -3 6 -13 10 -21 10
-8 0 -14 -4 -14 -10z"/>
<path d="M4380 5735 c0 -8 7 -15 15 -15 8 0 15 7 15 15 0 8 -7 15 -15 15 -8 0
-15 -7 -15 -15z"/>
<path d="M5010 7473 c-53 -19 -98 -44 -117 -65 -30 -33 -58 -87 -66 -127 -10
-47 -8 -2039 1 -2076 22 -88 89 -157 178 -183 53 -15 185 -15 238 0 135 39
195 140 196 328 0 57 6 87 24 126 27 58 88 115 143 133 21 7 108 16 193 21 85
4 191 16 235 25 198 42 358 135 462 270 46 60 98 162 121 235 42 138 47 180
47 400 0 220 -1 229 -48 390 -73 254 -279 440 -552 499 -27 6 -71 15 -97 21
-29 6 -222 10 -495 9 -246 0 -455 -3 -463 -6z m773 -84 c52 -10 70 -10 79 -1
16 16 55 15 109 -2 24 -8 71 -20 104 -27 33 -7 80 -23 104 -36 33 -17 47 -20
57 -12 9 8 14 8 14 1 0 -6 -6 -12 -12 -15 -10 -4 -10 -7 0 -18 9 -9 12 -10 12
-1 0 7 7 12 15 12 10 0 15 -7 13 -17 -2 -10 4 -19 12 -19 8 -1 20 -2 27 -3 17
-2 73 -60 73 -77 0 -11 6 -13 19 -9 17 5 21 0 27 -30 4 -23 9 -32 14 -25 4 7
13 9 19 5 8 -4 5 -18 -11 -43 l-23 -37 27 18 c33 21 39 21 32 2 -3 -8 1 -24
10 -37 9 -12 16 -32 16 -43 0 -11 7 -29 15 -39 8 -11 15 -30 15 -43 0 -13 4
-23 8 -23 5 0 9 -15 9 -32 1 -18 6 -58 12 -88 7 -35 7 -58 1 -64 -6 -6 -10
-25 -10 -43 0 -18 -5 -41 -11 -51 -7 -12 -8 -28 -1 -52 l10 -35 1 42 c1 23 5
44 10 47 16 10 18 -53 3 -85 -12 -24 -13 -37 -4 -67 8 -26 8 -38 0 -43 -7 -4
-9 -22 -4 -47 5 -31 2 -41 -10 -46 -11 -4 -14 -13 -10 -29 5 -21 -6 -72 -25
-109 -5 -10 -9 -25 -9 -33 0 -8 -4 -15 -10 -15 -5 0 -10 -13 -10 -29 0 -33
-17 -51 -26 -27 -7 17 -54 22 -54 6 0 -5 8 -10 19 -10 10 0 24 -6 30 -14 15
-18 -2 -66 -24 -66 -8 0 -15 -7 -15 -15 0 -8 -7 -15 -15 -15 -9 0 -20 -10 -24
-22 -5 -13 -19 -35 -31 -49 -19 -23 -25 -25 -46 -15 -13 6 -24 14 -24 19 0 4
-5 7 -11 7 -6 0 -1 -12 10 -26 29 -37 26 -52 -4 -24 -21 19 -25 21 -25 7 0 -9
5 -17 11 -17 5 0 7 -5 3 -11 -4 -8 -9 -8 -17 0 -15 15 -27 14 -27 -4 0 -8 -9
-15 -19 -15 -11 0 -23 -4 -26 -10 -3 -5 -25 -15 -48 -21 -23 -6 -45 -16 -49
-23 -6 -8 -10 -8 -16 1 -9 15 -48 10 -87 -11 -16 -9 -50 -16 -74 -16 -25 0
-60 -6 -79 -12 -30 -11 -35 -11 -48 7 -9 12 -18 16 -22 10 -4 -6 -19 -16 -34
-24 -21 -11 -33 -11 -60 -2 -22 8 -34 8 -36 1 -2 -5 -18 -10 -35 -10 -24 0
-37 -7 -52 -30 -13 -19 -29 -30 -50 -32 -24 -2 -30 -8 -29 -25 0 -15 -5 -23
-15 -23 -16 0 -25 -11 -63 -78 -16 -30 -39 -154 -36 -202 3 -40 -3 -60 -17
-60 -18 0 -20 -37 -3 -42 6 -2 8 -10 4 -17 -6 -9 -11 -8 -22 6 -13 16 -14 14
-9 -22 6 -36 5 -38 -8 -22 -8 9 -17 17 -20 17 -2 0 -8 -12 -11 -26 -6 -23 -11
-26 -36 -20 -17 3 -30 1 -30 -4 0 -6 -13 -10 -28 -10 -15 0 -33 -5 -40 -12 -9
-9 -12 -9 -12 0 0 8 -17 12 -45 12 -48 0 -80 15 -130 63 -25 23 -27 29 -15 37
13 8 13 13 2 31 -11 17 -11 23 -2 29 9 5 9 9 1 14 -6 4 -11 3 -11 -2 0 -5 -9
-12 -19 -15 -14 -3 -18 -1 -14 9 3 8 9 14 14 14 5 0 9 401 9 954 0 839 -2 955
-15 960 -23 8 -18 28 5 21 14 -4 20 -2 20 9 0 8 -4 18 -10 21 -5 3 -10 13 -10
22 0 9 6 13 15 10 19 -8 31 11 16 26 -15 15 -14 27 4 27 9 0 18 7 21 15 7 18
60 45 90 45 13 0 25 3 27 8 8 12 634 4 710 -9z m-863 -2164 c0 -8 -4 -15 -10
-15 -5 0 -10 7 -10 15 0 8 5 15 10 15 6 0 10 -7 10 -15z"/>
<path d="M5915 7360 c4 -6 11 -8 16 -5 14 9 11 15 -7 15 -8 0 -12 -5 -9 -10z"/>
<path d="M6308 7223 c6 -2 12 -11 12 -19 0 -8 5 -14 10 -14 6 0 10 4 10 8 0
12 -22 32 -34 31 -6 0 -5 -3 2 -6z"/>
<path d="M5810 7030 c-12 -8 -10 -10 8 -10 13 0 20 4 17 10 -7 12 -6 12 -25 0z"/>
<path d="M5735 7011 l-30 -7 34 -7 c35 -7 55 -2 46 14 -7 10 -6 10 -50 0z"/>
<path d="M5830 6990 c-73 -15 -130 -19 -130 -10 0 6 -17 10 -37 10 -29 0 -34
-3 -25 -12 21 -21 13 -30 -18 -23 -19 4 -30 3 -30 -4 0 -12 -72 -51 -95 -51
-12 0 -15 -6 -10 -20 4 -13 2 -20 -7 -20 -8 0 -19 5 -25 11 -7 7 -13 7 -17 1
-3 -6 -2 -13 4 -17 16 -10 12 -19 -20 -55 -16 -18 -30 -41 -30 -49 0 -9 -7
-29 -15 -45 -8 -15 -15 -37 -15 -47 0 -11 -4 -19 -10 -19 -17 0 -11 -25 10
-40 17 -12 19 -22 14 -61 -8 -58 8 -109 52 -171 19 -26 33 -57 31 -67 -1 -11
2 -19 8 -18 5 1 8 10 7 20 -2 9 0 17 5 17 15 0 33 -39 26 -56 -4 -12 -3 -15 6
-10 6 4 24 0 38 -10 21 -13 28 -14 31 -4 3 9 10 5 23 -11 17 -23 22 -24 154
-24 123 0 138 2 151 19 7 11 16 17 20 14 9 -10 52 17 75 46 18 23 23 25 37 14
14 -11 15 -9 9 22 -3 19 -3 29 0 23 2 -7 11 -13 19 -13 8 0 14 6 14 13 0 10
15 46 52 121 6 10 7 49 3 86 -5 47 -3 80 6 105 9 23 10 39 4 43 -6 4 -21 30
-35 59 -14 28 -28 49 -32 47 -4 -3 -5 2 -2 10 3 9 0 22 -8 30 -7 7 -20 23 -28
35 -8 11 -21 21 -28 21 -8 0 -34 14 -59 30 -29 20 -57 30 -81 30 -35 1 -36 2
-18 15 11 8 18 16 15 18 -2 2 -20 1 -39 -3z m79 -121 c28 -12 65 -37 81 -56
54 -61 64 -96 64 -228 1 -113 -1 -123 -26 -165 -34 -59 -73 -93 -128 -114 -62
-24 -175 -32 -241 -16 -140 34 -209 132 -209 298 0 42 5 95 10 116 19 85 105
168 190 186 71 15 201 4 259 -21z"/>
<path d="M5936 6551 c-4 -5 -2 -12 3 -15 5 -4 12 -2 15 3 4 5 2 12 -3 15 -5 4
-12 2 -15 -3z"/>
<path d="M6020 6270 c0 -5 7 -10 16 -10 8 0 12 5 9 10 -3 6 -10 10 -16 10 -5
0 -9 -4 -9 -10z"/>
<path d="M6412 6005 c-11 -23 -10 -25 6 -16 10 6 24 17 32 25 10 14 9 16 -7
16 -11 0 -25 -11 -31 -25z"/>
<path d="M6320 5891 c0 -12 5 -21 10 -21 6 0 10 6 10 14 0 8 -4 18 -10 21 -5
3 -10 -3 -10 -14z"/>
<path d="M6230 5870 c0 -5 5 -10 10 -10 6 0 10 5 10 10 0 6 -4 10 -10 10 -5 0
-10 -4 -10 -10z"/>
<path d="M5656 5752 c-3 -6 3 -12 15 -15 12 -3 19 -1 16 6 -5 15 -24 20 -31 9z"/>
<path d="M5915 5750 c-3 -5 1 -10 10 -10 9 0 13 5 10 10 -3 6 -8 10 -10 10 -2
0 -7 -4 -10 -10z"/>
<path d="M5320 5329 c0 -11 4 -18 10 -14 5 3 7 12 3 20 -7 21 -13 19 -13 -6z"/>
<path d="M5296 5272 c-2 -4 -1 -14 5 -22 7 -12 9 -10 9 8 0 23 -5 28 -14 14z"/>
<path d="M7480 7464 c-97 -17 -134 -27 -197 -52 -108 -44 -160 -79 -248 -167
-70 -70 -98 -107 -127 -165 -82 -170 -102 -269 -102 -525 0 -191 4 -231 36
-350 19 -74 52 -150 92 -218 38 -64 136 -167 201 -213 41 -28 159 -84 178 -84
9 0 18 -4 21 -9 3 -5 20 -11 38 -14 18 -3 74 -12 123 -21 73 -13 172 -16 532
-16 284 0 444 4 448 10 3 6 14 10 24 10 26 0 96 64 116 106 42 89 56 222 33
311 -16 57 -74 119 -140 150 -33 16 -75 24 -151 29 -74 5 -106 3 -111 -5 -8
-13 -62 -15 -70 -2 -9 14 40 41 75 41 18 0 65 16 105 35 94 45 201 148 236
226 38 84 46 110 58 173 18 102 9 204 -25 301 -14 41 -51 111 -70 134 -92 112
-174 179 -287 234 -83 40 -137 59 -233 82 -49 11 -119 15 -273 14 -126 -1
-236 -6 -282 -15z m200 -65 c0 -5 -10 -9 -22 -9 -17 0 -19 -3 -10 -12 8 -8 15
-8 24 0 15 12 178 21 178 10 0 -12 58 -10 65 2 3 6 24 10 45 10 21 0 42 -4 45
-10 3 -5 16 -10 27 -10 11 0 27 -8 34 -17 10 -15 15 -16 25 -5 7 6 22 12 32
12 13 0 17 -5 13 -16 -4 -11 -1 -14 12 -9 11 3 29 -3 45 -15 14 -11 37 -20 51
-20 14 0 34 -9 43 -20 10 -11 24 -20 33 -20 12 0 13 -2 1 -9 -21 -13 -5 -29
24 -24 17 4 27 0 31 -11 3 -9 12 -16 18 -16 7 0 19 -12 27 -26 7 -14 26 -36
41 -49 28 -24 37 -45 18 -45 -5 0 -10 -7 -10 -15 0 -8 5 -15 10 -15 6 0 10 7
10 15 0 22 28 18 35 -4 3 -11 3 -31 -1 -46 -5 -20 1 -35 26 -67 25 -30 31 -45
24 -57 -5 -9 -7 -62 -4 -118 4 -77 2 -104 -7 -108 -7 -2 -13 -10 -13 -18 0 -7
-9 -31 -20 -52 -11 -22 -18 -45 -16 -52 7 -17 -14 -28 -24 -13 -6 9 -9 9 -16
-1 -4 -7 -3 -14 4 -17 17 -5 15 -22 -2 -22 -23 0 -76 -34 -82 -53 -3 -9 -14
-22 -25 -27 -10 -6 -19 -17 -19 -25 0 -18 -17 -20 -22 -3 -3 8 -9 8 -24 0 -10
-6 -13 -12 -6 -12 6 0 12 -4 12 -9 0 -6 -15 -8 -32 -7 -18 2 -25 1 -15 -1 26
-7 20 -21 -13 -28 -16 -4 -34 -14 -39 -23 -8 -14 -13 -15 -30 -5 -13 8 -22 9
-26 3 -3 -6 1 -10 9 -10 21 0 20 -17 0 -28 -19 -11 -15 -41 6 -53 65 -35 184
-64 223 -54 16 4 40 -1 68 -14 23 -12 51 -21 61 -21 14 0 17 -5 12 -24 -4 -17
0 -27 13 -34 14 -9 18 -26 21 -94 2 -46 9 -89 16 -97 8 -11 8 -15 -1 -18 -7
-3 -13 -15 -13 -29 0 -17 -4 -22 -15 -18 -9 4 -17 -1 -21 -12 -4 -11 -16 -29
-27 -41 -11 -13 -15 -23 -9 -23 7 0 12 -5 12 -11 0 -9 -4 -9 -14 0 -10 8 -21
7 -45 -5 -30 -15 -73 -14 -117 3 -10 4 -12 0 -7 -13 5 -13 3 -16 -10 -11 -10
4 -181 7 -382 7 -312 1 -365 3 -365 16 0 11 -7 13 -27 7 -16 -4 -37 -6 -48 -5
-11 1 -28 2 -38 2 -10 1 -21 8 -24 16 -3 8 -19 14 -42 14 -20 0 -50 8 -66 19
-17 10 -48 24 -70 31 -43 14 -89 55 -80 71 4 5 2 9 -3 9 -15 0 -22 -26 -9 -39
8 -8 8 -11 0 -11 -20 0 -34 28 -27 54 7 30 -3 34 -22 9 -12 -17 -13 -16 -23 7
-18 43 -37 61 -57 53 -16 -6 -17 -5 -6 9 11 13 8 19 -15 37 -15 11 -22 21 -15
21 6 0 12 5 12 11 0 6 -9 8 -22 4 -13 -3 -18 -3 -12 2 26 20 23 45 -8 84 l-32
39 29 30 c16 16 25 33 21 37 -4 5 -13 0 -20 -10 -7 -9 -20 -17 -29 -17 -16 0
-20 18 -37 145 -19 151 -6 479 21 511 9 11 9 17 0 28 -9 11 -9 16 0 21 6 4 15
2 19 -5 4 -6 16 -10 26 -7 17 4 17 6 -3 12 -29 9 -31 45 -3 52 24 6 26 22 3
38 -9 7 -13 17 -9 23 5 9 14 7 32 -4 30 -20 32 -8 2 17 -24 21 -17 39 7 19 12
-10 15 -10 15 4 0 9 -4 16 -10 16 -5 0 -10 7 -10 15 0 20 17 19 29 -2 9 -17
10 -17 17 1 5 12 3 21 -4 24 -16 5 -15 22 1 22 6 0 25 19 42 41 25 34 31 38
41 24 16 -22 27 -19 21 6 -8 31 2 49 29 49 15 0 24 6 24 15 0 8 7 15 16 15 8
0 43 13 77 29 34 16 80 35 102 41 22 7 48 16 57 21 10 5 27 9 39 9 15 0 19 -5
15 -15 -3 -8 -3 -15 -1 -15 2 0 20 9 40 20 20 11 48 20 63 21 15 0 36 4 47 8
22 9 35 5 35 -10z m-740 -419 c0 -5 -4 -10 -10 -10 -5 0 -10 5 -10 10 0 6 5
10 10 10 6 0 10 -4 10 -10z m40 -892 c0 -5 -3 -8 -7 -8 -10 0 -43 32 -43 42 0
11 49 -24 50 -34z"/>
<path d="M7156 7231 c-4 -5 -2 -12 3 -15 5 -4 12 -2 15 3 4 5 2 12 -3 15 -5 4
-12 2 -15 -3z"/>
<path d="M8340 7205 c0 -16 16 -20 24 -6 3 5 -1 11 -9 15 -9 3 -15 0 -15 -9z"/>
<path d="M8495 7040 c3 -5 10 -10 16 -10 5 0 9 5 9 10 0 6 -7 10 -16 10 -8 0
-12 -4 -9 -10z"/>
<path d="M7620 7030 c0 -5 5 -10 10 -10 6 0 10 5 10 10 0 6 -4 10 -10 10 -5 0
-10 -4 -10 -10z"/>
<path d="M7725 7030 c-4 -6 -14 -9 -23 -7 -10 2 -31 -5 -49 -15 -29 -17 -32
-18 -41 -2 -7 12 -11 13 -16 5 -4 -7 -2 -19 5 -27 11 -13 9 -14 -17 -2 -16 7
-35 18 -42 25 -8 7 -19 10 -25 6 -6 -4 -2 -9 11 -14 12 -5 22 -16 22 -25 0
-10 -5 -14 -15 -10 -10 4 -19 -2 -24 -18 -5 -12 -22 -34 -39 -47 -16 -14 -32
-37 -36 -52 -3 -15 -11 -27 -16 -27 -16 0 -22 20 -10 35 6 7 7 16 2 19 -13 8
-39 -44 -26 -52 14 -10 27 -45 13 -37 -12 8 -49 -23 -49 -42 0 -7 6 -13 14
-13 12 0 12 -6 0 -40 -14 -42 -17 -180 -3 -180 5 0 6 -6 3 -14 -3 -8 10 -30
29 -50 20 -20 37 -39 39 -44 8 -19 97 -82 117 -82 11 0 21 -4 21 -10 0 -5 11
-10 24 -10 14 0 28 5 31 10 3 6 17 10 30 10 12 0 25 7 29 15 3 8 14 15 25 15
10 0 33 13 49 29 19 17 34 25 40 19 6 -6 12 -6 16 0 3 6 2 13 -4 17 -5 3 -10
13 -10 21 0 10 8 6 25 -12 l25 -27 -6 31 c-5 25 -3 33 12 39 10 4 33 22 52 40
18 18 37 33 42 33 34 0 104 120 119 203 6 32 13 62 16 67 8 13 -21 60 -77 122
-53 59 -123 105 -134 87 -3 -5 -15 -4 -27 3 -29 16 -114 21 -122 8z m163 -96
c68 -34 104 -80 110 -143 7 -78 -30 -135 -166 -252 -62 -53 -129 -105 -150
-115 -54 -25 -111 -28 -152 -7 -19 10 -50 40 -70 68 -33 46 -35 54 -35 125 0
62 5 85 27 130 33 65 76 115 138 157 61 41 124 62 191 63 40 0 69 -7 107 -26z"/>
<path d="M7980 6984 c0 -8 5 -12 10 -9 6 3 10 10 10 16 0 5 -4 9 -10 9 -5 0
-10 -7 -10 -16z"/>
<path d="M8501 6915 c0 -35 2 -37 11 -19 7 15 7 28 -1 40 -9 16 -10 12 -10
-21z"/>
<path d="M8116 6871 c-4 -7 -5 -15 -2 -18 9 -9 19 4 14 18 -4 11 -6 11 -12 0z"/>
<path d="M8532 6706 c1 -10 8 -17 13 -17 15 1 12 24 -3 29 -9 3 -13 -2 -10
-12z"/>
<path d="M7880 6451 c0 -5 7 -11 15 -15 9 -3 15 0 15 9 0 8 -7 15 -15 15 -8 0
-15 -4 -15 -9z"/>
<path d="M7370 6411 c0 -6 5 -13 10 -16 6 -3 10 1 10 9 0 9 -4 16 -10 16 -5 0
-10 -4 -10 -9z"/>
<path d="M8195 6340 c4 -6 11 -8 16 -5 14 9 11 15 -7 15 -8 0 -12 -5 -9 -10z"/>
<path d="M7020 6204 c0 -8 5 -12 10 -9 6 4 8 11 5 16 -9 14 -15 11 -15 -7z"/>
<path d="M6990 6165 c0 -8 5 -15 10 -15 6 0 10 7 10 15 0 8 -4 15 -10 15 -5 0
-10 -7 -10 -15z"/>
<path d="M8415 6130 c-3 -5 1 -10 10 -10 9 0 13 5 10 10 -3 6 -8 10 -10 10 -2
0 -7 -4 -10 -10z"/>
<path d="M8495 6110 c-3 -5 1 -10 10 -10 9 0 13 5 10 10 -3 6 -8 10 -10 10 -2
0 -7 -4 -10 -10z"/>
<path d="M7020 6070 c0 -5 5 -10 10 -10 6 0 10 5 10 10 0 6 -4 10 -10 10 -5 0
-10 -4 -10 -10z"/>
<path d="M7020 6020 c0 -5 5 -10 10 -10 6 0 10 5 10 10 0 6 -4 10 -10 10 -5 0
-10 -4 -10 -10z"/>
<path d="M8540 5880 c0 -11 5 -20 10 -20 6 0 10 9 10 20 0 11 -4 20 -10 20 -5
0 -10 -9 -10 -20z"/>
<path d="M8502 5840 c0 -14 2 -19 5 -12 2 6 2 18 0 25 -3 6 -5 1 -5 -13z"/>
<path d="M7655 5750 c-3 -5 1 -10 10 -10 9 0 13 5 10 10 -3 6 -8 10 -10 10 -2
0 -7 -4 -10 -10z"/>
<path d="M8408 5743 c6 -2 18 -2 25 0 6 3 1 5 -13 5 -14 0 -19 -2 -12 -5z"/>
<path d="M8952 7463 c-24 -8 -64 -36 -90 -62 -33 -33 -51 -61 -59 -94 -18 -68
-18 -1444 0 -1502 23 -75 81 -132 167 -162 19 -7 76 -13 125 -13 95 0 136 10
196 48 48 30 83 77 97 132 8 29 13 185 15 440 4 449 6 459 83 536 31 31 59 48
101 60 78 23 184 23 258 -1 46 -15 75 -33 130 -85 85 -80 118 -103 171 -118
83 -24 209 -9 269 31 66 45 95 92 115 184 14 67 9 171 -10 236 -24 82 -160
224 -270 281 -26 13 -82 36 -125 51 -152 51 -203 55 -685 54 -372 0 -452 -3
-488 -16z m958 -62 c0 -5 -8 -12 -17 -14 -10 -2 -3 -2 16 0 28 4 33 2 27 -12
-5 -13 0 -15 32 -9 20 3 41 10 47 15 15 14 26 10 23 -8 -2 -13 5 -19 27 -21
33 -3 49 -9 113 -40 23 -12 50 -18 59 -15 12 5 15 2 11 -13 -4 -17 -1 -20 26
-17 l31 4 -25 -15 -25 -15 26 -1 c17 0 30 -8 39 -25 14 -27 35 -33 44 -12 3 6
3 2 0 -10 -4 -18 0 -24 20 -29 25 -6 37 -34 16 -34 -5 0 -10 -7 -10 -15 0 -8
5 -15 10 -15 6 0 10 7 10 15 0 8 7 15 15 15 19 0 19 -14 -1 -30 -13 -12 -12
-16 13 -37 15 -13 23 -26 18 -29 -7 -3 -9 -29 -7 -67 3 -49 0 -67 -12 -80 -22
-21 -20 -30 4 -22 14 5 20 2 20 -9 0 -9 -4 -16 -8 -16 -5 0 -14 -11 -20 -25
-6 -14 -18 -25 -27 -25 -8 0 -15 -6 -15 -14 0 -8 -4 -18 -10 -21 -16 -10 -123
-38 -142 -37 -10 0 -20 -3 -23 -9 -9 -14 -25 -11 -25 5 0 8 -12 17 -27 21 -16
3 -45 14 -66 23 -25 12 -36 22 -33 33 2 11 -2 15 -13 12 -19 -5 -71 42 -71 63
0 8 -4 14 -10 14 -5 0 -10 -4 -10 -10 0 -5 -4 -10 -10 -10 -5 0 -10 6 -10 13
0 7 -17 21 -37 31 -21 10 -46 22 -55 27 -10 5 -33 9 -52 9 -19 0 -37 4 -41 10
-6 10 -90 8 -101 -3 -4 -4 -16 -7 -27 -7 -38 0 -99 -24 -126 -49 -62 -58 -121
-102 -130 -96 -12 7 -24 -12 -16 -25 5 -8 11 -7 21 1 17 14 18 5 4 -22 -6 -10
-16 -19 -23 -19 -7 0 -25 -14 -41 -30 -19 -21 -26 -36 -21 -48 6 -14 10 -11
21 16 8 17 18 32 22 32 18 0 20 -13 5 -37 -14 -21 -16 -70 -14 -399 1 -205 -1
-374 -6 -374 -8 0 -26 -37 -38 -80 -10 -35 -24 -50 -46 -50 -11 0 -19 -4 -19
-10 0 -5 7 -10 15 -10 8 0 15 -4 15 -10 0 -5 -9 -10 -20 -10 -11 0 -20 5 -20
10 0 18 -27 10 -42 -12 -12 -18 -18 -20 -29 -11 -15 12 -107 12 -126 0 -6 -4
-15 -2 -19 4 -3 6 0 15 7 20 7 4 10 11 6 16 -4 4 -17 1 -28 -6 -18 -10 -24
-10 -38 3 -10 9 -23 16 -29 16 -7 0 -12 4 -12 10 0 5 7 7 16 3 12 -4 15 -1 12
13 -2 12 -12 19 -25 18 -15 0 -19 4 -15 15 3 9 11 23 17 31 21 25 36 60 27 60
-5 0 -15 -11 -22 -25 -7 -14 -19 -25 -26 -25 -18 0 -25 28 -7 34 9 4 13 13 9
22 -3 8 -6 317 -6 687 0 614 1 673 16 684 10 7 14 20 11 32 -6 23 17 49 28 31
5 -8 11 -7 22 1 12 11 12 14 -4 23 -15 9 -8 12 37 17 30 3 70 1 89 -4 23 -6
36 -5 41 3 5 8 108 11 374 9 202 -1 369 1 373 5 10 9 43 7 43 -3z m-600 -1600
c0 -6 -4 -13 -10 -16 -5 -3 -10 1 -10 9 0 9 5 16 10 16 6 0 10 -4 10 -9z"/>
<path d="M10268 7198 c9 -9 15 -9 24 0 9 9 7 12 -12 12 -19 0 -21 -3 -12 -12z"/>
<path d="M10405 7027 c-3 -12 -4 -52 -2 -87 l3 -65 2 78 c1 43 6 77 12 77 6 0
10 5 10 10 0 20 -20 10 -25 -13z"/>
<path d="M10390 6841 c0 -6 5 -13 10 -16 6 -3 10 1 10 9 0 9 -4 16 -10 16 -5
0 -10 -4 -10 -9z"/>
<path d="M9275 6571 c-3 -5 -1 -12 5 -16 5 -3 10 1 10 9 0 18 -6 21 -15 7z"/>
<path d="M9296 5921 c-4 -7 -5 -15 -2 -18 9 -9 19 4 14 18 -4 11 -6 11 -12 0z"/>
<path d="M8940 5835 c0 -15 4 -24 10 -20 6 3 10 12 10 20 0 8 -4 17 -10 20 -6
4 -10 -5 -10 -20z"/>
<path d="M1070 7444 c-71 -13 -147 -59 -175 -106 -11 -18 -25 -49 -32 -68 -10
-27 -13 -267 -13 -1062 l0 -1027 24 -53 c46 -104 136 -153 281 -153 111 0 177
24 235 84 53 55 68 99 76 231 9 147 44 215 136 265 49 27 64 30 198 36 150 8
211 16 327 45 144 36 286 121 378 228 134 155 195 359 195 656 0 231 -28 369
-108 530 -25 50 -60 100 -108 150 -102 106 -231 179 -374 211 -30 6 -71 16
-90 22 -21 6 -217 11 -480 13 -245 1 -456 0 -470 -2z m-14 -94 c13 0 24 6 24
13 0 8 3 8 9 -2 6 -9 16 -11 27 -7 17 7 527 8 682 2 35 -2 65 1 68 6 7 11 44
10 44 -2 0 -14 33 -13 48 2 8 8 15 8 24 0 12 -9 63 -25 211 -64 20 -6 37 -15
37 -20 0 -6 9 -8 20 -5 11 3 20 2 20 -1 0 -4 5 -14 10 -22 8 -13 11 -12 25 5
16 20 16 20 6 -2 -15 -30 -14 -32 9 -26 11 3 20 0 20 -6 0 -6 -8 -11 -17 -11
-14 0 -14 -3 -5 -12 10 -10 15 -10 21 1 14 22 41 5 48 -29 4 -21 10 -29 19
-26 8 4 21 9 29 12 10 4 15 0 15 -10 0 -9 -7 -16 -15 -16 -17 0 -18 -4 -6 -28
5 -9 12 -25 15 -34 3 -10 10 -18 16 -18 13 0 13 27 0 35 -13 8 -13 35 0 35 6
0 10 -7 10 -15 0 -9 7 -18 16 -22 11 -4 14 -13 10 -29 -5 -17 -2 -24 8 -24 7
0 17 -11 20 -25 3 -13 18 -36 31 -51 22 -24 24 -29 10 -37 -14 -7 -13 -12 5
-37 12 -17 20 -44 20 -68 0 -23 4 -43 9 -46 16 -10 21 -67 9 -111 -10 -38 -9
-50 5 -80 9 -20 17 -48 16 -63 0 -26 -1 -25 -13 8 l-13 35 -7 -54 c-5 -40 -4
-56 6 -62 16 -10 18 -101 3 -106 -6 -2 -9 -21 -7 -43 3 -24 -1 -47 -9 -56 -10
-13 -10 -17 1 -24 8 -5 11 -12 7 -16 -3 -4 -13 -2 -21 5 -11 9 -15 9 -18 -1
-3 -7 0 -25 6 -41 8 -20 7 -32 -2 -45 -7 -9 -16 -27 -22 -40 -5 -12 -16 -25
-24 -28 -7 -3 -16 -23 -20 -45 -5 -29 -13 -43 -31 -51 -14 -6 -25 -19 -25 -30
0 -20 -25 -25 -34 -5 -3 6 -3 -3 0 -20 4 -26 2 -33 -10 -33 -9 0 -16 -4 -16
-9 0 -5 -13 -12 -30 -16 -26 -6 -80 -55 -80 -73 0 -4 -16 -7 -35 -8 -19 0 -55
-11 -79 -24 -36 -18 -49 -20 -60 -11 -11 9 -15 7 -19 -10 -5 -19 -8 -20 -21
-9 -13 10 -22 9 -52 -5 -26 -12 -67 -18 -140 -20 -58 -1 -107 1 -109 5 -3 5
-29 0 -57 -11 -29 -10 -63 -19 -75 -19 -12 0 -47 -17 -77 -37 -39 -27 -55 -43
-52 -55 3 -14 0 -16 -13 -8 -13 6 -22 4 -34 -11 -9 -10 -17 -30 -17 -42 0 -13
-4 -27 -9 -33 -5 -5 -16 -35 -26 -66 -12 -38 -16 -73 -12 -101 5 -35 1 -54
-23 -103 -17 -32 -30 -69 -30 -80 0 -27 -22 -36 -69 -28 -34 6 -35 5 -16 -10
19 -15 19 -15 1 -16 -11 0 -34 5 -52 12 -28 10 -35 8 -65 -12 -21 -15 -31 -19
-27 -9 4 10 -3 15 -25 16 -16 1 -37 9 -47 18 -9 8 -20 15 -24 15 -13 0 -45 44
-46 62 0 9 -8 21 -17 27 -14 7 -15 12 -5 24 10 11 9 20 -3 43 -12 24 -15 86
-15 367 0 223 3 336 10 332 6 -4 11 -132 12 -343 1 -185 5 97 8 628 3 635 2
971 -5 983 -7 12 -7 20 1 25 7 4 13 16 15 27 3 11 19 29 36 40 23 14 31 26 28
40 -3 11 -2 14 1 8 3 -7 17 -13 30 -13z m414 -1835 c0 -8 -4 -15 -10 -15 -5 0
-10 7 -10 15 0 8 5 15 10 15 6 0 10 -7 10 -15z m-277 -472 c-7 -2 -21 -2 -30
0 -10 3 -4 5 12 5 17 0 24 -2 18 -5z"/>
<path d="M2260 7221 c0 -10 19 -25 25 -20 1 2 -3 10 -11 17 -8 7 -14 8 -14 3z"/>
<path d="M2395 7040 c4 -6 11 -8 16 -5 14 9 11 15 -7 15 -8 0 -12 -5 -9 -10z"/>
<path d="M1765 6950 c-2 -4 -30 -11 -62 -15 -63 -8 -158 -49 -167 -71 -4 -11
-10 -12 -25 -4 -31 16 -42 12 -24 -10 10 -11 24 -20 33 -20 10 0 8 -4 -6 -13
-12 -6 -31 -18 -43 -25 -18 -11 -21 -10 -22 5 -1 10 -5 -7 -10 -37 -4 -30 -15
-69 -23 -85 -11 -21 -16 -59 -16 -130 0 -87 3 -105 24 -142 14 -25 22 -51 19
-63 -4 -16 -2 -19 11 -14 21 8 21 -10 0 -41 -19 -29 -9 -33 18 -8 23 20 36 9
20 -17 -18 -29 -15 -33 10 -16 27 19 49 21 46 4 -4 -15 90 -67 123 -67 15 -1
41 -4 58 -7 22 -5 30 -11 27 -20 -4 -10 5 -14 34 -14 21 0 42 5 46 11 4 6 20
8 40 4 26 -4 36 -2 40 10 4 9 25 25 48 37 22 11 46 28 52 36 6 8 16 12 22 8 6
-3 13 2 17 13 3 11 12 22 20 25 8 3 28 24 44 46 23 32 29 49 24 71 -3 18 -1
29 6 29 6 0 11 -10 11 -22 0 -16 3 -19 11 -11 8 8 7 16 -2 31 -10 16 -10 29 0
64 7 23 16 50 20 58 4 8 6 21 3 28 -3 10 -7 10 -18 1 -17 -14 -17 -6 -4 40 5
19 6 39 1 45 -4 6 -14 27 -21 46 -20 52 -73 130 -88 130 -7 0 -12 8 -10 18 2
10 -3 17 -12 17 -8 0 -41 14 -72 32 -32 17 -79 35 -105 38 -27 4 -58 8 -70 10
-13 2 -25 0 -28 -5z m151 -107 c60 -17 113 -63 145 -124 18 -35 24 -65 27
-146 5 -113 -8 -168 -52 -226 -14 -19 -50 -47 -78 -63 -50 -28 -59 -29 -173
-29 -104 0 -125 3 -160 22 -101 54 -145 139 -145 277 0 141 46 233 137 276 86
40 192 45 299 13z"/>
<path d="M1458 6823 c6 -2 18 -2 25 0 6 3 1 5 -13 5 -14 0 -19 -2 -12 -5z"/>
<path d="M2190 6653 c0 -23 17 -49 26 -41 9 10 -4 58 -16 58 -6 0 -10 -8 -10
-17z"/>
<path d="M2200 6459 c0 -11 5 -17 10 -14 6 3 10 13 10 21 0 8 -4 14 -10 14 -5
0 -10 -9 -10 -21z"/>
<path d="M2576 6391 c-4 -5 -2 -20 3 -33 9 -21 10 -21 10 10 1 32 -3 39 -13
23z"/>
<path d="M1963 5723 c9 -2 25 -2 35 0 9 3 1 5 -18 5 -19 0 -27 -2 -17 -5z"/>
<path d="M1916 5711 c-4 -5 -2 -12 3 -15 5 -4 12 -2 15 3 4 5 2 12 -3 15 -5 4
-12 2 -15 -3z"/>
<path d="M1280 5127 c0 -8 7 -20 15 -27 11 -9 15 -10 15 -1 0 7 -7 19 -15 27
-13 13 -15 13 -15 1z"/>
<path d="M1060 5103 c8 -3 19 -11 23 -17 6 -7 7 -6 4 4 -2 8 -12 16 -23 17
-13 2 -15 1 -4 -4z"/>
<path d="M2910 7300 c-9 -16 -8 -18 5 -14 8 4 15 12 15 20 0 20 -7 17 -20 -6z"/>
<path d="M8536 7311 c-4 -5 -2 -12 3 -15 5 -4 12 -2 15 3 4 5 2 12 -3 15 -5 4
-12 2 -15 -3z"/>
<path d="M6680 7116 c0 -9 5 -16 10 -16 6 0 10 4 10 9 0 6 -4 13 -10 16 -5 3
-10 -1 -10 -9z"/>
<path d="M10465 6589 c-4 -6 -5 -13 -2 -16 7 -7 27 6 27 18 0 12 -17 12 -25
-2z"/>
<path d="M9936 6571 c-4 -5 -2 -12 3 -15 5 -4 12 -2 15 3 4 5 2 12 -3 15 -5 4
-12 2 -15 -3z"/>
<path d="M6936 5791 c-4 -5 -2 -12 3 -15 5 -4 12 -2 15 3 4 5 2 12 -3 15 -5 4
-12 2 -15 -3z"/>
<path d="M8337 5405 c-67 -15 -125 -50 -160 -97 -54 -74 -52 -40 -52 -918 l0
-815 25 -75 c30 -94 67 -165 123 -238 123 -159 241 -234 462 -293 78 -20 113
-23 265 -24 166 0 177 1 215 23 75 44 106 84 132 167 23 73 13 214 -20 285
-42 89 -146 140 -289 140 -105 0 -174 26 -228 87 -22 25 -46 64 -52 87 -8 26
-13 102 -13 203 l0 162 29 30 c15 16 40 32 54 36 14 3 89 7 166 9 106 1 154 6
192 20 55 19 101 54 128 97 27 44 46 121 46 195 0 88 -18 150 -63 217 -20 30
-91 70 -147 83 -19 4 -99 8 -177 8 -127 1 -144 3 -170 22 -15 11 -36 36 -45
55 -15 27 -18 60 -18 173 0 169 -15 230 -74 288 -44 45 -96 66 -187 78 -46 5
-84 9 -84 9 0 -1 -26 -7 -58 -14z m119 -72 c27 -13 38 -15 41 -6 6 16 34 4 52
-20 9 -12 21 -17 37 -14 18 3 24 0 24 -14 0 -10 6 -22 13 -26 20 -12 52 -71
43 -80 -4 -4 -11 -1 -16 7 -8 12 -10 10 -10 -7 0 -12 5 -25 10 -28 6 -3 10
-45 10 -92 0 -70 -3 -88 -17 -99 -17 -13 -17 -13 0 -14 9 0 17 -6 17 -13 0 -7
9 -18 20 -25 12 -7 18 -17 15 -22 -9 -15 -25 -12 -25 4 0 8 -6 16 -14 19 -10
4 -12 0 -9 -14 3 -10 10 -19 15 -19 6 0 8 -6 5 -13 -3 -7 2 -22 10 -32 11 -14
17 -16 20 -7 3 6 10 12 16 12 8 0 7 -4 -1 -12 -10 -10 -4 -19 24 -45 20 -17
52 -39 70 -48 19 -9 34 -21 34 -28 0 -7 7 -4 15 6 10 14 20 17 37 11 13 -4 72
-6 132 -5 81 1 115 -3 131 -13 12 -8 32 -12 44 -9 17 4 21 1 21 -17 0 -12 9
-33 20 -47 11 -14 20 -32 20 -40 0 -7 7 -25 16 -39 13 -19 14 -28 5 -37 -6 -6
-11 -27 -11 -48 0 -44 -18 -100 -36 -115 -9 -7 -12 -19 -7 -30 6 -17 5 -17
-11 -5 -13 11 -20 11 -28 3 -9 -9 -9 -12 0 -12 7 0 12 -4 12 -10 0 -14 -33
-13 -48 2 -9 9 -12 8 -12 -4 0 -9 6 -18 13 -21 10 -4 10 -7 0 -18 -11 -11 -13
-10 -13 3 0 9 -12 18 -29 21 -40 8 -129 -2 -168 -19 -17 -8 -42 -14 -55 -14
-21 1 -21 2 7 14 l30 13 -28 8 c-22 6 -31 3 -42 -11 -11 -16 -17 -17 -33 -7
-29 17 -37 2 -10 -19 l23 -18 -31 0 c-36 0 -73 -32 -106 -92 -12 -21 -26 -38
-31 -38 -5 0 -7 -6 -4 -14 3 -8 1 -16 -5 -18 -7 -3 -8 -10 -3 -17 9 -16 13
-281 3 -287 -3 -2 -4 -13 -1 -24 3 -12 12 -19 22 -18 12 2 17 -6 19 -33 2 -28
11 -42 42 -65 22 -16 44 -42 51 -59 6 -16 13 -24 16 -17 7 18 21 15 28 -8 7
-22 40 -27 49 -7 3 6 4 3 1 -9 -5 -19 1 -22 82 -33 49 -7 104 -14 123 -16 19
-3 40 -11 46 -20 14 -19 34 -19 34 0 0 8 4 15 8 15 13 0 39 -32 46 -57 4 -11
13 -24 20 -26 8 -3 17 -21 21 -39 4 -18 12 -38 17 -45 6 -7 4 -19 -4 -32 -10
-16 -10 -26 -2 -38 6 -10 8 -25 4 -33 -49 -102 -59 -116 -96 -136 -21 -11 -45
-19 -53 -16 -7 3 -17 -1 -21 -8 -7 -11 -16 -11 -42 -4 -22 7 -43 7 -62 1 -20
-7 -35 -6 -47 1 -10 7 -44 11 -76 10 -57 -1 -197 26 -219 44 -6 4 -18 6 -26 3
-7 -3 -22 1 -33 9 -11 9 -14 16 -7 16 6 0 12 6 12 14 0 8 7 17 16 20 8 3 12
10 9 16 -6 10 -18 3 -54 -33 -16 -16 -19 -16 -31 -2 -11 13 -10 18 6 29 33 25
7 29 -31 6 -20 -12 -39 -19 -43 -16 -3 4 -1 10 6 15 8 5 6 11 -8 23 -13 12
-20 13 -23 5 -2 -7 -6 -10 -9 -7 -41 44 -121 147 -128 166 -5 13 -14 24 -20
24 -5 0 -10 10 -10 23 0 13 -4 27 -9 33 -23 24 -58 104 -65 144 -4 24 -7 380
-6 789 0 647 2 747 15 754 22 12 18 29 -5 22 -28 -9 -26 11 10 78 17 31 30 65
30 74 0 14 2 15 9 5 6 -10 14 -11 27 -4 64 33 74 35 99 24 14 -7 36 -12 48
-12 18 1 15 5 -15 21 -21 11 -38 22 -38 24 0 10 31 4 66 -12z"/>
<path d="M8500 5300 c0 -5 6 -10 14 -10 8 0 18 5 21 10 3 6 -3 10 -14 10 -12
0 -21 -4 -21 -10z"/>
<path d="M8302 5240 c0 -14 2 -19 5 -12 2 6 2 18 0 25 -3 6 -5 1 -5 -13z"/>
<path d="M9115 4690 c-3 -5 1 -10 9 -10 9 0 16 5 16 10 0 6 -4 10 -9 10 -6 0
-13 -4 -16 -10z"/>
<path d="M8930 4290 c0 -5 5 -10 10 -10 6 0 10 5 10 10 0 6 -4 10 -10 10 -5 0
-10 -4 -10 -10z"/>
<path d="M8258 3503 c6 -2 12 -11 12 -19 0 -8 7 -14 15 -14 8 0 15 4 15 10 0
10 -33 31 -47 29 -4 0 -2 -3 5 -6z"/>
<path d="M8300 3446 c0 -9 5 -16 10 -16 6 0 10 4 10 9 0 6 -4 13 -10 16 -5 3
-10 -1 -10 -9z"/>
<path d="M9115 3421 c-3 -5 -1 -12 5 -16 5 -3 10 1 10 9 0 18 -6 21 -15 7z"/>
<path d="M9165 3397 c-21 -13 -49 -37 -42 -37 13 0 67 33 67 41 0 11 0 11 -25
-4z"/>
<path d="M9190 3360 c0 -5 7 -10 15 -10 8 0 15 5 15 10 0 6 -7 10 -15 10 -8 0
-15 -4 -15 -10z"/>
<path d="M2311 5373 c-58 -30 -110 -87 -129 -144 -9 -27 -12 -287 -12 -1066 0
-1103 -2 -1052 48 -1126 26 -38 88 -81 138 -95 29 -8 167 -12 451 -12 313 0
432 4 504 15 93 14 145 26 184 40 82 30 180 80 231 119 102 78 198 221 243
363 63 199 69 530 12 743 -29 111 -96 238 -165 317 -110 126 -290 213 -496
242 -41 6 -127 13 -190 15 -63 3 -137 12 -165 20 -63 19 -115 62 -143 118 -23
47 -42 144 -42 222 0 27 -5 66 -12 85 -19 55 -70 113 -124 141 -43 22 -64 25
-164 28 -108 2 -118 0 -169 -25z m222 -51 c-13 -2 -23 -7 -23 -12 0 -13 33
-21 44 -10 12 12 46 13 46 1 0 -5 -6 -11 -12 -14 -7 -2 -9 -8 -5 -13 4 -4 16
-3 26 3 15 10 22 9 34 -5 33 -38 50 -89 54 -162 3 -41 7 -82 10 -90 3 -8 5
-25 4 -37 -1 -13 5 -30 13 -39 9 -8 16 -21 16 -29 0 -7 9 -15 20 -18 11 -3 20
-12 20 -21 0 -22 -9 -20 -37 6 -36 33 -38 14 -2 -23 20 -22 33 -30 36 -21 7
19 24 14 21 -5 -2 -12 3 -18 14 -17 10 1 15 -2 13 -7 -9 -13 33 -49 49 -43 9
3 17 -3 21 -16 6 -19 12 -21 43 -15 l37 7 -20 -22 -20 -22 50 7 c28 4 52 8 55
8 3 0 49 -3 103 -7 54 -5 97 -13 97 -19 0 -6 20 -7 56 -3 50 6 56 5 50 -10 -6
-15 -5 -15 18 0 29 18 46 21 46 6 0 -5 -7 -10 -15 -10 -8 0 -15 -4 -15 -10 0
-13 33 -13 47 1 6 6 21 9 34 6 l24 -4 -22 -8 c-33 -11 -18 -25 26 -25 21 0 58
-10 82 -22 63 -33 129 -81 129 -95 0 -7 4 -13 10 -13 5 0 7 7 4 15 -4 10 0 15
10 15 13 0 15 -4 6 -19 -15 -29 -12 -43 8 -37 13 4 26 -9 52 -51 19 -31 39
-61 45 -67 24 -26 44 -74 39 -94 -4 -12 5 -44 20 -77 26 -53 27 -65 33 -275 5
-164 3 -223 -6 -234 -8 -10 -9 -16 -1 -21 13 -8 13 -75 0 -75 -5 0 -10 -17
-10 -37 -1 -36 -1 -37 -16 -18 -14 19 -15 17 -9 -26 5 -36 3 -49 -10 -63 -10
-9 -15 -25 -12 -35 3 -15 0 -17 -17 -13 -19 5 -19 4 -7 -11 11 -15 11 -17 -2
-17 -9 0 -17 -10 -19 -22 -2 -15 -11 -24 -25 -26 -12 -2 -27 -10 -33 -18 -10
-11 -9 -14 9 -14 11 0 21 -4 21 -9 0 -6 -15 -22 -34 -36 -21 -16 -33 -32 -29
-41 3 -8 1 -14 -5 -14 -6 0 -12 6 -15 13 -7 18 -41 -5 -45 -30 -2 -15 -16 -24
-48 -33 -25 -7 -48 -19 -51 -27 -6 -15 -33 -18 -33 -3 0 6 -4 10 -10 10 -18 0
-10 -22 10 -27 11 -3 20 -9 20 -14 0 -12 -24 -11 -37 2 -7 7 -23 5 -54 -6 -24
-9 -51 -20 -59 -24 -8 -4 -48 -7 -88 -6 -40 0 -76 -3 -78 -7 -3 -4 6 -8 20 -8
14 0 26 -4 26 -10 0 -11 -43 -14 -53 -4 -3 4 -153 6 -333 5 -304 -2 -327 -1
-339 16 -13 17 -14 17 -20 1 -8 -20 -60 -25 -71 -7 -3 6 -19 9 -35 5 -18 -3
-29 -1 -29 6 0 6 -11 8 -29 5 -22 -5 -34 0 -55 22 -14 15 -26 34 -26 42 0 8
-9 20 -19 26 -19 12 -19 36 -18 1040 2 1001 3 1029 21 1058 11 17 29 39 39 49
16 15 23 17 38 8 11 -7 20 -8 24 -2 3 6 -1 10 -9 10 -9 0 -16 4 -16 8 0 19 15
21 37 7 23 -15 43 -13 43 5 0 5 -8 10 -17 12 -10 2 18 3 62 3 44 0 70 -1 58
-3z m777 -622 c0 -5 -11 -10 -25 -10 -14 0 -25 5 -25 10 0 6 11 10 25 10 14 0
25 -4 25 -10z m540 -310 c0 -5 -4 -10 -10 -10 -5 0 -10 5 -10 10 0 6 5 10 10
10 6 0 10 -4 10 -10z m60 -150 c0 -5 -4 -10 -10 -10 -5 0 -10 5 -10 10 0 6 5
10 10 10 6 0 10 -4 10 -10z"/>
<path d="M2463 5283 c9 -2 23 -2 30 0 6 3 -1 5 -18 5 -16 0 -22 -2 -12 -5z"/>
<path d="M2710 4825 c0 -8 5 -15 10 -15 6 0 10 7 10 15 0 8 -4 15 -10 15 -5 0
-10 -7 -10 -15z"/>
<path d="M3027 4693 c-15 -14 -6 -19 24 -15 22 3 27 7 18 13 -17 10 -33 11
-42 2z"/>
<path d="M2978 4643 c6 -2 18 -2 25 0 6 3 1 5 -13 5 -14 0 -19 -2 -12 -5z"/>
<path d="M3278 4643 c6 -2 18 -2 25 0 6 3 1 5 -13 5 -14 0 -19 -2 -12 -5z"/>
<path d="M3835 4287 c-4 -10 -5 -21 -1 -24 10 -10 18 4 13 24 -4 17 -4 17 -12
0z"/>
<path d="M3041 4227 c-5 -5 -22 -10 -38 -11 -17 -2 -36 -7 -44 -12 -32 -20
-62 -34 -75 -34 -8 0 -14 -7 -14 -16 0 -14 -2 -15 -16 -3 -15 12 -16 11 -9
-10 6 -20 4 -23 -9 -18 -13 5 -15 2 -10 -18 4 -15 2 -25 -5 -25 -6 0 -11 -7
-11 -16 0 -8 -5 -12 -10 -9 -8 5 -8 11 -1 19 6 7 8 16 4 19 -11 11 -23 8 -23
-7 0 -7 -13 -28 -29 -47 -22 -25 -27 -37 -19 -46 7 -9 6 -19 -3 -35 -10 -16
-14 -52 -12 -123 3 -123 10 -165 30 -165 10 0 13 -6 9 -15 -4 -10 2 -19 17
-25 l22 -9 -22 0 c-26 -1 -31 -19 -8 -27 12 -5 13 -10 4 -20 -9 -11 -8 -14 4
-14 8 0 20 7 27 15 7 8 18 15 24 15 7 0 7 -3 -1 -8 -7 -4 -16 -23 -19 -42 -5
-23 -4 -31 4 -26 6 4 9 13 5 21 -10 27 14 15 41 -20 15 -19 33 -35 40 -35 7 0
20 -8 30 -19 13 -14 37 -19 104 -24 64 -4 103 -2 147 10 33 9 76 16 96 16 28
-1 39 5 55 28 10 16 24 29 30 29 7 0 14 7 18 15 7 20 24 19 29 -2 2 -10 2 -3
0 16 -4 27 -1 33 11 28 10 -4 23 8 41 39 14 24 25 50 24 57 -1 6 -1 33 0 60 1
47 15 63 25 30 3 -10 3 0 1 21 -2 22 1 46 7 53 8 10 6 13 -11 13 -16 0 -21 6
-21 29 0 35 19 91 31 91 12 0 11 37 -1 45 -6 4 -10 -5 -10 -20 0 -42 -25 -24
-28 20 -2 26 -6 34 -12 25 -7 -11 -11 -11 -24 -1 -9 8 -16 19 -16 26 0 7 -7
15 -15 19 -8 3 -15 12 -15 21 0 8 -7 15 -16 15 -10 0 -14 6 -11 14 4 10 1 13
-9 9 -7 -3 -14 0 -14 6 0 12 -26 15 -33 4 -2 -5 -3 -3 -1 3 3 16 -60 42 -121
50 -27 4 -59 11 -70 17 -26 14 -62 16 -74 4z m196 -116 c29 -10 65 -28 82 -40
16 -12 42 -47 58 -79 26 -52 28 -66 28 -172 0 -108 -2 -118 -29 -168 -55 -99
-129 -134 -279 -133 -76 0 -108 5 -147 22 -29 13 -66 39 -86 63 -49 58 -67
127 -62 245 3 83 8 103 33 149 33 61 68 89 140 114 69 24 195 24 262 -1z
m-467 -106 c0 -8 -4 -15 -10 -15 -5 0 -10 7 -10 15 0 8 5 15 10 15 6 0 10 -7
10 -15z"/>
<path d="M3830 4205 c0 -8 5 -15 10 -15 6 0 10 7 10 15 0 8 -4 15 -10 15 -5 0
-10 -7 -10 -15z"/>
<path d="M3852 4171 c2 -7 7 -12 11 -12 12 1 9 15 -3 20 -7 2 -11 -2 -8 -8z"/>
<path d="M2785 4150 c-3 -5 1 -10 10 -10 9 0 13 5 10 10 -3 6 -8 10 -10 10 -2
0 -7 -4 -10 -10z"/>
<path d="M3500 4150 c0 -5 5 -10 10 -10 6 0 10 5 10 10 0 6 -4 10 -10 10 -5 0
-10 -4 -10 -10z"/>
<path d="M3410 4122 c0 -10 27 -42 35 -42 3 0 1 10 -4 22 -8 23 -31 37 -31 20z"/>
<path d="M3470 4120 c0 -5 5 -10 10 -10 6 0 10 5 10 10 0 6 -4 10 -10 10 -5 0
-10 -4 -10 -10z"/>
<path d="M3500 4080 c0 -5 5 -10 10 -10 6 0 10 5 10 10 0 6 -4 10 -10 10 -5 0
-10 -4 -10 -10z"/>
<path d="M3496 3912 c-3 -6 -1 -14 5 -17 15 -10 25 3 12 16 -7 7 -13 7 -17 1z"/>
<path d="M2710 3651 c0 -6 5 -13 10 -16 6 -3 10 1 10 9 0 9 -4 16 -10 16 -5 0
-10 -4 -10 -9z"/>
<path d="M3897 3643 c-11 -10 -8 -63 3 -63 6 0 10 16 10 35 0 36 -2 40 -13 28z"/>
<path d="M2755 3531 c-3 -5 -1 -12 5 -16 5 -3 10 1 10 9 0 18 -6 21 -15 7z"/>
<path d="M3830 3510 c0 -5 5 -10 10 -10 6 0 10 5 10 10 0 6 -4 10 -10 10 -5 0
-10 -4 -10 -10z"/>
<path d="M3860 3474 c0 -8 5 -12 10 -9 6 3 10 10 10 16 0 5 -4 9 -10 9 -5 0
-10 -7 -10 -16z"/>
<path d="M3616 3171 c-4 -5 -2 -12 3 -15 5 -4 12 -2 15 3 4 5 2 12 -3 15 -5 4
-12 2 -15 -3z"/>
<path d="M3555 3160 c4 -6 11 -8 16 -5 14 9 11 15 -7 15 -8 0 -12 -5 -9 -10z"/>
<path d="M3535 3130 c-3 -5 1 -10 10 -10 9 0 13 5 10 10 -3 6 -8 10 -10 10 -2
0 -7 -4 -10 -10z"/>
<path d="M4955 4789 c-131 -11 -209 -27 -304 -61 -106 -38 -178 -83 -259 -162
-64 -61 -88 -92 -133 -176 -91 -165 -129 -439 -99 -705 12 -104 20 -139 62
-254 36 -99 82 -175 152 -250 108 -113 249 -185 441 -222 94 -19 436 -19 530
-1 142 28 275 85 367 157 55 43 168 169 168 188 0 5 9 21 19 35 27 38 68 167
85 265 30 172 29 374 -3 552 -24 137 -95 283 -184 380 -110 121 -244 194 -432
234 -44 10 -298 33 -314 30 -3 -1 -46 -5 -96 -10z m-25 -94 c-10 -13 -9 -15 9
-15 12 0 21 6 21 16 0 14 17 15 143 10 78 -3 158 -7 177 -10 92 -14 116 -19
126 -27 6 -5 19 -7 28 -3 9 3 16 1 16 -5 0 -6 -5 -11 -11 -11 -5 0 -7 -5 -3
-12 6 -9 9 -9 12 0 2 7 11 12 21 12 32 0 116 -48 135 -77 22 -34 66 -59 66
-37 0 8 7 14 15 14 17 0 20 -26 5 -35 -7 -4 -3 -14 11 -26 14 -12 30 -17 45
-13 25 6 31 -5 13 -23 -8 -8 -6 -18 7 -37 12 -19 20 -24 27 -17 17 17 29 13
22 -7 -3 -11 3 -29 13 -43 10 -13 24 -45 32 -72 7 -26 17 -50 21 -53 5 -3 9
-20 9 -38 0 -18 6 -54 14 -80 8 -26 12 -63 9 -82 -4 -24 -2 -34 7 -34 10 0 11
-16 6 -67 -4 -38 -9 -115 -12 -173 -4 -104 -29 -254 -47 -277 -5 -7 -6 -21 -3
-31 5 -13 -1 -22 -19 -30 -17 -8 -25 -20 -25 -36 0 -14 -14 -39 -35 -60 -19
-20 -35 -40 -35 -45 0 -5 -13 -21 -30 -34 -19 -17 -28 -31 -24 -41 4 -10 1
-16 -9 -16 -9 0 -19 5 -22 10 -12 20 -27 10 -21 -15 5 -19 3 -23 -8 -19 -8 3
-24 -4 -35 -15 -12 -12 -34 -21 -51 -21 -17 0 -39 -9 -50 -20 -11 -11 -30 -20
-43 -20 -13 0 -28 -5 -35 -12 -6 -6 -32 -11 -57 -12 -25 -1 -45 -4 -45 -8 0
-5 5 -8 10 -8 6 0 10 -4 10 -10 0 -5 -9 -10 -20 -10 -11 0 -20 5 -20 10 0 14
-63 13 -77 -1 -15 -15 -281 -15 -296 0 -6 6 -31 11 -55 11 -45 0 -109 14 -149
32 -12 6 -40 11 -62 12 -40 1 -54 10 -29 18 9 3 8 9 -4 21 -22 23 -31 21 -25
-3 6 -22 5 -23 -17 -14 -19 7 -21 40 -3 47 6 2 8 8 4 13 -5 5 -15 0 -23 -11
-13 -17 -16 -18 -24 -5 -6 9 -5 19 0 24 6 6 10 15 10 21 -1 5 -12 -3 -25 -20
-19 -23 -27 -27 -36 -18 -10 10 -9 14 4 19 28 11 19 27 -10 19 -23 -5 -26 -4
-15 6 16 17 15 29 -3 29 -8 0 -15 -5 -15 -11 0 -5 -5 -7 -10 -4 -7 5 -8 11 -1
19 14 17 -24 39 -52 30 -19 -6 -18 -3 8 21 l30 28 -29 -7 c-17 -4 -25 -3 -22
3 3 5 4 16 0 24 -3 9 -13 13 -26 9 -17 -4 -20 -2 -15 11 3 9 -3 27 -15 42 -16
20 -17 29 -8 40 6 8 8 20 4 26 -5 9 -11 7 -21 -6 -13 -18 -13 -18 -13 1 0 10
4 25 9 33 7 10 4 19 -7 27 -14 11 -15 16 -4 33 15 26 16 39 0 23 -21 -21 -30
-13 -23 18 5 21 1 43 -10 67 -14 28 -15 40 -6 57 8 14 9 37 4 66 -12 63 -4
316 10 338 5 7 6 21 2 31 -7 24 14 71 32 71 7 0 13 -8 14 -17 0 -11 2 -13 6
-5 3 7 -2 24 -11 37 -9 13 -16 32 -16 42 1 17 1 17 14 0 10 -13 16 -15 21 -6
4 6 1 15 -6 20 -11 7 -12 12 -1 26 7 10 18 29 25 43 7 14 25 44 40 67 15 24
27 45 27 48 0 3 6 12 12 19 11 11 15 11 25 -3 6 -9 15 -13 19 -8 4 4 2 13 -4
19 -7 7 -12 18 -12 26 0 12 3 12 15 2 13 -11 18 -10 30 6 8 10 15 22 15 26 0
12 57 38 81 38 12 0 20 3 16 6 -3 4 4 15 16 24 15 13 26 15 34 8 8 -7 21 -7
40 0 18 7 21 11 11 11 -10 1 -18 6 -18 11 0 6 18 10 39 10 22 0 43 5 46 10 3
6 14 10 23 10 16 -1 16 -2 0 -14 -29 -21 -8 -27 22 -6 16 11 35 20 43 20 9 0
19 5 22 10 3 6 20 10 37 10 26 0 29 -2 18 -15z m718 -121 c8 -6 11 -13 6 -17
-5 -3 -18 1 -28 8 -13 10 -16 20 -11 32 6 15 8 15 13 3 3 -8 12 -20 20 -26z
m78 -81 c-10 -10 -19 5 -10 18 6 11 8 11 12 0 2 -7 1 -15 -2 -18z m72 -55 c-6
-18 -28 -21 -28 -4 0 9 7 16 16 16 9 0 14 -5 12 -12z"/>
<path d="M4880 4670 c-12 -8 -11 -10 8 -10 12 0 22 5 22 10 0 13 -11 13 -30 0z"/>
<path d="M5120 4281 c0 -13 -50 -25 -92 -22 -22 2 -38 -2 -38 -8 0 -6 -17 -11
-39 -11 -22 0 -44 -6 -51 -15 -7 -8 -18 -15 -24 -15 -6 0 -23 -11 -38 -25 -15
-14 -32 -25 -39 -25 -6 0 -9 -8 -6 -19 3 -15 -5 -23 -34 -37 -22 -9 -39 -21
-39 -25 0 -5 7 -6 15 -3 23 9 18 -7 -12 -38 -22 -23 -24 -30 -13 -43 7 -8 8
-15 2 -15 -6 0 -9 -31 -9 -77 1 -52 -2 -78 -11 -81 -17 -5 -15 -33 4 -46 9 -7
16 -29 17 -51 2 -39 13 -59 70 -118 15 -16 24 -33 21 -39 -4 -7 4 -8 23 -4 21
5 34 2 43 -9 12 -14 11 -18 0 -25 -8 -5 -12 -11 -9 -15 3 -3 48 -15 100 -26
71 -15 110 -19 159 -14 36 4 83 13 105 21 22 7 48 14 58 14 9 0 17 3 17 6 0 4
-8 13 -17 20 -16 12 -15 13 10 14 15 0 27 5 27 10 0 6 8 10 18 10 16 -1 16 -1
0 -14 -22 -16 -23 -26 -3 -26 8 0 15 7 15 15 0 8 4 15 9 15 5 0 7 9 4 21 -4
15 0 22 16 26 12 3 21 13 21 25 0 14 5 18 18 14 15 -5 18 0 17 27 0 17 6 42
14 54 10 18 12 57 9 164 -3 119 -6 143 -21 154 -19 14 -23 35 -6 35 7 0 0 9
-15 21 -21 17 -24 24 -15 35 20 24 4 25 -21 2 -19 -18 -22 -19 -17 -5 5 13 -2
25 -21 42 -15 13 -39 27 -54 30 -14 3 -36 15 -49 26 -14 12 -37 19 -64 19 -23
0 -45 3 -48 7 -4 3 -2 12 4 20 9 9 8 13 0 13 -6 0 -11 -4 -11 -9z m48 -116
c54 -7 113 -36 147 -72 14 -16 35 -48 47 -73 17 -36 21 -65 22 -140 1 -54 -5
-116 -13 -143 -8 -26 -31 -67 -53 -92 -53 -60 -121 -85 -232 -85 -109 0 -177
21 -231 71 -60 56 -80 116 -79 239 0 76 5 105 23 147 13 29 40 68 61 87 41 37
86 55 164 66 51 7 60 6 144 -5z"/>
<path d="M5256 4261 c-4 -7 -5 -15 -2 -18 9 -9 19 4 14 18 -4 11 -6 11 -12 0z"/>
<path d="M4275 4169 c-10 -15 3 -25 16 -12 7 7 7 13 1 17 -6 3 -14 1 -17 -5z"/>
<path d="M4262 3965 c0 -16 2 -22 5 -12 2 9 2 23 0 30 -3 6 -5 -1 -5 -18z"/>
<path d="M4650 3931 c0 -6 5 -13 10 -16 6 -3 10 1 10 9 0 9 -4 16 -10 16 -5 0
-10 -4 -10 -9z"/>
<path d="M4260 3824 c0 -8 5 -12 10 -9 6 4 8 11 5 16 -9 14 -15 11 -15 -7z"/>
<path d="M4660 3721 c0 -12 5 -21 10 -21 6 0 10 6 10 14 0 8 -4 18 -10 21 -5
3 -10 -3 -10 -14z"/>
<path d="M4282 3695 c0 -16 2 -22 5 -12 2 9 2 23 0 30 -3 6 -5 -1 -5 -18z"/>
<path d="M5420 3594 c0 -8 5 -12 10 -9 6 4 8 11 5 16 -9 14 -15 11 -15 -7z"/>
<path d="M4830 3545 c0 -8 7 -15 15 -15 8 0 15 7 15 15 0 8 -7 15 -15 15 -8 0
-15 -7 -15 -15z"/>
<path d="M5757 3348 c-8 -29 -2 -34 17 -15 13 12 13 17 2 26 -11 9 -15 7 -19
-11z"/>
<path d="M6937 4789 c-143 -10 -258 -38 -377 -92 -95 -43 -207 -135 -260 -213
-39 -56 -84 -147 -108 -219 -39 -119 -47 -183 -47 -400 0 -217 8 -282 47 -400
32 -94 93 -205 150 -268 91 -104 269 -221 378 -249 142 -37 281 -34 400 8 109
38 177 53 246 54 47 0 78 -7 135 -32 68 -29 83 -32 189 -32 89 -1 123 3 150
16 45 22 113 93 131 138 12 29 14 162 14 771 0 796 3 750 -53 826 -13 18 -40
42 -59 54 -67 42 -136 48 -493 47 -184 0 -384 -4 -443 -9z m743 -81 c0 -5 22
-8 49 -8 36 0 60 -7 90 -27 23 -15 41 -33 41 -40 0 -7 7 -13 15 -13 15 0 20
-26 17 -79 -1 -14 2 -30 6 -35 4 -6 5 -274 2 -596 -3 -409 -2 -592 6 -609 7
-15 8 -42 3 -73 -5 -29 -4 -58 1 -68 13 -24 0 -33 -17 -12 -13 15 -14 13 -8
-20 5 -29 3 -37 -8 -32 -7 2 -24 -9 -37 -26 -20 -27 -29 -30 -74 -30 -29 0
-57 -5 -64 -12 -9 -9 -25 -8 -68 1 -32 7 -96 26 -143 42 -94 31 -132 35 -213
18 -67 -13 -180 -49 -193 -60 -5 -5 -19 -9 -32 -9 -13 0 -23 -4 -23 -10 0 -5
-11 -10 -25 -10 -31 0 -33 17 -2 23 16 3 14 5 -10 6 -17 0 -33 -3 -35 -8 -4
-11 -188 -20 -188 -9 0 4 5 8 11 8 5 0 7 5 3 11 -3 6 -15 8 -26 5 -11 -2 -37
4 -57 15 -19 10 -41 19 -47 19 -20 0 -114 64 -114 78 0 7 -9 22 -19 33 -13 14
-21 17 -26 9 -4 -7 -2 -17 4 -23 6 -6 11 -18 11 -26 0 -11 -5 -9 -20 7 -11 12
-19 25 -18 29 4 13 -61 72 -75 69 -7 -1 -9 -1 -4 1 11 7 9 43 -3 43 -5 0 -10
-4 -10 -10 0 -5 -4 -10 -10 -10 -16 0 -12 14 11 39 12 12 18 25 14 29 -4 4
-10 1 -12 -5 -3 -7 -9 -13 -15 -13 -16 0 -38 28 -38 49 0 12 -4 21 -10 21 -5
0 -10 6 -10 13 0 7 -10 28 -23 47 -39 58 -51 139 -49 309 2 101 -2 158 -9 167
-7 8 -9 34 -5 66 3 29 8 74 11 101 4 44 23 115 47 179 5 15 7 32 3 38 -4 6 -1
18 6 26 10 13 15 12 36 -7 12 -13 23 -17 23 -11 0 7 -4 12 -9 12 -5 0 -11 8
-14 18 -2 9 -8 25 -12 34 -5 13 -2 15 14 11 14 -3 21 -1 21 8 0 8 9 20 20 27
11 7 20 20 20 29 0 14 -3 14 -22 -3 l-22 -19 20 27 c10 15 23 28 28 28 5 0 14
7 20 16 7 9 18 12 29 8 24 -9 21 -24 -5 -24 -17 0 -19 -3 -10 -12 9 -9 16 -8
29 4 10 8 25 18 33 21 11 4 9 6 -5 6 -11 1 -26 11 -34 22 -11 19 -11 21 4 15
21 -8 55 10 55 29 0 16 30 35 54 35 9 0 37 10 62 22 40 18 51 20 77 10 21 -8
35 -8 41 -2 7 7 1 10 -17 10 -15 0 -27 4 -27 9 0 16 36 22 64 11 15 -5 29 -10
31 -10 1 0 2 8 1 18 -1 15 7 17 62 14 38 -3 62 0 62 6 0 6 17 12 38 14 79 7
722 3 722 -4z m-1460 -854 c0 -8 -4 -14 -10 -14 -5 0 -10 9 -10 21 0 11 5 17
10 14 6 -3 10 -13 10 -21z m1540 -844 c0 -5 -7 -10 -16 -10 -8 0 -12 5 -9 10
3 6 10 10 16 10 5 0 9 -4 9 -10z"/>
<path d="M7000 4690 c-24 -8 -23 -8 8 -9 20 -1 31 3 27 9 -3 6 -7 10 -8 9 -1
-1 -13 -5 -27 -9z"/>
<path d="M6540 4582 c0 -13 -6 -22 -15 -22 -16 0 -20 -16 -6 -24 5 -3 16 6 26
20 12 19 14 29 6 37 -8 8 -11 5 -11 -11z"/>
<path d="M6380 4406 c0 -9 5 -16 10 -16 6 0 10 4 10 9 0 6 -4 13 -10 16 -5 3
-10 -1 -10 -9z"/>
<path d="M6350 4372 c0 -13 39 -46 46 -39 3 3 -4 15 -15 26 -23 23 -31 26 -31
13z"/>
<path d="M7248 4303 c6 -2 18 -2 25 0 6 3 1 5 -13 5 -14 0 -19 -2 -12 -5z"/>
<path d="M7195 4290 c-3 -5 3 -10 15 -10 12 0 18 5 15 10 -3 6 -10 10 -15 10
-5 0 -12 -4 -15 -10z"/>
<path d="M6966 4248 c19 -21 19 -21 -1 -14 -39 15 -85 19 -85 7 0 -6 5 -11 10
-11 6 0 10 -4 10 -9 0 -5 -15 -12 -33 -15 -37 -7 -117 -70 -117 -92 0 -8 -4
-14 -10 -14 -5 0 -10 5 -10 11 0 5 -5 7 -11 3 -8 -4 -7 -9 2 -16 10 -7 11 -11
2 -14 -6 -3 -23 -21 -38 -40 -21 -27 -24 -38 -15 -49 7 -9 8 -15 0 -20 -5 -3
-10 -1 -10 4 0 6 -4 11 -10 11 -6 0 -10 -30 -10 -71 0 -50 3 -68 11 -63 9 5
10 -7 5 -43 -3 -29 -2 -63 4 -78 6 -15 23 -40 40 -56 16 -16 27 -36 24 -43 -3
-7 2 -19 11 -26 14 -12 18 -11 27 1 8 11 9 10 4 -4 -8 -25 17 -47 61 -54 21
-4 45 -14 53 -23 8 -9 33 -24 55 -35 57 -27 240 -33 314 -11 29 8 60 24 67 33
11 15 15 16 23 4 7 -11 10 -9 13 10 2 16 9 23 21 21 20 -3 37 33 37 78 0 16 5
32 10 35 7 5 10 88 9 246 l-2 239 -34 21 c-18 11 -33 25 -33 30 0 5 -6 9 -14
9 -26 0 -28 20 -4 29 20 8 21 10 5 16 -9 4 -23 3 -30 -2 -6 -6 -22 -13 -34
-16 -15 -3 -23 -1 -23 8 0 10 -10 12 -35 8 -23 -4 -35 -2 -35 6 0 7 -26 11
-75 11 -43 0 -75 -4 -75 -10 0 -5 -9 -10 -19 -10 -11 0 -23 5 -26 10 -3 6 -16
10 -27 10 -21 0 -21 0 -2 -22z m291 -84 c24 -3 52 -15 67 -29 l26 -24 0 -235
0 -234 -26 -31 c-14 -17 -42 -35 -62 -41 -20 -5 -91 -10 -157 -10 -103 0 -128
4 -177 24 -77 32 -127 73 -168 142 -32 53 -35 64 -35 138 0 66 4 90 25 129 28
56 90 116 151 148 62 31 216 42 356 23z"/>
<path d="M6760 3530 c6 -11 15 -18 21 -14 6 4 6 11 -2 20 -17 21 -31 17 -19
-6z"/>
<path d="M6836 3533 c-3 -3 -3 -10 0 -14 7 -12 34 -11 34 0 0 11 -26 22 -34
14z"/>
<path d="M6382 3390 c0 -14 2 -19 5 -12 2 6 2 18 0 25 -3 6 -5 1 -5 -13z"/>
<path d="M7830 3131 c0 -6 5 -13 10 -16 6 -3 10 1 10 9 0 9 -4 16 -10 16 -5 0
-10 -4 -10 -9z"/>
<path d="M5692 4751 c4 -13 18 -16 19 -4 0 4 -5 9 -11 12 -7 2 -11 -2 -8 -8z"/>
<path d="M9396 4171 c-4 -5 -2 -12 3 -15 5 -4 12 -2 15 3 4 5 2 12 -3 15 -5 4
-12 2 -15 -3z"/>
<path d="M6295 3040 c4 -6 11 -8 16 -5 14 9 11 15 -7 15 -8 0 -12 -5 -9 -10z"/>
<path d="M9375 2929 c-10 -15 3 -25 16 -12 7 7 7 13 1 17 -6 3 -14 1 -17 -5z"/>
<path d="M1534 2495 c-25 -26 -26 -27 -19 -130 5 -64 4 -105 -2 -105 -5 0 -20
11 -33 25 -12 13 -45 32 -72 41 -42 14 -55 14 -99 3 -40 -10 -60 -24 -93 -59
-64 -73 -82 -168 -50 -277 9 -30 29 -69 45 -88 34 -38 106 -75 148 -75 40 0
91 23 120 54 14 14 28 26 33 26 4 0 8 -11 8 -23 0 -29 29 -57 58 -57 12 0 29
11 37 24 14 20 16 67 16 312 0 159 -1 294 -1 301 0 16 -40 53 -57 53 -8 0 -25
-11 -39 -25z m-95 -270 c16 -8 38 -34 50 -58 53 -109 -1 -237 -99 -237 -26 0
-45 8 -64 25 -34 32 -46 64 -46 130 0 66 12 98 46 130 31 29 71 32 113 10z"/>
<path d="M2949 2507 c-8 -7 -19 -21 -23 -32 -5 -11 -8 -152 -7 -314 1 -260 3
-296 17 -313 23 -25 56 -23 83 6 21 22 23 33 19 87 -4 61 -4 63 31 95 39 36
51 41 51 21 0 -17 93 -173 121 -203 12 -13 32 -24 44 -24 27 0 55 30 55 58 0
21 -75 150 -127 218 -12 17 -23 35 -23 40 0 5 25 31 55 57 42 37 55 55 55 76
0 30 -27 61 -54 61 -17 0 -98 -79 -163 -157 -20 -24 -39 -41 -43 -38 -4 2 -5
77 -2 165 5 158 4 161 -18 185 -26 27 -47 31 -71 12z m63 -419 c-10 -22 -11
-21 -11 12 -1 26 2 31 11 22 8 -8 8 -17 0 -34z"/>
<path d="M5570 2498 c-22 -21 -23 -26 -17 -129 3 -59 3 -109 0 -112 -2 -3 -17
8 -32 25 -17 20 -44 34 -80 44 -43 11 -62 11 -100 1 -57 -15 -121 -77 -138
-135 -7 -23 -13 -69 -13 -102 0 -33 6 -79 13 -101 6 -23 29 -61 51 -86 41 -47
90 -73 137 -73 35 0 110 34 135 61 9 10 21 19 26 19 4 0 8 -11 8 -23 0 -26 28
-57 51 -57 8 0 23 7 34 16 19 14 20 28 23 318 3 295 2 303 -18 329 -12 15 -29
27 -39 27 -9 0 -28 -10 -41 -22z m-86 -279 c41 -32 59 -77 59 -141 -1 -94 -45
-148 -122 -148 -25 0 -41 8 -66 34 -30 33 -45 72 -45 120 0 43 22 96 51 126
37 36 84 40 123 9z"/>
<path d="M2156 2489 c-31 -24 -34 -59 -6 -84 24 -21 72 -24 94 -5 9 7 16 27
16 46 0 23 -7 38 -22 48 -30 21 -50 20 -82 -5z"/>
<path d="M9097 2486 c-13 -14 -24 -33 -24 -43 0 -28 34 -56 67 -56 17 0 38 7
47 16 17 16 20 74 6 88 -5 5 -23 11 -40 15 -26 5 -36 2 -56 -20z"/>
<path d="M6736 2391 c-4 -5 -2 -12 3 -15 5 -4 12 -2 15 3 4 5 2 12 -3 15 -5 4
-12 2 -15 -3z"/>
<path d="M3796 2371 c-4 -5 -2 -12 3 -15 5 -4 12 -2 15 3 4 5 2 12 -3 15 -5 4
-12 2 -15 -3z"/>
<path d="M1761 2314 c-20 -25 -21 -39 -21 -229 0 -190 1 -204 21 -229 24 -30
59 -34 82 -8 13 15 17 39 17 117 0 134 15 217 46 246 23 21 26 22 79 9 50 -12
57 -12 75 5 25 23 26 56 2 76 -10 9 -40 21 -65 28 -39 9 -52 9 -75 -3 -16 -8
-34 -26 -40 -41 -13 -28 -32 -26 -32 4 0 22 -30 51 -53 51 -8 0 -25 -12 -36
-26z"/>
<path d="M2165 2317 l-26 -22 -1 -209 c-1 -204 0 -210 22 -233 27 -28 54 -29
81 -5 18 18 19 31 17 242 l-3 224 -32 13 c-29 12 -35 11 -58 -10z"/>
<path d="M2388 2321 c-16 -16 -18 -42 -18 -238 0 -200 2 -221 18 -236 10 -10
27 -17 38 -17 22 0 64 34 65 53 0 7 0 70 -1 140 -1 107 1 133 16 155 28 43 57
61 95 62 24 0 42 -7 55 -21 17 -18 20 -42 24 -190 5 -153 7 -170 25 -183 27
-21 59 -20 78 2 15 16 17 45 17 204 l0 185 -33 38 c-64 74 -177 78 -248 9 -35
-34 -56 -34 -43 1 8 19 -27 55 -53 54 -10 0 -26 -8 -35 -18z"/>
<path d="M3523 2326 c-77 -18 -123 -71 -123 -142 0 -30 7 -44 38 -73 35 -33
82 -53 183 -75 32 -7 79 -43 79 -61 0 -7 -12 -23 -26 -34 -29 -23 -89 -28
-126 -10 -13 6 -35 28 -50 50 -31 44 -64 51 -91 21 -20 -22 -21 -45 -4 -74 29
-50 62 -71 139 -88 46 -11 69 -10 120 0 35 7 75 22 91 32 29 21 67 89 67 120
0 35 -30 77 -73 101 -23 14 -76 33 -117 42 -85 21 -120 39 -120 65 0 26 25 42
75 48 43 4 48 2 84 -36 21 -22 47 -43 58 -46 23 -7 73 27 73 50 0 8 -19 34
-43 58 -32 32 -55 45 -88 51 -62 11 -101 11 -146 1z"/>
<path d="M4693 2323 c-23 -15 -23 -19 -23 -232 1 -196 2 -218 19 -238 26 -31
65 -29 91 4 20 26 21 36 18 161 -4 114 -2 136 13 162 10 16 29 36 43 45 35 23
85 16 108 -16 18 -23 20 -42 19 -176 -2 -138 0 -152 19 -176 26 -32 60 -35 86
-6 17 19 19 37 17 207 l-2 186 -38 38 c-31 31 -50 40 -93 47 -63 10 -100 -2
-155 -50 -35 -31 -39 -30 -35 4 2 23 -28 57 -49 56 -9 0 -26 -7 -38 -16z"/>
<path d="M6028 2321 c-16 -16 -18 -41 -18 -234 0 -204 1 -218 20 -237 26 -26
62 -25 86 1 16 18 20 42 24 181 l5 160 28 24 c17 15 41 24 60 24 25 0 37 -7
49 -28 14 -23 16 -54 14 -180 -2 -147 -2 -154 20 -177 27 -29 57 -32 84 -7 16
15 19 36 22 174 l3 157 29 30 c39 40 86 43 110 6 14 -21 17 -51 15 -177 -1
-135 1 -153 19 -177 27 -37 64 -39 91 -5 19 24 21 39 21 169 0 78 -3 163 -6
189 -9 60 -46 99 -110 115 -56 14 -101 3 -156 -40 l-36 -28 -16 23 c-9 14 -37
31 -65 41 -42 14 -56 14 -90 4 -23 -7 -56 -25 -73 -41 l-33 -29 -3 23 c-8 53
-60 74 -94 39z"/>
<path d="M6976 2329 c-59 -14 -115 -49 -139 -89 -51 -81 -60 -175 -26 -265 27
-72 83 -117 169 -135 49 -10 72 -10 115 -1 64 14 111 44 142 90 17 24 20 38
13 51 -16 29 -41 33 -72 10 -75 -56 -103 -70 -135 -70 -19 0 -47 7 -62 15 -32
16 -67 69 -66 100 0 19 6 20 136 17 109 -3 142 -1 166 12 50 25 56 68 22 141
-26 54 -88 111 -132 119 -65 13 -93 14 -131 5z m87 -93 c44 -18 69 -49 70 -86
l2 -31 -107 -2 c-118 -2 -129 3 -104 51 18 34 55 69 81 75 11 3 21 5 23 6 1 0
17 -5 35 -13z"/>
<path d="M7362 2320 c-21 -20 -22 -28 -22 -229 0 -196 1 -210 21 -235 25 -31
59 -34 85 -5 16 18 19 39 21 153 1 72 5 144 8 161 8 42 43 75 79 75 17 0 36
-4 43 -8 25 -16 33 -68 33 -215 0 -140 2 -154 20 -170 28 -24 53 -21 82 8 25
25 26 27 22 160 -5 146 3 178 48 209 31 22 64 20 88 -6 18 -20 20 -35 20 -183
0 -156 1 -162 23 -183 13 -12 32 -22 43 -22 11 0 30 10 42 23 21 22 22 32 22
196 0 183 -4 204 -52 248 -12 11 -42 26 -66 32 -32 9 -52 9 -83 -1 -23 -6 -54
-25 -70 -40 l-28 -28 -25 26 c-35 38 -85 53 -141 43 -44 -8 -94 -36 -95 -51 0
-5 -7 -8 -15 -8 -8 0 -15 8 -15 18 0 22 -30 52 -51 52 -9 0 -25 -9 -37 -20z"/>
<path d="M8708 2321 c-16 -16 -18 -42 -18 -238 0 -200 2 -221 18 -236 10 -10
27 -17 38 -17 22 0 63 34 65 53 1 7 0 53 -1 103 -2 111 14 198 43 224 22 21
72 27 82 10 9 -14 61 -12 72 3 33 42 10 85 -56 107 -32 10 -46 10 -69 1 -16
-7 -39 -26 -52 -43 -17 -23 -24 -27 -31 -17 -4 7 -5 17 -2 22 8 13 -28 47 -51
46 -12 0 -29 -8 -38 -18z"/>
<path d="M9105 2316 c-25 -25 -25 -25 -25 -235 0 -203 1 -211 22 -231 27 -25
60 -26 82 -1 14 16 16 44 14 241 l-3 224 -33 13 c-30 12 -34 12 -57 -11z"/>
<path d="M9465 2325 c-57 -14 -102 -44 -128 -85 -34 -51 -47 -96 -47 -161 0
-83 35 -158 91 -196 47 -31 109 -53 154 -53 15 0 52 7 83 16 87 25 152 99 124
140 -17 25 -43 22 -86 -10 -24 -19 -53 -39 -64 -45 -29 -15 -78 -14 -112 4
-30 16 -74 87 -67 108 2 8 46 10 141 9 152 -2 191 8 202 54 18 73 -61 191
-144 213 -59 16 -100 18 -147 6z m144 -122 c17 -21 31 -48 31 -60 0 -23 -2
-23 -115 -23 -126 0 -132 4 -98 58 31 49 53 62 104 62 43 0 51 -4 78 -37z"/>
<path d="M9945 2326 c-54 -15 -82 -35 -107 -74 -15 -25 -19 -43 -15 -74 3 -22
15 -50 27 -63 23 -24 82 -50 181 -79 60 -17 95 -46 86 -70 -10 -25 -58 -50
-91 -48 -50 3 -79 20 -108 63 -31 44 -64 51 -91 21 -20 -21 -21 -42 -6 -74 21
-47 123 -98 197 -98 49 0 123 20 155 42 31 22 67 86 67 120 0 38 -35 84 -82
106 -23 12 -72 29 -108 38 -84 21 -120 40 -120 63 0 27 24 43 75 48 41 5 47 3
85 -36 46 -46 85 -54 115 -22 15 17 15 24 5 48 -20 45 -77 79 -151 92 -36 6
-68 10 -70 10 -2 -1 -22 -7 -44 -13z"/>
<path d="M4255 2321 c-16 -4 -40 -13 -52 -19 -27 -15 -73 -73 -73 -93 0 -26
31 -59 54 -59 16 0 36 15 60 45 37 45 38 45 100 45 48 0 67 -4 79 -18 10 -10
17 -30 17 -43 0 -23 -6 -27 -82 -43 -127 -28 -161 -38 -190 -58 -31 -21 -58
-70 -58 -105 0 -53 49 -111 113 -134 30 -10 49 -11 93 -1 31 6 71 23 90 37 18
14 35 25 39 25 3 0 20 -16 37 -36 36 -40 62 -42 90 -4 17 24 18 29 3 69 -10
30 -15 82 -15 168 0 138 -8 166 -62 204 -27 20 -47 24 -123 26 -49 1 -103 -1
-120 -6z m187 -286 c-2 -21 -8 -47 -13 -57 -16 -30 -71 -58 -112 -58 -28 0
-44 7 -62 26 -14 15 -25 33 -25 40 0 20 59 64 88 65 15 0 43 7 62 14 54 21 66
16 62 -30z"/>
<path d="M8281 2323 c-42 -8 -101 -55 -126 -97 -32 -55 -45 -133 -33 -197 19
-103 89 -171 197 -191 46 -8 67 -7 114 7 32 9 73 30 92 46 18 16 42 49 54 74
16 33 21 64 21 121 0 64 -4 84 -27 126 -17 30 -45 62 -72 81 -39 27 -54 31
-120 33 -42 1 -87 0 -100 -3z m134 -99 c41 -27 65 -76 65 -133 0 -28 -6 -66
-14 -85 -27 -66 -97 -94 -160 -64 -55 24 -84 146 -52 222 28 68 105 97 161 60z"/>
<path d="M1155 1831 c-3 -5 -1 -12 5 -16 5 -3 10 1 10 9 0 18 -6 21 -15 7z"/>
<path d="M3820 1784 c0 -8 5 -12 10 -9 6 4 8 11 5 16 -9 14 -15 11 -15 -7z"/>
<path d="M1145 1777 c-12 -9 -14 -16 -7 -21 6 -3 16 3 22 14 13 24 10 25 -15
7z"/>
<path d="M8596 1781 c-4 -5 -2 -12 3 -15 5 -4 12 -2 15 3 4 5 2 12 -3 15 -5 4
-12 2 -15 -3z"/>
<path d="M9775 1780 c4 -6 11 -8 16 -5 14 9 11 15 -7 15 -8 0 -12 -5 -9 -10z"/>
<path d="M10210 1780 c0 -5 5 -10 10 -10 6 0 10 5 10 10 0 6 -4 10 -10 10 -5
0 -10 -4 -10 -10z"/>
<path d="M8916 1771 c-4 -5 -2 -12 3 -15 5 -4 12 -2 15 3 4 5 2 12 -3 15 -5 4
-12 2 -15 -3z"/>
<path d="M5970 1760 c0 -5 5 -10 10 -10 6 0 10 5 10 10 0 6 -4 10 -10 10 -5 0
-10 -4 -10 -10z"/>
</g>
</svg>
