<?xml version="1.0" standalone="no"?>
<!DOCTYPE svg PUBLIC "-//W3C//DTD SVG 20010904//EN"
 "http://www.w3.org/TR/2001/REC-SVG-20010904/DTD/svg10.dtd">
<svg version="1.0" xmlns="http://www.w3.org/2000/svg"
 width="1200.000000pt" height="324.000000pt" viewBox="0 0 1200.000000 324.000000"
 preserveAspectRatio="xMidYMid meet">
<g transform="translate(0.000000,324.000000) scale(0.100000,-0.100000)"
fill="#000000" stroke="none">
<path d="M6875 3031 c-3 -5 -1 -12 5 -16 5 -3 10 1 10 9 0 18 -6 21 -15 7z"/>
<path d="M6983 2918 c-6 -7 -14 -24 -18 -38 -4 -14 -74 -200 -155 -415 -82
-214 -214 -563 -295 -775 -80 -212 -177 -465 -216 -564 -39 -98 -67 -181 -62
-185 4 -3 93 -4 196 -1 l189 5 94 265 c52 146 97 271 99 278 4 10 76 12 336
10 l332 -3 10 -30 c5 -16 47 -136 94 -265 46 -129 86 -240 88 -247 3 -8 58
-13 192 -15 103 -2 192 0 196 3 5 4 -3 34 -18 68 -14 34 -61 156 -105 272 -44
116 -88 227 -97 247 -16 34 -16 36 2 46 37 20 80 72 135 162 30 49 57 93 59
97 2 5 -67 5 -153 1 -129 -6 -156 -4 -160 7 -3 8 -80 212 -172 454 -92 242
-183 483 -203 535 l-36 95 -161 3 c-121 2 -164 -1 -171 -10z m262 -129 c-5
-13 -2 -19 7 -17 7 2 13 -6 13 -17 0 -11 10 -39 23 -62 12 -23 22 -51 22 -62
0 -11 5 -23 10 -26 6 -3 10 -15 10 -27 0 -11 9 -33 20 -48 11 -16 17 -35 14
-45 -4 -10 -2 -15 7 -13 9 2 14 -6 15 -22 2 -33 14 -63 31 -73 9 -6 11 -13 5
-20 -11 -13 2 -57 17 -57 5 0 12 -17 16 -37 4 -21 13 -50 21 -65 8 -15 14 -35
14 -46 0 -10 9 -28 20 -40 24 -26 41 -65 45 -108 1 -16 12 -48 22 -70 11 -21
23 -52 27 -68 4 -16 32 -55 63 -87 40 -42 63 -59 82 -59 48 0 69 -10 64 -30
-3 -10 -14 -26 -24 -36 -10 -9 -19 -23 -19 -29 0 -7 -7 -19 -16 -26 -13 -11
-15 -26 -11 -77 4 -34 13 -72 21 -84 8 -12 23 -46 32 -77 9 -31 18 -62 20 -69
2 -7 8 -11 13 -8 5 3 7 -3 4 -13 -3 -12 4 -29 17 -43 13 -14 20 -32 17 -45 -2
-13 0 -23 4 -23 5 0 9 -11 9 -25 0 -14 5 -34 12 -45 15 -24 4 -37 -17 -20 -13
10 -15 9 -15 -8 0 -26 -18 -39 -26 -19 -3 8 -20 18 -38 21 -18 4 -40 14 -49
24 -8 9 -28 55 -43 102 -15 47 -33 94 -41 105 -7 11 -13 30 -13 44 0 13 -8 33
-17 43 -9 11 -17 35 -17 53 0 19 -4 35 -8 35 -4 0 -8 6 -8 13 0 16 -68 82 -94
91 -11 4 -16 12 -12 21 3 8 1 15 -4 15 -6 0 -10 -4 -10 -10 0 -5 -7 -10 -15
-10 -8 0 -15 4 -15 10 0 6 -9 6 -23 1 -13 -5 -30 -6 -37 -1 -7 4 -125 8 -261
8 -205 1 -251 -1 -263 -13 -17 -17 -36 -20 -36 -5 0 6 5 10 10 10 6 0 10 4 10
10 0 5 -16 2 -35 -8 -19 -9 -35 -25 -35 -34 0 -10 -4 -18 -10 -18 -5 0 -10 -7
-10 -15 0 -9 -11 -21 -25 -27 -28 -13 -42 -39 -77 -143 -13 -38 -26 -71 -30
-73 -5 -2 -8 -12 -8 -22 0 -10 -4 -22 -10 -25 -5 -3 -10 -22 -10 -41 0 -19 -4
-34 -9 -34 -5 0 -12 -13 -16 -29 -3 -15 -19 -40 -34 -55 -24 -23 -35 -27 -77
-24 l-49 3 2 40 c3 39 19 89 49 148 8 16 14 37 14 48 0 10 4 19 8 19 5 0 7 14
4 31 -4 24 0 31 16 35 15 4 19 13 18 37 -1 22 3 31 13 29 9 -2 11 3 7 13 -3
10 3 29 14 45 11 15 20 37 20 48 0 12 5 24 10 27 6 3 10 15 10 25 0 20 16 62
56 145 13 28 24 61 24 75 0 14 12 50 26 80 15 30 33 68 40 83 8 16 14 35 14
42 0 13 20 66 41 107 5 10 9 26 9 36 0 9 8 28 17 42 12 17 13 25 5 28 -7 2
-12 8 -12 14 0 5 8 7 18 4 18 -6 19 -4 24 57 1 12 6 25 11 28 9 7 39 83 79
204 11 33 24 68 29 77 5 10 9 27 9 38 0 11 7 23 15 26 8 3 19 22 26 42 6 21
16 43 22 50 7 9 32 13 79 11 39 -1 73 2 80 9 16 16 40 3 33 -19z m205 -454 c0
-8 -4 -15 -10 -15 -5 0 -10 7 -10 15 0 8 5 15 10 15 6 0 10 -7 10 -15z m-367
-742 c-7 -2 -19 -2 -25 0 -7 3 -2 5 12 5 14 0 19 -2 13 -5z"/>
<path d="M7126 2436 c5 -15 3 -18 -10 -13 -10 4 -16 1 -16 -8 0 -20 -21 -30
-31 -14 -6 10 -9 8 -9 -9 0 -14 -4 -21 -11 -16 -8 4 -9 -1 -4 -16 6 -18 4 -21
-12 -16 -14 4 -18 0 -19 -18 -1 -13 -9 -38 -17 -57 -8 -19 -23 -56 -33 -84
-10 -27 -23 -59 -31 -69 -7 -11 -10 -30 -7 -43 4 -16 1 -25 -10 -29 -11 -4
-14 -13 -11 -25 3 -10 -1 -29 -10 -43 -9 -14 -14 -30 -10 -36 4 -6 -1 -17 -11
-25 -14 -10 -19 -25 -18 -60 1 -42 6 -52 53 -98 l51 -52 185 0 184 0 56 55
c44 43 55 61 55 86 0 37 -52 211 -81 269 -10 22 -19 50 -19 63 0 19 -4 22 -20
17 -14 -4 -20 -2 -20 9 0 8 4 17 10 21 5 3 6 13 3 23 -17 48 -44 100 -58 112
-8 7 -15 18 -15 24 0 12 -44 56 -56 56 -3 0 -2 -10 2 -22 6 -20 5 -21 -10 -6
-9 9 -14 22 -11 30 4 9 -3 13 -20 13 -20 0 -24 -4 -19 -19z m50 -116 c7 -35
142 -406 165 -454 10 -21 17 -41 15 -45 -2 -3 -94 -5 -205 -3 l-201 3 0 22 c0
13 4 27 9 33 11 11 144 371 161 434 22 80 20 77 36 55 8 -11 17 -31 20 -45z"/>
<path d="M314 2875 c-2 -5 -3 -443 -2 -973 l3 -963 180 0 179 -1 -3 340 -3
340 219 4 c180 4 232 9 296 26 116 32 228 94 303 169 180 181 224 489 103 727
-78 154 -211 253 -417 313 -47 14 -126 18 -456 22 -262 4 -400 3 -402 -4z
m692 -111 c14 4 36 -1 56 -12 18 -10 39 -17 47 -14 18 6 161 -39 161 -50 0 -5
9 -6 20 -3 13 4 22 1 26 -9 8 -21 36 -29 47 -14 6 9 7 8 3 -4 -3 -11 2 -19 15
-23 10 -4 19 -12 19 -18 0 -15 76 -97 90 -97 5 0 10 -7 10 -15 0 -8 -7 -15
-16 -15 -8 0 -13 -4 -9 -10 3 -5 11 -7 18 -4 7 2 18 -5 25 -17 11 -18 11 -23
1 -30 -10 -6 -10 -11 2 -25 11 -13 14 -52 14 -170 -1 -130 -3 -156 -18 -172
-9 -10 -17 -24 -17 -30 0 -7 -4 -12 -10 -12 -5 0 -10 -7 -10 -16 0 -9 -15 -34
-32 -54 -18 -21 -41 -50 -51 -65 -11 -14 -29 -30 -40 -36 -12 -5 -29 -13 -37
-19 -29 -19 -112 -51 -133 -52 -12 -1 -29 -7 -37 -14 -11 -9 -71 -15 -190 -19
-96 -3 -199 -8 -228 -11 -49 -5 -58 -10 -113 -66 l-59 -61 -2 -271 -3 -271
-63 -3 -62 -3 2 848 3 848 255 3 c223 2 256 4 264 19 8 14 9 14 18 -1 7 -12
17 -16 34 -12z m464 -833 c0 -13 -29 -35 -37 -27 -3 3 -1 6 5 6 7 0 12 7 12
15 0 8 5 15 10 15 6 0 10 -4 10 -9z m-290 -181 c0 -5 -7 -10 -15 -10 -8 0 -15
5 -15 10 0 6 7 10 15 10 8 0 15 -4 15 -10z"/>
<path d="M672 2622 c-7 -5 -10 -16 -6 -26 6 -16 3 -17 -17 -11 -13 4 -21 4
-17 0 4 -4 -9 -20 -28 -37 l-34 -30 0 -272 0 -272 55 -56 c51 -52 60 -57 112
-64 32 -4 121 -4 198 -1 137 6 219 23 255 52 8 7 25 16 38 20 17 5 21 12 17
26 -5 14 -2 19 12 19 11 0 31 12 46 28 30 31 77 119 77 143 0 9 3 18 6 21 5 6
8 108 5 164 0 12 -10 31 -21 44 -11 13 -20 30 -20 38 0 8 -12 34 -27 58 -21
33 -33 42 -47 37 -13 -4 -17 -1 -14 8 3 8 -10 30 -28 49 -19 19 -34 29 -34 23
0 -21 -21 -15 -42 12 -10 13 -29 25 -41 26 -144 7 -435 7 -445 1z m468 -32 c0
-5 -7 -10 -15 -10 -8 0 -15 5 -15 10 0 6 7 10 15 10 8 0 15 -4 15 -10z m80
-40 c0 -5 -4 -10 -10 -10 -5 0 -10 5 -10 10 0 6 5 10 10 10 6 0 10 -4 10 -10z
m-181 -41 c36 -7 85 -21 109 -32 52 -24 118 -97 132 -146 13 -47 13 -126 -1
-176 -16 -57 -98 -135 -169 -159 -44 -15 -94 -20 -247 -24 l-193 -4 0 276 0
276 152 0 c83 0 181 -5 217 -11z"/>
<path d="M3994 2881 c-7 -8 -4 -1940 4 -1943 4 -2 84 -2 177 0 l170 3 0 969 0
969 -173 3 c-96 2 -176 1 -178 -1z m224 -973 l2 -848 -55 0 -55 0 0 843 c0
464 3 847 7 851 4 4 28 6 53 4 l45 -3 3 -847z"/>
<path d="M5455 2750 c-3 -5 1 -10 10 -10 9 0 13 5 10 10 -3 6 -8 10 -10 10 -2
0 -7 -4 -10 -10z"/>
<path d="M5476 2653 c-4 -5 -144 -10 -310 -13 l-303 -5 -55 -37 c-56 -37 -72
-56 -154 -183 -43 -67 -53 -105 -23 -95 8 2 145 7 304 10 322 6 315 4 397 78
51 45 173 231 161 243 -5 5 -13 6 -17 2z m-238 -155 c2 -9 -7 -23 -20 -31 -17
-12 -67 -16 -205 -19 -188 -3 -205 0 -165 34 34 30 77 37 232 35 136 -2 155
-4 158 -19z"/>
<path d="M11496 2251 c-4 -5 -2 -12 3 -15 5 -4 12 -2 15 3 4 5 2 12 -3 15 -5
4 -12 2 -15 -3z"/>
<path d="M2103 2240 c-126 -23 -216 -74 -314 -179 -82 -86 -141 -200 -164
-309 -21 -103 -19 -232 5 -326 31 -123 81 -209 180 -306 92 -92 153 -128 260
-156 48 -12 90 -15 160 -11 109 6 193 33 245 78 18 16 36 29 39 29 4 0 5 -28
4 -62 -2 -46 0 -63 10 -62 6 1 77 2 157 3 l145 1 0 543 c0 579 2 599 51 686
12 23 26 41 31 41 4 0 8 7 8 15 0 13 -18 14 -122 9 -130 -7 -194 -25 -228 -64
-10 -11 -20 -20 -23 -20 -4 0 -27 13 -53 30 -26 16 -72 37 -103 46 -67 19
-217 26 -288 14z m177 -99 c0 -5 -6 -11 -12 -14 -7 -2 -10 -8 -5 -12 4 -5 13
-3 19 3 14 14 58 16 58 3 0 -5 17 -15 38 -21 20 -7 56 -21 80 -32 67 -30 94
-32 133 -10 19 10 52 25 74 32 22 7 45 17 52 22 16 13 28 -10 13 -27 -6 -7
-11 -29 -11 -47 -1 -18 0 -210 0 -427 0 -238 -3 -400 -9 -411 -6 -10 -10 -47
-10 -81 l0 -62 -45 6 c-25 2 -54 12 -63 20 -9 8 -30 17 -47 19 -26 3 -30 7
-28 33 2 27 1 28 -11 13 -7 -10 -18 -18 -24 -18 -6 0 -16 -9 -23 -21 -8 -15
-14 -18 -22 -10 -7 7 -3 16 14 30 13 10 20 23 16 27 -4 5 -20 -6 -36 -24 -19
-23 -33 -31 -44 -26 -9 3 -17 2 -17 -4 0 -14 -52 -24 -163 -29 -81 -4 -102 -1
-116 12 -12 10 -29 14 -52 10 -30 -5 -39 0 -72 34 -20 21 -51 41 -67 45 -17 3
-30 12 -30 20 0 8 -12 23 -26 33 -15 11 -28 31 -29 47 -4 35 -13 44 -26 26 -8
-11 -9 -8 -5 13 4 15 2 27 -4 27 -5 0 -10 5 -10 11 0 11 -23 68 -41 102 -7 13
-6 23 2 33 10 13 6 18 -12 16 -8 -2 -3 167 5 175 3 4 6 23 6 43 0 20 7 45 15
56 8 10 15 27 15 38 0 22 36 92 64 123 10 12 24 32 30 44 12 24 38 42 134 89
34 17 67 28 73 25 6 -4 19 1 29 10 11 10 26 15 34 12 9 -4 18 -2 21 3 3 6 29
9 57 8 34 -2 53 2 56 10 4 14 22 16 22 3z m470 -110 c0 -6 -4 -13 -10 -16 -5
-3 -10 1 -10 9 0 9 5 16 10 16 6 0 10 -4 10 -9z"/>
<path d="M2114 2016 c-17 -6 -37 -16 -45 -22 -8 -6 -22 -14 -31 -17 -10 -4
-18 -12 -18 -20 0 -7 -14 -26 -31 -43 -17 -16 -37 -41 -45 -56 -8 -16 -20 -28
-27 -28 -14 0 -31 -37 -48 -103 -15 -60 -8 -282 9 -299 7 -7 12 -25 12 -41 0
-24 3 -27 20 -22 22 7 28 -10 8 -19 -7 -3 -2 -3 10 0 21 5 23 3 17 -16 -5 -17
1 -31 31 -61 21 -21 43 -39 50 -39 6 0 17 -7 24 -15 7 -8 22 -15 34 -15 12 0
38 -8 59 -19 52 -27 100 -34 133 -19 16 6 34 13 39 13 6 1 23 7 38 13 16 7 34
12 41 12 8 0 19 7 26 15 7 8 18 15 24 15 23 0 87 78 122 146 31 61 36 81 41
169 6 102 -8 228 -29 252 -5 7 -7 17 -3 23 3 5 1 10 -4 10 -6 0 -11 -5 -11
-12 0 -9 -3 -9 -12 0 -10 10 -10 15 2 23 13 8 12 11 -4 24 -11 8 -32 26 -48
40 -15 14 -32 25 -38 25 -5 0 -10 8 -10 18 0 18 -42 47 -100 69 -42 15 -193
15 -236 -1z m231 -117 c59 -28 102 -72 134 -139 23 -49 26 -67 26 -165 0 -103
-2 -114 -31 -170 -35 -68 -93 -119 -157 -136 -23 -6 -72 -9 -109 -7 -82 6
-145 40 -186 101 -49 72 -57 104 -57 217 1 88 4 113 24 158 27 60 102 133 153
149 18 6 61 11 96 12 44 1 75 -5 107 -20z m-85 -719 c0 -5 -9 -10 -20 -10 -11
0 -20 5 -20 10 0 6 9 10 20 10 11 0 20 -4 20 -10z"/>
<path d="M2480 1950 c0 -5 5 -10 10 -10 6 0 10 5 10 10 0 6 -4 10 -10 10 -5 0
-10 -4 -10 -10z"/>
<path d="M1910 1870 c0 -5 5 -10 10 -10 6 0 10 5 10 10 0 6 -4 10 -10 10 -5 0
-10 -4 -10 -10z"/>
<path d="M3000 2235 c0 0 -1 -294 -1 -654 l0 -654 186 -1 186 -1 -2 475 -2
475 119 0 c106 0 124 3 169 25 80 39 144 111 202 227 29 57 49 104 45 106 -4
1 -92 0 -197 -3 -170 -5 -194 -8 -232 -28 -23 -12 -53 -33 -67 -47 -14 -14
-32 -25 -41 -25 -12 0 -14 6 -8 28 4 15 7 37 8 50 l0 24 -183 1 c-100 1 -182
2 -182 2z m610 -115 c0 -5 -4 -10 -10 -10 -5 0 -10 5 -10 10 0 6 5 10 10 10 6
0 10 -4 10 -10z m109 -19 c7 -13 6 -24 -4 -37 -12 -16 -16 -17 -24 -5 -7 12
-14 9 -33 -14 -31 -36 -98 -54 -199 -55 -55 0 -80 -4 -89 -15 -7 -8 -18 -15
-24 -15 -22 0 -74 -65 -85 -105 -7 -25 -11 -176 -11 -411 0 -309 -2 -374 -14
-383 -8 -7 -37 -11 -68 -9 l-53 3 0 520 0 520 84 3 c79 3 86 1 111 -23 15 -14
43 -28 63 -32 28 -4 50 1 94 23 45 22 74 28 138 31 44 1 81 7 83 13 6 16 20
12 31 -9z"/>
<path d="M8995 2229 c-471 -6 -462 -5 -588 -71 -35 -18 -93 -63 -133 -103 -51
-50 -81 -91 -108 -145 -48 -100 -70 -203 -62 -302 4 -42 15 -105 26 -140 57
-185 212 -331 406 -383 33 -9 106 -19 164 -21 58 -3 120 -7 138 -10 42 -7 109
-67 133 -119 24 -52 24 -129 0 -181 -31 -68 -133 -124 -225 -124 -50 0 -127
41 -164 87 -44 56 -64 125 -67 228 l-2 90 -173 3 -173 2 7 -101 c3 -55 13
-135 22 -177 20 -101 90 -244 147 -304 100 -103 219 -156 372 -165 112 -6 211
13 314 62 56 27 92 54 145 108 107 109 156 222 156 362 0 39 -6 93 -14 120
-28 107 -97 207 -172 251 -24 14 -44 27 -44 29 0 2 23 30 51 62 60 68 103 156
118 237 22 122 9 230 -40 330 -16 33 -29 61 -29 62 0 2 22 13 50 25 57 25 109
78 143 146 33 68 52 132 41 141 -5 4 -202 4 -439 1z m-280 -109 c-3 -5 -13
-10 -21 -10 -8 0 -14 5 -14 10 0 6 9 10 21 10 11 0 17 -4 14 -10z m225 0 c0
-5 -7 -10 -15 -10 -8 0 -15 5 -15 10 0 6 7 10 15 10 8 0 15 -4 15 -10z m310
-35 c0 -8 -18 -29 -41 -47 -87 -70 -104 -87 -95 -95 5 -4 11 -2 13 5 5 13 33
17 33 5 0 -4 -12 -18 -27 -32 -19 -16 -24 -25 -15 -28 10 -4 10 -8 1 -19 -8
-10 -6 -20 11 -44 12 -16 18 -35 15 -41 -4 -5 1 -19 10 -29 14 -15 16 -30 12
-63 -3 -24 -3 -56 1 -72 10 -35 -11 -141 -32 -164 -14 -15 -14 -19 0 -39 8
-12 11 -22 5 -22 -5 0 -12 6 -15 13 -4 8 -9 7 -18 -7 -7 -10 -23 -31 -35 -46
-13 -15 -23 -35 -23 -44 0 -9 -7 -19 -15 -22 -8 -4 -15 -18 -15 -34 0 -19 -6
-30 -17 -33 -14 -4 -12 -5 5 -6 23 -1 31 -26 10 -34 -8 -3 -6 -6 5 -6 9 -1 17
-5 17 -10 0 -4 20 -30 45 -57 25 -26 45 -50 45 -54 0 -3 14 -18 31 -33 17 -14
28 -31 24 -37 -4 -6 -1 -17 5 -25 9 -11 11 -52 6 -152 -4 -76 -7 -150 -8 -166
-1 -22 -4 -26 -20 -21 -16 5 -19 1 -16 -23 2 -22 -1 -28 -15 -27 -13 2 -16 -3
-11 -18 5 -17 3 -19 -15 -13 -12 4 -21 2 -21 -4 0 -6 -7 -8 -15 -5 -8 4 -15 1
-15 -5 0 -6 5 -11 10 -11 21 0 9 -18 -29 -43 -30 -20 -41 -23 -51 -14 -10 10
-11 6 -6 -17 l7 -29 -27 18 c-16 10 -29 13 -33 7 -8 -12 -63 -21 -170 -29 -79
-5 -127 2 -186 28 -11 5 -32 13 -47 19 -16 5 -28 14 -28 20 0 7 -8 9 -20 5
-11 -4 -20 -2 -20 4 0 6 5 11 12 11 6 0 3 8 -7 20 -10 11 -22 17 -27 14 -14
-9 -48 26 -73 76 -41 83 -68 174 -71 243 l-3 67 48 0 c27 0 53 -6 58 -12 6 -7
13 -33 17 -57 4 -24 13 -56 21 -72 8 -15 15 -36 15 -47 0 -10 11 -28 25 -40
13 -12 27 -33 31 -47 5 -20 11 -24 26 -19 16 5 19 2 14 -13 -5 -15 1 -23 21
-33 16 -8 39 -23 52 -33 16 -12 34 -16 51 -12 18 4 31 1 40 -10 15 -18 37 -20
43 -2 3 9 9 9 24 1 15 -9 24 -7 48 12 32 25 60 31 70 14 11 -17 23 -11 18 9
-4 14 3 20 28 25 34 7 79 41 79 60 0 6 11 23 23 36 13 14 27 45 31 70 4 24 11
47 17 51 6 4 6 15 -1 33 -5 15 -7 38 -4 51 3 12 -1 36 -10 53 -9 17 -13 38
-10 46 3 9 2 16 -3 16 -5 0 -27 25 -49 55 -28 39 -44 53 -56 49 -20 -6 -67 24
-68 43 0 7 -10 15 -22 18 -93 21 -122 25 -188 25 -79 0 -180 19 -180 33 0 5
-12 6 -28 3 -17 -4 -35 -1 -47 9 -17 13 -18 16 -5 25 12 8 8 10 -15 8 -27 -3
-32 2 -50 40 -12 25 -25 40 -32 38 -7 -3 -24 5 -38 19 -24 22 -25 24 -8 34 10
6 12 11 6 11 -7 0 -13 9 -13 20 0 11 -6 20 -14 20 -20 0 -31 21 -16 30 9 6 9
13 1 28 -14 26 -15 312 -1 312 5 0 18 19 28 43 11 23 29 51 41 61 11 11 21 26
21 35 0 9 18 25 41 36 76 36 79 39 73 58 -5 15 -2 18 13 13 11 -3 44 2 74 12
48 17 90 19 387 20 277 1 332 -1 332 -13z m-830 -43 c0 -9 -44 -32 -58 -32 -9
1 41 39 51 40 4 0 7 -4 7 -8z m240 -1482 c0 -5 -7 -10 -15 -10 -8 0 -15 5 -15
10 0 6 7 10 15 10 8 0 15 -4 15 -10z m-200 -48 c0 -4 -9 -13 -20 -20 -23 -14
-26 -8 -7 13 13 16 27 19 27 7z"/>
<path d="M8605 2014 c-72 -26 -105 -45 -105 -59 0 -8 -4 -15 -10 -15 -15 0
-80 -61 -80 -75 0 -7 -7 -18 -15 -25 -8 -7 -15 -22 -15 -34 0 -11 -7 -34 -15
-49 -11 -22 -12 -34 -4 -49 8 -15 8 -27 -2 -46 -9 -16 -10 -27 -4 -29 6 -2 9
-21 7 -44 -3 -22 1 -46 7 -52 6 -6 11 -21 11 -34 0 -17 4 -21 17 -16 13 5 15
2 10 -11 -5 -12 4 -33 25 -62 26 -37 34 -42 46 -31 13 10 15 9 10 -3 -6 -16
16 -43 26 -33 10 11 37 -20 31 -36 -3 -11 1 -17 13 -18 9 -1 46 -7 82 -14 53
-10 76 -9 125 2 33 7 66 13 73 12 8 0 10 6 6 20 -5 16 -3 19 11 13 26 -10 65
20 62 47 -1 16 3 22 16 21 13 -2 16 3 11 18 -5 17 -3 19 15 13 14 -4 21 -2 21
7 0 8 10 34 22 59 16 32 23 68 26 136 6 125 -16 199 -74 253 -23 21 -44 47
-46 57 -2 9 -13 22 -25 28 -11 6 -27 16 -34 21 -26 21 -112 44 -158 43 -25 0
-64 -7 -86 -15z m168 -115 c48 -13 102 -61 129 -113 26 -51 35 -172 18 -236
-8 -31 -26 -59 -59 -90 -68 -66 -151 -86 -245 -58 -56 17 -131 93 -147 149
-19 62 -17 156 4 210 21 55 81 116 133 134 47 17 115 19 167 4z m127 -539 c0
-5 -4 -10 -9 -10 -6 0 -13 5 -16 10 -3 6 1 10 9 10 9 0 16 -4 16 -10z"/>
<path d="M8840 520 c0 -5 5 -10 10 -10 6 0 10 5 10 10 0 6 -4 10 -10 10 -5 0
-10 -4 -10 -10z"/>
<path d="M9030 510 c0 -5 5 -10 10 -10 6 0 10 5 10 10 0 6 -4 10 -10 10 -5 0
-10 -4 -10 -10z"/>
<path d="M9554 2231 c-2 -2 -4 -297 -4 -655 l0 -651 185 0 186 0 -1 475 -2
475 119 0 c109 0 122 2 175 28 77 38 142 113 202 231 26 54 47 98 45 100 -2 1
-92 0 -199 -3 -192 -6 -196 -7 -249 -36 -30 -16 -59 -38 -65 -47 -6 -10 -17
-18 -24 -18 -9 0 -12 14 -10 51 l3 50 -178 2 c-98 1 -181 0 -183 -2z m718
-126 c0 -5 -5 -11 -11 -13 -6 -2 -11 4 -11 13 0 9 5 15 11 13 6 -2 11 -8 11
-13z m-400 -32 c36 -34 77 -38 134 -14 27 12 56 26 65 31 19 10 140 12 156 2
5 -4 14 -18 18 -30 6 -21 4 -23 -13 -18 -13 4 -22 1 -25 -8 -9 -22 -71 -37
-185 -45 l-103 -7 -52 -52 -52 -52 -3 -402 c-2 -277 -6 -406 -14 -415 -8 -10
-29 -13 -67 -11 l-56 3 -3 510 c-1 281 0 516 3 524 4 10 25 12 89 10 71 -3 88
-8 108 -26z"/>
<path d="M10892 2230 c-121 -22 -252 -84 -334 -158 -59 -54 -126 -144 -158
-215 -15 -34 -36 -98 -45 -141 -14 -61 -16 -104 -12 -185 4 -64 14 -132 26
-171 55 -172 178 -316 339 -396 94 -46 183 -65 305 -65 188 1 338 62 467 191
54 53 88 98 117 155 60 117 77 187 76 330 0 102 -4 132 -26 200 -35 106 -89
195 -163 269 -117 118 -268 182 -442 190 -53 3 -121 1 -150 -4z m48 -90 c0 -5
-4 -10 -10 -10 -5 0 -10 5 -10 10 0 6 5 10 10 10 6 0 10 -4 10 -10z m85 -12
c-4 -17 -4 -19 3 -9 8 11 14 11 33 -3 13 -9 42 -16 66 -16 23 0 45 -4 48 -10
3 -5 17 -10 30 -10 13 0 26 -4 30 -9 3 -5 18 -12 34 -16 16 -3 35 -13 42 -21
8 -10 21 -13 37 -9 19 5 23 3 19 -9 -7 -19 17 -28 33 -13 10 9 11 7 5 -10 -5
-19 -2 -23 14 -23 23 0 29 -16 9 -22 -8 -3 3 -18 25 -37 20 -18 37 -41 37 -50
0 -28 30 -81 46 -81 8 0 14 -4 14 -9 0 -5 3 -17 7 -27 5 -12 3 -15 -6 -9 -10
6 -12 0 -6 -26 4 -19 12 -40 17 -46 6 -7 7 -24 4 -37 -3 -14 -1 -37 4 -52 8
-19 8 -37 0 -57 -7 -20 -7 -34 0 -42 7 -9 6 -16 -5 -25 -8 -7 -15 -22 -15 -34
0 -11 -7 -32 -14 -46 -8 -14 -28 -52 -44 -85 -16 -33 -44 -73 -61 -89 -17 -17
-31 -35 -31 -40 -1 -6 -10 -22 -20 -35 -16 -18 -23 -21 -34 -12 -10 8 -17 6
-31 -9 -10 -11 -22 -20 -27 -20 -5 0 -34 -11 -64 -25 -30 -14 -67 -25 -82 -25
-15 0 -44 -4 -65 -9 -75 -18 -337 30 -337 62 0 4 -11 5 -25 1 -19 -5 -25 -2
-25 10 0 10 -6 13 -15 10 -11 -4 -19 3 -26 25 -6 18 -24 38 -40 47 -16 8 -29
21 -29 29 0 7 -11 22 -25 33 -14 11 -25 27 -25 36 0 10 -5 13 -16 9 -13 -5
-15 -2 -10 14 4 11 -4 40 -19 71 -23 48 -25 62 -25 200 0 90 4 152 10 158 6 6
12 28 13 49 2 26 10 44 27 57 18 14 24 28 22 49 -3 22 2 31 20 39 13 5 32 16
43 25 16 13 17 17 6 24 -7 5 -10 14 -6 21 5 8 12 7 26 -6 11 -9 22 -14 26 -10
4 4 1 11 -6 16 -12 7 -9 14 14 38 25 26 31 29 52 19 15 -7 27 -7 31 -1 15 20
117 54 162 54 20 0 74 20 110 40 22 13 22 12 15 -12z m505 -288 c0 -5 -4 -10
-10 -10 -5 0 -10 5 -10 10 0 6 5 10 10 10 6 0 10 -4 10 -10z m0 -550 c0 -5 -4
-10 -10 -10 -5 0 -10 5 -10 10 0 6 5 10 10 10 6 0 10 -4 10 -10z m-910 -140
c0 -5 -4 -10 -10 -10 -5 0 -10 5 -10 10 0 6 5 10 10 10 6 0 10 -4 10 -10z
m370 -160 c0 -5 -4 -10 -10 -10 -5 0 -10 5 -10 10 0 6 5 10 10 10 6 0 10 -4
10 -10z"/>
<path d="M10935 2020 c-3 -5 -15 -10 -27 -10 -51 0 -152 -69 -141 -97 4 -11 0
-13 -21 -7 -22 5 -25 3 -20 -11 6 -14 3 -16 -14 -10 -17 5 -22 2 -22 -13 0
-10 -9 -27 -19 -36 -11 -10 -23 -31 -26 -47 -4 -16 -14 -33 -23 -38 -13 -8
-14 -12 -3 -25 11 -13 11 -20 -1 -38 -20 -31 -28 -67 -17 -73 4 -3 4 -17 -2
-32 -7 -18 -6 -30 1 -37 12 -12 14 -56 2 -56 -14 0 -1 -64 18 -85 17 -20 50
-86 50 -101 0 -15 54 -64 71 -64 23 0 35 -20 19 -30 -8 -5 -3 -10 14 -14 14
-3 26 -13 26 -22 0 -8 8 -17 18 -21 9 -3 23 -11 31 -17 38 -29 231 -50 246
-26 3 5 17 10 30 10 13 0 26 4 30 10 3 5 12 7 20 3 8 -3 15 0 15 6 0 6 -4 11
-10 11 -5 0 -10 5 -10 10 0 6 9 10 21 10 11 0 33 7 49 16 19 12 26 23 23 35
-3 11 0 19 6 19 6 0 11 -5 11 -11 0 -8 5 -8 15 1 8 7 15 19 15 26 0 8 4 14 9
14 5 0 12 13 16 30 4 16 12 33 19 37 19 13 46 61 46 82 0 11 5 23 10 26 6 3
10 53 10 113 0 82 -5 121 -20 165 -11 31 -20 63 -20 72 0 18 -17 20 -23 3 -2
-7 -8 -10 -12 -6 -4 4 -3 14 3 21 9 11 6 17 -13 27 -27 14 -31 30 -15 46 7 7
1 9 -20 6 -22 -3 -30 0 -30 11 0 9 6 18 13 20 6 2 0 3 -15 1 -19 -2 -28 1 -28
10 0 36 -152 96 -241 96 -32 0 -61 -4 -64 -10z m210 -143 c65 -33 108 -78 142
-152 25 -53 28 -72 28 -155 0 -86 -3 -101 -31 -161 -37 -78 -84 -127 -150
-160 -39 -19 -65 -24 -129 -24 -70 0 -87 4 -133 30 -62 34 -101 75 -140 148
-25 48 -27 61 -27 167 0 105 2 119 27 165 29 56 51 81 102 120 52 40 111 55
191 51 51 -2 84 -10 120 -29z"/>
<path d="M4965 2220 c-78 -11 -165 -41 -232 -82 -158 -96 -258 -282 -270 -503
-9 -168 32 -341 107 -450 78 -113 212 -200 352 -229 95 -20 172 -20 261 -1
107 22 206 76 279 149 63 62 141 187 136 214 -3 12 -31 14 -168 13 l-165 -2
-40 -38 c-51 -49 -94 -71 -155 -78 -38 -4 -62 0 -104 17 -79 32 -150 115 -158
184 l-3 28 415 1 415 2 -1 140 c-1 157 -15 228 -67 335 -41 85 -150 196 -233
238 -108 54 -249 78 -369 62z m165 -100 c0 -5 -4 -10 -10 -10 -5 0 -10 5 -10
10 0 6 5 10 10 10 6 0 10 -4 10 -10z m-136 -29 c8 -12 -20 -33 -84 -64 -74
-37 -92 -51 -84 -71 3 -9 1 -16 -5 -16 -6 0 -11 5 -11 12 0 6 -8 4 -19 -6 -30
-27 -71 -119 -78 -174 -5 -44 -2 -55 26 -96 18 -25 38 -46 45 -46 8 0 19 -7
26 -15 7 -8 23 -15 36 -15 40 0 36 -18 -8 -39 -24 -11 -61 -38 -83 -60 -36
-38 -39 -46 -39 -94 0 -36 8 -68 27 -104 15 -29 27 -59 27 -68 0 -18 12 -19
28 -3 17 17 27 1 11 -18 -13 -16 -11 -17 14 -10 16 4 27 2 27 -4 0 -5 -4 -10
-10 -10 -5 0 -7 -6 -4 -14 8 -21 80 -57 99 -50 8 4 15 1 15 -5 0 -6 12 -16 26
-21 14 -6 22 -14 19 -20 -8 -13 -67 -13 -102 1 -73 29 -119 54 -131 71 -7 10
-18 18 -24 18 -16 0 -58 41 -58 55 0 7 -9 20 -20 30 -11 10 -20 31 -20 47 0
15 -4 28 -10 28 -5 0 -10 -7 -10 -15 0 -8 -4 -15 -10 -15 -13 0 -13 46 0 71 7
11 7 19 1 19 -5 0 -11 -6 -14 -12 -4 -10 -7 -10 -17 -1 -11 10 -10 14 3 19 23
8 21 26 -3 42 -11 7 -20 19 -20 27 0 18 17 20 23 3 2 -7 2 25 -1 72 -2 47 -9
87 -13 88 -13 5 -11 32 2 32 8 0 10 14 6 45 -6 38 -4 43 9 38 13 -5 15 -2 10
15 -4 12 1 34 13 56 14 24 17 37 9 42 -8 5 -7 10 3 18 8 7 30 29 49 49 28 31
32 40 20 47 -8 5 -11 12 -7 17 4 4 17 2 28 -6 19 -11 20 -10 14 9 -6 19 -4 21
13 16 16 -5 19 -3 16 11 -3 11 3 23 17 31 18 12 23 12 31 0 7 -10 11 -10 15 0
2 6 15 12 27 12 13 0 26 3 30 7 7 7 78 29 103 32 6 0 14 -3 17 -8z m162 -2 c3
-5 20 -9 38 -9 19 0 39 -6 45 -13 6 -8 23 -12 41 -9 22 3 31 0 37 -14 9 -24
33 -43 56 -44 10 0 22 -11 27 -24 5 -13 17 -30 28 -37 25 -19 68 -112 82 -179
6 -30 10 -84 8 -120 l-3 -65 -109 -3 c-61 -1 -116 0 -124 3 -12 4 -11 10 7 28
11 13 21 31 21 40 0 10 8 17 19 17 12 0 21 9 25 25 4 14 14 25 22 25 11 0 14
5 10 17 -4 9 -1 20 6 25 11 6 10 10 -1 17 -8 5 -11 17 -7 28 4 14 -8 40 -43
89 -63 89 -154 164 -201 164 -18 0 -54 33 -45 42 9 9 55 6 61 -3z m1 -162 c17
-9 45 -31 62 -48 37 -36 84 -123 79 -146 -3 -14 -34 -16 -248 -16 l-245 0 3
28 c2 16 12 44 22 64 34 63 80 106 137 127 47 18 147 13 190 -9z m-347 3 c0
-5 -4 -10 -10 -10 -5 0 -10 5 -10 10 0 6 5 10 10 10 6 0 10 -4 10 -10z m563
-736 c8 -9 -55 -93 -70 -94 -7 0 -13 5 -13 10 0 6 5 10 10 10 6 0 10 5 10 11
0 6 -15 0 -34 -15 -19 -14 -44 -26 -55 -26 -11 0 -23 -4 -26 -10 -8 -13 -72
-13 -80 0 -3 5 14 18 39 30 25 11 49 20 55 20 5 0 18 11 29 25 11 14 27 25 35
25 9 0 19 5 22 10 7 11 68 14 78 4z m-483 -14 c0 -5 -7 -10 -15 -10 -8 0 -15
5 -15 10 0 6 7 10 15 10 8 0 15 -4 15 -10z m330 -20 c0 -5 -4 -10 -10 -10 -5
0 -10 5 -10 10 0 6 5 10 10 10 6 0 10 -4 10 -10z m-460 -30 c0 -5 -4 -10 -10
-10 -5 0 -10 5 -10 10 0 6 5 10 10 10 6 0 10 -4 10 -10z"/>
<path d="M11476 2211 c-4 -5 -2 -12 3 -15 5 -4 12 -2 15 3 4 5 2 12 -3 15 -5
4 -12 2 -15 -3z"/>
<path d="M4526 1035 c-4 -13 -2 -14 14 -5 23 13 26 20 6 20 -8 0 -16 -7 -20
-15z"/>
<path d="M11636 1011 c-4 -5 -2 -12 3 -15 5 -4 12 -2 15 3 4 5 2 12 -3 15 -5
4 -12 2 -15 -3z"/>
</g>
</svg>
