<?xml version="1.0" standalone="no"?>
<!DOCTYPE svg PUBLIC "-//W3C//DTD SVG 20010904//EN"
 "http://www.w3.org/TR/2001/REC-SVG-20010904/DTD/svg10.dtd">
<svg version="1.0" xmlns="http://www.w3.org/2000/svg"
 width="1200.000000pt" height="292.000000pt" viewBox="0 0 1200.000000 292.000000"
 preserveAspectRatio="xMidYMid meet">
<g transform="translate(0.000000,292.000000) scale(0.100000,-0.100000)"
fill="#000000" stroke="none">
<path d="M5266 2898 c-3 -13 -6 -358 -6 -766 -1 -820 2 -784 -63 -819 -24 -13
-55 -17 -123 -16 -71 1 -100 6 -132 22 -44 22 -71 54 -96 116 -17 39 -74 191
-393 1040 -151 399 -160 420 -185 423 -23 3 -28 -2 -43 -50 -10 -29 -23 -66
-30 -83 -7 -16 -29 -73 -48 -125 -19 -52 -90 -239 -157 -415 -67 -176 -151
-396 -187 -490 -35 -93 -77 -206 -92 -250 -37 -106 -54 -137 -91 -169 -26 -22
-41 -26 -91 -26 -58 0 -59 -1 -59 -27 l0 -28 243 0 242 0 3 28 c3 27 3 27 -57
27 -70 0 -91 15 -91 65 0 32 12 68 95 285 21 52 41 110 46 128 l10 32 250 0
c191 0 251 -3 254 -12 15 -45 83 -228 112 -303 57 -145 57 -143 23 -175 -30
-28 -38 -54 -21 -65 6 -3 236 -6 513 -6 l503 0 3 30 3 31 -71 0 c-68 0 -74 2
-104 33 l-33 32 -7 500 c-4 275 -9 514 -12 531 -4 22 -1 33 9 37 10 4 44 -28
103 -96 49 -56 152 -172 228 -257 213 -237 318 -355 614 -687 104 -118 151
-163 167 -163 l22 0 6 572 c4 314 7 663 7 774 0 203 0 204 24 219 13 9 53 18
89 22 42 4 68 11 71 19 14 37 2 39 -264 39 l-260 0 0 -26 c0 -26 1 -27 87 -31
71 -4 89 -8 103 -25 15 -19 16 -75 18 -577 1 -307 -2 -556 -7 -554 -5 2 -32
32 -60 68 -29 35 -69 83 -89 105 -39 42 -454 510 -532 600 -25 29 -127 145
-227 258 -101 113 -183 210 -183 216 0 21 -28 11 -34 -11z m-978 -226 c2 -7
-3 -12 -12 -12 -9 0 -16 7 -16 16 0 17 22 14 28 -4z m-28 -51 c0 -9 7 -26 15
-37 15 -19 16 -19 14 1 -3 38 1 55 12 55 5 0 9 -8 8 -17 -3 -30 13 -103 23
-103 6 0 7 -12 3 -27 -4 -16 -8 -29 -10 -31 -2 -2 -13 6 -25 18 -15 15 -20 29
-16 46 5 17 2 24 -8 24 -7 0 -16 -10 -20 -22 -5 -21 -7 -21 -21 -8 -12 12 -13
23 -5 49 5 19 7 38 4 43 -9 14 4 40 16 33 5 -3 10 -14 10 -24z m1186 -11 c6 0
11 -13 12 -30 0 -21 -4 -30 -16 -31 -14 -1 -14 -2 1 -6 11 -3 24 3 31 13 13
17 14 16 21 -6 5 -15 4 -25 -4 -28 -16 -5 -14 -29 5 -57 15 -23 15 -25 0 -25
-9 0 -25 14 -34 30 -13 23 -27 32 -54 36 l-38 7 0 57 c0 31 3 59 6 62 3 4 17
0 32 -8 15 -8 32 -14 38 -14z m92 -112 c18 -18 15 -28 -8 -28 -13 0 -20 7 -20
20 0 23 10 26 28 8z m-1176 -54 c-6 -11 -6 -28 0 -46 11 -30 4 -48 -11 -32 -5
5 -13 26 -16 46 -6 30 -4 39 9 44 9 3 17 14 17 23 1 14 2 14 6 -1 2 -10 0 -25
-5 -34z m-120 -11 c8 -51 134 -434 159 -487 10 -22 17 -42 14 -44 -8 -8 -406
-8 -411 0 -3 4 2 20 9 35 33 63 171 450 181 506 5 28 11 37 24 35 11 -2 19
-18 24 -45z m1356 -38 c-1 -19 -4 -35 -7 -35 -3 1 -19 12 -36 25 -23 20 -27
27 -16 34 9 6 10 11 2 15 -6 4 -9 12 -6 17 4 5 19 2 35 -6 25 -13 29 -21 28
-50z m44 -17 c-3 -15 -2 -19 7 -14 7 5 21 -2 34 -16 21 -22 21 -25 6 -41 -8
-9 -20 -17 -25 -17 -10 0 -54 74 -54 90 0 5 8 11 18 13 9 3 18 5 19 6 0 0 -1
-9 -5 -21z m-1242 -64 c0 -8 -7 -14 -15 -14 -15 0 -21 21 -9 33 10 9 24 -2 24
-19z m25 -83 c-4 -28 -11 -53 -16 -57 -5 -3 -9 13 -9 35 0 22 -5 43 -11 47 -7
4 -2 11 13 18 12 7 25 11 27 10 1 -2 0 -26 -4 -53z m1313 37 c11 -13 24 -35
27 -50 8 -31 15 -34 34 -15 10 10 12 4 9 -27 -2 -22 -9 -41 -15 -44 -7 -2 -13
3 -13 11 0 7 -11 19 -25 25 -23 11 -25 16 -19 53 6 33 4 41 -7 37 -8 -3 -15
-11 -15 -19 -1 -8 -2 -17 -3 -22 0 -4 -15 6 -33 23 -17 17 -28 33 -24 37 3 4
12 1 18 -5 17 -17 31 -15 24 3 -8 23 18 18 42 -7z m-1288 -57 c0 -11 7 -26 15
-35 10 -10 13 -24 9 -40 -4 -18 0 -30 15 -43 12 -10 21 -29 21 -46 0 -15 6
-30 14 -33 8 -3 11 -15 8 -31 -3 -14 -1 -28 4 -32 16 -11 56 -107 57 -137 1
-16 6 -32 12 -36 13 -10 13 -98 0 -98 -6 0 -16 5 -23 12 -8 8 -9 15 -1 25 13
14 3 83 -11 83 -5 0 -14 -8 -20 -17 -9 -15 -10 -14 -6 9 5 21 -1 33 -25 58
-28 28 -31 36 -27 75 4 35 1 48 -13 61 -11 9 -19 24 -19 33 1 13 3 13 15 -3 8
-11 18 -17 22 -13 10 11 -15 57 -32 57 -12 0 -14 8 -9 38 4 28 2 43 -10 55
-17 17 -22 77 -6 77 6 0 10 -9 10 -19z m1408 -71 c-15 -24 -4 -37 17 -20 14
12 16 10 10 -11 -5 -20 -1 -28 19 -39 24 -12 31 -27 27 -57 -1 -7 3 -13 9 -13
5 0 10 7 10 15 0 8 5 15 10 15 14 0 13 -23 -2 -38 -6 -6 -9 -15 -5 -19 4 -4
13 -1 19 5 7 7 19 12 28 12 13 -1 12 -3 -2 -14 -22 -16 -23 -26 -4 -26 7 0 30
-19 49 -42 30 -35 38 -40 51 -29 12 10 14 9 9 -9 -4 -14 1 -26 13 -35 17 -13
17 -16 4 -25 -25 -16 -39 -12 -33 11 5 19 3 20 -14 11 -18 -10 -20 -8 -15 13
3 18 0 25 -12 25 -9 0 -16 4 -16 9 0 13 -50 71 -61 71 -4 0 -5 -8 -2 -17 6
-15 5 -16 -9 -3 -9 8 -14 18 -12 22 8 12 -37 76 -72 103 -18 14 -34 33 -34 41
0 7 -7 14 -15 14 -22 0 -18 15 8 33 30 22 40 21 25 -3z m-1431 -32 c-3 -7 -5
-2 -5 12 0 14 2 19 5 13 2 -7 2 -19 0 -25z m1468 -98 c3 -5 -1 -10 -9 -10 -9
0 -16 5 -16 10 0 6 4 10 9 10 6 0 13 -4 16 -10z m25 -30 c0 -5 -4 -10 -10 -10
-5 0 -10 5 -10 10 0 6 5 10 10 10 6 0 10 -4 10 -10z m130 -38 c0 -8 -1 -13 -3
-11 -1 2 -9 12 -16 22 -12 15 -12 17 3 11 9 -3 16 -13 16 -22z m-58 -54 c-9
-9 -12 -7 -12 12 0 19 3 21 12 12 9 -9 9 -15 0 -24z m173 -108 c4 -17 13 -30
21 -30 8 0 18 -8 21 -17 4 -10 15 -27 25 -37 10 -11 18 -26 18 -33 0 -15 26
-18 35 -4 3 6 -3 14 -12 20 -10 5 -15 13 -10 17 4 4 16 -1 27 -11 13 -11 18
-25 14 -37 -3 -12 -1 -16 8 -13 7 3 29 -9 48 -26 19 -18 36 -27 38 -20 2 6 8
11 13 11 12 0 12 -80 0 -99 -5 -8 -16 -11 -26 -8 -11 5 -14 13 -10 27 3 11 2
20 -3 20 -5 0 -13 -15 -17 -32 -7 -29 -9 -30 -12 -10 -3 12 -20 38 -39 58 -19
20 -34 38 -34 40 0 2 9 4 20 4 10 0 24 -9 30 -20 12 -23 30 -27 30 -6 0 19
-38 46 -55 39 -17 -6 -73 35 -81 59 -3 10 -11 18 -17 18 -7 0 -23 16 -36 35
-13 19 -27 35 -32 35 -13 0 -11 24 3 38 19 19 26 15 33 -18z m-1545 -131 c0
-7 11 -8 29 -4 24 5 30 2 36 -15 4 -12 4 -32 1 -46 -5 -17 -2 -24 9 -24 8 0
15 -4 15 -10 0 -5 -7 -10 -15 -10 -23 0 -18 -16 10 -28 19 -9 25 -19 25 -44 0
-18 7 -42 15 -52 18 -24 20 -69 3 -64 -17 6 -55 77 -63 118 -4 19 -10 40 -14
45 -5 6 -11 25 -14 43 -5 24 -3 34 8 38 20 8 19 34 0 34 -8 0 -15 -7 -15 -15
0 -21 -26 -19 -34 3 -3 9 -9 23 -12 30 -3 6 -1 12 5 12 6 0 11 -5 11 -11z"/>
<path d="M5560 2406 c0 -9 5 -16 10 -16 6 0 10 4 10 9 0 6 -4 13 -10 16 -5 3
-10 -1 -10 -9z"/>
<path d="M5655 2330 c-3 -5 1 -10 10 -10 9 0 13 5 10 10 -3 6 -8 10 -10 10 -2
0 -7 -4 -10 -10z"/>
<path d="M7632 2909 c2 -6 8 -10 13 -10 5 0 11 4 13 10 2 6 -4 11 -13 11 -9 0
-15 -5 -13 -11z"/>
<path d="M1713 2888 c-5 -7 -53 -128 -106 -268 -52 -140 -137 -363 -187 -495
-50 -132 -127 -337 -171 -455 -44 -118 -87 -233 -95 -254 -35 -90 -88 -132
-156 -123 -26 4 -43 0 -53 -10 -8 -8 -15 -17 -15 -21 1 -25 28 -28 252 -28
l238 1 0 28 c0 26 -2 27 -55 27 -43 0 -60 5 -76 21 -16 16 -20 28 -15 53 4 17
41 122 84 233 l77 203 249 -3 248 -2 15 -45 c8 -25 47 -128 85 -230 l71 -184
-32 -26 c-17 -15 -31 -36 -31 -48 0 -21 3 -21 238 -24 167 -2 241 0 251 8 8 7
10 20 6 33 -5 17 -14 21 -53 21 -34 0 -58 7 -85 25 -20 14 -48 43 -61 63 -12
20 -39 82 -59 137 -19 55 -65 179 -102 275 -133 352 -309 819 -359 955 -42
112 -56 141 -72 143 -12 2 -25 -3 -31 -10z m33 -236 c-11 -10 -15 4 -8 28 l7
25 3 -23 c2 -13 1 -26 -2 -30z m12 -28 c20 12 22 -11 2 -29 -23 -21 -29 -55
-6 -36 11 9 16 3 25 -33 6 -25 11 -47 11 -50 0 -3 -7 -6 -15 -6 -9 0 -20 11
-25 25 -6 15 -17 25 -29 25 -23 0 -38 19 -24 29 16 10 24 60 14 80 -15 27 1
35 20 10 9 -12 21 -19 27 -15z m-72 -41 c-10 -10 -19 5 -10 18 6 11 8 11 12 0
2 -7 1 -15 -2 -18z m124 -43 c0 -22 -4 -40 -10 -40 -11 0 -14 63 -3 73 11 12
13 8 13 -33z m-100 -107 c22 -88 151 -478 161 -487 5 -6 9 -19 9 -30 0 -21 -5
-21 -205 -21 -138 0 -205 3 -205 11 0 5 9 28 19 50 25 51 157 415 173 477 7
26 17 47 24 47 6 0 17 -21 24 -47z m123 5 c-2 -5 -8 -8 -14 -8 -11 0 -12 33
-2 44 8 8 23 -25 16 -36z m52 -136 c0 -11 3 -24 8 -28 13 -13 7 -24 -13 -24
-13 0 -20 7 -20 19 0 11 -4 23 -10 26 -5 3 -10 15 -10 25 0 16 4 18 23 11 13
-5 22 -17 22 -29z m45 -73 c0 -11 -4 -17 -10 -14 -5 3 -10 13 -10 21 0 8 5 14
10 14 6 0 10 -9 10 -21z m-30 -35 c0 -26 9 -31 28 -12 13 13 17 5 26 -52 4
-26 0 -41 -15 -60 l-21 -25 5 30 c3 17 9 38 12 48 4 10 3 17 -4 17 -6 0 -11
-4 -11 -10 0 -5 -4 -10 -10 -10 -5 0 -10 10 -10 21 0 12 -7 27 -15 33 -9 7
-12 19 -9 33 8 29 24 20 24 -13z m71 -175 c-21 -20 -41 -25 -41 -10 0 5 12 23
28 40 25 30 27 31 30 10 2 -12 -5 -29 -17 -40z m45 -21 c4 -6 2 -14 -4 -16
-18 -6 -15 -19 13 -60 14 -20 25 -43 25 -52 -1 -8 -9 -26 -20 -39 l-20 -23
-34 28 c-19 16 -35 32 -35 35 -2 13 31 19 50 9 32 -18 21 4 -13 23 -22 13 -28
21 -20 29 6 6 8 17 5 25 -5 14 23 53 38 53 4 0 11 -5 15 -12z m67 -164 c9 -10
-4 -34 -19 -34 -18 0 -18 -11 0 -35 7 -10 20 -16 29 -12 23 9 29 -4 11 -24
-20 -22 -12 -49 16 -49 18 0 19 -2 8 -21 -10 -17 -10 -23 0 -26 14 -6 16 -69
2 -78 -5 -3 -10 4 -10 15 0 21 -5 32 -44 107 -9 17 -16 39 -16 48 0 9 -7 23
-15 31 -16 17 -20 44 -6 44 5 0 11 9 14 20 5 20 18 26 30 14z m125 -360 c11
-8 12 -13 4 -18 -16 -10 -14 -56 3 -86 18 -31 19 -48 3 -32 -9 9 -15 8 -28 -3
-14 -13 -15 -10 -12 24 2 22 -1 49 -8 61 -10 18 -9 24 7 35 24 18 8 33 -18 17
-18 -12 -19 -10 -13 15 12 57 15 59 31 28 9 -16 23 -35 31 -41z m46 -96 c9
-17 16 -34 16 -37 0 -3 -13 9 -29 28 -17 19 -28 39 -25 43 8 13 21 1 38 -34z"/>
<path d="M8315 2888 c-4 -12 -50 -134 -190 -503 -29 -77 -103 -273 -165 -435
-61 -162 -132 -351 -157 -420 -25 -69 -54 -142 -65 -163 -27 -54 -71 -78 -133
-75 -49 3 -50 2 -53 -27 l-3 -30 238 1 238 0 3 27 c3 26 -6 33 -33 27 -30 -7
-80 2 -97 17 -15 14 -19 27 -15 55 3 20 34 112 70 205 35 92 69 182 74 198
l10 30 250 3 249 2 59 -162 c32 -90 69 -187 82 -217 12 -29 23 -64 23 -77 0
-14 -10 -30 -25 -40 -15 -10 -25 -26 -25 -40 l0 -24 225 -2 c124 -1 233 -2
243 -2 12 -1 17 7 17 29 0 29 -2 30 -51 35 -27 3 -62 13 -76 22 -38 25 -76 78
-97 135 -10 26 -55 147 -101 268 -46 121 -93 247 -105 280 -13 33 -87 229
-165 435 -78 206 -149 394 -157 418 -12 34 -20 42 -39 42 -14 0 -27 -6 -29
-12z m45 -248 c0 -12 7 -20 16 -20 12 0 15 -6 11 -22 -4 -12 -1 -28 5 -36 6
-7 14 -33 18 -58 5 -33 4 -44 -6 -44 -7 0 -25 16 -40 35 -20 26 -32 34 -48 30
-11 -2 -15 -2 -8 1 15 7 16 44 1 44 -15 0 -3 45 18 70 22 25 33 25 33 0z m-50
-179 c5 -11 10 -28 10 -37 0 -20 133 -432 156 -481 8 -17 14 -35 14 -40 0 -9
-406 -10 -416 -1 -3 4 2 17 10 31 25 37 176 456 183 505 6 45 25 55 43 23z
m110 -31 c0 -5 -4 -10 -10 -10 -5 0 -10 5 -10 10 0 6 5 10 10 10 6 0 10 -4 10
-10z m34 -27 c7 -49 3 -83 -9 -86 -5 -1 -10 26 -10 61 -1 68 10 83 19 25z m46
-102 c13 -26 13 -38 -1 -24 -14 14 -39 6 -39 -12 0 -7 6 -15 13 -18 6 -2 9 -8
4 -12 -4 -5 -13 0 -21 10 -11 16 -11 23 3 47 9 15 19 28 23 28 4 0 12 -9 18
-19z m50 -72 c0 -5 -4 -9 -10 -9 -5 0 -10 7 -10 16 0 8 5 12 10 9 6 -3 10 -10
10 -16z m-30 -30 c0 -12 8 -23 20 -26 23 -6 27 -33 5 -33 -22 0 -18 -27 5 -33
12 -3 20 -14 20 -26 0 -11 8 -35 19 -54 10 -18 22 -48 26 -65 3 -18 11 -32 16
-32 5 0 9 -6 9 -14 0 -8 7 -17 15 -20 13 -5 14 -10 4 -27 -6 -12 -9 -32 -7
-44 4 -17 -1 -26 -18 -34 -22 -10 -23 -9 -14 14 7 19 6 25 -5 25 -8 0 -19 9
-25 20 -6 11 -18 20 -27 20 -13 0 -13 3 -3 15 10 13 10 19 -4 33 -18 21 -22
42 -4 24 17 -17 38 -15 38 3 0 8 -6 15 -14 15 -10 0 -20 24 -31 72 -9 39 -23
77 -32 83 -11 9 -13 14 -5 19 17 10 15 46 -3 46 -15 0 -21 21 -8 33 13 13 23
7 23 -14z m70 -79 c0 -5 -4 -10 -10 -10 -5 0 -10 5 -10 10 0 6 5 10 10 10 6 0
10 -4 10 -10z m110 -290 c0 -5 -4 -10 -10 -10 -5 0 -10 5 -10 10 0 6 5 10 10
10 6 0 10 -4 10 -10z m-8 -60 c-4 -23 11 -62 36 -92 8 -10 9 -18 4 -22 -20
-12 -42 7 -47 42 -3 21 -8 52 -11 71 -4 24 -2 32 8 29 7 -3 11 -15 10 -28z
m-38 -15 c-4 -8 -10 -12 -15 -9 -14 8 -10 24 6 24 9 0 12 -6 9 -15z m58 -132
c11 -10 18 -11 23 -3 10 16 45 -54 45 -89 0 -18 7 -34 17 -40 10 -5 15 -13 11
-17 -4 -4 -19 1 -33 10 -20 13 -25 25 -25 56 0 30 -3 38 -14 34 -9 -3 -17 3
-21 15 -3 12 -12 21 -20 21 -7 0 -15 9 -18 20 -5 21 4 19 35 -7z m89 -180 c0
-11 3 -13 6 -5 2 6 9 12 15 12 7 0 8 -14 5 -35 -3 -19 -2 -35 4 -35 5 0 9 -9
9 -20 0 -23 -15 -27 -24 -5 -3 8 -12 12 -21 9 -18 -7 -19 0 -5 26 8 15 6 21
-6 28 -10 6 -15 16 -11 26 8 21 27 21 28 -1z m69 -113 c0 -5 -4 -10 -10 -10
-5 0 -10 5 -10 10 0 6 5 10 10 10 6 0 10 -4 10 -10z"/>
<path d="M8330 2605 c0 -8 7 -15 15 -15 8 0 15 7 15 15 0 8 -7 15 -15 15 -8 0
-15 -7 -15 -15z"/>
<path d="M8595 1917 c-7 -18 9 -47 27 -47 7 0 7 4 0 13 -5 6 -12 21 -14 32 -5
18 -6 19 -13 2z"/>
<path d="M2385 2838 c-3 -29 -17 -100 -31 -157 -19 -83 -22 -106 -12 -113 26
-16 37 -7 52 46 11 37 27 63 51 85 20 17 41 31 48 31 7 0 101 1 211 2 l198 2
-1 -700 c-2 -680 -2 -700 -21 -719 -13 -12 -39 -21 -73 -25 -46 -4 -52 -8 -55
-30 l-3 -25 310 0 c322 0 330 1 315 40 -5 11 -23 15 -76 15 -75 0 -123 18
-133 49 -8 25 -9 1401 -1 1401 3 0 85 0 181 0 l174 0 37 -32 c41 -36 64 -82
64 -128 0 -26 4 -30 28 -30 l28 0 -3 162 c-2 89 -5 164 -8 166 -2 3 -21 -2
-42 -10 -31 -11 -138 -14 -593 -13 -507 0 -558 2 -589 18 -19 9 -37 17 -42 17
-4 0 -10 -24 -14 -52z m688 -98 c11 -10 5 -45 -8 -45 -6 0 -11 10 -13 23 -4
26 -36 30 -50 6 -11 -19 -4 -64 10 -64 5 0 18 5 28 10 12 6 21 6 25 1 3 -5 1
-12 -4 -15 -5 -3 -7 -16 -3 -28 4 -18 2 -20 -17 -15 -14 3 -24 0 -28 -9 -6
-16 -33 -19 -33 -4 0 6 7 13 15 17 14 5 14 8 1 28 -14 21 -21 60 -18 98 2 16
8 18 45 12 23 -4 46 -11 50 -15z m-38 -40 c0 -7 -6 -15 -12 -17 -8 -3 -13 4
-13 17 0 13 5 20 13 18 6 -3 12 -11 12 -18z m35 -665 c0 -363 -3 -555 -10
-555 -6 0 -11 87 -12 238 l-2 237 -6 -230 c-5 -222 -2 -258 25 -277 13 -9 -18
-62 -39 -66 -11 -3 -16 4 -16 23 0 22 3 25 20 20 14 -5 20 -2 20 9 0 10 -9 16
-25 16 -26 0 -33 14 -14 26 8 5 9 157 4 560 l-8 554 32 0 31 0 0 -555z m-52
-684 c3 -8 -1 -12 -9 -9 -7 2 -15 10 -17 17 -3 8 1 12 9 9 7 -2 15 -10 17 -17z
m52 4 c0 -8 -4 -15 -10 -15 -5 0 -10 7 -10 15 0 8 5 15 10 15 6 0 10 -7 10
-15z"/>
<path d="M0 2838 l0 -28 78 0 c65 0 82 -3 100 -20 l22 -21 0 -702 c0 -680 -1
-703 -20 -734 -21 -35 -55 -49 -99 -40 -35 7 -56 -12 -46 -42 6 -19 11 -20 68
-13 71 8 343 9 462 2 l80 -5 0 30 0 29 -76 1 c-61 0 -81 4 -98 19 -11 10 -25
35 -31 55 -6 22 -10 293 -10 713 l0 677 36 7 c51 10 158 -2 196 -22 86 -43
139 -105 177 -208 29 -79 31 -217 3 -292 -46 -122 -128 -193 -251 -218 -30 -7
-56 -17 -58 -23 -2 -6 3 -17 11 -26 27 -27 154 -3 256 48 115 58 222 187 261
316 16 53 20 88 17 152 -3 62 -10 96 -30 138 -14 31 -42 75 -63 98 -44 48
-175 117 -237 125 -24 3 -202 7 -395 9 l-353 3 0 -28z m331 -728 c-2 -438 1
-630 8 -630 6 0 11 -12 11 -27 0 -26 -1 -26 -15 -7 -12 16 -14 103 -15 581 0
325 -4 564 -9 567 -5 4 -12 28 -16 55 -5 38 -3 55 11 75 9 15 19 24 22 22 2
-3 4 -289 3 -636z m557 574 c12 -20 22 -41 22 -47 -1 -16 -59 54 -60 71 0 21
14 12 38 -24z m82 -73 c0 -4 -5 -12 -10 -17 -7 -7 -8 -19 -1 -36 5 -15 15 -29
20 -33 6 -3 10 -18 10 -33 -1 -21 -2 -22 -6 -7 -8 31 -23 42 -23 17 0 -12 -4
-22 -10 -22 -5 0 -10 17 -10 39 0 23 -8 48 -20 64 -11 14 -20 27 -20 30 0 3
16 5 35 5 19 0 35 -3 35 -7z m19 -221 c0 -9 -6 -4 -14 10 -19 33 -19 49 0 24
8 -10 14 -26 14 -34z m-673 -957 c20 -27 16 -38 -6 -18 -20 18 -26 35 -14 35
4 0 13 -8 20 -17z m-24 -85 c-9 -9 -12 -4 -11 23 0 32 1 33 11 11 8 -17 8 -26
0 -34z m62 7 c-7 -16 -24 -21 -24 -6 0 8 7 13 27 20 1 1 0 -6 -3 -14z"/>
<path d="M7248 2862 l-298 -2 0 -25 c0 -25 1 -26 75 -23 64 3 77 0 95 -18 21
-21 21 -27 26 -752 6 -790 2 -889 -42 -1020 -13 -41 -39 -97 -58 -125 -18 -29
-63 -80 -99 -113 -37 -34 -67 -69 -67 -79 0 -16 1 -16 23 -1 12 9 30 19 40 23
9 3 17 9 17 14 0 5 5 9 10 9 22 0 167 106 226 164 69 69 107 130 141 225 48
129 53 222 53 957 0 786 -10 714 103 714 64 0 67 1 67 24 0 14 -3 26 -7 28 -5
2 -142 2 -305 0z m37 -1569 c-3 -16 -14 -36 -22 -45 -9 -10 -13 -28 -11 -43 3
-14 1 -25 -3 -25 -5 0 -9 19 -9 43 0 29 7 51 22 70 12 15 24 27 26 27 2 0 1
-12 -3 -27z"/>
<path d="M9173 2853 c-3 -7 -3 -20 1 -28 4 -12 21 -14 77 -13 119 4 109 75
109 -748 l0 -703 -22 -21 c-12 -11 -40 -25 -63 -31 -22 -6 -46 -13 -53 -15 -8
-2 -12 -12 -10 -21 3 -17 35 -18 486 -20 l482 -2 5 24 c3 14 8 37 11 53 3 15
12 70 19 122 7 52 14 102 16 110 3 10 -5 16 -23 18 -29 3 -29 3 -42 -77 -9
-50 -45 -101 -82 -117 -24 -10 -83 -14 -215 -14 -151 0 -186 3 -209 17 -16 9
-33 26 -38 38 -7 14 -11 269 -13 690 -2 642 -2 668 16 681 12 9 46 14 96 14
63 0 78 3 83 17 4 9 3 20 -2 25 -5 5 -147 9 -316 11 -239 1 -310 -1 -313 -10z
m337 -1035 c0 -296 3 -365 15 -395 23 -54 20 -63 -19 -63 -19 0 -38 5 -41 10
-4 6 -6 189 -5 407 1 402 4 439 36 412 11 -9 14 -79 14 -371z"/>
<path d="M10682 2862 l-283 -2 3 -23 c3 -20 9 -22 67 -22 56 -1 66 -4 87 -28
l23 -27 1 -708 0 -709 -21 -27 c-20 -25 -26 -27 -83 -25 l-61 3 0 -30 c0 -23
4 -28 20 -26 41 5 455 1 470 -4 21 -8 19 -24 -3 -24 -20 0 -108 -26 -133 -40
-9 -5 -25 -6 -36 -4 -11 3 -25 -2 -32 -10 -8 -9 -23 -16 -34 -16 -11 0 -28 -7
-38 -16 -11 -10 -25 -13 -38 -9 -17 5 -19 10 -11 25 5 10 20 21 32 23 20 4 20
4 -4 6 -17 1 -29 8 -33 21 -3 11 -14 20 -24 20 -10 0 -92 -29 -182 -66 -188
-75 -350 -130 -494 -169 -55 -15 -109 -31 -120 -36 -28 -12 -405 -105 -565
-139 -439 -93 -859 -167 -1285 -225 -629 -85 -881 -108 -1560 -141 -55 -3
-260 -5 -455 -6 -453 -1 -907 20 -1265 58 -313 32 -585 67 -665 84 -25 5 -79
14 -120 20 -41 6 -91 16 -110 21 -19 6 -51 12 -70 14 -61 7 -104 16 -125 25
-11 5 -36 11 -55 14 -19 3 -53 9 -75 12 -22 4 -44 10 -50 14 -5 4 -41 13 -80
20 -38 8 -75 17 -81 22 -6 5 -19 6 -28 2 -29 -11 -17 -30 27 -41 78 -20 172
-44 207 -53 19 -4 53 -13 75 -19 37 -10 113 -26 305 -66 68 -14 196 -37 355
-64 123 -21 424 -60 545 -70 69 -6 163 -16 210 -21 176 -21 420 -31 925 -37
508 -6 1034 5 1280 27 61 5 208 17 328 25 237 17 665 63 902 96 83 11 166 23
185 25 36 5 257 41 415 69 50 8 108 20 130 25 22 5 99 21 170 35 166 31 218
43 450 99 178 43 453 115 520 136 17 5 82 26 145 45 244 76 421 145 615 240
182 89 285 157 380 246 l71 68 25 -22 c13 -12 47 -40 74 -62 76 -61 113 -104
145 -169 36 -71 39 -140 10 -204 -27 -59 -121 -156 -202 -208 -119 -77 -291
-157 -486 -226 -85 -30 -113 -39 -292 -91 -222 -65 -643 -161 -860 -196 -36
-5 -105 -17 -155 -25 -49 -9 -166 -25 -260 -36 -783 -93 -1273 -119 -2230
-115 -654 3 -1078 18 -1440 50 -429 38 -705 67 -850 89 -16 2 -93 13 -170 25
-231 33 -383 59 -510 86 -66 14 -154 32 -195 41 -70 15 -91 20 -187 43 -21 5
-72 19 -113 30 -41 12 -90 24 -108 28 -18 3 -35 10 -38 14 -3 5 -13 9 -23 9
-10 0 -44 9 -77 19 -32 11 -81 22 -109 26 l-50 6 35 -18 c19 -10 55 -25 80
-32 25 -8 49 -18 54 -23 6 -4 22 -8 37 -8 15 0 31 -4 34 -10 3 -5 17 -10 30
-10 13 0 27 -4 30 -10 3 -5 19 -10 35 -10 16 0 32 -4 35 -10 3 -5 15 -10 26
-10 11 0 50 -9 87 -20 181 -56 410 -109 792 -185 212 -42 302 -57 530 -89 96
-14 207 -30 245 -36 184 -28 637 -73 905 -90 102 -6 235 -15 296 -20 145 -13
1860 -13 1995 0 57 5 154 12 214 14 317 14 942 89 1340 161 154 28 388 74 425
84 19 6 98 24 175 42 343 78 655 182 870 291 124 63 212 119 289 185 67 58
106 115 106 156 0 15 7 30 15 33 8 4 15 17 15 31 0 13 -7 31 -15 39 -8 9 -15
25 -15 37 0 53 -98 160 -215 235 -79 51 -257 146 -295 157 -14 4 -28 12 -32
18 -3 6 6 33 22 61 16 28 34 70 41 93 9 34 9 54 -1 103 -23 108 -102 206 -240
300 -100 67 -349 190 -386 190 -31 0 -9 -22 81 -81 99 -64 155 -118 202 -197
25 -42 28 -57 28 -132 0 -77 -3 -91 -34 -153 -36 -70 -127 -172 -233 -260 -60
-50 -77 -84 -36 -74 12 4 28 1 36 -5 11 -10 16 -8 23 5 6 9 17 17 26 17 23 0
83 39 83 55 0 7 7 15 15 19 8 3 12 12 9 21 -7 17 7 20 23 4 8 -8 16 -3 29 17
10 16 25 37 33 46 30 32 37 43 51 76 8 17 18 32 21 32 4 0 9 19 13 42 4 23 12
48 17 55 6 7 13 48 16 93 4 46 10 80 16 80 18 0 67 -53 67 -72 0 -10 5 -18 10
-18 6 0 10 5 10 10 0 6 5 10 10 10 6 0 10 -9 10 -20 0 -11 -3 -20 -7 -20 -5 0
-9 -16 -10 -35 -1 -29 2 -35 18 -35 15 0 19 -7 19 -35 0 -25 -4 -35 -16 -35
-13 0 -15 -7 -9 -42 7 -38 6 -41 -9 -29 -13 11 -17 11 -22 -4 -4 -9 -2 -21 4
-27 12 -12 -10 -35 -60 -61 -20 -11 -41 -30 -48 -43 -14 -25 -40 -33 -40 -12
0 9 -3 9 -12 0 -10 -10 -10 -15 2 -22 8 -5 13 -10 10 -11 -3 0 -12 -2 -22 -4
-27 -5 -128 -84 -128 -100 0 -12 -16 -15 -67 -17 -38 -1 -84 -1 -103 0 -37 2
-64 26 -57 52 2 9 -2 22 -10 29 -9 8 -12 22 -9 35 3 11 6 320 6 686 0 584 2
669 16 688 13 19 24 22 85 22 66 0 69 1 69 24 0 13 -6 25 -12 27 -7 2 -140 3
-296 1z m22 -137 c11 -11 13 -29 9 -70 -4 -38 -2 -55 6 -55 6 0 11 -16 11 -37
0 -40 -15 -36 -23 7 -6 30 0 -88 11 -215 5 -49 4 -95 0 -101 -11 -15 8 -64 24
-64 7 -1 2 -10 -12 -21 -24 -21 -24 -21 -5 -35 16 -12 17 -16 6 -23 -11 -7
-12 -66 -6 -340 6 -244 5 -331 -4 -331 -15 0 -14 -40 2 -40 6 0 20 -12 30 -25
15 -20 15 -28 5 -45 -16 -26 -28 -26 -28 0 0 12 -9 30 -20 42 -19 20 -20 37
-21 222 -1 111 -3 361 -5 556 -5 537 -5 585 -5 588 2 6 11 1 25 -13z m46 -275
c0 -5 -4 -10 -10 -10 -5 0 -10 5 -10 10 0 6 5 10 10 10 6 0 10 -4 10 -10z
m372 -912 c-7 -7 -12 -8 -12 -2 0 14 12 26 19 19 2 -3 -1 -11 -7 -17z m-402
-220 c0 -5 -7 -8 -15 -8 -17 0 -39 46 -29 62 4 5 15 -3 25 -19 10 -15 19 -31
19 -35z m0 -28 c0 -5 -7 -10 -15 -10 -8 0 -15 5 -15 10 0 6 7 10 15 10 8 0 15
-4 15 -10z m1035 -90 c7 -21 30 -27 40 -10 3 5 12 7 20 4 13 -5 13 -9 0 -27
-21 -31 -19 -44 4 -19 10 12 21 22 25 22 3 0 6 -9 6 -19 0 -10 6 -21 14 -24 7
-3 27 -31 45 -61 24 -42 29 -61 22 -74 -9 -16 -10 -16 -16 0 -10 26 -28 10
-21 -18 4 -14 1 -26 -8 -31 -7 -4 -16 -17 -18 -28 -5 -20 -5 -20 -13 -1 -6 13
-4 21 3 24 7 2 12 15 12 30 0 24 -2 23 -20 -13 -11 -22 -20 -45 -20 -53 0 -14
-67 -82 -81 -82 -5 0 -9 5 -9 10 0 6 -7 10 -15 10 -8 0 -15 -4 -15 -10 0 -5 5
-10 10 -10 6 0 10 -7 10 -15 0 -8 -6 -15 -14 -15 -8 0 -16 7 -20 15 -3 8 -10
15 -16 15 -13 0 -13 -27 1 -32 11 -4 -66 -58 -82 -58 -6 0 -23 -10 -40 -22
-26 -19 -31 -20 -40 -8 -8 11 -12 12 -16 3 -2 -7 -21 -13 -40 -13 -33 0 -35
-2 -31 -29 4 -26 2 -29 -13 -20 -25 13 -39 11 -39 -6 0 -11 -10 -13 -49 -8
-30 3 -51 1 -55 -5 -4 -6 -13 -9 -21 -6 -9 4 -20 -6 -31 -29 -12 -26 -21 -33
-36 -29 -10 2 -28 -4 -39 -14 -14 -13 -22 -15 -31 -6 -8 8 -4 13 16 18 14 3
26 10 26 15 0 5 8 9 18 10 10 0 12 3 5 6 -16 6 -17 23 -1 23 6 0 36 12 66 26
37 18 66 25 90 22 31 -4 36 -1 46 23 5 15 20 33 33 40 18 10 26 9 38 -1 11 -9
19 -10 26 -3 8 8 5 14 -10 22 -23 13 -28 31 -9 31 6 0 20 -7 30 -17 23 -21 36
-9 19 19 -10 17 -10 19 1 16 14 -5 64 25 85 50 10 12 15 13 27 3 8 -7 20 -9
27 -5 8 5 7 9 -5 16 -18 10 -22 38 -6 38 6 0 13 -7 16 -15 10 -26 24 -16 24
16 0 20 12 45 35 73 26 32 35 53 35 80 0 22 4 35 10 31 18 -11 10 69 -10 100
-22 33 -25 45 -11 45 5 0 13 -9 16 -20z m-1195 -79 c0 -5 3 -16 6 -25 5 -13 2
-13 -19 -3 -19 9 -23 15 -15 24 12 15 28 17 28 4z m-83 -47 c-9 -9 -28 6 -21
18 4 6 10 6 17 -1 6 -6 8 -13 4 -17z m-107 -28 c0 -9 -30 -14 -35 -6 -4 6 3
10 14 10 12 0 21 -2 21 -4z m700 -495 c0 -12 -20 -25 -27 -18 -7 7 6 27 18 27
5 0 9 -4 9 -9z m-40 -31 c0 -5 -4 -10 -10 -10 -5 0 -10 5 -10 10 0 6 5 10 10
10 6 0 10 -4 10 -10z m-30 -10 c0 -5 -12 -10 -27 -9 -25 0 -26 1 -8 9 27 12
35 12 35 0z m-49 -36 c11 -14 10 -15 -11 -12 -13 1 -25 9 -28 16 -5 17 23 15
39 -4z m-131 -9 c0 -4 -88 -45 -96 -45 -2 0 -4 4 -4 9 0 5 17 16 38 24 37 16
62 21 62 12z m-147 -62 c-7 -2 -21 -2 -30 0 -10 3 -4 5 12 5 17 0 24 -2 18 -5z"/>
<path d="M11842 1090 c0 -14 2 -19 5 -12 2 6 2 18 0 25 -3 6 -5 1 -5 -13z"/>
<path d="M7662 2830 c0 -19 2 -27 5 -17 2 9 2 25 0 35 -3 9 -5 1 -5 -18z"/>
<path d="M7632 2771 c4 -13 18 -16 19 -4 0 4 -5 9 -11 12 -7 2 -11 -2 -8 -8z"/>
<path d="M3585 2450 c-3 -5 3 -10 15 -10 12 0 18 5 15 10 -3 6 -10 10 -15 10
-5 0 -12 -4 -15 -10z"/>
<path d="M6052 2263 c-7 -2 -16 -12 -21 -21 -7 -13 -4 -17 12 -17 16 0 22 6
22 23 0 12 0 22 0 21 0 0 -6 -3 -13 -6z"/>
<path d="M11172 2231 c4 -13 18 -16 19 -4 0 4 -5 9 -11 12 -7 2 -11 -2 -8 -8z"/>
<path d="M6208 2099 c-19 -11 -24 -29 -8 -29 5 0 14 9 20 20 12 23 12 23 -12
9z"/>
<path d="M9092 1440 c-18 -29 -15 -38 4 -12 9 13 14 25 12 27 -2 2 -9 -5 -16
-15z"/>
<path d="M4480 1184 c0 -8 5 -12 10 -9 6 4 8 11 5 16 -9 14 -15 11 -15 -7z"/>
<path d="M812 1169 c2 -6 8 -10 13 -10 5 0 11 4 13 10 2 6 -4 11 -13 11 -9 0
-15 -5 -13 -11z"/>
<path d="M4516 1171 c-4 -5 -2 -12 3 -15 5 -4 12 -2 15 3 4 5 2 12 -3 15 -5 4
-12 2 -15 -3z"/>
<path d="M3195 811 c-6 -11 9 -23 19 -14 9 9 7 23 -3 23 -6 0 -12 -4 -16 -9z"/>
<path d="M3252 811 c2 -7 7 -12 11 -12 12 1 9 15 -3 20 -7 2 -11 -2 -8 -8z"/>
</g>
</svg>
