<?xml version="1.0" standalone="no"?>
<!DOCTYPE svg PUBLIC "-//W3C//DTD SVG 20010904//EN"
 "http://www.w3.org/TR/2001/REC-SVG-20010904/DTD/svg10.dtd">
<svg version="1.0" xmlns="http://www.w3.org/2000/svg"
 width="1200.000000pt" height="334.000000pt" viewBox="0 0 1200.000000 334.000000"
 preserveAspectRatio="xMidYMid meet">
<g transform="translate(0.000000,334.000000) scale(0.100000,-0.100000)"
fill="#000000" stroke="none">
<path d="M895 3051 c-11 -5 -37 -10 -58 -10 -20 -1 -45 -5 -55 -10 -9 -5 -37
-15 -62 -22 -76 -22 -234 -107 -302 -163 -69 -57 -129 -131 -153 -190 -8 -19
-15 -61 -15 -92 0 -53 2 -59 43 -99 30 -30 55 -45 82 -51 22 -4 50 -10 61 -15
21 -7 21 -9 8 -66 -8 -32 -14 -95 -14 -140 0 -95 4 -92 -98 -68 -77 18 -129
44 -163 82 -57 61 -72 120 -55 211 7 33 6 42 -5 42 -17 0 -33 -35 -49 -108
-23 -98 6 -179 88 -253 53 -48 146 -87 234 -98 l52 -6 13 -102 c7 -56 22 -126
33 -155 11 -29 16 -55 12 -59 -7 -7 -92 3 -188 22 -71 14 -183 70 -220 110
-18 19 -44 57 -58 84 l-27 50 5 -54 c7 -72 55 -152 123 -203 88 -67 247 -118
369 -118 39 0 41 -1 58 -49 19 -53 91 -176 125 -212 26 -28 27 -39 4 -39 -83
0 -301 39 -343 61 -8 4 -31 14 -50 23 -20 8 -49 26 -65 40 -17 14 -36 26 -42
26 -51 0 54 -97 162 -150 44 -22 107 -47 140 -56 33 -8 112 -18 175 -21 l115
-6 70 -59 c38 -33 103 -75 143 -94 39 -20 72 -40 72 -45 0 -5 -30 -9 -67 -8
-81 0 -248 21 -259 32 -12 12 -64 8 -64 -6 0 -13 37 -31 85 -41 17 -4 62 -13
100 -21 104 -22 309 -19 420 5 206 46 370 132 528 280 77 72 177 194 177 218
0 21 -17 13 -52 -25 -93 -104 -127 -137 -132 -133 -3 3 -12 41 -21 84 -9 44
-24 97 -32 119 l-16 39 34 26 c55 41 179 171 190 199 5 13 15 23 22 20 8 -2
13 -41 15 -135 2 -99 6 -132 15 -132 7 0 18 15 25 33 14 40 16 179 2 260 -8
52 -7 62 19 115 45 91 65 202 55 303 -5 48 -11 69 -20 69 -10 0 -14 -14 -14
-46 0 -82 -48 -259 -70 -259 -7 0 -20 25 -29 55 -19 60 -52 129 -84 174 l-20
28 23 47 c72 147 65 313 -19 411 -26 29 -31 31 -37 17 -3 -10 -1 -24 6 -32 6
-7 14 -47 17 -88 5 -59 1 -89 -17 -153 -13 -43 -27 -83 -31 -88 -4 -5 -18 4
-31 20 -13 16 -65 71 -117 123 -51 51 -89 96 -84 100 5 3 17 25 26 49 23 56
21 146 -2 197 -22 46 -99 124 -154 154 -42 23 -101 29 -95 9 3 -7 14 -15 26
-18 33 -8 90 -56 109 -93 28 -54 32 -94 17 -164 -7 -37 -17 -70 -21 -74 -5 -5
-28 6 -53 23 -43 29 -80 48 -162 81 -37 16 -37 16 -22 46 18 35 21 110 6 138
-18 33 -79 81 -119 94 -49 15 -212 21 -238 10z m184 -61 c22 -11 49 -31 60
-46 24 -31 28 -91 8 -118 -13 -17 -17 -17 -68 -3 -134 38 -239 48 -239 23 0
-8 14 -16 33 -19 17 -4 48 -9 67 -12 52 -9 164 -36 173 -42 10 -6 -14 -33 -75
-85 l-48 -40 -42 35 c-60 48 -135 97 -147 97 -20 0 -11 -25 16 -45 71 -53 132
-110 125 -117 -7 -7 -169 -88 -177 -88 -2 0 -9 26 -15 58 -6 31 -15 71 -21 88
-5 17 -9 38 -9 47 0 9 -7 17 -15 17 -20 0 -20 -52 0 -145 8 -38 11 -73 7 -76
-10 -8 -119 -29 -154 -29 -15 0 -28 4 -28 8 0 16 53 157 72 190 10 18 18 37
18 42 0 14 -19 12 -34 -2 -16 -17 -70 -132 -86 -183 -7 -22 -16 -44 -21 -49
-13 -15 -96 22 -124 55 -90 107 71 301 340 410 11 4 36 12 55 18 19 6 49 15
65 20 17 5 74 10 128 10 79 1 105 -3 136 -19z m260 -324 c55 -33 101 -66 101
-73 0 -7 -43 -56 -96 -109 l-95 -96 -28 39 c-15 21 -56 64 -90 96 -33 32 -61
62 -61 66 0 4 20 22 43 40 24 18 55 49 68 70 17 27 29 37 40 32 9 -3 62 -33
118 -65z m186 -87 c11 -17 2 -18 -19 -3 -17 12 -17 14 -4 14 9 0 20 -5 23 -11z
m-445 -96 c30 -35 67 -81 83 -101 l27 -36 -137 -69 c-76 -38 -142 -73 -147
-78 -6 -5 -15 -9 -20 -9 -14 0 -100 246 -91 260 3 5 13 10 21 10 23 0 157 64
172 83 8 9 19 14 25 11 7 -3 37 -35 67 -71z m526 -25 c33 -35 81 -89 108 -121
l49 -58 -39 -42 c-61 -66 -187 -187 -206 -197 -14 -8 -20 -3 -36 32 -11 24
-49 85 -86 136 -63 87 -72 112 -42 112 19 0 153 138 167 171 6 16 15 29 19 29
4 0 34 -28 66 -62z m-857 -93 c7 -33 22 -85 32 -115 10 -30 19 -61 19 -70 0
-12 -23 -20 -97 -34 -54 -10 -120 -22 -146 -27 -26 -5 -53 -9 -59 -9 -8 0 -9
40 -4 137 4 75 10 141 12 145 3 4 25 8 49 8 52 0 146 18 160 31 5 5 12 6 15 2
4 -5 13 -35 19 -68z m539 -40 c-2 -5 -10 -10 -18 -10 -8 0 -16 -8 -18 -18 -2
-9 -7 -17 -12 -17 -11 0 0 43 14 52 15 11 38 5 34 -7z m137 -305 c8 -9 15 -21
15 -27 0 -14 -126 -87 -245 -142 -49 -23 -98 -46 -107 -51 -27 -15 -48 -12
-55 8 -3 9 -30 73 -59 141 -30 68 -52 127 -49 131 2 4 19 10 37 14 46 9 227
100 268 135 l35 29 72 -111 c40 -60 80 -118 88 -127z m467 25 c25 -55 48 -112
51 -127 6 -22 -1 -36 -42 -85 -27 -32 -83 -88 -124 -125 -82 -74 -85 -74 -107
-3 -15 48 -74 171 -92 193 -11 12 -8 18 17 36 49 34 153 137 193 188 28 38 39
45 48 36 6 -7 32 -58 56 -113z m-992 96 c0 -6 -4 -13 -10 -16 -5 -3 -10 -12
-10 -18 0 -7 4 -6 10 3 5 8 12 11 16 7 9 -9 -15 -37 -31 -37 -7 0 -15 7 -19
15 -3 9 -16 20 -28 25 -21 8 -22 9 -3 11 11 1 25 1 32 0 6 -1 14 3 18 9 8 13
25 13 25 1z m-436 -71 c-6 -36 -5 -40 11 -34 13 5 16 3 13 -7 -7 -22 -31 -17
-44 10 -10 20 -10 29 3 48 8 12 17 23 19 23 2 0 1 -18 -2 -40z m395 -51 c7
-23 34 -88 61 -145 27 -58 49 -108 50 -111 2 -12 -141 -43 -366 -78 -19 -3
-35 0 -41 7 -12 15 -63 245 -63 282 0 25 2 26 58 26 62 0 229 32 259 49 10 6
21 11 24 11 3 0 11 -19 18 -41z m717 -285 c36 -74 64 -137 62 -139 -13 -12
-134 -79 -246 -135 l-132 -67 -37 66 c-20 36 -54 94 -75 129 -21 34 -38 69
-38 76 0 8 15 17 33 20 43 8 240 104 308 150 30 20 55 36 57 36 1 0 32 -61 68
-136z m-511 -152 c16 -31 52 -90 79 -131 52 -78 52 -84 -4 -97 -14 -3 -68 -16
-120 -29 -52 -13 -126 -29 -165 -35 l-70 -11 -22 28 c-41 50 -154 247 -149
259 3 7 30 12 73 12 68 0 263 35 292 52 37 21 55 11 86 -48z m635 -143 c7 -28
23 -80 36 -115 l23 -64 -57 -39 c-32 -21 -94 -59 -140 -84 l-82 -46 -80 105
c-44 58 -78 110 -75 115 4 5 14 9 23 9 23 0 224 102 275 140 23 16 46 30 53
30 7 0 17 -23 24 -51z m-395 -216 c22 -30 62 -75 88 -99 42 -38 46 -44 30 -52
-10 -5 -75 -24 -144 -42 l-127 -32 -65 34 c-82 44 -217 139 -217 154 0 7 27
14 63 18 72 9 205 39 262 60 22 8 47 15 55 15 8 0 33 -25 55 -56z"/>
<path d="M317 2954 c-8 -8 1 -24 14 -24 5 0 9 7 9 15 0 15 -12 20 -23 9z"/>
<path d="M155 2850 c-4 -6 -3 -16 3 -22 6 -6 12 -6 17 2 4 6 3 16 -3 22 -6 6
-12 6 -17 -2z"/>
<path d="M2196 2371 c-4 -5 -2 -12 3 -15 5 -4 12 -2 15 3 4 5 2 12 -3 15 -5 4
-12 2 -15 -3z"/>
<path d="M7255 1559 c-100 -19 -191 -51 -245 -87 -110 -75 -156 -172 -148
-316 6 -101 35 -171 93 -225 52 -47 103 -74 170 -90 28 -6 163 -29 300 -51
138 -23 260 -48 272 -55 13 -9 25 -30 29 -51 14 -75 -55 -117 -188 -112 -98 3
-150 26 -169 74 l-14 35 -258 2 c-183 1 -257 -1 -257 -9 0 -35 23 -123 42
-161 30 -60 107 -129 181 -163 110 -49 193 -63 412 -68 236 -5 366 10 499 59
67 24 100 43 142 82 30 27 66 71 79 97 36 71 49 163 35 251 -21 136 -94 217
-241 268 -30 10 -187 40 -349 66 -187 31 -301 54 -312 63 -21 18 -23 60 -5 84
7 9 32 24 55 34 32 12 63 15 125 12 104 -6 149 -26 175 -79 l20 -40 248 0
c203 -1 249 2 247 13 -14 92 -62 187 -122 238 -81 67 -187 107 -346 130 -86
12 -401 11 -470 -1z m100 -79 c-3 -5 -12 -7 -20 -3 -21 7 -19 13 6 13 11 0 18
-4 14 -10z m225 1 c0 -12 -59 -11 -66 1 -3 4 11 8 30 8 20 0 36 -4 36 -9z
m223 -29 c38 5 49 2 71 -18 26 -25 46 -31 46 -14 0 6 7 10 16 10 10 0 13 -6
10 -18 -4 -13 4 -22 32 -34 54 -25 125 -93 77 -74 -9 3 -15 0 -15 -9 0 -8 -10
-19 -21 -26 -16 -8 -23 -8 -29 1 -5 7 -40 11 -109 9 -56 -1 -105 1 -108 5 -4
3 -13 6 -21 6 -7 0 -25 9 -39 20 -14 11 -34 20 -44 20 -24 0 -24 16 -1 30 13
9 6 10 -31 6 -59 -7 -97 1 -97 20 0 18 18 18 37 -1 17 -17 34 -16 41 3 2 7 -6
12 -20 12 -13 0 -29 5 -35 11 -7 7 -23 7 -54 -1 -24 -7 -51 -18 -61 -27 -10
-9 -18 -11 -22 -4 -4 5 1 14 10 19 12 7 13 11 5 17 -7 4 -20 0 -30 -9 -23 -21
-34 -20 -49 4 -14 23 -34 27 -26 6 3 -8 1 -21 -5 -28 -42 -50 -77 -105 -74
-115 6 -18 -16 -26 -23 -9 -8 22 -24 20 -24 -3 0 -10 8 -22 17 -25 14 -6 15
-9 4 -15 -11 -7 -11 -13 0 -32 8 -13 14 -29 14 -34 0 -6 10 -23 22 -38 15 -19
24 -24 29 -16 5 9 10 8 18 -3 19 -26 52 -37 178 -62 208 -41 257 -48 275 -42
21 8 103 -3 103 -15 0 -5 -6 -6 -13 -3 -7 2 -24 0 -38 -5 l-24 -10 25 -1 c14
-1 41 -1 61 0 25 1 38 -4 42 -14 5 -11 20 -16 52 -16 41 0 50 -5 94 -49 37
-38 51 -61 61 -101 24 -100 -3 -212 -67 -275 -24 -24 -43 -48 -43 -54 0 -14
-33 -14 -47 0 -6 6 -17 8 -23 4 -8 -5 -9 -10 -1 -18 13 -13 -4 -37 -26 -37
-13 0 -13 3 -3 15 15 18 3 19 -35 5 -20 -8 -27 -7 -31 5 -7 18 -24 20 -24 2 0
-7 12 -20 28 -29 24 -16 25 -17 6 -18 -11 0 -35 7 -53 16 -29 15 -35 15 -69
-2 -30 -14 -64 -17 -203 -16 -164 0 -167 1 -194 26 -15 14 -36 26 -46 26 -26
0 -24 -18 3 -22 12 -2 23 -9 26 -17 3 -10 -5 -12 -39 -6 -24 4 -56 14 -71 23
-22 13 -29 13 -42 3 -13 -11 -16 -11 -16 2 0 20 -25 28 -55 17 -21 -8 -25 -7
-25 10 0 12 -7 20 -17 20 -21 0 -83 72 -83 96 0 14 3 14 15 4 21 -17 31 -5 14
16 -13 16 -11 17 20 11 18 -4 87 -7 152 -7 117 0 119 0 152 -30 19 -16 39 -30
45 -30 5 0 12 -7 16 -15 6 -17 42 -20 51 -5 10 16 45 11 88 -13 29 -16 41 -19
44 -9 3 7 22 12 48 12 24 0 47 5 50 10 3 6 11 10 17 10 7 0 6 -6 -2 -15 -10
-13 -9 -15 8 -15 12 0 24 5 27 10 8 13 45 13 45 0 0 -5 8 -10 18 -10 15 1 16
2 1 13 -24 18 -31 51 -18 81 15 33 33 22 25 -15 -7 -35 9 -39 18 -5 7 27 -1
56 -15 56 -17 0 -9 27 15 53 14 15 20 29 15 32 -5 4 -13 3 -19 0 -5 -3 -10 3
-10 14 0 11 -5 23 -10 26 -8 5 -7 11 1 21 6 8 8 18 4 22 -4 4 -10 1 -12 -5 -3
-7 -12 -13 -20 -13 -9 0 -13 6 -10 14 6 16 -11 33 -68 66 -33 19 -57 23 -135
25 -52 1 -108 7 -123 13 -16 7 -39 12 -53 12 -14 0 -24 6 -24 14 0 14 -48 32
-58 21 -3 -3 3 -5 12 -5 10 0 16 -6 13 -12 -5 -17 -46 -10 -79 13 -23 17 -30
18 -48 7 -11 -7 -20 -16 -20 -20 0 -5 -5 -8 -12 -8 -9 0 -9 3 0 12 7 7 12 16
12 20 0 12 -38 10 -45 -2 -9 -15 -28 -12 -22 4 4 9 -5 19 -24 26 -51 22 -115
120 -77 120 9 0 9 3 0 12 -8 8 -15 8 -24 0 -11 -8 -12 5 -9 70 2 60 0 83 -10
89 -11 6 -11 11 -1 21 6 6 12 23 12 36 0 21 2 22 15 12 8 -7 15 -20 15 -28 0
-11 3 -13 10 -6 8 8 7 19 -1 37 -9 21 -9 28 2 39 8 7 34 22 59 32 25 10 57 25
73 33 24 13 28 12 33 -1 3 -9 10 -14 15 -11 4 3 6 12 3 19 -4 11 12 16 70 21
42 4 82 5 90 2 8 -3 16 -2 18 3 2 5 30 10 63 12 53 3 60 1 57 -14 -2 -11 3
-18 13 -18 8 0 15 5 15 11 0 5 4 8 9 5 4 -3 34 1 65 9 31 8 61 15 66 15 6 0
10 -7 10 -15 0 -8 -5 -15 -11 -15 -5 0 -7 -5 -3 -12 6 -9 9 -9 12 0 2 7 10 12
17 12 8 0 20 10 26 22 l11 21 18 -23 c15 -20 24 -22 63 -18z m-403 -82 c11 -7
4 -10 -27 -10 -24 0 -43 5 -43 10 0 13 50 13 70 0z m563 -407 c-7 -2 -19 -2
-25 0 -7 3 -2 5 12 5 14 0 19 -2 13 -5z m-223 -447 c-13 -13 -35 7 -25 24 5 8
11 8 21 -1 10 -8 12 -15 4 -23z"/>
<path d="M7835 1429 c-4 -6 -5 -13 -2 -16 7 -7 27 6 27 18 0 12 -17 12 -25 -2z"/>
<path d="M7238 1383 c12 -2 22 -9 22 -14 0 -5 5 -9 11 -9 8 0 8 5 -1 15 -7 8
-22 14 -34 14 -20 -2 -20 -2 2 -6z"/>
<path d="M7235 1331 c-3 -5 -1 -12 5 -16 5 -3 10 1 10 9 0 18 -6 21 -15 7z"/>
<path d="M7995 1330 c-4 -6 -3 -16 3 -22 6 -6 12 -6 17 2 4 6 3 16 -3 22 -6 6
-12 6 -17 -2z"/>
<path d="M6970 1265 c0 -8 5 -15 10 -15 6 0 10 7 10 15 0 8 -4 15 -10 15 -5 0
-10 -7 -10 -15z"/>
<path d="M7228 1098 c9 -9 15 -9 24 0 9 9 7 12 -12 12 -19 0 -21 -3 -12 -12z"/>
<path d="M7434 896 c11 -9 36 -16 55 -16 48 0 28 17 -29 25 -42 6 -44 5 -26
-9z"/>
<path d="M7820 750 c0 -19 3 -21 12 -12 9 9 9 15 0 24 -9 9 -12 7 -12 -12z"/>
<path d="M7816 635 c4 -8 10 -15 15 -15 5 0 9 7 9 15 0 8 -7 15 -15 15 -9 0
-12 -6 -9 -15z"/>
<path d="M7465 490 c-8 -12 20 -24 35 -15 6 3 8 11 5 16 -8 12 -32 12 -40 -1z"/>
<path d="M7365 470 c10 -11 22 -17 27 -14 5 3 1 12 -9 20 -27 20 -39 17 -18
-6z"/>
<path d="M7515 460 c4 -6 11 -8 16 -5 14 9 11 15 -7 15 -8 0 -12 -5 -9 -10z"/>
<path d="M7595 460 c4 -6 11 -8 16 -5 14 9 11 15 -7 15 -8 0 -12 -5 -9 -10z"/>
<path d="M9420 1555 c-186 -36 -325 -129 -403 -273 -61 -111 -89 -307 -67
-471 27 -206 94 -329 230 -421 118 -79 258 -110 505 -110 237 0 373 28 485
100 99 64 166 161 209 306 36 120 58 109 -220 107 l-242 -2 -17 -51 c-19 -55
-66 -112 -115 -138 -40 -21 -186 -21 -235 1 -48 21 -94 72 -121 132 -20 44
-23 67 -23 190 0 108 4 148 16 175 31 67 75 116 124 140 40 20 65 24 141 25
87 0 93 -1 129 -31 52 -42 73 -73 87 -128 l13 -48 242 -1 c212 -2 242 0 242
13 0 36 -33 140 -65 206 -64 131 -182 222 -350 269 -83 24 -457 30 -565 10z
m490 -85 c0 -4 -12 -11 -27 -15 l-28 -8 25 -7 c16 -4 28 -2 33 7 7 11 12 11
30 -2 12 -9 43 -15 72 -15 39 0 53 -4 63 -20 7 -11 18 -20 25 -20 7 0 42 -27
76 -60 35 -33 67 -60 73 -60 5 0 6 -5 2 -11 -3 -6 2 -26 12 -45 19 -35 19 -35
0 -46 -12 -7 -69 -10 -145 -9 -118 2 -127 3 -141 24 -8 12 -29 37 -48 56 -23
24 -31 39 -26 54 6 18 3 19 -29 14 -34 -5 -35 -4 -34 21 2 24 -1 27 -33 27
-19 1 -41 4 -48 9 -8 4 -49 9 -93 10 -59 2 -79 -1 -79 -11 0 -7 8 -14 18 -14
26 -2 -58 -21 -101 -22 -29 -2 -40 -8 -50 -27 -7 -14 -25 -31 -40 -38 -22 -11
-26 -17 -17 -27 9 -10 7 -16 -7 -23 -10 -6 -25 -25 -34 -44 -45 -92 -50 -111
-43 -154 3 -25 2 -50 -3 -57 -18 -22 -21 -61 -9 -119 6 -31 15 -60 19 -64 11
-12 8 -24 -7 -24 -15 0 -28 -48 -15 -56 5 -3 14 6 21 20 6 14 15 26 20 26 14
0 9 -47 -7 -60 -8 -7 -15 -19 -15 -26 0 -8 6 -11 15 -8 8 4 15 12 15 20 0 26
20 14 34 -21 8 -19 19 -35 25 -35 5 0 13 -9 16 -20 4 -11 20 -27 36 -35 17 -9
29 -24 29 -35 0 -16 7 -20 31 -20 27 0 30 2 19 15 -18 22 5 20 38 -4 15 -10
45 -21 67 -24 22 -3 53 -9 69 -13 21 -5 31 -3 38 10 5 9 18 16 28 16 11 0 20
5 20 10 0 6 23 20 50 32 28 12 50 27 50 32 0 19 88 105 112 110 13 3 71 7 131
8 104 3 107 2 107 -19 0 -12 -4 -25 -10 -28 -5 -3 -10 -10 -10 -16 0 -5 5 -9
10 -9 6 0 10 7 10 15 0 8 5 15 10 15 6 0 10 -7 10 -15 0 -8 -4 -15 -8 -15 -5
0 -19 -21 -32 -46 -27 -51 -72 -94 -125 -120 -29 -13 -38 -14 -50 -4 -12 10
-19 10 -27 2 -9 -9 -8 -12 6 -12 10 0 16 -5 13 -12 -2 -7 -11 -11 -18 -9 -8 2
-25 6 -39 9 l-25 5 24 -27 c26 -28 23 -32 -9 -16 -11 6 -29 15 -40 20 -12 6
-20 6 -20 1 0 -5 6 -11 13 -14 6 -2 9 -8 4 -13 -4 -4 -114 -8 -245 -8 -211 -1
-241 1 -271 17 -21 12 -43 16 -58 12 -25 -6 -83 13 -83 27 0 13 28 9 32 -4 5
-13 38 -4 38 11 0 12 -66 19 -84 9 -10 -6 -34 13 -83 63 -38 40 -68 81 -69 93
-2 36 -4 39 -19 26 -12 -10 -15 -9 -15 4 0 10 4 25 9 34 5 9 5 26 1 37 -7 18
-9 17 -20 -10 -11 -24 -14 -26 -17 -12 -3 10 1 32 7 48 11 25 10 32 -4 48 -15
16 -16 36 -12 152 8 189 17 250 44 283 12 16 20 32 17 36 -8 13 123 137 158
150 18 6 45 19 60 27 21 11 32 12 40 4 6 -6 18 -11 26 -11 11 0 11 3 -4 13
-17 13 -17 14 4 20 13 3 24 0 27 -7 3 -7 20 -10 45 -8 27 3 37 7 28 13 -7 4
-17 5 -22 2 -11 -7 -39 5 -34 14 7 11 477 13 477 3z m-167 -127 c-7 -2 -19 -2
-25 0 -7 3 -2 5 12 5 14 0 19 -2 13 -5z"/>
<path d="M9755 1450 c-4 -6 3 -10 14 -10 25 0 27 6 6 13 -8 4 -17 2 -20 -3z"/>
<path d="M9300 1244 c0 -8 5 -12 10 -9 6 4 8 11 5 16 -9 14 -15 11 -15 -7z"/>
<path d="M9330 1214 c0 -17 22 -14 28 4 2 7 -3 12 -12 12 -9 0 -16 -7 -16 -16z"/>
<path d="M10233 1204 c-3 -8 -1 -20 6 -27 8 -8 11 -4 11 16 0 30 -7 35 -17 11z"/>
<path d="M9102 1160 c0 -14 2 -19 5 -12 2 6 2 18 0 25 -3 6 -5 1 -5 -13z"/>
<path d="M9296 1144 c-4 -15 -2 -32 3 -37 8 -8 11 0 11 26 0 20 -2 37 -4 37
-2 0 -7 -12 -10 -26z"/>
<path d="M9851 511 c-10 -6 -9 -10 3 -14 8 -3 18 -2 21 3 8 13 -9 20 -24 11z"/>
<path d="M9559 459 c16 -6 28 -6 35 1 7 7 -1 10 -24 9 -33 0 -34 -1 -11 -10z"/>
<path d="M11035 1564 c-16 -3 -65 -14 -108 -25 -137 -34 -231 -93 -301 -189
-51 -69 -90 -166 -107 -264 -15 -90 -6 -321 16 -401 37 -133 125 -249 237
-313 66 -38 159 -68 253 -82 108 -15 379 -12 480 5 173 30 311 111 385 226 60
93 80 165 80 286 0 88 3 105 17 110 15 6 15 7 -2 13 -17 6 -19 17 -16 108 2
83 -1 114 -19 166 -27 82 -84 171 -141 220 -24 20 -75 53 -114 71 -125 60
-167 67 -410 70 -121 2 -233 1 -250 -1z m385 -84 c0 -13 -30 -13 -50 0 -11 7
-7 10 18 10 17 0 32 -4 32 -10z m-244 -11 c4 -8 9 -8 17 0 15 15 140 14 155
-1 8 -8 38 -11 87 -9 52 2 75 -1 75 -9 0 -8 10 -9 29 -5 22 5 32 2 39 -11 6
-11 12 -13 16 -6 5 8 17 6 41 -5 19 -9 35 -21 35 -26 0 -5 7 -7 15 -3 10 3 37
-16 77 -55 49 -47 59 -62 48 -69 -12 -8 -12 -10 3 -16 9 -3 17 -14 17 -24 0
-10 7 -23 15 -30 8 -7 12 -17 9 -22 -3 -5 -3 -21 1 -36 l7 -27 10 25 c9 24 10
24 20 6 9 -16 7 -22 -10 -34 -15 -10 -22 -24 -21 -46 l1 -31 11 33 c5 18 15
31 21 29 6 -2 13 -30 16 -63 3 -32 15 -76 26 -96 15 -26 19 -47 15 -70 l-6
-33 -3 38 c-5 60 -22 43 -22 -23 0 -33 -4 -60 -8 -60 -5 0 -16 18 -26 41 -10
22 -21 38 -24 35 -3 -3 0 -23 6 -43 6 -21 13 -61 15 -89 3 -45 1 -54 -19 -69
-12 -9 -20 -23 -17 -31 3 -8 0 -14 -6 -14 -6 0 -11 -7 -11 -15 0 -9 -30 -46
-66 -84 -48 -50 -72 -67 -86 -63 -10 2 -27 -3 -38 -13 -12 -11 -28 -15 -41
-12 -17 5 -20 2 -16 -15 5 -19 2 -20 -33 -14 -21 3 -41 2 -44 -3 -7 -11 -142
-35 -154 -27 -5 3 -81 6 -170 7 -123 1 -164 5 -173 15 -6 8 -18 14 -25 14 -8
0 -14 5 -14 10 0 6 -8 10 -17 10 -13 0 -14 -3 -5 -12 20 -20 14 -29 -15 -22
-37 9 -47 26 -25 43 15 12 12 12 -20 7 -21 -4 -39 -2 -43 4 -3 5 -15 10 -26
10 -11 0 -49 29 -85 65 -36 36 -61 65 -55 65 6 0 11 7 11 16 0 11 -6 13 -19 9
-26 -8 -39 15 -18 30 10 7 17 18 17 26 0 11 -2 11 -10 -1 -7 -12 -12 -12 -22
-2 -9 9 -9 19 0 45 7 18 12 36 12 40 0 4 -12 7 -26 7 -17 0 -23 4 -18 12 4 6
6 60 5 120 -3 133 6 218 25 218 21 0 28 22 10 32 -20 11 -21 37 -2 44 9 3 14
19 13 40 -1 40 28 78 42 55 6 -9 11 -10 15 -2 4 6 2 11 -3 11 -6 0 -11 7 -11
15 0 8 6 15 14 15 7 0 19 7 26 15 7 8 38 33 70 54 42 29 61 36 69 28 8 -8 16
-6 29 6 10 9 28 17 40 17 12 0 22 4 22 8 0 9 101 28 162 30 20 1 40 -3 44 -9z
m694 -234 c0 -8 -2 -15 -4 -15 -2 0 -6 7 -10 15 -3 8 -1 15 4 15 6 0 10 -7 10
-15z"/>
<path d="M11098 1438 c17 -8 26 -8 34 0 9 9 4 12 -22 11 -33 0 -34 -1 -12 -11z"/>
<path d="M10978 1423 c6 -2 18 -2 25 0 6 3 1 5 -13 5 -14 0 -19 -2 -12 -5z"/>
<path d="M11140 1390 c0 -5 9 -10 21 -10 11 0 17 5 14 10 -3 6 -13 10 -21 10
-8 0 -14 -4 -14 -10z"/>
<path d="M11254 1375 c6 -17 -15 -20 -30 -5 -7 7 -32 0 -74 -21 -36 -17 -72
-35 -80 -40 -8 -5 -28 -14 -43 -20 -21 -9 -26 -16 -22 -33 2 -11 2 -15 -1 -8
-3 6 -12 12 -20 12 -17 0 -19 -27 -1 -33 6 -3 -6 -3 -28 0 -22 4 -41 10 -43
15 -2 4 -7 8 -11 8 -5 0 -6 -11 -3 -25 3 -20 9 -24 23 -20 13 4 19 1 19 -8 0
-8 -7 -17 -15 -21 -8 -3 -15 -15 -15 -26 0 -11 -7 -20 -15 -20 -19 0 -23 -38
-22 -205 2 -134 3 -140 22 -137 14 2 16 0 7 -6 -9 -6 -12 -23 -8 -53 2 -24 5
-52 5 -61 1 -31 20 -19 24 15 3 28 4 27 5 -10 1 -23 7 -45 12 -48 6 -3 10 1
10 9 0 9 5 16 10 16 6 0 10 -8 10 -18 0 -11 17 -34 37 -53 40 -36 119 -69 166
-69 21 0 27 -4 25 -18 -2 -12 3 -16 17 -14 11 2 40 5 65 8 25 3 55 10 67 16
17 8 33 8 60 0 20 -6 39 -9 42 -6 3 3 -3 13 -14 21 -19 15 -19 15 8 9 25 -6
27 -5 21 19 -5 19 -2 25 10 25 9 0 16 -4 16 -10 0 -5 7 -10 15 -10 8 0 15 5
15 10 0 6 -4 10 -10 10 -29 0 13 58 53 73 11 4 17 17 17 37 0 17 4 38 8 48 5
9 16 32 25 50 9 19 17 53 17 76 0 23 6 48 13 55 10 10 9 15 -4 24 -10 8 -13
20 -8 37 11 38 10 120 -1 120 -5 0 -10 -11 -10 -24 0 -14 -4 -27 -9 -30 -12
-8 -20 51 -9 62 6 6 -2 31 -18 61 -58 107 -170 188 -251 182 -27 -2 -43 1 -43
9 0 7 12 9 36 4 29 -5 36 -4 32 7 -3 9 -15 13 -31 11 -15 -2 -27 1 -27 7 0 6
-12 11 -26 11 -19 0 -25 -4 -20 -15z m126 -127 c44 -19 95 -68 119 -117 26
-52 45 -174 37 -251 -9 -98 -32 -166 -73 -211 -20 -22 -55 -50 -77 -62 -33
-17 -59 -21 -136 -21 -78 0 -102 4 -136 22 -52 27 -111 94 -124 141 -6 20 -15
67 -22 104 -8 51 -8 88 1 150 19 140 70 214 172 251 31 12 67 15 124 12 44 -2
96 -10 115 -18z m-473 -180 c-3 -7 -5 -2 -5 12 0 14 2 19 5 13 2 -7 2 -19 0
-25z"/>
<path d="M11090 1360 c0 -5 7 -10 15 -10 8 0 15 5 15 10 0 6 -7 10 -15 10 -8
0 -15 -4 -15 -10z"/>
<path d="M11036 1341 c-4 -7 -5 -15 -2 -18 9 -9 19 4 14 18 -4 11 -6 11 -12 0z"/>
<path d="M11700 1325 c0 -9 5 -15 11 -13 6 2 11 8 11 13 0 5 -5 11 -11 13 -6
2 -11 -4 -11 -13z"/>
<path d="M11753 1303 c-7 -2 -13 -12 -13 -20 0 -10 6 -13 16 -9 9 3 18 6 20 6
2 0 4 7 4 15 0 15 -6 17 -27 8z"/>
<path d="M10675 1260 c-4 -7 2 -21 15 -34 l22 -21 -7 25 c-10 33 -21 44 -30
30z"/>
<path d="M11660 784 c0 -8 5 -12 10 -9 6 4 8 11 5 16 -9 14 -15 11 -15 -7z"/>
<path d="M11834 769 c-3 -6 -1 -16 5 -22 8 -8 11 -5 11 11 0 24 -5 28 -16 11z"/>
<path d="M11620 720 c0 -11 5 -20 10 -20 6 0 10 9 10 20 0 11 -4 20 -10 20 -5
0 -10 -9 -10 -20z"/>
<path d="M11064 495 c30 -16 43 -14 31 4 -3 6 -18 11 -33 11 l-27 0 29 -15z"/>
<path d="M11140 490 c-12 -8 -12 -10 2 -15 20 -8 41 2 33 16 -8 11 -16 11 -35
-1z"/>
<path d="M11350 490 c0 -5 7 -10 16 -10 8 0 12 5 9 10 -3 6 -10 10 -16 10 -5
0 -9 -4 -9 -10z"/>
<path d="M11385 460 c4 -6 11 -8 16 -5 14 9 11 15 -7 15 -8 0 -12 -5 -9 -10z"/>
<path d="M11533 443 c9 -2 23 -2 30 0 6 3 -1 5 -18 5 -16 0 -22 -2 -12 -5z"/>
<path d="M6640 1550 c0 -5 7 -10 15 -10 8 0 15 5 15 10 0 6 -7 10 -15 10 -8 0
-15 -4 -15 -10z"/>
<path d="M2654 1525 c-2 -5 -3 -279 -2 -609 l3 -598 213 0 214 0 -2 168 c0 93
-2 178 -3 189 -2 20 6 20 303 25 l305 5 61 28 c34 16 80 47 102 70 51 52 89
134 100 216 12 86 -2 234 -29 306 -28 76 -97 145 -176 176 -63 25 14 22 -852
32 -149 1 -235 -2 -237 -8z m864 -84 c40 -22 139 -33 160 -18 8 6 12 5 12 -2
0 -6 7 -11 15 -11 21 0 113 -87 120 -114 4 -11 11 -31 18 -44 8 -17 8 -31 -1
-54 -13 -36 -7 -54 14 -37 11 9 14 8 14 -7 0 -11 -9 -30 -20 -44 -24 -30 -25
-40 -5 -40 18 0 19 -14 4 -41 -8 -15 -7 -24 2 -35 10 -13 8 -19 -14 -38 -18
-15 -25 -29 -21 -40 4 -11 -2 -19 -19 -25 -14 -6 -29 -16 -34 -24 -4 -8 -18
-19 -30 -26 -13 -6 -23 -19 -23 -28 0 -14 -2 -14 -15 3 -13 16 -16 17 -24 4
-9 -12 -56 -16 -273 -22 -145 -4 -280 -10 -301 -13 -41 -8 -57 -22 -33 -31 9
-3 13 -10 10 -16 -3 -5 -11 -4 -20 2 -10 9 -19 6 -37 -16 -22 -25 -25 -42 -32
-144 -4 -65 -12 -118 -18 -122 -7 -4 -7 -11 2 -22 12 -14 2 -16 -104 -16 -106
0 -116 2 -104 16 10 12 10 17 0 23 -10 6 -12 108 -9 474 2 256 7 469 11 474 5
4 175 6 378 4 268 -2 369 0 369 8 0 8 -98 11 -350 11 -227 0 -350 4 -350 10 0
13 683 14 708 1z"/>
<path d="M3033 1299 l-43 -50 0 -121 c0 -110 2 -125 23 -155 12 -19 28 -31 35
-28 19 7 37 -5 22 -15 -8 -5 -1 -13 20 -24 26 -12 64 -16 175 -16 128 0 146 2
187 23 25 13 66 45 91 73 46 49 46 49 47 122 0 48 -6 86 -16 108 -9 19 -41 56
-72 82 l-55 47 -186 2 -186 2 -42 -50z m434 -75 c20 -15 31 -34 37 -68 12 -62
-1 -113 -37 -140 -26 -20 -41 -21 -209 -21 l-180 0 0 125 c0 69 1 127 1 130 1
3 82 3 180 0 162 -5 182 -7 208 -26z"/>
<path d="M3700 889 c-14 -26 -2 -41 12 -16 5 10 19 22 31 27 21 8 20 9 -5 9
-18 1 -31 -6 -38 -20z"/>
<path d="M4100 1533 c0 -2 0 -275 -1 -608 l0 -606 578 0 578 0 0 148 0 147
-364 1 -365 0 0 80 0 80 338 2 338 1 0 148 0 147 -337 1 -338 1 0 80 -1 80
365 0 366 0 -1 148 -1 148 -578 2 c-317 1 -577 1 -577 0z m1010 -93 c0 -6
-127 -10 -360 -10 -233 0 -360 4 -360 10 0 6 127 10 360 10 233 0 360 -4 360
-10z m60 -20 c0 -5 -4 -10 -10 -10 -5 0 -10 -16 -10 -36 0 -21 -4 -33 -10 -29
-11 7 -14 68 -3 78 10 11 33 8 33 -3z m-55 -40 l0 -35 -270 -6 c-148 -4 -282
-10 -298 -14 -15 -4 -47 -30 -72 -57 -43 -47 -45 -53 -45 -109 0 -45 6 -68 23
-94 12 -19 27 -35 33 -35 6 0 23 -9 37 -20 20 -16 27 -17 33 -8 6 9 10 6 14
-10 6 -29 24 -30 28 -2 2 11 11 20 20 20 12 0 13 -3 4 -12 -7 -7 -12 -16 -12
-20 0 -4 110 -8 245 -8 216 0 245 -2 245 -16 0 -8 -5 -24 -10 -35 -10 -18 -23
-19 -230 -19 -129 0 -220 -4 -220 -9 0 -5 -36 -13 -81 -17 -72 -6 -79 -8 -65
-22 13 -14 11 -19 -24 -54 -38 -36 -40 -41 -40 -102 0 -60 2 -67 35 -102 19
-20 35 -41 35 -45 0 -25 55 -31 328 -32 248 -2 287 -4 287 -17 0 -20 20 -29
21 -10 2 27 4 31 13 26 5 -3 5 -22 1 -42 -7 -28 -5 -34 5 -30 11 4 12 0 3 -19
-10 -23 -12 -23 -24 -7 -8 11 -16 14 -23 7 -6 -6 -170 -9 -460 -7 l-450 2 -1
438 c0 241 3 441 7 445 4 4 6 30 4 57 l-2 49 88 4 c48 1 252 3 453 3 l365 -1
0 -35z"/>
<path d="M4486 991 c-7 -10 22 -37 30 -28 9 8 -3 37 -15 37 -5 0 -12 -4 -15
-9z"/>
<path d="M4540 944 c0 -8 5 -12 10 -9 6 4 8 11 5 16 -9 14 -15 11 -15 -7z"/>
<path d="M4483 483 c9 -2 25 -2 35 0 9 3 1 5 -18 5 -19 0 -27 -2 -17 -5z"/>
<path d="M5440 1530 c-1 -3 -1 -277 -1 -609 l-1 -603 214 0 213 0 -1 191 -1
191 282 0 c313 0 347 5 441 65 59 38 103 96 128 170 36 107 30 297 -13 398
-26 60 -84 123 -141 152 -25 13 -73 28 -105 34 -37 7 -241 12 -538 14 -262 1
-477 0 -477 -3z m160 -95 c0 -13 43 -15 323 -16 177 -1 327 0 332 2 13 4 60 3
113 -3 38 -5 45 -2 52 16 9 20 11 19 14 -6 1 -8 14 -13 31 -12 17 0 33 -5 38
-12 4 -7 20 -15 36 -19 35 -7 63 -36 44 -42 -13 -5 -19 -43 -7 -43 4 0 13 8
20 17 11 17 13 16 19 -9 4 -15 13 -29 22 -32 9 -4 11 -11 6 -18 -4 -7 -8 -69
-8 -138 0 -85 -5 -136 -14 -158 -12 -29 -12 -35 0 -42 7 -5 10 -12 6 -17 -5
-4 -17 3 -27 17 -17 22 -19 23 -26 7 -3 -9 -4 -29 -2 -42 4 -19 1 -25 -13 -25
-10 0 -40 -12 -66 -27 l-48 -28 -280 -5 c-159 -4 -291 -11 -305 -17 -14 -6
-25 -19 -25 -29 0 -11 -7 -20 -15 -20 -8 -1 -19 -2 -24 -3 -5 0 -3 -8 5 -17
11 -13 9 -14 -17 -9 -19 4 -24 3 -16 -3 9 -6 10 -16 3 -33 -5 -14 -9 -71 -9
-128 1 -56 -4 -107 -9 -112 -6 -6 -57 -11 -114 -12 l-103 -1 -4 498 -4 498 22
-4 c13 -2 25 3 27 10 3 6 0 12 -6 12 -6 0 -11 5 -11 10 0 6 9 10 20 10 11 0
20 -7 20 -15z m790 5 c0 -5 -6 -10 -14 -10 -8 0 -18 5 -21 10 -3 6 3 10 14 10
12 0 21 -4 21 -10z"/>
<path d="M5884 1340 c-12 -5 -25 -13 -29 -19 -3 -6 -14 -11 -24 -11 -21 0 -41
-39 -41 -82 0 -26 -2 -29 -15 -18 -12 10 -16 9 -21 -4 -3 -9 -1 -22 5 -30 6
-7 8 -16 4 -19 -3 -4 0 -14 8 -23 11 -14 10 -18 -6 -31 -20 -14 -20 -14 -1
-28 18 -14 19 -16 2 -34 -10 -11 -13 -22 -8 -25 6 -3 12 0 15 6 8 23 18 1 20
-43 2 -38 5 -44 23 -44 12 0 32 -9 44 -20 19 -17 39 -20 158 -24 132 -3 184 4
242 32 13 7 32 20 42 30 22 21 36 22 60 0 28 -25 30 -11 3 21 l-25 29 32 30
c29 28 30 31 13 43 -16 12 -17 17 -6 40 10 22 9 30 -4 44 -9 10 -13 24 -9 34
7 19 -14 66 -30 66 -5 0 -26 15 -46 33 -19 19 -54 39 -76 45 -47 14 -298 15
-330 2z m359 -113 c52 -34 69 -127 33 -182 -33 -50 -61 -56 -248 -53 -147 3
-173 5 -170 18 2 8 3 64 3 124 -1 60 3 112 8 115 5 3 85 4 178 1 139 -4 174
-8 196 -23z"/>
<path d="M6550 1271 c0 -6 5 -13 10 -16 6 -3 10 1 10 9 0 9 -4 16 -10 16 -5 0
-10 -4 -10 -9z"/>
<path d="M5780 765 c0 -8 5 -15 10 -15 6 0 10 7 10 15 0 8 -4 15 -10 15 -5 0
-10 -7 -10 -15z"/>
<path d="M8380 1533 c0 -2 0 -276 -1 -609 l0 -606 211 0 c117 0 213 2 216 4 2
2 4 276 4 607 l1 604 -216 1 c-118 0 -215 0 -215 -1z m322 -163 c11 -72 9
-908 -2 -915 -5 -3 -7 -12 -3 -20 4 -13 -12 -15 -105 -15 l-111 0 -1 494 c0
392 2 495 12 499 7 3 56 5 108 4 l95 -2 7 -45z"/>
</g>
</svg>
