<?xml version="1.0" standalone="no"?>
<!DOCTYPE svg PUBLIC "-//W3C//DTD SVG 20010904//EN"
 "http://www.w3.org/TR/2001/REC-SVG-20010904/DTD/svg10.dtd">
<svg version="1.0" xmlns="http://www.w3.org/2000/svg"
 width="1200.000000pt" height="1200.000000pt" viewBox="0 0 1200.000000 1200.000000"
 preserveAspectRatio="xMidYMid meet">
<g transform="translate(0.000000,1200.000000) scale(0.100000,-0.100000)"
fill="#000000" stroke="none">
<path d="M7136 7831 c-4 -5 -2 -12 3 -15 5 -4 12 -2 15 3 4 5 2 12 -3 15 -5 4
-12 2 -15 -3z"/>
<path d="M9848 7733 c-6 -7 -8 -20 -4 -28 4 -11 20 -15 56 -15 l50 0 0 -171 0
-170 31 3 32 3 -2 167 -2 167 53 3 c45 3 53 6 53 23 0 19 -8 20 -128 25 -95 4
-131 2 -139 -7z"/>
<path d="M10411 7740 c-5 -3 -23 -56 -40 -119 -17 -62 -32 -116 -35 -118 -10
-10 -26 9 -26 30 0 12 -12 63 -27 115 l-26 93 -41 -3 -41 -3 -7 -95 c-4 -52
-11 -135 -16 -185 -5 -49 -7 -93 -5 -97 2 -5 17 -8 34 -8 l29 0 1 98 c1 53 1
116 -1 139 -1 23 1 52 5 64 6 17 9 19 15 8 5 -8 16 -43 25 -79 9 -36 23 -89
32 -118 14 -51 16 -53 46 -50 32 3 32 3 62 121 16 65 35 119 40 120 6 1 11
-52 13 -138 1 -77 4 -146 7 -152 5 -15 51 -18 59 -4 5 8 -24 372 -30 379 -5 7
-64 8 -73 2z"/>
<path d="M2411 7719 l-21 -23 0 -1216 c0 -1084 2 -1218 16 -1238 15 -22 18
-22 283 -22 250 0 269 1 285 19 16 17 17 58 16 480 l-1 462 127 -3 126 -3 94
-215 c52 -118 110 -249 128 -290 19 -41 60 -133 91 -205 88 -199 93 -210 124
-228 25 -14 65 -17 315 -17 157 -1 291 2 296 5 24 15 8 77 -49 191 -32 66
-131 272 -221 459 -90 187 -169 349 -176 360 -27 39 -17 58 46 88 72 34 172
129 228 215 84 129 130 315 118 476 -9 132 -30 219 -78 315 -33 68 -60 104
-128 172 -73 74 -100 93 -190 137 -58 29 -141 62 -185 74 -78 21 -98 22 -652
26 l-571 3 -21 -22z m1047 -84 c35 -3 95 -12 135 -20 40 -7 93 -17 120 -20 26
-3 47 -11 47 -17 0 -5 -10 -8 -22 -5 -13 3 -32 2 -42 -2 -19 -7 -19 -8 3 -14
13 -3 34 -1 48 4 13 5 34 9 46 9 20 0 20 0 1 -16 -18 -14 -17 -15 20 -9 35 6
38 5 27 -9 -11 -13 -11 -17 3 -22 9 -3 24 0 33 7 14 12 15 11 9 -9 -5 -13 -3
-22 4 -22 6 0 30 -18 54 -40 24 -22 49 -40 56 -40 7 0 10 -7 6 -15 -3 -9 3
-20 14 -27 11 -7 20 -22 20 -34 0 -12 7 -24 15 -28 8 -3 15 -14 15 -26 0 -11
9 -25 20 -32 27 -17 25 -36 -2 -41 l-23 -4 22 -8 c15 -5 24 -18 28 -39 3 -17
5 -112 3 -211 -3 -152 -6 -185 -20 -208 -22 -32 -23 -41 -4 -34 11 5 12 0 3
-24 -12 -32 -30 -34 -35 -3 -7 35 -22 39 -22 7 0 -18 5 -35 10 -38 6 -3 10
-15 10 -26 0 -46 -46 -1 -53 51 l-4 35 -1 -36 c-1 -20 5 -50 13 -65 8 -16 15
-38 15 -49 -1 -19 -1 -19 -14 -2 -9 12 -16 14 -21 7 -4 -6 -1 -17 5 -25 10
-12 9 -15 -7 -15 -10 0 -34 -16 -53 -35 -19 -19 -41 -35 -49 -35 -9 -1 -34
-23 -56 -51 -24 -30 -51 -52 -67 -56 -18 -3 -28 -12 -28 -24 0 -13 5 -17 17
-12 15 6 14 2 -4 -27 l-21 -33 60 -119 c49 -98 57 -122 47 -134 -9 -11 -9 -18
-1 -26 9 -9 12 -8 12 5 0 25 15 21 28 -7 8 -17 7 -27 -1 -35 -9 -9 -6 -13 11
-17 12 -4 22 -10 22 -15 0 -18 80 -193 91 -200 10 -6 10 -11 1 -22 -16 -19 -3
-30 16 -14 13 10 14 8 9 -14 -5 -20 -3 -29 9 -33 9 -3 14 -13 10 -21 -3 -8 10
-38 29 -67 19 -29 35 -57 35 -62 0 -5 10 -25 22 -45 12 -19 21 -46 20 -58 -2
-13 1 -23 7 -23 6 0 11 -9 11 -20 0 -11 -4 -20 -10 -20 -5 0 -10 7 -10 15 0
13 -29 15 -204 15 l-204 0 -26 33 c-14 17 -33 39 -42 48 -10 11 -12 19 -5 24
16 9 13 25 -4 25 -20 0 -19 26 1 34 8 3 13 10 9 15 -3 6 -12 8 -19 5 -8 -3
-17 0 -22 7 -4 7 -2 15 4 17 12 4 17 42 6 42 -3 0 -13 -4 -23 -10 -16 -8 -19
-4 -24 33 -6 41 -55 144 -85 179 -8 10 -15 39 -15 68 -1 41 -4 49 -16 45 -12
-4 -21 10 -36 57 -24 77 -82 190 -103 202 -14 8 -13 10 3 22 24 18 10 32 -15
16 -11 -7 -22 -12 -24 -12 -3 0 -6 12 -8 26 -2 19 -15 33 -46 50 -36 21 -56
24 -135 24 -74 0 -98 -4 -124 -20 -18 -11 -33 -26 -33 -33 0 -15 -45 -59 -75
-72 -19 -8 -19 -9 3 -12 21 -4 28 -14 16 -25 -3 -4 -6 -150 -5 -325 0 -175 -3
-352 -7 -393 l-7 -75 -170 0 c-93 0 -178 3 -187 7 -17 7 -18 75 -18 1141 0
1099 0 1134 19 1151 12 11 27 15 44 11 14 -4 34 -2 44 3 12 7 148 9 398 6 209
-2 408 -7 443 -9z"/>
<path d="M3740 7520 c0 -5 7 -10 15 -10 8 0 15 5 15 10 0 6 -7 10 -15 10 -8 0
-15 -4 -15 -10z"/>
<path d="M2970 7350 c0 -5 5 -10 10 -10 6 0 10 5 10 10 0 6 -4 10 -10 10 -5 0
-10 -4 -10 -10z"/>
<path d="M3218 7353 c-113 -3 -138 -6 -138 -18 0 -8 -7 -15 -16 -15 -11 0 -14
5 -10 16 10 25 -35 7 -64 -26 -14 -16 -36 -30 -49 -32 -30 -4 -39 -25 -14 -31
10 -2 3 -2 -16 0 -28 4 -33 2 -24 -9 7 -8 11 -103 12 -266 1 -140 5 -260 8
-268 4 -10 0 -12 -11 -8 -9 3 -16 2 -16 -4 0 -5 9 -12 21 -15 12 -3 18 -10 14
-17 -10 -16 24 -50 51 -50 13 0 25 -8 28 -17 5 -16 24 -18 204 -18 155 0 203
3 216 14 14 12 22 12 56 -2 23 -9 42 -11 46 -6 3 5 -3 9 -13 9 -10 0 -24 9
-31 20 -10 16 -10 20 1 20 7 0 18 -5 24 -11 9 -9 20 -5 45 16 76 63 118 106
118 120 0 8 4 15 9 15 4 0 16 25 26 56 14 44 17 79 13 162 -4 94 -7 107 -27
123 -12 10 -20 23 -16 28 3 6 -3 18 -15 28 -11 10 -20 23 -20 30 0 19 -110 93
-157 106 -24 6 -43 14 -43 18 0 9 -60 40 -69 37 -3 -1 -68 -4 -143 -5z m174
-124 c64 -14 135 -48 165 -81 49 -52 70 -152 53 -250 -14 -78 -47 -136 -97
-171 -64 -44 -135 -56 -336 -57 l-182 -2 -3 286 -2 286 174 0 c96 0 199 -5
228 -11z"/>
<path d="M2930 7310 c0 -5 7 -10 16 -10 8 0 12 5 9 10 -3 6 -10 10 -16 10 -5
0 -9 -4 -9 -10z"/>
<path d="M4008 7278 c7 -7 12 -22 12 -35 0 -23 14 -31 25 -13 7 12 -23 60 -38
60 -7 0 -7 -4 1 -12z"/>
<path d="M2937 6593 c-7 -11 10 -40 18 -31 4 4 3 14 -3 24 -5 9 -12 12 -15 7z"/>
<path d="M3420 6560 c0 -5 9 -10 20 -10 11 0 20 5 20 10 0 6 -9 10 -20 10 -11
0 -20 -4 -20 -10z"/>
<path d="M3760 6390 c0 -5 7 -10 16 -10 8 0 12 5 9 10 -3 6 -10 10 -16 10 -5
0 -9 -4 -9 -10z"/>
<path d="M3710 6360 c0 -5 5 -10 10 -10 6 0 10 5 10 10 0 6 -4 10 -10 10 -5 0
-10 -4 -10 -10z"/>
<path d="M2900 6220 c0 -5 5 -10 10 -10 6 0 10 5 10 10 0 6 -4 10 -10 10 -5 0
-10 -4 -10 -10z"/>
<path d="M5247 7719 c-15 -11 -33 -35 -41 -52 -9 -18 -83 -246 -165 -507 -149
-475 -317 -1006 -371 -1175 -157 -491 -220 -698 -220 -724 0 -19 6 -33 18 -38
9 -4 133 -6 275 -3 l259 5 24 28 c24 28 61 138 129 382 20 72 38 136 41 143 3
9 88 12 383 12 l381 0 6 -27 c13 -55 105 -389 121 -440 9 -28 24 -62 34 -75
18 -23 18 -23 301 -28 234 -4 286 -3 301 9 9 8 17 21 17 28 0 8 -27 94 -59
191 -70 210 -459 1393 -607 1847 -57 176 -116 343 -130 371 -14 29 -36 56 -50
63 -17 7 -122 11 -323 11 -286 0 -299 -1 -324 -21z m610 -113 c12 -15 23 -37
23 -48 0 -12 11 -36 25 -54 22 -29 24 -36 13 -54 -11 -17 -11 -22 0 -29 7 -4
22 -25 33 -45 15 -29 17 -41 9 -51 -16 -20 -8 -60 11 -59 18 1 32 -32 49 -118
6 -32 16 -60 21 -63 5 -4 9 -19 9 -34 0 -16 8 -39 18 -52 10 -13 19 -41 19
-61 1 -21 8 -45 17 -53 9 -10 16 -33 16 -55 0 -29 4 -38 14 -34 9 4 15 -5 18
-25 3 -17 1 -31 -4 -31 -14 0 -9 -28 7 -34 8 -3 15 -16 15 -30 0 -14 5 -28 10
-31 6 -3 10 -17 10 -30 0 -13 4 -26 9 -29 4 -3 11 -19 15 -36 3 -17 10 -29 15
-25 5 3 12 1 15 -4 4 -5 2 -12 -4 -16 -5 -3 -10 -15 -10 -26 0 -15 5 -19 18
-15 14 5 17 -1 17 -32 0 -20 -4 -40 -9 -43 -4 -4 -3 -10 3 -13 6 -4 11 -2 11
3 0 6 4 11 9 11 5 0 6 -20 3 -45 -3 -30 -1 -45 7 -45 6 0 11 -7 11 -16 0 -9 6
-30 14 -47 28 -66 45 -113 55 -151 5 -21 18 -44 28 -51 14 -11 15 -15 4 -28
-10 -13 -10 -20 3 -39 9 -12 16 -40 16 -61 0 -24 5 -40 15 -43 20 -8 19 -33
-1 -56 -16 -16 -16 -18 0 -24 9 -3 24 0 33 7 14 12 15 11 9 -8 -8 -25 51 -212
88 -278 l24 -42 -20 -20 c-13 -14 -16 -23 -9 -27 6 -4 11 -2 11 3 0 6 7 11 15
11 11 0 13 -8 9 -30 -4 -19 -2 -30 5 -30 6 0 11 -7 11 -15 0 -8 -6 -15 -14
-15 -8 0 -18 -9 -21 -21 -5 -15 -10 -18 -18 -10 -7 7 -66 11 -163 11 -87 0
-155 4 -159 10 -3 5 -11 7 -18 5 -7 -3 -19 8 -29 24 -14 26 -14 32 -2 49 8 12
10 23 5 26 -5 3 -12 -1 -15 -10 -9 -23 -19 -10 -23 28 -1 18 -7 42 -12 53 -6
11 -19 56 -31 100 -12 44 -28 90 -36 103 -11 17 -12 27 -4 42 8 15 8 20 -2 20
-7 0 -26 21 -41 46 -21 36 -32 45 -47 41 -11 -3 -20 -1 -20 4 0 5 6 9 14 9 22
0 29 19 10 27 -11 4 -22 0 -30 -12 -8 -11 -19 -15 -30 -11 -13 5 -15 9 -6 18
7 7 12 17 12 22 0 6 -6 4 -13 -6 -11 -14 -49 -16 -342 -18 -182 -1 -336 -2
-342 -1 -7 1 -13 8 -13 16 0 8 -5 15 -11 15 -7 0 -9 -10 -5 -25 5 -20 3 -25
-13 -25 -11 0 -25 -9 -31 -21 -7 -11 -18 -18 -25 -15 -8 3 -17 1 -20 -4 -4 -6
3 -10 14 -10 12 0 21 -4 21 -10 0 -5 -8 -10 -18 -10 -10 0 -23 -10 -29 -22
-45 -95 -61 -150 -79 -275 -4 -30 -11 -43 -26 -46 -17 -5 -19 -11 -14 -41 4
-21 3 -36 -3 -36 -5 0 -11 6 -14 13 -2 6 -3 3 -1 -8 1 -11 -4 -29 -12 -40 -13
-18 -29 -20 -161 -23 -80 -2 -155 -1 -167 2 -13 3 -27 19 -35 41 -11 33 -11
38 6 50 15 11 16 17 6 33 -6 10 -8 25 -3 32 6 9 10 8 17 -5 7 -11 13 -14 17
-7 4 6 1 20 -6 31 -10 16 -10 23 0 33 13 13 16 44 5 51 -5 2 -3 2 4 1 7 -2 15
12 19 33 4 20 15 58 24 84 10 27 14 51 9 54 -5 4 -5 13 0 23 5 9 12 25 15 35
3 10 10 15 16 12 6 -4 10 12 10 42 0 48 0 48 18 25 10 -13 20 -20 24 -17 3 3
3 35 1 71 -3 51 0 70 12 84 12 13 13 20 5 25 -7 4 -8 10 -3 14 16 10 40 73 54
136 7 33 18 69 26 80 7 11 13 32 13 48 0 21 6 30 20 34 14 4 19 11 15 24 -3
10 0 27 7 39 11 17 11 22 0 29 -7 4 -10 15 -6 25 5 13 9 14 20 5 15 -12 15
-11 19 78 1 23 9 52 17 65 9 13 19 42 23 66 4 23 11 44 16 48 5 3 9 16 9 29 0
13 5 27 10 30 6 3 10 17 10 30 0 13 8 28 18 34 14 8 15 13 5 30 -11 17 -10 22
4 29 11 6 14 18 11 36 -6 28 1 33 19 15 7 -7 13 -7 17 -1 3 6 -1 17 -9 25 -12
12 -13 21 -3 49 6 18 17 42 23 53 7 11 17 40 24 65 31 112 56 183 66 186 6 3
9 18 7 34 -3 23 0 30 12 30 22 0 20 20 -1 20 -17 1 -17 1 0 14 9 7 17 18 17
25 0 6 7 14 15 17 8 4 15 12 15 20 0 19 -10 18 -26 -3 -13 -17 -13 -17 -14 0
0 9 4 17 8 17 5 0 14 16 22 35 8 20 21 42 29 50 9 7 36 16 61 18 25 3 141 4
259 3 l214 -3 24 -27z m-1097 -1655 c0 -6 -4 -13 -10 -16 -5 -3 -10 1 -10 9 0
9 5 16 10 16 6 0 10 -4 10 -9z"/>
<path d="M5260 7385 c0 -8 5 -15 10 -15 6 0 10 7 10 15 0 8 -4 15 -10 15 -5 0
-10 -7 -10 -15z"/>
<path d="M5916 7371 c-4 -7 -5 -15 -2 -18 9 -9 19 4 14 18 -4 11 -6 11 -12 0z"/>
<path d="M5975 7211 c-3 -5 -1 -12 5 -16 5 -3 10 1 10 9 0 18 -6 21 -15 7z"/>
<path d="M5525 7190 c-16 -4 -24 -8 -17 -9 6 0 12 -8 12 -16 0 -24 -40 -18
-50 8 -8 20 -9 19 -9 -10 -1 -17 -7 -34 -13 -37 -7 -3 -3 -3 9 -1 12 3 23 2
26 -2 2 -4 -5 -28 -16 -53 -11 -25 -19 -51 -18 -57 1 -7 -2 -13 -8 -13 -5 0
-12 -15 -16 -32 -8 -42 -25 -98 -35 -118 -4 -9 -11 -35 -15 -58 -4 -24 -17
-51 -31 -64 -13 -13 -24 -26 -24 -30 0 -4 10 -8 22 -10 21 -3 21 -3 -5 -34
-17 -20 -25 -42 -25 -65 1 -19 6 -38 12 -42 6 -5 1 -5 -11 -2 -18 5 -23 2 -23
-14 0 -11 5 -23 10 -26 16 -10 12 -28 -5 -22 -20 8 -28 -8 -16 -31 8 -14 5
-29 -9 -58 -13 -25 -20 -58 -20 -98 0 -57 2 -61 45 -103 25 -24 54 -43 65 -43
11 0 25 -9 32 -20 14 -21 34 -27 40 -10 2 5 75 10 175 10 192 2 177 -3 269 89
34 33 43 49 38 65 -3 11 -12 26 -20 32 -18 14 -18 24 0 24 9 0 12 7 9 20 -3
11 -10 20 -15 20 -6 0 -4 7 3 16 11 14 11 18 -3 28 -10 7 -19 35 -23 71 -4 33
-11 62 -15 65 -8 6 -50 137 -50 156 0 7 -5 25 -11 41 -6 15 -13 42 -15 60 -2
18 -7 41 -13 51 -5 10 -7 28 -4 40 3 13 1 22 -6 22 -6 0 -11 -7 -11 -15 0 -8
-4 -15 -10 -15 -5 0 -10 7 -10 15 0 8 5 15 10 15 16 0 11 32 -7 45 -16 12 -16
15 -2 32 20 23 14 54 -8 46 -14 -6 -15 0 -10 42 6 39 5 45 -6 36 -10 -8 -23
-1 -55 29 -42 41 -58 45 -117 30z m75 -69 c0 -36 149 -615 219 -848 l10 -33
-240 0 c-131 0 -242 1 -246 3 -12 3 -7 34 16 117 12 41 30 107 41 145 121 446
150 559 150 589 0 37 6 46 32 46 11 0 18 -7 18 -19z m300 -856 c0 -8 -4 -15
-10 -15 -5 0 -10 7 -10 15 0 8 5 15 10 15 6 0 10 -7 10 -15z"/>
<path d="M5740 7096 c0 -9 5 -16 10 -16 6 0 10 4 10 9 0 6 -4 13 -10 16 -5 3
-10 -1 -10 -9z"/>
<path d="M5436 7093 c-12 -12 -6 -33 9 -33 8 0 15 6 15 14 0 17 -14 28 -24 19z"/>
<path d="M5740 6996 c0 -9 5 -16 10 -16 6 0 10 4 10 9 0 6 -4 13 -10 16 -5 3
-10 -1 -10 -9z"/>
<path d="M5080 6921 c0 -13 26 -32 33 -24 8 7 -11 33 -24 33 -5 0 -9 -4 -9 -9z"/>
<path d="M6090 6753 c0 -5 5 -15 10 -23 8 -12 10 -11 10 8 0 12 -4 22 -10 22
-5 0 -10 -3 -10 -7z"/>
<path d="M6262 6250 c0 -14 2 -19 5 -12 2 6 2 18 0 25 -3 6 -5 1 -5 -13z"/>
<path d="M5137 5901 c-3 -12 -1 -21 3 -21 15 0 23 21 12 32 -6 6 -11 2 -15
-11z"/>
<path d="M6030 5870 c6 -11 15 -18 21 -14 6 4 6 11 -2 20 -17 21 -31 17 -19
-6z"/>
<path d="M6395 5847 c-4 -10 -5 -21 -1 -24 10 -10 18 4 13 24 -4 17 -4 17 -12
0z"/>
<path d="M4760 5794 c0 -8 5 -12 10 -9 6 4 8 11 5 16 -9 14 -15 11 -15 -7z"/>
<path d="M4716 5771 c-4 -7 -5 -15 -2 -18 9 -9 19 4 14 18 -4 11 -6 11 -12 0z"/>
<path d="M4982 5540 c0 -14 2 -19 5 -12 2 6 2 18 0 25 -3 6 -5 1 -5 -13z"/>
<path d="M6556 5371 c-4 -5 -2 -12 3 -15 5 -4 12 -2 15 3 4 5 2 12 -3 15 -5 4
-12 2 -15 -3z"/>
<path d="M6445 7716 c-15 -23 -14 -32 19 -148 94 -333 154 -546 256 -913 160
-573 313 -1122 349 -1250 17 -60 39 -121 50 -135 34 -47 51 -50 306 -50 132 0
250 3 263 6 12 4 33 25 47 48 26 44 270 811 299 939 5 19 12 27 23 25 10 -2
22 -28 34 -78 16 -64 125 -427 230 -771 18 -58 41 -109 58 -130 l29 -34 265 0
266 0 29 28 c25 24 36 54 72 190 23 89 50 191 60 227 37 134 70 260 115 430
25 96 52 200 60 230 12 45 65 242 218 825 3 11 35 133 72 270 37 138 67 258
67 268 -2 46 -10 47 -279 47 -285 0 -309 -4 -336 -61 -8 -19 -48 -171 -87
-339 -40 -168 -80 -339 -90 -380 -84 -351 -180 -809 -180 -857 0 -48 -11 -73
-31 -73 -13 0 -19 7 -19 21 0 12 -4 38 -10 58 -5 20 -33 131 -60 246 -28 116
-61 251 -75 300 -14 50 -48 178 -76 285 -28 107 -59 224 -69 260 -11 36 -42
155 -70 265 -28 110 -56 211 -62 223 -25 48 -49 52 -318 52 l-250 0 -10 -26
c-12 -31 -18 -10 94 -361 l86 -271 -29 -94 c-88 -283 -251 -864 -258 -919 -3
-22 -9 -42 -14 -44 -14 -9 -39 26 -39 56 0 27 -27 155 -84 399 -53 226 -287
1147 -302 1188 -26 70 -35 72 -338 72 l-266 0 -15 -24z m478 -82 c22 -4 42
-15 48 -25 12 -23 59 -184 59 -203 0 -8 6 -16 13 -19 9 -3 9 -9 0 -25 -8 -13
-9 -23 -3 -27 6 -3 10 -15 10 -25 0 -10 8 -23 17 -29 14 -7 15 -13 6 -33 -6
-12 -11 -39 -11 -58 0 -22 2 -26 5 -12 2 12 8 22 13 22 5 0 11 8 14 18 3 9 4
-11 2 -45 -1 -35 2 -63 6 -63 14 0 37 -64 28 -76 -6 -6 1 -45 15 -95 38 -135
43 -147 64 -178 24 -33 29 -68 6 -37 -19 25 -33 12 -17 -14 7 -11 12 -31 12
-44 0 -32 17 -42 25 -15 4 11 9 18 12 15 7 -6 -24 -73 -37 -81 -6 -3 -9 -23
-9 -43 2 -34 2 -35 6 -7 5 28 18 45 37 45 4 0 6 -10 3 -22 -3 -11 1 -35 10
-52 9 -17 18 -49 19 -71 4 -60 66 -295 77 -288 5 3 6 -4 2 -16 -4 -12 -2 -27
3 -34 5 -7 12 -24 15 -38 4 -14 16 -38 28 -53 15 -19 25 -24 33 -17 7 6 17 6
26 1 12 -8 10 -10 -7 -10 -13 0 -23 -5 -23 -10 0 -15 26 -23 55 -16 16 4 22
11 19 21 -4 9 0 15 8 15 8 0 30 16 48 35 28 29 32 38 20 45 -8 5 -11 13 -6 17
5 4 11 2 13 -4 8 -22 22 -14 39 23 13 26 14 38 5 47 -14 14 -15 47 -1 47 6 0
10 -5 10 -12 0 -9 3 -9 12 0 9 9 9 15 0 24 -8 8 -8 15 -1 24 6 7 11 33 12 59
1 29 6 44 13 41 7 -3 14 15 17 46 4 28 10 55 16 62 5 6 12 31 16 55 5 30 13
45 26 48 23 6 25 19 4 27 -21 8 -19 28 6 50 16 13 18 21 10 29 -6 6 -11 21
-11 34 0 20 2 22 20 11 10 -7 23 -8 27 -4 4 5 2 11 -4 13 -17 6 -16 48 1 62 8
7 12 21 9 32 -3 12 -1 24 6 28 16 10 24 58 11 66 -7 4 -4 18 8 38 31 51 46
126 38 190 -4 31 -12 59 -17 62 -5 4 -9 13 -9 22 0 9 -8 22 -17 29 -15 11 -16
16 -5 34 16 26 6 46 -14 29 -17 -14 -17 -9 -4 27 8 20 7 32 -4 49 -8 12 -18
40 -22 61 -3 21 -14 57 -24 79 -10 22 -21 55 -25 73 -7 32 -6 32 32 32 22 0
44 5 50 11 17 17 246 7 267 -10 20 -17 41 -62 56 -121 7 -25 15 -49 18 -55 4
-5 8 -25 9 -43 1 -19 6 -39 12 -45 15 -19 16 -70 2 -95 -13 -24 -8 -38 24 -63
22 -18 33 -53 65 -199 12 -52 25 -103 31 -113 5 -9 12 -38 16 -62 3 -28 11
-45 19 -45 8 0 14 -7 14 -16 0 -10 -6 -14 -15 -10 -21 8 -19 -4 10 -46 14 -20
25 -45 25 -55 -1 -10 -7 -29 -15 -43 -8 -14 -14 -34 -14 -45 0 -13 6 -7 17 18
9 20 21 37 25 37 5 0 6 -15 3 -34 -4 -20 -2 -36 4 -38 5 -1 24 -70 40 -153 17
-82 37 -160 45 -172 12 -18 13 -27 3 -48 -13 -30 -5 -43 17 -25 12 10 15 10
15 -3 0 -8 -4 -17 -10 -19 -14 -5 21 -78 38 -78 10 0 12 -7 9 -22 -4 -15 1
-28 18 -44 40 -37 60 -38 90 -6 18 19 34 28 46 25 15 -4 19 0 19 21 0 16 6 26
14 26 10 0 16 19 21 65 4 36 11 68 16 71 5 3 9 15 9 28 0 12 5 27 12 34 9 9 9
17 -1 36 -12 21 -11 30 8 68 11 25 21 53 21 64 0 38 51 263 70 309 5 11 11 42
13 70 3 27 9 51 15 53 5 1 7 25 4 52 -4 40 -1 51 12 56 14 5 16 14 11 45 -5
31 -4 39 8 39 15 0 20 14 33 100 3 25 9 50 13 55 7 12 32 138 35 182 1 17 8
39 15 47 7 8 13 43 13 80 0 36 4 66 9 66 5 0 9 -5 9 -11 0 -5 5 -7 11 -3 6 3
9 17 6 31 -3 17 2 27 17 35 12 7 84 14 163 16 119 4 147 2 167 -11 21 -14 25
-14 30 -2 6 16 32 20 40 7 3 -5 -2 -21 -10 -36 -7 -16 -14 -35 -14 -42 0 -8
-9 -23 -20 -34 -20 -20 -13 -34 14 -24 9 3 16 2 16 -2 0 -14 -14 -30 -31 -36
-16 -6 -21 -29 -20 -93 0 -16 -3 -32 -8 -35 -4 -3 -15 -32 -24 -65 -8 -33 -27
-100 -41 -150 -14 -49 -22 -100 -19 -113 4 -17 2 -21 -11 -16 -19 7 -20 -6 -4
-42 10 -22 10 -28 -5 -39 -19 -14 -23 -35 -7 -35 6 0 -5 -30 -24 -66 -19 -37
-32 -73 -29 -80 3 -8 1 -27 -5 -42 -6 -15 -20 -61 -32 -102 -12 -41 -28 -92
-36 -113 -8 -20 -14 -53 -14 -72 0 -18 -4 -36 -9 -40 -6 -3 -13 -27 -17 -53
-3 -26 -13 -55 -22 -64 -13 -16 -13 -18 1 -24 18 -7 11 -34 -8 -34 -21 0 -28
-19 -14 -36 10 -13 10 -21 -3 -47 -9 -18 -26 -72 -38 -122 -11 -49 -30 -109
-41 -132 -16 -33 -19 -53 -13 -88 4 -29 3 -45 -4 -45 -6 0 -13 10 -15 23 -2
12 -5 -4 -6 -35 0 -31 -5 -59 -10 -62 -5 -4 -12 -29 -16 -56 -4 -27 -11 -52
-16 -56 -5 -3 -9 -18 -9 -34 0 -28 -5 -44 -37 -118 -8 -18 -26 -37 -39 -43
-14 -5 -106 -9 -205 -9 -152 0 -181 2 -185 15 -4 10 -13 13 -24 10 -21 -7 -35
21 -14 29 16 6 20 36 4 36 -5 0 -14 -8 -20 -17 -9 -15 -10 -12 -6 15 4 23 2
32 -8 32 -9 0 -19 18 -25 43 -5 23 -15 60 -21 82 -6 22 -14 52 -17 68 -3 15
-9 27 -14 27 -5 0 -9 11 -9 24 0 13 -8 27 -17 30 -12 5 -13 10 -5 18 7 7 8 17
1 29 -6 13 -6 25 2 37 7 12 9 27 4 38 -8 18 -8 18 -13 -1 -2 -11 -8 -24 -14
-30 -7 -7 -9 1 -6 25 3 19 7 42 9 50 3 10 -2 14 -14 12 -16 -3 -17 2 -11 33 4
25 2 41 -9 53 -8 9 -22 32 -31 50 -16 31 -16 32 6 33 l23 0 -22 11 c-13 6 -23
18 -23 27 0 9 -7 25 -15 35 -8 11 -15 28 -15 38 0 10 -9 27 -20 38 -11 11 -18
25 -15 32 5 16 -42 54 -76 63 -19 5 -35 -2 -64 -25 -21 -17 -46 -43 -55 -58
-24 -40 -51 -128 -44 -146 3 -9 1 -16 -5 -16 -6 0 -11 5 -11 10 0 6 -7 10 -15
10 -8 0 -15 -7 -15 -15 0 -8 7 -15 15 -15 17 0 18 -2 9 -24 -6 -17 -29 -22
-37 -8 -6 10 4 -18 17 -51 9 -25 8 -30 -11 -45 -18 -13 -32 -52 -62 -170 -21
-85 -44 -159 -50 -165 -6 -6 -11 -26 -11 -45 0 -19 -7 -46 -14 -60 -8 -15 -23
-45 -32 -67 -10 -22 -26 -50 -37 -62 -20 -22 -25 -23 -227 -23 -194 0 -207 1
-223 20 -9 11 -17 30 -17 41 0 11 -9 33 -21 47 -16 21 -19 35 -14 69 6 38 4
41 -15 36 -14 -4 -20 -1 -20 11 0 9 7 16 15 16 8 0 15 7 15 15 0 8 -4 15 -10
15 -5 0 -10 7 -10 15 0 8 -4 23 -9 33 -24 48 -73 210 -76 252 -1 26 -9 52 -26
82 -12 24 -11 52 3 66 6 6 8 15 3 19 -4 5 -10 2 -12 -4 -9 -24 -25 -13 -19 12
4 16 -1 40 -14 67 -22 46 -26 78 -9 78 6 0 2 8 -9 18 -18 16 -42 83 -57 159
-3 17 -13 37 -21 44 -16 13 -19 45 -4 54 13 8 13 45 0 45 -6 0 -15 -10 -20
-22 -9 -23 -9 -23 -9 2 0 14 3 31 8 39 6 10 5 22 -5 35 -8 11 -14 33 -14 47 0
15 -4 29 -8 31 -4 2 -23 64 -41 138 -19 74 -47 175 -63 224 -27 79 -28 90 -14
98 22 13 20 38 -3 38 -12 0 -21 -8 -24 -22 -3 -21 -4 -21 -12 -4 -5 11 -3 21
5 26 10 6 9 20 -6 66 -10 33 -22 62 -27 65 -5 4 -4 9 2 13 14 9 15 46 1 46 -5
0 -10 -7 -10 -16 0 -8 -5 -12 -10 -9 -8 5 -8 11 0 20 10 12 8 28 -11 70 -7 17
-49 180 -49 191 0 2 15 4 34 4 19 0 38 5 41 10 7 11 226 14 288 4z m1297 -384
c0 -11 -4 -20 -10 -20 -5 0 -10 9 -10 20 0 11 5 20 10 20 6 0 10 -9 10 -20z
m-605 -1119 c3 -5 1 -12 -5 -16 -5 -3 -10 1 -10 9 0 18 6 21 15 7z m1015 -151
c0 -5 -7 -7 -15 -4 -8 4 -15 8 -15 10 0 2 7 4 15 4 8 0 15 -4 15 -10z"/>
<path d="M9435 7557 c-4 -10 -5 -21 -1 -24 10 -10 18 4 13 24 -4 17 -4 17 -12
0z"/>
<path d="M9080 7536 c0 -4 7 -14 15 -22 8 -9 15 -11 15 -6 0 5 -7 15 -15 22
-8 7 -15 9 -15 6z"/>
<path d="M9060 7364 c0 -8 5 -12 10 -9 6 4 8 11 5 16 -9 14 -15 11 -15 -7z"/>
<path d="M8162 7320 c0 -14 2 -19 5 -12 2 6 2 18 0 25 -3 6 -5 1 -5 -13z"/>
<path d="M6680 7296 c0 -14 5 -26 10 -26 6 0 10 9 10 19 0 11 -4 23 -10 26 -6
4 -10 -5 -10 -19z"/>
<path d="M7062 7060 c0 -14 2 -19 5 -12 2 6 2 18 0 25 -3 6 -5 1 -5 -13z"/>
<path d="M7096 7054 c-9 -22 -8 -24 9 -24 8 0 15 6 15 14 0 22 -17 28 -24 10z"/>
<path d="M9300 7026 c0 -9 5 -16 10 -16 6 0 10 4 10 9 0 6 -4 13 -10 16 -5 3
-10 -1 -10 -9z"/>
<path d="M9297 6941 c-3 -12 -1 -24 4 -27 13 -8 24 25 12 37 -7 7 -12 3 -16
-10z"/>
<path d="M9290 6851 c-15 -28 -12 -33 10 -19 21 13 27 38 10 38 -5 0 -14 -9
-20 -19z"/>
<path d="M7220 6461 c0 -17 5 -31 10 -31 6 0 10 11 10 24 0 14 -4 28 -10 31
-6 4 -10 -7 -10 -24z"/>
<path d="M7020 6115 c0 -15 4 -24 10 -20 6 3 10 12 10 20 0 8 -4 17 -10 20 -6
4 -10 -5 -10 -20z"/>
<path d="M8500 6030 c0 -19 3 -21 12 -12 9 9 9 15 0 24 -9 9 -12 7 -12 -12z"/>
<path d="M8760 6025 c1 -26 2 -28 11 -12 8 14 8 22 0 30 -8 8 -11 3 -11 -18z"/>
<path d="M8272 6029 c2 -7 10 -15 17 -17 8 -3 12 1 9 9 -2 7 -10 15 -17 17 -8
3 -12 -1 -9 -9z"/>
<path d="M8720 5975 c0 -8 4 -15 10 -15 5 0 7 7 4 15 -4 8 -8 15 -10 15 -2 0
-4 -7 -4 -15z"/>
<path d="M8510 5970 c0 -5 5 -10 10 -10 6 0 10 5 10 10 0 6 -4 10 -10 10 -5 0
-10 -4 -10 -10z"/>
<path d="M8780 5960 c0 -19 3 -21 12 -12 9 9 9 15 0 24 -9 9 -12 7 -12 -12z"/>
<path d="M7376 5951 c-3 -5 1 -11 9 -15 8 -3 15 -1 15 4 0 13 -18 22 -24 11z"/>
<path d="M8660 5944 c0 -8 5 -12 10 -9 6 3 10 10 10 16 0 5 -4 9 -10 9 -5 0
-10 -7 -10 -16z"/>
<path d="M8550 5943 c0 -5 4 -14 9 -22 6 -9 11 -10 15 -2 4 6 4 16 1 21 -7 12
-25 13 -25 3z"/>
<path d="M8700 5924 c0 -8 5 -12 10 -9 6 4 8 11 5 16 -9 14 -15 11 -15 -7z"/>
<path d="M7495 5920 c4 -6 11 -8 16 -5 14 9 11 15 -7 15 -8 0 -12 -5 -9 -10z"/>
<path d="M8954 5749 c-3 -6 -1 -16 5 -22 8 -8 11 -5 11 11 0 24 -5 28 -16 11z"/>
<path d="M7157 5483 c-12 -11 -8 -23 8 -23 8 0 15 7 15 15 0 16 -12 20 -23 8z"/>
<path d="M4117 7626 c-3 -8 -2 -18 3 -21 13 -8 24 15 12 27 -6 6 -11 4 -15 -6z"/>
<path d="M3380 5484 c0 -8 5 -12 10 -9 6 4 8 11 5 16 -9 14 -15 11 -15 -7z"/>
<path d="M2316 4952 c-2 -4 -1 -14 5 -22 7 -12 9 -10 9 8 0 23 -5 28 -14 14z"/>
<path d="M6360 4952 c1 -14 28 -43 34 -34 3 4 -4 16 -15 25 -10 9 -19 13 -19
9z"/>
<path d="M3195 4920 c4 -6 11 -8 16 -5 14 9 11 15 -7 15 -8 0 -12 -5 -9 -10z"/>
<path d="M2396 4862 c-3 -3 -6 -150 -6 -328 l0 -322 68 -4 c37 -2 74 -1 82 3
12 6 14 24 10 105 -3 55 -4 104 -2 110 2 7 28 9 75 6 57 -3 84 0 128 17 30 12
69 35 85 52 28 29 29 35 32 135 4 97 2 108 -19 139 -35 51 -90 77 -168 81
-173 9 -280 11 -285 6z m284 -137 c32 -17 43 -44 38 -95 -4 -46 -39 -68 -113
-72 l-59 -3 -1 88 c0 49 2 91 4 93 11 10 105 2 131 -11z m-155 -215 c3 -5 2
-10 -4 -10 -5 0 -13 5 -16 10 -3 6 -2 10 4 10 5 0 13 -4 16 -10z"/>
<path d="M3293 4863 c-9 -3 -9 -641 0 -649 10 -10 137 -8 146 2 5 5 6 59 3
121 -7 120 -7 123 43 123 12 0 27 -6 32 -12 5 -7 26 -60 48 -118 21 -58 42
-109 46 -114 11 -13 138 -14 149 -1 5 6 -9 51 -34 110 -23 55 -48 110 -55 123
-11 20 -9 24 24 43 20 12 44 38 54 58 19 38 25 109 15 175 -8 51 -66 109 -125
124 -38 10 -324 22 -346 15z m277 -138 c16 -8 34 -24 39 -34 14 -25 -4 -88
-29 -101 -11 -6 -45 -11 -77 -13 l-58 -2 -5 78 c-3 43 -3 81 -1 83 11 10 105
2 131 -11z m-156 -214 c3 -5 0 -11 -8 -14 -15 -6 -26 1 -26 15 0 11 27 10 34
-1z"/>
<path d="M4203 4858 c-2 -5 -4 -150 -5 -324 0 -205 3 -319 10 -323 5 -3 95 -4
198 -1 l189 5 0 60 0 60 -120 0 -120 0 0 75 0 75 105 0 105 0 0 60 0 60 -105
1 -105 1 0 64 0 64 115 0 115 0 3 54 c2 30 -1 58 -7 64 -11 11 -370 16 -378 5z"/>
<path d="M5141 4863 c-40 -8 -99 -51 -116 -82 -9 -18 -15 -56 -15 -98 0 -50 5
-77 20 -100 22 -37 41 -48 170 -97 52 -21 101 -43 109 -51 16 -16 17 -70 1
-89 -16 -20 -68 -27 -111 -16 -41 11 -46 20 -51 90 l-3 35 -75 0 -75 0 -3 -53
c-4 -75 25 -134 86 -170 44 -25 55 -27 157 -27 99 0 114 3 154 25 24 14 54 38
65 53 18 24 21 43 21 118 0 88 0 89 -35 124 -27 26 -63 45 -150 75 -63 23
-118 46 -122 53 -4 7 -8 22 -8 35 0 59 95 85 139 38 12 -13 22 -32 21 -42 -5
-42 -2 -44 69 -44 43 0 73 5 77 12 14 22 3 102 -18 136 -11 18 -39 42 -62 54
-31 17 -62 22 -131 24 -49 1 -101 0 -114 -3z"/>
<path d="M6005 4855 c-45 -18 -81 -48 -101 -87 -8 -15 -14 -52 -14 -84 0 -79
29 -127 94 -158 28 -13 75 -32 104 -41 108 -35 145 -84 104 -134 -14 -19 -28
-23 -70 -24 -37 -1 -57 4 -73 18 -16 16 -20 27 -15 54 3 19 0 41 -6 48 -14 17
-132 18 -145 1 -13 -17 0 -136 18 -167 8 -12 36 -34 63 -48 61 -31 166 -41
251 -23 49 10 68 20 103 55 l42 42 0 84 c0 134 -21 155 -212 218 l-98 33 0 38
c0 29 6 43 22 54 12 9 36 16 53 16 46 0 73 -24 77 -68 l3 -37 75 0 c85 0 87 3
75 81 -7 49 -42 97 -89 121 -44 23 -208 28 -261 8z"/>
<path d="M6790 4862 c-14 -5 -14 -652 0 -652 6 -1 94 -1 198 -1 l187 0 0 63 0
63 -118 -1 -118 -2 3 77 3 76 105 0 105 0 0 60 0 60 -108 0 c-59 0 -107 2
-108 5 0 3 -1 32 -1 65 l-2 60 111 -3 c73 -3 113 0 117 7 11 18 15 96 6 112
-8 11 -45 14 -190 14 -99 0 -184 -1 -190 -3z"/>
<path d="M7613 4863 c-10 -4 -13 -78 -13 -329 0 -209 4 -324 10 -325 6 0 40
-1 78 -1 l67 -1 0 124 0 124 39 0 39 0 44 -115 c24 -63 48 -119 53 -124 5 -5
39 -10 75 -11 50 -2 68 1 72 12 3 8 -4 36 -15 61 -11 26 -35 80 -54 121 -27
61 -30 75 -18 79 8 3 32 22 53 42 l37 38 0 91 c0 102 -12 137 -57 168 -16 11
-46 24 -68 31 -39 11 -318 23 -342 15z m276 -138 c51 -26 53 -114 3 -134 -15
-5 -52 -11 -82 -13 l-55 -3 0 75 c-1 41 0 78 2 83 7 13 103 8 132 -8z m-174
-225 c-3 -5 -12 -7 -20 -3 -21 7 -19 13 6 13 11 0 18 -4 14 -10z"/>
<path d="M8444 4859 c-3 -5 10 -41 29 -81 19 -40 62 -137 96 -215 l63 -142 -3
-100 c-2 -55 -1 -102 1 -104 5 -5 119 -11 148 -8 10 1 13 29 11 124 l-2 122
92 195 c50 106 89 200 87 207 -4 9 -25 13 -71 12 -35 -1 -69 -7 -74 -13 -13
-17 -76 -166 -91 -219 -15 -48 -40 -65 -40 -26 0 25 -67 228 -80 244 -11 14
-158 17 -166 4z"/>
<path d="M5540 4164 c0 -8 5 -12 10 -9 6 4 8 11 5 16 -9 14 -15 11 -15 -7z"/>
</g>
</svg>
