<?xml version="1.0" standalone="no"?>
<!DOCTYPE svg PUBLIC "-//W3C//DTD SVG 20010904//EN"
 "http://www.w3.org/TR/2001/REC-SVG-20010904/DTD/svg10.dtd">
<svg version="1.0" xmlns="http://www.w3.org/2000/svg"
 width="1200.000000pt" height="628.000000pt" viewBox="0 0 1200.000000 628.000000"
 preserveAspectRatio="xMidYMid meet">
<g transform="translate(0.000000,628.000000) scale(0.100000,-0.100000)"
fill="#000000" stroke="none">
<path d="M5350 5070 c-729 -38 -1481 -145 -2185 -310 -615 -145 -1174 -322
-1770 -560 -99 -39 -209 -85 -245 -102 -36 -16 -85 -38 -110 -48 -68 -27 -361
-165 -587 -276 -111 -54 -202 -105 -202 -112 -1 -8 7 -26 18 -40 10 -15 141
-270 291 -567 150 -297 325 -643 390 -770 65 -126 220 -432 345 -680 125 -247
231 -451 236 -453 4 -2 27 9 51 24 52 33 415 210 583 284 175 78 286 123 505
205 342 128 621 215 980 306 1040 264 2109 347 3190 249 514 -47 996 -132
1535 -270 428 -110 1005 -313 1405 -495 52 -24 118 -53 145 -65 92 -41 407
-200 435 -220 16 -11 34 -20 42 -19 7 0 84 143 170 317 164 330 501 996 881
1742 122 239 223 442 225 451 2 11 -72 52 -275 151 -334 164 -588 277 -903
403 -697 277 -1361 476 -2072 620 -563 114 -1037 178 -1678 226 -184 14 -1181
20 -1400 9z m830 -91 c129 -6 314 -12 410 -14 171 -3 460 -23 650 -46 56 -7
102 -18 112 -27 16 -13 18 -13 24 2 6 15 15 17 68 11 33 -4 66 -11 72 -16 14
-11 117 -14 133 -5 6 4 21 0 33 -7 13 -8 52 -17 87 -20 35 -3 68 -10 74 -16 7
-7 14 -7 24 0 9 8 26 7 60 -4 27 -9 75 -20 108 -26 33 -6 96 -18 140 -26 44
-9 107 -17 139 -20 32 -2 64 -9 69 -14 6 -6 26 -11 43 -11 33 0 58 -20 36 -28
-7 -2 -10 -7 -8 -10 2 -4 44 -3 93 2 97 10 143 4 143 -19 0 -9 10 -15 24 -15
14 0 77 -13 141 -30 64 -16 132 -30 150 -30 19 0 36 -4 40 -9 3 -5 19 -12 35
-16 17 -4 30 -11 30 -16 0 -6 9 -8 20 -4 10 3 32 -1 49 -9 16 -9 50 -17 76
-20 25 -2 52 -9 58 -15 6 -6 23 -11 38 -11 15 0 31 -4 34 -10 3 -5 15 -10 26
-10 10 0 27 -4 37 -9 9 -5 58 -21 107 -36 50 -15 92 -30 95 -34 3 -3 20 -14
38 -24 25 -14 36 -16 47 -7 7 6 16 7 19 2 3 -5 17 -7 31 -4 18 3 25 0 25 -12
0 -19 21 -21 39 -3 10 10 14 9 22 -5 6 -10 18 -18 28 -18 9 0 26 -7 37 -15 10
-8 26 -15 35 -15 9 0 30 -7 48 -16 23 -11 46 -14 74 -10 39 6 40 5 23 -9 -19
-15 -19 -15 2 -36 14 -12 31 -19 45 -16 l22 4 -22 8 c-13 4 -23 14 -23 21 0
19 29 18 36 -1 4 -8 12 -15 19 -15 8 0 20 -7 29 -15 8 -9 36 -16 61 -17 31 -2
44 -6 41 -15 -3 -6 5 -15 17 -18 12 -4 41 -15 64 -26 24 -10 46 -19 51 -19 17
0 90 -40 94 -52 2 -6 10 -8 17 -4 7 5 10 15 7 23 -4 10 -2 13 6 10 46 -19 68
-33 68 -43 0 -11 24 -26 45 -29 10 -1 69 -28 148 -66 22 -11 47 -19 57 -19 10
0 20 -7 24 -15 3 -9 18 -15 36 -15 18 0 33 -6 36 -15 3 -8 25 -17 49 -21 32
-4 42 -10 38 -20 -3 -8 1 -14 10 -14 8 0 35 -10 59 -21 23 -12 50 -25 58 -29
9 -4 35 -11 59 -15 27 -4 39 -10 31 -15 -17 -10 3 -22 24 -14 11 4 16 0 16
-15 0 -15 10 -23 43 -33 23 -7 60 -22 81 -35 29 -16 44 -19 58 -12 22 12 23 0
3 -27 -8 -10 -15 -29 -15 -41 0 -17 6 -23 23 -24 l22 0 -22 -9 c-14 -6 -23
-18 -23 -30 0 -11 -7 -23 -15 -26 -8 -4 -15 -13 -15 -21 0 -8 -9 -28 -21 -44
-18 -25 -19 -32 -8 -46 12 -14 11 -15 -10 -8 -15 5 -21 4 -17 -3 6 -10 -117
-259 -156 -314 -16 -23 -17 -30 -6 -47 17 -28 3 -38 -22 -16 -21 19 -29 8 -9
-12 14 -14 2 -53 -17 -53 -10 0 -13 -7 -8 -25 4 -18 2 -25 -8 -25 -8 0 -29
-29 -47 -65 -17 -36 -38 -68 -46 -71 -10 -4 -12 -12 -4 -31 12 -33 12 -35 -11
-21 -23 15 -37 4 -21 -16 7 -8 9 -20 5 -27 -5 -8 -9 -7 -16 5 -5 9 -14 14 -19
10 -6 -4 -5 -11 2 -21 10 -12 10 -19 0 -36 -11 -16 -11 -22 -2 -25 8 -3 5 -9
-8 -19 -12 -8 -21 -20 -21 -28 0 -8 -6 -18 -12 -22 -15 -9 -38 -69 -34 -86 1
-7 1 -9 -1 -4 -7 10 -33 9 -33 -2 0 -6 5 -13 10 -16 11 -7 14 -45 4 -45 -3 0
-14 10 -25 23 -10 12 -18 17 -19 11 0 -5 9 -20 20 -32 22 -23 25 -38 10 -47
-5 -3 -16 9 -25 26 -13 24 -20 28 -28 20 -8 -8 -9 -14 -1 -19 6 -4 14 -21 17
-39 5 -27 2 -36 -23 -57 -17 -13 -30 -32 -30 -40 0 -9 -4 -16 -10 -16 -5 0
-10 -9 -10 -20 0 -11 -4 -20 -10 -20 -5 0 -10 -11 -10 -24 0 -13 -7 -29 -16
-37 -9 -7 -14 -22 -11 -36 3 -17 0 -23 -14 -23 -11 0 -19 -7 -19 -15 0 -9 -7
-18 -15 -21 -8 -4 -15 -12 -15 -20 0 -21 30 -17 31 4 0 11 2 13 6 4 3 -8 -8
-27 -25 -43 -17 -16 -45 -60 -64 -97 -18 -37 -34 -69 -36 -72 -2 -2 -7 2 -12
10 -17 27 -20 3 -4 -28 8 -18 12 -37 8 -43 -5 -8 -10 -6 -16 5 -15 27 -30 7
-23 -30 4 -25 2 -36 -8 -40 -8 -3 -31 -39 -51 -80 -21 -41 -42 -74 -47 -74 -6
0 -7 -9 -4 -21 7 -20 4 -21 -20 -15 -26 7 -27 6 -20 -21 8 -35 8 -34 0 -60 -4
-13 -14 -23 -22 -23 -10 0 -14 -7 -10 -20 3 -13 0 -20 -9 -20 -8 0 -14 -7 -14
-15 0 -8 5 -15 10 -15 6 0 10 -5 10 -11 0 -8 -4 -8 -13 -1 -7 6 -23 9 -34 6
-14 -4 -29 2 -42 15 -26 26 -191 111 -215 111 -9 0 -29 11 -44 25 -15 15 -35
24 -45 21 -10 -2 -21 4 -27 15 -6 10 -19 19 -29 19 -10 0 -50 16 -87 35 -38
19 -75 35 -81 35 -7 0 -13 7 -13 15 0 9 -9 15 -24 15 -13 0 -26 7 -30 15 -4
12 -11 13 -31 5 -34 -13 -55 -13 -55 0 0 6 9 10 21 10 11 0 17 5 14 10 -9 14
-45 12 -45 -2 0 -8 -3 -9 -8 -3 -11 16 -92 55 -112 55 -11 0 -22 5 -25 10 -3
6 -18 10 -33 10 -26 1 -26 1 -7 16 18 14 15 15 -42 8 -44 -5 -63 -3 -63 5 0 6
10 11 23 11 18 1 16 3 -12 15 -18 8 -48 15 -65 15 -17 0 -40 6 -51 14 -11 7
-72 30 -135 50 -75 25 -125 36 -143 32 -24 -5 -28 -3 -23 11 4 9 1 20 -6 25
-10 6 -10 8 0 8 6 0 12 5 12 10 0 6 -7 10 -15 10 -8 0 -17 -11 -21 -25 -4 -14
-11 -24 -18 -22 -6 3 -10 8 -10 13 1 5 -7 18 -17 28 -12 12 -19 15 -19 7 0
-17 -62 -4 -73 15 -4 8 -21 14 -36 14 -16 0 -48 7 -72 15 -24 9 -64 21 -89 27
-42 10 -58 12 -117 16 -13 1 -23 8 -23 16 0 11 -9 13 -34 9 -19 -3 -36 -1 -40
6 -4 6 -16 11 -27 11 -10 0 -19 7 -19 15 0 8 -9 15 -20 15 -11 0 -20 -4 -20
-10 0 -5 -5 -10 -11 -10 -5 0 -7 5 -3 11 5 9 -6 10 -40 7 -25 -3 -46 -3 -46 1
0 3 -10 12 -21 19 -15 9 -25 10 -32 3 -6 -6 -17 -5 -31 4 -12 8 -64 24 -116
35 -108 22 -139 30 -160 37 -8 3 -34 5 -58 4 -31 -2 -44 2 -48 14 -5 13 -14
15 -35 11 -21 -4 -29 -2 -29 9 0 20 -20 29 -33 16 -14 -14 -77 -15 -77 -1 0 6
-18 7 -44 4 -27 -4 -46 -2 -50 5 -10 15 -63 14 -69 -1 -3 -10 -9 -9 -23 4 -10
9 -41 18 -69 21 -82 9 -172 24 -183 31 -5 3 -63 8 -128 11 -66 2 -168 9 -229
14 -248 23 -593 33 -974 27 -216 -4 -398 -9 -405 -13 -6 -4 -55 -9 -109 -10
-54 -1 -103 -6 -110 -10 -7 -5 -56 -9 -110 -10 -54 -1 -102 -5 -108 -9 -6 -3
-38 -8 -71 -9 -36 -2 -67 -10 -77 -19 -14 -13 -33 -15 -92 -10 -132 10 -139
10 -163 -19 -22 -25 -24 -26 -100 -18 -51 5 -80 3 -84 -3 -11 -17 -50 -36 -72
-36 -11 0 -20 7 -20 15 0 19 -19 19 -26 0 -3 -8 -22 -17 -42 -20 -47 -8 -198
-43 -238 -55 -17 -6 -41 -10 -55 -10 -13 -1 -35 -7 -48 -14 -19 -11 -29 -11
-43 -2 -14 8 -23 7 -40 -3 -13 -8 -45 -18 -73 -23 -27 -4 -51 -12 -53 -18 -2
-5 -24 -10 -49 -10 -35 0 -43 -3 -35 -13 8 -9 0 -12 -35 -14 -25 -1 -50 -6
-56 -12 -6 -6 -24 -11 -39 -11 -16 0 -36 -4 -46 -9 -9 -5 -37 -15 -62 -21 -25
-7 -58 -21 -74 -33 -23 -16 -32 -18 -47 -9 -21 13 -72 16 -83 5 -4 -4 8 -13
26 -19 l33 -12 -30 -1 c-17 -1 -36 4 -43 11 -9 9 -16 8 -30 -5 -10 -9 -30 -17
-44 -17 -14 0 -31 -6 -37 -14 -6 -7 -32 -19 -56 -26 -25 -7 -48 -17 -51 -21
-3 -5 -15 -9 -28 -9 -12 0 -26 -4 -32 -10 -10 -10 -44 -18 -81 -19 -16 -1 -21
-6 -17 -16 8 -20 -24 -31 -46 -17 -17 10 -60 6 -60 -6 0 -2 8 -11 18 -19 15
-13 14 -14 -13 -9 -18 2 -38 -1 -49 -10 -11 -8 -30 -14 -42 -14 -13 0 -26 -4
-29 -10 -3 -5 -25 -14 -48 -21 -23 -6 -51 -19 -63 -30 -15 -14 -39 -20 -88
-23 -36 -2 -69 -6 -73 -10 -3 -3 6 -6 20 -6 15 0 27 -3 27 -7 0 -5 -18 -16
-40 -26 -27 -12 -50 -16 -70 -12 -29 6 -42 -6 -20 -20 17 -10 2 -24 -20 -18
-20 5 -108 -32 -122 -52 -5 -6 -15 -5 -29 3 -25 16 -37 9 -20 -11 9 -11 8 -17
-3 -26 -11 -9 -15 -8 -20 4 -3 8 -13 15 -21 15 -12 0 -15 -6 -10 -21 5 -15 2
-22 -14 -26 -12 -3 -21 -9 -21 -14 0 -5 -4 -9 -10 -9 -16 0 -12 22 7 36 17 13
17 13 1 14 -10 0 -18 -4 -18 -10 0 -14 -38 -12 -43 3 -2 6 -8 9 -12 5 -5 -5 0
-17 10 -28 17 -19 17 -20 -11 -30 -60 -22 -114 -54 -114 -67 0 -8 -5 -11 -12
-7 -6 4 -31 7 -55 5 -37 -2 -43 1 -43 18 0 11 -7 26 -15 35 -18 18 -19 33 -2
39 8 3 1 15 -19 33 -17 16 -36 47 -44 69 -7 21 -19 46 -27 53 -8 8 -17 27 -20
43 -3 16 -10 29 -15 29 -5 0 -7 9 -3 19 4 14 -1 25 -20 37 -35 23 -50 51 -35
69 9 11 7 16 -8 24 -10 5 -24 28 -32 50 -7 23 -17 41 -21 41 -11 0 -43 69 -35
77 3 4 0 13 -7 22 -8 9 -24 36 -37 61 -12 25 -26 52 -31 60 -37 69 -63 127
-61 136 1 6 -5 17 -13 24 -8 7 -15 19 -15 26 0 8 -4 14 -10 14 -5 0 -10 9 -10
20 0 11 -4 20 -10 20 -5 0 -10 9 -10 20 0 11 -4 20 -10 20 -5 0 -10 9 -10 20
0 11 -4 20 -10 20 -5 0 -10 7 -10 16 0 9 -9 27 -20 41 -11 14 -20 36 -20 49 0
13 -4 24 -10 24 -5 0 -10 9 -10 20 0 11 -4 20 -10 20 -5 0 -10 7 -10 15 0 8
-4 15 -10 15 -5 0 -10 9 -10 20 0 11 -4 20 -10 20 -5 0 -10 9 -10 19 0 10 -6
21 -14 24 -8 3 -17 20 -21 37 -10 44 -26 72 -63 110 -27 27 -32 38 -27 61 7
29 -8 42 -18 17 -3 -7 -6 -2 -6 12 -1 14 -17 54 -36 90 -20 36 -38 82 -42 103
-6 41 -23 61 -23 28 0 -25 -15 -28 -24 -4 -4 10 -1 20 9 26 12 7 13 12 5 22
-7 8 -9 23 -5 35 4 14 2 20 -8 20 -8 0 -18 -7 -21 -16 -3 -8 -11 -12 -16 -9
-8 5 -8 11 -1 19 7 9 -3 38 -35 99 -25 48 -50 87 -56 87 -6 0 -8 12 -4 33 4
20 3 27 -3 18 -13 -20 -31 -4 -31 29 0 17 7 30 17 34 13 5 14 9 4 19 -10 9
-15 8 -27 -8 -13 -17 -16 -18 -24 -5 -13 19 -12 30 0 30 16 0 12 22 -7 36 -17
12 -15 16 21 48 21 20 40 36 42 36 2 0 4 -7 4 -15 0 -8 5 -15 10 -15 6 0 10 5
10 10 0 6 12 15 27 21 20 7 24 12 14 18 -9 6 -10 11 -2 15 6 4 11 2 11 -3 0
-19 38 -12 53 9 8 11 28 23 45 26 18 4 32 9 32 13 0 3 19 15 41 26 22 10 47
28 54 38 13 18 13 18 25 0 8 -13 13 -14 16 -5 8 16 58 42 84 42 11 0 20 5 20
10 0 6 7 10 15 10 9 0 18 7 22 16 5 15 7 15 15 0 5 -9 13 -16 18 -16 15 0 12
28 -2 33 -8 2 -9 8 -4 13 5 5 11 4 13 -3 3 -7 19 -13 36 -12 32 0 32 0 7 11
l-25 10 23 11 c16 7 29 7 47 -3 14 -7 28 -10 32 -5 5 4 2 10 -4 12 -21 8 -15
23 10 23 12 0 43 11 69 25 26 14 58 25 72 25 13 0 26 4 28 9 4 11 154 81 174
81 9 0 35 9 58 19 23 10 61 27 86 36 25 10 54 22 66 27 11 5 39 11 62 12 46 2
70 16 29 16 -15 0 -27 5 -27 10 0 15 74 12 96 -5 10 -8 26 -14 34 -15 8 0 0
10 -17 21 -33 21 -36 39 -7 39 8 0 23 -5 34 -12 24 -15 37 -4 20 17 -16 19 -6
32 13 16 11 -8 23 -8 48 0 19 7 38 16 44 20 5 5 19 9 31 9 13 0 26 5 29 10 3
6 22 10 41 10 24 0 34 5 34 15 0 8 9 15 20 15 11 0 20 -4 20 -10 0 -5 4 -10
10 -10 5 0 7 6 5 13 -10 27 36 58 76 50 15 -3 43 3 65 15 22 10 66 22 98 26
33 4 64 10 70 15 6 5 28 11 49 15 21 4 41 14 44 22 6 17 34 19 50 3 6 -6 16
-8 23 -4 8 5 6 11 -7 21 -16 14 -15 14 13 9 23 -4 33 -2 37 9 5 14 9 14 34 1
34 -18 44 -19 38 -2 -3 6 10 19 28 28 24 12 39 14 51 7 12 -7 26 -6 44 1 53
22 256 69 270 63 11 -4 14 -1 10 9 -5 12 1 14 23 11 20 -3 31 1 35 12 7 19 35
22 32 4 -2 -7 6 -13 17 -13 14 0 19 6 17 18 -4 21 7 22 34 3 18 -13 22 -13 37
5 11 12 30 19 51 19 19 0 37 -4 41 -10 7 -11 52 8 78 33 10 11 27 17 37 14 21
-5 26 -4 317 53 56 11 119 20 140 20 21 0 49 8 63 17 17 12 25 13 28 5 2 -7
11 -12 20 -11 11 0 12 2 5 6 -7 2 -13 9 -13 14 0 14 27 11 44 -6 17 -17 38
-19 52 -5 18 18 156 42 209 36 46 -6 48 -5 31 9 -29 22 -12 30 24 11 29 -14
69 -14 110 1 8 3 31 7 50 9 19 1 89 7 155 13 278 26 516 42 595 41 131 -2 463
11 478 19 7 4 25 6 40 4 15 -2 133 -8 262 -14z m-1930 -99 c0 -5 -9 -10 -19
-10 -11 0 -23 5 -26 10 -4 6 5 10 19 10 14 0 26 -4 26 -10z m-730 -120 c0 -5
-4 -10 -10 -10 -5 0 -10 5 -10 10 0 6 5 10 10 10 6 0 10 -4 10 -10z m5003 -26
c23 -9 22 -24 -3 -24 -11 0 -20 6 -20 14 0 8 -5 17 -10 19 -10 5 -2 3 33 -9z
m-5643 -134 c0 -5 -7 -10 -16 -10 -8 0 -12 5 -9 10 3 6 10 10 16 10 5 0 9 -4
9 -10z m6838 -192 c-6 -18 -28 -21 -28 -4 0 9 7 16 16 16 9 0 14 -5 12 -12z
m-7618 -28 c0 -5 -4 -10 -10 -10 -5 0 -10 5 -10 10 0 6 5 10 10 10 6 0 10 -4
10 -10z m-980 -380 c0 -5 -4 -10 -10 -10 -5 0 -10 5 -10 10 0 6 5 10 10 10 6
0 10 -4 10 -10z m10448 -398 c3 -9 -2 -13 -14 -10 -9 1 -19 9 -22 16 -3 9 2
13 14 10 9 -1 19 -9 22 -16z m-6958 -1352 c0 -5 -18 -10 -41 -10 -24 0 -38 4
-34 10 3 6 22 10 41 10 19 0 34 -4 34 -10z m2783 -27 c-7 -2 -19 -2 -25 0 -7
3 -2 5 12 5 14 0 19 -2 13 -5z m-2993 -19 c0 -2 -9 -4 -21 -4 -11 0 -18 4 -14
10 5 8 35 3 35 -6z m3200 6 c0 -5 -7 -10 -15 -10 -8 0 -15 5 -15 10 0 6 7 10
15 10 8 0 15 -4 15 -10z m80 -20 c0 -5 -7 -10 -15 -10 -8 0 -15 5 -15 10 0 6
7 10 15 10 8 0 15 -4 15 -10z m-6460 -240 c0 -5 -4 -10 -10 -10 -5 0 -10 5
-10 10 0 6 5 10 10 10 6 0 10 -4 10 -10z m1831 -83 c-13 -13 -26 -3 -16 12 3
6 11 8 17 5 6 -4 6 -10 -1 -17z m6644 -297 c3 -5 -1 -10 -10 -10 -9 0 -13 5
-10 10 3 6 8 10 10 10 2 0 7 -4 10 -10z m771 -157 c-10 -10 -19 5 -10 18 6 11
8 11 12 0 2 -7 1 -15 -2 -18z"/>
<path d="M7450 4863 c19 -2 40 -11 47 -20 6 -8 17 -12 23 -8 8 5 8 11 -1 21
-7 9 -28 13 -58 12 -40 -1 -41 -2 -11 -5z"/>
<path d="M7355 4840 c4 -6 11 -8 16 -5 14 9 11 15 -7 15 -8 0 -12 -5 -9 -10z"/>
<path d="M3395 4680 c27 -12 35 -12 35 0 0 6 -12 10 -27 9 -25 0 -26 -1 -8 -9z"/>
<path d="M8580 4680 c0 -5 6 -10 14 -10 8 0 18 5 21 10 3 6 -3 10 -14 10 -12
0 -21 -4 -21 -10z"/>
<path d="M2808 4563 c6 -2 18 -2 25 0 6 3 1 5 -13 5 -14 0 -19 -2 -12 -5z"/>
<path d="M2698 4518 c9 -9 15 -9 24 0 9 9 7 12 -12 12 -19 0 -21 -3 -12 -12z"/>
<path d="M2340 4415 c0 -10 10 -15 32 -15 30 0 31 1 12 15 -25 19 -44 19 -44
0z"/>
<path d="M2220 4394 c0 -8 5 -12 10 -9 6 3 10 10 10 16 0 5 -4 9 -10 9 -5 0
-10 -7 -10 -16z"/>
<path d="M2290 4380 c0 -5 4 -10 9 -10 6 0 13 5 16 10 3 6 -1 10 -9 10 -9 0
-16 -4 -16 -10z"/>
<path d="M9606 4375 c-4 -13 -2 -14 14 -5 23 13 26 20 6 20 -8 0 -16 -7 -20
-15z"/>
<path d="M5600 4370 c0 -5 7 -10 15 -10 23 0 18 -14 -11 -27 -23 -11 -24 -10
-20 10 3 12 3 16 0 10 -7 -16 -46 -17 -61 -2 -13 13 -36 3 -28 -12 4 -5 -5 -9
-19 -9 -17 0 -26 6 -26 16 0 8 -5 12 -11 8 -8 -4 -8 -9 0 -17 6 -6 11 -14 11
-18 0 -11 -55 -7 -63 5 -5 7 -7 6 -6 -4 3 -28 -1 -40 -12 -40 -6 0 -9 6 -6 14
7 18 -11 36 -29 29 -8 -3 -14 1 -14 11 0 19 -16 22 -23 4 -2 -7 3 -19 12 -26
14 -12 13 -13 -9 -7 -14 3 -68 5 -120 5 -189 -2 -225 -1 -228 9 -2 6 -8 11
-13 11 -11 0 11 -38 26 -43 5 -2 -1 -2 -15 0 -105 19 -145 22 -160 9 -8 -8
-63 -19 -125 -25 -98 -10 -113 -14 -147 -41 -20 -17 -39 -30 -42 -30 -3 0 -15
-9 -25 -19 -22 -22 -16 -37 7 -18 13 10 14 9 10 -3 -2 -8 -13 -15 -24 -15 -15
0 -19 6 -17 28 l2 28 -26 -21 c-14 -11 -29 -20 -33 -20 -5 0 -6 9 -3 20 5 18
1 20 -40 15 -26 -2 -49 0 -52 5 -7 12 -148 14 -159 3 -4 -5 -39 -9 -78 -10
-57 -1 -75 -6 -94 -24 -14 -14 -31 -20 -44 -16 -15 4 -20 0 -20 -13 0 -11 -10
-20 -27 -25 -14 -3 -44 -22 -66 -41 -23 -19 -44 -34 -48 -34 -4 0 -9 -17 -11
-37 -4 -37 -4 -37 -15 -13 l-11 25 -7 -27 c-4 -16 -12 -28 -17 -28 -6 0 -8 -9
-5 -19 3 -11 -1 -28 -7 -38 -30 -45 -49 -183 -26 -183 6 0 10 -9 10 -20 0 -17
-3 -19 -19 -10 -25 13 -31 13 -31 -1 0 -6 16 -25 35 -43 33 -32 34 -35 29 -89
-5 -49 -3 -57 11 -57 11 0 15 5 12 15 -7 18 6 27 27 19 12 -5 14 -10 6 -19 -7
-8 -2 -19 16 -36 14 -13 31 -24 37 -25 40 -4 40 -4 27 -19 -10 -12 -10 -18 0
-30 8 -9 21 -13 32 -9 15 4 22 -1 31 -25 6 -17 17 -31 24 -31 7 0 10 7 7 15
-9 22 16 18 43 -6 17 -17 26 -19 36 -11 10 9 18 8 33 -2 10 -7 45 -22 77 -32
31 -10 57 -24 57 -31 0 -17 -60 -17 -85 1 -11 7 -55 21 -97 30 l-77 17 -35
-27 c-19 -15 -45 -45 -58 -66 -23 -37 -56 -48 -50 -16 1 8 -5 21 -13 28 -8 7
-15 21 -15 31 0 11 -4 28 -10 39 -5 11 -14 28 -19 38 -5 11 -5 25 1 36 7 13 5
21 -9 31 -23 17 -8 33 17 18 15 -10 21 -9 32 4 11 14 11 16 -3 11 -10 -4 -25
1 -35 11 -11 9 -26 15 -34 13 -13 -2 -16 10 -18 64 -1 60 -5 69 -37 105 -19
22 -35 46 -35 54 0 8 -15 29 -32 45 -27 25 -30 31 -18 39 19 13 6 25 -17 17
-25 -10 -28 -8 -25 14 2 10 -2 21 -8 25 -5 3 -10 16 -10 28 0 20 0 20 -15 1
-15 -19 -16 -18 -36 9 -11 15 -30 27 -41 27 -15 0 -18 5 -13 20 6 18 3 20 -18
15 -15 -4 -38 0 -58 11 -24 12 -56 17 -104 17 -38 0 -56 2 -40 4 49 7 54 23 8
23 -23 0 -45 5 -48 10 -8 13 -55 13 -75 0 -12 -7 -13 -11 -2 -22 11 -11 15
-10 23 5 6 9 19 17 30 17 14 0 19 -5 17 -17 -3 -15 -15 -18 -78 -18 -59 0 -79
-4 -93 -18 -10 -10 -22 -15 -27 -12 -5 3 -19 0 -32 -6 -47 -25 -58 -29 -74
-29 -10 0 -14 -5 -10 -15 8 -21 -21 -31 -44 -17 -14 9 -19 8 -24 -3 -3 -8 -15
-15 -28 -15 -21 0 -21 -1 -3 -13 17 -13 17 -15 -5 -30 -12 -8 -31 -29 -41 -46
-11 -19 -27 -31 -40 -31 -18 0 -20 -4 -15 -25 4 -17 2 -27 -8 -31 -8 -3 -16
-15 -19 -26 -3 -11 -10 -17 -16 -13 -16 9 -13 55 4 61 19 8 19 24 0 24 -8 0
-15 -6 -15 -14 0 -7 -10 -16 -22 -19 -19 -5 -20 -8 -7 -23 20 -24 38 -83 28
-90 -5 -3 -9 4 -9 15 0 12 -5 21 -11 21 -13 0 -43 70 -40 93 1 11 -3 17 -11
15 -7 -2 -27 7 -45 20 -19 13 -46 22 -69 22 -56 0 -146 -31 -152 -53 -3 -12
-8 -14 -16 -8 -8 7 -21 6 -38 -3 -14 -8 -50 -17 -80 -21 -48 -7 -51 -9 -28
-17 l25 -10 -28 -10 c-20 -7 -32 -7 -40 1 -13 13 -57 15 -57 1 0 -5 7 -13 16
-18 13 -7 14 -11 4 -17 -7 -4 -16 -2 -21 6 -6 11 -11 11 -21 1 -6 -6 -21 -12
-31 -12 -11 0 -40 -14 -65 -31 -43 -29 -49 -30 -79 -20 -18 7 -38 9 -45 5 -7
-5 -3 -10 13 -16 23 -9 23 -10 5 -24 -11 -8 -28 -14 -37 -14 -10 0 -21 -5 -25
-11 -3 -6 -17 -8 -29 -5 -13 3 -27 2 -30 -4 -3 -5 -14 -10 -23 -10 -31 0 -152
-68 -152 -85 0 -6 -9 -16 -21 -23 -15 -10 -19 -20 -15 -37 4 -16 1 -27 -10
-33 -19 -10 -14 -48 5 -44 9 2 11 -3 7 -13 -3 -9 -2 -23 3 -33 5 -9 17 -37 27
-62 23 -55 54 -92 99 -120 34 -21 36 -21 95 -4 33 9 63 21 66 25 3 5 16 9 29
9 13 0 27 4 30 10 10 16 73 42 84 35 6 -3 11 -21 11 -40 0 -20 6 -35 15 -39 8
-3 15 -12 15 -19 0 -8 9 -22 19 -31 10 -10 22 -38 26 -64 4 -26 18 -62 32 -81
19 -24 22 -35 13 -41 -9 -5 -5 -18 14 -48 27 -44 32 -67 17 -77 -11 -6 10 -51
32 -68 15 -12 43 -75 54 -127 8 -35 33 -70 50 -70 10 0 11 -4 3 -19 -14 -27
-13 -30 11 -24 21 6 21 5 5 -19 -18 -28 -11 -44 10 -23 17 16 42 10 65 -17 18
-20 39 -24 39 -7 0 7 9 9 22 6 26 -7 58 8 58 28 0 8 4 15 9 15 16 0 23 -20 12
-34 -6 -7 -8 -16 -4 -19 3 -4 30 14 58 41 29 26 68 56 86 68 21 12 33 27 32
39 -1 10 5 24 13 29 11 9 12 19 4 45 -5 19 -17 42 -26 52 -20 22 -10 46 12 28
8 -6 14 -20 14 -30 0 -10 5 -21 10 -24 6 -4 10 5 10 19 0 14 -4 26 -10 26 -5
0 -10 6 -10 13 0 7 -9 19 -20 27 -11 8 -20 19 -20 25 0 6 -9 28 -20 50 -11 22
-20 47 -20 57 0 9 -4 19 -9 22 -5 4 -12 25 -16 49 -4 23 -9 46 -12 50 -3 5
-11 0 -19 -10 -13 -17 -13 -17 -14 2 0 12 5 26 12 33 9 9 9 15 0 24 -7 7 -12
23 -12 38 0 14 -5 32 -10 40 -8 12 -10 11 -10 -7 0 -13 -4 -23 -10 -23 -13 0
-13 41 0 76 8 19 8 30 0 38 -7 7 -14 4 -23 -9 -9 -11 -16 -14 -21 -7 -3 6 -2
13 3 16 4 3 -3 37 -17 76 -24 69 -24 71 -6 85 17 13 17 14 2 15 -9 0 -20 -9
-23 -20 -7 -21 -25 -28 -25 -10 0 6 3 10 8 10 4 0 12 10 17 23 7 15 20 23 45
25 l35 4 -25 13 -25 14 33 1 c17 0 32 5 32 10 0 6 9 10 21 10 14 0 19 -5 16
-15 -4 -8 -2 -17 4 -20 5 -4 12 2 16 12 9 25 64 72 85 73 12 0 19 -16 29 -72
7 -40 18 -80 26 -89 7 -8 13 -18 13 -21 0 -3 -14 -8 -31 -12 -18 -3 -33 -13
-36 -24 -2 -10 -18 -26 -34 -36 -16 -9 -31 -27 -34 -39 -2 -12 -6 -31 -8 -42
-4 -18 -5 -18 -15 5 l-11 25 0 -26 c-1 -37 10 -89 19 -89 4 0 11 10 15 23 6
19 8 20 12 4 3 -10 -1 -25 -8 -34 -11 -13 -10 -18 9 -34 20 -15 21 -22 12 -39
-6 -12 -8 -29 -5 -38 6 -14 9 -13 17 8 7 20 11 22 18 10 5 -8 10 -27 10 -42 0
-18 5 -28 14 -28 8 0 17 4 20 9 3 5 20 -4 38 -21 20 -19 38 -27 50 -24 10 3
27 9 38 12 13 4 20 2 20 -7 0 -26 60 -132 87 -155 l28 -24 -27 0 c-18 0 -28
-5 -28 -15 0 -17 35 -21 45 -5 5 8 11 7 21 -1 12 -10 12 -13 -2 -24 -13 -9
-14 -14 -5 -19 6 -4 18 -2 26 4 8 6 22 10 32 7 15 -3 14 -6 -7 -14 -22 -10
-23 -12 -7 -18 10 -4 23 -3 30 4 6 6 28 11 48 11 21 0 41 5 45 11 4 6 20 8 40
4 19 -3 34 -2 34 3 0 4 18 21 40 38 27 19 39 35 36 47 -5 20 -2 21 25 5 17
-11 22 -10 32 3 7 9 21 19 32 23 11 3 1 3 -22 1 -35 -4 -43 -2 -43 11 0 9 6
14 13 12 6 -3 26 1 42 8 26 11 27 13 8 14 -13 0 -30 11 -39 25 -23 36 -26 103
-6 131 22 30 39 30 45 2 l4 -23 8 22 c6 17 17 22 63 27 71 7 105 3 110 -13 2
-6 -2 -18 -9 -27 -9 -11 -9 -18 -1 -26 9 -9 12 -8 12 5 0 9 6 17 14 17 12 0
13 -7 5 -32 -13 -47 -11 -56 7 -30 8 12 20 22 26 22 7 0 7 -5 -1 -14 -9 -11
-3 -21 30 -50 30 -25 52 -36 74 -36 43 0 148 21 160 31 5 5 17 9 27 9 9 0 22
9 28 20 6 11 29 28 50 38 40 17 56 39 21 27 -11 -3 -22 -1 -26 5 -3 5 2 10 13
10 11 0 25 7 32 15 16 19 31 19 105 -1 72 -18 321 -22 338 -5 6 6 28 11 48 11
21 0 41 5 44 10 3 6 15 10 26 10 22 0 67 26 87 49 9 12 15 12 24 3 7 -7 16
-12 20 -12 13 0 9 28 -4 33 -7 3 -2 6 10 6 16 1 26 -6 29 -19 3 -11 9 -20 14
-20 5 0 9 3 9 6 0 11 -23 49 -34 56 -6 4 -7 10 -3 15 5 4 12 1 17 -7 8 -13 12
-12 24 5 9 11 13 26 11 33 -6 15 7 16 23 0 17 -17 28 0 14 22 -15 25 -15 33 0
28 7 -3 26 20 42 51 27 51 30 65 30 157 1 56 -4 111 -10 125 -7 13 -23 50 -35
81 -13 32 -30 58 -38 58 -14 0 -81 68 -81 83 0 4 -7 7 -15 7 -9 0 -30 7 -46
16 -29 15 -30 16 -12 29 10 7 15 16 11 20 -6 7 -48 -13 -59 -29 -4 -5 -17 -2
-28 6 l-22 16 26 6 c23 6 24 8 11 21 -19 19 -30 19 -46 0 -7 -8 -21 -15 -32
-15 -17 0 -18 3 -8 15 9 10 9 15 1 15 -6 0 -11 7 -11 15 0 19 19 19 26 0 5
-13 10 -12 31 5 30 24 45 26 37 6 -5 -13 -2 -13 19 -3 18 8 23 15 16 23 -7 8
-6 15 2 19 6 4 15 1 20 -6 4 -7 11 -10 15 -6 4 3 -4 15 -17 26 -24 20 -24 20
-3 21 12 0 28 10 36 22 l15 22 30 -22 c26 -18 45 -22 110 -22 43 0 96 5 118
10 32 7 42 6 55 -8 26 -29 41 -73 47 -140 5 -48 3 -63 -5 -58 -7 4 -12 25 -12
47 0 21 -4 39 -10 39 -5 0 -10 12 -10 27 0 20 -3 24 -11 16 -9 -9 -8 -24 5
-62 9 -27 16 -73 16 -100 0 -28 4 -51 9 -51 5 0 12 -35 14 -77 9 -138 34 -367
46 -409 6 -23 18 -47 26 -54 8 -7 15 -19 15 -26 0 -17 12 -18 28 -2 9 9 12 8
12 -5 0 -10 7 -20 15 -23 8 -4 15 -14 16 -23 0 -10 2 -11 6 -3 7 17 54 15 80
-3 18 -13 34 -14 85 -6 62 8 62 9 16 10 -81 2 -69 31 13 31 64 0 120 47 133
111 2 8 6 25 10 39 4 14 2 73 -4 130 -19 169 -30 315 -36 478 -4 83 -10 152
-15 152 -5 0 -9 5 -9 10 0 6 19 10 43 10 23 0 57 4 75 9 19 6 32 6 32 0 0 -13
56 -5 75 11 11 9 19 10 26 3 8 -8 7 -13 0 -17 -16 -10 -13 -26 4 -26 9 0 18
-7 21 -15 4 -8 12 -15 20 -15 16 0 19 -16 4 -25 -5 -3 -10 -15 -10 -26 0 -10
5 -19 10 -19 6 0 10 7 10 15 0 8 7 15 15 15 17 0 20 -25 5 -35 -5 -3 -10 -14
-10 -23 0 -12 3 -13 12 -4 17 17 39 15 31 -3 -3 -10 12 -39 41 -75 25 -33 46
-65 46 -71 0 -6 9 -8 23 -4 16 5 18 4 8 -3 -9 -7 -11 -16 -6 -28 4 -11 9 -107
10 -214 1 -107 4 -210 7 -229 2 -18 13 -38 23 -43 27 -16 71 -61 78 -81 6 -17
17 -19 110 -16 92 3 102 2 99 -14 -4 -22 26 -23 35 -1 3 9 0 20 -8 25 -10 7
-5 9 16 7 24 -2 31 1 33 19 2 13 12 23 25 25 12 2 21 9 20 16 -2 6 6 21 17 32
13 13 20 34 21 63 0 23 4 130 8 239 5 161 9 200 23 215 9 10 18 27 20 38 2 13
10 19 22 17 16 -3 18 1 11 34 l-7 37 26 -16 c15 -10 27 -13 31 -7 3 6 2 10 -3
10 -5 0 -12 9 -15 19 -3 12 0 18 7 16 10 -4 81 95 98 136 9 23 25 32 33 19 8
-13 25 -13 25 0 0 6 -7 10 -16 10 -9 0 -14 7 -12 18 3 11 12 16 26 15 20 -3
21 0 12 17 -9 17 -6 24 17 45 15 13 31 25 36 25 4 0 7 6 7 13 0 7 9 18 21 25
16 10 20 20 16 41 -6 26 5 45 57 103 14 15 13 18 -5 23 -25 8 -25 25 2 25 11
0 17 5 14 10 -4 6 -10 8 -15 5 -17 -10 -51 16 -62 46 -10 30 -38 40 -38 14 0
-8 -4 -15 -10 -15 -5 0 -10 5 -10 10 0 6 -20 10 -45 10 -31 0 -50 6 -60 18
-14 16 -26 17 -107 10 -92 -7 -112 -17 -104 -49 2 -12 -2 -15 -15 -12 -11 3
-19 9 -19 14 0 5 -4 9 -10 9 -5 0 -10 -5 -10 -10 0 -6 -16 -35 -36 -65 -23
-34 -44 -55 -55 -55 -22 0 -24 -11 -7 -28 6 -6 9 -15 5 -19 -4 -4 -13 -1 -19
5 -19 19 -28 14 -28 -18 0 -16 5 -30 10 -30 6 0 10 -6 10 -13 0 -7 -16 -19
-36 -26 -32 -12 -38 -11 -52 6 -30 33 -52 72 -52 93 0 11 -8 24 -17 28 -10 4
-18 16 -18 27 0 13 -6 19 -16 17 -9 -1 -22 4 -28 12 -9 11 -8 17 4 29 20 20
19 33 -1 16 -13 -10 -17 -10 -24 1 -4 7 -17 11 -29 7 -18 -4 -19 -2 -10 14 5
10 17 19 25 19 8 0 12 5 9 10 -10 16 -47 12 -61 -7 -10 -15 -15 -16 -26 -5
-11 11 -10 14 2 22 25 15 7 18 -50 9 -34 -5 -58 -5 -64 1 -13 13 -46 13 -46 0z
m-765 -100 c3 -5 -3 -10 -14 -10 -12 0 -21 5 -21 10 0 6 6 10 14 10 8 0 18 -4
21 -10z m1049 -175 c58 -97 111 -191 118 -210 6 -19 17 -35 24 -35 6 0 23 24
37 53 14 28 68 122 119 207 l94 155 37 0 c20 -1 102 -2 182 -3 95 -1 145 -6
145 -13 0 -6 -8 -18 -17 -27 -32 -32 -150 -199 -301 -424 l-152 -227 1 -248 1
-248 -141 0 -140 0 -6 248 -6 247 -166 243 c-197 288 -250 364 -275 396 -31
41 -24 50 35 45 40 -4 215 5 294 15 6 0 59 -78 117 -174z m-514 77 c25 -37 64
-91 88 -120 24 -30 42 -55 40 -57 -2 -2 -70 -7 -153 -12 -126 -7 -149 -10
-146 -23 2 -8 18 -190 37 -405 18 -214 36 -417 40 -451 l6 -61 -113 -8 c-182
-13 -174 -14 -172 15 1 22 -18 275 -47 620 -6 69 -12 158 -14 198 -2 40 -6 75
-8 78 -3 2 -77 -3 -164 -11 -87 -9 -170 -17 -184 -18 -25 -2 -25 0 -31 88 -4
50 -9 106 -13 126 l-8 35 119 13 c112 11 486 46 583 54 100 8 92 11 140 -61z
m750 -41 c0 -12 -20 -25 -27 -18 -7 7 6 27 18 27 5 0 9 -4 9 -9z m-1774 -32
c23 -5 54 -13 69 -19 20 -8 25 -15 20 -28 -11 -28 -35 -165 -35 -198 0 -17 -3
-33 -6 -36 -3 -3 -18 1 -34 8 -30 16 -151 44 -187 44 -12 0 -46 -5 -75 -11
-95 -21 -139 -97 -85 -147 29 -28 84 -46 217 -72 139 -28 238 -70 296 -126 60
-59 86 -120 92 -214 3 -60 0 -86 -18 -134 -55 -146 -248 -246 -474 -246 -116
0 -314 43 -309 68 1 6 12 52 23 103 11 51 20 103 20 115 0 13 5 26 10 29 6 4
30 -3 54 -15 67 -32 181 -53 250 -45 111 12 166 49 166 113 0 35 -28 67 -72
81 -18 6 -95 24 -169 40 -152 33 -233 68 -291 126 -21 21 -48 59 -60 84 -18
37 -23 63 -22 131 0 68 5 95 23 132 62 129 180 203 361 228 59 9 170 4 236
-11z m1170 -176 c-10 -10 -19 5 -10 18 6 11 8 11 12 0 2 -7 1 -15 -2 -18z
m-2235 -80 c91 -45 169 -129 219 -235 21 -46 80 -222 130 -393 51 -170 99
-325 107 -343 13 -30 12 -33 -9 -41 -29 -12 -196 -53 -223 -55 -16 -1 -23 13
-43 89 -13 50 -26 96 -28 103 -5 17 -161 16 -249 -3 -114 -24 -191 -52 -186
-67 29 -90 63 -187 72 -205 13 -25 5 -43 -21 -43 -10 0 -60 -14 -110 -30 -50
-17 -100 -30 -111 -30 -12 0 -19 7 -19 21 0 19 -43 181 -61 226 -8 21 -12 22
-76 16 -123 -12 -113 -18 -149 72 -18 44 -39 93 -48 109 -8 16 -13 33 -11 36
3 4 50 9 105 12 55 3 103 8 107 11 3 4 1 12 -5 19 -17 22 -61 179 -74 266 -29
200 45 349 216 432 113 55 181 70 302 67 90 -2 107 -6 165 -34z m169 -24 c0
-4 -7 -6 -15 -3 -8 4 -15 10 -15 15 0 4 7 6 15 3 8 -4 15 -10 15 -15z m684
-40 c-3 -5 -10 -7 -15 -3 -5 3 -7 10 -3 15 3 5 10 7 15 3 5 -3 7 -10 3 -15z
m41 -20 c4 -5 17 -9 28 -8 12 0 31 1 42 0 17 -1 18 -3 5 -11 -23 -15 -53 -11
-80 10 -14 11 -20 20 -13 20 6 0 15 -5 18 -11z m-45 -15 c0 -8 -5 -12 -10 -9
-6 4 -8 11 -5 16 9 14 15 11 15 -7z m-1540 -34 c0 -5 -4 -10 -10 -10 -5 0 -10
5 -10 10 0 6 5 10 10 10 6 0 10 -4 10 -10z m-202 -100 c13 -36 32 -87 42 -115
18 -47 18 -50 2 -56 -167 -63 -300 -109 -309 -109 -17 0 -16 -20 3 -66 9 -22
36 -88 59 -149 144 -375 229 -593 241 -617 21 -40 17 -55 -13 -62 -38 -9 -186
-67 -197 -78 -18 -15 -46 -9 -46 10 0 10 -21 72 -46 138 -25 65 -65 169 -89
229 -142 368 -175 457 -175 473 0 14 -31 16 -45 3 -6 -5 -59 -27 -120 -51 -60
-23 -123 -48 -140 -56 -16 -7 -36 -14 -43 -16 -8 -2 -24 28 -43 81 -16 47 -36
96 -45 109 -8 13 -14 27 -12 33 4 11 410 175 708 286 36 14 97 37 135 53 39
16 79 28 90 27 14 -2 25 -19 43 -67z m2502 -40 c0 -11 -4 -20 -10 -20 -5 0
-10 9 -10 20 0 11 5 20 10 20 6 0 10 -9 10 -20z m-2370 -49 c0 -6 -4 -13 -10
-16 -5 -3 -10 1 -10 9 0 9 5 16 10 16 6 0 10 -4 10 -9z m1320 -101 c0 -5 -4
-10 -9 -10 -6 0 -13 5 -16 10 -3 6 1 10 9 10 9 0 16 -4 16 -10z m-180 -9 c0
-6 -4 -13 -10 -16 -5 -3 -10 1 -10 9 0 9 5 16 10 16 6 0 10 -4 10 -9z m540
-111 c0 -5 -11 -10 -25 -10 -14 0 -25 5 -25 10 0 6 11 10 25 10 14 0 25 -4 25
-10z m10 -30 c0 -5 -7 -10 -16 -10 -8 0 -12 5 -9 10 3 6 10 10 16 10 5 0 9 -4
9 -10z m1600 -16 c0 -14 -4 -23 -10 -19 -5 3 -10 15 -10 26 0 10 5 19 10 19 6
0 10 -12 10 -26z m-4360 -174 c0 -5 -4 -10 -10 -10 -5 0 -10 5 -10 10 0 6 5
10 10 10 6 0 10 -4 10 -10z m540 -451 c0 -11 -4 -17 -10 -14 -5 3 -10 13 -10
21 0 8 5 14 10 14 6 0 10 -9 10 -21z"/>
<path d="M3017 3625 c-57 -16 -119 -56 -135 -88 -24 -47 -31 -100 -22 -146 16
-72 63 -235 72 -247 6 -9 19 -7 46 6 66 32 154 51 270 57 61 3 112 7 112 8 0
11 -91 278 -103 300 -19 37 -63 82 -97 100 -41 21 -91 25 -143 10z m-17 -110
c0 -20 16 -19 24 1 5 13 16 15 54 11 39 -4 53 -12 79 -43 18 -20 33 -43 33
-50 0 -7 6 -14 13 -17 9 -3 9 -7 -1 -20 -11 -13 -10 -17 5 -25 15 -9 16 -13 4
-36 -10 -18 -25 -27 -50 -31 -20 -4 -54 -13 -76 -21 -64 -22 -75 -19 -75 21 0
24 -5 35 -15 35 -18 0 -19 -5 -3 -30 16 -26 2 -39 -17 -14 -19 25 -19 64 0 90
15 22 11 34 -12 34 -7 0 -13 -7 -13 -15 0 -8 -4 -15 -10 -15 -16 0 -12 10 15
42 14 16 25 34 25 39 0 15 -18 10 -29 -8 -7 -12 -10 -13 -11 -5 0 18 38 72 51
72 5 0 9 -7 9 -15z m230 -204 c0 -5 -7 -14 -15 -21 -12 -10 -15 -10 -15 2 0 8
3 18 7 21 9 10 23 9 23 -2z"/>
<path d="M3000 3435 c0 -8 5 -15 10 -15 6 0 10 7 10 15 0 8 -4 15 -10 15 -5 0
-10 -7 -10 -15z"/>
<path d="M2875 3080 c4 -6 11 -8 16 -5 14 9 11 15 -7 15 -8 0 -12 -5 -9 -10z"/>
<path d="M2820 2891 c0 -25 6 -27 13 -6 4 8 2 17 -3 20 -6 4 -10 -3 -10 -14z"/>
<path d="M2018 3438 c9 -9 15 -9 24 0 9 9 7 12 -12 12 -19 0 -21 -3 -12 -12z"/>
<path d="M2060 3045 c0 -8 5 -15 10 -15 6 0 10 7 10 15 0 8 -4 15 -10 15 -5 0
-10 -7 -10 -15z"/>
<path d="M2243 4363 c9 -2 23 -2 30 0 6 3 -1 5 -18 5 -16 0 -22 -2 -12 -5z"/>
<path d="M5164 4349 c-3 -5 21 -9 52 -9 32 0 55 2 53 4 -10 8 -100 13 -105 5z"/>
<path d="M5400 4350 c0 -5 5 -10 10 -10 6 0 10 5 10 10 0 6 -4 10 -10 10 -5 0
-10 -4 -10 -10z"/>
<path d="M6230 4350 c0 -5 7 -10 15 -10 8 0 15 5 15 10 0 6 -7 10 -15 10 -8 0
-15 -4 -15 -10z"/>
<path d="M7130 4350 c0 -5 5 -10 10 -10 6 0 10 5 10 10 0 6 -4 10 -10 10 -5 0
-10 -4 -10 -10z"/>
<path d="M5040 4340 c0 -6 11 -8 28 -4 39 10 40 14 4 14 -18 0 -32 -5 -32 -10z"/>
<path d="M5900 4335 c0 -8 5 -15 10 -15 6 0 10 7 10 15 0 8 -4 15 -10 15 -5 0
-10 -7 -10 -15z"/>
<path d="M7077 4333 c-3 -5 -3 -23 -1 -40 3 -29 1 -33 -19 -33 -28 -1 -77 -43
-77 -68 0 -10 -4 -22 -10 -28 -5 -5 -12 -72 -16 -149 -3 -83 -11 -148 -18
-160 -16 -25 -29 -117 -31 -218 -1 -42 -5 -80 -8 -84 -4 -3 -7 -19 -7 -34 0
-15 -5 -31 -10 -34 -6 -4 -10 -25 -9 -48 1 -23 -3 -67 -9 -97 -38 -196 -42
-285 -13 -321 10 -13 23 -37 29 -54 9 -25 11 -26 11 -8 1 32 16 36 30 7 6 -14
11 -27 11 -29 0 -3 -8 -5 -17 -5 -13 0 -14 -3 -6 -11 9 -9 18 -8 35 2 24 15
68 14 68 -2 0 -5 25 -9 56 -9 30 0 110 -7 177 -16 85 -11 146 -14 202 -9 44 5
95 8 113 8 17 0 32 4 32 9 0 4 -4 8 -10 8 -5 0 -10 5 -10 11 0 7 21 10 59 7
55 -3 58 -2 49 15 -5 10 -8 20 -6 21 2 1 23 9 48 16 25 8 51 22 58 32 7 10 24
18 38 18 15 0 24 6 24 15 0 8 -5 15 -11 15 -5 0 -7 5 -4 10 11 18 25 10 25
-14 0 -13 -9 -35 -20 -49 -17 -21 -18 -26 -5 -31 9 -3 15 -19 15 -41 0 -22 6
-38 15 -41 8 -4 12 -10 9 -15 -3 -5 -10 -7 -15 -4 -5 4 -9 2 -9 -3 0 -6 8 -13
18 -17 16 -6 16 -7 -2 -21 -17 -12 -18 -14 -3 -14 9 0 17 5 17 10 0 18 22 10
27 -10 3 -11 10 -20 15 -20 5 0 7 4 3 9 -3 5 -1 12 5 16 5 3 10 0 10 -7 0 -18
43 -45 48 -30 4 13 34 4 45 -14 4 -7 37 -16 73 -20 56 -5 68 -4 76 10 11 19
64 22 71 4 4 -9 6 -8 6 2 1 9 -7 26 -16 39 -16 23 -15 24 3 19 10 -3 27 -9 37
-13 10 -4 17 -3 17 4 0 7 -7 14 -15 17 -11 5 -12 10 -4 26 6 11 17 17 25 14
18 -7 18 -1 -2 29 -9 13 -14 32 -11 42 3 15 6 14 15 -7 l11 -25 1 25 c6 86 9
118 18 154 6 23 16 68 22 101 6 33 20 95 31 138 10 43 16 89 13 103 -7 28 10
33 26 7 10 -15 10 -14 5 7 -3 14 -10 40 -15 59 -6 25 -5 40 7 57 8 13 20 24
25 24 6 0 7 16 3 41 -7 39 -6 40 14 27 12 -7 21 -16 21 -20 0 -5 12 -8 28 -8
l27 0 -34 -22 c-20 -13 -29 -24 -21 -26 7 -3 15 0 19 6 3 6 31 14 61 18 38 4
52 3 45 -4 -5 -5 -19 -12 -30 -15 -11 -3 -1 -5 23 -6 46 -1 80 -15 98 -40 10
-13 14 -13 29 -1 15 13 14 8 -4 -27 -11 -23 -21 -52 -21 -64 0 -13 -4 -36 -9
-53 -5 -17 -15 -50 -21 -73 -6 -23 -18 -49 -26 -58 -12 -11 -13 -19 -5 -29 8
-9 6 -23 -8 -52 -10 -21 -27 -73 -36 -114 -10 -41 -21 -79 -25 -85 -13 -19
-21 -65 -10 -65 5 0 10 -7 10 -15 0 -20 -26 -19 -34 1 -3 8 -10 13 -15 9 -6
-3 -2 -24 9 -50 11 -25 16 -46 12 -46 -4 -1 -15 -1 -24 0 -13 2 -18 -5 -18
-23 0 -13 5 -26 12 -28 6 -2 11 -18 11 -36 0 -22 6 -34 18 -37 11 -4 16 -12
12 -21 -3 -9 2 -14 17 -14 12 0 42 -14 68 -32 25 -17 64 -35 87 -39 22 -4 57
-11 78 -15 43 -8 81 7 110 44 10 12 26 22 35 22 15 1 15 2 -1 11 -18 11 -18
12 1 29 31 29 86 200 76 236 -3 12 -1 25 5 28 6 4 11 16 11 27 0 24 26 25 39
2 19 -33 12 7 -9 50 -12 25 -16 43 -10 45 5 2 10 12 10 23 0 11 7 22 16 26 11
4 14 14 10 34 -3 17 -1 31 7 36 7 4 19 33 26 63 19 81 33 123 48 141 7 8 13
21 13 27 0 16 16 15 34 -3 8 -8 21 -12 29 -9 8 3 30 -4 49 -14 47 -27 118 -38
129 -21 4 7 11 11 14 7 4 -3 1 -15 -6 -26 -10 -16 -10 -23 0 -36 14 -16 6 -40
-10 -31 -5 4 -9 -1 -9 -9 0 -9 -4 -16 -10 -16 -5 0 -10 -11 -10 -24 0 -14 -4
-28 -10 -31 -5 -3 -10 -15 -10 -26 0 -10 -3 -19 -8 -19 -4 0 -13 -23 -20 -52
-6 -28 -16 -54 -20 -57 -10 -7 -42 -75 -42 -89 0 -6 6 -12 13 -15 10 -4 10 -7
0 -18 -7 -7 -13 -21 -13 -31 0 -10 -7 -18 -15 -18 -8 0 -15 -9 -15 -20 0 -11
-4 -20 -10 -20 -5 0 -10 -11 -10 -24 0 -14 -5 -28 -11 -32 -6 -3 -9 -18 -6
-32 3 -14 2 -33 -3 -41 -33 -70 -41 -90 -46 -119 -4 -19 -17 -40 -31 -49 l-24
-16 32 -31 c21 -20 34 -27 36 -18 6 17 33 15 33 -3 0 -8 5 -15 10 -15 6 0 10
-7 10 -16 0 -12 3 -14 13 -6 10 8 16 6 25 -9 7 -10 20 -19 31 -19 10 0 33 -7
51 -16 18 -10 47 -18 64 -19 17 -1 38 -4 46 -7 8 -4 27 -9 43 -12 36 -8 35
-26 -3 -26 -16 0 -30 -5 -30 -11 0 -7 14 -8 40 -4 30 5 47 2 66 -10 20 -13 28
-14 40 -4 12 10 16 8 21 -10 3 -12 12 -21 22 -20 18 2 38 -4 97 -32 23 -10 48
-19 56 -19 8 0 23 -7 34 -15 10 -8 32 -15 47 -15 15 0 30 -7 33 -15 8 -20 30
-19 38 0 4 10 -2 19 -17 25 -21 8 -21 9 6 9 15 1 27 -3 27 -9 0 -5 7 -10 15
-10 18 0 19 5 3 30 -17 26 -2 37 21 16 13 -12 21 -14 26 -6 4 6 2 17 -5 25 -8
10 -6 19 13 37 24 24 67 142 67 183 0 13 -7 28 -15 35 -8 7 -15 19 -15 27 0
10 -7 13 -22 9 -13 -3 -17 -3 -10 0 15 7 16 44 2 44 -6 0 -13 -7 -16 -15 -9
-23 -26 -18 -19 5 4 11 2 20 -4 20 -6 0 -11 3 -11 8 0 4 23 6 52 5 58 -1 97
19 98 52 0 11 4 26 9 34 7 11 11 10 20 -5 10 -19 10 -19 11 0 0 10 8 25 17 32
10 7 14 16 9 21 -5 4 -11 2 -13 -4 -6 -18 -23 -16 -23 2 0 8 5 15 10 15 6 0
10 8 10 18 0 11 9 29 20 42 13 15 20 37 20 66 0 33 -6 49 -27 72 -16 16 -36
32 -46 35 -20 8 -14 27 9 27 8 0 14 5 14 10 0 6 -8 10 -19 10 -25 0 -42 22
-31 40 7 12 12 12 22 2 6 -6 20 -12 29 -12 9 0 22 -7 29 -15 14 -16 65 -20 75
-6 3 5 19 12 36 16 24 5 29 11 24 26 -4 13 -2 19 8 19 10 0 13 -7 10 -20 -6
-23 12 -28 21 -5 7 20 38 7 31 -14 -3 -11 8 -23 40 -40 38 -20 55 -23 104 -18
41 3 65 11 80 26 11 11 18 27 15 36 -4 8 -1 15 5 15 6 0 11 -4 11 -10 0 -5 5
-10 11 -10 6 0 9 9 6 19 -3 12 0 18 7 15 7 -3 17 14 24 41 7 25 12 54 12 64 0
11 -10 39 -21 63 -12 23 -25 49 -28 57 -10 20 -36 28 -29 10 4 -9 -2 -14 -18
-15 -20 -2 -21 0 -9 13 8 8 15 22 15 31 0 12 -3 13 -12 4 -16 -16 -31 -15 -25
2 9 24 -4 25 -26 3 l-21 -21 -9 22 c-11 25 -37 30 -37 7 0 -8 -5 -15 -10 -15
-6 0 -13 7 -16 15 -4 8 -15 15 -25 15 -10 0 -36 16 -58 35 -23 21 -49 35 -65
35 -14 0 -26 4 -26 9 0 5 -12 12 -27 16 -16 4 -22 10 -15 12 21 8 13 23 -12
23 -14 0 -28 5 -31 10 -4 6 -12 10 -18 9 -12 -2 -31 4 -82 27 -17 7 -51 17
-75 23 -26 6 -51 19 -59 30 -16 25 -31 27 -31 6 0 -8 -4 -15 -9 -15 -5 0 -29
18 -52 40 -24 22 -47 40 -52 40 -6 0 -15 -7 -21 -16 -7 -9 -18 -12 -29 -8 -24
9 -21 24 5 24 17 0 19 3 10 12 -9 9 -15 9 -24 0 -7 -7 -32 -12 -56 -12 -37 0
-43 3 -38 18 4 13 0 17 -21 19 -15 0 -39 -7 -53 -16 -19 -13 -30 -15 -47 -7
-13 6 -23 15 -23 21 0 17 -110 85 -137 85 -13 0 -41 6 -63 12 -26 8 -38 18
-35 26 7 18 -22 27 -40 12 -12 -10 -18 -10 -31 1 -13 10 -17 10 -25 -2 -8 -10
-9 -8 -4 9 5 18 2 22 -17 22 -27 1 -276 65 -285 74 -3 3 0 12 7 21 10 12 10
15 -2 15 -8 0 -18 -4 -24 -9 -14 -13 -88 -20 -107 -10 -9 6 -18 5 -22 0 -7
-12 -55 7 -55 21 0 4 11 8 25 8 14 0 25 4 25 8 0 10 -76 10 -86 0 -12 -12 -42
-9 -47 5 -3 9 -7 9 -19 -1 -10 -8 -19 -9 -22 -3 -3 5 0 12 6 14 7 3 3 6 -9 6
-31 1 -75 -17 -68 -29 3 -6 -1 -7 -10 -4 -11 5 -18 0 -22 -15 -7 -26 -23 -18
-24 12 0 12 -3 16 -6 10 -7 -19 -23 -16 -23 5 0 21 -50 72 -70 72 -7 0 -34 10
-58 22 -38 18 -47 19 -56 7 -8 -11 -24 -13 -61 -8 -39 5 -57 2 -81 -12 -46
-28 -84 -90 -85 -141 l-1 -43 -12 35 c-12 33 -13 31 -19 -61 -4 -53 -4 -104
-1 -113 3 -9 1 -16 -5 -16 -6 0 -11 9 -11 20 0 11 -4 20 -10 20 -5 0 -9 -20
-8 -45 1 -24 5 -39 9 -34 4 6 9 7 12 3 3 -5 -1 -14 -8 -21 -11 -10 -14 -10
-18 0 -2 7 -8 9 -12 5 -4 -4 -2 -21 5 -38 15 -36 6 -52 -15 -24 -14 19 -14 18
-15 -2 0 -12 7 -24 15 -28 8 -3 15 -14 15 -24 0 -10 6 -24 13 -31 10 -11 9
-13 -6 -7 -10 3 -22 6 -27 6 -4 0 -10 9 -13 21 -3 12 -10 18 -16 14 -17 -10
-13 -34 9 -47 11 -7 20 -17 20 -23 0 -28 -22 -85 -33 -85 -7 0 -22 15 -33 33
-25 38 -40 97 -26 97 13 0 62 76 62 95 0 8 9 24 19 34 12 12 19 33 19 58 0 21
4 58 10 82 10 45 7 71 -8 71 -5 0 -10 -8 -13 -17 -2 -10 -2 5 1 32 2 28 8 54
13 59 5 6 9 19 9 29 0 16 -3 17 -15 7 -8 -7 -15 -21 -15 -31 0 -10 -4 -20 -9
-23 -9 -6 -21 16 -21 39 0 19 -62 80 -77 77 -16 -4 -17 20 -1 36 6 6 8 15 4
19 -4 4 -12 0 -17 -10 -12 -21 -29 -22 -29 -2 0 9 -6 12 -15 9 -12 -5 -14 0
-8 26 4 24 3 31 -5 26 -7 -4 -12 -15 -12 -24 0 -13 -5 -12 -21 8 -14 17 -22
21 -26 13 -7 -19 -34 -16 -31 3 5 25 -77 47 -300 80 -62 9 -126 14 -141 11
-15 -3 -33 -1 -39 5 -9 9 -17 7 -33 -8 -22 -19 -22 -19 -16 5 5 20 3 23 -19
18 -15 -3 -24 0 -24 9 0 15 -17 27 -23 17z m187 -143 c247 -30 306 -40 374
-65 34 -13 80 -35 101 -49 92 -64 137 -160 129 -274 -7 -99 -63 -195 -128
-222 -16 -7 -30 -18 -30 -24 0 -7 14 -22 30 -35 41 -30 78 -91 91 -151 20 -96
-21 -211 -101 -282 -79 -71 -186 -108 -313 -108 -43 0 -153 9 -245 20 -92 11
-187 21 -212 22 -38 3 -45 6 -44 23 1 11 18 142 38 290 59 437 84 633 97 750
6 61 13 116 15 124 2 7 11 10 20 7 9 -4 89 -15 178 -26z m1051 -90 c-3 -5 -12
-7 -20 -3 -21 7 -19 13 6 13 11 0 18 -4 14 -10z m-10 -77 c61 -12 112 -23 114
-23 5 0 -2 -36 -44 -230 -19 -91 -46 -219 -60 -285 -13 -66 -43 -208 -65 -315
-23 -107 -47 -226 -54 -265 -10 -60 -15 -70 -31 -68 -11 1 -72 13 -135 26 -98
21 -115 27 -114 43 1 18 106 525 159 769 13 61 34 162 45 225 27 144 35 164
58 154 9 -4 67 -18 127 -31z m500 -119 c267 -68 340 -89 558 -154 97 -30 177
-58 177 -63 0 -6 -11 -33 -24 -61 -13 -28 -34 -81 -46 -118 -13 -38 -27 -65
-34 -63 -6 2 -77 25 -158 50 -82 26 -154 45 -162 42 -7 -3 -17 -23 -21 -44 -3
-21 -28 -114 -55 -208 -137 -486 -160 -572 -160 -591 0 -12 -6 -27 -14 -33
-10 -8 -22 -7 -48 4 -20 8 -75 24 -124 36 -49 12 -92 27 -96 33 -4 6 -3 15 1
21 4 5 26 75 49 155 22 80 73 259 112 399 40 140 76 264 80 277 6 15 5 26 -3
32 -11 9 -89 31 -282 80 -33 8 -62 16 -64 18 -3 3 42 172 65 243 3 8 11 10 22
6 9 -4 112 -31 227 -61z m108 59 c-7 -2 -19 -2 -25 0 -7 3 -2 5 12 5 14 0 19
-2 13 -5z m47 -13 c0 -5 -7 -10 -15 -10 -8 0 -15 5 -15 10 0 6 7 10 15 10 8 0
15 -4 15 -10z m990 -404 c96 -36 231 -88 300 -116 69 -27 133 -50 142 -50 10
0 18 -5 18 -10 0 -6 -17 -52 -38 -103 -21 -50 -42 -104 -46 -119 -3 -16 -10
-28 -15 -28 -4 0 -115 43 -246 95 -130 52 -241 92 -246 89 -5 -3 -9 -13 -9
-22 0 -9 -16 -55 -35 -102 -37 -91 -35 -104 13 -113 26 -4 389 -140 397 -149
2 -2 -13 -46 -35 -96 -22 -51 -40 -98 -40 -106 0 -7 -6 -18 -13 -24 -9 -8 -20
-7 -39 3 -15 7 -94 39 -175 70 -81 31 -166 66 -188 76 -38 18 -41 19 -52 2 -7
-9 -13 -24 -13 -34 0 -9 -13 -42 -29 -73 l-29 -57 32 -14 c71 -32 420 -165
432 -165 24 0 24 -17 0 -66 -13 -27 -33 -77 -46 -111 -24 -67 -21 -66 -96 -33
-113 51 -337 136 -524 201 -63 22 -121 42 -128 44 -10 4 -8 14 7 42 16 33 69
169 223 573 22 58 48 126 58 151 31 76 112 292 121 326 l10 32 57 -24 c31 -13
136 -53 232 -89z m536 -193 c-10 -10 -19 5 -10 18 6 11 8 11 12 0 2 -7 1 -15
-2 -18z m117 -48 c47 -19 77 -63 77 -112 0 -30 -7 -46 -31 -71 -27 -27 -39
-32 -79 -32 -44 0 -51 4 -84 42 -21 24 -36 52 -36 67 0 38 35 89 72 105 18 8
36 15 39 15 4 1 22 -6 42 -14z m-733 -130 c0 -8 -4 -15 -10 -15 -5 0 -7 7 -4
15 4 8 8 15 10 15 2 0 4 -7 4 -15z m78 -12 c2 -8 -5 -13 -17 -13 -12 0 -21 -4
-21 -10 0 -13 23 -13 37 1 6 6 26 9 44 6 l34 -3 -32 -8 c-47 -12 -32 -24 22
-19 35 4 46 1 51 -11 3 -9 17 -16 31 -16 18 0 24 -4 19 -15 -3 -9 0 -15 9 -15
8 0 15 -4 15 -10 0 -5 7 -10 15 -10 8 0 15 -4 15 -10 0 -5 -9 -10 -20 -10 -11
0 -20 5 -20 10 0 6 -9 10 -19 10 -11 0 -27 9 -35 21 -8 12 -19 18 -24 15 -6
-3 -12 -2 -14 4 -1 5 -25 14 -53 19 -27 5 -62 16 -77 24 -26 13 -26 15 -12 36
17 23 44 25 52 4z m-188 -443 c0 -5 -4 -10 -9 -10 -6 0 -13 5 -16 10 -3 6 1
10 9 10 9 0 16 -4 16 -10z m90 -36 c0 -17 -22 -14 -28 4 -2 7 3 12 12 12 9 0
16 -7 16 -16z m40 -34 c0 -5 -4 -10 -10 -10 -5 0 -10 5 -10 10 0 6 5 10 10 10
6 0 10 -4 10 -10z m94 -19 c7 -11 -22 -23 -35 -15 -5 3 -7 10 -4 15 8 12 32
12 39 0z m-795 -100 c9 -6 10 -10 2 -16 -16 -9 -44 2 -36 15 8 12 16 12 34 1z"/>
<path d="M7293 3828 c-7 -51 -13 -102 -15 -113 -3 -19 3 -20 107 -23 96 -2
114 0 143 18 18 11 40 37 48 56 31 75 -17 124 -141 143 -42 6 -88 11 -103 11
-28 0 -28 -1 -39 -92z"/>
<path d="M7252 3476 c-5 -6 -10 -31 -11 -55 -2 -37 -11 -97 -23 -151 -2 -11
15 -16 67 -23 39 -4 100 -7 138 -5 56 3 71 8 92 29 14 14 28 42 32 62 5 32 1
41 -29 71 -36 36 -96 58 -201 74 -39 6 -60 6 -65 -2z m133 -96 c3 -5 16 -10
28 -10 l21 0 -22 -16 c-13 -9 -24 -14 -25 -13 -1 2 -8 14 -15 27 -12 21 0 33
13 12z"/>
<path d="M8930 3660 c-9 -16 -8 -18 5 -14 8 4 15 12 15 20 0 20 -7 17 -20 -6z"/>
<path d="M10511 3244 c-25 -32 -26 -52 -5 -82 16 -23 62 -47 72 -38 2 3 -3 17
-12 31 -14 21 -20 24 -32 14 -11 -9 -14 -8 -14 4 0 24 20 71 33 79 17 11 21
10 46 -13 21 -19 21 -22 7 -45 -9 -13 -16 -30 -16 -39 0 -21 27 -19 40 4 14
28 12 63 -6 89 -11 16 -25 22 -54 22 -30 0 -43 -6 -59 -26z"/>
<path d="M10560 3220 c0 -5 5 -10 10 -10 6 0 10 5 10 10 0 6 -4 10 -10 10 -5
0 -10 -4 -10 -10z"/>
<path d="M7175 4330 c-3 -5 1 -10 9 -10 9 0 16 5 16 10 0 6 -4 10 -9 10 -6 0
-13 -4 -16 -10z"/>
<path d="M6671 4311 c-10 -7 -10 -10 -1 -16 6 -4 16 -3 22 3 13 13 -4 23 -21
13z"/>
<path d="M7035 4289 c-10 -15 3 -25 16 -12 7 7 7 13 1 17 -6 3 -14 1 -17 -5z"/>
<path d="M1900 4240 c0 -5 5 -10 10 -10 6 0 10 5 10 10 0 6 -4 10 -10 10 -5 0
-10 -4 -10 -10z"/>
<path d="M10076 4231 c-4 -5 -2 -12 3 -15 5 -4 12 -2 15 3 4 5 2 12 -3 15 -5
4 -12 2 -15 -3z"/>
<path d="M3890 4190 c0 -5 9 -10 20 -10 11 0 20 5 20 10 0 6 -9 10 -20 10 -11
0 -20 -4 -20 -10z"/>
<path d="M7800 4181 c0 -25 6 -27 13 -6 4 8 2 17 -3 20 -6 4 -10 -3 -10 -14z"/>
<path d="M6696 4155 c4 -8 8 -15 10 -15 2 0 4 7 4 15 0 8 -4 15 -10 15 -5 0
-7 -7 -4 -15z"/>
<path d="M8191 4151 c-19 -13 -1 -19 38 -14 23 4 29 8 20 14 -18 11 -40 11
-58 0z"/>
<path d="M1405 4080 c3 -5 13 -10 21 -10 8 0 14 5 14 10 0 6 -9 10 -21 10 -11
0 -17 -4 -14 -10z"/>
<path d="M8020 4060 c0 -11 7 -20 15 -20 17 0 18 2 9 24 -9 23 -24 20 -24 -4z"/>
<path d="M6650 4060 c0 -5 5 -10 10 -10 6 0 10 5 10 10 0 6 -4 10 -10 10 -5 0
-10 -4 -10 -10z"/>
<path d="M10607 4063 c-12 -11 -8 -23 8 -23 8 0 15 7 15 15 0 16 -12 20 -23 8z"/>
<path d="M1358 4038 c9 -9 15 -9 24 0 9 9 7 12 -12 12 -19 0 -21 -3 -12 -12z"/>
<path d="M8840 4021 c0 -4 11 -6 25 -3 14 2 25 6 25 8 0 2 -11 4 -25 4 -14 0
-25 -4 -25 -9z"/>
<path d="M6921 3913 c-1 -18 4 -33 9 -33 12 0 12 17 0 45 -7 17 -9 15 -9 -12z"/>
<path d="M990 3880 c0 -5 4 -10 9 -10 6 0 13 5 16 10 3 6 -1 10 -9 10 -9 0
-16 -4 -16 -10z"/>
<path d="M3480 3850 c0 -5 5 -10 10 -10 6 0 10 5 10 10 0 6 -4 10 -10 10 -5 0
-10 -4 -10 -10z"/>
<path d="M9410 3850 c0 -5 7 -10 15 -10 8 0 15 5 15 10 0 6 -7 10 -15 10 -8 0
-15 -4 -15 -10z"/>
<path d="M9458 3843 c6 -2 18 -2 25 0 6 3 1 5 -13 5 -14 0 -19 -2 -12 -5z"/>
<path d="M2550 3830 c0 -5 5 -10 10 -10 6 0 10 5 10 10 0 6 -4 10 -10 10 -5 0
-10 -4 -10 -10z"/>
<path d="M9540 3820 c0 -6 8 -14 18 -17 9 -4 20 -11 24 -17 5 -8 8 -8 8 0 0 7
-11 19 -25 28 -14 9 -25 12 -25 6z"/>
<path d="M756 3791 c-4 -7 -5 -15 -2 -18 9 -9 19 4 14 18 -4 11 -6 11 -12 0z"/>
<path d="M2567 3793 c-13 -12 -7 -33 8 -33 8 0 15 9 15 20 0 20 -11 26 -23 13z"/>
<path d="M690 3755 c0 -8 9 -15 20 -15 13 0 18 5 14 15 -4 8 -12 15 -20 15 -8
0 -14 -7 -14 -15z"/>
<path d="M430 3622 c0 -8 37 -42 46 -42 3 0 -3 11 -13 25 -18 24 -33 32 -33
17z"/>
<path d="M6357 3613 c-3 -5 -2 -15 2 -22 7 -10 10 -10 16 -1 4 6 3 16 -3 22
-5 5 -12 6 -15 1z"/>
<path d="M6316 3574 c-8 -22 1 -31 16 -16 9 9 9 15 1 23 -7 7 -12 5 -17 -7z"/>
<path d="M8430 3540 c0 -5 5 -10 10 -10 6 0 10 5 10 10 0 6 -4 10 -10 10 -5 0
-10 -4 -10 -10z"/>
<path d="M1606 3515 c-20 -15 -20 -15 0 -15 11 0 29 7 40 15 19 14 19 14 -1
14 -11 0 -29 -6 -39 -14z"/>
<path d="M10356 3515 c-6 -16 3 -19 28 -9 22 8 20 24 -3 24 -10 0 -21 -7 -25
-15z"/>
<path d="M8460 3500 c0 -19 3 -21 12 -12 9 9 9 15 0 24 -9 9 -12 7 -12 -12z"/>
<path d="M8636 3461 c-4 -5 3 -25 14 -43 19 -32 20 -32 20 -8 -1 29 -25 66
-34 51z"/>
<path d="M8455 3400 c4 -6 11 -8 16 -5 14 9 11 15 -7 15 -8 0 -12 -5 -9 -10z"/>
<path d="M10680 3390 c0 -5 9 -10 21 -10 11 0 17 5 14 10 -3 6 -13 10 -21 10
-8 0 -14 -4 -14 -10z"/>
<path d="M1316 3381 c-4 -7 -5 -15 -2 -18 9 -9 19 4 14 18 -4 11 -6 11 -12 0z"/>
<path d="M8635 3331 c-3 -5 -1 -12 5 -16 5 -3 10 1 10 9 0 18 -6 21 -15 7z"/>
<path d="M11354 3319 c-3 -6 -1 -16 5 -22 8 -8 11 -5 11 11 0 24 -5 28 -16 11z"/>
<path d="M1305 3310 c-3 -5 1 -10 9 -10 9 0 16 5 16 10 0 6 -4 10 -9 10 -6 0
-13 -4 -16 -10z"/>
<path d="M2375 3270 c-3 -5 1 -10 10 -10 9 0 13 5 10 10 -3 6 -8 10 -10 10 -2
0 -7 -4 -10 -10z"/>
<path d="M9100 3097 c0 -10 -7 -20 -15 -23 -16 -7 -21 -34 -6 -34 5 0 16 12
26 26 12 19 14 29 6 37 -8 8 -11 6 -11 -6z"/>
<path d="M1750 3065 c0 -8 5 -15 10 -15 6 0 10 7 10 15 0 8 -4 15 -10 15 -5 0
-10 -7 -10 -15z"/>
<path d="M5380 3051 c0 -37 16 -49 24 -18 9 35 7 47 -9 47 -10 0 -15 -10 -15
-29z"/>
<path d="M9275 3047 c-4 -10 -5 -21 -1 -24 10 -10 18 4 13 24 -4 17 -4 17 -12
0z"/>
<path d="M5775 3030 c-4 -6 6 -10 22 -10 22 0 25 2 13 10 -19 12 -27 12 -35 0z"/>
<path d="M6215 3010 c-3 -5 1 -10 10 -10 9 0 13 5 10 10 -3 6 -8 10 -10 10 -2
0 -7 -4 -10 -10z"/>
<path d="M5820 3006 c0 -2 7 -6 15 -10 8 -3 15 -1 15 4 0 6 -7 10 -15 10 -8 0
-15 -2 -15 -4z"/>
<path d="M1780 2955 c0 -8 7 -15 16 -15 14 0 14 3 4 15 -7 8 -14 15 -16 15 -2
0 -4 -7 -4 -15z"/>
<path d="M5800 2960 c0 -5 9 -10 21 -10 11 0 17 5 14 10 -3 6 -13 10 -21 10
-8 0 -14 -4 -14 -10z"/>
<path d="M4977 2934 c-8 -8 1 -24 14 -24 5 0 9 7 9 15 0 15 -12 20 -23 9z"/>
<path d="M5416 2931 c-4 -5 -2 -12 3 -15 5 -4 12 -2 15 3 4 5 2 12 -3 15 -5 4
-12 2 -15 -3z"/>
<path d="M4620 2920 c0 -5 5 -10 10 -10 6 0 10 5 10 10 0 6 -4 10 -10 10 -5 0
-10 -4 -10 -10z"/>
<path d="M5755 2920 c4 -6 11 -8 16 -5 14 9 11 15 -7 15 -8 0 -12 -5 -9 -10z"/>
<path d="M6150 2920 c0 -5 7 -10 15 -10 8 0 15 5 15 10 0 6 -7 10 -15 10 -8 0
-15 -4 -15 -10z"/>
<path d="M7758 2923 c12 -2 30 -2 40 0 9 3 -1 5 -23 4 -22 0 -30 -2 -17 -4z"/>
<path d="M755 2880 c3 -5 10 -10 16 -10 5 0 9 5 9 10 0 6 -7 10 -16 10 -8 0
-12 -4 -9 -10z"/>
<path d="M3155 2807 c-4 -11 -3 -23 3 -29 8 -8 8 -15 1 -24 -7 -8 -7 -14 1
-19 5 -3 10 1 10 9 0 9 5 16 11 16 8 0 8 4 1 13 -5 6 -12 21 -14 32 -5 19 -5
19 -13 2z"/>
<path d="M2437 2774 c-9 -10 2 -24 19 -24 8 0 14 7 14 15 0 15 -21 21 -33 9z"/>
<path d="M3795 2771 c-3 -5 -1 -12 5 -16 5 -3 10 1 10 9 0 18 -6 21 -15 7z"/>
<path d="M7935 2760 c4 -6 11 -8 16 -5 14 9 11 15 -7 15 -8 0 -12 -5 -9 -10z"/>
<path d="M8295 2760 c4 -6 11 -8 16 -5 14 9 11 15 -7 15 -8 0 -12 -5 -9 -10z"/>
<path d="M9174 2736 c-8 -21 3 -49 16 -41 5 3 10 15 10 25 0 25 -18 36 -26 16z"/>
<path d="M9110 2705 c0 -8 5 -15 10 -15 6 0 10 7 10 15 0 8 -4 15 -10 15 -5 0
-10 -7 -10 -15z"/>
<path d="M8563 2619 c14 -8 22 -8 30 0 8 8 3 11 -18 11 -26 -1 -28 -2 -12 -11z"/>
<path d="M8935 2600 c3 -5 10 -10 16 -10 5 0 9 5 9 10 0 6 -7 10 -16 10 -8 0
-12 -4 -9 -10z"/>
<path d="M2788 2463 c6 -2 12 -11 12 -19 0 -14 12 -19 23 -8 8 9 -18 34 -35
33 -10 0 -10 -2 0 -6z"/>
<path d="M2860 2460 c0 -5 5 -10 10 -10 6 0 10 5 10 10 0 6 -4 10 -10 10 -5 0
-10 -4 -10 -10z"/>
<path d="M10870 2430 c0 -5 5 -10 10 -10 6 0 10 5 10 10 0 6 -4 10 -10 10 -5
0 -10 -4 -10 -10z"/>
<path d="M9432 2348 c5 -15 28 -18 29 -3 0 6 -7 12 -17 13 -10 3 -15 -1 -12
-10z"/>
<path d="M1100 2265 c0 -8 5 -15 10 -15 6 0 10 7 10 15 0 8 -4 15 -10 15 -5 0
-10 -7 -10 -15z"/>
<path d="M7520 2270 c0 -5 5 -10 10 -10 6 0 10 5 10 10 0 6 -4 10 -10 10 -5 0
-10 -4 -10 -10z"/>
<path d="M9990 2141 c0 -17 18 -21 24 -6 3 9 0 15 -9 15 -8 0 -15 -4 -15 -9z"/>
<path d="M8420 2110 c0 -5 5 -10 10 -10 6 0 10 5 10 10 0 6 -4 10 -10 10 -5 0
-10 -4 -10 -10z"/>
<path d="M8332 2098 c3 -7 15 -14 29 -16 23 -2 23 -2 5 13 -24 18 -39 20 -34
3z"/>
<path d="M8437 2073 c-25 -6 -11 -23 19 -23 15 0 24 5 22 12 -5 14 -17 17 -41
11z"/>
<path d="M1260 1925 c0 -8 5 -15 10 -15 6 0 10 7 10 15 0 8 -4 15 -10 15 -5 0
-10 -7 -10 -15z"/>
<path d="M9358 1783 c6 -2 18 -2 25 0 6 3 1 5 -13 5 -14 0 -19 -2 -12 -5z"/>
<path d="M10550 1760 c0 -5 5 -10 10 -10 6 0 10 5 10 10 0 6 -4 10 -10 10 -5
0 -10 -4 -10 -10z"/>
<path d="M2110 1610 c-12 -8 -10 -10 8 -10 13 0 20 4 17 10 -7 12 -6 12 -25 0z"/>
<path d="M2070 1580 c0 -5 7 -10 16 -10 8 0 12 5 9 10 -3 6 -10 10 -16 10 -5
0 -9 -4 -9 -10z"/>
<path d="M1825 1470 c-3 -5 1 -10 9 -10 9 0 16 5 16 10 0 6 -4 10 -9 10 -6 0
-13 -4 -16 -10z"/>
<path d="M10057 1474 c-8 -8 3 -34 14 -34 11 0 12 27 0 34 -4 3 -11 3 -14 0z"/>
<path d="M1572 1439 c2 -6 8 -10 13 -10 5 0 11 4 13 10 2 6 -4 11 -13 11 -9 0
-15 -5 -13 -11z"/>
<path d="M11000 1970 c0 -5 5 -10 10 -10 6 0 10 5 10 10 0 6 -4 10 -10 10 -5
0 -10 -4 -10 -10z"/>
<path d="M9310 1520 c0 -5 4 -10 9 -10 6 0 13 5 16 10 3 6 -1 10 -9 10 -9 0
-16 -4 -16 -10z"/>
<path d="M9280 1510 c0 -5 5 -10 10 -10 6 0 10 5 10 10 0 6 -4 10 -10 10 -5 0
-10 -4 -10 -10z"/>
<path d="M10650 1330 c-13 -8 -12 -10 3 -10 9 0 17 5 17 10 0 12 -1 12 -20 0z"/>
</g>
</svg>
