<svg version="1.0" xmlns="http://www.w3.org/2000/svg" width="1200.000000pt" height="662.000000pt" viewBox="0 0 1200.000000 662.000000" preserveAspectRatio="xMidYMid meet" style="width: 489.232px; height: auto;"> <g transform="translate(0.000000,662.000000) scale(0.100000,-0.100000)" fill="#000000" stroke="none">  <path d="M7695 4969 c-4 -6 -3 -15 3 -21 6 -6 11 -4 15 6 7 18 -9 31 -18 15z"></path> <path d="M7815 4868 c-13 -39 -45 -161 -56 -213 -8 -34 -14 -124 -14 -210 0 -124 4 -163 22 -225 53 -184 172 -334 374 -470 47 -32 93 -70 102 -83 22 -34 55 -257 38 -257 -5 0 -38 29 -73 64 -111 111 -269 173 -498 196 -58 5 -246 9 -418 7 l-312 -2 0 -988 0 -989 426 2 c458 1 527 7 666 55 113 39 176 76 249 143 52 48 78 82 106 140 38 76 38 77 38 201 0 121 -1 129 -32 194 -18 38 -46 86 -63 107 -59 75 -171 145 -262 164 -31 7 -39 36 -10 36 26 0 100 50 149 101 23 24 57 76 75 114 31 65 33 77 33 175 0 78 -5 120 -20 162 -17 52 -18 64 -6 120 7 35 22 80 34 100 24 43 83 88 116 88 38 0 163 30 236 57 106 40 203 101 277 175 72 72 143 184 183 288 27 71 69 244 80 328 l7 52 -29 0 c-53 0 -218 -31 -295 -55 -168 -52 -302 -143 -396 -267 -60 -80 -99 -153 -132 -248 -34 -99 -48 -157 -60 -255 -15 -111 -18 -121 -31 -108 -23 23 -18 131 16 343 21 137 21 326 0 405 -24 93 -80 202 -142 278 -64 77 -166 165 -263 224 -103 63 -110 66 -115 51z m63 -153 c2 -17 8 -34 13 -39 5 -6 9 -22 9 -37 0 -15 5 -31 10 -34 6 -3 10 -17 10 -30 0 -13 5 -27 10 -30 6 -3 10 -15 10 -26 0 -10 4 -27 9 -37 5 -9 14 -29 20 -44 6 -16 16 -40 22 -55 7 -16 15 -37 19 -48 19 -50 49 -113 136 -291 52 -106 94 -199 94 -207 0 -9 5 -19 10 -22 14 -8 13 -68 -1 -63 -12 4 -29 33 -54 93 -10 22 -51 108 -91 190 -41 83 -74 156 -74 163 0 7 -4 12 -10 12 -5 0 -10 7 -10 15 0 8 -4 23 -9 33 -18 34 -49 108 -61 142 -13 39 -22 63 -38 100 -5 14 -15 45 -22 70 -7 25 -16 55 -20 66 -5 12 -12 43 -15 69 -7 42 -6 47 11 43 13 -2 20 -13 22 -33z m102 -55 c0 -11 -7 -20 -15 -20 -17 0 -18 2 -9 24 9 23 24 20 24 -4z m40 -25 c0 -8 5 -15 10 -15 6 0 10 -7 10 -16 0 -9 8 -23 18 -31 12 -10 14 -16 5 -19 -7 -3 -13 -10 -13 -15 0 -5 11 -2 24 6 24 16 24 17 5 36 -10 10 -19 25 -19 32 1 18 60 -55 60 -74 0 -9 6 -22 14 -28 8 -7 17 -23 20 -36 4 -17 11 -22 22 -18 13 5 15 0 12 -23 -3 -16 -3 -23 -1 -16 9 24 24 12 19 -15 -4 -19 0 -38 14 -58 11 -16 20 -43 20 -60 0 -16 4 -37 10 -45 6 -9 5 -19 -2 -28 -7 -7 -11 -35 -9 -62 1 -26 -2 -51 -7 -54 -15 -9 -68 67 -57 83 6 10 -43 61 -58 61 -7 0 -7 4 1 12 7 7 12 23 12 38 -1 25 -1 25 -16 5 -15 -19 -16 -18 -10 18 4 23 3 37 -4 37 -5 0 -10 -4 -10 -10 0 -5 -4 -10 -9 -10 -4 0 -8 18 -8 40 0 22 -5 45 -10 52 -5 7 -15 32 -22 56 -6 23 -16 42 -21 42 -15 0 -12 37 3 44 6 3 2 3 -10 0 -19 -4 -23 0 -28 30 -4 19 -4 39 0 45 9 16 35 13 35 -4z m-160 -219 c0 -8 -4 -18 -10 -21 -5 -3 -10 3 -10 14 0 12 5 21 10 21 6 0 10 -6 10 -14z m1272 -33 c2 -5 1 -25 -2 -46 l-5 -39 -29 23 c-26 21 -30 21 -41 6 -7 -9 -17 -17 -24 -17 -10 0 -135 -91 -151 -109 -3 -4 -21 -19 -40 -35 -82 -67 -228 -214 -300 -305 -19 -24 -40 -48 -45 -55 -21 -21 -75 -105 -75 -114 0 -5 -9 -17 -20 -27 -20 -18 -20 -17 -20 11 0 35 80 158 165 254 91 104 230 235 345 327 19 15 44 36 55 46 34 32 103 77 117 77 7 0 19 -9 26 -20 7 -11 17 -20 22 -20 17 0 11 28 -7 39 -16 9 -16 10 4 11 12 0 23 -3 25 -7z m-1248 -38 c6 -11 15 -23 20 -26 9 -7 6 -26 -9 -61 -5 -13 -2 -18 9 -18 9 0 16 8 16 17 0 13 3 14 12 5 8 -8 8 -15 -2 -26 -10 -13 -10 -17 3 -21 9 -4 14 -17 12 -38 -2 -18 -3 -40 -4 -49 -1 -10 -8 -18 -16 -18 -20 0 -48 57 -42 88 3 14 1 36 -4 49 -5 13 -4 25 1 28 17 10 11 32 -15 56 -13 13 -25 28 -25 32 0 16 33 2 44 -18z m1214 -51 c20 -14 31 -44 16 -44 -12 0 -64 42 -64 51 0 14 23 11 48 -7z m-290 -36 c-7 -19 -38 -22 -38 -4 0 10 9 16 21 16 12 0 19 -5 17 -12z m276 -18 c18 -17 18 -19 -4 -81 -12 -35 -26 -69 -31 -75 -5 -6 -6 -20 -2 -29 5 -15 3 -17 -11 -12 -15 6 -17 3 -10 -25 6 -28 4 -31 -8 -20 -12 9 -19 7 -36 -13 -12 -14 -19 -31 -16 -39 3 -8 -12 -24 -40 -42 -43 -27 -60 -54 -34 -54 6 0 9 -2 6 -5 -10 -11 -67 8 -72 24 -2 9 -2 -3 0 -26 3 -37 2 -40 -16 -36 -11 3 -20 0 -20 -6 0 -13 -53 -41 -79 -41 -11 0 -25 -9 -31 -21 -11 -19 -13 -19 -29 -5 -10 9 -22 16 -27 16 -5 0 -2 -4 6 -10 24 -15 2 -24 -25 -10 -15 8 -25 22 -25 34 1 19 1 20 11 3 14 -25 32 -11 18 15 -9 16 -7 24 10 42 12 12 21 27 21 32 0 5 9 15 20 22 11 7 20 19 20 27 0 10 10 15 26 15 24 0 25 2 13 17 -10 12 -11 17 -2 20 7 2 9 11 6 19 -6 16 12 19 22 4 3 -5 11 -10 16 -10 6 0 7 15 4 38 -5 29 -4 33 5 20 6 -10 14 -18 18 -18 4 0 13 14 20 30 8 17 20 30 28 30 8 0 14 9 14 20 0 21 15 27 25 10 9 -15 35 -12 35 4 0 9 -7 12 -20 9 -11 -3 -20 -1 -20 4 0 9 36 43 45 43 3 0 5 -9 5 -20 0 -11 5 -20 10 -20 6 0 10 -8 10 -17 0 -13 3 -14 12 -5 9 9 8 16 -6 31 -16 18 -15 20 21 58 21 21 47 43 58 47 l20 7 -20 16 c-19 15 -19 15 10 9 17 -4 38 -15 49 -26z m-334 -26 c0 -14 -3 -14 -15 -4 -8 7 -15 14 -15 16 0 2 7 4 15 4 8 0 15 -7 15 -16z m-590 -30 c0 -8 -4 -12 -10 -9 -5 3 -10 10 -10 16 0 5 5 9 10 9 6 0 10 -7 10 -16z m540 8 c0 -13 -12 -22 -22 -16 -10 6 -1 24 13 24 5 0 9 -4 9 -8z m-52 -57 c-28 -14 -35 -11 -19 9 7 8 19 12 27 9 12 -4 10 -8 -8 -18z m-661 -15 c3 -11 9 -20 14 -20 14 0 11 -28 -3 -34 -9 -3 -8 -8 5 -16 9 -6 17 -20 17 -30 0 -11 7 -20 15 -20 10 0 15 -10 15 -26 0 -22 -2 -25 -15 -14 -8 7 -15 17 -15 22 0 5 -9 17 -20 26 -13 11 -22 31 -23 54 -1 20 -6 40 -10 44 -11 11 -8 34 4 34 6 0 13 -9 16 -20z m-32 -29 c3 -5 1 -12 -5 -16 -5 -3 -10 1 -10 9 0 18 6 21 15 7z m265 -41 c0 -5 -4 -10 -10 -10 -5 0 -10 5 -10 10 0 6 5 10 10 10 6 0 10 -4 10 -10z m35 -29 c3 -5 1 -12 -5 -16 -5 -3 -10 1 -10 9 0 18 6 21 15 7z m-275 -11 c0 -5 -4 -10 -10 -10 -5 0 -10 5 -10 10 0 6 5 10 10 10 6 0 10 -4 10 -10z m585 -270 c3 -11 11 -20 16 -20 5 0 9 -4 9 -10 0 -16 -24 -11 -41 8 -15 18 -15 42 1 42 5 0 12 -9 15 -20z m-825 -173 c26 -10 124 -25 133 -20 13 8 106 -28 117 -45 8 -14 11 -15 19 -3 10 15 35 6 26 -10 -4 -5 3 -9 14 -9 13 0 21 -7 21 -16 0 -12 -7 -15 -25 -12 -18 4 -25 1 -25 -10 0 -10 6 -12 23 -8 12 4 37 9 55 13 27 5 32 3 32 -15 0 -11 7 -22 15 -26 8 -3 15 -14 15 -24 0 -28 11 -34 32 -15 17 15 18 14 18 -15 0 -18 5 -32 10 -32 21 0 33 -58 30 -155 -1 -55 -5 -104 -8 -110 -3 -5 -5 -22 -4 -36 2 -15 -4 -34 -15 -44 -10 -10 -31 -37 -48 -60 -37 -51 -130 -135 -150 -135 -8 0 -15 -8 -15 -18 0 -10 -6 -24 -12 -31 -11 -10 -8 -12 12 -9 17 2 25 -2 25 -12 0 -8 -10 -16 -23 -18 -29 -4 -18 -22 14 -22 14 0 27 -7 30 -15 4 -8 12 -15 20 -15 8 0 14 -6 14 -12 0 -7 19 -22 42 -32 22 -10 43 -27 45 -37 3 -11 12 -19 19 -19 16 0 19 16 4 25 -5 3 -10 10 -10 16 0 5 5 9 10 9 6 0 10 -4 10 -10 0 -15 40 -53 70 -67 24 -11 24 -11 3 -12 -13 -1 -23 -7 -23 -16 0 -10 10 -15 30 -15 19 0 30 -5 29 -12 -1 -7 1 -21 6 -31 4 -11 3 -23 -4 -30 -14 -14 -15 -47 -1 -47 6 0 10 8 10 18 0 11 8 26 18 35 18 16 18 14 20 -54 0 -38 4 -79 7 -90 4 -13 2 -19 -9 -19 -9 0 -16 -2 -16 -5 0 -4 7 -19 16 -36 9 -18 12 -39 8 -52 -7 -25 -38 -57 -54 -57 -5 0 -10 -7 -10 -15 0 -8 5 -15 10 -15 19 0 10 -21 -22 -51 -18 -16 -36 -29 -40 -29 -5 0 -8 -9 -8 -20 0 -23 -10 -26 -28 -8 -9 9 -16 8 -30 -5 -10 -9 -24 -17 -32 -17 -7 0 -1 -10 14 -21 15 -12 24 -24 21 -27 -3 -4 -10 0 -15 8 -7 12 -17 10 -57 -12 -26 -14 -73 -31 -103 -38 -30 -7 -60 -16 -66 -21 -5 -4 -36 -7 -67 -5 -37 2 -57 0 -57 -8 0 -15 -708 -10 -727 6 -10 8 -13 180 -13 873 0 706 2 865 13 874 9 7 105 12 283 13 309 3 334 3 354 -5z m484 -1636 c3 -5 0 -11 -8 -14 -15 -6 -26 1 -26 15 0 11 27 10 34 -1z"></path> <path d="M7990 4605 c0 -8 5 -15 10 -15 6 0 10 7 10 15 0 8 -4 15 -10 15 -5 0 -10 -7 -10 -15z"></path> <path d="M8110 4370 c0 -5 7 -10 16 -10 8 0 12 5 9 10 -3 6 -10 10 -16 10 -5 0 -9 -4 -9 -10z"></path> <path d="M8140 4330 c0 -5 5 -10 10 -10 6 0 10 5 10 10 0 6 -4 10 -10 10 -5 0 -10 -4 -10 -10z"></path> <path d="M9040 4220 c0 -5 5 -10 10 -10 6 0 10 5 10 10 0 6 -4 10 -10 10 -5 0 -10 -4 -10 -10z"></path> <path d="M8914 4079 c-3 -6 -1 -16 5 -22 8 -8 11 -5 11 11 0 24 -5 28 -16 11z"></path> <path d="M8740 3944 c0 -8 5 -12 10 -9 6 4 8 11 5 16 -9 14 -15 11 -15 -7z"></path> <path d="M8780 3930 c0 -5 5 -10 10 -10 6 0 10 5 10 10 0 6 -4 10 -10 10 -5 0 -10 -4 -10 -10z"></path> <path d="M8740 3900 c0 -5 7 -10 15 -10 8 0 15 5 15 10 0 6 -7 10 -15 10 -8 0 -15 -4 -15 -10z"></path> <path d="M8840 3890 c0 -5 7 -10 15 -10 8 0 15 5 15 10 0 6 -7 10 -15 10 -8 0 -15 -4 -15 -10z"></path> <path d="M7459 3414 c-1 -5 -2 -17 -3 -26 -1 -20 -21 -25 -21 -5 0 6 -6 12 -12 11 -34 -3 -37 -5 -20 -15 17 -10 16 -13 -12 -30 -17 -10 -31 -25 -31 -33 0 -7 -6 -19 -13 -25 -11 -9 -15 -125 -21 -595 -6 -541 -6 -586 10 -620 10 -19 27 -39 38 -42 19 -6 19 -7 2 -19 -19 -15 -6 -28 18 -19 10 4 16 1 16 -8 0 -29 60 -38 252 -36 174 3 188 4 202 23 12 16 17 18 27 8 21 -21 47 -15 71 17 15 21 27 28 40 24 11 -3 18 0 19 8 0 7 20 29 44 48 33 27 42 40 38 57 -4 17 0 22 21 25 25 3 25 4 11 31 -10 20 -12 34 -5 48 6 10 15 29 21 40 8 15 8 24 0 32 -8 8 -11 6 -11 -6 0 -9 -4 -17 -9 -17 -12 0 -22 83 -10 95 15 15 11 38 -6 31 -10 -3 -18 1 -22 12 -8 21 -81 92 -95 92 -6 0 -8 7 -5 15 5 11 0 13 -22 9 -22 -5 -34 1 -57 23 -29 30 -74 49 -74 32 0 -5 -4 -9 -10 -9 -5 0 -10 9 -10 20 0 23 -10 26 -28 8 -9 -9 -12 -9 -12 0 0 7 5 12 10 12 16 0 12 40 -5 46 -17 7 -20 40 -5 49 6 3 10 15 10 25 0 10 6 20 13 23 9 3 9 7 -2 20 -17 21 -7 22 24 1 15 -10 25 -12 25 -5 0 6 7 11 15 11 8 0 15 -7 15 -15 0 -8 7 -15 15 -15 8 0 15 5 15 10 0 6 -4 10 -10 10 -5 0 -10 7 -10 15 0 8 9 15 20 15 11 0 23 7 26 15 4 8 12 15 20 15 8 0 14 7 14 15 0 9 -6 12 -15 9 -8 -4 -15 -9 -15 -13 0 -5 -20 -18 -44 -30 -34 -18 -48 -21 -62 -12 -17 9 -17 10 -2 11 28 0 103 56 131 98 15 21 27 44 27 51 0 7 4 10 9 7 14 -9 21 20 21 89 0 64 -12 107 -39 135 -9 10 -10 15 -2 18 6 2 11 10 11 18 0 8 -10 14 -25 14 -14 0 -25 4 -25 9 0 6 -29 29 -65 52 -62 40 -79 59 -53 59 6 0 9 3 5 6 -3 3 -20 -1 -38 -10 -18 -9 -39 -16 -48 -16 -12 0 -12 3 -3 12 21 21 13 27 -24 21 -25 -4 -39 -2 -45 8 -8 12 -10 12 -18 0 -9 -14 -36 -12 -91 5 -23 7 -24 6 -11 -9 12 -15 11 -17 -8 -17 -12 0 -21 6 -21 15 0 18 -16 20 -26 3 -5 -7 -11 -5 -21 7 -7 11 -13 15 -14 9z m271 -130 c115 -27 185 -83 197 -158 3 -19 2 -56 -2 -82 -5 -38 -16 -56 -54 -94 -26 -26 -61 -51 -78 -54 -16 -4 -43 -19 -60 -35 -50 -45 -67 -88 -68 -163 0 -58 4 -71 31 -110 32 -44 113 -97 149 -98 30 0 117 -44 142 -71 35 -38 53 -93 53 -162 0 -55 -4 -70 -30 -105 -60 -83 -148 -104 -408 -100 l-172 3 0 618 c0 339 0 619 0 622 0 3 53 5 118 5 69 0 143 -6 182 -16z"></path> <path d="M8185 3310 c-7 -12 2 -30 16 -30 5 0 9 9 9 20 0 21 -15 27 -25 10z"></path> <path d="M7980 2825 c0 -8 5 -15 10 -15 6 0 10 7 10 15 0 8 -4 15 -10 15 -5 0 -10 -7 -10 -15z"></path> <path d="M7946 2575 c-3 -9 0 -15 9 -15 8 0 15 7 15 15 0 8 -4 15 -9 15 -5 0 -11 -7 -15 -15z"></path> <path d="M8210 2510 c0 -5 7 -10 15 -10 8 0 15 5 15 10 0 6 -7 10 -15 10 -8 0 -15 -4 -15 -10z"></path> <path d="M8180 2464 c0 -8 5 -12 10 -9 6 4 8 11 5 16 -9 14 -15 11 -15 -7z"></path> <path d="M8330 2328 c0 -7 4 -19 9 -27 6 -9 10 -10 16 -2 8 15 -1 41 -15 41 -5 0 -10 -6 -10 -12z"></path> <path d="M8340 2150 c0 -5 5 -10 10 -10 6 0 10 5 10 10 0 6 -4 10 -10 10 -5 0 -10 -4 -10 -10z"></path> <path d="M8115 4850 c-3 -5 1 -10 10 -10 9 0 13 5 10 10 -3 6 -8 10 -10 10 -2 0 -7 -4 -10 -10z"></path> <path d="M3125 3709 c-71 -4 -144 -11 -160 -17 -96 -30 -195 -102 -249 -180 -16 -24 -78 -192 -157 -428 -191 -573 -259 -785 -259 -810 0 -13 -5 -26 -11 -30 -13 -8 -29 14 -23 30 2 6 -73 238 -167 516 -94 278 -186 553 -206 611 -32 99 -39 111 -95 168 -105 107 -200 141 -395 141 -79 0 -123 -4 -123 -10 0 -6 6 -23 14 -38 7 -15 62 -160 121 -322 110 -304 163 -450 246 -675 116 -316 342 -941 354 -982 3 -10 65 -13 265 -13 186 0 260 3 260 11 0 12 12 45 215 599 70 190 148 406 175 480 26 74 61 171 78 215 17 44 78 213 137 375 59 162 114 305 122 318 14 23 12 54 -4 50 -4 -1 -66 -5 -138 -9z m-1538 -113 c-4 -10 0 -12 15 -8 12 3 26 -1 32 -9 15 -18 73 -59 84 -59 13 0 42 -45 42 -65 0 -8 6 -15 14 -15 9 0 15 -18 20 -52 3 -29 6 -68 6 -86 0 -24 5 -35 18 -38 17 -5 42 -47 42 -71 0 -7 4 -21 10 -31 14 -26 40 -110 40 -132 0 -10 5 -22 10 -25 6 -3 10 -14 10 -25 0 -10 7 -20 15 -24 10 -4 15 -20 15 -50 0 -25 4 -47 9 -50 5 -3 12 -18 16 -33 3 -16 17 -51 31 -80 13 -28 24 -59 24 -68 0 -9 9 -34 20 -55 12 -24 18 -49 15 -63 -4 -15 2 -37 15 -59 11 -19 18 -42 15 -50 -3 -8 1 -21 10 -28 8 -7 22 -37 31 -66 8 -30 19 -54 24 -54 4 0 11 -11 14 -25 3 -13 15 -29 26 -35 11 -6 20 -17 20 -26 0 -8 11 -19 24 -24 13 -5 27 -14 31 -19 9 -16 35 -13 35 4 0 8 -4 15 -10 15 -14 0 -12 28 3 33 6 2 22 -10 35 -27 l22 -30 0 26 c0 15 -4 30 -10 33 -15 9 -12 35 4 35 8 0 17 -6 19 -12 3 -7 6 -3 6 8 1 12 8 35 16 50 8 16 15 38 15 50 0 11 7 29 15 40 8 10 15 34 15 52 0 18 11 54 26 79 14 25 23 52 20 60 -3 8 1 25 10 38 9 13 13 33 9 43 -6 21 22 92 43 105 6 4 12 16 12 25 0 10 4 22 9 28 12 13 30 94 25 109 -3 7 -1 16 5 19 13 8 61 110 61 130 0 8 -6 17 -12 19 -7 3 -1 6 15 6 15 1 27 4 27 8 0 3 -7 14 -16 24 -19 21 -10 46 11 29 19 -15 31 6 14 26 -9 11 -9 21 -2 37 30 62 44 99 49 129 4 18 11 38 16 45 5 7 7 17 3 23 -3 5 -3 15 0 20 5 8 12 7 23 -2 13 -11 14 -10 8 15 -8 33 7 36 28 5 l16 -22 0 21 c0 12 -5 25 -10 28 -16 10 22 55 41 49 9 -2 19 2 23 11 3 8 15 15 26 15 11 0 23 7 27 16 5 15 7 15 15 0 5 -9 16 -16 23 -16 18 0 20 26 3 33 -7 3 -1 6 14 6 15 1 30 -4 33 -10 4 -6 19 -7 36 -4 28 6 29 6 22 -27 -3 -18 -12 -37 -20 -41 -10 -6 -12 -18 -8 -39 5 -22 2 -33 -11 -42 -13 -10 -18 -28 -19 -67 -1 -31 -6 -54 -13 -57 -7 -2 -12 -12 -12 -23 0 -10 -12 -54 -26 -96 -16 -50 -34 -86 -51 -99 -16 -14 -21 -24 -14 -28 14 -9 14 -53 1 -61 -6 -3 -15 4 -20 17 -8 18 -9 13 -5 -23 5 -37 3 -48 -10 -53 -9 -3 -13 -11 -9 -17 3 -6 1 -21 -5 -32 -6 -12 -25 -62 -42 -112 -17 -49 -42 -109 -55 -132 -13 -24 -19 -43 -14 -43 19 0 10 -39 -12 -57 -13 -10 -24 -29 -26 -43 -1 -14 -4 -35 -5 -47 -1 -12 -8 -28 -14 -35 -7 -6 -13 -18 -13 -25 0 -7 -4 -13 -10 -13 -5 0 -10 -11 -10 -24 0 -14 -4 -28 -10 -31 -5 -3 -10 -15 -10 -26 0 -10 -5 -19 -10 -19 -6 0 -8 -17 -5 -42 5 -37 4 -40 -6 -20 -17 32 -32 27 -27 -9 3 -20 0 -33 -9 -36 -9 -4 -11 -16 -7 -44 5 -28 3 -39 -6 -39 -8 0 -11 -11 -7 -37 3 -21 3 -30 1 -20 -3 9 -12 17 -20 17 -16 0 -19 -36 -4 -45 15 -9 12 -35 -3 -35 -8 0 -25 -36 -42 -87 -16 -48 -37 -95 -47 -105 -10 -10 -18 -22 -18 -27 0 -12 -49 -20 -56 -10 -3 5 2 9 10 9 9 0 16 5 16 10 0 6 -50 10 -131 10 -116 0 -130 -2 -119 -15 11 -13 8 -15 -14 -15 -16 0 -26 5 -26 15 0 8 -8 15 -18 15 -10 0 -27 6 -37 14 -16 12 -17 16 -6 29 17 21 5 43 -15 26 -12 -10 -13 -6 -8 21 4 18 3 35 -3 39 -6 3 -22 40 -36 81 -14 41 -32 89 -41 105 -9 17 -16 39 -16 49 0 11 -7 27 -16 37 -8 9 -17 37 -19 61 -2 23 -4 45 -5 48 0 3 -7 -3 -14 -13 -13 -16 -14 -15 -19 15 -14 80 -21 104 -33 122 -10 15 -11 23 -2 34 10 11 9 16 -4 23 -10 5 -20 29 -24 55 -4 28 -14 50 -25 57 -14 9 -16 14 -6 26 9 11 9 15 0 18 -7 3 -13 11 -13 18 0 8 -7 18 -17 23 -12 7 -14 18 -10 40 5 26 3 29 -13 25 -11 -3 -18 0 -17 9 0 7 -1 37 -1 67 -2 46 -4 52 -17 41 -13 -11 -14 -6 -9 34 6 40 4 46 -9 40 -12 -4 -17 3 -23 30 -3 20 -10 39 -15 42 -5 3 -9 14 -9 25 0 11 -12 38 -26 61 -18 29 -24 49 -20 69 3 19 -1 35 -14 52 -11 14 -20 30 -20 36 0 6 -5 11 -11 11 -6 0 -8 8 -4 19 5 17 -20 74 -46 107 -5 6 -6 25 -3 43 4 17 2 31 -3 31 -5 0 -16 19 -23 43 -8 23 -19 45 -25 49 -7 5 -6 13 1 25 9 14 22 17 67 15 32 -2 58 1 62 7 9 16 28 13 22 -3z m1514 -129 c-8 -8 -11 -6 -11 5 0 9 3 25 7 35 7 16 8 15 11 -6 2 -13 -1 -28 -7 -34z m-29 -62 c0 -5 -5 -11 -11 -13 -6 -2 -11 4 -11 13 0 9 5 15 11 13 6 -2 11 -8 11 -13z m-1512 -195 c0 -5 -4 -10 -10 -10 -5 0 -10 5 -10 10 0 6 5 10 10 10 6 0 10 -4 10 -10z m546 -697 c-10 -10 -19 5 -10 18 6 11 8 11 12 0 2 -7 1 -15 -2 -18z"></path> <path d="M2860 3424 c0 -8 5 -12 10 -9 6 3 10 10 10 16 0 5 -4 9 -10 9 -5 0 -10 -7 -10 -16z"></path> <path d="M1580 3334 c0 -8 5 -12 10 -9 6 4 8 11 5 16 -9 14 -15 11 -15 -7z"></path> <path d="M1560 3276 c0 -9 5 -16 10 -16 6 0 10 4 10 9 0 6 -4 13 -10 16 -5 3 -10 -1 -10 -9z"></path> <path d="M2702 3075 c0 -16 2 -22 5 -12 2 9 2 23 0 30 -3 6 -5 -1 -5 -18z"></path> <path d="M1921 2853 c-1 -37 19 -95 26 -75 3 8 0 24 -5 35 -6 12 -13 33 -15 47 -4 21 -5 20 -6 -7z"></path> <path d="M2540 2694 c0 -14 4 -23 10 -19 6 3 10 15 10 26 0 10 -4 19 -10 19 -5 0 -10 -12 -10 -26z"></path> <path d="M2520 2601 c0 -25 6 -27 13 -6 4 8 2 17 -3 20 -6 4 -10 -3 -10 -14z"></path> <path d="M2574 2289 c-3 -6 -1 -16 5 -22 8 -8 11 -5 11 11 0 24 -5 28 -16 11z"></path> <path d="M2430 1810 c0 -5 5 -10 10 -10 6 0 10 5 10 10 0 6 -4 10 -10 10 -5 0 -10 -4 -10 -10z"></path> <path d="M3572 2690 l3 -1021 504 1 503 0 66 33 c127 63 232 205 232 313 l0 49 -421 0 -421 0 0 225 0 224 239 -3 239 -3 66 30 c75 34 148 96 189 161 33 52 72 162 67 192 -3 20 -4 21 -371 19 -202 0 -381 -3 -397 -7 -17 -3 -30 -2 -30 3 0 5 -1 98 -1 207 l-1 199 263 1 264 2 68 32 c41 19 88 53 120 85 61 61 117 165 124 233 l6 45 -657 0 -656 0 2 -1020z m1158 910 c-20 -12 -1027 -12 -1035 1 -4 5 193 9 522 9 336 0 523 -4 513 -10z m-1050 -17 c0 -5 214 -7 475 -5 325 2 475 0 475 -8 0 -16 38 -50 56 -50 9 0 14 -7 12 -17 -2 -11 -11 -17 -21 -15 -9 2 -17 -2 -17 -7 0 -10 -83 -51 -103 -51 -5 0 -15 -7 -22 -17 -8 -11 -18 -14 -31 -9 -27 10 -227 14 -299 6 -33 -4 -65 -3 -71 2 -8 5 -14 2 -19 -9 -6 -17 -7 -17 -16 0 -11 18 -59 24 -59 7 0 -5 7 -10 15 -10 24 0 17 -17 -9 -22 -16 -3 -27 0 -30 9 -10 24 -28 2 -24 -27 3 -19 0 -27 -11 -26 -32 2 -41 -44 -41 -225 0 -172 1 -177 25 -213 14 -20 25 -41 25 -46 0 -14 27 -12 34 3 3 6 4 1 3 -13 -2 -29 -42 -26 383 -28 l286 -2 -1 -22 c0 -13 -6 -33 -13 -46 -10 -18 -16 -21 -27 -12 -8 7 -15 7 -19 1 -4 -5 -2 -12 4 -16 5 -3 10 -15 10 -27 0 -14 -5 -18 -15 -14 -8 3 -40 -9 -72 -26 -46 -24 -76 -32 -148 -39 -54 -4 -94 -4 -99 2 -6 5 -50 9 -99 9 -74 0 -92 -3 -102 -17 -13 -17 -14 -17 -33 0 -19 17 -20 17 -38 0 -10 -10 -25 -18 -33 -18 -11 0 -16 -9 -14 -30 0 -17 -1 -24 -4 -17 -8 21 -20 13 -38 -24 -15 -32 -16 -58 -9 -235 6 -173 9 -203 25 -223 11 -14 19 -31 19 -40 0 -9 5 -16 11 -16 7 0 18 -8 25 -17 12 -17 13 -17 26 0 13 18 14 17 32 -2 18 -20 29 -21 283 -21 187 0 263 -3 263 -11 0 -7 8 -9 23 -4 46 14 86 2 87 -27 0 -14 -53 -69 -64 -65 -14 5 -36 -17 -36 -37 0 -10 -9 -16 -25 -16 -27 0 -32 -9 -13 -28 20 -20 -13 -15 -50 8 -36 22 -68 16 -37 -6 15 -11 -48 -13 -383 -11 -221 1 -398 5 -394 9 4 4 27 8 52 11 30 2 19 4 -32 5 l-78 2 -1 413 c-3 1194 -4 1367 -11 1367 -5 0 -8 5 -8 10 0 6 5 10 10 10 6 0 10 -3 10 -7z m1000 -13 c0 -5 7 -10 15 -10 8 0 15 5 15 10 0 17 19 11 29 -9 9 -16 8 -18 -9 -14 -11 3 -20 0 -20 -6 0 -16 -29 -14 -46 3 -18 19 -18 36 1 36 8 0 15 -4 15 -10z"></path> <path d="M4060 2785 c0 -8 7 -15 15 -15 8 0 15 4 15 9 0 5 -7 11 -15 15 -9 3 -15 0 -15 -9z"></path> <path d="M4001 1785 c7 -6 460 -7 467 -1 3 3 -102 6 -233 6 -131 0 -236 -2 -234 -5z"></path> <path d="M5259 2705 c-1 -553 -2 -1011 -3 -1017 -1 -10 107 -14 503 -16 l505 -2 63 30 c79 36 168 124 205 200 26 54 48 135 41 155 -2 6 -153 9 -423 7 l-420 -4 -1 216 c-1 119 -2 221 -3 228 -1 9 58 11 240 9 l241 -3 66 30 c75 34 163 112 202 178 28 48 59 158 51 180 -5 13 -63 14 -396 14 -214 -1 -393 1 -397 3 -5 3 -6 93 -3 201 l5 197 260 2 260 2 66 31 c75 36 137 87 181 151 34 50 80 177 71 198 -4 13 -95 15 -659 15 l-654 0 -1 -1005z m1151 897 c0 -10 -6 -24 -12 -30 -10 -10 -10 -17 0 -33 13 -20 8 -44 -7 -34 -5 2 -27 -9 -50 -25 -22 -17 -43 -30 -47 -30 -3 0 -22 -12 -41 -27 -25 -19 -38 -24 -41 -15 -5 16 -74 16 -90 0 -8 -8 -15 -8 -21 -2 -6 5 -70 6 -172 0 -121 -7 -164 -6 -167 2 -4 12 -32 17 -32 6 0 -4 8 -13 18 -20 15 -12 13 -13 -19 -14 -23 0 -42 -7 -55 -21 -14 -16 -15 -22 -5 -28 9 -6 7 -10 -8 -14 -12 -3 -24 0 -28 6 -4 7 -10 2 -14 -13 -4 -15 -1 -34 7 -47 10 -17 14 -66 14 -191 l0 -168 45 -48 c25 -26 50 -44 56 -40 6 4 15 0 20 -7 7 -12 64 -14 318 -12 172 1 313 -2 316 -7 3 -5 0 -12 -5 -15 -6 -4 -15 -17 -20 -30 -10 -26 -100 -102 -140 -117 -14 -5 -129 -10 -257 -10 -222 0 -231 -1 -236 -20 -3 -11 -10 -17 -17 -13 -6 3 -24 -5 -40 -19 -27 -23 -29 -26 -13 -35 16 -9 14 -10 -9 -11 -18 0 -28 -5 -28 -15 0 -8 8 -15 18 -15 16 -1 16 -1 0 -11 -16 -9 -18 -28 -18 -174 0 -96 4 -166 10 -170 6 -4 5 -13 -3 -26 -10 -17 -9 -22 6 -33 9 -7 17 -20 17 -28 0 -9 14 -29 31 -46 28 -27 40 -31 113 -37 44 -4 199 -5 344 -3 198 2 262 0 262 -9 0 -6 -5 -15 -11 -19 -7 -4 -7 -10 -1 -16 15 -15 30 -2 38 35 l7 32 9 -25 c8 -21 5 -28 -16 -45 -14 -12 -26 -24 -26 -28 0 -13 -36 -44 -68 -58 -18 -8 -32 -17 -32 -21 0 -4 -10 -8 -22 -10 -14 -2 -22 -9 -21 -18 2 -12 -7 -14 -45 -12 -26 2 -56 7 -67 12 -11 5 -191 11 -400 13 l-380 3 -6 100 c-8 128 -9 551 0 817 3 115 3 211 -1 213 -9 6 -4 647 6 662 6 10 11 10 23 1 11 -10 19 -10 34 -1 14 9 138 12 487 12 314 -1 468 3 470 10 6 17 22 11 22 -8z m37 -36 c-7 -15 -16 -21 -21 -16 -6 6 -4 15 4 25 19 23 29 18 17 -9z m-793 -287 c-3 -5 -10 -7 -15 -3 -5 3 -7 10 -3 15 3 5 10 7 15 3 5 -3 7 -10 3 -15z m71 -1260 c11 -17 -1 -21 -15 -4 -8 9 -8 15 -2 15 6 0 14 -5 17 -11z m-292 -256 c-7 -2 -21 -2 -30 0 -10 3 -4 5 12 5 17 0 24 -2 18 -5z"></path> <path d="M5640 2842 c0 -4 7 -16 15 -26 15 -19 15 -19 15 1 0 11 -7 23 -15 27 -8 3 -15 2 -15 -2z"></path> <path d="M5602 2800 c0 -14 2 -19 5 -12 2 6 2 18 0 25 -3 6 -5 1 -5 -13z"></path> <path d="M5595 2060 c3 -5 11 -10 16 -10 6 0 7 5 4 10 -3 6 -11 10 -16 10 -6 0 -7 -4 -4 -10z"></path> <path d="M9330 3673 c-7 -21 -62 -171 -122 -333 -60 -162 -154 -416 -209 -565 -55 -148 -106 -286 -114 -305 -7 -19 -25 -66 -39 -105 -14 -38 -76 -203 -137 -365 -61 -162 -113 -304 -116 -315 -4 -19 0 -20 149 -17 137 4 158 6 204 28 74 35 128 76 173 133 28 37 49 82 77 166 l38 115 330 -2 329 -3 34 -100 c18 -55 41 -115 50 -133 26 -50 123 -136 190 -169 54 -26 69 -28 208 -33 83 -3 154 -2 159 2 5 4 2 21 -7 40 -23 50 -75 187 -335 888 -28 74 -87 234 -132 355 -98 262 -230 618 -258 695 l-20 55 -220 3 -220 2 -12 -37z m110 -75 c0 -8 32 -9 120 -5 66 4 130 3 144 -2 18 -7 27 -22 37 -60 7 -28 16 -51 21 -51 4 0 8 -9 8 -19 0 -11 5 -23 10 -26 6 -3 10 -23 10 -44 0 -22 6 -44 15 -51 8 -7 15 -18 15 -25 0 -7 7 -18 15 -25 8 -7 15 -24 15 -39 1 -14 7 -37 15 -51 8 -14 14 -34 15 -44 0 -10 7 -24 15 -30 9 -6 16 -23 17 -36 1 -14 12 -39 25 -57 13 -17 23 -34 23 -37 0 -3 -7 -6 -15 -6 -8 0 -15 8 -15 17 0 12 -3 14 -11 6 -8 -8 -6 -18 7 -37 9 -15 23 -25 30 -22 8 3 14 -1 14 -9 0 -8 -4 -15 -9 -15 -5 0 -7 -9 -4 -20 3 -11 12 -20 19 -20 8 0 14 -10 14 -22 0 -12 10 -33 23 -46 14 -16 18 -26 10 -29 -8 -3 -4 -16 12 -39 13 -19 27 -55 31 -80 3 -24 11 -44 16 -44 5 0 7 -13 3 -30 -4 -19 -3 -30 5 -30 6 0 10 -6 8 -12 -1 -7 4 -28 12 -46 9 -20 21 -31 30 -29 10 3 15 -4 16 -22 3 -43 29 -133 58 -192 14 -31 26 -62 26 -69 0 -7 7 -21 15 -30 12 -13 14 -28 9 -59 -4 -22 -10 -41 -15 -41 -14 0 -10 -20 7 -38 15 -15 16 -14 10 6 -4 12 -3 22 2 22 5 0 7 11 4 25 -6 34 10 32 26 -4 11 -24 11 -33 0 -50 -10 -17 -9 -25 10 -50 12 -17 22 -35 22 -42 0 -18 50 -113 66 -125 12 -10 12 -13 -2 -25 -21 -17 -150 -17 -193 1 -17 7 -31 19 -31 26 0 8 -11 19 -24 24 -14 5 -32 20 -41 34 -9 14 -22 23 -29 20 -15 -6 -29 33 -15 42 5 3 9 12 9 20 0 14 -2 13 -16 0 -8 -9 -21 -16 -27 -16 -8 0 -7 3 2 9 19 12 5 89 -21 118 -13 14 -19 30 -15 43 3 11 1 23 -4 26 -5 3 -9 -2 -9 -10 0 -9 -4 -16 -10 -16 -5 0 -10 6 -10 14 0 8 -16 28 -35 44 -21 19 -50 33 -77 37 -24 3 -170 5 -324 3 l-282 -3 -40 -32 c-23 -18 -45 -33 -50 -33 -5 0 -17 -9 -27 -20 -14 -16 -16 -23 -7 -32 9 -9 12 -7 12 10 0 21 10 28 23 16 7 -8 -23 -64 -35 -64 -4 0 -14 -21 -21 -47 -10 -35 -21 -52 -42 -62 -26 -12 -27 -15 -12 -26 9 -7 17 -16 17 -22 0 -13 -54 -51 -84 -59 -14 -3 -26 -10 -26 -16 0 -5 -4 -6 -10 -3 -16 10 -33 -5 -21 -19 7 -8 2 -15 -16 -23 -20 -10 -24 -10 -19 2 8 21 -12 28 -30 11 -22 -23 -54 -20 -54 4 0 30 -18 24 -22 -7 -2 -17 -10 -29 -21 -31 -15 -3 -17 -1 -9 15 7 12 7 25 1 34 -16 26 -9 38 24 42 29 4 30 5 10 12 -24 8 -30 29 -13 40 6 3 10 19 10 34 0 16 7 34 15 41 8 7 15 23 15 36 0 13 15 44 32 69 27 39 30 48 18 56 -13 8 -12 11 3 23 13 10 17 24 15 47 -2 19 2 34 10 36 7 3 12 -4 12 -19 1 -21 2 -21 11 -5 6 10 11 39 12 63 0 25 4 47 9 50 4 3 8 16 8 29 0 12 7 25 15 29 8 3 15 15 15 27 0 12 8 38 19 58 17 34 36 94 48 154 3 15 10 27 17 27 6 0 17 10 25 22 10 16 11 23 2 26 -8 3 -9 8 -1 17 6 7 11 31 13 54 1 22 7 41 12 41 12 1 45 69 45 93 0 9 5 19 10 22 6 3 10 21 10 40 0 19 5 37 10 40 13 8 40 72 40 94 0 9 9 33 20 54 11 20 20 46 20 56 0 11 4 21 8 23 5 2 22 42 39 90 22 64 27 90 19 98 -8 9 -6 11 10 6 18 -6 21 -3 17 17 -3 14 3 29 16 41 12 11 21 31 21 48 0 16 6 31 15 34 8 4 15 15 15 25 0 10 5 19 10 19 6 0 10 -5 10 -12z m550 -678 c0 -5 -4 -10 -10 -10 -5 0 -10 5 -10 10 0 6 5 10 10 10 6 0 10 -4 10 -10z"></path> <path d="M9545 3260 c7 -23 -21 -34 -30 -12 -5 14 -7 14 -15 2 -6 -8 -10 -26 -10 -39 0 -22 -1 -23 -24 -7 -31 20 -43 5 -16 -19 25 -23 25 -35 1 -35 -15 0 -19 -10 -24 -53 -9 -68 -45 -187 -66 -211 -9 -10 -16 -36 -17 -58 0 -22 -5 -43 -11 -46 -6 -4 -15 -25 -19 -47 -4 -22 -16 -55 -26 -74 -16 -27 -17 -36 -6 -43 10 -7 9 -11 -4 -22 -10 -7 -18 -23 -18 -34 0 -11 -4 -24 -10 -27 -11 -7 -13 -45 -4 -70 4 -9 17 -21 31 -26 13 -5 28 -20 33 -34 5 -14 16 -25 25 -25 8 0 15 -4 15 -10 0 -10 72 -14 82 -4 3 3 85 6 182 7 l176 1 35 29 c20 16 35 37 34 46 -3 35 2 51 22 70 25 23 17 50 -9 29 -13 -11 -14 -10 -8 15 5 20 3 27 -9 27 -17 0 -20 27 -5 50 6 10 2 24 -16 47 -13 17 -24 40 -24 50 0 11 -4 23 -8 29 -5 5 -14 29 -21 54 -16 55 -41 112 -55 123 -6 5 0 5 12 2 l24 -7 -18 29 c-10 15 -23 31 -28 34 -5 4 -6 18 -2 32 3 14 2 29 -4 32 -5 3 -10 12 -10 19 0 8 -16 40 -35 72 -19 32 -35 66 -35 75 0 21 -22 38 -28 21 -2 -7 -8 -12 -14 -12 -5 0 -7 8 -3 19 4 15 0 19 -20 19 -20 0 -24 -4 -20 -18z m49 -141 c10 -56 53 -206 98 -338 44 -130 86 -249 94 -266 26 -59 39 -56 -218 -56 -131 0 -240 0 -243 1 -2 0 9 37 26 83 84 224 167 490 178 565 14 97 19 112 35 112 7 0 19 -42 30 -101z"></path> <path d="M9260 3120 c0 -19 3 -21 12 -12 9 9 9 15 0 24 -9 9 -12 7 -12 -12z"></path> <path d="M9740 3030 c0 -5 5 -10 10 -10 6 0 10 5 10 10 0 6 -4 10 -10 10 -5 0 -10 -4 -10 -10z"></path> <path d="M9939 2843 c4 -15 13 -29 20 -31 9 -3 11 1 7 9 -3 8 -9 22 -12 32 -10 28 -23 20 -15 -10z"></path> <path d="M9980 2784 c0 -8 5 -12 10 -9 6 4 8 11 5 16 -9 14 -15 11 -15 -7z"></path> <path d="M9820 2766 c0 -9 30 -14 35 -6 4 6 -3 10 -14 10 -12 0 -21 -2 -21 -4z"></path> <path d="M9887 2492 c-9 -10 -17 -24 -17 -30 0 -20 24 -14 38 9 18 29 1 45 -21 21z"></path> <path d="M10095 2460 c4 -6 11 -8 16 -5 14 9 11 15 -7 15 -8 0 -12 -5 -9 -10z"></path> <path d="M9458 2343 c6 -2 18 -2 25 0 6 3 1 5 -13 5 -14 0 -19 -2 -12 -5z"></path> <path d="M10234 1999 c-3 -6 -1 -16 5 -22 8 -8 11 -5 11 11 0 24 -5 28 -16 11z"></path> <path d="M10215 1810 c-3 -5 1 -10 9 -10 9 0 16 5 16 10 0 6 -4 10 -9 10 -6 0 -13 -4 -16 -10z"></path> <path d="M10352 1808 c6 -18 28 -21 28 -4 0 9 -7 16 -16 16 -9 0 -14 -5 -12 -12z"></path> <path d="M10297 3696 c-85 -32 -157 -115 -176 -204 -20 -96 24 -208 106 -265 58 -42 97 -55 160 -56 98 -2 204 65 249 155 14 28 19 60 19 114 0 54 -5 86 -19 114 -25 49 -75 100 -126 126 -52 26 -163 35 -213 16z m214 -70 c22 -15 53 -48 70 -73 24 -40 29 -57 29 -113 0 -56 -4 -73 -30 -113 -17 -27 -50 -60 -77 -77 -39 -25 -57 -30 -110 -30 -73 0 -121 20 -170 72 -88 93 -83 208 13 305 28 28 62 54 75 56 13 3 54 4 91 3 54 -3 76 -9 109 -30z"></path> <path d="M10287 3573 c-3 -5 -4 -66 -3 -138 l1 -130 25 0 c23 0 25 4 28 53 l3 52 38 0 c46 0 68 -22 73 -70 2 -27 8 -36 26 -38 20 -3 22 1 22 39 0 30 -6 50 -21 65 l-21 22 21 18 c14 13 21 30 21 56 0 32 -5 41 -32 58 -25 15 -51 20 -105 20 -39 0 -74 -3 -76 -7z m137 -43 c18 -7 26 -17 26 -34 0 -30 -25 -46 -74 -46 -35 0 -36 1 -36 38 0 21 3 42 7 45 9 10 48 8 77 -3z"></path> <path d="M10515 2120 c4 -6 11 -8 16 -5 14 9 11 15 -7 15 -8 0 -12 -5 -9 -10z"></path> <path d="M8485 1799 c-11 -17 1 -21 15 -4 8 9 8 15 2 15 -6 0 -14 -5 -17 -11z"></path>                 </g> </svg>